<?xml version="1.0" encoding="UTF-8" standalone="no"?>
<!-- Generated by graphviz version 2.26.3 (20100126.1600)
 -->

<!-- Title: LegoCase Pages: 1 -->

<svg
   xmlns:dc="http://purl.org/dc/elements/1.1/"
   xmlns:cc="http://creativecommons.org/ns#"
   xmlns:rdf="http://www.w3.org/1999/02/22-rdf-syntax-ns#"
   xmlns:svg="http://www.w3.org/2000/svg"
   xmlns="http://www.w3.org/2000/svg"
   xmlns:sodipodi="http://sodipodi.sourceforge.net/DTD/sodipodi-0.dtd"
   xmlns:inkscape="http://www.inkscape.org/namespaces/inkscape"
   width="814.88232"
   height="501.25"
   viewBox="0 0 651.00803 400.99999"
   id="svg2"
   version="1.1"
   inkscape:version="0.48.1 "
   sodipodi:docname="ConveyorExampleCommunicationMerged.svg">
  <metadata
     id="metadata230">
    <rdf:RDF>
      <cc:Work
         rdf:about="">
        <dc:format>image/svg+xml</dc:format>
        <dc:type
           rdf:resource="http://purl.org/dc/dcmitype/StillImage" />
        <dc:title></dc:title>
      </cc:Work>
    </rdf:RDF>
  </metadata>
  <defs
     id="defs228" />
  <sodipodi:namedview
     pagecolor="#ffffff"
     bordercolor="#666666"
     borderopacity="1"
     objecttolerance="10"
     gridtolerance="10"
     guidetolerance="10"
     inkscape:pageopacity="0"
     inkscape:pageshadow="2"
     inkscape:window-width="1680"
     inkscape:window-height="998"
     id="namedview226"
     showgrid="false"
     fit-margin-top="0"
     fit-margin-left="0"
     fit-margin-right="0"
     fit-margin-bottom="0"
     inkscape:zoom="0.91923882"
     inkscape:cx="260.05566"
     inkscape:cy="225.96649"
     inkscape:window-x="-8"
     inkscape:window-y="-8"
     inkscape:window-maximized="1"
     inkscape:current-layer="svg2">
    <inkscape:grid
       type="xygrid"
       id="grid3375"
       empspacing="5"
       visible="true"
       enabled="true"
       snapvisiblegridlinesonly="true" />
  </sodipodi:namedview>
  <polygon
     points="195.538,-8 31.5376,-8 31.5376,-8 31.5376,-408 195.538,-408 "
     id="polygon33"
     style="fill:none;stroke:#000000;stroke-width:0.95632064"
     transform="matrix(1.0934349,0,0,1,437.14887,408.5)" />
  <text
     x="561.29565"
     y="17.099993"
     font-size="14.00"
     id="text35"
     style="font-size:14px;font-style:normal;font-variant:normal;font-weight:normal;font-stretch:normal;text-anchor:middle;font-family:Arial;-inkscape-font-specification:Arial">Environment: Environment</text>
  <g
     id="g3108"
     transform="translate(-0.61864546,-14.226841)">
    <polygon
       transform="translate(448.37591,313.92684)"
       style="fill:none;stroke:#000000"
       id="polygon75"
       points="72.5376,-232 154.538,-232 154.538,-268 154.538,-268 72.5376,-268 " />
    <text
       style="font-size:14px;font-style:normal;font-variant:normal;font-weight:normal;font-stretch:normal;text-anchor:middle;font-family:Arial;-inkscape-font-specification:Arial"
       id="text77"
       font-size="14.00"
       y="68.526848"
       x="561.91394">RightMotor</text>
  </g>
  <g
     id="g3084"
     transform="translate(2.7131739,-17.857582)">
    <polygon
       transform="translate(448.37591,529.92682)"
       style="fill:none;stroke:#000000"
       id="polygon124"
       points="150.538,-124 150.538,-160 150.538,-160 76.5376,-160 76.5376,-124 " />
    <text
       style="font-size:14px;font-style:normal;font-variant:normal;font-weight:normal;font-stretch:normal;text-anchor:middle;font-family:Arial;-inkscape-font-specification:Arial"
       id="text126"
       font-size="14.00"
       y="392.52682"
       x="561.91394">LeftMotor</text>
  </g>
  <g
     id="g3096"
     transform="translate(0.61211919,-15.201181)">
    <polygon
       transform="translate(448.37591,529.92682)"
       style="fill:none;stroke:#000000"
       id="polygon159"
       points="158.538,-286 158.538,-322 158.538,-322 68.5376,-322 68.5376,-286 " />
    <text
       style="font-size:14px;font-style:normal;font-variant:normal;font-weight:normal;font-stretch:normal;text-anchor:middle;font-family:Arial;-inkscape-font-specification:Arial"
       id="text161"
       font-size="14.00"
       y="230.52682"
       x="561.91394">MiddleMotor</text>
  </g>
  <g
     id="g3092"
     transform="translate(0.61211919,-15.334511)">
    <polygon
       transform="translate(448.37591,313.92682)"
       style="fill:none;stroke:#000000"
       id="polygon173"
       points="55.5376,-16 171.538,-16 171.538,-52 171.538,-52 55.5376,-52 " />
    <text
       style="font-size:14px;font-style:normal;font-variant:normal;font-weight:normal;font-stretch:normal;text-anchor:middle;font-family:Arial;-inkscape-font-specification:Arial"
       id="text175"
       font-size="14.00"
       y="284.52682"
       x="561.91394">MiddleLeftSensor</text>
  </g>
  <g
     id="g3100"
     transform="translate(0.61211919,-15.067861)">
    <polygon
       transform="translate(448.37591,529.92684)"
       style="fill:none;stroke:#000000"
       id="polygon187"
       points="51.5376,-340 175.538,-340 175.538,-376 175.538,-376 51.5376,-376 " />
    <text
       style="font-size:14px;font-style:normal;font-variant:normal;font-weight:normal;font-stretch:normal;text-anchor:middle;font-family:Arial;-inkscape-font-specification:Arial"
       id="text189"
       font-size="14.00"
       y="176.52684"
       x="561.91394">MiddleRightSensor</text>
  </g>
  <g
     id="g3088"
     transform="translate(2.7131739,-17.724242)">
    <polygon
       transform="translate(448.37591,529.92682)"
       style="fill:none;stroke:#000000"
       id="polygon201"
       points="152.538,-214 152.538,-214 74.5376,-214 74.5376,-178 152.538,-178 " />
    <text
       style="font-size:14px;font-style:normal;font-variant:normal;font-weight:normal;font-stretch:normal;text-anchor:middle;font-family:Arial;-inkscape-font-specification:Arial"
       id="text203"
       font-size="14.00"
       y="338.52682"
       x="561.91394">LeftSensor</text>
  </g>
  <g
     id="g3104"
     transform="translate(-0.61864546,-14.360166)">
    <polygon
       transform="translate(448.37591,205.92684)"
       style="fill:none;stroke:#000000"
       id="polygon215"
       points="70.5376,-70 156.538,-70 156.538,-106 156.538,-106 70.5376,-106 " />
    <text
       style="font-size:14px;font-style:normal;font-variant:normal;font-weight:normal;font-stretch:normal;text-anchor:middle;font-family:Arial;-inkscape-font-specification:Arial"
       id="text217"
       font-size="14.00"
       y="122.52684"
       x="561.91394">RightSensor</text>
  </g>
  <polygon
     points="213.358,-361.5 223.358,-358 213.358,-354.5 213.358,-361.5 "
     id="polygon3535"
     style="fill:#000000;stroke:#000000"
     transform="matrix(0.99756404,-0.06975648,0.06975648,0.99756404,318.77736,583.09809)" />
  <polygon
     transform="matrix(0.92718385,0.3746066,-0.3746066,0.92718385,177.47076,298.87257)"
     style="fill:#000000;stroke:#000000;stroke-width:1"
     id="polygon3633"
     points="213.358,-361.5 223.358,-358 213.358,-354.5 213.358,-361.5 " />
  <polygon
     points="213.358,-361.5 223.358,-358 213.358,-354.5 213.358,-361.5 "
     id="polygon3635"
     style="fill:#000000;stroke:#000000;stroke-width:1"
     transform="matrix(0.97437007,-0.22495106,0.22495106,0.97437007,389.77487,766.31605)" />
  <g
     id="g3076"
     transform="translate(7.9980103,-54.883122)">
    <polygon
       transform="translate(13.0447,597.62682)"
       style="fill:none;stroke:#000000"
       id="polygon138"
       points="227.538,-232 305.538,-232 305.538,-268 305.538,-268 227.538,-268 " />
    <text
       style="font-size:14px;font-style:normal;font-variant:normal;font-weight:normal;font-stretch:normal;text-anchor:middle;font-family:Arial;-inkscape-font-specification:Arial"
       id="text140"
       font-size="14.00"
       y="352.22708"
       x="279.5827">LeftSensor</text>
  </g>
  <polygon
     points="317.538,-516 317.538,-224 215.538,-224 215.538,-224 215.538,-516 "
     id="polygon26"
     style="fill:none;stroke:#000000;stroke-width:1.10553348"
     transform="matrix(1,0,0,0.81819383,21.042711,503.23172)" />
  <text
     x="287.58072"
     y="97.64399"
     font-size="14.00"
     id="text28"
     style="font-size:14px;font-style:normal;font-variant:normal;font-weight:normal;font-stretch:normal;text-anchor:middle;font-family:Arial;-inkscape-font-specification:Arial">Middle: Middle</text>
  <g
     id="g3064"
     transform="translate(7.9980103,0.501497)">
    <polygon
       transform="translate(13.0447,651.92683)"
       style="fill:none;stroke:#000000"
       id="polygon47"
       points="239.538,-448 293.538,-448 293.538,-484 293.538,-484 239.538,-484 " />
    <text
       style="font-size:14px;font-style:normal;font-variant:normal;font-weight:normal;font-stretch:normal;text-anchor:middle;font-family:Arial;-inkscape-font-specification:Arial"
       id="text49"
       font-size="14.00"
       y="190.52708"
       x="279.5827">L_R</text>
  </g>
  <g
     id="g3068"
     transform="translate(9.2287792,-107.8062)">
    <polygon
       transform="translate(13.0447,597.82683)"
       style="fill:none;stroke:#000000"
       id="polygon145"
       points="309.538,-376 309.538,-376 223.538,-376 223.538,-340 309.538,-340 " />
    <text
       style="font-size:14px;font-style:normal;font-variant:normal;font-weight:normal;font-stretch:normal;text-anchor:middle;font-family:Arial;-inkscape-font-specification:Arial"
       id="text147"
       font-size="14.00"
       y="244.42709"
       x="279.5827">RightSensor</text>
  </g>
  <g
     id="g3072"
     transform="translate(7.9980103,-54.883127)">
    <polygon
       transform="translate(13.0447,597.72683)"
       style="fill:none;stroke:#000000"
       id="polygon152"
       points="293.538,-322 293.538,-322 239.538,-322 239.538,-286 293.538,-286 " />
    <text
       style="font-size:14px;font-style:normal;font-variant:normal;font-weight:normal;font-stretch:normal;text-anchor:middle;font-family:Arial;-inkscape-font-specification:Arial"
       id="text154"
       font-size="14.00"
       y="298.32709"
       x="279.5827">Motor</text>
  </g>
  <polygon
     points="213.358,-361.5 223.358,-358 213.358,-354.5 213.358,-361.5 "
     id="polygon196"
     style="fill:#000000;stroke:#000000;stroke-width:1"
     transform="matrix(0.98480776,-0.17364818,0.17364818,0.98480776,101.48633,577.68295)" />
  <polygon
     transform="matrix(0.99452189,0.10452847,-0.10452847,0.99452189,142.39063,418.63441)"
     style="fill:#000000;stroke:#000000;stroke-width:1"
     id="polygon3639"
     points="169.443,-300.5 159.443,-304 169.443,-307.5 169.443,-300.5 " />
  <polygon
     points="159.443,-304 169.443,-307.5 169.443,-300.5 169.443,-300.5 "
     id="polygon3641"
     style="fill:#000000;stroke:#000000"
     transform="matrix(0.99254616,-0.12186935,0.12186935,0.99254616,206.70221,615.15622)" />
  <g
     id="g3054"
     transform="translate(21.612111,52.66984)">
    <polygon
       transform="translate(-83.424431,899.7)"
       points="85.5376,-760 85.5376,-724 141.538,-724 141.538,-760 141.538,-760 "
       id="polygon3367"
       style="fill:none;stroke:#000000" />
    <text
       x="30.113579"
       y="162.29997"
       font-size="14.00"
       id="text3369"
       style="font-size:14px;font-style:normal;font-variant:normal;font-weight:normal;font-stretch:normal;text-anchor:middle;font-family:Arial;-inkscape-font-specification:Arial">Middle</text>
  </g>
  <text
     x="50.074303"
     y="70.803787"
     font-size="14.00"
     id="text14"
     style="font-size:14px;font-style:normal;font-variant:normal;font-weight:normal;font-stretch:normal;text-anchor:middle;font-family:Arial;-inkscape-font-specification:Arial">L_R: L_R</text>
  <g
     id="g3056"
     transform="translate(20.381338,54.008832)">
    <polygon
       transform="matrix(1.5283837,0,0,1,-143.41595,792.05781)"
       style="fill:none;stroke:#000000;stroke-width:0.80887944"
       id="polygon61"
       points="141.538,-706 141.538,-706 85.5376,-706 85.5376,-670 141.538,-670 " />
    <text
       style="font-size:14px;font-style:normal;font-variant:normal;font-weight:normal;font-stretch:normal;text-anchor:middle;font-family:Arial;-inkscape-font-specification:Arial"
       id="text63"
       font-size="14.00"
       y="108.65778"
       x="30.113579">RightSensor</text>
  </g>
  <g
     id="g3060"
     transform="translate(20.381341,53.703802)">
    <polygon
       transform="matrix(1.4512557,0,0,1,-134.65901,684.41562)"
       style="fill:none;stroke:#000000;stroke-width:0.83009547"
       id="polygon68"
       points="86.5376,-652 86.5376,-616 140.538,-616 140.538,-652 140.538,-652 " />
    <text
       style="font-size:14px;font-style:normal;font-variant:normal;font-weight:normal;font-stretch:normal;text-anchor:middle;font-family:Arial;-inkscape-font-specification:Arial"
       id="text70"
       font-size="14.00"
       y="55.015594"
       x="30.113579">RightMotor</text>
  </g>
  <polygon
     points="73.5376,-600 153.538,-600 153.538,-416 73.5376,-416 73.5376,-416 "
     id="polygon19"
     style="fill:none;stroke:#000000;stroke-width:0.70593047"
     transform="matrix(1.2610842,0,0,1.5912264,-92.686015,1008.843)" />
  <g
     id="g3048"
     transform="translate(23.381349,51.121757)">
    <polygon
       transform="matrix(1.3418953,0,0,1,-125.24248,707.35364)"
       style="fill:none;stroke:#000000;stroke-width:0.86325812"
       id="polygon110"
       points="141.538,-478 141.538,-514 141.538,-514 85.5376,-514 85.5376,-478 " />
    <text
       style="font-size:14px;font-style:normal;font-variant:normal;font-weight:normal;font-stretch:normal;text-anchor:middle;font-family:Arial;-inkscape-font-specification:Arial"
       id="text112"
       font-size="14.00"
       y="215.95313"
       x="27.113575">LeftSensor</text>
  </g>
  <g
     id="g3044"
     transform="translate(23.381339,51.068977)">
    <polygon
       transform="matrix(1.2900929,0,0,1,-119.36094,707.35364)"
       style="fill:none;stroke:#000000;stroke-width:0.88041919"
       id="polygon117"
       points="86.5376,-424 140.538,-424 140.538,-460 140.538,-460 86.5376,-460 " />
    <text
       style="font-size:14px;font-style:normal;font-variant:normal;font-weight:normal;font-stretch:normal;text-anchor:middle;font-family:Arial;-inkscape-font-specification:Arial"
       id="text119"
       font-size="14.00"
       y="269.95313"
       x="27.113575">LeftMotor</text>
  </g>
  <polygon
     transform="matrix(0.87461971,0.48480963,-0.48480963,0.87461971,-198.12717,451.02467)"
     style="fill:#000000;stroke:#000000;stroke-width:1"
     id="polygon3643"
     points="169.443,-300.5 169.443,-300.5 159.443,-304 169.443,-307.5 " />
  <polygon
     points="169.443,-300.5 169.443,-300.5 159.443,-304 169.443,-307.5 "
     id="polygon3645"
     style="fill:#000000;stroke:#000000;stroke-width:1"
     transform="matrix(0.83867057,-0.54463904,0.54463904,0.83867057,126.75567,502.32801)" />
  <path
     style="fill:none;stroke:#000000;stroke-width:0.80000001px;stroke-linecap:butt;stroke-linejoin:miter;stroke-opacity:1"
     d="M 313.39776,238.59475 509.09007,210.59476"
     id="path3183"
     inkscape:connector-curvature="0"
     sodipodi:nodetypes="cc" />
  <path
     style="fill:none;stroke:#000000;stroke-width:0.80000001px;stroke-linecap:butt;stroke-linejoin:miter;stroke-opacity:1"
     d="M 504.16699,265.67167 336.78238,292.7486"
     id="path3185"
     inkscape:connector-curvature="0"
     sodipodi:nodetypes="cc" />
  <path
     style="fill:none;stroke:#000000;stroke-width:0.80000001px;stroke-linecap:butt;stroke-linejoin:miter;stroke-opacity:1"
     d="m 341.39777,133.67168 158.76922,24"
     id="path3187"
     inkscape:connector-curvature="0"
     sodipodi:nodetypes="cc" />
  <path
     style="fill:none;stroke:#000000;stroke-width:0.80000001px;stroke-linecap:butt;stroke-linejoin:miter;stroke-opacity:1"
     d="M 79.551614,211.51784 252.167,188.13322"
     id="path3189"
     inkscape:connector-curvature="0"
     sodipodi:nodetypes="cc" />
  <path
     style="fill:none;stroke:#000000;stroke-width:0.80000001px;stroke-linecap:butt;stroke-linejoin:miter;stroke-opacity:1"
     d="M 89.70546,104.7486 C 217.09008,-14.636012 318.62853,-14.636012 511.8593,48.133218"
     id="path3191"
     inkscape:connector-curvature="0"
     sodipodi:nodetypes="cc" />
  <path
     style="fill:none;stroke:#000000;stroke-width:0.80000001px;stroke-linecap:butt;stroke-linejoin:miter;stroke-opacity:1"
     d="M 101.70546,156.44091 C 215.55161,40.133219 319.55161,40.133219 517.70545,103.51783"
     id="path3193"
     inkscape:connector-curvature="0"
     sodipodi:nodetypes="cc" />
  <path
     style="fill:none;stroke:#000000;stroke-width:0.80000001px;stroke-linecap:butt;stroke-linejoin:miter;stroke-opacity:1"
     d="M 519.24391,368.44091 C 350.51707,401.59426 225.51028,402.76775 85.090078,316.13322"
     id="path3195"
     inkscape:connector-curvature="0"
     sodipodi:nodetypes="cc" />
  <path
     style="fill:none;stroke:#000000;stroke-width:0.80000001px;stroke-linecap:butt;stroke-linejoin:miter;stroke-opacity:1"
     d="M 94.628542,265.97937 C 223.85931,375.51782 352.78238,372.44091 525.09007,317.05629"
     id="path3197"
     inkscape:connector-curvature="0"
     sodipodi:nodetypes="cc" />
</svg>
