<?xml version="1.0" encoding="UTF-8" standalone="no"?>
<!-- Generated by graphviz version 2.26.3 (20100126.1600)
 -->

<!-- Title: Middle Pages: 1 -->

<svg
   xmlns:dc="http://purl.org/dc/elements/1.1/"
   xmlns:cc="http://creativecommons.org/ns#"
   xmlns:rdf="http://www.w3.org/1999/02/22-rdf-syntax-ns#"
   xmlns:svg="http://www.w3.org/2000/svg"
   xmlns="http://www.w3.org/2000/svg"
   xmlns:sodipodi="http://sodipodi.sourceforge.net/DTD/sodipodi-0.dtd"
   xmlns:inkscape="http://www.inkscape.org/namespaces/inkscape"
   width="921.56714"
   height="292.75"
   viewBox="0 0 736.77632 234.2"
   id="svg2"
   version="1.1"
   inkscape:version="0.48.1 "
   sodipodi:docname="ConveyorExampleSMSMerge.svg">
  <metadata
     id="metadata102">
    <rdf:RDF>
      <cc:Work
         rdf:about="">
        <dc:format>image/svg+xml</dc:format>
        <dc:type
           rdf:resource="http://purl.org/dc/dcmitype/StillImage" />
        <dc:title />
      </cc:Work>
    </rdf:RDF>
  </metadata>
  <defs
     id="defs100" />
  <sodipodi:namedview
     pagecolor="#ffffff"
     bordercolor="#666666"
     borderopacity="1"
     objecttolerance="10"
     gridtolerance="10"
     guidetolerance="10"
     inkscape:pageopacity="0"
     inkscape:pageshadow="2"
     inkscape:window-width="1680"
     inkscape:window-height="998"
     id="namedview98"
     showgrid="false"
     fit-margin-top="0"
     fit-margin-left="0"
     fit-margin-right="0"
     fit-margin-bottom="0"
     inkscape:zoom="0.76546763"
     inkscape:cx="294.41696"
     inkscape:cy="93.908059"
     inkscape:window-x="-8"
     inkscape:window-y="-8"
     inkscape:window-maximized="1"
     inkscape:current-layer="svg2" />
  <text
     x="214.93599"
     y="129.05266"
     font-size="14.00"
     id="text70-1"
     style="font-size:14px;font-style:normal;font-variant:normal;font-weight:normal;font-stretch:normal;text-anchor:middle;font-family:Arial;-inkscape-font-specification:Arial"
     clip-path="none"><tspan
   style="font-weight:bold"
   id="tspan3184">send</tspan>
 On() <tspan
   style="font-weight:bold"
   id="tspan3186">to</tspan>
 RightMotor</text>
  <ellipse
     cx="57"
     cy="-237"
     rx="7.1999998"
     ry="7.1999998"
     id="ellipse12-0"
     d="m 64.2,-237 c 0,3.97645 -3.22355,7.2 -7.2,7.2 -3.97645,0 -7.2,-3.22355 -7.2,-7.2 0,-3.97645 3.22355,-7.2 7.2,-7.2 3.97645,0 7.2,3.22355 7.2,7.2 z"
     sodipodi:cx="57"
     sodipodi:cy="-237"
     sodipodi:rx="7.1999998"
     sodipodi:ry="7.1999998"
     style="fill:#000000;stroke:#000000"
     transform="translate(240.7301,244.7)" />
  <polyline
     points="11.5,-133 102.5,-133 "
     id="polyline17-8"
     style="fill:none;stroke:#000000"
     transform="translate(240.7301,244.7)" />
  <path
     d="m 343.2301,111.7 c 6,0 12,-6 12,-12"
     id="path19-8"
     inkscape:connector-curvature="0"
     style="fill:none;stroke:#000000" />
  <polyline
     points="114.5,-145 114.5,-179 "
     id="polyline21-2"
     style="fill:none;stroke:#000000"
     transform="translate(240.7301,244.7)" />
  <path
     d="m 355.2301,65.7 c 0,-6 -6,-12 -12,-12"
     id="path23-4"
     inkscape:connector-curvature="0"
     style="fill:none;stroke:#000000" />
  <polyline
     points="102.5,-191 11.5,-191 "
     id="polyline25-5"
     style="fill:none;stroke:#000000"
     transform="translate(240.7301,244.7)" />
  <path
     d="m 252.2301,53.7 c -6,0 -12,6 -12,12"
     id="path27-5"
     inkscape:connector-curvature="0"
     style="fill:none;stroke:#000000" />
  <polyline
     points="-0.5,-179 -0.5,-145 "
     id="polyline29-1"
     style="fill:none;stroke:#000000"
     transform="translate(240.7301,244.7)" />
  <path
     d="m 240.2301,99.7 c 0,6 6,12 12,12"
     id="path31-7"
     inkscape:connector-curvature="0"
     style="fill:none;stroke:#000000" />
  <text
     x="297.73032"
     y="87.300003"
     font-size="14.00"
     id="text33-1"
     style="font-size:14px;text-anchor:middle;font-family:'Times New Roman,serif'">L_R</text>
  <path
     d="m 297.7301,15.165 c 0,6.795 0,17.387 0,28.184"
     id="path38-2"
     inkscape:connector-curvature="0"
     style="fill:none;stroke:#000000" />
  <polygon
     points="57,-191.054 53.5001,-201.054 60.5001,-201.054 60.5001,-201.054 "
     id="polygon40-7"
     style="fill:#000000;stroke:#000000"
     transform="translate(240.7301,244.7)" />
  <polyline
     points="11.5,-11 102.5,-11 "
     id="polyline45-4"
     style="fill:none;stroke:#000000"
     transform="translate(240.7301,244.7)" />
  <path
     d="m 343.2301,233.7 c 6,0 12,-6 12,-12"
     id="path47-2"
     inkscape:connector-curvature="0"
     style="fill:none;stroke:#000000" />
  <polyline
     points="114.5,-23 114.5,-57 "
     id="polyline49-3"
     style="fill:none;stroke:#000000"
     transform="translate(240.7301,244.7)" />
  <path
     d="m 355.2301,187.7 c 0,-6 -6,-12 -12,-12"
     id="path51-2"
     inkscape:connector-curvature="0"
     style="fill:none;stroke:#000000" />
  <polyline
     points="102.5,-69 11.5,-69 "
     id="polyline53-2"
     style="fill:none;stroke:#000000"
     transform="translate(240.7301,244.7)" />
  <path
     d="m 252.2301,175.7 c -6,0 -12,6 -12,12"
     id="path55-1"
     inkscape:connector-curvature="0"
     style="fill:none;stroke:#000000" />
  <polyline
     points="-0.5,-57 -0.5,-23 "
     id="polyline57-6"
     style="fill:none;stroke:#000000"
     transform="translate(240.7301,244.7)" />
  <path
     d="m 240.2301,221.7 c 0,6 6,12 12,12"
     id="path59-8"
     inkscape:connector-curvature="0"
     style="fill:none;stroke:#000000" />
  <text
     x="297.73032"
     y="209.3"
     font-size="14.00"
     id="text61-5"
     style="font-size:14px;text-anchor:middle;font-family:'Times New Roman,serif'">L_R´</text>
  <path
     d="m 297.7301,111.922 c 0,15.879 0,35.743 0,53.0128"
     id="path66-7"
     inkscape:connector-curvature="0"
     style="fill:none;stroke:#000000"
     clip-path="none" />
  <polygon
     points="57,-69.4064 53.5001,-79.4065 60.5001,-79.4064 60.5001,-79.4064 "
     id="polygon68-6"
     style="fill:#000000;stroke:#000000"
     transform="translate(240.7301,244.7)"
     clip-path="none" />
  <path
     d="m 239.93014,193.0509 c -10.278,1.5141 -17.456,5.3971 -17.456,11.6491 0,4.0052 2.946,7.0381 7.765,9.0989"
     id="path75"
     inkscape:connector-curvature="0"
     style="fill:none;stroke:#000000"
     clip-path="none" />
  <polygon
     points="125.106,-27.5114 125.106,-27.5114 114.544,-28.3509 123.324,-34.2808 "
     id="polygon77"
     style="fill:#000000;stroke:#000000"
     transform="matrix(-1,0,0,1,354.47414,244.7)"
     clip-path="none" />
  <text
     x="129.92079"
     y="154.34312"
     font-size="14.00"
     id="text79"
     style="font-size:14px;font-style:normal;font-variant:normal;font-weight:normal;font-stretch:normal;text-anchor:middle;font-family:Arial;-inkscape-font-specification:Arial"><tspan
   style="font-style:normal;font-variant:normal;font-weight:bold;font-stretch:normal;font-family:Arial;-inkscape-font-specification:Arial"
   id="tspan3188">receive</tspan>
 Block() <tspan
   style="font-weight:bold"
   id="tspan3208">from</tspan>
 RightSensor;</text>
  <text
     x="129.92079"
     y="170.34312"
     font-size="14.00"
     id="text81-8"
     style="font-size:14px;font-style:normal;font-variant:normal;font-weight:normal;font-stretch:normal;text-anchor:middle;font-family:Arial;-inkscape-font-specification:Arial"><tspan
   style="font-weight:bold"
   id="tspan3252">receive</tspan>
 BlockPassed() <tspan
   style="font-weight:bold"
   id="tspan3206">from</tspan>
 RightSensor;</text>
  <text
     x="129.92079"
     y="186.34312"
     font-size="14.00"
     id="text83-9"
     style="font-size:14px;font-style:normal;font-variant:normal;font-weight:normal;font-stretch:normal;text-anchor:middle;font-family:Arial;-inkscape-font-specification:Arial"><tspan
   style="font-weight:bold"
   id="tspan3194">send</tspan>
 Off() <tspan
   style="font-weight:bold"
   id="tspan3204">to</tspan>
 RightMotor;</text>
  <text
     x="129.92079"
     y="202.34312"
     font-size="14.00"
     id="text85"
     style="font-size:14px;font-style:normal;font-variant:normal;font-weight:normal;font-stretch:normal;text-anchor:middle;font-family:Arial;-inkscape-font-specification:Arial"><tspan
   style="font-weight:bold"
   id="tspan3196">send</tspan>
 RightBlock() <tspan
   style="font-weight:bold"
   id="tspan3202">to</tspan>
 Middle;</text>
  <text
     x="129.92079"
     y="218.34312"
     font-size="14.00"
     id="text87"
     style="font-size:14px;font-style:normal;font-variant:normal;font-weight:normal;font-stretch:normal;text-anchor:middle;font-family:Arial;-inkscape-font-specification:Arial"><tspan
   style="font-weight:bold"
   id="tspan3198">send</tspan>
 On() <tspan
   style="font-weight:bold"
   id="tspan3200">to</tspan>
 RightMotor</text>
  <ellipse
     cx="57"
     cy="-150.74001"
     rx="7.1999998"
     ry="7.1999998"
     id="ellipse12"
     d="m 64.2,-150.74001 c 0,3.97645 -3.22355,7.2 -7.2,7.2 -3.97645,0 -7.2,-3.22355 -7.2,-7.2 0,-3.97645 3.22355,-7.2 7.2,-7.2 3.97645,0 7.2,3.22355 7.2,7.2 z"
     sodipodi:cx="57"
     sodipodi:cy="-150.74001"
     sodipodi:rx="7.1999998"
     sodipodi:ry="7.1999998"
     style="fill:#000000;stroke:#000000"
     transform="translate(391.89394,191.49404)" />
  <polyline
     points="11.5,-36.7405 102.5,-36.7405 "
     id="polyline17"
     style="fill:none;stroke:#000000"
     transform="translate(391.89394,191.49404)" />
  <path
     d="m 494.39394,154.75354 c 6,0 12,-6 12,-12"
     id="path19"
     inkscape:connector-curvature="0"
     style="fill:none;stroke:#000000" />
  <polyline
     points="114.5,-48.7405 114.5,-82.7405 "
     id="polyline21"
     style="fill:none;stroke:#000000"
     transform="translate(391.89394,191.49404)" />
  <path
     d="m 506.39394,108.75354 c 0,-6 -6,-12 -12,-12"
     id="path23"
     inkscape:connector-curvature="0"
     style="fill:none;stroke:#000000" />
  <polyline
     points="102.5,-94.7405 11.5,-94.7405 "
     id="polyline25"
     style="fill:none;stroke:#000000"
     transform="translate(391.89394,191.49404)" />
  <path
     d="m 403.39394,96.75354 c -6,0 -12,6 -12,12"
     id="path27"
     inkscape:connector-curvature="0"
     style="fill:none;stroke:#000000" />
  <polyline
     points="-0.5,-82.7405 -0.5,-48.7405 "
     id="polyline29"
     style="fill:none;stroke:#000000"
     transform="translate(391.89394,191.49404)" />
  <path
     d="m 391.39394,142.75354 c 0,6 6,12 12,12"
     id="path31"
     inkscape:connector-curvature="0"
     style="fill:none;stroke:#000000" />
  <text
     x="448.89395"
     y="130.35355"
     font-size="14.00"
     id="text33"
     style="font-size:14px;text-anchor:middle;font-family:'Times New Roman,serif'">Middle</text>
  <path
     d="m 448.89394,48.00104 c 0,8.593 0,23.59 0,38.136"
     id="path38"
     inkscape:connector-curvature="0"
     style="fill:none;stroke:#000000" />
  <polygon
     points="60.5001,-104.944 57,-94.9443 53.5001,-104.944 60.5001,-104.944 "
     id="polygon40"
     style="fill:#000000;stroke:#000000"
     transform="translate(391.89394,191.49404)" />
  <path
     d="m 500.60334,98.971439 c 8.30105,-6.09692 14.89644,-9.40382 16.66218,-7.2995 1.10367,1.3153 -0.20208,4.12142 -3.15418,7.77823"
     id="path45"
     inkscape:connector-curvature="0"
     style="fill:none;stroke:#000000" />
  <polygon
     points="124.886,-58.321 124.886,-58.321 114.544,-60.6219 124.064,-65.2725 "
     id="polygon47"
     style="fill:#000000;stroke:#000000;stroke-width:1"
     transform="matrix(0.76604444,-0.64278762,0.64278762,0.76604444,458.40483,226.88005)" />
  <text
     x="595.05182"
     y="32.189056"
     font-size="14.00"
     id="text49"
     style="font-size:14px;font-style:normal;font-variant:normal;font-weight:normal;font-stretch:normal;text-anchor:middle;font-family:Arial;-inkscape-font-specification:Arial"><tspan
   style="font-weight:bold"
   id="tspan3210">receive</tspan>
 LeftBlock() <tspan
   style="font-weight:bold"
   id="tspan3228">from</tspan>
 L_R;</text>
  <text
     x="595.05182"
     y="48.189056"
     font-size="14.00"
     id="text51"
     style="font-size:14px;font-style:normal;font-variant:normal;font-weight:normal;font-stretch:normal;text-anchor:middle;font-family:Arial;-inkscape-font-specification:Arial"><tspan
   style="font-weight:bold"
   id="tspan3212">send</tspan>
 Right() <tspan
   style="font-weight:bold"
   id="tspan3226">to</tspan>
 Motor;</text>
  <text
     x="595.05182"
     y="64.189064"
     font-size="14.00"
     id="text53"
     style="font-size:14px;font-style:normal;font-variant:normal;font-weight:normal;font-stretch:normal;text-anchor:middle;font-family:Arial;-inkscape-font-specification:Arial"><tspan
   style="font-weight:bold"
   id="tspan3214">receive</tspan>
 Block() <tspan
   style="font-weight:bold"
   id="tspan3224">from</tspan>
 RightSensor;</text>
  <text
     x="595.05182"
     y="80.189064"
     font-size="14.00"
     id="text55"
     style="font-size:14px;font-style:normal;font-variant:normal;font-weight:normal;font-stretch:normal;text-anchor:middle;font-family:Arial;-inkscape-font-specification:Arial"><tspan
   style="font-weight:bold"
   id="tspan3216">receive</tspan>
 BlockPassed() <tspan
   style="font-weight:bold"
   id="tspan3218">from</tspan>
 RightSensor;</text>
  <text
     x="595.05182"
     y="96.189064"
     font-size="14.00"
     id="text57"
     style="font-size:14px;font-style:normal;font-variant:normal;font-weight:normal;font-stretch:normal;text-anchor:middle;font-family:Arial;-inkscape-font-specification:Arial"><tspan
   style="font-weight:bold"
   id="tspan3222">send</tspan>
 Off() <tspan
   style="font-weight:bold"
   id="tspan3220">to</tspan>
 Motor</text>
  <text
     x="611.61981"
     y="141.562"
     font-size="14.00"
     id="text66"
     style="font-size:14px;font-style:normal;font-variant:normal;font-weight:normal;font-stretch:normal;text-anchor:middle;font-family:Arial;-inkscape-font-specification:Arial"><tspan
   style="font-weight:bold"
   id="tspan3230">receive</tspan>
 RightBlock() <tspan
   style="font-weight:bold"
   id="tspan3250">from</tspan>
 L_R;</text>
  <text
     x="611.61981"
     y="157.562"
     font-size="14.00"
     id="text68"
     style="font-size:14px;font-style:normal;font-variant:normal;font-weight:normal;font-stretch:normal;text-anchor:middle;font-family:Arial;-inkscape-font-specification:Arial"><tspan
   style="font-weight:bold"
   id="tspan3232">send</tspan>
 Left() <tspan
   style="font-weight:bold"
   id="tspan3248">to</tspan>
 Motor;</text>
  <text
     x="611.61981"
     y="173.562"
     font-size="14.00"
     id="text70"
     style="font-size:14px;font-style:normal;font-variant:normal;font-weight:normal;font-stretch:normal;text-anchor:middle;font-family:Arial;-inkscape-font-specification:Arial"><tspan
   style="font-weight:bold"
   id="tspan3234">receive</tspan>
 Block() <tspan
   style="font-weight:bold"
   id="tspan3246">from</tspan>
 LeftSensor;</text>
  <text
     x="611.61981"
     y="189.562"
     font-size="14.00"
     id="text72"
     style="font-size:14px;font-style:normal;font-variant:normal;font-weight:normal;font-stretch:normal;text-anchor:middle;font-family:Arial;-inkscape-font-specification:Arial"><tspan
   style="font-weight:bold"
   id="tspan3236">receive</tspan>
 BlockPassed() <tspan
   style="font-weight:bold"
   id="tspan3244">from</tspan>
 LeftSensor;</text>
  <text
     x="611.61981"
     y="205.562"
     font-size="14.00"
     id="text74"
     style="font-size:14px;font-style:normal;font-variant:normal;font-weight:normal;font-stretch:normal;text-anchor:middle;font-family:Arial;-inkscape-font-specification:Arial"><tspan
   style="font-weight:bold"
   id="tspan3238">send</tspan>
 Off() <tspan
   style="font-weight:bold"
   id="tspan3240">to</tspan>
 Motor</text>
  <path
     style="fill:none;stroke:#000000;stroke-width:1"
     inkscape:connector-curvature="0"
     id="path3115"
     d="m 500.10419,153.01518 c 8.30105,6.09692 14.89644,9.40382 16.66218,7.2995 1.10367,-1.3153 -0.20208,-4.12142 -3.15419,-7.77823" />
  <polygon
     transform="matrix(0.76604444,0.64278762,0.64278762,-0.76604444,457.90568,25.106568)"
     style="fill:#000000;stroke:#000000;stroke-width:1"
     id="polygon3117"
     points="124.886,-58.321 124.886,-58.321 114.544,-60.6219 124.064,-65.2725 " />
</svg>
