<?xml version="1.0" encoding="UTF-8" standalone="no"?>
<!-- Generated by graphviz version 2.26.3 (20100126.1600)
 -->

<!-- Title: Com Pages: 1 -->

<svg
   xmlns:dc="http://purl.org/dc/elements/1.1/"
   xmlns:cc="http://creativecommons.org/ns#"
   xmlns:rdf="http://www.w3.org/1999/02/22-rdf-syntax-ns#"
   xmlns:svg="http://www.w3.org/2000/svg"
   xmlns="http://www.w3.org/2000/svg"
   xmlns:sodipodi="http://sodipodi.sourceforge.net/DTD/sodipodi-0.dtd"
   xmlns:inkscape="http://www.inkscape.org/namespaces/inkscape"
   width="877.71637"
   height="811.29321"
   viewBox="0 0 702.17309 649.03457"
   id="svg2"
   version="1.1"
   inkscape:version="0.48.1 "
   sodipodi:docname="Behavior_CoreWithTimeMinimized.svg">
  <metadata
     id="metadata189">
    <rdf:RDF>
      <cc:Work
         rdf:about="">
        <dc:format>image/svg+xml</dc:format>
        <dc:type
           rdf:resource="http://purl.org/dc/dcmitype/StillImage" />
        <dc:title />
      </cc:Work>
    </rdf:RDF>
  </metadata>
  <defs
     id="defs187" />
  <sodipodi:namedview
     pagecolor="#ffffff"
     bordercolor="#666666"
     borderopacity="1"
     objecttolerance="10"
     gridtolerance="10"
     guidetolerance="10"
     inkscape:pageopacity="0"
     inkscape:pageshadow="2"
     inkscape:window-width="1680"
     inkscape:window-height="998"
     id="namedview185"
     showgrid="false"
     fit-margin-top="0"
     fit-margin-left="0"
     fit-margin-right="0"
     fit-margin-bottom="0"
     inkscape:zoom="0.66496815"
     inkscape:cx="195.72412"
     inkscape:cy="416.14256"
     inkscape:window-x="-8"
     inkscape:window-y="-8"
     inkscape:window-maximized="1"
     inkscape:current-layer="svg2" />
  <g
     id="g3520"
     transform="translate(-546.83809,-340.31398)">
    <ellipse
       transform="matrix(0.99866843,0,0,0.99866843,586.22651,682.88132)"
       style="fill:#000000;stroke:#000000"
       sodipodi:ry="7.1999998"
       sodipodi:rx="7.1999998"
       sodipodi:cy="-217"
       sodipodi:cx="103.34"
       d="m 110.54,-217 c 0,3.97645 -3.22355,7.2 -7.2,7.2 -3.976454,0 -7.200003,-3.22355 -7.200003,-7.2 0,-3.97645 3.223549,-7.2 7.200003,-7.2 3.97645,0 7.2,3.22355 7.2,7.2 z"
       id="ellipse12-7"
       ry="7.1999998"
       rx="7.1999998"
       cy="-217"
       cx="103.34" />
    <polyline
       transform="matrix(0.99866843,0,0,0.99866843,586.22651,670.08132)"
       style="fill:none;stroke:#000000"
       id="polyline17-4"
       points="57.84,-113 148.84,-113 " />
    <path
       style="fill:none;stroke:#000000;stroke-width:0.99866843"
       inkscape:connector-curvature="0"
       id="path19-0"
       d="m 734.86832,557.23179 c 5.99201,0 11.98402,-5.99201 11.98402,-11.98402" />
    <polyline
       transform="matrix(0.99866843,0,0,0.99866843,586.22651,670.08132)"
       style="fill:none;stroke:#000000"
       id="polyline21-9"
       points="160.84,-125 160.84,-159 " />
    <path
       style="fill:none;stroke:#000000;stroke-width:0.99866843"
       inkscape:connector-curvature="0"
       id="path23-4"
       d="m 746.85234,511.29305 c 0,-5.99201 -5.99201,-11.98402 -11.98402,-11.98402" />
    <polyline
       transform="matrix(0.99866843,0,0,0.99866843,586.22651,670.08132)"
       style="fill:none;stroke:#000000"
       id="polyline25-8"
       points="148.84,-171 57.84,-171 " />
    <path
       style="fill:none;stroke:#000000;stroke-width:0.99866843"
       inkscape:connector-curvature="0"
       id="path27-8"
       d="m 643.98949,499.30903 c -5.99201,0 -11.98402,5.99201 -11.98402,11.98402" />
    <polyline
       transform="matrix(0.99866843,0,0,0.99866843,586.22651,670.08132)"
       style="fill:none;stroke:#000000"
       id="polyline29-2"
       points="45.84,-159 45.84,-125 " />
    <path
       style="fill:none;stroke:#000000;stroke-width:0.99866843"
       inkscape:connector-curvature="0"
       id="path31-4"
       d="m 632.00547,545.24777 c 0,5.99201 5.99201,11.98402 11.98402,11.98402" />
    <text
       style="font-size:13.98135757px;font-style:normal;font-variant:normal;font-weight:normal;font-stretch:normal;text-anchor:middle;font-family:Arial;-inkscape-font-specification:Arial"
       id="text33-5"
       font-size="14.00"
       y="532.86432"
       x="689.42889">Rec2a</text>
    <path
       style="fill:none;stroke:#000000;stroke-width:0.99866849"
       inkscape:connector-curvature="0"
       id="path38-5"
       d="m 689.42891,466.14638 c 0,5.50308 0,14.08125 0,22.82543" />
    <polygon
       transform="matrix(0.99866843,0,0,0.99866843,586.22651,670.08132)"
       style="fill:#000000;stroke:#000000"
       id="polygon40-1"
       points="99.8401,-181.054 106.84,-181.054 106.84,-181.054 103.34,-171.054 " />
    <polyline
       transform="matrix(0.99866843,0,0,0.99866843,586.22651,670.08132)"
       style="fill:none;stroke:#000000"
       id="polyline45-7"
       points="57.84,-1 148.84,-1 " />
    <path
       style="fill:none;stroke:#000000;stroke-width:0.99866843"
       inkscape:connector-curvature="0"
       id="path47-1"
       d="m 734.86832,669.08266 c 5.99201,0 11.98402,-5.99201 11.98402,-11.98402" />
    <polyline
       transform="matrix(0.99866843,0,0,0.99866843,586.22651,670.08132)"
       style="fill:none;stroke:#000000"
       id="polyline49-1"
       points="160.84,-13 160.84,-47 " />
    <path
       style="fill:none;stroke:#000000;stroke-width:0.99866843"
       inkscape:connector-curvature="0"
       id="path51-5"
       d="m 746.85234,623.14391 c 0,-5.99201 -5.99201,-11.98402 -11.98402,-11.98402" />
    <polyline
       transform="matrix(0.99866843,0,0,0.99866843,586.22651,670.08132)"
       style="fill:none;stroke:#000000"
       id="polyline53-2"
       points="148.84,-59 57.84,-59 " />
    <path
       style="fill:none;stroke:#000000;stroke-width:0.99866843"
       inkscape:connector-curvature="0"
       id="path55-7"
       d="m 643.98949,611.15989 c -5.99201,0 -11.98402,5.99201 -11.98402,11.98402" />
    <polyline
       transform="matrix(0.99866843,0,0,0.99866843,586.22651,670.08132)"
       style="fill:none;stroke:#000000"
       id="polyline57-6"
       points="45.84,-47 45.84,-13 " />
    <path
       style="fill:none;stroke:#000000;stroke-width:0.99866843"
       inkscape:connector-curvature="0"
       id="path59-1"
       d="m 632.00547,657.09864 c 0,5.99201 5.99201,11.98402 11.98402,11.98402" />
    <text
       style="font-size:13.98135757px;font-style:normal;font-variant:normal;font-weight:normal;font-stretch:normal;text-anchor:middle;font-family:Arial;-inkscape-font-specification:Arial"
       id="text61-4"
       font-size="14.00"
       y="644.71515"
       x="689.42889">Rec2b</text>
    <path
       sodipodi:nodetypes="cc"
       style="fill:none;stroke:#000000;stroke-width:0.99866843"
       inkscape:connector-curvature="0"
       id="path66-2"
       d="m 631.93896,543.4242 c -109.12898,4.59887 -111.2097,74.4539 -9.45449,78.58492" />
    <polygon
       transform="matrix(0.96463963,-0.25847441,0.25847441,0.96463963,598.04703,678.00743)"
       style="fill:#000000;stroke:#000000;stroke-width:1"
       id="polygon68-3"
       points="45.7316,-44.5053 35.1418,-44.8342 37.6583,-51.3662 37.6583,-51.3662 " />
    <text
       style="font-size:13.98135757px;font-style:normal;font-variant:normal;font-weight:normal;font-stretch:normal;text-anchor:middle;font-family:Arial;-inkscape-font-specification:Arial"
       id="text70-2"
       font-size="14.00"
       y="587.53265"
       x="653.7431"><tspan
   id="tspan3129"
   style="font-weight:bold">receive</tspan>
 Q(m | m &gt;= 0) <tspan
   id="tspan3131"
   style="font-weight:bold">from</tspan>
 In2</text>
    <path
       sodipodi:nodetypes="cc"
       style="fill:none;stroke:#000000;stroke-width:0.99866843"
       inkscape:connector-curvature="0"
       id="path75"
       d="m 745.26932,618.86145 c 33.30889,-14.49088 39.12045,-42.38508 7.07126,-59.97599" />
    <polygon
       transform="matrix(0.99866843,0,0,0.99866843,583.99797,669.08122)"
       style="fill:#000000;stroke:#000000"
       id="polygon77"
       points="171.056,-112.411 166.533,-107.068 166.533,-107.068 161.162,-116.201 " />
    <text
       style="font-size:13.98135757px;font-style:normal;font-variant:normal;font-weight:normal;font-stretch:normal;text-anchor:middle;font-family:Arial;-inkscape-font-specification:Arial"
       id="text79"
       font-size="14.00"
       y="591.98969"
       x="812.97906">m := m + 1</text>
  </g>
  <g
     id="g3275"
     transform="translate(-384.05581,-1.9073491e-7)">
    <g
       transform="translate(16,0)"
       id="g3259">
      <ellipse
         cx="57"
         cy="-105"
         rx="7.1999998"
         ry="7.1999998"
         id="ellipse12-1"
         d="m 64.2,-105 c 0,3.97645 -3.22355,7.2 -7.2,7.2 -3.97645,0 -7.2,-3.22355 -7.2,-7.2 0,-3.97645 3.22355,-7.2 7.2,-7.2 3.97645,0 7.2,3.22355 7.2,7.2 z"
         sodipodi:cx="57"
         sodipodi:cy="-105"
         sodipodi:rx="7.1999998"
         sodipodi:ry="7.1999998"
         style="fill:#000000;stroke:#000000"
         transform="translate(369.78937,112.7)" />
      <polyline
         points="11.5,-1 102.5,-1 "
         id="polyline17-6"
         style="fill:none;stroke:#000000"
         transform="translate(369.78937,103.1)" />
      <path
         d="m 472.28937,102.1 c 6,0 12,-6 12,-12"
         id="path19-8"
         inkscape:connector-curvature="0"
         style="fill:none;stroke:#000000" />
      <polyline
         points="114.5,-13 114.5,-47 "
         id="polyline21-5"
         style="fill:none;stroke:#000000"
         transform="translate(369.78937,103.1)" />
      <path
         d="m 484.28937,56.1 c 0,-6 -6,-12 -12,-12"
         id="path23-7"
         inkscape:connector-curvature="0"
         style="fill:none;stroke:#000000" />
      <polyline
         points="102.5,-59 11.5,-59 "
         id="polyline25-6"
         style="fill:none;stroke:#000000"
         transform="translate(369.78937,103.1)" />
      <path
         d="m 381.28937,44.1 c -6,0 -12,6 -12,12"
         id="path27-1"
         inkscape:connector-curvature="0"
         style="fill:none;stroke:#000000" />
      <polyline
         points="-0.5,-47 -0.5,-13 "
         id="polyline29-8"
         style="fill:none;stroke:#000000"
         transform="translate(369.78937,103.1)" />
      <path
         d="m 369.28937,90.1 c 0,6 6,12 12,12"
         id="path31-9"
         inkscape:connector-curvature="0"
         style="fill:none;stroke:#000000" />
      <text
         x="426.7894"
         y="77.699997"
         font-size="14.00"
         id="text33-2"
         style="font-size:14px;font-style:normal;font-variant:normal;font-weight:normal;font-stretch:normal;text-anchor:middle;font-family:Arial;-inkscape-font-specification:Arial">Rec1</text>
      <path
         d="m 426.78937,8.7655 c 0,6.7949 0,17.3866 0,28.1833"
         id="path38-7"
         inkscape:connector-curvature="0"
         style="fill:none;stroke:#000000" />
      <polygon
         points="53.5001,-69.054 60.5001,-69.0539 60.5001,-69.0539 57,-59.054 "
         id="polygon40-9"
         style="fill:#000000;stroke:#000000"
         transform="translate(369.78937,103.1)" />
      <path
         d="m 484.33337,64.6279 c 10.278,1.1012 17.456,3.9252 17.456,8.4721 0,2.8418 -2.804,5.0106 -7.416,6.5064"
         id="path45"
         inkscape:connector-curvature="0"
         style="fill:none;stroke:#000000" />
      <polygon
         points="123.686,-26.8842 125.031,-20.0147 125.031,-20.0147 114.544,-21.5279 "
         id="polygon47"
         style="fill:#000000;stroke:#000000"
         transform="translate(369.78937,103.1)" />
    </g>
    <text
       style="font-size:14px;font-style:normal;font-variant:normal;font-weight:normal;font-stretch:normal;text-anchor:middle;font-family:Arial;-inkscape-font-specification:Arial"
       id="text49"
       font-size="14.00"
       y="60.100014"
       x="609.8891"><tspan
   id="tspan3071"
   style="font-weight:bold">receive</tspan>
 P(v | v == <tspan
   style="font-weight:bold"
   id="tspan3157">false</tspan>
) <tspan
   id="tspan3075"
   style="font-weight:bold">from</tspan>
 In1</text>
  </g>
  <g
     id="g3296"
     transform="translate(-343.90117,2.4457979e-5)">
    <g
       id="g3199">
      <ellipse
         cx="156"
         cy="-329"
         rx="7.1999998"
         ry="7.1999998"
         id="ellipse12-4"
         d="m 163.2,-329 c 0,3.97645 -3.22355,7.2 -7.2,7.2 -3.97645,0 -7.2,-3.22355 -7.2,-7.2 0,-3.97645 3.22355,-7.2 7.2,-7.2 3.97645,0 7.2,3.22355 7.2,7.2 z"
         sodipodi:cx="156"
         sodipodi:cy="-329"
         sodipodi:rx="7.1999998"
         sodipodi:ry="7.1999998"
         style="fill:#000000;stroke:#000000"
         transform="translate(345.63473,681.53452)" />
      <polyline
         points="110.5,-225 201.5,-225 "
         id="polyline17-3"
         style="fill:none;stroke:#000000"
         transform="translate(345.63473,671.93452)" />
      <path
         d="m 547.13473,446.93452 c 6,0 12,-6 12,-12"
         id="path19-1"
         inkscape:connector-curvature="0"
         style="fill:none;stroke:#000000" />
      <polyline
         points="213.5,-237 213.5,-271 "
         id="polyline21-2"
         style="fill:none;stroke:#000000"
         transform="translate(345.63473,671.93452)" />
      <path
         d="m 559.13473,400.93452 c 0,-6 -6,-12 -12,-12"
         id="path23-3"
         inkscape:connector-curvature="0"
         style="fill:none;stroke:#000000" />
      <polyline
         points="201.5,-283 110.5,-283 "
         id="polyline25-3"
         style="fill:none;stroke:#000000"
         transform="translate(345.63473,671.93452)" />
      <path
         d="m 456.13473,388.93452 c -6,0 -12,6 -12,12"
         id="path27-4"
         inkscape:connector-curvature="0"
         style="fill:none;stroke:#000000" />
      <polyline
         points="98.5,-271 98.5,-237 "
         id="polyline29-1"
         style="fill:none;stroke:#000000"
         transform="translate(345.63473,671.93452)" />
      <path
         d="m 444.13473,434.93452 c 0,6 6,12 12,12"
         id="path31-1"
         inkscape:connector-curvature="0"
         style="fill:none;stroke:#000000" />
      <text
         x="501.6347"
         y="422.53452"
         font-size="14.00"
         id="text33-3"
         style="font-size:14px;font-style:normal;font-variant:normal;font-weight:normal;font-stretch:normal;text-anchor:middle;font-family:Arial;-inkscape-font-specification:Arial">SendRec0</text>
      <path
         d="m 501.63473,350.39952 c 0,6.795 0,17.387 0,28.184"
         id="path38-8"
         inkscape:connector-curvature="0"
         style="fill:none;stroke:#000000" />
      <polygon
         points="159.5,-293.054 159.5,-293.054 156,-283.054 152.5,-293.054 "
         id="polygon40-7"
         style="fill:#000000;stroke:#000000"
         transform="translate(345.63473,671.93452)" />
      <polyline
         points="11.5,-113 102.5,-113 "
         id="polyline45-4"
         style="fill:none;stroke:#000000"
         transform="translate(345.63473,662.33452)" />
      <path
         d="m 448.13473,549.33452 c 6,0 12,-6 12,-12"
         id="path47-2"
         inkscape:connector-curvature="0"
         style="fill:none;stroke:#000000" />
      <polyline
         points="114.5,-125 114.5,-159 "
         id="polyline49-7"
         style="fill:none;stroke:#000000"
         transform="translate(345.63473,662.33452)" />
      <path
         d="m 460.13473,503.33452 c 0,-6 -6,-12 -12,-12"
         id="path51-7"
         inkscape:connector-curvature="0"
         style="fill:none;stroke:#000000" />
      <polyline
         points="102.5,-171 11.5,-171 "
         id="polyline53-9"
         style="fill:none;stroke:#000000"
         transform="translate(345.63473,662.33452)" />
      <path
         d="m 357.13473,491.33452 c -6,0 -12,6 -12,12"
         id="path55-3"
         inkscape:connector-curvature="0"
         style="fill:none;stroke:#000000" />
      <polyline
         points="-0.5,-159 -0.5,-125 "
         id="polyline57-1"
         style="fill:none;stroke:#000000"
         transform="translate(345.63473,662.33452)" />
      <path
         d="m 345.13473,537.33452 c 0,6 6,12 12,12"
         id="path59-9"
         inkscape:connector-curvature="0"
         style="fill:none;stroke:#000000" />
      <text
         x="402.6347"
         y="524.93451"
         font-size="14.00"
         id="text61-8"
         style="font-size:14px;font-style:normal;font-variant:normal;font-weight:normal;font-stretch:normal;text-anchor:middle;font-family:Arial;-inkscape-font-specification:Arial">SendRec1</text>
      <path
         d="m 467.88173,447.06852 c -10.92218,12.27451 -24.13774,27.12561 -35.75974,40.18544"
         id="path66-6"
         inkscape:connector-curvature="0"
         style="fill:none;stroke:#000000;stroke-width:1" />
      <polygon
         points="82.9676,-171.378 86.9681,-181.188 92.2129,-176.552 92.2129,-176.552 "
         id="polygon68-5"
         style="fill:#000000;stroke:#000000"
         transform="translate(345.63473,662.33452)" />
      <text
         x="479.6347"
         y="475.3345"
         font-size="14.00"
         id="text70-0"
         style="font-size:14px;font-style:normal;font-variant:normal;font-weight:normal;font-stretch:normal;text-anchor:middle;font-family:Arial;-inkscape-font-specification:Arial">m == 6</text>
      <polyline
         points="61.5,-1 152.5,-1 "
         id="polyline75-2"
         style="fill:none;stroke:#000000"
         transform="translate(345.63473,649.53452)" />
      <path
         d="m 498.13473,648.53452 c 6,0 12,-6 12,-12"
         id="path77-8"
         inkscape:connector-curvature="0"
         style="fill:none;stroke:#000000" />
      <polyline
         points="164.5,-13 164.5,-47 "
         id="polyline79-6"
         style="fill:none;stroke:#000000"
         transform="translate(345.63473,649.53452)" />
      <path
         d="m 510.13473,602.53452 c 0,-6 -6,-12 -12,-12"
         id="path81-0"
         inkscape:connector-curvature="0"
         style="fill:none;stroke:#000000" />
      <polyline
         points="152.5,-59 61.5,-59 "
         id="polyline83-2"
         style="fill:none;stroke:#000000"
         transform="translate(345.63473,649.53452)" />
      <path
         d="m 407.13473,590.53452 c -6,0 -12,6 -12,12"
         id="path85-4"
         inkscape:connector-curvature="0"
         style="fill:none;stroke:#000000" />
      <polyline
         points="49.5,-47 49.5,-13 "
         id="polyline87-8"
         style="fill:none;stroke:#000000"
         transform="translate(345.63473,649.53452)" />
      <path
         d="m 395.13473,636.53452 c 0,6 6,12 12,12"
         id="path89-6"
         inkscape:connector-curvature="0"
         style="fill:none;stroke:#000000" />
      <text
         x="452.6347"
         y="624.13446"
         font-size="14.00"
         id="text91-5"
         style="font-size:14px;font-style:normal;font-variant:normal;font-weight:normal;font-stretch:normal;text-anchor:middle;font-family:Arial;-inkscape-font-specification:Arial">SendRec2</text>
      <path
         d="m 376.40683,549.37952 c -15.65377,18.91575 -0.5463,28.601 16.0608,44.84177"
         id="path96-0"
         inkscape:connector-curvature="0"
         style="fill:none;stroke:#000000"
         sodipodi:nodetypes="cc" />
      <polygon
         points="52.1419,-68.9515 52.1419,-68.9515 56.4509,-59.2725 47.0465,-64.1518 "
         id="polygon98-9"
         style="fill:#000000;stroke:#000000"
         transform="translate(338.82553,656.52379)" />
      <text
         x="442.93475"
         y="568.13446"
         font-size="14.00"
         id="text100-0"
         style="font-size:14px;font-style:normal;font-variant:normal;font-weight:normal;font-stretch:normal;text-anchor:middle;font-family:Arial;-inkscape-font-specification:Arial"><tspan
   style="font-weight:bold"
   id="tspan3193">send</tspan>
 S(&quot;a&quot;) <tspan
   style="font-weight:bold"
   id="tspan3195">to</tspan>
 InOut</text>
      <path
         d="m 505.75982,593.44489 c 32.59922,-41.11372 20.83104,-88.76974 11.93991,-136.45537"
         id="path105"
         inkscape:connector-curvature="0"
         style="fill:none;stroke:#000000"
         sodipodi:nodetypes="cc" />
      <polygon
         points="162.219,-214.325 162.219,-214.325 163.635,-224.825 169.076,-215.734 "
         id="polygon107"
         style="fill:#000000;stroke:#000000"
         transform="translate(352.03473,671.93452)" />
    </g>
    <text
       style="font-size:14px;font-style:normal;font-variant:normal;font-weight:normal;font-stretch:normal;text-anchor:middle;font-family:Arial;-inkscape-font-specification:Arial"
       id="text109"
       font-size="14.00"
       y="524.93451"
       x="624.13483"><tspan
   id="tspan3187"
   style="font-weight:bold">receive</tspan>
 T(s | <tspan
   id="tspan3191"
   style="font-weight:bold">true</tspan>
) <tspan
   id="tspan3189"
   style="font-weight:bold">from</tspan>
 InOut</text>
  </g>
  <g
     id="g3551"
     transform="translate(372.57068,3.9398849)">
    <ellipse
       transform="translate(20.199999,635.4774)"
       style="fill:#000000;stroke:#000000"
       sodipodi:ry="7.1999998"
       sodipodi:rx="7.1999998"
       sodipodi:cy="-613"
       sodipodi:cx="156"
       d="m 163.2,-613 c 0,3.97645 -3.22355,7.2 -7.2,7.2 -3.97645,0 -7.2,-3.22355 -7.2,-7.2 0,-3.97645 3.22355,-7.2 7.2,-7.2 3.97645,0 7.2,3.22355 7.2,7.2 z"
       id="ellipse12"
       ry="7.1999998"
       rx="7.1999998"
       cy="-613"
       cx="156" />
    <polyline
       transform="translate(20.199999,625.8774)"
       style="fill:none;stroke:#000000"
       id="polyline17"
       points="110.5,-509 201.5,-509 " />
    <path
       style="fill:none;stroke:#000000"
       inkscape:connector-curvature="0"
       id="path19"
       d="m 221.7,116.8774 c 6,0 12,-6 12,-12" />
    <polyline
       transform="translate(20.199999,625.8774)"
       style="fill:none;stroke:#000000"
       id="polyline21"
       points="213.5,-521 213.5,-555 " />
    <path
       style="fill:none;stroke:#000000"
       inkscape:connector-curvature="0"
       id="path23"
       d="m 233.7,70.877399 c 0,-6 -6,-12 -12,-12" />
    <polyline
       transform="translate(20.199999,625.8774)"
       style="fill:none;stroke:#000000"
       id="polyline25"
       points="201.5,-567 110.5,-567 " />
    <path
       style="fill:none;stroke:#000000"
       inkscape:connector-curvature="0"
       id="path27"
       d="m 130.7,58.877399 c -6,0 -12,6 -12,12" />
    <polyline
       transform="translate(20.199999,625.8774)"
       style="fill:none;stroke:#000000"
       id="polyline29"
       points="98.5,-555 98.5,-521 " />
    <path
       style="fill:none;stroke:#000000"
       inkscape:connector-curvature="0"
       id="path31"
       d="m 118.7,104.8774 c 0,6 6,12 12,12" />
    <text
       style="font-size:14px;font-style:normal;font-variant:normal;font-weight:normal;font-stretch:normal;text-anchor:middle;font-family:Arial;-inkscape-font-specification:Arial"
       id="text33"
       font-size="14.00"
       y="92.477371"
       x="176.2">Com0</text>
    <path
       style="fill:none;stroke:#000000"
       inkscape:connector-curvature="0"
       id="path38"
       d="m 176.2,20.342399 c 0,6.795 0,17.387 0,28.184" />
    <polygon
       transform="translate(20.199999,625.8774)"
       style="fill:#000000;stroke:#000000"
       id="polygon40"
       points="159.5,-577.054 159.5,-577.054 156,-567.054 152.5,-577.054 " />
    <polyline
       transform="translate(0.99999871,625.8774)"
       style="fill:none;stroke:#000000"
       id="polyline45"
       points="29.5,-397 120.5,-397 " />
    <path
       style="fill:none;stroke:#000000"
       inkscape:connector-curvature="0"
       id="path47"
       d="m 121.5,228.8774 c 6,0 12,-6 12,-12" />
    <polyline
       transform="translate(0.99999871,625.8774)"
       style="fill:none;stroke:#000000"
       id="polyline49"
       points="132.5,-409 132.5,-443 " />
    <path
       style="fill:none;stroke:#000000"
       inkscape:connector-curvature="0"
       id="path51"
       d="m 133.5,182.8774 c 0,-6 -6,-12 -12,-12" />
    <polyline
       transform="translate(0.99999871,625.8774)"
       style="fill:none;stroke:#000000"
       id="polyline53"
       points="120.5,-455 29.5,-455 " />
    <path
       style="fill:none;stroke:#000000"
       inkscape:connector-curvature="0"
       id="path55"
       d="m 30.499999,170.8774 c -6,0 -12,6 -12,12" />
    <polyline
       transform="translate(0.99999871,625.8774)"
       style="fill:none;stroke:#000000"
       id="polyline57"
       points="17.5,-443 17.5,-409 " />
    <path
       style="fill:none;stroke:#000000"
       inkscape:connector-curvature="0"
       id="path59"
       d="m 18.499999,216.8774 c 0,6 6,12 12,12" />
    <text
       style="font-size:14px;font-style:normal;font-variant:normal;font-weight:normal;font-stretch:normal;text-anchor:middle;font-family:Arial;-inkscape-font-specification:Arial"
       id="text61"
       font-size="14.00"
       y="204.4774"
       x="76.000015">Com1</text>
    <path
       sodipodi:nodetypes="ccc"
       style="fill:none;stroke:#000000"
       inkscape:connector-curvature="0"
       id="path66"
       d="m 123.87908,114.48893 c -5.928,5.841 -14.13208,14.81447 -18.87908,21.38847 -5.611601,7.771 -10.510601,16.801 -14.605601,25.586" />
    <polygon
       transform="translate(0.99999871,625.8774)"
       style="fill:#000000;stroke:#000000"
       id="polygon68"
       points="92.5041,-462.791 92.5041,-462.791 85.2706,-455.05 86.0978,-465.613 " />
    <text
       style="font-size:14px;font-style:normal;font-variant:normal;font-weight:normal;font-stretch:normal;text-anchor:middle;font-family:Arial;-inkscape-font-specification:Arial"
       id="text70"
       font-size="14.00"
       y="148.4774"
       x="175.29997"><tspan
   id="tspan3347"
   style="font-weight:bold">send</tspan>
 P(<tspan
   id="tspan3349"
   style="font-weight:bold">true</tspan>
) <tspan
   id="tspan3351"
   style="font-weight:bold">to</tspan>
 Out1</text>
    <polyline
       transform="translate(20.199999,625.8774)"
       style="fill:none;stroke:#000000"
       id="polyline75"
       points="119.5,-61 210.5,-61 " />
    <path
       style="fill:none;stroke:#000000"
       inkscape:connector-curvature="0"
       id="path77"
       d="m 230.7,564.8774 c 6,0 12,-6 12,-12" />
    <polyline
       transform="translate(20.199999,625.8774)"
       style="fill:none;stroke:#000000"
       id="polyline79"
       points="222.5,-73 222.5,-107 " />
    <path
       style="fill:none;stroke:#000000"
       inkscape:connector-curvature="0"
       id="path81"
       d="m 242.7,518.8774 c 0,-6 -6,-12 -12,-12" />
    <polyline
       transform="translate(20.199999,625.8774)"
       style="fill:none;stroke:#000000"
       id="polyline83"
       points="210.5,-119 119.5,-119 " />
    <path
       style="fill:none;stroke:#000000"
       inkscape:connector-curvature="0"
       id="path85"
       d="m 139.7,506.8774 c -6,0 -12,6 -12,12" />
    <polyline
       transform="translate(20.199999,625.8774)"
       style="fill:none;stroke:#000000"
       id="polyline87"
       points="107.5,-107 107.5,-73 " />
    <path
       style="fill:none;stroke:#000000"
       inkscape:connector-curvature="0"
       id="path89"
       d="m 127.7,552.8774 c 0,6 6,12 12,12" />
    <text
       style="font-size:14px;font-style:normal;font-variant:normal;font-weight:normal;font-stretch:normal;text-anchor:middle;font-family:Arial;-inkscape-font-specification:Arial"
       id="text91"
       font-size="14.00"
       y="540.47742"
       x="185.2">Com2</text>
    <path
       sodipodi:nodetypes="cscscc"
       style="fill:none;stroke:#000000"
       inkscape:connector-curvature="0"
       id="path96"
       d="m 225.69062,115.91672 c 6.307,5.619 12.27438,13.00368 16.70938,19.96068 15.652,24.552 14,34.883 14,64 0,0 0,0 0,224 0,29.117 0.714,38.874 -14,64 -2.309,3.942 -5.053,7.734 -8.063,11.339" />
    <polygon
       transform="translate(24.999999,624.2774)"
       style="fill:#000000;stroke:#000000"
       id="polygon98"
       points="213.327,-124.089 213.327,-124.089 203.99,-119.082 208.167,-128.819 " />
    <text
       style="font-size:14px;font-style:normal;font-variant:normal;font-weight:normal;font-stretch:normal;text-anchor:middle;font-family:Arial;-inkscape-font-specification:Arial"
       id="text100"
       font-size="14.00"
       y="316.47742"
       x="297.20007"><tspan
   id="tspan3329"
   style="font-weight:bold">after</tspan>
 5 <tspan
   id="tspan3331"
   style="font-weight:bold">ms</tspan>
</text>
    <polyline
       transform="translate(0.99999871,625.8774)"
       style="fill:none;stroke:#000000"
       id="polyline105"
       points="11.5,-285 102.5,-285 " />
    <path
       style="fill:none;stroke:#000000"
       inkscape:connector-curvature="0"
       id="path107"
       d="m 103.5,340.8774 c 6,0 12,-6 12,-12" />
    <polyline
       transform="translate(0.99999871,625.8774)"
       style="fill:none;stroke:#000000"
       id="polyline109"
       points="114.5,-297 114.5,-331 " />
    <path
       style="fill:none;stroke:#000000"
       inkscape:connector-curvature="0"
       id="path111"
       d="m 115.5,294.8774 c 0,-6 -6,-12 -12,-12" />
    <polyline
       transform="translate(0.99999871,625.8774)"
       style="fill:none;stroke:#000000"
       id="polyline113"
       points="102.5,-343 11.5,-343 " />
    <path
       style="fill:none;stroke:#000000"
       inkscape:connector-curvature="0"
       id="path115"
       d="m 12.499999,282.8774 c -6.0000003,0 -12.00000029,6 -12.00000029,12" />
    <polyline
       transform="translate(0.99999871,625.8774)"
       style="fill:none;stroke:#000000"
       id="polyline117"
       points="-0.5,-331 -0.5,-297 " />
    <path
       style="fill:none;stroke:#000000"
       inkscape:connector-curvature="0"
       id="path119"
       d="m 0.49999871,328.8774 c 0,6 5.99999999,12 12.00000029,12" />
    <text
       style="font-size:14px;font-style:normal;font-variant:normal;font-weight:normal;font-stretch:normal;text-anchor:middle;font-family:Arial;-inkscape-font-specification:Arial"
       id="text121"
       font-size="14.00"
       y="316.47742"
       x="58.000019">Com3</text>
    <path
       style="fill:none;stroke:#000000"
       inkscape:connector-curvature="0"
       id="path126"
       d="m 71.317699,229.0114 c -2.1291,13.248 -4.6806,29.124 -6.978,43.419" />
    <polygon
       transform="translate(0.99999871,625.8774)"
       style="fill:#000000;stroke:#000000"
       id="polygon128"
       points="66.7639,-352.695 66.7639,-352.695 61.7214,-343.378 59.8526,-353.806 " />
    <text
       style="font-size:14px;font-style:normal;font-variant:normal;font-weight:normal;font-stretch:normal;text-anchor:middle;font-family:Arial;-inkscape-font-specification:Arial"
       id="text130"
       font-size="14.00"
       y="260.47742"
       x="131.7"><tspan
   id="tspan3343"
   style="font-weight:bold">send</tspan>
 Q(5) <tspan
   id="tspan3345"
   style="font-weight:bold">to</tspan>
 Out2</text>
    <polyline
       transform="translate(0.99999871,625.8774)"
       style="fill:none;stroke:#000000"
       id="polyline135"
       points="23.5,-173 114.5,-173 " />
    <path
       style="fill:none;stroke:#000000"
       inkscape:connector-curvature="0"
       id="path137"
       d="m 115.5,452.8774 c 6,0 12,-6 12,-12" />
    <polyline
       transform="translate(0.99999871,625.8774)"
       style="fill:none;stroke:#000000"
       id="polyline139"
       points="126.5,-185 126.5,-219 " />
    <path
       style="fill:none;stroke:#000000"
       inkscape:connector-curvature="0"
       id="path141"
       d="m 127.5,406.8774 c 0,-6 -6,-12 -12,-12" />
    <polyline
       transform="translate(0.99999871,625.8774)"
       style="fill:none;stroke:#000000"
       id="polyline143"
       points="114.5,-231 23.5,-231 " />
    <path
       style="fill:none;stroke:#000000"
       inkscape:connector-curvature="0"
       id="path145"
       d="m 24.499999,394.8774 c -6,0 -12,6 -12,12" />
    <polyline
       transform="translate(0.99999871,625.8774)"
       style="fill:none;stroke:#000000"
       id="polyline147"
       points="11.5,-219 11.5,-185 " />
    <path
       style="fill:none;stroke:#000000"
       inkscape:connector-curvature="0"
       id="path149"
       d="m 12.499999,440.8774 c 0,6 6,12 12,12" />
    <text
       style="font-size:14px;font-style:normal;font-variant:normal;font-weight:normal;font-stretch:normal;text-anchor:middle;font-family:Arial;-inkscape-font-specification:Arial"
       id="text151"
       font-size="14.00"
       y="428.47742"
       x="70.000015">Com4</text>
    <path
       style="fill:none;stroke:#000000"
       inkscape:connector-curvature="0"
       id="path156"
       d="m 54.975599,340.9864 c -0.5874,10.982 -0.5949,23.556 1.0244,34.891 0.4143,2.9 0.9627,5.87 1.6027,8.841" />
    <polygon
       transform="translate(0.99999871,625.8774)"
       style="fill:#000000;stroke:#000000"
       id="polygon158"
       points="60.0733,-241.703 60.0733,-241.703 59.0692,-231.156 53.2768,-240.027 " />
    <text
       style="font-size:14px;font-style:normal;font-variant:normal;font-weight:normal;font-stretch:normal;text-anchor:middle;font-family:Arial;-inkscape-font-specification:Arial"
       id="text160"
       font-size="14.00"
       y="372.47742"
       x="153.99998"><tspan
   id="tspan3333"
   style="font-weight:bold">receive</tspan>
 S(s | <tspan
   id="tspan3335"
   style="font-weight:bold">true</tspan>
) <tspan
   id="tspan3337"
   style="font-weight:bold">from</tspan>
 InOut</text>
    <path
       sodipodi:nodetypes="ccc"
       style="fill:none;stroke:#000000"
       inkscape:connector-curvature="0"
       id="path165"
       d="m 87.977699,452.9194 c 7.5123,11.325 16.664301,24.155 26.022301,34.958 3.382,3.905 8.656,9.422 12.435,13.241" />
    <polygon
       transform="translate(1.6015317,626.62932)"
       style="fill:#000000;stroke:#000000"
       id="polygon167"
       points="126.487,-128.66 131.181,-119.161 121.589,-123.66 126.487,-128.66 " />
    <text
       style="font-size:14px;font-style:normal;font-variant:normal;font-weight:normal;font-stretch:normal;text-anchor:middle;font-family:Arial;-inkscape-font-specification:Arial"
       id="text169"
       font-size="14.00"
       y="479.6774"
       x="173.39995"><tspan
   id="tspan3339"
   style="font-weight:bold">send</tspan>
 T(s) <tspan
   id="tspan3341"
   style="font-weight:bold">to</tspan>
 InOut</text>
    <ellipse
       transform="translate(20.199999,625.8774)"
       style="fill:#000000;stroke:#000000"
       sodipodi:ry="7"
       sodipodi:rx="7"
       sodipodi:cy="-11"
       sodipodi:cx="165"
       d="m 172,-11 c 0,3.8659932 -3.13401,7 -7,7 -3.86599,0 -7,-3.1340068 -7,-7 0,-3.865993 3.13401,-7 7,-7 3.86599,0 7,3.134007 7,7 z"
       id="ellipse174"
       ry="7"
       rx="7"
       cy="-11"
       cx="165" />
    <ellipse
       transform="translate(20.199999,625.8774)"
       style="fill:none;stroke:#000000"
       sodipodi:ry="11"
       sodipodi:rx="11"
       sodipodi:cy="-11"
       sodipodi:cx="165"
       d="m 176,-11 c 0,6.0751322 -4.92487,11 -11,11 -6.07513,0 -11,-4.9248678 -11,-11 0,-6.075132 4.92487,-11 11,-11 6.07513,0 11,4.924868 11,11 z"
       id="ellipse176"
       ry="11"
       rx="11"
       cy="-11"
       cx="165" />
    <path
       style="fill:none;stroke:#000000"
       inkscape:connector-curvature="0"
       id="path181"
       d="m 185.2,565.2941 c 0,9.3769 0,19.5664 0,28.2556" />
    <polygon
       transform="translate(20.199999,625.8774)"
       style="fill:#000000;stroke:#000000"
       id="polygon183"
       points="168.5,-32.2977 168.5,-32.2977 165,-22.2978 161.5,-32.2978 " />
  </g>
</svg>
