<?xml version="1.0" encoding="UTF-8" standalone="no"?>
<!-- Generated by graphviz version 2.26.3 (20100126.1600)
 -->

<!-- Title: Rec Pages: 1 -->

<svg
   xmlns:dc="http://purl.org/dc/elements/1.1/"
   xmlns:cc="http://creativecommons.org/ns#"
   xmlns:rdf="http://www.w3.org/1999/02/22-rdf-syntax-ns#"
   xmlns:svg="http://www.w3.org/2000/svg"
   xmlns="http://www.w3.org/2000/svg"
   xmlns:sodipodi="http://sodipodi.sourceforge.net/DTD/sodipodi-0.dtd"
   xmlns:inkscape="http://www.inkscape.org/namespaces/inkscape"
   width="370.30527"
   height="279.87683"
   viewBox="0 0 296.63921 223.90146"
   id="svg2"
   version="1.1"
   inkscape:version="0.48.1 "
   sodipodi:docname="P_Rec.svg">
  <metadata
     id="metadata85">
    <rdf:RDF>
      <cc:Work
         rdf:about="">
        <dc:format>image/svg+xml</dc:format>
        <dc:type
           rdf:resource="http://purl.org/dc/dcmitype/StillImage" />
      </cc:Work>
    </rdf:RDF>
  </metadata>
  <defs
     id="defs83" />
  <sodipodi:namedview
     pagecolor="#ffffff"
     bordercolor="#666666"
     borderopacity="1"
     objecttolerance="10"
     gridtolerance="10"
     guidetolerance="10"
     inkscape:pageopacity="0"
     inkscape:pageshadow="2"
     inkscape:window-width="1680"
     inkscape:window-height="998"
     id="namedview81"
     showgrid="false"
     fit-margin-top="0"
     fit-margin-left="0"
     fit-margin-right="0"
     fit-margin-bottom="0"
     inkscape:zoom="0.6363961"
     inkscape:cx="447.22948"
     inkscape:cy="-82.228835"
     inkscape:window-x="-8"
     inkscape:window-y="-8"
     inkscape:window-maximized="1"
     inkscape:current-layer="svg2" />
  <ellipse
     cx="103.34"
     cy="-217"
     rx="7.1999998"
     ry="7.1999998"
     id="ellipse12"
     d="m 110.54,-217 c 0,3.97645 -3.22355,7.2 -7.2,7.2 -3.976454,0 -7.200003,-3.22355 -7.200003,-7.2 0,-3.97645 3.223549,-7.2 7.200003,-7.2 3.97645,0 7.2,3.22355 7.2,7.2 z"
     sodipodi:cx="103.34"
     sodipodi:cy="-217"
     sodipodi:rx="7.1999998"
     sodipodi:ry="7.1999998"
     style="fill:#000000;stroke:#000000"
     transform="translate(38.706401,224.55073)" />
  <polyline
     points="57.84,-113 148.84,-113 "
     id="polyline17"
     style="fill:none;stroke:#000000"
     transform="translate(38.706401,224.55073)" />
  <path
     d="m 187.5464,111.55073 c 6,0 12,-6 12,-11.999998"
     id="path19"
     inkscape:connector-curvature="0"
     style="fill:none;stroke:#000000" />
  <polyline
     points="160.84,-125 160.84,-159 "
     id="polyline21"
     style="fill:none;stroke:#000000"
     transform="translate(38.706401,224.55073)" />
  <path
     d="m 199.5464,65.550732 c 0,-6 -6,-12 -12,-12"
     id="path23"
     inkscape:connector-curvature="0"
     style="fill:none;stroke:#000000" />
  <polyline
     points="148.84,-171 57.84,-171 "
     id="polyline25"
     style="fill:none;stroke:#000000"
     transform="translate(38.706401,224.55073)" />
  <path
     d="m 96.546401,53.550732 c -6,0 -12,6 -12,12"
     id="path27"
     inkscape:connector-curvature="0"
     style="fill:none;stroke:#000000" />
  <polyline
     points="45.84,-159 45.84,-125 "
     id="polyline29"
     style="fill:none;stroke:#000000"
     transform="translate(38.706401,224.55073)" />
  <path
     d="m 84.546401,99.550732 c 0,5.999998 6,11.999998 12,11.999998"
     id="path31"
     inkscape:connector-curvature="0"
     style="fill:none;stroke:#000000" />
  <text
     x="142.0464"
     y="87.150742"
     font-size="14.00"
     id="text33"
     style="font-size:14px;font-style:normal;font-variant:normal;font-weight:normal;font-stretch:normal;text-anchor:middle;font-family:Arial;-inkscape-font-specification:Arial">State0</text>
  <path
     d="m 142.0464,15.015732 c 0,6.795 0,17.387 0,28.184"
     id="path38"
     inkscape:connector-curvature="0"
     style="fill:none;stroke:#000000" />
  <polygon
     points="99.8401,-181.054 106.84,-181.054 106.84,-181.054 103.34,-171.054 "
     id="polygon40"
     style="fill:#000000;stroke:#000000"
     transform="translate(38.706401,224.55073)" />
  <polyline
     points="57.84,-1 148.84,-1 "
     id="polyline45"
     style="fill:none;stroke:#000000"
     transform="translate(38.706401,224.55073)" />
  <path
     d="m 187.5464,223.55073 c 6,0 12,-6 12,-12"
     id="path47"
     inkscape:connector-curvature="0"
     style="fill:none;stroke:#000000" />
  <polyline
     points="160.84,-13 160.84,-47 "
     id="polyline49"
     style="fill:none;stroke:#000000"
     transform="translate(38.706401,224.55073)" />
  <path
     d="m 199.5464,177.55073 c 0,-6 -6,-12 -12,-12"
     id="path51"
     inkscape:connector-curvature="0"
     style="fill:none;stroke:#000000" />
  <polyline
     points="148.84,-59 57.84,-59 "
     id="polyline53"
     style="fill:none;stroke:#000000"
     transform="translate(38.706401,224.55073)" />
  <path
     d="m 96.546401,165.55073 c -6,0 -12,6 -12,12"
     id="path55"
     inkscape:connector-curvature="0"
     style="fill:none;stroke:#000000" />
  <polyline
     points="45.84,-47 45.84,-13 "
     id="polyline57"
     style="fill:none;stroke:#000000"
     transform="translate(38.706401,224.55073)" />
  <path
     d="m 84.546401,211.55073 c 0,6 6,12 12,12"
     id="path59"
     inkscape:connector-curvature="0"
     style="fill:none;stroke:#000000" />
  <text
     x="142.0464"
     y="199.15074"
     font-size="14.00"
     id="text61"
     style="font-size:14px;font-style:normal;font-variant:normal;font-weight:normal;font-stretch:normal;text-anchor:middle;font-family:Arial;-inkscape-font-specification:Arial">State1</text>
  <path
     d="M 84.479801,97.724732 C -24.794683,102.32973 -26.878177,172.2779 75.012701,176.41443"
     id="path66"
     inkscape:connector-curvature="0"
     style="fill:none;stroke:#000000"
     sodipodi:nodetypes="cc" />
  <polygon
     points="45.7316,-44.5053 35.1418,-44.8342 37.6583,-51.3662 37.6583,-51.3662 "
     id="polygon68"
     style="fill:#000000;stroke:#000000;stroke-width:1"
     transform="matrix(0.96592583,-0.25881905,0.25881905,0.96592583,50.542681,232.4874)" />
  <text
     x="106.313"
     y="141.89198"
     font-size="14.00"
     id="text70"
     style="font-size:14px;font-style:normal;font-variant:normal;font-weight:normal;font-stretch:normal;text-anchor:middle;font-family:Arial;-inkscape-font-specification:Arial"><tspan
   style="font-weight:bold"
   id="tspan3129">receive</tspan>
 Q(m | m &gt;= 0) <tspan
   style="font-weight:bold"
   id="tspan3131">from</tspan>
 In2</text>
  <path
     d="m 197.96127,173.26256 c 33.3533,-14.5102 39.17261,-42.44159 7.08069,-60.05596"
     id="path75"
     inkscape:connector-curvature="0"
     style="fill:none;stroke:#000000;stroke-width:1"
     sodipodi:nodetypes="cc" />
  <polygon
     points="171.056,-112.411 166.533,-107.068 166.533,-107.068 161.162,-116.201 "
     id="polygon77"
     style="fill:#000000;stroke:#000000"
     transform="translate(36.47489,223.54929)" />
  <text
     x="265.76129"
     y="146.355"
     font-size="14.00"
     id="text79"
     style="font-size:14px;font-style:normal;font-variant:normal;font-weight:normal;font-stretch:normal;text-anchor:middle;font-family:Arial;-inkscape-font-specification:Arial">m := m + 1</text>
</svg>
