<?xml version="1.0" encoding="UTF-8" standalone="no"?>
<!-- Generated by graphviz version 2.26.3 (20100126.1600)
 -->

<!-- Title: SendRec Pages: 1 -->

<svg
   xmlns:dc="http://purl.org/dc/elements/1.1/"
   xmlns:cc="http://creativecommons.org/ns#"
   xmlns:rdf="http://www.w3.org/1999/02/22-rdf-syntax-ns#"
   xmlns:svg="http://www.w3.org/2000/svg"
   xmlns="http://www.w3.org/2000/svg"
   xmlns:sodipodi="http://sodipodi.sourceforge.net/DTD/sodipodi-0.dtd"
   xmlns:inkscape="http://www.inkscape.org/namespaces/inkscape"
   width="466.79944"
   height="420.25"
   viewBox="0 0 373.43955 336.2"
   id="svg2"
   version="1.1"
   inkscape:version="0.48.1 "
   sodipodi:docname="P_SendRec.svg">
  <metadata
     id="metadata115">
    <rdf:RDF>
      <cc:Work
         rdf:about="">
        <dc:format>image/svg+xml</dc:format>
        <dc:type
           rdf:resource="http://purl.org/dc/dcmitype/StillImage" />
        <dc:title></dc:title>
      </cc:Work>
    </rdf:RDF>
  </metadata>
  <defs
     id="defs113" />
  <sodipodi:namedview
     pagecolor="#ffffff"
     bordercolor="#666666"
     borderopacity="1"
     objecttolerance="10"
     gridtolerance="10"
     guidetolerance="10"
     inkscape:pageopacity="0"
     inkscape:pageshadow="2"
     inkscape:window-width="1680"
     inkscape:window-height="998"
     id="namedview111"
     showgrid="false"
     inkscape:zoom="1.2139535"
     inkscape:cx="278.4206"
     inkscape:cy="162.60882"
     inkscape:window-x="-8"
     inkscape:window-y="-8"
     inkscape:window-maximized="1"
     inkscape:current-layer="svg2"
     fit-margin-top="0"
     fit-margin-left="0"
     fit-margin-right="0"
     fit-margin-bottom="0" />
  <ellipse
     cx="156"
     cy="-329"
     rx="7.1999998"
     ry="7.1999998"
     id="ellipse12"
     d="m 163.2,-329 c 0,3.97645 -3.22355,7.2 -7.2,7.2 -3.97645,0 -7.2,-3.22355 -7.2,-7.2 0,-3.97645 3.22355,-7.2 7.2,-7.2 3.97645,0 7.2,3.22355 7.2,7.2 z"
     sodipodi:cx="156"
     sodipodi:cy="-329"
     sodipodi:rx="7.1999998"
     sodipodi:ry="7.1999998"
     style="fill:#000000;stroke:#000000"
     transform="translate(1,336.7)" />
  <polyline
     points="110.5,-225 201.5,-225 "
     id="polyline17"
     style="fill:none;stroke:#000000"
     transform="translate(1,336.7)" />
  <path
     d="m 202.5,111.7 c 6,0 12,-6 12,-12"
     id="path19"
     inkscape:connector-curvature="0"
     style="fill:none;stroke:#000000" />
  <polyline
     points="213.5,-237 213.5,-271 "
     id="polyline21"
     style="fill:none;stroke:#000000"
     transform="translate(1,336.7)" />
  <path
     d="m 214.5,65.7 c 0,-6 -6,-12 -12,-12"
     id="path23"
     inkscape:connector-curvature="0"
     style="fill:none;stroke:#000000" />
  <polyline
     points="201.5,-283 110.5,-283 "
     id="polyline25"
     style="fill:none;stroke:#000000"
     transform="translate(1,336.7)" />
  <path
     d="m 111.5,53.7 c -6,0 -12,6 -12,12"
     id="path27"
     inkscape:connector-curvature="0"
     style="fill:none;stroke:#000000" />
  <polyline
     points="98.5,-271 98.5,-237 "
     id="polyline29"
     style="fill:none;stroke:#000000"
     transform="translate(1,336.7)" />
  <path
     d="m 99.5,99.7 c 0,6 6,12 12,12"
     id="path31"
     inkscape:connector-curvature="0"
     style="fill:none;stroke:#000000" />
  <text
     x="157"
     y="87.300003"
     font-size="14.00"
     id="text33"
     style="font-size:14px;font-style:normal;font-variant:normal;font-weight:normal;font-stretch:normal;text-anchor:middle;font-family:Arial;-inkscape-font-specification:Arial">State0</text>
  <path
     d="m 157,15.165 c 0,6.795 0,17.387 0,28.184"
     id="path38"
     inkscape:connector-curvature="0"
     style="fill:none;stroke:#000000" />
  <polygon
     points="159.5,-293.054 159.5,-293.054 156,-283.054 152.5,-293.054 "
     id="polygon40"
     style="fill:#000000;stroke:#000000"
     transform="translate(1,336.7)" />
  <polyline
     points="11.5,-113 102.5,-113 "
     id="polyline45"
     style="fill:none;stroke:#000000"
     transform="translate(1,336.7)" />
  <path
     d="m 103.5,223.7 c 6,0 12,-6 12,-12"
     id="path47"
     inkscape:connector-curvature="0"
     style="fill:none;stroke:#000000" />
  <polyline
     points="114.5,-125 114.5,-159 "
     id="polyline49"
     style="fill:none;stroke:#000000"
     transform="translate(1,336.7)" />
  <path
     d="m 115.5,177.7 c 0,-6 -6,-12 -12,-12"
     id="path51"
     inkscape:connector-curvature="0"
     style="fill:none;stroke:#000000" />
  <polyline
     points="102.5,-171 11.5,-171 "
     id="polyline53"
     style="fill:none;stroke:#000000"
     transform="translate(1,336.7)" />
  <path
     d="m 12.5,165.7 c -6,0 -12,6 -12,12"
     id="path55"
     inkscape:connector-curvature="0"
     style="fill:none;stroke:#000000" />
  <polyline
     points="-0.5,-159 -0.5,-125 "
     id="polyline57"
     style="fill:none;stroke:#000000"
     transform="translate(1,336.7)" />
  <path
     d="m 0.5,211.7 c 0,6 6,12 12,12"
     id="path59"
     inkscape:connector-curvature="0"
     style="fill:none;stroke:#000000" />
  <text
     x="58"
     y="199.3"
     font-size="14.00"
     id="text61"
     style="font-size:14px;font-style:normal;font-variant:normal;font-weight:normal;font-stretch:normal;text-anchor:middle;font-family:Arial;-inkscape-font-specification:Arial">State1</text>
  <path
     d="m 131.247,111.834 c -12.392,14.02 -27.386,30.983 -40.572,45.9"
     id="path66"
     inkscape:connector-curvature="0"
     style="fill:none;stroke:#000000" />
  <polygon
     points="92.2129,-176.552 92.2129,-176.552 82.9676,-171.378 86.9681,-181.188 "
     id="polygon68"
     style="fill:#000000;stroke:#000000"
     transform="translate(1,336.7)" />
  <text
     x="135"
     y="149.70003"
     font-size="14.00"
     id="text70"
     style="font-size:14px;font-style:normal;font-variant:normal;font-weight:normal;font-stretch:normal;text-anchor:middle;font-family:Arial;-inkscape-font-specification:Arial">m == 6</text>
  <polyline
     points="61.5,-1 152.5,-1 "
     id="polyline75"
     style="fill:none;stroke:#000000"
     transform="translate(1,336.7)" />
  <path
     d="m 153.5,335.7 c 6,0 12,-6 12,-12"
     id="path77"
     inkscape:connector-curvature="0"
     style="fill:none;stroke:#000000" />
  <polyline
     points="164.5,-13 164.5,-47 "
     id="polyline79"
     style="fill:none;stroke:#000000"
     transform="translate(1,336.7)" />
  <path
     d="m 165.5,289.7 c 0,-6 -6,-12 -12,-12"
     id="path81"
     inkscape:connector-curvature="0"
     style="fill:none;stroke:#000000" />
  <polyline
     points="152.5,-59 61.5,-59 "
     id="polyline83"
     style="fill:none;stroke:#000000"
     transform="translate(1,336.7)" />
  <path
     d="m 62.5,277.7 c -6,0 -12,6 -12,12"
     id="path85"
     inkscape:connector-curvature="0"
     style="fill:none;stroke:#000000" />
  <polyline
     points="49.5,-47 49.5,-13 "
     id="polyline87"
     style="fill:none;stroke:#000000"
     transform="translate(1,336.7)" />
  <path
     d="m 50.5,323.7 c 0,6 6,12 12,12"
     id="path89"
     inkscape:connector-curvature="0"
     style="fill:none;stroke:#000000" />
  <text
     x="108"
     y="311.30002"
     font-size="14.00"
     id="text91"
     style="font-size:14px;font-style:normal;font-variant:normal;font-weight:normal;font-stretch:normal;text-anchor:middle;font-family:Arial;-inkscape-font-specification:Arial">State2</text>
  <path
     d="m 31.7721,223.745 c -15.65377,18.91575 1.735252,33.72029 18.7677,46.3456"
     id="path96"
     inkscape:connector-curvature="0"
     style="fill:none;stroke:#000000"
     sodipodi:nodetypes="cc" />
  <polygon
     points="52.1419,-68.9515 52.1419,-68.9515 56.4509,-59.2725 47.0465,-64.1518 "
     id="polygon98"
     style="fill:#000000;stroke:#000000"
     transform="translate(1,336.7)" />
  <text
     x="98.300003"
     y="242.49995"
     font-size="14.00"
     id="text100"
     style="font-size:14px;font-style:normal;font-variant:normal;font-weight:normal;font-stretch:normal;text-anchor:middle;font-family:Arial;-inkscape-font-specification:Arial"><tspan
   style="font-weight:bold"
   id="tspan3193">send</tspan>
 S(&quot;a&quot;) <tspan
   style="font-weight:bold"
   id="tspan3195">to</tspan>
 InOut</text>
  <path
     d="m 153.718,277.5272 c 5.15,-5.6431 9.676,-11.9619 12.682,-18.8272 19.214,-43.884 13.772,-100.019 6.665,-136.945"
     id="path105"
     inkscape:connector-curvature="0"
     style="fill:none;stroke:#000000" />
  <polygon
     points="162.219,-214.325 162.219,-214.325 163.635,-224.825 169.076,-215.734 "
     id="polygon107"
     style="fill:#000000;stroke:#000000"
     transform="translate(7.4,336.7)" />
  <text
     x="279.50009"
     y="199.3"
     font-size="14.00"
     id="text109"
     style="font-size:14px;font-style:normal;font-variant:normal;font-weight:normal;font-stretch:normal;text-anchor:middle;font-family:Arial;-inkscape-font-specification:Arial"><tspan
   style="font-weight:bold"
   id="tspan3187">receive</tspan>
 T(s | <tspan
   style="font-weight:bold"
   id="tspan3191">true</tspan>
) <tspan
   style="font-weight:bold"
   id="tspan3189">from</tspan>
 InOut</text>
</svg>
