<?xml version="1.0" encoding="UTF-8" standalone="no"?>
<!-- Generated by graphviz version 2.26.3 (20100126.1600)
 -->

<!-- Title: Com Pages: 1 -->

<svg
   xmlns:dc="http://purl.org/dc/elements/1.1/"
   xmlns:cc="http://creativecommons.org/ns#"
   xmlns:rdf="http://www.w3.org/1999/02/22-rdf-syntax-ns#"
   xmlns:svg="http://www.w3.org/2000/svg"
   xmlns="http://www.w3.org/2000/svg"
   xmlns:sodipodi="http://sodipodi.sourceforge.net/DTD/sodipodi-0.dtd"
   xmlns:inkscape="http://www.inkscape.org/namespaces/inkscape"
   width="412.00299"
   height="776.5"
   viewBox="0 0 329.60239 621.2"
   id="svg2"
   version="1.1"
   inkscape:version="0.48.1 "
   sodipodi:docname="Q_Com.svg">
  <metadata
     id="metadata189">
    <rdf:RDF>
      <cc:Work
         rdf:about="">
        <dc:format>image/svg+xml</dc:format>
        <dc:type
           rdf:resource="http://purl.org/dc/dcmitype/StillImage" />
        <dc:title></dc:title>
      </cc:Work>
    </rdf:RDF>
  </metadata>
  <defs
     id="defs187" />
  <sodipodi:namedview
     pagecolor="#ffffff"
     bordercolor="#666666"
     borderopacity="1"
     objecttolerance="10"
     gridtolerance="10"
     guidetolerance="10"
     inkscape:pageopacity="0"
     inkscape:pageshadow="2"
     inkscape:window-width="1680"
     inkscape:window-height="998"
     id="namedview185"
     showgrid="false"
     fit-margin-top="0"
     fit-margin-left="0"
     fit-margin-right="0"
     fit-margin-bottom="0"
     inkscape:zoom="0.66496815"
     inkscape:cx="585.39305"
     inkscape:cy="461.43411"
     inkscape:window-x="-8"
     inkscape:window-y="-8"
     inkscape:window-maximized="1"
     inkscape:current-layer="svg2" />
  <ellipse
     cx="156"
     cy="-613"
     rx="7.1999998"
     ry="7.1999998"
     id="ellipse12"
     d="m 163.2,-613 c 0,3.97645 -3.22355,7.2 -7.2,7.2 -3.97645,0 -7.2,-3.22355 -7.2,-7.2 0,-3.97645 3.22355,-7.2 7.2,-7.2 3.97645,0 7.2,3.22355 7.2,7.2 z"
     sodipodi:cx="156"
     sodipodi:cy="-613"
     sodipodi:rx="7.1999998"
     sodipodi:ry="7.1999998"
     style="fill:#000000;stroke:#000000"
     transform="translate(20.2,620.7)" />
  <polyline
     points="110.5,-509 201.5,-509 "
     id="polyline17"
     style="fill:none;stroke:#000000"
     transform="translate(20.2,620.7)" />
  <path
     d="m 221.7,111.7 c 6,0 12,-6 12,-12"
     id="path19"
     inkscape:connector-curvature="0"
     style="fill:none;stroke:#000000" />
  <polyline
     points="213.5,-521 213.5,-555 "
     id="polyline21"
     style="fill:none;stroke:#000000"
     transform="translate(20.2,620.7)" />
  <path
     d="m 233.7,65.7 c 0,-6 -6,-12 -12,-12"
     id="path23"
     inkscape:connector-curvature="0"
     style="fill:none;stroke:#000000" />
  <polyline
     points="201.5,-567 110.5,-567 "
     id="polyline25"
     style="fill:none;stroke:#000000"
     transform="translate(20.2,620.7)" />
  <path
     d="m 130.7,53.7 c -6,0 -12,6 -12,12"
     id="path27"
     inkscape:connector-curvature="0"
     style="fill:none;stroke:#000000" />
  <polyline
     points="98.5,-555 98.5,-521 "
     id="polyline29"
     style="fill:none;stroke:#000000"
     transform="translate(20.2,620.7)" />
  <path
     d="m 118.7,99.7 c 0,6 6,12 12,12"
     id="path31"
     inkscape:connector-curvature="0"
     style="fill:none;stroke:#000000" />
  <text
     x="176.2"
     y="87.299973"
     font-size="14.00"
     id="text33"
     style="font-size:14px;font-style:normal;font-variant:normal;font-weight:normal;font-stretch:normal;text-anchor:middle;font-family:Arial;-inkscape-font-specification:Arial">State0</text>
  <path
     d="m 176.2,15.165 c 0,6.795 0,17.387 0,28.184"
     id="path38"
     inkscape:connector-curvature="0"
     style="fill:none;stroke:#000000" />
  <polygon
     points="159.5,-577.054 159.5,-577.054 156,-567.054 152.5,-577.054 "
     id="polygon40"
     style="fill:#000000;stroke:#000000"
     transform="translate(20.2,620.7)" />
  <polyline
     points="29.5,-397 120.5,-397 "
     id="polyline45"
     style="fill:none;stroke:#000000"
     transform="translate(1,620.7)" />
  <path
     d="m 121.5,223.7 c 6,0 12,-6 12,-12"
     id="path47"
     inkscape:connector-curvature="0"
     style="fill:none;stroke:#000000" />
  <polyline
     points="132.5,-409 132.5,-443 "
     id="polyline49"
     style="fill:none;stroke:#000000"
     transform="translate(1,620.7)" />
  <path
     d="m 133.5,177.7 c 0,-6 -6,-12 -12,-12"
     id="path51"
     inkscape:connector-curvature="0"
     style="fill:none;stroke:#000000" />
  <polyline
     points="120.5,-455 29.5,-455 "
     id="polyline53"
     style="fill:none;stroke:#000000"
     transform="translate(1,620.7)" />
  <path
     d="m 30.5,165.7 c -6,0 -12,6 -12,12"
     id="path55"
     inkscape:connector-curvature="0"
     style="fill:none;stroke:#000000" />
  <polyline
     points="17.5,-443 17.5,-409 "
     id="polyline57"
     style="fill:none;stroke:#000000"
     transform="translate(1,620.7)" />
  <path
     d="m 18.5,211.7 c 0,6 6,12 12,12"
     id="path59"
     inkscape:connector-curvature="0"
     style="fill:none;stroke:#000000" />
  <text
     x="76.000015"
     y="199.3"
     font-size="14.00"
     id="text61"
     style="font-size:14px;font-style:normal;font-variant:normal;font-weight:normal;font-stretch:normal;text-anchor:middle;font-family:Arial;-inkscape-font-specification:Arial">State1</text>
  <path
     d="M 123.87908,109.31153 C 117.95108,115.15253 109.747,124.126 105,130.7 c -5.6116,7.771 -10.5106,16.801 -14.6056,25.586"
     id="path66"
     inkscape:connector-curvature="0"
     style="fill:none;stroke:#000000"
     sodipodi:nodetypes="ccc" />
  <polygon
     points="92.5041,-462.791 92.5041,-462.791 85.2706,-455.05 86.0978,-465.613 "
     id="polygon68"
     style="fill:#000000;stroke:#000000"
     transform="translate(1,620.7)" />
  <text
     x="175.29997"
     y="143.3"
     font-size="14.00"
     id="text70"
     style="font-size:14px;font-style:normal;font-variant:normal;font-weight:normal;font-stretch:normal;text-anchor:middle;font-family:Arial;-inkscape-font-specification:Arial"><tspan
   style="font-weight:bold"
   id="tspan3347">send</tspan>
 P(<tspan
   style="font-weight:bold"
   id="tspan3349">true</tspan>
) <tspan
   style="font-weight:bold"
   id="tspan3351">to</tspan>
 Out1</text>
  <polyline
     points="119.5,-61 210.5,-61 "
     id="polyline75"
     style="fill:none;stroke:#000000"
     transform="translate(20.2,620.7)" />
  <path
     d="m 230.7,559.7 c 6,0 12,-6 12,-12"
     id="path77"
     inkscape:connector-curvature="0"
     style="fill:none;stroke:#000000" />
  <polyline
     points="222.5,-73 222.5,-107 "
     id="polyline79"
     style="fill:none;stroke:#000000"
     transform="translate(20.2,620.7)" />
  <path
     d="m 242.7,513.7 c 0,-6 -6,-12 -12,-12"
     id="path81"
     inkscape:connector-curvature="0"
     style="fill:none;stroke:#000000" />
  <polyline
     points="210.5,-119 119.5,-119 "
     id="polyline83"
     style="fill:none;stroke:#000000"
     transform="translate(20.2,620.7)" />
  <path
     d="m 139.7,501.7 c -6,0 -12,6 -12,12"
     id="path85"
     inkscape:connector-curvature="0"
     style="fill:none;stroke:#000000" />
  <polyline
     points="107.5,-107 107.5,-73 "
     id="polyline87"
     style="fill:none;stroke:#000000"
     transform="translate(20.2,620.7)" />
  <path
     d="m 127.7,547.7 c 0,6 6,12 12,12"
     id="path89"
     inkscape:connector-curvature="0"
     style="fill:none;stroke:#000000" />
  <text
     x="185.2"
     y="535.29999"
     font-size="14.00"
     id="text91"
     style="font-size:14px;font-style:normal;font-variant:normal;font-weight:normal;font-stretch:normal;text-anchor:middle;font-family:Arial;-inkscape-font-specification:Arial">State2</text>
  <path
     d="m 225.69062,110.73932 c 6.307,5.619 12.27438,13.00368 16.70938,19.96068 15.652,24.552 14,34.883 14,64 0,0 0,0 0,224 0,29.117 0.714,38.874 -14,64 -2.309,3.942 -5.053,7.734 -8.063,11.339"
     id="path96"
     inkscape:connector-curvature="0"
     style="fill:none;stroke:#000000"
     sodipodi:nodetypes="cscscc" />
  <polygon
     points="213.327,-124.089 213.327,-124.089 203.99,-119.082 208.167,-128.819 "
     id="polygon98"
     style="fill:#000000;stroke:#000000"
     transform="translate(25,619.1)" />
  <text
     x="297.20007"
     y="311.30002"
     font-size="14.00"
     id="text100"
     style="font-size:14px;font-style:normal;font-variant:normal;font-weight:normal;font-stretch:normal;text-anchor:middle;font-family:Arial;-inkscape-font-specification:Arial"><tspan
   style="font-weight:bold"
   id="tspan3329">after</tspan>
 5 <tspan
   style="font-weight:bold"
   id="tspan3331">ms</tspan>
</text>
  <polyline
     points="11.5,-285 102.5,-285 "
     id="polyline105"
     style="fill:none;stroke:#000000"
     transform="translate(1,620.7)" />
  <path
     d="m 103.5,335.7 c 6,0 12,-6 12,-12"
     id="path107"
     inkscape:connector-curvature="0"
     style="fill:none;stroke:#000000" />
  <polyline
     points="114.5,-297 114.5,-331 "
     id="polyline109"
     style="fill:none;stroke:#000000"
     transform="translate(1,620.7)" />
  <path
     d="m 115.5,289.7 c 0,-6 -6,-12 -12,-12"
     id="path111"
     inkscape:connector-curvature="0"
     style="fill:none;stroke:#000000" />
  <polyline
     points="102.5,-343 11.5,-343 "
     id="polyline113"
     style="fill:none;stroke:#000000"
     transform="translate(1,620.7)" />
  <path
     d="m 12.5,277.7 c -6,0 -12,6 -12,12"
     id="path115"
     inkscape:connector-curvature="0"
     style="fill:none;stroke:#000000" />
  <polyline
     points="-0.5,-331 -0.5,-297 "
     id="polyline117"
     style="fill:none;stroke:#000000"
     transform="translate(1,620.7)" />
  <path
     d="m 0.5,323.7 c 0,6 6,12 12,12"
     id="path119"
     inkscape:connector-curvature="0"
     style="fill:none;stroke:#000000" />
  <text
     x="58.000019"
     y="311.30002"
     font-size="14.00"
     id="text121"
     style="font-size:14px;font-style:normal;font-variant:normal;font-weight:normal;font-stretch:normal;text-anchor:middle;font-family:Arial;-inkscape-font-specification:Arial">State3</text>
  <path
     d="m 71.3177,223.834 c -2.1291,13.248 -4.6806,29.124 -6.978,43.419"
     id="path126"
     inkscape:connector-curvature="0"
     style="fill:none;stroke:#000000" />
  <polygon
     points="66.7639,-352.695 66.7639,-352.695 61.7214,-343.378 59.8526,-353.806 "
     id="polygon128"
     style="fill:#000000;stroke:#000000"
     transform="translate(1,620.7)" />
  <text
     x="131.7"
     y="255.3"
     font-size="14.00"
     id="text130"
     style="font-size:14px;font-style:normal;font-variant:normal;font-weight:normal;font-stretch:normal;text-anchor:middle;font-family:Arial;-inkscape-font-specification:Arial"><tspan
   style="font-weight:bold"
   id="tspan3343">send</tspan>
 Q(5) <tspan
   style="font-weight:bold"
   id="tspan3345">to</tspan>
 Out2</text>
  <polyline
     points="23.5,-173 114.5,-173 "
     id="polyline135"
     style="fill:none;stroke:#000000"
     transform="translate(1,620.7)" />
  <path
     d="m 115.5,447.7 c 6,0 12,-6 12,-12"
     id="path137"
     inkscape:connector-curvature="0"
     style="fill:none;stroke:#000000" />
  <polyline
     points="126.5,-185 126.5,-219 "
     id="polyline139"
     style="fill:none;stroke:#000000"
     transform="translate(1,620.7)" />
  <path
     d="m 127.5,401.7 c 0,-6 -6,-12 -12,-12"
     id="path141"
     inkscape:connector-curvature="0"
     style="fill:none;stroke:#000000" />
  <polyline
     points="114.5,-231 23.5,-231 "
     id="polyline143"
     style="fill:none;stroke:#000000"
     transform="translate(1,620.7)" />
  <path
     d="m 24.5,389.7 c -6,0 -12,6 -12,12"
     id="path145"
     inkscape:connector-curvature="0"
     style="fill:none;stroke:#000000" />
  <polyline
     points="11.5,-219 11.5,-185 "
     id="polyline147"
     style="fill:none;stroke:#000000"
     transform="translate(1,620.7)" />
  <path
     d="m 12.5,435.7 c 0,6 6,12 12,12"
     id="path149"
     inkscape:connector-curvature="0"
     style="fill:none;stroke:#000000" />
  <text
     x="70.000015"
     y="423.30002"
     font-size="14.00"
     id="text151"
     style="font-size:14px;font-style:normal;font-variant:normal;font-weight:normal;font-stretch:normal;text-anchor:middle;font-family:Arial;-inkscape-font-specification:Arial">State4</text>
  <path
     d="M 54.9756,335.809 C 54.3882,346.791 54.3807,359.365 56,370.7 c 0.4143,2.9 0.9627,5.87 1.6027,8.841"
     id="path156"
     inkscape:connector-curvature="0"
     style="fill:none;stroke:#000000" />
  <polygon
     points="60.0733,-241.703 60.0733,-241.703 59.0692,-231.156 53.2768,-240.027 "
     id="polygon158"
     style="fill:#000000;stroke:#000000"
     transform="translate(1,620.7)" />
  <text
     x="153.99998"
     y="367.30002"
     font-size="14.00"
     id="text160"
     style="font-size:14px;font-style:normal;font-variant:normal;font-weight:normal;font-stretch:normal;text-anchor:middle;font-family:Arial;-inkscape-font-specification:Arial"><tspan
   style="font-weight:bold"
   id="tspan3333">receive</tspan>
 S(s | <tspan
   style="font-weight:bold"
   id="tspan3335">true</tspan>
) <tspan
   style="font-weight:bold"
   id="tspan3337">from</tspan>
 InOut</text>
  <path
     d="M 87.9777,447.742 C 95.49,459.067 104.642,471.897 114,482.7 c 3.382,3.905 8.656,9.422 12.435,13.241"
     id="path165"
     inkscape:connector-curvature="0"
     style="fill:none;stroke:#000000"
     sodipodi:nodetypes="ccc" />
  <polygon
     points="126.487,-128.66 131.181,-119.161 121.589,-123.66 126.487,-128.66 "
     id="polygon167"
     style="fill:#000000;stroke:#000000"
     transform="translate(1.601533,621.45192)" />
  <text
     x="173.39995"
     y="474.5"
     font-size="14.00"
     id="text169"
     style="font-size:14px;font-style:normal;font-variant:normal;font-weight:normal;font-stretch:normal;text-anchor:middle;font-family:Arial;-inkscape-font-specification:Arial"><tspan
   style="font-weight:bold"
   id="tspan3339">send</tspan>
 T(s) <tspan
   style="font-weight:bold"
   id="tspan3341">to</tspan>
 InOut</text>
  <ellipse
     cx="165"
     cy="-11"
     rx="7"
     ry="7"
     id="ellipse174"
     d="m 172,-11 c 0,3.8659932 -3.13401,7 -7,7 -3.86599,0 -7,-3.1340068 -7,-7 0,-3.865993 3.13401,-7 7,-7 3.86599,0 7,3.134007 7,7 z"
     sodipodi:cx="165"
     sodipodi:cy="-11"
     sodipodi:rx="7"
     sodipodi:ry="7"
     style="fill:#000000;stroke:#000000"
     transform="translate(20.2,620.7)" />
  <ellipse
     cx="165"
     cy="-11"
     rx="11"
     ry="11"
     id="ellipse176"
     d="m 176,-11 c 0,6.0751322 -4.92487,11 -11,11 -6.07513,0 -11,-4.9248678 -11,-11 0,-6.075132 4.92487,-11 11,-11 6.07513,0 11,4.924868 11,11 z"
     sodipodi:cx="165"
     sodipodi:cy="-11"
     sodipodi:rx="11"
     sodipodi:ry="11"
     style="fill:none;stroke:#000000"
     transform="translate(20.2,620.7)" />
  <path
     d="m 185.2,560.1167 c 0,9.3769 0,19.5664 0,28.2556"
     id="path181"
     inkscape:connector-curvature="0"
     style="fill:none;stroke:#000000" />
  <polygon
     points="168.5,-32.2977 168.5,-32.2977 165,-22.2978 161.5,-32.2978 "
     id="polygon183"
     style="fill:#000000;stroke:#000000"
     transform="translate(20.2,620.7)" />
</svg>
