<?xml version="1.0" encoding="UTF-8" standalone="no"?>
<!-- Generated by graphviz version 2.26.3 (20100126.1600)
 -->

<!-- Title: LTS Pages: 1 -->

<svg
   xmlns:dc="http://purl.org/dc/elements/1.1/"
   xmlns:cc="http://creativecommons.org/ns#"
   xmlns:rdf="http://www.w3.org/1999/02/22-rdf-syntax-ns#"
   xmlns:svg="http://www.w3.org/2000/svg"
   xmlns="http://www.w3.org/2000/svg"
   xmlns:sodipodi="http://sodipodi.sourceforge.net/DTD/sodipodi-0.dtd"
   xmlns:inkscape="http://www.inkscape.org/namespaces/inkscape"
   width="425.94531"
   height="512.73438"
   viewBox="0 0 340.75625 410.1875"
   id="svg2"
   version="1.1"
   inkscape:version="0.48.2 r9819"
   sodipodi:docname="abp-Q.svg">
  <metadata
     id="metadata86">
    <rdf:RDF>
      <cc:Work
         rdf:about="">
        <dc:format>image/svg+xml</dc:format>
        <dc:type
           rdf:resource="http://purl.org/dc/dcmitype/StillImage" />
        <dc:title />
      </cc:Work>
    </rdf:RDF>
  </metadata>
  <defs
     id="defs84" />
  <sodipodi:namedview
     pagecolor="#ffffff"
     bordercolor="#666666"
     borderopacity="1"
     objecttolerance="10"
     gridtolerance="10"
     guidetolerance="10"
     inkscape:pageopacity="0"
     inkscape:pageshadow="2"
     inkscape:window-width="1680"
     inkscape:window-height="1026"
     id="namedview82"
     showgrid="false"
     fit-margin-top="0"
     fit-margin-left="0"
     fit-margin-right="0"
     fit-margin-bottom="0"
     inkscape:zoom="0.22692308"
     inkscape:cx="3078.7042"
     inkscape:cy="-940.13935"
     inkscape:window-x="0"
     inkscape:window-y="24"
     inkscape:window-maximized="1"
     inkscape:current-layer="svg2" />
  <ellipse
     cx="129"
     cy="-368"
     rx="39.096699"
     ry="39.598"
     id="ellipse12"
     d="m 168.0967,-368 c 0,21.86937 -17.50419,39.598 -39.0967,39.598 -21.59251,0 -39.096699,-17.72863 -39.096699,-39.598 0,-21.86937 17.504189,-39.598 39.096699,-39.598 21.59251,0 39.0967,17.72863 39.0967,39.598 z"
     sodipodi:cx="129"
     sodipodi:cy="-368"
     sodipodi:rx="39.096699"
     sodipodi:ry="39.598"
     style="fill:#000000;stroke:#000000;stroke-width:3"
     transform="translate(1.5937491,409.09375)"
     clip-path="none" />
  <text
     x="130.7469"
     y="56.920292"
     font-size="40.00"
     id="text14"
     style="font-size:44.79999924px;font-style:normal;font-variant:normal;font-weight:normal;font-stretch:normal;text-anchor:middle;fill:#ffffff;font-family:Arial;-inkscape-font-specification:Arial"
     clip-path="none">0</text>
  <ellipse
     cx="39"
     cy="-204"
     rx="39.096699"
     ry="39.598"
     id="ellipse19"
     d="m 78.096699,-204 c 0,21.86937 -17.504189,39.598 -39.096699,39.598 -21.59251,0 -39.09669876,-17.72863 -39.09669876,-39.598 0,-21.86937 17.50418876,-39.598 39.09669876,-39.598 21.59251,0 39.096699,17.72863 39.096699,39.598 z"
     sodipodi:cx="39"
     sodipodi:cy="-204"
     sodipodi:rx="39.096699"
     sodipodi:ry="39.598"
     style="fill:none;stroke:#000000;stroke-width:3"
     transform="translate(1.5937491,409.09375)"
     clip-path="none" />
  <text
     x="42.278152"
     y="221.19373"
     font-size="40.00"
     id="text21"
     style="font-size:44.79999924px;font-style:normal;font-variant:normal;font-weight:normal;font-stretch:normal;text-anchor:middle;font-family:Arial;-inkscape-font-specification:Arial"
     clip-path="none">1</text>
  <path
     d="m 96.512049,60.78375 c -13.9051,9.763 -28.8233,22.803 -37.9183,38.31 -8.1878,13.96 -12.8942,30.623 -15.5381,46.557"
     id="path26"
     inkscape:connector-curvature="0"
     style="fill:none;stroke:#000000;stroke-width:3"
     clip-path="none" />
  <polygon
     points="48.4092,-262.585 48.4092,-262.585 39.0818,-243.559 34.5084,-264.249 "
     id="polygon28"
     style="fill:#000000;stroke:#000000"
     transform="translate(1.5937491,409.09375)"
     clip-path="none" />
  <text
     x="88.893753"
     y="135.09375"
     font-size="40.00"
     id="text30"
     style="font-size:44.79999924px;font-style:normal;font-variant:normal;font-weight:normal;font-stretch:normal;text-anchor:middle;font-family:Arial;-inkscape-font-specification:Arial"
     clip-path="none">r3a</text>
  <ellipse
     cx="135"
     cy="-204"
     rx="39.096699"
     ry="39.598"
     id="ellipse35"
     d="m 174.0967,-204 c 0,21.86937 -17.50419,39.598 -39.0967,39.598 -21.59251,0 -39.096699,-17.72863 -39.096699,-39.598 0,-21.86937 17.504189,-39.598 39.096699,-39.598 21.59251,0 39.0967,17.72863 39.0967,39.598 z"
     sodipodi:cx="135"
     sodipodi:cy="-204"
     sodipodi:rx="39.096699"
     sodipodi:ry="39.598"
     style="fill:none;stroke:#000000;stroke-width:3"
     transform="translate(1.5937491,409.09375)"
     clip-path="none" />
  <text
     x="136.68123"
     y="220.90936"
     font-size="40.00"
     id="text37"
     style="font-size:44.79999924px;font-style:normal;font-variant:normal;font-weight:normal;font-stretch:normal;text-anchor:middle;font-family:Arial;-inkscape-font-specification:Arial"
     clip-path="none">3</text>
  <path
     d="m 130.24875,80.62875 c 0.01,16.358 0.202,35.822 1.502,64.573"
     id="path42"
     inkscape:connector-curvature="0"
     style="fill:none;stroke:#000000;stroke-width:3"
     clip-path="none" />
  <polygon
     points="137.164,-263.923 137.164,-263.923 131.18,-243.596 123.182,-263.219 "
     id="polygon44"
     style="fill:#000000;stroke:#000000"
     transform="translate(1.5937491,409.09375)"
     clip-path="none" />
  <text
     x="168.79378"
     y="135.09375"
     font-size="40.00"
     id="text46"
     style="font-size:44.79999924px;font-style:normal;font-variant:normal;font-weight:normal;font-stretch:normal;text-anchor:middle;font-family:Arial;-inkscape-font-specification:Arial"
     clip-path="none">r3b</text>
  <ellipse
     cx="135"
     cy="-40"
     rx="39.096699"
     ry="39.598"
     id="ellipse51"
     d="m 174.0967,-40 c 0,21.869371 -17.50419,39.59799957 -39.0967,39.59799957 -21.59251,0 -39.096699,-17.72862857 -39.096699,-39.59799957 0,-21.869371 17.504189,-39.598 39.096699,-39.598 21.59251,0 39.0967,17.728629 39.0967,39.598 z"
     sodipodi:cx="135"
     sodipodi:cy="-40"
     sodipodi:rx="39.096699"
     sodipodi:ry="39.598"
     style="fill:none;stroke:#000000;stroke-width:3"
     transform="translate(1.5937491,409.09375)"
     clip-path="none" />
  <text
     x="137.12971"
     y="385.19373"
     font-size="40.00"
     id="text53"
     style="font-size:44.79999924px;font-style:normal;font-variant:normal;font-weight:normal;font-stretch:normal;text-anchor:middle;font-family:Arial;-inkscape-font-specification:Arial"
     clip-path="none">2</text>
  <path
     d="m 51.779849,243.02375 c 7.1095,20.977 17.4921,46.984 30.8139,68.07 3.3815,5.3521 7.292,10.6542 11.4322,15.7511"
     id="path58"
     inkscape:connector-curvature="0"
     style="fill:none;stroke:#000000;stroke-width:3"
     clip-path="none" />
  <polygon
     points="98.0479,-86.4663 98.0479,-86.4663 106.074,-66.8553 87.57,-77.1811 "
     id="polygon60"
     style="fill:#000000;stroke:#000000"
     transform="translate(1.5937491,409.09375)"
     clip-path="none" />
  <text
     x="104.39375"
     y="299.09375"
     font-size="40.00"
     id="text62"
     style="font-size:44.79999924px;font-style:normal;font-variant:normal;font-weight:normal;font-stretch:normal;text-anchor:middle;font-family:Arial;-inkscape-font-specification:Arial"
     clip-path="none">qa</text>
  <path
     d="m 167.78175,344.77585 c 9.736,-9.3883 19.349,-20.9475 24.812,-33.6821 46.089,-107.434 23.473,-176.634 7,-212 -4.469,-9.595 -11.394,-18.169 -19.164,-25.592"
     id="path67"
     inkscape:connector-curvature="0"
     style="fill:none;stroke:#000000;stroke-width:3"
     clip-path="none" />
  <polygon
     points="174.259,-330.292 174.259,-330.292 163.274,-348.412 183.161,-341.098 "
     id="polygon69"
     style="fill:#000000;stroke:#000000"
     transform="translate(1.5937491,409.09375)"
     clip-path="none" />
  <text
     x="282.39374"
     y="217.09375"
     font-size="40.00"
     id="text71"
     style="font-size:44.79999924px;font-style:normal;font-variant:normal;font-weight:normal;font-stretch:normal;text-anchor:middle;font-family:Arial;-inkscape-font-specification:Arial"
     clip-path="none">s4ack</text>
  <path
     d="m 136.59375,244.79375 c 0,19.368 0,43.071 0,64.5661"
     id="path76"
     inkscape:connector-curvature="0"
     style="fill:none;stroke:#000000;stroke-width:3"
     clip-path="none" />
  <polygon
     points="142,-99.6181 142,-99.6181 135,-79.6181 128,-99.6182 "
     id="polygon78"
     style="fill:#000000;stroke:#000000"
     transform="translate(1.5937491,409.09375)"
     clip-path="none" />
  <text
     x="167.39375"
     y="299.09375"
     font-size="40.00"
     id="text80"
     style="font-size:44.79999924px;font-style:normal;font-variant:normal;font-weight:normal;font-stretch:normal;text-anchor:middle;font-family:Arial;-inkscape-font-specification:Arial"
     clip-path="none">qb</text>
  <flowRoot
     xml:space="preserve"
     id="flowRoot3105"
     style="font-size:56px;font-style:normal;font-variant:normal;font-weight:normal;font-stretch:normal;text-align:justify;line-height:125%;letter-spacing:0px;word-spacing:0px;text-anchor:start;fill:#000000;fill-opacity:1;stroke:none;font-family:Arial;-inkscape-font-specification:Arial"
     transform="matrix(0.8,0,0,0.8,2376.3734,901.36494)"><flowRegion
       id="flowRegion3107"><rect
         id="rect3109"
         width="808.64404"
         height="832.88135"
         x="-132.20338"
         y="-99.152542"
         style="font-size:56px;font-style:normal;font-variant:normal;font-weight:normal;font-stretch:normal;font-family:Arial;-inkscape-font-specification:Arial" /></flowRegion><flowPara
       id="flowPara3111" /></flowRoot></svg>
