<?xml version="1.0" encoding="UTF-8" standalone="no"?>
<!-- Generated by graphviz version 2.26.3 (20100126.1600)
 -->

<!-- Title: LTS Pages: 1 -->

<svg
   xmlns:dc="http://purl.org/dc/elements/1.1/"
   xmlns:cc="http://creativecommons.org/ns#"
   xmlns:rdf="http://www.w3.org/1999/02/22-rdf-syntax-ns#"
   xmlns:svg="http://www.w3.org/2000/svg"
   xmlns="http://www.w3.org/2000/svg"
   xmlns:sodipodi="http://sodipodi.sourceforge.net/DTD/sodipodi-0.dtd"
   xmlns:inkscape="http://www.inkscape.org/namespaces/inkscape"
   width="309.82315"
   height="307.745"
   viewBox="0 0 247.45875 246.196"
   id="svg2"
   version="1.1"
   inkscape:version="0.48.2 r9819"
   sodipodi:docname="abp-B4.svg">
  <metadata
     id="metadata45">
    <rdf:RDF>
      <cc:Work
         rdf:about="">
        <dc:format>image/svg+xml</dc:format>
        <dc:type
           rdf:resource="http://purl.org/dc/dcmitype/StillImage" />
      </cc:Work>
    </rdf:RDF>
  </metadata>
  <defs
     id="defs43" />
  <sodipodi:namedview
     pagecolor="#ffffff"
     bordercolor="#666666"
     borderopacity="1"
     objecttolerance="10"
     gridtolerance="10"
     guidetolerance="10"
     inkscape:pageopacity="0"
     inkscape:pageshadow="2"
     inkscape:window-width="1680"
     inkscape:window-height="1026"
     id="namedview41"
     showgrid="false"
     fit-margin-top="0"
     fit-margin-left="0"
     fit-margin-right="0"
     fit-margin-bottom="0"
     inkscape:zoom="0.74920635"
     inkscape:cx="-7.2097458"
     inkscape:cy="153.8725"
     inkscape:window-x="0"
     inkscape:window-y="24"
     inkscape:window-maximized="1"
     inkscape:current-layer="svg2" />
  <ellipse
     cx="72.595901"
     cy="-204"
     rx="39.096699"
     ry="39.598"
     id="ellipse12"
     d="m 111.6926,-204 c 0,21.86937 -17.504188,39.598 -39.096699,39.598 -21.59251,0 -39.096698,-17.72863 -39.096698,-39.598 0,-21.86937 17.504188,-39.598 39.096698,-39.598 21.592511,0 39.096699,17.72863 39.096699,39.598 z"
     sodipodi:cx="72.595901"
     sodipodi:cy="-204"
     sodipodi:rx="39.096699"
     sodipodi:ry="39.598"
     style="fill:#000000;stroke:#000000;stroke-width:3"
     transform="translate(1.3,245.098)" />
  <text
     x="73.895905"
     y="56.924561"
     font-size="40.00"
     id="text14"
     style="font-size:44.79999924px;font-style:normal;font-variant:normal;font-weight:normal;font-stretch:normal;text-anchor:middle;fill:#ffffff;font-family:Arial;-inkscape-font-specification:Arial">0</text>
  <ellipse
     cx="72.595901"
     cy="-40"
     rx="39.096699"
     ry="39.598"
     id="ellipse19"
     d="m 111.6926,-40 c 0,21.869371 -17.504188,39.59799957 -39.096699,39.59799957 -21.59251,0 -39.096698,-17.72862857 -39.096698,-39.59799957 0,-21.869371 17.504188,-39.598 39.096698,-39.598 21.592511,0 39.096699,17.728629 39.096699,39.598 z"
     sodipodi:cx="72.595901"
     sodipodi:cy="-40"
     sodipodi:rx="39.096699"
     sodipodi:ry="39.598"
     style="fill:none;stroke:#000000;stroke-width:3"
     transform="translate(1.3,245.098)" />
  <text
     x="73.895905"
     y="221.198"
     font-size="40.00"
     id="text21"
     style="font-size:44.79999924px;font-style:normal;font-variant:normal;font-weight:normal;font-stretch:normal;text-anchor:middle;font-family:Arial;-inkscape-font-specification:Arial">1</text>
  <path
     d="M 40.3823,61.523 C 27.7327,71.186 14.7502,83.95 7.89586,99.098 c -8.79448,19.436 -8.79448,28.564 0,48 4.06974,8.9944 10.29994,17.1479 17.33814,24.3109"
     id="path26"
     inkscape:connector-curvature="0"
     style="fill:none;stroke:#000000;stroke-width:3" />
  <polygon
     points="28.6466,-78.8668 28.6466,-78.8668 39.0823,-60.4251 19.4239,-68.3339 "
     id="polygon28"
     style="fill:#000000;stroke:#000000"
     transform="translate(1.3,245.098)" />
  <text
     x="63.895901"
     y="135.09799"
     font-size="40.00"
     id="text30"
     style="font-size:44.79999924px;font-style:normal;font-variant:normal;font-weight:normal;font-stretch:normal;text-anchor:middle;font-family:Arial;-inkscape-font-specification:Arial">r5ack</text>
  <path
     d="m 102.037,177.3414 c 7.238,-8.9094 14.053,-19.3207 17.859,-30.2434 7.019,-20.146 7.019,-27.854 0,-48 -1.606,-4.608 -3.747,-9.125 -6.229,-13.477"
     id="path35"
     inkscape:connector-curvature="0"
     style="fill:none;stroke:#000000;stroke-width:3" />
  <polygon
     points="106.384,-155.82 106.384,-155.82 100.737,-176.243 117.887,-163.799 "
     id="polygon37"
     style="fill:#000000;stroke:#000000"
     transform="translate(1.3,245.098)" />
  <text
     x="189.29602"
     y="135.09799"
     font-size="40.00"
     id="text39"
     style="font-size:44.79999924px;font-style:normal;font-variant:normal;font-weight:normal;font-stretch:normal;text-anchor:middle;font-family:Arial;-inkscape-font-specification:Arial">s6ack</text>
</svg>
