<?xml version="1.0" encoding="UTF-8" standalone="no"?>
<!-- Generated by graphviz version 2.26.3 (20100126.1600)
 -->

<!-- Title: LTS Pages: 1 -->

<svg
   xmlns:dc="http://purl.org/dc/elements/1.1/"
   xmlns:cc="http://creativecommons.org/ns#"
   xmlns:rdf="http://www.w3.org/1999/02/22-rdf-syntax-ns#"
   xmlns:svg="http://www.w3.org/2000/svg"
   xmlns="http://www.w3.org/2000/svg"
   xmlns:sodipodi="http://sodipodi.sourceforge.net/DTD/sodipodi-0.dtd"
   xmlns:inkscape="http://www.inkscape.org/namespaces/inkscape"
   width="580.79529"
   height="512.47125"
   viewBox="0 0 464.88443 409.977"
   id="svg2"
   version="1.1"
   inkscape:version="0.48.2 r9819"
   sodipodi:docname="abp-P.svg">
  <metadata
     id="metadata102">
    <rdf:RDF>
      <cc:Work
         rdf:about="">
        <dc:format>image/svg+xml</dc:format>
        <dc:type
           rdf:resource="http://purl.org/dc/dcmitype/StillImage" />
      </cc:Work>
    </rdf:RDF>
  </metadata>
  <defs
     id="defs100" />
  <sodipodi:namedview
     pagecolor="#ffffff"
     bordercolor="#666666"
     borderopacity="1"
     objecttolerance="10"
     gridtolerance="10"
     guidetolerance="10"
     inkscape:pageopacity="0"
     inkscape:pageshadow="2"
     inkscape:window-width="1680"
     inkscape:window-height="1026"
     id="namedview98"
     showgrid="false"
     fit-margin-top="0"
     fit-margin-left="0"
     fit-margin-right="0"
     fit-margin-bottom="0"
     inkscape:zoom="0.90769231"
     inkscape:cx="177.96296"
     inkscape:cy="265.902"
     inkscape:window-x="0"
     inkscape:window-y="24"
     inkscape:window-maximized="1"
     inkscape:current-layer="svg2" />
  <ellipse
     cx="218.248"
     cy="-368"
     rx="39.096699"
     ry="39.598"
     id="ellipse12"
     d="m 257.3447,-368 c 0,21.86937 -17.50419,39.598 -39.0967,39.598 -21.59251,0 -39.0967,-17.72863 -39.0967,-39.598 0,-21.86937 17.50419,-39.598 39.0967,-39.598 21.59251,0 39.0967,17.72863 39.0967,39.598 z"
     sodipodi:cx="218.248"
     sodipodi:cy="-368"
     sodipodi:rx="39.096699"
     sodipodi:ry="39.598"
     style="fill:#000000;stroke:#000000;stroke-width:3"
     transform="translate(1.1609165,408.98689)" />
  <text
     x="219.56213"
     y="56.821907"
     font-size="40.00"
     id="text14"
     style="font-size:44.82393265px;font-style:normal;font-variant:normal;font-weight:normal;font-stretch:normal;text-anchor:middle;fill:#ffffff;font-family:Arial;-inkscape-font-specification:Arial">0</text>
  <ellipse
     cx="170.248"
     cy="-204"
     rx="39.096699"
     ry="39.598"
     id="ellipse19"
     d="m 209.3447,-204 c 0,21.86937 -17.50419,39.598 -39.0967,39.598 -21.59251,0 -39.0967,-17.72863 -39.0967,-39.598 0,-21.86937 17.50419,-39.598 39.0967,-39.598 21.59251,0 39.0967,17.72863 39.0967,39.598 z"
     sodipodi:cx="170.248"
     sodipodi:cy="-204"
     sodipodi:rx="39.096699"
     sodipodi:ry="39.598"
     style="fill:none;stroke:#000000;stroke-width:3"
     transform="translate(1.1609165,408.98689)" />
  <text
     x="173.09419"
     y="221.09549"
     font-size="40.00"
     id="text21"
     style="font-size:44.82393265px;font-style:normal;font-variant:normal;font-weight:normal;font-stretch:normal;text-anchor:middle;font-family:Arial;-inkscape-font-specification:Arial">1</text>
  <path
     d="m 199.51492,75.185888 c -3.816,7.642 -7.445,15.845 -10.106,23.801 -4.953,14.810002 -8.592,31.260002 -11.245,46.698002"
     id="path26"
     inkscape:connector-curvature="0"
     style="fill:none;stroke:#000000;stroke-width:3" />
  <polygon
     points="183.916,-262.204 183.916,-262.204 174.009,-243.473 170.073,-264.294 "
     id="polygon28"
     style="fill:#000000;stroke:#000000"
     transform="translate(1.1609165,408.98689)" />
  <text
     x="214.40892"
     y="134.98689"
     font-size="40.00"
     id="text30"
     style="font-size:44.82393265px;font-style:normal;font-variant:normal;font-weight:normal;font-stretch:normal;text-anchor:middle;font-family:Arial;-inkscape-font-specification:Arial">pa</text>
  <ellipse
     cx="266.24799"
     cy="-204"
     rx="39.096699"
     ry="39.598"
     id="ellipse35"
     d="m 305.34468,-204 c 0,21.86937 -17.50418,39.598 -39.09669,39.598 -21.59251,0 -39.0967,-17.72863 -39.0967,-39.598 0,-21.86937 17.50419,-39.598 39.0967,-39.598 21.59251,0 39.09669,17.72863 39.09669,39.598 z"
     sodipodi:cx="266.24799"
     sodipodi:cy="-204"
     sodipodi:rx="39.096699"
     sodipodi:ry="39.598"
     style="fill:none;stroke:#000000;stroke-width:3"
     transform="translate(1.1609165,408.98689)" />
  <text
     x="267.49646"
     y="220.81097"
     font-size="40.00"
     id="text37"
     style="font-size:44.82393265px;font-style:normal;font-variant:normal;font-weight:normal;font-stretch:normal;text-anchor:middle;font-family:Arial;-inkscape-font-specification:Arial">3</text>
  <path
     d="m 232.72692,78.294888 c 2.317,6.853 4.637,13.966 6.682,20.692 4.697,15.448002 9.355,32.297002 13.485,47.922002"
     id="path42"
     inkscape:connector-curvature="0"
     style="fill:none;stroke:#000000;stroke-width:3" />
  <polygon
     points="258.575,-263.579 258.575,-263.579 256.817,-242.462 245.023,-260.066 "
     id="polygon44"
     style="fill:#000000;stroke:#000000"
     transform="translate(1.1609165,408.98689)" />
  <text
     x="278.40891"
     y="134.98689"
     font-size="40.00"
     id="text46"
     style="font-size:44.82393265px;font-style:normal;font-variant:normal;font-weight:normal;font-stretch:normal;text-anchor:middle;font-family:Arial;-inkscape-font-specification:Arial">pb</text>
  <ellipse
     cx="122.248"
     cy="-40"
     rx="39.096699"
     ry="39.598"
     id="ellipse51"
     d="m 161.3447,-40 c 0,21.869371 -17.50419,39.59799957 -39.0967,39.59799957 -21.59251,0 -39.096698,-17.72862857 -39.096698,-39.59799957 0,-21.869371 17.504188,-39.598 39.096698,-39.598 21.59251,0 39.0967,17.728629 39.0967,39.598 z"
     sodipodi:cx="122.248"
     sodipodi:cy="-40"
     sodipodi:rx="39.096699"
     sodipodi:ry="39.598"
     style="fill:none;stroke:#000000;stroke-width:3"
     transform="translate(1.1609165,408.98689)" />
  <text
     x="123.94515"
     y="385.09549"
     font-size="40.00"
     id="text53"
     style="font-size:44.82393265px;font-style:normal;font-variant:normal;font-weight:normal;font-stretch:normal;text-anchor:middle;font-family:Arial;-inkscape-font-specification:Arial">2</text>
  <path
     d="m 160.27592,243.02389 c -5.946,20.316 -13.388,45.743 -20.026,68.4221"
     id="path58"
     inkscape:connector-curvature="0"
     style="fill:none;stroke:#000000;stroke-width:3" />
  <polygon
     points="145.74,-95.343 145.74,-95.343 133.404,-78.1146 132.303,-99.2756 "
     id="polygon60"
     style="fill:#000000;stroke:#000000"
     transform="translate(1.1609165,408.98689)" />
  <text
     x="188.90892"
     y="298.98688"
     font-size="40.00"
     id="text62"
     style="font-size:44.82393265px;font-style:normal;font-variant:normal;font-weight:normal;font-stretch:normal;text-anchor:middle;font-family:Arial;-inkscape-font-specification:Arial">s1a</text>
  <path
     d="m 92.372616,344.36589 c -44.5594,-38.47 -117.4839,-115.09 -80.9636,-179.379 32.1014,-56.51 101.281904,-89.989002 151.052904,-107.645002"
     id="path67"
     inkscape:connector-curvature="0"
     style="fill:none;stroke:#000000;stroke-width:3" />
  <polygon
     points="159.105,-358.291 159.105,-358.291 180.292,-357.958 163.522,-345.006 "
     id="polygon69"
     style="fill:#000000;stroke:#000000"
     transform="translate(1.1609165,408.98689)" />
  <text
     x="67.409019"
     y="216.98689"
     font-size="40.00"
     id="text71"
     style="font-size:44.82393265px;font-style:normal;font-variant:normal;font-weight:normal;font-stretch:normal;text-anchor:middle;font-family:Arial;-inkscape-font-specification:Arial">r6ack</text>
  <ellipse
     cx="298.24799"
     cy="-40"
     rx="39.096699"
     ry="39.598"
     id="ellipse76"
     d="m 337.34468,-40 c 0,21.869371 -17.50418,39.59799957 -39.09669,39.59799957 -21.59251,0 -39.0967,-17.72862857 -39.0967,-39.59799957 0,-21.869371 17.50419,-39.598 39.0967,-39.598 21.59251,0 39.09669,17.728629 39.09669,39.598 z"
     sodipodi:cx="298.24799"
     sodipodi:cy="-40"
     sodipodi:rx="39.096699"
     sodipodi:ry="39.598"
     style="fill:none;stroke:#000000;stroke-width:3"
     transform="translate(1.1609165,408.98689)" />
  <text
     x="300.21872"
     y="385.02982"
     font-size="40.00"
     id="text78"
     style="font-size:44.82393265px;font-style:normal;font-variant:normal;font-weight:normal;font-stretch:normal;text-anchor:middle;font-family:Arial;-inkscape-font-specification:Arial">4</text>
  <path
     d="m 258.34592,243.52089 c -3.196,20.45 -4.554,45.768 2.063,67.466 1.01,3.3115 2.279,6.6053 3.737,9.8441"
     id="path83"
     inkscape:connector-curvature="0"
     style="fill:none;stroke:#000000;stroke-width:3" />
  <polygon
     points="269.23,-91.3318 269.23,-91.3318 272.913,-70.4648 257.021,-84.4803 "
     id="polygon85"
     style="fill:#000000;stroke:#000000"
     transform="translate(1.1609165,408.98689)" />
  <text
     x="296.90891"
     y="298.98688"
     font-size="40.00"
     id="text87"
     style="font-size:44.82393265px;font-style:normal;font-variant:normal;font-weight:normal;font-stretch:normal;text-anchor:middle;font-family:Arial;-inkscape-font-specification:Arial">s1b</text>
  <path
     d="m 322.22892,336.90999 c 4.601,-8.0944 8.764,-17.0243 11.18,-25.9231 24.859,-91.561 26.378,-132.24 -25,-212.000002 -8.68,-13.476 -21.725,-24.487 -35.171,-33.153"
     id="path92"
     inkscape:connector-curvature="0"
     style="fill:none;stroke:#000000;stroke-width:3" />
  <polygon
     points="268.389,-337.198 268.389,-337.198 254.505,-353.206 275.341,-349.35 "
     id="polygon94"
     style="fill:#000000;stroke:#000000"
     transform="translate(1.1609165,408.98689)" />
  <text
     x="410.21149"
     y="216.98689"
     font-size="40.00"
     id="text96"
     style="font-size:44.82393265px;font-style:normal;font-variant:normal;font-weight:normal;font-stretch:normal;text-anchor:middle;font-family:Arial;-inkscape-font-specification:Arial">r6ack</text>
</svg>
