<?xml version="1.0" encoding="UTF-8" standalone="no"?>
<!-- Generated by graphviz version 2.26.3 (20100126.1600)
 -->

<!-- Title: LTS Pages: 1 -->

<svg
   xmlns:dc="http://purl.org/dc/elements/1.1/"
   xmlns:cc="http://creativecommons.org/ns#"
   xmlns:rdf="http://www.w3.org/1999/02/22-rdf-syntax-ns#"
   xmlns:svg="http://www.w3.org/2000/svg"
   xmlns="http://www.w3.org/2000/svg"
   xmlns:sodipodi="http://sodipodi.sourceforge.net/DTD/sodipodi-0.dtd"
   xmlns:inkscape="http://www.inkscape.org/namespaces/inkscape"
   width="422.28076"
   height="307.745"
   viewBox="0 0 337.58122 246.196"
   id="svg2"
   version="1.1"
   inkscape:version="0.48.2 r9819"
   sodipodi:docname="abp-B1.svg">
  <metadata
     id="metadata70">
    <rdf:RDF>
      <cc:Work
         rdf:about="">
        <dc:format>image/svg+xml</dc:format>
        <dc:type
           rdf:resource="http://purl.org/dc/dcmitype/StillImage" />
      </cc:Work>
    </rdf:RDF>
  </metadata>
  <defs
     id="defs68" />
  <sodipodi:namedview
     pagecolor="#ffffff"
     bordercolor="#666666"
     borderopacity="1"
     objecttolerance="10"
     gridtolerance="10"
     guidetolerance="10"
     inkscape:pageopacity="0"
     inkscape:pageshadow="2"
     inkscape:window-width="1680"
     inkscape:window-height="1026"
     id="namedview66"
     showgrid="false"
     fit-margin-top="0"
     fit-margin-left="0"
     fit-margin-right="0"
     fit-margin-bottom="0"
     inkscape:zoom="1.4984127"
     inkscape:cx="116.1514"
     inkscape:cy="173.80976"
     inkscape:window-x="0"
     inkscape:window-y="24"
     inkscape:window-maximized="1"
     inkscape:current-layer="svg2" />
  <ellipse
     cx="142.75301"
     cy="-204"
     rx="39.096699"
     ry="39.598"
     id="ellipse12"
     d="m 181.8497,-204 c 0,21.86937 -17.50418,39.598 -39.09669,39.598 -21.59251,0 -39.0967,-17.72863 -39.0967,-39.598 0,-21.86937 17.50419,-39.598 39.0967,-39.598 21.59251,0 39.09669,17.72863 39.09669,39.598 z"
     sodipodi:cx="142.75301"
     sodipodi:cy="-204"
     sodipodi:rx="39.096699"
     sodipodi:ry="39.598"
     style="fill:#000000;stroke:#000000;stroke-width:3"
     transform="translate(1.1684994,245.098)" />
  <text
     x="144.07463"
     y="56.924561"
     font-size="40.00"
     id="text14"
     style="font-size:44.79999924px;font-style:normal;font-variant:normal;font-weight:normal;font-stretch:normal;text-anchor:middle;fill:#ffffff;font-family:Arial;-inkscape-font-specification:Arial">0</text>
  <ellipse
     cx="49.7528"
     cy="-40"
     rx="39.096699"
     ry="39.598"
     id="ellipse19"
     d="m 88.849499,-40 c 0,21.869371 -17.504189,39.59799957 -39.096699,39.59799957 -21.592511,0 -39.096699,-17.72862857 -39.096699,-39.59799957 0,-21.869371 17.504188,-39.598 39.096699,-39.598 21.59251,0 39.096699,17.728629 39.096699,39.598 z"
     sodipodi:cx="49.7528"
     sodipodi:cy="-40"
     sodipodi:rx="39.096699"
     sodipodi:ry="39.598"
     style="fill:none;stroke:#000000;stroke-width:3"
     transform="translate(1.1684994,245.098)" />
  <text
     x="50.921299"
     y="221.198"
     font-size="40.00"
     id="text21"
     style="font-size:44.79999924px;font-style:normal;font-variant:normal;font-weight:normal;font-stretch:normal;text-anchor:middle;font-family:Arial;-inkscape-font-specification:Arial">1</text>
  <path
     d="m 105.1535,45.982 c -32.101001,6.314 -75.795901,20.67 -97.2321706,53.116 -12.06918,18.268 -5.767558,40.461 5.3200696,59.8107"
     id="path26"
     inkscape:connector-curvature="0"
     style="fill:none;stroke:#000000;stroke-width:3" />
  <polygon
     points="17.9803,-89.9471 17.9803,-89.9471 23.2112,-69.4132 6.31695,-82.2033 "
     id="polygon28"
     style="fill:#000000;stroke:#000000"
     transform="translate(1.1684994,245.098)" />
  <text
     x="41.421299"
     y="135.09799"
     font-size="40.00"
     id="text30"
     style="font-size:44.79999924px;font-style:normal;font-variant:normal;font-weight:normal;font-stretch:normal;text-anchor:middle;font-family:Arial;-inkscape-font-specification:Arial">r1a</text>
  <ellipse
     cx="234.75301"
     cy="-40"
     rx="39.096699"
     ry="39.598"
     id="ellipse35"
     d="m 273.8497,-40 c 0,21.869371 -17.50418,39.59799957 -39.09669,39.59799957 -21.59251,0 -39.0967,-17.72862857 -39.0967,-39.59799957 0,-21.869371 17.50419,-39.598 39.0967,-39.598 21.59251,0 39.09669,17.728629 39.09669,39.598 z"
     sodipodi:cx="234.75301"
     sodipodi:cy="-40"
     sodipodi:rx="39.096699"
     sodipodi:ry="39.598"
     style="fill:none;stroke:#000000;stroke-width:3"
     transform="translate(1.1684994,245.098)" />
  <text
     x="235.92151"
     y="221.198"
     font-size="40.00"
     id="text37"
     style="font-size:44.79999924px;font-style:normal;font-variant:normal;font-weight:normal;font-stretch:normal;text-anchor:middle;font-family:Arial;-inkscape-font-specification:Arial">2</text>
  <path
     d="m 159.8015,77.221 c 12.43,28.095 28.244,63.368 32.12,69.877 2.172,3.6481 4.532,7.3375 6.993,10.9946"
     id="path42"
     inkscape:connector-curvature="0"
     style="fill:none;stroke:#000000;stroke-width:3" />
  <polygon
     points="203.687,-90.7334 203.687,-90.7334 209.671,-70.4061 192.317,-82.5652 "
     id="polygon44"
     style="fill:#000000;stroke:#000000"
     transform="translate(1.1684994,245.098)" />
  <text
     x="225.92151"
     y="135.09799"
     font-size="40.00"
     id="text46"
     style="font-size:44.79999924px;font-style:normal;font-variant:normal;font-weight:normal;font-stretch:normal;text-anchor:middle;font-family:Arial;-inkscape-font-specification:Arial">r1b</text>
  <path
     d="m 66.068799,168.5155 c 12.6278,-30.4835 28.6021,-69.0065 28.8525,-69.4175 2.8293,-4.641 6.018401,-9.292 9.378201,-13.829"
     id="path51"
     inkscape:connector-curvature="0"
     style="fill:none;stroke:#000000;stroke-width:3" />
  <polygon
     points="97.7443,-164.301 97.7443,-164.301 115.707,-175.541 108.674,-155.552 "
     id="polygon53"
     style="fill:#000000;stroke:#000000"
     transform="translate(1.1684994,245.098)" />
  <text
     x="130.42151"
     y="135.09799"
     font-size="40.00"
     id="text55"
     style="font-size:44.79999924px;font-style:normal;font-variant:normal;font-weight:normal;font-stretch:normal;text-anchor:middle;font-family:Arial;-inkscape-font-specification:Arial">s2a</text>
  <path
     d="m 255.9135,170.9637 c 9.993,-21.9047 17.4,-50.1977 4.008,-71.8657 -13.047,-21.11 -36.36,-34.793 -58.683,-43.532"
     id="path60"
     inkscape:connector-curvature="0"
     style="fill:none;stroke:#000000;stroke-width:3" />
  <polygon
     points="197.685,-182.95 197.685,-182.95 180.992,-196.002 202.181,-196.208 "
     id="polygon62"
     style="fill:#000000;stroke:#000000"
     transform="translate(1.1684994,245.098)" />
  <text
     x="303.42148"
     y="135.09799"
     font-size="40.00"
     id="text64"
     style="font-size:44.79999924px;font-style:normal;font-variant:normal;font-weight:normal;font-stretch:normal;text-anchor:middle;font-family:Arial;-inkscape-font-specification:Arial">s2b</text>
</svg>
