<?xml version="1.0" encoding="UTF-8" standalone="no"?>
<!-- Generated by graphviz version 2.26.3 (20100126.1600)
 -->

<!-- Title: LTS Pages: 1 -->

<svg
   xmlns:dc="http://purl.org/dc/elements/1.1/"
   xmlns:cc="http://creativecommons.org/ns#"
   xmlns:rdf="http://www.w3.org/1999/02/22-rdf-syntax-ns#"
   xmlns:svg="http://www.w3.org/2000/svg"
   xmlns="http://www.w3.org/2000/svg"
   xmlns:sodipodi="http://sodipodi.sourceforge.net/DTD/sodipodi-0.dtd"
   xmlns:inkscape="http://www.inkscape.org/namespaces/inkscape"
   width="300.13654"
   height="512.745"
   viewBox="0 0 240.10923 410.196"
   id="svg2"
   version="1.1"
   inkscape:version="0.48.2 r9819"
   sodipodi:docname="broadcast-rule2-lhs.svg">
  <metadata
     id="metadata79">
    <rdf:RDF>
      <cc:Work
         rdf:about="">
        <dc:format>image/svg+xml</dc:format>
        <dc:type
           rdf:resource="http://purl.org/dc/dcmitype/StillImage" />
      </cc:Work>
    </rdf:RDF>
  </metadata>
  <defs
     id="defs77" />
  <sodipodi:namedview
     pagecolor="#ffffff"
     bordercolor="#666666"
     borderopacity="1"
     objecttolerance="10"
     gridtolerance="10"
     guidetolerance="10"
     inkscape:pageopacity="0"
     inkscape:pageshadow="2"
     inkscape:window-width="1680"
     inkscape:window-height="998"
     id="namedview75"
     showgrid="false"
     fit-margin-top="0"
     fit-margin-left="0"
     fit-margin-right="0"
     fit-margin-bottom="0"
     inkscape:zoom="0.90769231"
     inkscape:cx="68.211288"
     inkscape:cy="214.10724"
     inkscape:window-x="-8"
     inkscape:window-y="-8"
     inkscape:window-maximized="1"
     inkscape:current-layer="svg2" />
  <ellipse
     cx="140"
     cy="-368"
     rx="39.096699"
     ry="39.598"
     id="ellipse12"
     d="m 179.0967,-368 c 0,21.86937 -17.50419,39.598 -39.0967,39.598 -21.59251,0 -39.0967,-17.72863 -39.0967,-39.598 0,-21.86937 17.50419,-39.598 39.0967,-39.598 21.59251,0 39.0967,17.72863 39.0967,39.598 z"
     sodipodi:cx="140"
     sodipodi:cy="-368"
     sodipodi:rx="39.096699"
     sodipodi:ry="39.598"
     style="fill:#000000;stroke:#000000;stroke-width:3"
     transform="translate(1.5966988,409.098)" />
  <text
     x="143.28107"
     y="57.197998"
     font-size="40.00"
     id="text14"
     style="font-size:44.79999924px;font-style:normal;font-variant:normal;font-weight:normal;font-stretch:normal;text-anchor:middle;fill:#ffffff;font-family:Arial;-inkscape-font-specification:Arial">1</text>
  <ellipse
     cx="39"
     cy="-204"
     rx="39.096699"
     ry="39.598"
     id="ellipse19"
     d="m 78.096699,-204 c 0,21.86937 -17.504189,39.598 -39.096699,39.598 -21.59251,0 -39.09669876,-17.72863 -39.09669876,-39.598 0,-21.86937 17.50418876,-39.598 39.09669876,-39.598 21.59251,0 39.096699,17.72863 39.096699,39.598 z"
     sodipodi:cx="39"
     sodipodi:cy="-204"
     sodipodi:rx="39.096699"
     sodipodi:ry="39.598"
     style="fill:none;stroke:#000000;stroke-width:3"
     transform="translate(1.5966988,409.098)" />
  <text
     x="39.3717"
     y="221.13237"
     font-size="40.00"
     id="text21"
     style="font-size:44.79999924px;font-style:normal;font-variant:normal;font-weight:normal;font-stretch:normal;text-anchor:middle;font-family:Arial;-inkscape-font-specification:Arial">iv</text>
  <path
     d="m 119.1657,73.683 c -5.52,8.228 -11.343,17.091 -16.569,25.415 -10.879601,17.33 -22.315901,36.564 -32.362401,53.84"
     id="path26"
     inkscape:connector-curvature="0"
     style="fill:none;stroke:#000000;stroke-width:3" />
  <polygon
     points="74.6216,-252.525 74.6216,-252.525 58.5639,-238.699 62.4949,-259.521 "
     id="polygon28"
     style="fill:#000000;stroke:#000000"
     transform="translate(1.5966988,409.098)" />
  <ellipse
     cx="129"
     cy="-40"
     rx="39.096699"
     ry="39.598"
     id="ellipse35"
     d="m 168.0967,-40 c 0,21.869371 -17.50419,39.59799957 -39.0967,39.59799957 -21.59251,0 -39.096699,-17.72862857 -39.096699,-39.59799957 0,-21.869371 17.504189,-39.598 39.096699,-39.598 21.59251,0 39.0967,17.728629 39.0967,39.598 z"
     sodipodi:cx="129"
     sodipodi:cy="-40"
     sodipodi:rx="39.096699"
     sodipodi:ry="39.598"
     style="fill:none;stroke:#000000;stroke-width:3"
     transform="translate(1.5966988,409.098)" />
  <text
     x="130.57483"
     y="380.71362"
     font-size="40.00"
     id="text37"
     style="font-size:44.79999924px;font-style:normal;font-variant:normal;font-weight:normal;font-stretch:normal;text-anchor:middle;font-family:Arial;-inkscape-font-specification:Arial">v</text>
  <path
     d="m 160.7127,75.814 c 3.264,7.472 6.156,15.476 7.884,23.284 16.138,72.904 -2.039,158.475 -18.37,213.424"
     id="path42"
     inkscape:connector-curvature="0"
     style="fill:none;stroke:#000000;stroke-width:3" />
  <polygon
     points="155.3,-94.4514 155.3,-94.4514 142.65,-77.4517 141.938,-98.6294 "
     id="polygon44"
     style="fill:#000000;stroke:#000000"
     transform="translate(1.5966988,409.098)" />
  <path
     d="m 76.776599,189.727 c 11.6147,0.157 20.8201,5.281 20.8201,15.371 0,2.995 -0.8113,5.553 -2.2561,7.673"
     id="path51"
     inkscape:connector-curvature="0"
     style="fill:none;stroke:#000000;stroke-width:3" />
  <polygon
     points="96.3358,-189.824 96.3358,-189.824 75.1799,-188.629 90.9731,-202.756 "
     id="polygon53"
     style="fill:#000000;stroke:#000000"
     transform="translate(1.5966988,409.098)" />
  <text
     x="128.4967"
     y="217.09799"
     font-size="40.00"
     id="text55"
     style="font-size:44.79999924px;font-style:normal;font-variant:normal;font-weight:normal;font-stretch:normal;text-anchor:middle;font-family:Arial;-inkscape-font-specification:Arial">κ2</text>
  <path
     d="m 59.683399,239.878 c 12.2306,22.287 28.3352,51.633 42.105301,76.7261"
     id="path60"
     inkscape:connector-curvature="0"
     style="fill:none;stroke:#000000;stroke-width:3" />
  <polygon
     points="106.455,-95.6311 106.455,-95.6311 109.941,-74.73 94.1821,-88.8957 "
     id="polygon62"
     style="fill:#000000;stroke:#000000"
     transform="translate(1.5966988,409.098)" />
  <text
     x="116.30856"
     y="283.23358"
     font-size="40.00"
     id="text64"
     style="font-size:44.79999924px;font-style:normal;font-variant:normal;font-weight:normal;font-stretch:normal;text-anchor:middle;font-family:Arial;-inkscape-font-specification:Arial">a2</text>
  <path
     d="m 166.7767,353.7268 c 11.615,0.1576 20.82,5.2814 20.82,15.3712 0,2.9954 -0.811,5.5532 -2.256,7.6732"
     id="path69"
     inkscape:connector-curvature="0"
     style="fill:none;stroke:#000000;stroke-width:3" />
  <polygon
     points="186.336,-25.8237 186.336,-25.8237 165.18,-24.6288 180.973,-38.7559 "
     id="polygon71"
     style="fill:#000000;stroke:#000000"
     transform="translate(1.5966988,409.098)" />
  <text
     x="218.49672"
     y="381.09799"
     font-size="40.00"
     id="text73"
     style="font-size:44.79999924px;font-style:normal;font-variant:normal;font-weight:normal;font-stretch:normal;text-anchor:middle;font-family:Arial;-inkscape-font-specification:Arial">κ3</text>
  <text
     xml:space="preserve"
     style="font-size:44.79999924px;font-style:normal;font-variant:normal;font-weight:normal;font-stretch:normal;text-align:justify;line-height:125%;letter-spacing:0px;word-spacing:0px;text-anchor:start;fill:#000000;fill-opacity:1;stroke:none;font-family:FreeSans;-inkscape-font-specification:FreeSans"
     x="105.12213"
     y="134.58954"
     id="text3115"
     sodipodi:linespacing="125%"><tspan
       sodipodi:role="line"
       id="tspan3117"
       x="105.12213"
       y="134.58954">τ</tspan></text>
  <text
     sodipodi:linespacing="125%"
     id="text3119"
     y="206.86072"
     x="183.56281"
     style="font-size:44.79999924px;font-style:normal;font-variant:normal;font-weight:normal;font-stretch:normal;text-align:justify;line-height:125%;letter-spacing:0px;word-spacing:0px;text-anchor:start;fill:#000000;fill-opacity:1;stroke:none;font-family:FreeSans;-inkscape-font-specification:FreeSans"
     xml:space="preserve"><tspan
       y="206.86072"
       x="183.56281"
       id="tspan3121"
       sodipodi:role="line">τ</tspan></text>
</svg>
