<?xml version="1.0" encoding="UTF-8" standalone="no"?>
<!-- Generated by graphviz version 2.26.3 (20100126.1600)
 -->

<!-- Title: LTS Pages: 1 -->

<svg
   xmlns:dc="http://purl.org/dc/elements/1.1/"
   xmlns:cc="http://creativecommons.org/ns#"
   xmlns:rdf="http://www.w3.org/1999/02/22-rdf-syntax-ns#"
   xmlns:svg="http://www.w3.org/2000/svg"
   xmlns="http://www.w3.org/2000/svg"
   xmlns:sodipodi="http://sodipodi.sourceforge.net/DTD/sodipodi-0.dtd"
   xmlns:inkscape="http://www.inkscape.org/namespaces/inkscape"
   width="1237.8546"
   height="852.14252"
   viewBox="0 0 990.28367 681.71401"
   id="svg2"
   version="1.1"
   inkscape:version="0.48.2 r9819"
   sodipodi:docname="broadcast-network.svg">
  <metadata
     id="metadata106">
    <rdf:RDF>
      <cc:Work
         rdf:about="">
        <dc:format>image/svg+xml</dc:format>
        <dc:type
           rdf:resource="http://purl.org/dc/dcmitype/StillImage" />
        <dc:title />
      </cc:Work>
    </rdf:RDF>
  </metadata>
  <defs
     id="defs104" />
  <sodipodi:namedview
     pagecolor="#ffffff"
     bordercolor="#666666"
     borderopacity="1"
     objecttolerance="10"
     gridtolerance="10"
     guidetolerance="10"
     inkscape:pageopacity="0"
     inkscape:pageshadow="2"
     inkscape:window-width="1680"
     inkscape:window-height="998"
     id="namedview102"
     showgrid="false"
     fit-margin-top="0"
     fit-margin-left="0"
     fit-margin-right="0"
     fit-margin-bottom="0"
     inkscape:zoom="0.51545081"
     inkscape:cx="414.90498"
     inkscape:cy="455.2727"
     inkscape:window-x="-8"
     inkscape:window-y="-8"
     inkscape:window-maximized="1"
     inkscape:current-layer="svg2">
    <inkscape:grid
       type="xygrid"
       id="grid4348"
       empspacing="5"
       visible="true"
       enabled="true"
       snapvisiblegridlinesonly="true" />
  </sodipodi:namedview>
  <text
     x="57.567898"
     y="155.56099"
     font-size="40.00"
     id="text14"
     style="font-size:40px;font-style:normal;font-variant:normal;font-weight:normal;font-stretch:normal;text-anchor:middle;fill:#000000;font-family:Arial;-inkscape-font-specification:Arial" />
  <path
     d="m 57.567898,398.3 c 0,19.987 0,42.804 0,64.184"
     id="path87"
     inkscape:connector-curvature="0"
     style="fill:none;stroke:#000000;stroke-width:3" />
  <polygon
     points="63.0001,-133.747 56,-113.747 49.0001,-133.747 63.0001,-133.747 "
     id="polygon89"
     style="fill:#000000;stroke:#000000"
     transform="translate(1.5677976,596.561)" />
  <path
     style="fill:none;stroke:#000000;stroke-width:3"
     inkscape:connector-curvature="0"
     id="path3140"
     d="m 57.567898,199.9 c 0,19.987 0,42.804 0,64.184" />
  <polygon
     style="fill:#000000;stroke:#000000"
     id="polygon3142"
     points="49.0001,-133.747 63.0001,-133.747 63.0001,-133.747 56,-113.747 "
     transform="translate(1.5677976,398.161)" />
  <ellipse
     cx="56"
     cy="-453"
     rx="56.067902"
     ry="56.568501"
     id="ellipse12"
     d="m 112.0679,-453 c 0,31.24192 -25.102453,56.5685 -56.0679,56.5685 -30.965447,0 -56.06790161,-25.32658 -56.06790161,-56.5685 0,-31.24192 25.10245461,-56.5685 56.06790161,-56.5685 30.965447,0 56.0679,25.32658 56.0679,56.5685 z"
     sodipodi:cx="56"
     sodipodi:cy="-453"
     sodipodi:rx="56.067902"
     sodipodi:ry="56.568501"
     style="fill:none;stroke:#000000;stroke-width:3"
     transform="translate(1.5678976,596.561)" />
  <text
     xml:space="preserve"
     style="font-size:38.40000153px;font-style:normal;font-variant:normal;font-weight:normal;font-stretch:normal;text-align:justify;line-height:125%;letter-spacing:0px;word-spacing:0px;text-anchor:start;fill:#000000;fill-opacity:1;stroke:none;font-family:Arial;-inkscape-font-specification:Arial"
     x="33.003147"
     y="158.9274"
     id="text3154"
     sodipodi:linespacing="125%"><tspan
       sodipodi:role="line"
       id="tspan3156"
       x="33.003147"
       y="158.9274"
       style="font-size:44.79999924px;font-style:normal;font-variant:normal;font-weight:normal;font-stretch:normal;font-family:Arial;-inkscape-font-specification:Arial">13</tspan></text>
  <ellipse
     cx="56"
     cy="-255"
     rx="56.067902"
     ry="56.568501"
     id="ellipse37"
     d="m 112.0679,-255 c 0,31.24192 -25.102453,56.5685 -56.0679,56.5685 -30.965447,0 -56.06790161,-25.32658 -56.06790161,-56.5685 0,-31.24192 25.10245461,-56.5685 56.06790161,-56.5685 30.965447,0 56.0679,25.32658 56.0679,56.5685 z"
     sodipodi:cx="56"
     sodipodi:cy="-255"
     sodipodi:rx="56.067902"
     sodipodi:ry="56.568501"
     style="fill:none;stroke:#000000;stroke-width:3"
     transform="translate(1.5678976,596.561)" />
  <text
     xml:space="preserve"
     style="font-size:38.40000153px;font-style:normal;font-variant:normal;font-weight:normal;font-stretch:normal;text-align:justify;line-height:125%;letter-spacing:0px;word-spacing:0px;text-anchor:start;fill:#000000;fill-opacity:1;stroke:none;font-family:Arial;-inkscape-font-specification:Arial"
     x="32.689548"
     y="357.4426"
     id="text3166"
     sodipodi:linespacing="125%"><tspan
       sodipodi:role="line"
       id="tspan3168"
       x="32.689548"
       y="357.4426"
       style="font-size:44.79999924px;font-style:normal;font-variant:normal;font-weight:normal;font-stretch:normal;font-family:Arial;-inkscape-font-specification:Arial">14</tspan></text>
  <ellipse
     cx="56"
     cy="-57"
     rx="56.067902"
     ry="56.568501"
     id="ellipse53"
     d="M 112.0679,-57 C 112.0679,-25.75808 86.965447,-0.43149948 56,-0.43149948 25.034553,-0.43149948 -0.06790161,-25.75808 -0.06790161,-57 c 0,-31.24192 25.10245461,-56.5685 56.06790161,-56.5685 30.965447,0 56.0679,25.32658 56.0679,56.5685 z"
     sodipodi:cx="56"
     sodipodi:cy="-57"
     sodipodi:rx="56.067902"
     sodipodi:ry="56.568501"
     style="fill:none;stroke:#000000;stroke-width:3"
     transform="translate(1.5678976,596.561)" />
  <text
     xml:space="preserve"
     style="font-size:38.40000153px;font-style:normal;font-variant:normal;font-weight:normal;font-stretch:normal;text-align:justify;line-height:125%;letter-spacing:0px;word-spacing:0px;text-anchor:start;fill:#000000;fill-opacity:1;stroke:none;font-family:Arial;-inkscape-font-specification:Arial"
     x="32.846348"
     y="554.92737"
     id="text3170"
     sodipodi:linespacing="125%"><tspan
       sodipodi:role="line"
       id="tspan3172"
       x="32.846348"
       y="554.92737"
       style="font-size:44.79999924px;font-style:normal;font-variant:normal;font-weight:normal;font-stretch:normal;font-family:Arial;-inkscape-font-specification:Arial">15</tspan></text>
  <path
     d="m 57.567898,1.5 c 0,19.987 0,42.804 0,64.184"
     id="path3223"
     inkscape:connector-curvature="0"
     style="fill:none;stroke:#000000;stroke-width:3;stroke-miterlimit:4;stroke-dasharray:11.99999996, 11.99999996;stroke-dashoffset:0" />
  <polygon
     transform="translate(1.5677976,199.761)"
     points="49.0001,-133.747 63.0001,-133.747 63.0001,-133.747 56,-113.747 "
     id="polygon3225"
     style="fill:#000000;stroke:#000000" />
  <path
     style="fill:none;stroke:#000000;stroke-width:3;stroke-miterlimit:4;stroke-dasharray:11.99999996, 11.99999996;stroke-dashoffset:0"
     inkscape:connector-curvature="0"
     id="path3227"
     d="m 57.567898,596.7 c 0,19.987 0,42.804 0,64.184" />
  <polygon
     transform="translate(1.5677976,794.961)"
     style="fill:#000000;stroke:#000000"
     id="polygon3229"
     points="63.0001,-133.747 56,-113.747 49.0001,-133.747 63.0001,-133.747 " />
  <path
     style="fill:none;stroke:#000000;stroke-width:3"
     inkscape:connector-curvature="0"
     id="path4023"
     d="m 209.56789,398.3 c 0,19.987 0,42.804 0,64.184" />
  <polygon
     transform="translate(153.56779,596.561)"
     style="fill:#000000;stroke:#000000"
     id="polygon4025"
     points="63.0001,-133.747 63.0001,-133.747 56,-113.747 49.0001,-133.747 " />
  <path
     d="m 209.56789,199.9 c 0,19.987 0,42.804 0,64.184"
     id="path4027"
     inkscape:connector-curvature="0"
     style="fill:none;stroke:#000000;stroke-width:3" />
  <polygon
     transform="translate(153.56779,398.161)"
     points="56,-113.747 49.0001,-133.747 63.0001,-133.747 63.0001,-133.747 "
     id="polygon4029"
     style="fill:#000000;stroke:#000000" />
  <ellipse
     transform="translate(153.56789,596.561)"
     style="fill:none;stroke:#000000;stroke-width:3"
     sodipodi:ry="56.568501"
     sodipodi:rx="56.067902"
     sodipodi:cy="-453"
     sodipodi:cx="56"
     d="m 112.0679,-453 c 0,31.24192 -25.102453,56.5685 -56.0679,56.5685 -30.965447,0 -56.06790161,-25.32658 -56.06790161,-56.5685 0,-31.24192 25.10245461,-56.5685 56.06790161,-56.5685 30.965447,0 56.0679,25.32658 56.0679,56.5685 z"
     id="ellipse4033"
     ry="56.568501"
     rx="56.067902"
     cy="-453"
     cx="56" />
  <text
     sodipodi:linespacing="125%"
     id="text4035"
     y="158.9274"
     x="185.00314"
     style="font-size:38.40000153px;font-style:normal;font-variant:normal;font-weight:normal;font-stretch:normal;text-align:justify;line-height:125%;letter-spacing:0px;word-spacing:0px;text-anchor:start;fill:#000000;fill-opacity:1;stroke:none;font-family:Arial;-inkscape-font-specification:Arial"
     xml:space="preserve"><tspan
       style="font-size:44.79999924px;font-style:normal;font-variant:normal;font-weight:normal;font-stretch:normal;font-family:Arial;-inkscape-font-specification:Arial"
       y="158.9274"
       x="185.00314"
       id="tspan4037"
       sodipodi:role="line">23</tspan></text>
  <ellipse
     transform="translate(153.56789,596.561)"
     style="fill:none;stroke:#000000;stroke-width:3"
     sodipodi:ry="56.568501"
     sodipodi:rx="56.067902"
     sodipodi:cy="-255"
     sodipodi:cx="56"
     d="m 112.0679,-255 c 0,31.24192 -25.102453,56.5685 -56.0679,56.5685 -30.965447,0 -56.06790161,-25.32658 -56.06790161,-56.5685 0,-31.24192 25.10245461,-56.5685 56.06790161,-56.5685 30.965447,0 56.0679,25.32658 56.0679,56.5685 z"
     id="ellipse4041"
     ry="56.568501"
     rx="56.067902"
     cy="-255"
     cx="56" />
  <text
     sodipodi:linespacing="125%"
     id="text4043"
     y="357.4426"
     x="184.68954"
     style="font-size:38.40000153px;font-style:normal;font-variant:normal;font-weight:normal;font-stretch:normal;text-align:justify;line-height:125%;letter-spacing:0px;word-spacing:0px;text-anchor:start;fill:#000000;fill-opacity:1;stroke:none;font-family:Arial;-inkscape-font-specification:Arial"
     xml:space="preserve"><tspan
       style="font-size:44.79999924px;font-style:normal;font-variant:normal;font-weight:normal;font-stretch:normal;font-family:Arial;-inkscape-font-specification:Arial"
       y="357.4426"
       x="184.68954"
       id="tspan4045"
       sodipodi:role="line">24</tspan></text>
  <ellipse
     transform="translate(153.56789,596.561)"
     style="fill:none;stroke:#000000;stroke-width:3"
     sodipodi:ry="56.568501"
     sodipodi:rx="56.067902"
     sodipodi:cy="-57"
     sodipodi:cx="56"
     d="M 112.0679,-57 C 112.0679,-25.75808 86.965447,-0.43149948 56,-0.43149948 25.034553,-0.43149948 -0.06790161,-25.75808 -0.06790161,-57 c 0,-31.24192 25.10245461,-56.5685 56.06790161,-56.5685 30.965447,0 56.0679,25.32658 56.0679,56.5685 z"
     id="ellipse4049"
     ry="56.568501"
     rx="56.067902"
     cy="-57"
     cx="56" />
  <text
     sodipodi:linespacing="125%"
     id="text4051"
     y="554.92737"
     x="184.84634"
     style="font-size:38.40000153px;font-style:normal;font-variant:normal;font-weight:normal;font-stretch:normal;text-align:justify;line-height:125%;letter-spacing:0px;word-spacing:0px;text-anchor:start;fill:#000000;fill-opacity:1;stroke:none;font-family:Arial;-inkscape-font-specification:Arial"
     xml:space="preserve"><tspan
       style="font-size:44.79999924px;font-style:normal;font-variant:normal;font-weight:normal;font-stretch:normal;font-family:Arial;-inkscape-font-specification:Arial"
       y="554.92737"
       x="184.84634"
       id="tspan4053"
       sodipodi:role="line">25</tspan></text>
  <path
     style="fill:none;stroke:#000000;stroke-width:3;stroke-miterlimit:4;stroke-dasharray:11.99999996, 11.99999996;stroke-dashoffset:0"
     inkscape:connector-curvature="0"
     id="path4055"
     d="m 209.56789,1.5 c 0,19.987 0,42.804 0,64.184" />
  <polygon
     style="fill:#000000;stroke:#000000"
     id="polygon4057"
     points="56,-113.747 49.0001,-133.747 63.0001,-133.747 63.0001,-133.747 "
     transform="translate(153.56779,199.761)" />
  <path
     d="m 209.56789,596.7 c 0,19.987 0,42.804 0,64.184"
     id="path4059"
     inkscape:connector-curvature="0"
     style="fill:none;stroke:#000000;stroke-width:3;stroke-miterlimit:4;stroke-dasharray:11.99999996, 11.99999996;stroke-dashoffset:0" />
  <polygon
     points="63.0001,-133.747 63.0001,-133.747 56,-113.747 49.0001,-133.747 "
     id="polygon4061"
     style="fill:#000000;stroke:#000000"
     transform="translate(153.56779,794.961)" />
  <path
     d="m 361.56787,398.3 c 0,19.987 0,42.804 0,64.184"
     id="path4065"
     inkscape:connector-curvature="0"
     style="fill:none;stroke:#000000;stroke-width:3" />
  <polygon
     points="49.0001,-133.747 63.0001,-133.747 63.0001,-133.747 56,-113.747 "
     id="polygon4067"
     style="fill:#000000;stroke:#000000"
     transform="translate(305.56777,596.561)" />
  <path
     style="fill:none;stroke:#000000;stroke-width:3"
     inkscape:connector-curvature="0"
     id="path4069"
     d="m 361.56787,199.9 c 0,19.987 0,42.804 0,64.184" />
  <polygon
     style="fill:#000000;stroke:#000000"
     id="polygon4071"
     points="63.0001,-133.747 56,-113.747 49.0001,-133.747 63.0001,-133.747 "
     transform="translate(305.56777,398.161)" />
  <ellipse
     cx="56"
     cy="-453"
     rx="56.067902"
     ry="56.568501"
     id="ellipse4075"
     d="m 112.0679,-453 c 0,31.24192 -25.102453,56.5685 -56.0679,56.5685 -30.965447,0 -56.06790161,-25.32658 -56.06790161,-56.5685 0,-31.24192 25.10245461,-56.5685 56.06790161,-56.5685 30.965447,0 56.0679,25.32658 56.0679,56.5685 z"
     sodipodi:cx="56"
     sodipodi:cy="-453"
     sodipodi:rx="56.067902"
     sodipodi:ry="56.568501"
     style="fill:none;stroke:#000000;stroke-width:3"
     transform="translate(305.56787,596.561)" />
  <text
     xml:space="preserve"
     style="font-size:38.40000153px;font-style:normal;font-variant:normal;font-weight:normal;font-stretch:normal;text-align:justify;line-height:125%;letter-spacing:0px;word-spacing:0px;text-anchor:start;fill:#000000;fill-opacity:1;stroke:none;font-family:Arial;-inkscape-font-specification:Arial"
     x="337.00311"
     y="158.9274"
     id="text4077"
     sodipodi:linespacing="125%"><tspan
       sodipodi:role="line"
       id="tspan4079"
       x="337.00311"
       y="158.9274"
       style="font-size:44.79999924px;font-style:normal;font-variant:normal;font-weight:normal;font-stretch:normal;font-family:Arial;-inkscape-font-specification:Arial">33</tspan></text>
  <ellipse
     cx="56"
     cy="-255"
     rx="56.067902"
     ry="56.568501"
     id="ellipse4083"
     d="m 112.0679,-255 c 0,31.24192 -25.102453,56.5685 -56.0679,56.5685 -30.965447,0 -56.06790161,-25.32658 -56.06790161,-56.5685 0,-31.24192 25.10245461,-56.5685 56.06790161,-56.5685 30.965447,0 56.0679,25.32658 56.0679,56.5685 z"
     sodipodi:cx="56"
     sodipodi:cy="-255"
     sodipodi:rx="56.067902"
     sodipodi:ry="56.568501"
     style="fill:none;stroke:#000000;stroke-width:3"
     transform="translate(305.56787,596.561)" />
  <text
     xml:space="preserve"
     style="font-size:38.40000153px;font-style:normal;font-variant:normal;font-weight:normal;font-stretch:normal;text-align:justify;line-height:125%;letter-spacing:0px;word-spacing:0px;text-anchor:start;fill:#000000;fill-opacity:1;stroke:none;font-family:Arial;-inkscape-font-specification:Arial"
     x="336.68951"
     y="357.4426"
     id="text4085"
     sodipodi:linespacing="125%"><tspan
       sodipodi:role="line"
       id="tspan4087"
       x="336.68951"
       y="357.4426"
       style="font-size:44.79999924px;font-style:normal;font-variant:normal;font-weight:normal;font-stretch:normal;font-family:Arial;-inkscape-font-specification:Arial">34</tspan></text>
  <ellipse
     cx="56"
     cy="-57"
     rx="56.067902"
     ry="56.568501"
     id="ellipse4091"
     d="M 112.0679,-57 C 112.0679,-25.75808 86.965447,-0.43149948 56,-0.43149948 25.034553,-0.43149948 -0.06790161,-25.75808 -0.06790161,-57 c 0,-31.24192 25.10245461,-56.5685 56.06790161,-56.5685 30.965447,0 56.0679,25.32658 56.0679,56.5685 z"
     sodipodi:cx="56"
     sodipodi:cy="-57"
     sodipodi:rx="56.067902"
     sodipodi:ry="56.568501"
     style="fill:none;stroke:#000000;stroke-width:3"
     transform="translate(305.56787,596.561)" />
  <text
     xml:space="preserve"
     style="font-size:38.40000153px;font-style:normal;font-variant:normal;font-weight:normal;font-stretch:normal;text-align:justify;line-height:125%;letter-spacing:0px;word-spacing:0px;text-anchor:start;fill:#000000;fill-opacity:1;stroke:none;font-family:Arial;-inkscape-font-specification:Arial"
     x="336.84631"
     y="554.92737"
     id="text4093"
     sodipodi:linespacing="125%"><tspan
       sodipodi:role="line"
       id="tspan4095"
       x="336.84631"
       y="554.92737"
       style="font-size:44.79999924px;font-style:normal;font-variant:normal;font-weight:normal;font-stretch:normal;font-family:Arial;-inkscape-font-specification:Arial">35</tspan></text>
  <path
     d="m 361.56787,1.5 c 0,19.987 0,42.804 0,64.184"
     id="path4097"
     inkscape:connector-curvature="0"
     style="fill:none;stroke:#000000;stroke-width:3;stroke-miterlimit:4;stroke-dasharray:11.99999996, 11.99999996;stroke-dashoffset:0" />
  <polygon
     transform="translate(305.56777,199.761)"
     points="63.0001,-133.747 56,-113.747 49.0001,-133.747 63.0001,-133.747 "
     id="polygon4099"
     style="fill:#000000;stroke:#000000" />
  <path
     style="fill:none;stroke:#000000;stroke-width:3;stroke-miterlimit:4;stroke-dasharray:11.99999996, 11.99999996;stroke-dashoffset:0"
     inkscape:connector-curvature="0"
     id="path4101"
     d="m 361.56787,596.7 c 0,19.987 0,42.804 0,64.184" />
  <polygon
     transform="translate(305.56777,794.961)"
     style="fill:#000000;stroke:#000000"
     id="polygon4103"
     points="49.0001,-133.747 63.0001,-133.747 63.0001,-133.747 56,-113.747 " />
  <text
     xml:space="preserve"
     style="font-size:44.79999924px;font-style:normal;font-variant:normal;font-weight:normal;font-stretch:normal;text-align:justify;line-height:125%;letter-spacing:0px;word-spacing:0px;text-anchor:start;fill:#000000;fill-opacity:1;stroke:none;font-family:Arial;-inkscape-font-specification:Arial"
     x="69.919502"
     y="249.22336"
     id="text4105"
     sodipodi:linespacing="125%"><tspan
       sodipodi:role="line"
       id="tspan4107"
       x="69.919502"
       y="249.22336">a1</tspan></text>
  <text
     xml:space="preserve"
     style="font-size:44.79999924px;font-style:normal;font-variant:normal;font-weight:normal;font-stretch:normal;text-align:justify;line-height:125%;letter-spacing:0px;word-spacing:0px;text-anchor:start;fill:#000000;fill-opacity:1;stroke:none;font-family:Arial;-inkscape-font-specification:Arial"
     x="222.46606"
     y="248.53607"
     id="text4109"
     sodipodi:linespacing="125%"><tspan
       sodipodi:role="line"
       id="tspan4111"
       x="222.46606"
       y="248.53607">a2</tspan></text>
  <text
     sodipodi:linespacing="125%"
     id="text4200"
     y="446.02411"
     x="69.919502"
     style="font-size:44.79999924px;font-style:normal;font-variant:normal;font-weight:normal;font-stretch:normal;text-align:justify;line-height:125%;letter-spacing:0px;word-spacing:0px;text-anchor:start;fill:#000000;fill-opacity:1;stroke:none;font-family:Arial;-inkscape-font-specification:Arial"
     xml:space="preserve"><tspan
       y="446.02411"
       x="69.919502"
       id="tspan4202"
       sodipodi:role="line">a1</tspan></text>
  <text
     sodipodi:linespacing="125%"
     id="text4204"
     y="446.93683"
     x="222.46606"
     style="font-size:44.79999924px;font-style:normal;font-variant:normal;font-weight:normal;font-stretch:normal;text-align:justify;line-height:125%;letter-spacing:0px;word-spacing:0px;text-anchor:start;fill:#000000;fill-opacity:1;stroke:none;font-family:Arial;-inkscape-font-specification:Arial"
     xml:space="preserve"><tspan
       y="446.93683"
       x="222.46606"
       id="tspan4206"
       sodipodi:role="line">a2</tspan></text>
  <text
     sodipodi:linespacing="125%"
     id="text4208"
     y="248.53607"
     x="374.46664"
     style="font-size:44.79999924px;font-style:normal;font-variant:normal;font-weight:normal;font-stretch:normal;text-align:justify;line-height:125%;letter-spacing:0px;word-spacing:0px;text-anchor:start;fill:#000000;fill-opacity:1;stroke:none;font-family:Arial;-inkscape-font-specification:Arial"
     xml:space="preserve"><tspan
       y="248.53607"
       x="374.46664"
       id="tspan4210"
       sodipodi:role="line">a3</tspan></text>
  <text
     xml:space="preserve"
     style="font-size:44.79999924px;font-style:normal;font-variant:normal;font-weight:normal;font-stretch:normal;text-align:justify;line-height:125%;letter-spacing:0px;word-spacing:0px;text-anchor:start;fill:#000000;fill-opacity:1;stroke:none;font-family:Arial;-inkscape-font-specification:Arial"
     x="374.46664"
     y="446.93683"
     id="text4212"
     sodipodi:linespacing="125%"><tspan
       sodipodi:role="line"
       id="tspan4214"
       x="374.46664"
       y="446.93683">a3</tspan></text>
  <path
     style="fill:none;stroke:#000000;stroke-width:3"
     inkscape:connector-curvature="0"
     id="path4216"
     d="m 625.5679,398.3 c 0,19.987 0,42.804 0,64.184" />
  <polygon
     transform="translate(569.5678,596.561)"
     style="fill:#000000;stroke:#000000"
     id="polygon4218"
     points="49.0001,-133.747 63.0001,-133.747 63.0001,-133.747 56,-113.747 " />
  <path
     d="m 625.5679,199.9 c 0,19.987 0,42.804 0,64.184"
     id="path4220"
     inkscape:connector-curvature="0"
     style="fill:none;stroke:#000000;stroke-width:3" />
  <polygon
     transform="translate(569.5678,398.161)"
     points="63.0001,-133.747 56,-113.747 49.0001,-133.747 63.0001,-133.747 "
     id="polygon4222"
     style="fill:#000000;stroke:#000000" />
  <ellipse
     transform="translate(569.5679,596.561)"
     style="fill:none;stroke:#000000;stroke-width:3"
     sodipodi:ry="56.568501"
     sodipodi:rx="56.067902"
     sodipodi:cy="-453"
     sodipodi:cx="56"
     d="m 112.0679,-453 c 0,31.24192 -25.102453,56.5685 -56.0679,56.5685 -30.965447,0 -56.06790161,-25.32658 -56.06790161,-56.5685 0,-31.24192 25.10245461,-56.5685 56.06790161,-56.5685 30.965447,0 56.0679,25.32658 56.0679,56.5685 z"
     id="ellipse4224"
     ry="56.568501"
     rx="56.067902"
     cy="-453"
     cx="56" />
  <text
     sodipodi:linespacing="125%"
     id="text4226"
     y="158.9274"
     x="601.0036"
     style="font-size:38.40000153px;font-style:normal;font-variant:normal;font-weight:normal;font-stretch:normal;text-align:justify;line-height:125%;letter-spacing:0px;word-spacing:0px;text-anchor:start;fill:#000000;fill-opacity:1;stroke:none;font-family:Arial;-inkscape-font-specification:Arial"
     xml:space="preserve"><tspan
       style="font-size:44.79999924px;font-style:normal;font-variant:normal;font-weight:normal;font-stretch:normal;font-family:Arial;-inkscape-font-specification:Arial"
       y="158.9274"
       x="601.0036"
       id="tspan4228"
       sodipodi:role="line">73</tspan></text>
  <ellipse
     transform="translate(569.5679,596.561)"
     style="fill:none;stroke:#000000;stroke-width:3"
     sodipodi:ry="56.568501"
     sodipodi:rx="56.067902"
     sodipodi:cy="-255"
     sodipodi:cx="56"
     d="m 112.0679,-255 c 0,31.24192 -25.102453,56.5685 -56.0679,56.5685 -30.965447,0 -56.06790161,-25.32658 -56.06790161,-56.5685 0,-31.24192 25.10245461,-56.5685 56.06790161,-56.5685 30.965447,0 56.0679,25.32658 56.0679,56.5685 z"
     id="ellipse4230"
     ry="56.568501"
     rx="56.067902"
     cy="-255"
     cx="56" />
  <text
     sodipodi:linespacing="125%"
     id="text4232"
     y="357.4426"
     x="600.69"
     style="font-size:38.40000153px;font-style:normal;font-variant:normal;font-weight:normal;font-stretch:normal;text-align:justify;line-height:125%;letter-spacing:0px;word-spacing:0px;text-anchor:start;fill:#000000;fill-opacity:1;stroke:none;font-family:Arial;-inkscape-font-specification:Arial"
     xml:space="preserve"><tspan
       style="font-size:44.79999924px;font-style:normal;font-variant:normal;font-weight:normal;font-stretch:normal;font-family:Arial;-inkscape-font-specification:Arial"
       y="357.4426"
       x="600.69"
       id="tspan4234"
       sodipodi:role="line">74</tspan></text>
  <ellipse
     transform="translate(569.5679,596.561)"
     style="fill:none;stroke:#000000;stroke-width:3"
     sodipodi:ry="56.568501"
     sodipodi:rx="56.067902"
     sodipodi:cy="-57"
     sodipodi:cx="56"
     d="M 112.0679,-57 C 112.0679,-25.75808 86.965447,-0.43149948 56,-0.43149948 25.034553,-0.43149948 -0.06790161,-25.75808 -0.06790161,-57 c 0,-31.24192 25.10245461,-56.5685 56.06790161,-56.5685 30.965447,0 56.0679,25.32658 56.0679,56.5685 z"
     id="ellipse4236"
     ry="56.568501"
     rx="56.067902"
     cy="-57"
     cx="56" />
  <text
     sodipodi:linespacing="125%"
     id="text4238"
     y="554.92737"
     x="600.8468"
     style="font-size:38.40000153px;font-style:normal;font-variant:normal;font-weight:normal;font-stretch:normal;text-align:justify;line-height:125%;letter-spacing:0px;word-spacing:0px;text-anchor:start;fill:#000000;fill-opacity:1;stroke:none;font-family:Arial;-inkscape-font-specification:Arial"
     xml:space="preserve"><tspan
       style="font-size:44.79999924px;font-style:normal;font-variant:normal;font-weight:normal;font-stretch:normal;font-family:Arial;-inkscape-font-specification:Arial"
       y="554.92737"
       x="600.8468"
       id="tspan4240"
       sodipodi:role="line">75</tspan></text>
  <path
     style="fill:none;stroke:#000000;stroke-width:3;stroke-miterlimit:4;stroke-dasharray:11.99999996, 11.99999996;stroke-dashoffset:0"
     inkscape:connector-curvature="0"
     id="path4242"
     d="m 625.5679,1.5 c 0,19.987 0,42.804 0,64.184" />
  <polygon
     style="fill:#000000;stroke:#000000"
     id="polygon4244"
     points="63.0001,-133.747 56,-113.747 49.0001,-133.747 63.0001,-133.747 "
     transform="translate(569.5678,199.761)" />
  <path
     d="m 625.5679,596.7 c 0,19.987 0,42.804 0,64.184"
     id="path4246"
     inkscape:connector-curvature="0"
     style="fill:none;stroke:#000000;stroke-width:3;stroke-miterlimit:4;stroke-dasharray:11.99999996, 11.99999996;stroke-dashoffset:0" />
  <polygon
     points="49.0001,-133.747 63.0001,-133.747 63.0001,-133.747 56,-113.747 "
     id="polygon4248"
     style="fill:#000000;stroke:#000000"
     transform="translate(569.5678,794.961)" />
  <path
     d="m 777.56789,398.3 c 0,19.987 0,42.804 0,64.184"
     id="path4250"
     inkscape:connector-curvature="0"
     style="fill:none;stroke:#000000;stroke-width:3" />
  <polygon
     points="56,-113.747 49.0001,-133.747 63.0001,-133.747 63.0001,-133.747 "
     id="polygon4252"
     style="fill:#000000;stroke:#000000"
     transform="translate(721.56779,596.561)" />
  <path
     style="fill:none;stroke:#000000;stroke-width:3"
     inkscape:connector-curvature="0"
     id="path4254"
     d="m 777.56789,199.9 c 0,19.987 0,42.804 0,64.184" />
  <polygon
     style="fill:#000000;stroke:#000000"
     id="polygon4256"
     points="63.0001,-133.747 63.0001,-133.747 56,-113.747 49.0001,-133.747 "
     transform="translate(721.56779,398.161)" />
  <ellipse
     cx="56"
     cy="-453"
     rx="56.067902"
     ry="56.568501"
     id="ellipse4258"
     d="m 112.0679,-453 c 0,31.24192 -25.102453,56.5685 -56.0679,56.5685 -30.965447,0 -56.06790161,-25.32658 -56.06790161,-56.5685 0,-31.24192 25.10245461,-56.5685 56.06790161,-56.5685 30.965447,0 56.0679,25.32658 56.0679,56.5685 z"
     sodipodi:cx="56"
     sodipodi:cy="-453"
     sodipodi:rx="56.067902"
     sodipodi:ry="56.568501"
     style="fill:none;stroke:#000000;stroke-width:3"
     transform="translate(721.56789,596.561)" />
  <text
     xml:space="preserve"
     style="font-size:38.40000153px;font-style:normal;font-variant:normal;font-weight:normal;font-stretch:normal;text-align:justify;line-height:125%;letter-spacing:0px;word-spacing:0px;text-anchor:start;fill:#000000;fill-opacity:1;stroke:none;font-family:Arial;-inkscape-font-specification:Arial"
     x="753.00281"
     y="158.9274"
     id="text4260"
     sodipodi:linespacing="125%"><tspan
       sodipodi:role="line"
       id="tspan4262"
       x="753.00281"
       y="158.9274"
       style="font-size:44.79999924px;font-style:normal;font-variant:normal;font-weight:normal;font-stretch:normal;font-family:Arial;-inkscape-font-specification:Arial">83</tspan></text>
  <ellipse
     cx="56"
     cy="-255"
     rx="56.067902"
     ry="56.568501"
     id="ellipse4264"
     d="m 112.0679,-255 c 0,31.24192 -25.102453,56.5685 -56.0679,56.5685 -30.965447,0 -56.06790161,-25.32658 -56.06790161,-56.5685 0,-31.24192 25.10245461,-56.5685 56.06790161,-56.5685 30.965447,0 56.0679,25.32658 56.0679,56.5685 z"
     sodipodi:cx="56"
     sodipodi:cy="-255"
     sodipodi:rx="56.067902"
     sodipodi:ry="56.568501"
     style="fill:none;stroke:#000000;stroke-width:3"
     transform="translate(721.56789,596.561)" />
  <text
     xml:space="preserve"
     style="font-size:38.40000153px;font-style:normal;font-variant:normal;font-weight:normal;font-stretch:normal;text-align:justify;line-height:125%;letter-spacing:0px;word-spacing:0px;text-anchor:start;fill:#000000;fill-opacity:1;stroke:none;font-family:Arial;-inkscape-font-specification:Arial"
     x="752.68921"
     y="357.4426"
     id="text4266"
     sodipodi:linespacing="125%"><tspan
       sodipodi:role="line"
       id="tspan4268"
       x="752.68921"
       y="357.4426"
       style="font-size:44.79999924px;font-style:normal;font-variant:normal;font-weight:normal;font-stretch:normal;font-family:Arial;-inkscape-font-specification:Arial">84</tspan></text>
  <ellipse
     cx="56"
     cy="-57"
     rx="56.067902"
     ry="56.568501"
     id="ellipse4270"
     d="M 112.0679,-57 C 112.0679,-25.75808 86.965447,-0.43149948 56,-0.43149948 25.034553,-0.43149948 -0.06790161,-25.75808 -0.06790161,-57 c 0,-31.24192 25.10245461,-56.5685 56.06790161,-56.5685 30.965447,0 56.0679,25.32658 56.0679,56.5685 z"
     sodipodi:cx="56"
     sodipodi:cy="-57"
     sodipodi:rx="56.067902"
     sodipodi:ry="56.568501"
     style="fill:none;stroke:#000000;stroke-width:3"
     transform="translate(721.56789,596.561)" />
  <text
     xml:space="preserve"
     style="font-size:38.40000153px;font-style:normal;font-variant:normal;font-weight:normal;font-stretch:normal;text-align:justify;line-height:125%;letter-spacing:0px;word-spacing:0px;text-anchor:start;fill:#000000;fill-opacity:1;stroke:none;font-family:Arial;-inkscape-font-specification:Arial"
     x="752.84601"
     y="554.92737"
     id="text4272"
     sodipodi:linespacing="125%"><tspan
       sodipodi:role="line"
       id="tspan4274"
       x="752.84601"
       y="554.92737"
       style="font-size:44.79999924px;font-style:normal;font-variant:normal;font-weight:normal;font-stretch:normal;font-family:Arial;-inkscape-font-specification:Arial">85</tspan></text>
  <path
     d="m 777.56789,1.5 c 0,19.987 0,42.804 0,64.184"
     id="path4276"
     inkscape:connector-curvature="0"
     style="fill:none;stroke:#000000;stroke-width:3;stroke-miterlimit:4;stroke-dasharray:11.99999996, 11.99999996;stroke-dashoffset:0" />
  <polygon
     transform="translate(721.56779,199.761)"
     points="63.0001,-133.747 63.0001,-133.747 56,-113.747 49.0001,-133.747 "
     id="polygon4278"
     style="fill:#000000;stroke:#000000" />
  <path
     style="fill:none;stroke:#000000;stroke-width:3;stroke-miterlimit:4;stroke-dasharray:11.99999996, 11.99999996;stroke-dashoffset:0"
     inkscape:connector-curvature="0"
     id="path4280"
     d="m 777.56789,596.7 c 0,19.987 0,42.804 0,64.184" />
  <polygon
     transform="translate(721.56779,794.961)"
     style="fill:#000000;stroke:#000000"
     id="polygon4282"
     points="56,-113.747 49.0001,-133.747 63.0001,-133.747 63.0001,-133.747 " />
  <path
     style="fill:none;stroke:#000000;stroke-width:3"
     inkscape:connector-curvature="0"
     id="path4284"
     d="m 929.56787,398.3 c 0,19.987 0,42.804 0,64.184" />
  <polygon
     transform="translate(873.56777,596.561)"
     style="fill:#000000;stroke:#000000"
     id="polygon4286"
     points="63.0001,-133.747 56,-113.747 49.0001,-133.747 63.0001,-133.747 " />
  <path
     d="m 929.56787,199.9 c 0,19.987 0,42.804 0,64.184"
     id="path4288"
     inkscape:connector-curvature="0"
     style="fill:none;stroke:#000000;stroke-width:3" />
  <polygon
     transform="translate(873.56777,398.161)"
     points="49.0001,-133.747 63.0001,-133.747 63.0001,-133.747 56,-113.747 "
     id="polygon4290"
     style="fill:#000000;stroke:#000000" />
  <ellipse
     transform="translate(873.56787,596.561)"
     style="fill:none;stroke:#000000;stroke-width:3"
     sodipodi:ry="56.568501"
     sodipodi:rx="56.067902"
     sodipodi:cy="-453"
     sodipodi:cx="56"
     d="m 112.0679,-453 c 0,31.24192 -25.102453,56.5685 -56.0679,56.5685 -30.965447,0 -56.06790161,-25.32658 -56.06790161,-56.5685 0,-31.24192 25.10245461,-56.5685 56.06790161,-56.5685 30.965447,0 56.0679,25.32658 56.0679,56.5685 z"
     id="ellipse4292"
     ry="56.568501"
     rx="56.067902"
     cy="-453"
     cx="56" />
  <text
     sodipodi:linespacing="125%"
     id="text4294"
     y="158.9274"
     x="905.00171"
     style="font-size:38.40000153px;font-style:normal;font-variant:normal;font-weight:normal;font-stretch:normal;text-align:justify;line-height:125%;letter-spacing:0px;word-spacing:0px;text-anchor:start;fill:#000000;fill-opacity:1;stroke:none;font-family:Arial;-inkscape-font-specification:Arial"
     xml:space="preserve"><tspan
       style="font-size:44.79999924px;font-style:normal;font-variant:normal;font-weight:normal;font-stretch:normal;font-family:Arial;-inkscape-font-specification:Arial"
       y="158.9274"
       x="905.00171"
       id="tspan4296"
       sodipodi:role="line">93</tspan></text>
  <ellipse
     transform="translate(873.56787,596.561)"
     style="fill:none;stroke:#000000;stroke-width:3"
     sodipodi:ry="56.568501"
     sodipodi:rx="56.067902"
     sodipodi:cy="-255"
     sodipodi:cx="56"
     d="m 112.0679,-255 c 0,31.24192 -25.102453,56.5685 -56.0679,56.5685 -30.965447,0 -56.06790161,-25.32658 -56.06790161,-56.5685 0,-31.24192 25.10245461,-56.5685 56.06790161,-56.5685 30.965447,0 56.0679,25.32658 56.0679,56.5685 z"
     id="ellipse4298"
     ry="56.568501"
     rx="56.067902"
     cy="-255"
     cx="56" />
  <text
     sodipodi:linespacing="125%"
     id="text4300"
     y="357.4426"
     x="904.68811"
     style="font-size:38.40000153px;font-style:normal;font-variant:normal;font-weight:normal;font-stretch:normal;text-align:justify;line-height:125%;letter-spacing:0px;word-spacing:0px;text-anchor:start;fill:#000000;fill-opacity:1;stroke:none;font-family:Arial;-inkscape-font-specification:Arial"
     xml:space="preserve"><tspan
       style="font-size:44.79999924px;font-style:normal;font-variant:normal;font-weight:normal;font-stretch:normal;font-family:Arial;-inkscape-font-specification:Arial"
       y="357.4426"
       x="904.68811"
       id="tspan4302"
       sodipodi:role="line">94</tspan></text>
  <ellipse
     transform="translate(873.56787,596.561)"
     style="fill:none;stroke:#000000;stroke-width:3"
     sodipodi:ry="56.568501"
     sodipodi:rx="56.067902"
     sodipodi:cy="-57"
     sodipodi:cx="56"
     d="M 112.0679,-57 C 112.0679,-25.75808 86.965447,-0.43149948 56,-0.43149948 25.034553,-0.43149948 -0.06790161,-25.75808 -0.06790161,-57 c 0,-31.24192 25.10245461,-56.5685 56.06790161,-56.5685 30.965447,0 56.0679,25.32658 56.0679,56.5685 z"
     id="ellipse4304"
     ry="56.568501"
     rx="56.067902"
     cy="-57"
     cx="56" />
  <text
     sodipodi:linespacing="125%"
     id="text4306"
     y="554.92737"
     x="904.84491"
     style="font-size:38.40000153px;font-style:normal;font-variant:normal;font-weight:normal;font-stretch:normal;text-align:justify;line-height:125%;letter-spacing:0px;word-spacing:0px;text-anchor:start;fill:#000000;fill-opacity:1;stroke:none;font-family:Arial;-inkscape-font-specification:Arial"
     xml:space="preserve"><tspan
       style="font-size:44.79999924px;font-style:normal;font-variant:normal;font-weight:normal;font-stretch:normal;font-family:Arial;-inkscape-font-specification:Arial"
       y="554.92737"
       x="904.84491"
       id="tspan4308"
       sodipodi:role="line">95</tspan></text>
  <path
     style="fill:none;stroke:#000000;stroke-width:3;stroke-miterlimit:4;stroke-dasharray:11.99999996, 11.99999996;stroke-dashoffset:0"
     inkscape:connector-curvature="0"
     id="path4310"
     d="m 929.56787,1.5 c 0,19.987 0,42.804 0,64.184" />
  <polygon
     style="fill:#000000;stroke:#000000"
     id="polygon4312"
     points="49.0001,-133.747 63.0001,-133.747 63.0001,-133.747 56,-113.747 "
     transform="translate(873.56777,199.761)" />
  <path
     d="m 929.56787,596.7 c 0,19.987 0,42.804 0,64.184"
     id="path4314"
     inkscape:connector-curvature="0"
     style="fill:none;stroke:#000000;stroke-width:3;stroke-miterlimit:4;stroke-dasharray:11.99999996, 11.99999996;stroke-dashoffset:0" />
  <polygon
     points="63.0001,-133.747 56,-113.747 49.0001,-133.747 63.0001,-133.747 "
     id="polygon4316"
     style="fill:#000000;stroke:#000000"
     transform="translate(873.56777,794.961)" />
  <text
     sodipodi:linespacing="125%"
     id="text4318"
     y="249.22336"
     x="637.91974"
     style="font-size:44.79999924px;font-style:normal;font-variant:normal;font-weight:normal;font-stretch:normal;text-align:justify;line-height:125%;letter-spacing:0px;word-spacing:0px;text-anchor:start;fill:#000000;fill-opacity:1;stroke:none;font-family:Arial;-inkscape-font-specification:Arial"
     xml:space="preserve"><tspan
       y="249.22336"
       x="637.91974"
       id="tspan4320"
       sodipodi:role="line">a1</tspan></text>
  <text
     sodipodi:linespacing="125%"
     id="text4322"
     y="248.53607"
     x="790.46552"
     style="font-size:44.79999924px;font-style:normal;font-variant:normal;font-weight:normal;font-stretch:normal;text-align:justify;line-height:125%;letter-spacing:0px;word-spacing:0px;text-anchor:start;fill:#000000;fill-opacity:1;stroke:none;font-family:Arial;-inkscape-font-specification:Arial"
     xml:space="preserve"><tspan
       y="248.53607"
       x="790.46552"
       id="tspan4324"
       sodipodi:role="line">a2</tspan></text>
  <text
     xml:space="preserve"
     style="font-size:44.79999924px;font-style:normal;font-variant:normal;font-weight:normal;font-stretch:normal;text-align:justify;line-height:125%;letter-spacing:0px;word-spacing:0px;text-anchor:start;fill:#000000;fill-opacity:1;stroke:none;font-family:Arial;-inkscape-font-specification:Arial"
     x="637.91974"
     y="446.02411"
     id="text4326"
     sodipodi:linespacing="125%"><tspan
       sodipodi:role="line"
       id="tspan4328"
       x="637.91974"
       y="446.02411">a1</tspan></text>
  <text
     xml:space="preserve"
     style="font-size:44.79999924px;font-style:normal;font-variant:normal;font-weight:normal;font-stretch:normal;text-align:justify;line-height:125%;letter-spacing:0px;word-spacing:0px;text-anchor:start;fill:#000000;fill-opacity:1;stroke:none;font-family:Arial;-inkscape-font-specification:Arial"
     x="790.46552"
     y="446.93683"
     id="text4330"
     sodipodi:linespacing="125%"><tspan
       sodipodi:role="line"
       id="tspan4332"
       x="790.46552"
       y="446.93683">a2</tspan></text>
  <text
     xml:space="preserve"
     style="font-size:44.79999924px;font-style:normal;font-variant:normal;font-weight:normal;font-stretch:normal;text-align:justify;line-height:125%;letter-spacing:0px;word-spacing:0px;text-anchor:start;fill:#000000;fill-opacity:1;stroke:none;font-family:Arial;-inkscape-font-specification:Arial"
     x="942.46497"
     y="248.53607"
     id="text4334"
     sodipodi:linespacing="125%"><tspan
       sodipodi:role="line"
       id="tspan4336"
       x="942.46497"
       y="248.53607">a3</tspan></text>
  <text
     sodipodi:linespacing="125%"
     id="text4338"
     y="446.93683"
     x="942.46497"
     style="font-size:44.79999924px;font-style:normal;font-variant:normal;font-weight:normal;font-stretch:normal;text-align:justify;line-height:125%;letter-spacing:0px;word-spacing:0px;text-anchor:start;fill:#000000;fill-opacity:1;stroke:none;font-family:Arial;-inkscape-font-specification:Arial"
     xml:space="preserve"><tspan
       y="446.93683"
       x="942.46497"
       id="tspan4340"
       sodipodi:role="line">a3</tspan></text>
  <path
     style="fill:none;stroke:#000000;stroke-width:2.4000001;stroke-linecap:butt;stroke-linejoin:miter;stroke-miterlimit:4;stroke-opacity:1;stroke-dasharray:9.59999995, 9.59999995;stroke-dashoffset:0"
     d="m 451.78736,142.96448 82.25809,0"
     id="path4342"
     inkscape:connector-curvature="0" />
  <path
     inkscape:connector-curvature="0"
     id="path4344"
     d="m 451.78736,341.36448 82.25809,0"
     style="fill:none;stroke:#000000;stroke-width:2.4000001;stroke-linecap:butt;stroke-linejoin:miter;stroke-miterlimit:4;stroke-opacity:1;stroke-dasharray:9.59999995, 9.59999995;stroke-dashoffset:0" />
  <path
     style="fill:none;stroke:#000000;stroke-width:2.4000001;stroke-linecap:butt;stroke-linejoin:miter;stroke-miterlimit:4;stroke-opacity:1;stroke-dasharray:9.59999995, 9.59999995;stroke-dashoffset:0"
     d="m 451.78736,538.16448 82.25809,0"
     id="path4346"
     inkscape:connector-curvature="0" />
</svg>
