<?xml version="1.0" encoding="UTF-8" standalone="no"?>
<!-- Created with Inkscape (http://www.inkscape.org/) -->

<svg
   xmlns:dc="http://purl.org/dc/elements/1.1/"
   xmlns:cc="http://creativecommons.org/ns#"
   xmlns:rdf="http://www.w3.org/1999/02/22-rdf-syntax-ns#"
   xmlns:svg="http://www.w3.org/2000/svg"
   xmlns="http://www.w3.org/2000/svg"
   xmlns:sodipodi="http://sodipodi.sourceforge.net/DTD/sodipodi-0.dtd"
   xmlns:inkscape="http://www.inkscape.org/namespaces/inkscape"
   width="2017.156"
   height="514.745"
   id="svg2"
   version="1.1"
   inkscape:version="0.48.2 r9819"
   sodipodi:docname="faulty-broadcast-rules.svg">
  <defs
     id="defs4">
    <marker
       inkscape:stockid="Arrow1Lend"
       orient="auto"
       refY="0"
       refX="0"
       id="Arrow1Lend"
       style="overflow:visible">
      <path
         id="path4840"
         d="M 0,0 5,-5 -12.5,0 5,5 0,0 z"
         style="fill-rule:evenodd;stroke:#000000;stroke-width:1pt;marker-start:none"
         transform="matrix(-0.8,0,0,-0.8,-10,0)"
         inkscape:connector-curvature="0" />
    </marker>
  </defs>
  <sodipodi:namedview
     id="base"
     pagecolor="#ffffff"
     bordercolor="#666666"
     borderopacity="1.0"
     inkscape:pageopacity="0.0"
     inkscape:pageshadow="2"
     inkscape:zoom="0.5"
     inkscape:cx="981.65761"
     inkscape:cy="363.84351"
     inkscape:document-units="px"
     inkscape:current-layer="layer1"
     showgrid="false"
     fit-margin-top="0"
     fit-margin-left="0"
     fit-margin-right="0"
     fit-margin-bottom="0"
     inkscape:window-width="1680"
     inkscape:window-height="998"
     inkscape:window-x="-8"
     inkscape:window-y="-8"
     inkscape:window-maximized="1">
    <inkscape:grid
       type="xygrid"
       id="grid5281"
       empspacing="5"
       visible="true"
       enabled="true"
       snapvisiblegridlinesonly="true" />
  </sodipodi:namedview>
  <metadata
     id="metadata7">
    <rdf:RDF>
      <cc:Work
         rdf:about="">
        <dc:format>image/svg+xml</dc:format>
        <dc:type
           rdf:resource="http://purl.org/dc/dcmitype/StillImage" />
        <dc:title />
      </cc:Work>
    </rdf:RDF>
  </metadata>
  <g
     inkscape:label="Layer 1"
     inkscape:groupmode="layer"
     id="layer1"
     transform="translate(732.30284,-193.39331)">
    <path
       style="fill:none;stroke:#000000;stroke-width:7;stroke-miterlimit:4;stroke-opacity:1;stroke-dasharray:none"
       d="m 1073.5756,396.12518 0,33.125 -160.00007,0 0,40 160.00007,0 0,33.15625 53.125,-53.15625 -53.125,-53.125 z"
       id="rect5283"
       inkscape:connector-curvature="0" />
    <ellipse
       id="ellipse4126"
       ry="39.598"
       rx="39.096699"
       cy="-40"
       cx="39"
       sodipodi:cx="39"
       sodipodi:cy="-40"
       sodipodi:rx="39.096699"
       sodipodi:ry="39.598"
       style="fill:#000000;stroke:#000000;stroke-width:3"
       d="M 78.096699,-40 C 78.096699,-18.130629 60.59251,-0.40200043 39,-0.40200043 17.40749,-0.40200043 -0.09669876,-18.130629 -0.09669876,-40 -0.09669876,-61.869371 17.40749,-79.598 39,-79.598 60.59251,-79.598 78.096699,-61.869371 78.096699,-40 z"
       transform="matrix(1.25,0,0,1.25,1152.8221,601.76581)" />
    <text
       id="text4128"
       font-size="40.00"
       y="571.80878"
       x="1203.1307"
       style="font-size:56px;font-style:normal;font-variant:normal;font-weight:normal;font-stretch:normal;text-anchor:middle;fill:#ffffff;font-family:Arial;-inkscape-font-specification:Arial">vii</text>
    <ellipse
       id="ellipse4119"
       ry="39.598"
       rx="39.096699"
       cy="-204"
       cx="39"
       sodipodi:cx="39"
       sodipodi:cy="-204"
       sodipodi:rx="39.096699"
       sodipodi:ry="39.598"
       style="fill:#000000;stroke:#000000;stroke-width:3"
       d="M 78.096699,-204 C 78.096699,-182.13063 60.59251,-164.402 39,-164.402 17.40749,-164.402 -0.09669876,-182.13063 -0.09669876,-204 -0.09669876,-225.86937 17.40749,-243.598 39,-243.598 60.59251,-243.598 78.096699,-225.86937 78.096699,-204 z"
       transform="matrix(1.25,0,0,1.25,1152.8221,601.76581)" />
    <text
       id="text4121"
       font-size="40.00"
       y="366.80878"
       x="1203.1307"
       style="font-size:56px;font-style:normal;font-variant:normal;font-weight:normal;font-stretch:normal;text-anchor:middle;fill:#ffffff;font-family:Arial;-inkscape-font-specification:Arial">vi</text>
    <path
       id="path4133"
       d="m 1201.5721,396.39081 c 0,24.21 0,53.83875 0,80.70762"
       inkscape:connector-curvature="0"
       style="fill:none;stroke:#000000;stroke-width:3.75" />
    <polygon
       id="polygon4135"
       points="32.0001,-99.6182 46.0001,-99.6181 46.0001,-99.6181 39,-79.6181 "
       style="fill:#000000;stroke:#000000"
       transform="matrix(1.25,0,0,1.25,1152.8221,601.76581)" />
    <text
       xml:space="preserve"
       style="font-size:56px;font-style:normal;font-variant:normal;font-weight:normal;font-stretch:normal;text-align:justify;line-height:125%;letter-spacing:0px;word-spacing:0px;text-anchor:start;fill:#000000;fill-opacity:1;stroke:none;font-family:Arial;-inkscape-font-specification:Arial"
       x="1214.443"
       y="455.76581"
       id="text4426"
       sodipodi:linespacing="125%"><tspan
         sodipodi:role="line"
         id="tspan4428"
         x="1214.443"
         y="455.76581">a3'</tspan></text>
    <ellipse
       id="ellipse3967"
       ry="39.598"
       rx="39.096699"
       cy="-204"
       cx="39"
       sodipodi:cx="39"
       sodipodi:cy="-204"
       sodipodi:rx="39.096699"
       sodipodi:ry="39.598"
       style="fill:#000000;stroke:#000000;stroke-width:3"
       d="M 78.096699,-204 C 78.096699,-182.13063 60.59251,-164.402 39,-164.402 17.40749,-164.402 -0.09669876,-182.13063 -0.09669876,-204 -0.09669876,-225.86937 17.40749,-243.598 39,-243.598 60.59251,-243.598 78.096699,-225.86937 78.096699,-204 z"
       transform="matrix(1.25,0,0,1.25,764.44309,601.76581)" />
    <text
       id="text3969"
       font-size="40.00"
       y="366.80878"
       x="814.75171"
       style="font-size:56px;font-style:normal;font-variant:normal;font-weight:normal;font-stretch:normal;text-anchor:middle;fill:#ffffff;font-family:Arial;-inkscape-font-specification:Arial">vi</text>
    <ellipse
       id="ellipse3974"
       ry="39.598"
       rx="39.096699"
       cy="-40"
       cx="39"
       sodipodi:cx="39"
       sodipodi:cy="-40"
       sodipodi:rx="39.096699"
       sodipodi:ry="39.598"
       style="fill:#000000;stroke:#000000;stroke-width:3"
       d="M 78.096699,-40 C 78.096699,-18.130629 60.59251,-0.40200043 39,-0.40200043 17.40749,-0.40200043 -0.09669876,-18.130629 -0.09669876,-40 -0.09669876,-61.869371 17.40749,-79.598 39,-79.598 60.59251,-79.598 78.096699,-61.869371 78.096699,-40 z"
       transform="matrix(1.25,0,0,1.25,764.44309,601.76581)" />
    <text
       id="text3976"
       font-size="40.00"
       y="571.80878"
       x="814.75171"
       style="font-size:56px;font-style:normal;font-variant:normal;font-weight:normal;font-stretch:normal;text-anchor:middle;fill:#ffffff;font-family:Arial;-inkscape-font-specification:Arial">vii</text>
    <path
       id="path3981"
       d="m 813.19309,396.39081 c 0,24.21 0,53.83875 0,80.70762"
       inkscape:connector-curvature="0"
       style="fill:none;stroke:#000000;stroke-width:3.75" />
    <polygon
       id="polygon3983"
       points="32.0001,-99.6182 46.0001,-99.6181 46.0001,-99.6181 39,-79.6181 "
       style="fill:#000000;stroke:#000000"
       transform="matrix(1.25,0,0,1.25,764.44309,601.76581)" />
    <text
       xml:space="preserve"
       style="font-size:56px;font-style:normal;font-variant:normal;font-weight:normal;font-stretch:normal;text-align:justify;line-height:125%;letter-spacing:0px;word-spacing:0px;text-anchor:start;fill:#000000;fill-opacity:1;stroke:none;font-family:Arial;-inkscape-font-specification:Arial"
       x="826.44312"
       y="456.26581"
       id="text4430"
       sodipodi:linespacing="125%"><tspan
         sodipodi:role="line"
         id="tspan4432"
         x="826.44312"
         y="456.26581">a3</tspan></text>
    <ellipse
       id="ellipse3153"
       ry="39.598"
       rx="39.096699"
       cy="-204"
       cx="39"
       sodipodi:cx="39"
       sodipodi:cy="-204"
       sodipodi:rx="39.096699"
       sodipodi:ry="39.598"
       style="fill:#000000;stroke:#000000;stroke-width:3"
       d="M 78.096699,-204 C 78.096699,-182.13063 60.59251,-164.402 39,-164.402 17.40749,-164.402 -0.09669876,-182.13063 -0.09669876,-204 -0.09669876,-225.86937 17.40749,-243.598 39,-243.598 60.59251,-243.598 78.096699,-225.86937 78.096699,-204 z"
       transform="matrix(1.25,0,0,1.25,-730.30697,601.76581)" />
    <text
       id="text3155"
       font-size="40.00"
       y="366.80878"
       x="-681.50226"
       style="font-size:56px;font-style:normal;font-variant:normal;font-weight:normal;font-stretch:normal;text-anchor:middle;fill:#ffffff;font-family:Arial;-inkscape-font-specification:Arial">i</text>
    <ellipse
       id="ellipse3169"
       ry="39.598"
       rx="39.096699"
       cy="-40"
       cx="39"
       sodipodi:cx="39"
       sodipodi:cy="-40"
       sodipodi:rx="39.096699"
       sodipodi:ry="39.598"
       style="fill:#000000;stroke:#000000;stroke-width:3"
       d="M 78.096699,-40 C 78.096699,-18.130629 60.59251,-0.40200043 39,-0.40200043 17.40749,-0.40200043 -0.09669876,-18.130629 -0.09669876,-40 -0.09669876,-61.869371 17.40749,-79.598 39,-79.598 60.59251,-79.598 78.096699,-61.869371 78.096699,-40 z"
       transform="matrix(1.25,0,0,1.25,-730.30697,601.76581)" />
    <text
       id="text3171"
       font-size="40.00"
       y="571.80878"
       x="-681.50226"
       style="font-size:56px;font-style:normal;font-variant:normal;font-weight:normal;font-stretch:normal;text-anchor:middle;fill:#ffffff;font-family:Arial;-inkscape-font-specification:Arial">ii</text>
    <path
       id="path3176"
       d="m -681.55697,396.39081 c 0,24.21 0,53.83875 0,80.70762"
       inkscape:connector-curvature="0"
       style="fill:none;stroke:#000000;stroke-width:3.75" />
    <polygon
       id="polygon3178"
       points="39,-79.6181 32.0001,-99.6182 46.0001,-99.6181 46.0001,-99.6181 "
       style="fill:#000000;stroke:#000000"
       transform="matrix(1.25,0,0,1.25,-730.30697,601.76581)" />
    <text
       xml:space="preserve"
       style="font-size:56px;font-style:normal;font-variant:normal;font-weight:normal;font-stretch:normal;text-align:justify;line-height:125%;letter-spacing:0px;word-spacing:0px;text-anchor:start;fill:#000000;fill-opacity:1;stroke:none;font-family:Arial;-inkscape-font-specification:Arial"
       x="-667.27124"
       y="451.76581"
       id="text4336"
       sodipodi:linespacing="125%"><tspan
         sodipodi:role="line"
         id="tspan4338"
         x="-667.27124"
         y="451.76581">a1</tspan></text>
    <path
       inkscape:connector-curvature="0"
       id="path4591"
       d="m -413.1328,396.12518 0,33.125 -160,0 0,40 160,0 0,33.15625 53.125,-53.15625 -53.125,-53.125 z"
       style="fill:none;stroke:#000000;stroke-width:7;stroke-miterlimit:4;stroke-opacity:1;stroke-dasharray:none" />
    <ellipse
       id="ellipse3558"
       ry="39.598"
       rx="39.096699"
       cy="-204"
       cx="39"
       sodipodi:cx="39"
       sodipodi:cy="-204"
       sodipodi:rx="39.096699"
       sodipodi:ry="39.598"
       style="fill:#000000;stroke:#000000;stroke-width:3"
       d="M 78.096699,-204 C 78.096699,-182.13063 60.59251,-164.402 39,-164.402 17.40749,-164.402 -0.09669876,-182.13063 -0.09669876,-204 -0.09669876,-225.86937 17.40749,-243.598 39,-243.598 60.59251,-243.598 78.096699,-225.86937 78.096699,-204 z"
       transform="matrix(1.25,0,0,1.25,30.56803,601.76581)" />
    <text
       id="text3560"
       font-size="40.00"
       y="366.80878"
       x="79.372719"
       style="font-size:56px;font-style:normal;font-variant:normal;font-weight:normal;font-stretch:normal;text-anchor:middle;fill:#ffffff;font-family:Arial;-inkscape-font-specification:Arial">iii</text>
    <ellipse
       id="ellipse3565"
       ry="39.598"
       rx="39.096699"
       cy="-40"
       cx="39"
       sodipodi:cx="39"
       sodipodi:cy="-40"
       sodipodi:rx="39.096699"
       sodipodi:ry="39.598"
       style="fill:#000000;stroke:#000000;stroke-width:3"
       d="M 78.096699,-40 C 78.096699,-18.130629 60.59251,-0.40200043 39,-0.40200043 17.40749,-0.40200043 -0.09669876,-18.130629 -0.09669876,-40 -0.09669876,-61.869371 17.40749,-79.598 39,-79.598 60.59251,-79.598 78.096699,-61.869371 78.096699,-40 z"
       transform="matrix(1.25,0,0,1.25,30.56803,601.76581)" />
    <text
       id="text3567"
       font-size="40.00"
       y="571.80878"
       x="77.786781"
       style="font-size:56px;font-style:normal;font-variant:normal;font-weight:normal;font-stretch:normal;text-anchor:middle;fill:#ffffff;font-family:Arial;-inkscape-font-specification:Arial">iv</text>
    <path
       id="path3572"
       d="m 79.31803,396.39081 c 0,24.21 0,53.83875 0,80.70762"
       inkscape:connector-curvature="0"
       style="fill:none;stroke:#000000;stroke-width:3.75" />
    <polygon
       id="polygon3574"
       points="32.0001,-99.6182 46.0001,-99.6181 46.0001,-99.6181 39,-79.6181 "
       style="fill:#000000;stroke:#000000"
       transform="matrix(1.25,0,0,1.25,30.56803,601.76581)" />
    <text
       xml:space="preserve"
       style="font-size:56px;font-style:normal;font-variant:normal;font-weight:normal;font-stretch:normal;text-align:justify;line-height:125%;letter-spacing:0px;word-spacing:0px;text-anchor:start;fill:#000000;fill-opacity:1;stroke:none;font-family:Arial;-inkscape-font-specification:Arial"
       x="95.318016"
       y="458.39081"
       id="text4403"
       sodipodi:linespacing="125%"><tspan
         sodipodi:role="line"
         id="tspan4405"
         x="95.318016"
         y="458.39081">a2</tspan></text>
    <path
       style="fill:none;stroke:#000000;stroke-width:7;stroke-miterlimit:4;stroke-opacity:1;stroke-dasharray:none"
       d="m 346.12688,396.12518 0,33.125 -160,0 0,40 160,0 0,33.15625 53.125,-53.15625 -53.125,-53.125 z"
       id="path4593"
       inkscape:connector-curvature="0" />
    <ellipse
       transform="matrix(1.25,0,0,1.25,-332.30697,601.76581)"
       d="M 78.096699,-204 C 78.096699,-182.13063 60.59251,-164.402 39,-164.402 17.40749,-164.402 -0.09669876,-182.13063 -0.09669876,-204 -0.09669876,-225.86937 17.40749,-243.598 39,-243.598 60.59251,-243.598 78.096699,-225.86937 78.096699,-204 z"
       style="fill:#000000;stroke:#000000;stroke-width:3"
       sodipodi:ry="39.598"
       sodipodi:rx="39.096699"
       sodipodi:cy="-204"
       sodipodi:cx="39"
       cx="39"
       cy="-204"
       rx="39.096699"
       ry="39.598"
       id="ellipse3691" />
    <text
       style="font-size:56px;font-style:normal;font-variant:normal;font-weight:normal;font-stretch:normal;text-anchor:middle;fill:#ffffff;font-family:Arial;-inkscape-font-specification:Arial"
       x="-283.50229"
       y="366.80878"
       font-size="40.00"
       id="text3693">i</text>
    <ellipse
       transform="matrix(1.25,0,0,1.25,-332.30697,601.76581)"
       d="M 78.096699,-40 C 78.096699,-18.130629 60.59251,-0.40200043 39,-0.40200043 17.40749,-0.40200043 -0.09669876,-18.130629 -0.09669876,-40 -0.09669876,-61.869371 17.40749,-79.598 39,-79.598 60.59251,-79.598 78.096699,-61.869371 78.096699,-40 z"
       style="fill:#000000;stroke:#000000;stroke-width:3"
       sodipodi:ry="39.598"
       sodipodi:rx="39.096699"
       sodipodi:cy="-40"
       sodipodi:cx="39"
       cx="39"
       cy="-40"
       rx="39.096699"
       ry="39.598"
       id="ellipse3695" />
    <text
       style="font-size:56px;font-style:normal;font-variant:normal;font-weight:normal;font-stretch:normal;text-anchor:middle;fill:#ffffff;font-family:Arial;-inkscape-font-specification:Arial"
       x="-283.50229"
       y="571.80878"
       font-size="40.00"
       id="text3697">ii</text>
    <path
       style="fill:none;stroke:#000000;stroke-width:3.75"
       inkscape:connector-curvature="0"
       d="m -283.55697,396.39081 c 0,24.21 0,53.83875 0,80.70762"
       id="path3699" />
    <polygon
       transform="matrix(1.25,0,0,1.25,-332.30697,601.76581)"
       style="fill:#000000;stroke:#000000"
       points="46.0001,-99.6181 39,-79.6181 32.0001,-99.6182 46.0001,-99.6181 "
       id="polygon3701" />
    <text
       sodipodi:linespacing="125%"
       id="text3703"
       y="451.76581"
       x="-269.27124"
       style="font-size:56px;font-style:normal;font-variant:normal;font-weight:normal;font-stretch:normal;text-align:justify;line-height:125%;letter-spacing:0px;word-spacing:0px;text-anchor:start;fill:#000000;fill-opacity:1;stroke:none;font-family:Arial;-inkscape-font-specification:Arial"
       xml:space="preserve"><tspan
         y="451.76581"
         x="-269.27124"
         id="tspan3705"
         sodipodi:role="line">a1'</tspan></text>
    <ellipse
       id="ellipse3774"
       ry="39.598"
       rx="39.096699"
       cy="-40"
       cx="74.7033"
       sodipodi:cx="74.7033"
       sodipodi:cy="-40"
       sodipodi:rx="39.096699"
       sodipodi:ry="39.598"
       style="fill:#000000;stroke:#000000;stroke-width:3"
       d="M 113.8,-40 C 113.8,-18.130629 96.295811,-0.40200043 74.7033,-0.40200043 53.11079,-0.40200043 35.606602,-18.130629 35.606602,-40 35.606602,-61.869371 53.11079,-79.598 74.7033,-79.598 96.295811,-79.598 113.8,-61.869371 113.8,-40 z"
       transform="matrix(1.25,0,0,1.25,382.68898,706.76581)" />
    <text
       id="text3776"
       font-size="40.00"
       y="676.80878"
       x="474.53687"
       style="font-size:56px;font-style:normal;font-variant:normal;font-weight:normal;font-stretch:normal;text-anchor:middle;fill:#ffffff;font-family:Arial;-inkscape-font-specification:Arial">iv</text>
    <ellipse
       id="ellipse3790"
       ry="39.598"
       rx="39.096699"
       cy="-204"
       cx="74.7033"
       sodipodi:cx="74.7033"
       sodipodi:cy="-204"
       sodipodi:rx="39.096699"
       sodipodi:ry="39.598"
       style="fill:none;stroke:#000000;stroke-width:3"
       d="M 113.8,-204 C 113.8,-182.13063 96.295811,-164.402 74.7033,-164.402 53.11079,-164.402 35.606602,-182.13063 35.606602,-204 35.606602,-225.86937 53.11079,-243.598 74.7033,-243.598 96.295811,-243.598 113.8,-225.86937 113.8,-204 z"
       transform="matrix(1.25,0,0,1.25,382.68898,706.76581)" />
    <text
       id="text3792"
       font-size="40.00"
       y="471.53534"
       x="476.17749"
       style="font-size:56px;font-style:normal;font-variant:normal;font-weight:normal;font-stretch:normal;text-anchor:middle;font-family:Arial;-inkscape-font-specification:Arial">v</text>
    <path
       id="path3797"
       d="M 476.06811,296.39081 C 476.06811,320.60081 476.06811,350.22956 476.06811,377.09831"
       inkscape:connector-curvature="0"
       style="fill:none;stroke:#000000;stroke-width:3.75" />
    <polygon
       id="polygon3799"
       points="67.7034,-263.618 81.7034,-263.618 81.7034,-263.618 74.7033,-243.618 "
       style="fill:#000000;stroke:#000000"
       transform="matrix(1.25,0,0,1.25,382.68898,706.76581)" />
    <path
       id="path3806"
       d="M 476.06811,501.39081 C 476.06811,525.60081 476.06811,555.22956 476.06811,582.09843"
       inkscape:connector-curvature="0"
       style="fill:none;stroke:#000000;stroke-width:3.75" />
    <polygon
       id="polygon3808"
       points="67.7034,-99.6182 81.7034,-99.6181 81.7034,-99.6181 74.7033,-79.6181 "
       style="fill:#000000;stroke:#000000"
       transform="matrix(1.25,0,0,1.25,382.68898,706.76581)" />
    <text
       xml:space="preserve"
       style="font-size:56px;font-style:normal;font-variant:normal;font-weight:normal;font-stretch:normal;text-align:justify;line-height:125%;letter-spacing:0px;word-spacing:0px;text-anchor:start;fill:#000000;fill-opacity:1;stroke:none;font-family:Arial;-inkscape-font-specification:Arial"
       x="489.31808"
       y="358.26581"
       id="text4418"
       sodipodi:linespacing="125%"><tspan
         sodipodi:role="line"
         id="tspan4420"
         x="489.31808"
         y="358.26581">a2'</tspan></text>
    <text
       xml:space="preserve"
       style="font-size:56px;font-style:normal;font-variant:normal;font-weight:normal;font-stretch:normal;text-align:justify;line-height:125%;letter-spacing:0px;word-spacing:0px;text-anchor:start;fill:#000000;fill-opacity:1;stroke:none;font-family:Arial;-inkscape-font-specification:Arial"
       x="487.31808"
       y="560.26581"
       id="text4422"
       sodipodi:linespacing="125%"><tspan
         sodipodi:role="line"
         id="tspan4424"
         x="487.31808"
         y="560.26581">a2''</tspan></text>
    <ellipse
       transform="matrix(1.25,0,0,1.25,426.56803,499.76581)"
       d="M 78.096699,-204 C 78.096699,-182.13063 60.59251,-164.402 39,-164.402 17.40749,-164.402 -0.09669876,-182.13063 -0.09669876,-204 -0.09669876,-225.86937 17.40749,-243.598 39,-243.598 60.59251,-243.598 78.096699,-225.86937 78.096699,-204 z"
       style="fill:#000000;stroke:#000000;stroke-width:3"
       sodipodi:ry="39.598"
       sodipodi:rx="39.096699"
       sodipodi:cy="-204"
       sodipodi:cx="39"
       cx="39"
       cy="-204"
       rx="39.096699"
       ry="39.598"
       id="ellipse3707" />
    <text
       style="font-size:56px;font-style:normal;font-variant:normal;font-weight:normal;font-stretch:normal;text-anchor:middle;fill:#ffffff;font-family:Arial;-inkscape-font-specification:Arial"
       x="475.37271"
       y="264.80878"
       font-size="40.00"
       id="text3709">iii</text>
  </g>
</svg>
