<?xml version="1.0" encoding="UTF-8" standalone="no"?>
<!-- Generated by graphviz version 2.26.3 (20100126.1600)
 -->

<!-- Title: AR Pages: 1 -->

<svg
   xmlns:dc="http://purl.org/dc/elements/1.1/"
   xmlns:cc="http://creativecommons.org/ns#"
   xmlns:rdf="http://www.w3.org/1999/02/22-rdf-syntax-ns#"
   xmlns:svg="http://www.w3.org/2000/svg"
   xmlns="http://www.w3.org/2000/svg"
   xmlns:sodipodi="http://sodipodi.sourceforge.net/DTD/sodipodi-0.dtd"
   xmlns:inkscape="http://www.inkscape.org/namespaces/inkscape"
   width="1049.2911"
   height="442.90112"
   viewBox="0 0 839.43291 354.59138"
   id="svg2"
   version="1.1"
   inkscape:version="0.48.1 "
   sodipodi:docname="ABP.svg">
  <metadata
     id="metadata68">
    <rdf:RDF>
      <cc:Work
         rdf:about="">
        <dc:format>image/svg+xml</dc:format>
        <dc:type
           rdf:resource="http://purl.org/dc/dcmitype/StillImage" />
        <dc:title />
      </cc:Work>
    </rdf:RDF>
  </metadata>
  <defs
     id="defs66" />
  <sodipodi:namedview
     pagecolor="#ffffff"
     bordercolor="#666666"
     borderopacity="1"
     objecttolerance="10"
     gridtolerance="10"
     guidetolerance="10"
     inkscape:pageopacity="0"
     inkscape:pageshadow="2"
     inkscape:window-width="1680"
     inkscape:window-height="998"
     id="namedview64"
     showgrid="false"
     fit-margin-top="0"
     fit-margin-left="0"
     fit-margin-right="0"
     fit-margin-bottom="0"
     inkscape:zoom="0.6248086"
     inkscape:cx="504.53065"
     inkscape:cy="207.35754"
     inkscape:window-x="-8"
     inkscape:window-y="-8"
     inkscape:window-maximized="1"
     inkscape:current-layer="svg2" />
  <g
     id="g3735"
     transform="translate(-0.1952471,-32.024415)">
    <ellipse
       transform="translate(0.862019,388.21813)"
       style="fill:#000000;stroke:#000000"
       sodipodi:ry="7.1999998"
       sodipodi:rx="7.1999998"
       sodipodi:cy="-116.105"
       sodipodi:cx="57"
       d="m 64.2,-116.105 c 0,3.97645 -3.22355,7.2 -7.2,7.2 -3.97645,0 -7.2,-3.22355 -7.2,-7.2 0,-3.97645 3.22355,-7.2 7.2,-7.2 3.97645,0 7.2,3.22355 7.2,7.2 z"
       id="ellipse12"
       ry="7.1999998"
       rx="7.1999998"
       cy="-116.105"
       cx="57" />
    <polyline
       transform="translate(0.862019,377.00959)"
       style="fill:none;stroke:#000000"
       id="polyline17"
       points="11.5,-12.1047 102.5,-12.1047 " />
    <path
       style="fill:none;stroke:#000000"
       inkscape:connector-curvature="0"
       id="path19"
       d="m 103.36202,364.90489 c 6,0 12,-6 12,-12" />
    <polyline
       transform="translate(0.862019,377.00959)"
       style="fill:none;stroke:#000000"
       id="polyline21"
       points="114.5,-24.1047 114.5,-58.1047 " />
    <path
       style="fill:none;stroke:#000000"
       inkscape:connector-curvature="0"
       id="path23"
       d="m 115.36202,318.90489 c 0,-6 -6,-12 -12,-12" />
    <polyline
       transform="translate(0.862019,377.00959)"
       style="fill:none;stroke:#000000"
       id="polyline25"
       points="102.5,-70.1047 11.5,-70.1047 " />
    <path
       style="fill:none;stroke:#000000"
       inkscape:connector-curvature="0"
       id="path27"
       d="m 12.362019,306.90489 c -6,0 -12,6 -12,12" />
    <polyline
       transform="translate(0.862019,377.00959)"
       style="fill:none;stroke:#000000"
       id="polyline29"
       points="-0.5,-58.1047 -0.5,-24.1047 " />
    <path
       style="fill:none;stroke:#000000"
       inkscape:connector-curvature="0"
       id="path31"
       d="m 0.362019,352.90489 c 0,6 6,12 12,12" />
    <text
       style="font-size:14px;font-style:normal;font-variant:normal;font-weight:normal;font-stretch:normal;text-anchor:middle;font-family:Arial;-inkscape-font-specification:Arial"
       id="text33"
       font-size="14.00"
       y="340.50491"
       x="57.862026">AR</text>
    <path
       style="fill:none;stroke:#000000"
       inkscape:connector-curvature="0"
       id="path38"
       d="m 57.86202,268.37059 c 0,6.795 0,17.3863 0,28.1831" />
    <polygon
       transform="translate(0.862019,377.00959)"
       style="fill:#000000;stroke:#000000"
       id="polygon40"
       points="53.5001,-80.1587 60.5001,-80.1587 60.5001,-80.1587 57,-70.1587 " />
    <path
       style="fill:none;stroke:#000000"
       inkscape:connector-curvature="0"
       id="path45"
       d="m 115.40602,323.66269 c 10.278,0.5506 17.456,1.9626 17.456,4.2361 0,1.4209 -2.804,2.5053 -7.416,3.2532" />
    <polygon
       transform="translate(0.862019,369.00349)"
       style="fill:#000000;stroke:#000000"
       id="polygon47"
       points="124.838,-34.3597 124.838,-34.3597 114.544,-36.8687 124.156,-41.3264 " />
    <g
       transform="translate(-22.358524,222.99583)"
       id="g3116">
      <text
         x="256"
         y="74.600304"
         font-size="14.00"
         id="text49"
         style="font-size:14px;font-style:normal;font-variant:normal;font-weight:normal;font-stretch:normal;text-anchor:middle;font-family:Arial;-inkscape-font-specification:Arial"><tspan
   style="font-weight:bold"
   id="tspan3096">receive</tspan>
 Acknowledge([[b]]) <tspan
   style="font-weight:bold"
   id="tspan3098">from</tspan>
 AARAS;</text>
      <text
         x="256"
         y="90.600304"
         font-size="14.00"
         id="text51"
         style="font-size:14px;font-style:normal;font-variant:normal;font-weight:normal;font-stretch:normal;text-anchor:middle;font-family:Arial;-inkscape-font-specification:Arial"><tspan
   style="font-weight:bold"
   id="tspan3100">send</tspan>
 Acknowledge() <tspan
   style="font-weight:bold"
   id="tspan3102">to</tspan>
 AARSender;</text>
      <text
         x="256"
         y="106.6003"
         font-size="14.00"
         id="text53"
         style="font-size:14px;font-style:normal;font-variant:normal;font-weight:normal;font-stretch:normal;text-anchor:middle;font-family:Arial;-inkscape-font-specification:Arial">b := 1 - b</text>
    </g>
    <text
       style="font-size:14px;font-style:normal;font-variant:normal;font-weight:normal;font-stretch:normal;text-anchor:middle;font-family:Arial;-inkscape-font-specification:Arial"
       id="text62"
       font-size="14.00"
       y="383.66949"
       x="208.89275"><tspan
   id="tspan3104"
   style="font-weight:bold">receive</tspan>
 Acknowledge([[1 - b]]) <tspan
   id="tspan3106"
   style="font-weight:bold">from</tspan>
 AARAS</text>
    <g
       transform="matrix(0,1,-1,0,185.76138,308.23295)"
       id="g3112">
      <path
         style="fill:none;stroke:#000000"
         inkscape:connector-curvature="0"
         id="path3108"
         d="m 57.038261,121.48666 c 10.278,0.5506 17.456,1.9626 17.456,4.2361 0,1.4209 -2.804,2.5053 -7.416,3.2532" />
      <polygon
         transform="translate(-57.505739,166.82746)"
         style="fill:#000000;stroke:#000000"
         id="polygon3110"
         points="124.156,-41.3264 124.838,-34.3597 124.838,-34.3597 114.544,-36.8687 " />
    </g>
  </g>
  <g
     id="g3708"
     transform="translate(-79.624756,-23.939996)">
    <ellipse
       transform="matrix(1.0007634,0,0,1.0007634,531.39871,369.46073)"
       style="fill:#000000;stroke:#000000"
       sodipodi:ry="7.1999998"
       sodipodi:rx="7.1999998"
       sodipodi:cy="-105"
       sodipodi:cx="57"
       d="m 64.2,-105 c 0,3.97645 -3.22355,7.2 -7.2,7.2 -3.97645,0 -7.2,-3.22355 -7.2,-7.2 0,-3.97645 3.22355,-7.2 7.2,-7.2 3.97645,0 7.2,3.22355 7.2,7.2 z"
       id="ellipse12-7"
       ry="7.1999998"
       rx="7.1999998"
       cy="-105"
       cx="57" />
    <polyline
       transform="matrix(1.0007634,0,0,1.0007634,531.39871,358.25219)"
       style="fill:none;stroke:#000000"
       id="polyline17-4"
       points="11.5,-1 102.5,-1 " />
    <path
       style="fill:none;stroke:#000000;stroke-width:1.00076342"
       inkscape:connector-curvature="0"
       id="path19-0"
       d="m 633.97696,357.25142 c 6.00458,0 12.00916,-6.00458 12.00916,-12.00916" />
    <polyline
       transform="matrix(1.0007634,0,0,1.0007634,531.39871,358.25219)"
       style="fill:none;stroke:#000000"
       id="polyline21-9"
       points="114.5,-13 114.5,-47 " />
    <path
       style="fill:none;stroke:#000000;stroke-width:1.00076342"
       inkscape:connector-curvature="0"
       id="path23-4"
       d="m 645.98612,311.21631 c 0,-6.00459 -6.00458,-12.00917 -12.00916,-12.00917" />
    <polyline
       transform="matrix(1.0007634,0,0,1.0007634,531.39871,358.25219)"
       style="fill:none;stroke:#000000"
       id="polyline25-8"
       points="102.5,-59 11.5,-59 " />
    <path
       style="fill:none;stroke:#000000;stroke-width:1.00076342"
       inkscape:connector-curvature="0"
       id="path27-8"
       d="m 542.90749,299.20714 c -6.00458,0 -12.00916,6.00458 -12.00916,12.00917" />
    <polyline
       transform="matrix(1.0007634,0,0,1.0007634,531.39871,358.25219)"
       style="fill:none;stroke:#000000"
       id="polyline29-2"
       points="-0.5,-47 -0.5,-13 " />
    <path
       style="fill:none;stroke:#000000;stroke-width:1.00076342"
       inkscape:connector-curvature="0"
       id="path31-4"
       d="m 530.89833,345.24226 c 0,6.00458 6.00458,12.00916 12.00916,12.00916" />
    <text
       style="font-size:14.01068783px;font-style:normal;font-variant:normal;font-weight:normal;font-stretch:normal;text-anchor:middle;font-family:Arial;-inkscape-font-specification:Arial"
       id="text33-5"
       font-size="14.00"
       y="332.83279"
       x="588.4422">AS</text>
    <path
       style="fill:none;stroke:#000000;stroke-width:1.00076342"
       inkscape:connector-curvature="0"
       id="path38-5"
       d="m 588.44223,262.24445 c 0,6.80008 0,17.39987 0,28.20481" />
    <polygon
       transform="matrix(1.0007634,0,0,1.0007634,531.39871,358.25219)"
       style="fill:#000000;stroke:#000000"
       id="polygon40-1"
       points="53.5001,-69.054 60.5001,-69.0539 60.5001,-69.0539 57,-59.054 " />
    <g
       transform="matrix(1.0007634,0,0,1.0007634,527.39566,230.95508)"
       id="g3092">
      <path
         d="M 118.544,81.7639 C 128.822,82.3145 136,83.7266 136,86 c 0,1.4209 -2.804,2.5053 -7.416,3.2532"
         id="path45-7"
         inkscape:connector-curvature="0"
         style="fill:none;stroke:#000000" />
      <polygon
         points="114.544,-25.7639 124.156,-30.2217 124.838,-23.255 124.838,-23.255 "
         id="polygon47-1"
         style="fill:#000000;stroke:#000000"
         transform="translate(4,116)" />
    </g>
    <text
       style="font-size:14.01068783px;font-style:normal;font-variant:normal;font-weight:normal;font-stretch:normal;text-anchor:middle;font-family:Arial;-inkscape-font-specification:Arial"
       id="text49-1"
       font-size="14.00"
       y="303.91663"
       x="785.01178"><tspan
   id="tspan3102-5"
   style="font-weight:bold">receive</tspan>
 Acknowledge() <tspan
   id="tspan3104-2"
   style="font-weight:bold">from</tspan>
 AASReceiver;</text>
    <text
       style="font-size:14.01068783px;font-style:normal;font-variant:normal;font-weight:normal;font-stretch:normal;text-anchor:middle;font-family:Arial;-inkscape-font-specification:Arial"
       id="text51-7"
       font-size="14.00"
       y="319.92883"
       x="785.01178">b := 1 - b</text>
    <text
       style="font-size:14.01068783px;font-style:normal;font-variant:normal;font-weight:normal;font-stretch:normal;text-anchor:middle;font-family:Arial;-inkscape-font-specification:Arial"
       id="text60"
       font-size="14.00"
       y="375.58282"
       x="704.46173"><tspan
   id="tspan3106-6"
   style="font-weight:bold">send</tspan>
 Acknowledge(b) <tspan
   id="tspan3108"
   style="font-weight:bold">to</tspan>
 AASAR</text>
    <g
       transform="matrix(0,1.0007634,-1.0007634,0,675.08447,238.91351)"
       id="g3096">
      <path
         style="fill:none;stroke:#000000"
         inkscape:connector-curvature="0"
         id="path3098"
         d="M 118.544,81.7639 C 128.822,82.3145 136,83.7266 136,86 c 0,1.4209 -2.804,2.5053 -7.416,3.2532" />
      <polygon
         transform="translate(4,116)"
         style="fill:#000000;stroke:#000000"
         id="polygon3100"
         points="124.156,-30.2217 124.838,-23.255 124.838,-23.255 114.544,-25.7639 " />
    </g>
  </g>
  <g
     id="g3676"
     transform="translate(-101.84508,-9.6073198)">
    <ellipse
       transform="matrix(1.0007634,0,0,1.0007634,553.61904,206.83169)"
       style="fill:#000000;stroke:#000000"
       sodipodi:ry="7.1999998"
       sodipodi:rx="7.1999998"
       sodipodi:cy="-129.728"
       sodipodi:cx="57"
       d="m 64.2,-129.728 c 0,3.97645 -3.22355,7.2 -7.2,7.2 -3.97645,0 -7.2,-3.22355 -7.2,-7.2 0,-3.97645 3.22355,-7.2 7.2,-7.2 3.97645,0 7.2,3.22355 7.2,7.2 z"
       id="ellipse12-4"
       ry="7.1999998"
       rx="7.1999998"
       cy="-129.728"
       cx="57" />
    <polyline
       transform="matrix(1.0007634,0,0,1.0007634,553.61904,194.02193)"
       style="fill:none;stroke:#000000"
       id="polyline17-2"
       points="11.5,-23.7279 102.5,-23.7279 " />
    <path
       style="fill:none;stroke:#000000;stroke-width:1.00076342"
       inkscape:connector-curvature="0"
       id="path19-3"
       d="m 656.19729,170.27592 c 6.00458,0 12.00916,-6.00458 12.00916,-12.00917" />
    <polyline
       transform="matrix(1.0007634,0,0,1.0007634,553.61904,194.02193)"
       style="fill:none;stroke:#000000"
       id="polyline21-2"
       points="114.5,-35.7279 114.5,-69.7279 " />
    <path
       style="fill:none;stroke:#000000;stroke-width:1.00076342"
       inkscape:connector-curvature="0"
       id="path23-2"
       d="m 668.20645,124.2408 c 0,-6.00458 -6.00458,-12.00916 -12.00916,-12.00916" />
    <polyline
       transform="matrix(1.0007634,0,0,1.0007634,553.61904,194.02193)"
       style="fill:none;stroke:#000000"
       id="polyline25-1"
       points="102.5,-81.7279 11.5,-81.7279 " />
    <path
       style="fill:none;stroke:#000000;stroke-width:1.00076342"
       inkscape:connector-curvature="0"
       id="path27-6"
       d="m 565.12782,112.23164 c -6.00458,0 -12.00916,6.00458 -12.00916,12.00916" />
    <polyline
       transform="matrix(1.0007634,0,0,1.0007634,553.61904,194.02193)"
       style="fill:none;stroke:#000000"
       id="polyline29-8"
       points="-0.5,-69.7279 -0.5,-35.7279 " />
    <path
       style="fill:none;stroke:#000000;stroke-width:1.00076342"
       inkscape:connector-curvature="0"
       id="path31-5"
       d="m 553.11866,158.26675 c 0,6.00459 6.00458,12.00917 12.00916,12.00917" />
    <text
       style="font-size:14.01068783px;font-style:normal;font-variant:normal;font-weight:normal;font-stretch:normal;text-anchor:middle;font-family:Arial;-inkscape-font-specification:Arial"
       id="text33-7"
       font-size="14.00"
       y="145.85728"
       x="610.66254">Receiver</text>
    <path
       style="fill:none;stroke:#000000;stroke-width:1.00076342"
       inkscape:connector-curvature="0"
       id="path38-6"
       d="m 610.66256,71.583528 c 0,7.167468 0,18.629211 0,30.203442" />
    <polygon
       transform="matrix(1.0007634,0,0,1.0007634,553.61904,194.02193)"
       style="fill:#000000;stroke:#000000"
       id="polygon40-18"
       points="60.5001,-92.0768 60.5001,-92.0768 57,-82.0769 53.5001,-92.0769 " />
    <path
       style="fill:none;stroke:#000000;stroke-width:1.00076342"
       inkscape:connector-curvature="0"
       id="path45-9"
       d="m 668.25049,128.83171 c 10.28584,0.57393 17.46932,2.04596 17.46932,4.41596 0,1.48123 -2.80614,2.6117 -7.42166,3.39129" />
    <polygon
       transform="matrix(1.0007634,0,0,1.0007634,553.61904,186.01583)"
       style="fill:#000000;stroke:#000000"
       id="polygon47-2"
       points="124.848,-45.848 114.544,-48.3154 124.138,-52.8119 124.848,-45.848 " />
    <text
       style="font-size:14.01068783px;font-style:normal;font-variant:normal;font-weight:normal;font-stretch:normal;text-anchor:middle;font-family:Arial;-inkscape-font-specification:Arial"
       id="text49-7"
       font-size="14.00"
       y="90.130966"
       x="770.63922"><tspan
   id="tspan3100-9"
   style="font-weight:bold">receive</tspan>
 Message(d, [[r]]) <tspan
   id="tspan3102-54"
   style="font-weight:bold">from</tspan>
 ARSender;</text>
    <text
       style="font-size:14.01068783px;font-style:normal;font-variant:normal;font-weight:normal;font-stretch:normal;text-anchor:middle;font-family:Arial;-inkscape-font-specification:Arial"
       id="text51-3"
       font-size="14.00"
       y="106.14314"
       x="770.63922"><tspan
   id="tspan3104-1"
   style="font-weight:bold">send</tspan>
 Signal(d) <tspan
   id="tspan3108-2"
   style="font-weight:bold">to</tspan>
 AROriginal;</text>
    <text
       style="font-size:14.01068783px;font-style:normal;font-variant:normal;font-weight:normal;font-stretch:normal;text-anchor:middle;font-family:Arial;-inkscape-font-specification:Arial"
       id="text53-3"
       font-size="14.00"
       y="122.15531"
       x="770.63922"><tspan
   id="tspan3106-3"
   style="font-weight:bold">send</tspan>
 Acknowledge() <tspan
   id="tspan3110"
   style="font-weight:bold">to</tspan>
 ARAS;</text>
    <text
       style="font-size:14.01068783px;font-style:normal;font-variant:normal;font-weight:normal;font-stretch:normal;text-anchor:middle;font-family:Arial;-inkscape-font-specification:Arial"
       id="text55"
       font-size="14.00"
       y="138.16753"
       x="770.63922">r := 1 - r</text>
    <text
       style="font-size:14.01068783px;font-style:normal;font-variant:normal;font-weight:normal;font-stretch:normal;text-anchor:middle;font-family:Arial;-inkscape-font-specification:Arial"
       id="text64"
       font-size="14.00"
       y="187.26849"
       x="759.65979"><tspan
   id="tspan3112"
   style="font-weight:bold">receive</tspan>
 Message(d, [[1 - r]]) <tspan
   id="tspan3114"
   style="font-weight:bold">from</tspan>
 ARSender</text>
    <g
       transform="matrix(0,1.0007634,-1.0007634,0,741.97436,117.95157)"
       id="g3120">
      <path
         style="fill:none;stroke:#000000"
         inkscape:connector-curvature="0"
         id="path3116"
         d="m 52.983216,126.45417 c 10.278,0.5735 17.456,2.0444 17.456,4.4126 0,1.4801 -2.804,2.6097 -7.416,3.3887" />
      <polygon
         transform="translate(-61.560784,183.59467)"
         style="fill:#000000;stroke:#000000"
         id="polygon3118"
         points="124.848,-45.848 124.848,-45.848 114.544,-48.3154 124.138,-52.8119 " />
    </g>
  </g>
  <g
     id="g3802"
     transform="translate(0.43629753,-9.6073198)">
    <ellipse
       transform="matrix(1.0007634,0,0,1.0007634,28.026752,250.49107)"
       style="fill:#000000;stroke:#000000"
       sodipodi:ry="7.1999998"
       sodipodi:rx="7.1999998"
       sodipodi:cy="-233"
       sodipodi:cx="110.765"
       d="m 117.965,-233 c 0,3.97645 -3.22355,7.2 -7.2,7.2 -3.97645,0 -7.2,-3.22355 -7.2,-7.2 0,-3.97645 3.22355,-7.2 7.2,-7.2 3.97645,0 7.2,3.22355 7.2,7.2 z"
       id="ellipse12-1"
       ry="7.1999998"
       rx="7.1999998"
       cy="-233"
       cx="110.765" />
    <polyline
       transform="matrix(1.0007634,0,0,1.0007634,28.026752,240.88375)"
       style="fill:none;stroke:#000000"
       id="polyline17-1"
       points="65.2651,-129 156.265,-129 " />
    <path
       style="fill:none;stroke:#000000;stroke-width:1.00076342"
       inkscape:connector-curvature="0"
       id="path19-38"
       d="m 184.41105,111.78527 c 6.00458,0 12.00916,-6.00458 12.00916,-12.009159" />
    <polyline
       transform="matrix(1.0007634,0,0,1.0007634,28.026752,240.88375)"
       style="fill:none;stroke:#000000"
       id="polyline21-7"
       points="168.265,-141 168.265,-175 " />
    <path
       style="fill:none;stroke:#000000;stroke-width:1.00076342"
       inkscape:connector-curvature="0"
       id="path23-42"
       d="m 196.42021,65.750155 c 0,-6.00458 -6.00458,-12.009161 -12.00916,-12.009161" />
    <polyline
       transform="matrix(1.0007634,0,0,1.0007634,28.026752,240.88375)"
       style="fill:none;stroke:#000000"
       id="polyline25-7"
       points="156.265,-187 65.2651,-187 " />
    <path
       style="fill:none;stroke:#000000;stroke-width:1.00076342"
       inkscape:connector-curvature="0"
       id="path27-7"
       d="m 93.341675,53.740994 c -6.00458,0 -12.009161,6.004581 -12.009161,12.009161" />
    <polyline
       transform="matrix(1.0007634,0,0,1.0007634,28.026752,240.88375)"
       style="fill:none;stroke:#000000"
       id="polyline29-9"
       points="53.2651,-175 53.2651,-141 " />
    <path
       style="fill:none;stroke:#000000;stroke-width:1.00076342"
       inkscape:connector-curvature="0"
       id="path31-3"
       d="m 81.332514,99.776111 c 0,6.004579 6.004581,12.009159 12.009161,12.009159" />
    <text
       style="font-size:14.01068783px;font-style:normal;font-variant:normal;font-weight:normal;font-stretch:normal;text-anchor:middle;font-family:Arial;-inkscape-font-specification:Arial"
       id="text33-1"
       font-size="14.00"
       y="87.366646"
       x="138.8763">Sender0</text>
    <path
       style="fill:none;stroke:#000000;stroke-width:1.00076342"
       inkscape:connector-curvature="0"
       id="path38-9"
       d="m 138.87631,15.176577 c 0,6.800187 0,17.400273 0,28.205515" />
    <polygon
       transform="matrix(1.0007634,0,0,1.0007634,28.026752,240.88375)"
       style="fill:#000000;stroke:#000000"
       id="polygon40-8"
       points="110.765,-187.054 107.265,-197.054 114.265,-197.054 114.265,-197.054 " />
    <polyline
       transform="matrix(1.0007634,0,0,1.0007634,28.026752,223.27033)"
       style="fill:none;stroke:#000000"
       id="polyline45"
       points="65.2651,-1 156.265,-1 " />
    <path
       style="fill:none;stroke:#000000;stroke-width:1.00076342"
       inkscape:connector-curvature="0"
       id="path47"
       d="m 184.41105,222.26957 c 6.00458,0 12.00916,-6.00458 12.00916,-12.00916" />
    <polyline
       transform="matrix(1.0007634,0,0,1.0007634,28.026752,223.27033)"
       style="fill:none;stroke:#000000"
       id="polyline49"
       points="168.265,-13 168.265,-47 " />
    <path
       style="fill:none;stroke:#000000;stroke-width:1.00076342"
       inkscape:connector-curvature="0"
       id="path51"
       d="m 196.42021,176.23445 c 0,-6.00458 -6.00458,-12.00916 -12.00916,-12.00916" />
    <polyline
       transform="matrix(1.0007634,0,0,1.0007634,28.026752,223.27033)"
       style="fill:none;stroke:#000000"
       id="polyline53"
       points="156.265,-59 65.2651,-59 " />
    <path
       style="fill:none;stroke:#000000;stroke-width:1.00076342"
       inkscape:connector-curvature="0"
       id="path55"
       d="m 93.341675,164.22529 c -6.00458,0 -12.009161,6.00458 -12.009161,12.00916" />
    <polyline
       transform="matrix(1.0007634,0,0,1.0007634,28.026752,223.27033)"
       style="fill:none;stroke:#000000"
       id="polyline57"
       points="53.2651,-47 53.2651,-13 " />
    <path
       style="fill:none;stroke:#000000;stroke-width:1.00076342"
       inkscape:connector-curvature="0"
       id="path59"
       d="m 81.332514,210.26041 c 0,6.00458 6.004581,12.00916 12.009161,12.00916" />
    <text
       style="font-size:14.01068783px;font-style:normal;font-variant:normal;font-weight:normal;font-stretch:normal;text-anchor:middle;font-family:Arial;-inkscape-font-specification:Arial"
       id="text61"
       font-size="14.00"
       y="197.85086"
       x="138.8763">Sender1</text>
    <path
       sodipodi:nodetypes="cc"
       style="fill:none;stroke:#000000;stroke-width:1.00076342"
       inkscape:connector-curvature="0"
       id="path66"
       d="M 81.173093,95.844111 C -27.12469,105.67271 -24.518049,164.61465 71.771321,176.12154" />
    <polygon
       transform="matrix(1.0007634,0,0,1.0007634,28.026752,223.27033)"
       style="fill:#000000;stroke:#000000"
       id="polygon68"
       points="45.3033,-50.238 53.1058,-43.0705 42.5367,-43.8079 45.3033,-50.238 " />
    <text
       style="font-size:14.01068783px;font-style:normal;font-variant:normal;font-weight:normal;font-stretch:normal;text-anchor:middle;font-family:Arial;-inkscape-font-specification:Arial"
       id="text70"
       font-size="14.00"
       y="140.90631"
       x="114.63255"><tspan
   id="tspan3150"
   style="font-weight:bold">receive</tspan>
 Signal(d) <tspan
   id="tspan3152"
   style="font-weight:bold">from</tspan>
 ASOriginal</text>
    <path
       sodipodi:nodetypes="cc"
       style="fill:none;stroke:#000000;stroke-width:1.00076342"
       inkscape:connector-curvature="0"
       id="path75"
       d="m 196.69942,176.39341 c 51.33418,-12.33978 53.66953,-54.96941 8.42142,-66.21637" />
    <polygon
       transform="matrix(1.0007634,0,0,1.0007634,28.026752,240.88375)"
       style="fill:#000000;stroke:#000000"
       id="polygon77"
       points="168.544,-136.408 178.763,-133.614 174.79,-127.85 174.79,-127.85 " />
    <text
       style="font-size:14.01068783px;font-style:normal;font-variant:normal;font-weight:normal;font-stretch:normal;text-anchor:middle;font-family:Arial;-inkscape-font-specification:Arial"
       id="text79"
       font-size="14.00"
       y="97.686211"
       x="319.35742"><tspan
   id="tspan3154"
   style="font-weight:bold">receive</tspan>
 Acknowledge() <tspan
   id="tspan3156"
   style="font-weight:bold">from</tspan>
 ASAR;</text>
    <text
       style="font-size:14.01068783px;font-style:normal;font-variant:normal;font-weight:normal;font-stretch:normal;text-anchor:middle;font-family:Arial;-inkscape-font-specification:Arial"
       id="text81"
       font-size="14.00"
       y="113.69842"
       x="319.35742">s := 1 - s</text>
    <path
       style="fill:none;stroke:#000000;stroke-width:1.00076342"
       inkscape:connector-curvature="0"
       id="path86"
       d="m 196.46524,181.9427 c 10.28485,1.46933 17.46833,5.2376 17.46833,11.30473 0,3.88676 -2.94825,6.83001 -7.77093,8.82993" />
    <polygon
       transform="matrix(1.0007634,0,0,1.0007634,28.026752,223.27033)"
       style="fill:#000000;stroke:#000000"
       id="polygon88"
       points="178.865,-17.7855 168.31,-18.7039 177.134,-24.5681 178.865,-17.7855 " />
    <text
       style="font-size:14.01068783px;font-style:normal;font-variant:normal;font-weight:normal;font-stretch:normal;text-anchor:middle;font-family:Arial;-inkscape-font-specification:Arial"
       id="text90"
       font-size="14.00"
       y="197.85086"
       x="333.9252"><tspan
   id="tspan3158"
   style="font-weight:bold">send</tspan>
 Message(d, s) <tspan
   id="tspan3160"
   style="font-weight:bold">to</tspan>
 ASReceiver</text>
  </g>
</svg>
