<?xml version="1.0" encoding="UTF-8" standalone="no"?>
<!-- Generated by graphviz version 2.26.3 (20100126.1600)
 -->

<!-- Title: AR Pages: 1 -->

<svg
   xmlns:dc="http://purl.org/dc/elements/1.1/"
   xmlns:cc="http://creativecommons.org/ns#"
   xmlns:rdf="http://www.w3.org/1999/02/22-rdf-syntax-ns#"
   xmlns:svg="http://www.w3.org/2000/svg"
   xmlns="http://www.w3.org/2000/svg"
   xmlns:sodipodi="http://sodipodi.sourceforge.net/DTD/sodipodi-0.dtd"
   xmlns:inkscape="http://www.inkscape.org/namespaces/inkscape"
   width="451.88303"
   height="184.74425"
   viewBox="0 0 361.50642 147.90822"
   id="svg2"
   version="1.1"
   inkscape:version="0.48.1 "
   sodipodi:docname="ABP_AR_AR.svg">
  <metadata
     id="metadata68">
    <rdf:RDF>
      <cc:Work
         rdf:about="">
        <dc:format>image/svg+xml</dc:format>
        <dc:type
           rdf:resource="http://purl.org/dc/dcmitype/StillImage" />
      </cc:Work>
    </rdf:RDF>
  </metadata>
  <defs
     id="defs66" />
  <sodipodi:namedview
     pagecolor="#ffffff"
     bordercolor="#666666"
     borderopacity="1"
     objecttolerance="10"
     gridtolerance="10"
     guidetolerance="10"
     inkscape:pageopacity="0"
     inkscape:pageshadow="2"
     inkscape:window-width="1680"
     inkscape:window-height="998"
     id="namedview64"
     showgrid="false"
     fit-margin-top="0"
     fit-margin-left="0"
     fit-margin-right="0"
     fit-margin-bottom="0"
     inkscape:zoom="1.2496172"
     inkscape:cx="450.26569"
     inkscape:cy="154.8882"
     inkscape:window-x="-8"
     inkscape:window-y="-8"
     inkscape:window-maximized="1"
     inkscape:current-layer="svg2" />
  <ellipse
     cx="57"
     cy="-116.105"
     rx="7.1999998"
     ry="7.1999998"
     id="ellipse12"
     d="m 64.2,-116.105 c 0,3.97645 -3.22355,7.2 -7.2,7.2 -3.97645,0 -7.2,-3.22355 -7.2,-7.2 0,-3.97645 3.22355,-7.2 7.2,-7.2 3.97645,0 7.2,3.22355 7.2,7.2 z"
     sodipodi:cx="57"
     sodipodi:cy="-116.105"
     sodipodi:rx="7.1999998"
     sodipodi:ry="7.1999998"
     style="fill:#000000;stroke:#000000"
     transform="translate(0.75076336,123.805)" />
  <polyline
     points="11.5,-12.1047 102.5,-12.1047 "
     id="polyline17"
     style="fill:none;stroke:#000000"
     transform="translate(0.75076336,123.805)" />
  <path
     d="m 103.25076,111.7003 c 6,0 12,-6 12,-11.999997"
     id="path19"
     inkscape:connector-curvature="0"
     style="fill:none;stroke:#000000" />
  <polyline
     points="114.5,-24.1047 114.5,-58.1047 "
     id="polyline21"
     style="fill:none;stroke:#000000"
     transform="translate(0.75076336,123.805)" />
  <path
     d="m 115.25076,65.700303 c 0,-6 -6,-12 -12,-12"
     id="path23"
     inkscape:connector-curvature="0"
     style="fill:none;stroke:#000000" />
  <polyline
     points="102.5,-70.1047 11.5,-70.1047 "
     id="polyline25"
     style="fill:none;stroke:#000000"
     transform="translate(0.75076336,123.805)" />
  <path
     d="m 12.250763,53.700303 c -5.9999996,0 -11.99999964,6 -11.99999964,12"
     id="path27"
     inkscape:connector-curvature="0"
     style="fill:none;stroke:#000000" />
  <polyline
     points="-0.5,-58.1047 -0.5,-24.1047 "
     id="polyline29"
     style="fill:none;stroke:#000000"
     transform="translate(0.75076336,123.805)" />
  <path
     d="m 0.25076336,99.700303 c 0,5.999997 6.00000004,11.999997 11.99999964,11.999997"
     id="path31"
     inkscape:connector-curvature="0"
     style="fill:none;stroke:#000000" />
  <text
     x="57.750763"
     y="87.300308"
     font-size="14.00"
     id="text33"
     style="font-size:14px;font-style:normal;font-variant:normal;font-weight:normal;font-stretch:normal;text-anchor:middle;font-family:Arial;-inkscape-font-specification:Arial">AR</text>
  <path
     d="m 57.750763,15.166003 c 0,6.795 0,17.3863 0,28.1831"
     id="path38"
     inkscape:connector-curvature="0"
     style="fill:none;stroke:#000000" />
  <polygon
     points="60.5001,-80.1587 60.5001,-80.1587 57,-70.1587 53.5001,-80.1587 "
     id="polygon40"
     style="fill:#000000;stroke:#000000"
     transform="translate(0.75076336,123.805)" />
  <path
     d="m 115.29476,70.458098 c 10.278,0.5506 17.456,1.9626 17.456,4.2361 0,1.4209 -2.804,2.5053 -7.416,3.2532"
     id="path45"
     inkscape:connector-curvature="0"
     style="fill:none;stroke:#000000" />
  <polygon
     points="124.838,-34.3597 114.544,-36.8687 124.156,-41.3264 124.838,-34.3597 "
     id="polygon47"
     style="fill:#000000;stroke:#000000"
     transform="translate(0.75076336,115.7989)" />
  <g
     id="g3116"
     transform="translate(-22.46978,-30.208758)">
    <text
       style="font-size:14px;font-style:normal;font-variant:normal;font-weight:normal;font-stretch:normal;text-anchor:middle;font-family:Arial;-inkscape-font-specification:Arial"
       id="text49"
       font-size="14.00"
       y="74.600304"
       x="256"><tspan
   id="tspan3096"
   style="font-weight:bold">receive</tspan>

 Acknowledge([[b]]) <tspan
   id="tspan3098"
   style="font-weight:bold">from</tspan>

 AARAS;</text>
    <text
       style="font-size:14px;font-style:normal;font-variant:normal;font-weight:normal;font-stretch:normal;text-anchor:middle;font-family:Arial;-inkscape-font-specification:Arial"
       id="text51"
       font-size="14.00"
       y="90.600304"
       x="256"><tspan
   id="tspan3100"
   style="font-weight:bold">send</tspan>

 Acknowledge() <tspan
   id="tspan3102"
   style="font-weight:bold">to</tspan>

 AARSender;</text>
    <text
       style="font-size:14px;font-style:normal;font-variant:normal;font-weight:normal;font-stretch:normal;text-anchor:middle;font-family:Arial;-inkscape-font-specification:Arial"
       id="text53"
       font-size="14.00"
       y="106.6003"
       x="256">b := 1 - b</text>
  </g>
  <text
     x="140.8266"
     y="144.96193"
     font-size="14.00"
     id="text62"
     style="font-size:14px;font-style:normal;font-variant:normal;font-weight:normal;font-stretch:normal;text-anchor:middle;font-family:Arial;-inkscape-font-specification:Arial"><tspan
   style="font-weight:bold"
   id="tspan3104">receive</tspan>

 Acknowledge([[1 - b]]) <tspan
   style="font-weight:bold"
   id="tspan3106">from</tspan>

 AARAS</text>
  <g
     id="g3112"
     transform="matrix(0,1,-1,0,185.65012,55.028361)">
    <path
       d="m 57.038261,121.48666 c 10.278,0.5506 17.456,1.9626 17.456,4.2361 0,1.4209 -2.804,2.5053 -7.416,3.2532"
       id="path3108"
       inkscape:connector-curvature="0"
       style="fill:none;stroke:#000000" />
    <polygon
       points="124.838,-34.3597 124.838,-34.3597 114.544,-36.8687 124.156,-41.3264 "
       id="polygon3110"
       style="fill:#000000;stroke:#000000"
       transform="translate(-57.505739,166.82746)" />
  </g>
</svg>
