<?xml version="1.0" encoding="UTF-8" standalone="no"?>
<!-- Generated by graphviz version 2.26.3 (20100126.1600)
 -->

<!-- Title: Receiver Pages: 1 -->

<svg
   xmlns:dc="http://purl.org/dc/elements/1.1/"
   xmlns:cc="http://creativecommons.org/ns#"
   xmlns:rdf="http://www.w3.org/1999/02/22-rdf-syntax-ns#"
   xmlns:svg="http://www.w3.org/2000/svg"
   xmlns="http://www.w3.org/2000/svg"
   xmlns:sodipodi="http://sodipodi.sourceforge.net/DTD/sodipodi-0.dtd"
   xmlns:inkscape="http://www.inkscape.org/namespaces/inkscape"
   width="475.05981"
   height="187.01508"
   viewBox="0 0 380.04785 149.33347"
   id="svg2"
   version="1.1"
   inkscape:version="0.48.1 "
   sodipodi:docname="ABP_Receiver_Receiver.svg">
  <metadata
     id="metadata70">
    <rdf:RDF>
      <cc:Work
         rdf:about="">
        <dc:format>image/svg+xml</dc:format>
        <dc:type
           rdf:resource="http://purl.org/dc/dcmitype/StillImage" />
      </cc:Work>
    </rdf:RDF>
  </metadata>
  <defs
     id="defs68" />
  <sodipodi:namedview
     pagecolor="#ffffff"
     bordercolor="#666666"
     borderopacity="1"
     objecttolerance="10"
     gridtolerance="10"
     guidetolerance="10"
     inkscape:pageopacity="0"
     inkscape:pageshadow="2"
     inkscape:window-width="1680"
     inkscape:window-height="998"
     id="namedview66"
     showgrid="false"
     fit-margin-top="0"
     fit-margin-left="0"
     fit-margin-right="0"
     fit-margin-bottom="0"
     inkscape:zoom="1.2690513"
     inkscape:cx="298.04393"
     inkscape:cy="70.340812"
     inkscape:window-x="-8"
     inkscape:window-y="-8"
     inkscape:window-maximized="1"
     inkscape:current-layer="svg2" />
  <ellipse
     cx="57"
     cy="-129.728"
     rx="7.1999998"
     ry="7.1999998"
     id="ellipse12"
     d="m 64.2,-129.728 c 0,3.97645 -3.22355,7.2 -7.2,7.2 -3.97645,0 -7.2,-3.22355 -7.2,-7.2 0,-3.97645 3.22355,-7.2 7.2,-7.2 3.97645,0 7.2,3.22355 7.2,7.2 z"
     sodipodi:cx="57"
     sodipodi:cy="-129.728"
     sodipodi:rx="7.1999998"
     sodipodi:ry="7.1999998"
     style="fill:#000000;stroke:#000000"
     transform="translate(1,137.293)" />
  <polyline
     points="11.5,-23.7279 102.5,-23.7279 "
     id="polyline17"
     style="fill:none;stroke:#000000"
     transform="translate(1,137.293)" />
  <path
     d="m 103.5,113.5651 c 6,0 12,-6 12,-12"
     id="path19"
     inkscape:connector-curvature="0"
     style="fill:none;stroke:#000000" />
  <polyline
     points="114.5,-35.7279 114.5,-69.7279 "
     id="polyline21"
     style="fill:none;stroke:#000000"
     transform="translate(1,137.293)" />
  <path
     d="m 115.5,67.565097 c 0,-6 -6,-12 -12,-12"
     id="path23"
     inkscape:connector-curvature="0"
     style="fill:none;stroke:#000000" />
  <polyline
     points="102.5,-81.7279 11.5,-81.7279 "
     id="polyline25"
     style="fill:none;stroke:#000000"
     transform="translate(1,137.293)" />
  <path
     d="m 12.5,55.565097 c -6,0 -12,6 -12,12"
     id="path27"
     inkscape:connector-curvature="0"
     style="fill:none;stroke:#000000" />
  <polyline
     points="-0.5,-69.7279 -0.5,-35.7279 "
     id="polyline29"
     style="fill:none;stroke:#000000"
     transform="translate(1,137.293)" />
  <path
     d="m 0.5,101.5651 c 0,6 6,12 12,12"
     id="path31"
     inkscape:connector-curvature="0"
     style="fill:none;stroke:#000000" />
  <text
     x="58"
     y="89.165092"
     font-size="14.00"
     id="text33"
     style="font-size:14px;font-style:normal;font-variant:normal;font-weight:normal;font-stretch:normal;text-anchor:middle;font-family:Arial;-inkscape-font-specification:Arial">Receiver</text>
  <path
     d="m 58,14.947997 c 0,7.162 0,18.615 0,30.1804"
     id="path38"
     inkscape:connector-curvature="0"
     style="fill:none;stroke:#000000" />
  <polygon
     points="60.5001,-92.0768 60.5001,-92.0768 57,-82.0769 53.5001,-92.0769 "
     id="polygon40"
     style="fill:#000000;stroke:#000000"
     transform="translate(1,137.293)" />
  <path
     d="m 115.544,80.152497 c 10.278,0.5735 17.456,2.0444 17.456,4.4126 0,1.4801 -2.804,2.6097 -7.416,3.3887"
     id="path45"
     inkscape:connector-curvature="0"
     style="fill:none;stroke:#000000" />
  <polygon
     points="124.848,-45.848 124.848,-45.848 114.544,-48.3154 124.138,-52.8119 "
     id="polygon47"
     style="fill:#000000;stroke:#000000"
     transform="translate(1,137.293)" />
  <text
     x="250.5"
     y="65.165092"
     font-size="14.00"
     id="text49"
     style="font-size:14px;font-style:normal;font-variant:normal;font-weight:normal;font-stretch:normal;text-anchor:middle;font-family:Arial;-inkscape-font-specification:Arial"><tspan
   style="font-weight:bold"
   id="tspan3100">receive</tspan>
 Message(d, [[r]]) <tspan
   style="font-weight:bold"
   id="tspan3102">from</tspan>
 ARSender;</text>
  <text
     x="250.5"
     y="81.165092"
     font-size="14.00"
     id="text51"
     style="font-size:14px;font-style:normal;font-variant:normal;font-weight:normal;font-stretch:normal;text-anchor:middle;font-family:Arial;-inkscape-font-specification:Arial"><tspan
   style="font-weight:bold"
   id="tspan3104">send</tspan>
 Signal(d) <tspan
   style="font-weight:bold"
   id="tspan3108">to</tspan>
 AROriginal;</text>
  <text
     x="250.5"
     y="97.165092"
     font-size="14.00"
     id="text53"
     style="font-size:14px;font-style:normal;font-variant:normal;font-weight:normal;font-stretch:normal;text-anchor:middle;font-family:Arial;-inkscape-font-specification:Arial"><tspan
   style="font-weight:bold"
   id="tspan3106">send</tspan>
 Acknowledge() <tspan
   style="font-weight:bold"
   id="tspan3110">to</tspan>
 ARAS;</text>
  <text
     x="250.5"
     y="113.16509"
     font-size="14.00"
     id="text55"
     style="font-size:14px;font-style:normal;font-variant:normal;font-weight:normal;font-stretch:normal;text-anchor:middle;font-family:Arial;-inkscape-font-specification:Arial">r := 1 - r</text>
  <text
     x="143.13235"
     y="146.53078"
     font-size="14.00"
     id="text64"
     style="font-size:14px;font-style:normal;font-variant:normal;font-weight:normal;font-stretch:normal;text-anchor:middle;font-family:Arial;-inkscape-font-specification:Arial"><tspan
   style="font-weight:bold"
   id="tspan3112">receive</tspan>
 Message(d, [[1 - r]]) <tspan
   style="font-weight:bold"
   id="tspan3114">from</tspan>
 ARSender</text>
  <g
     id="g3120"
     transform="matrix(0,1,-1,0,189.21164,61.280672)">
    <path
       d="m 52.983216,126.45417 c 10.278,0.5735 17.456,2.0444 17.456,4.4126 0,1.4801 -2.804,2.6097 -7.416,3.3887"
       id="path3116"
       inkscape:connector-curvature="0"
       style="fill:none;stroke:#000000" />
    <polygon
       points="124.848,-45.848 124.848,-45.848 114.544,-48.3154 124.138,-52.8119 "
       id="polygon3118"
       style="fill:#000000;stroke:#000000"
       transform="translate(-61.560784,183.59467)" />
  </g>
</svg>
