<?xml version="1.0" encoding="UTF-8" standalone="no"?>
<!-- Generated by graphviz version 2.26.3 (20100126.1600)
 -->

<!-- Title: Sender Pages: 1 -->

<svg
   xmlns:dc="http://purl.org/dc/elements/1.1/"
   xmlns:cc="http://creativecommons.org/ns#"
   xmlns:rdf="http://www.w3.org/1999/02/22-rdf-syntax-ns#"
   xmlns:svg="http://www.w3.org/2000/svg"
   xmlns="http://www.w3.org/2000/svg"
   xmlns:sodipodi="http://sodipodi.sourceforge.net/DTD/sodipodi-0.dtd"
   xmlns:inkscape="http://www.inkscape.org/namespaces/inkscape"
   width="555.19257"
   height="300.25"
   viewBox="0 0 443.9073 240.2"
   id="svg2"
   version="1.1"
   inkscape:version="0.48.1 "
   sodipodi:docname="ABP_Sender_Sender.svg">
  <metadata
     id="metadata96">
    <rdf:RDF>
      <cc:Work
         rdf:about="">
        <dc:format>image/svg+xml</dc:format>
        <dc:type
           rdf:resource="http://purl.org/dc/dcmitype/StillImage" />
        <dc:title></dc:title>
      </cc:Work>
    </rdf:RDF>
  </metadata>
  <defs
     id="defs94" />
  <sodipodi:namedview
     pagecolor="#ffffff"
     bordercolor="#666666"
     borderopacity="1"
     objecttolerance="10"
     gridtolerance="10"
     guidetolerance="10"
     inkscape:pageopacity="0"
     inkscape:pageshadow="2"
     inkscape:window-width="1680"
     inkscape:window-height="998"
     id="namedview92"
     showgrid="false"
     fit-margin-top="0"
     fit-margin-left="0"
     fit-margin-right="0"
     fit-margin-bottom="0"
     inkscape:zoom="0.84193548"
     inkscape:cx="328.97752"
     inkscape:cy="49.578831"
     inkscape:window-x="-8"
     inkscape:window-y="-8"
     inkscape:window-maximized="1"
     inkscape:current-layer="svg2" />
  <ellipse
     cx="110.765"
     cy="-233"
     rx="7.1999998"
     ry="7.1999998"
     id="ellipse12"
     d="m 117.965,-233 c 0,3.97645 -3.22355,7.2 -7.2,7.2 -3.97645,0 -7.2,-3.22355 -7.2,-7.2 0,-3.97645 3.22355,-7.2 7.2,-7.2 3.97645,0 7.2,3.22355 7.2,7.2 z"
     sodipodi:cx="110.765"
     sodipodi:cy="-233"
     sodipodi:rx="7.1999998"
     sodipodi:ry="7.1999998"
     style="fill:#000000;stroke:#000000"
     transform="translate(28.028249,240.7)" />
  <polyline
     points="65.2651,-129 156.265,-129 "
     id="polyline17"
     style="fill:none;stroke:#000000"
     transform="translate(28.028249,240.7)" />
  <path
     d="m 184.29325,111.7 c 6,0 12,-6 12,-12"
     id="path19"
     inkscape:connector-curvature="0"
     style="fill:none;stroke:#000000" />
  <polyline
     points="168.265,-141 168.265,-175 "
     id="polyline21"
     style="fill:none;stroke:#000000"
     transform="translate(28.028249,240.7)" />
  <path
     d="m 196.29325,65.7 c 0,-6 -6,-12 -12,-12"
     id="path23"
     inkscape:connector-curvature="0"
     style="fill:none;stroke:#000000" />
  <polyline
     points="156.265,-187 65.2651,-187 "
     id="polyline25"
     style="fill:none;stroke:#000000"
     transform="translate(28.028249,240.7)" />
  <path
     d="m 93.293349,53.7 c -6,0 -12,6 -12,12"
     id="path27"
     inkscape:connector-curvature="0"
     style="fill:none;stroke:#000000" />
  <polyline
     points="53.2651,-175 53.2651,-141 "
     id="polyline29"
     style="fill:none;stroke:#000000"
     transform="translate(28.028249,240.7)" />
  <path
     d="m 81.293349,99.7 c 0,6 6,12 12,12"
     id="path31"
     inkscape:connector-curvature="0"
     style="fill:none;stroke:#000000" />
  <text
     x="138.79324"
     y="87.300003"
     font-size="14.00"
     id="text33"
     style="font-size:14px;font-style:normal;font-variant:normal;font-weight:normal;font-stretch:normal;text-anchor:middle;font-family:Arial;-inkscape-font-specification:Arial">Sender0</text>
  <path
     d="m 138.79325,15.165 c 0,6.795 0,17.387 0,28.184"
     id="path38"
     inkscape:connector-curvature="0"
     style="fill:none;stroke:#000000" />
  <polygon
     points="114.265,-197.054 114.265,-197.054 110.765,-187.054 107.265,-197.054 "
     id="polygon40"
     style="fill:#000000;stroke:#000000"
     transform="translate(28.028249,240.7)" />
  <polyline
     points="65.2651,-1 156.265,-1 "
     id="polyline45"
     style="fill:none;stroke:#000000"
     transform="translate(28.028249,240.7)" />
  <path
     d="m 184.29325,239.7 c 6,0 12,-6 12,-12"
     id="path47"
     inkscape:connector-curvature="0"
     style="fill:none;stroke:#000000" />
  <polyline
     points="168.265,-13 168.265,-47 "
     id="polyline49"
     style="fill:none;stroke:#000000"
     transform="translate(28.028249,240.7)" />
  <path
     d="m 196.29325,193.7 c 0,-6 -6,-12 -12,-12"
     id="path51"
     inkscape:connector-curvature="0"
     style="fill:none;stroke:#000000" />
  <polyline
     points="156.265,-59 65.2651,-59 "
     id="polyline53"
     style="fill:none;stroke:#000000"
     transform="translate(28.028249,240.7)" />
  <path
     d="m 93.293349,181.7 c -6,0 -12,6 -12,12"
     id="path55"
     inkscape:connector-curvature="0"
     style="fill:none;stroke:#000000" />
  <polyline
     points="53.2651,-47 53.2651,-13 "
     id="polyline57"
     style="fill:none;stroke:#000000"
     transform="translate(28.028249,240.7)" />
  <path
     d="m 81.293349,227.7 c 0,6 6,12 12,12"
     id="path59"
     inkscape:connector-curvature="0"
     style="fill:none;stroke:#000000" />
  <text
     x="138.79324"
     y="215.3"
     font-size="14.00"
     id="text61"
     style="font-size:14px;font-style:normal;font-variant:normal;font-weight:normal;font-stretch:normal;text-anchor:middle;font-family:Arial;-inkscape-font-specification:Arial">Sender1</text>
  <path
     d="m 81.134049,95.771 c -104.593676,20.68559 -107.421266,69.11598 -9.3946,97.8162"
     id="path66"
     inkscape:connector-curvature="0"
     style="fill:none;stroke:#000000"
     sodipodi:nodetypes="cc" />
  <polygon
     points="45.3033,-50.238 45.3033,-50.238 53.1058,-43.0705 42.5367,-43.8079 "
     id="polygon68"
     style="fill:#000000;stroke:#000000"
     transform="translate(28.028249,240.7)" />
  <text
     x="112.96798"
     y="145.59885"
     font-size="14.00"
     id="text70"
     style="font-size:14px;font-style:normal;font-variant:normal;font-weight:normal;font-stretch:normal;text-anchor:middle;font-family:Arial;-inkscape-font-specification:Arial"><tspan
   style="font-weight:bold"
   id="tspan3150">receive</tspan>
 Signal(d) <tspan
   style="font-weight:bold"
   id="tspan3152">from</tspan>
 ASOriginal</text>
  <path
     d="m 196.57225,193.85886 c 53.10577,-22.28949 57.25009,-54.42001 8.415,-83.76586"
     id="path75"
     inkscape:connector-curvature="0"
     style="fill:none;stroke:#000000"
     sodipodi:nodetypes="cc" />
  <polygon
     points="174.79,-127.85 174.79,-127.85 168.544,-136.408 178.763,-133.614 "
     id="polygon77"
     style="fill:#000000;stroke:#000000"
     transform="translate(28.028249,240.7)" />
  <text
     x="319.13669"
     y="97.611694"
     font-size="14.00"
     id="text79"
     style="font-size:14px;font-style:normal;font-variant:normal;font-weight:normal;font-stretch:normal;text-anchor:middle;font-family:Arial;-inkscape-font-specification:Arial"><tspan
   style="font-weight:bold"
   id="tspan3154">receive</tspan>
 Acknowledge() <tspan
   style="font-weight:bold"
   id="tspan3156">from</tspan>
 ASAR;</text>
  <text
     x="319.13669"
     y="113.61169"
     font-size="14.00"
     id="text81"
     style="font-size:14px;font-style:normal;font-variant:normal;font-weight:normal;font-stretch:normal;text-anchor:middle;font-family:Arial;-inkscape-font-specification:Arial">s := 1 - s</text>
  <path
     d="m 196.33825,199.4039 c 10.277,1.4682 17.455,5.2336 17.455,11.2961 0,3.8838 -2.946,6.8248 -7.765,8.8232"
     id="path86"
     inkscape:connector-curvature="0"
     style="fill:none;stroke:#000000" />
  <polygon
     points="178.865,-17.7855 178.865,-17.7855 168.31,-18.7039 177.134,-24.5681 "
     id="polygon88"
     style="fill:#000000;stroke:#000000"
     transform="translate(28.028249,240.7)" />
  <text
     x="333.69336"
     y="215.3"
     font-size="14.00"
     id="text90"
     style="font-size:14px;font-style:normal;font-variant:normal;font-weight:normal;font-stretch:normal;text-anchor:middle;font-family:Arial;-inkscape-font-specification:Arial"><tspan
   style="font-weight:bold"
   id="tspan3158">send</tspan>
 Message(d, s) <tspan
   style="font-weight:bold"
   id="tspan3160">to</tspan>
 ASReceiver</text>
</svg>
