<?xml version="1.0" encoding="UTF-8" standalone="no"?>
<!-- Generated by graphviz version 2.26.3 (20100126.1600)
 -->

<!-- Title: AS Pages: 1 -->

<svg
   xmlns:dc="http://purl.org/dc/elements/1.1/"
   xmlns:cc="http://creativecommons.org/ns#"
   xmlns:rdf="http://www.w3.org/1999/02/22-rdf-syntax-ns#"
   xmlns:svg="http://www.w3.org/2000/svg"
   xmlns="http://www.w3.org/2000/svg"
   xmlns:sodipodi="http://sodipodi.sourceforge.net/DTD/sodipodi-0.dtd"
   xmlns:inkscape="http://www.inkscape.org/namespaces/inkscape"
   width="485.83826"
   height="183.1804"
   viewBox="0 0 388.67061 146.54432"
   id="svg2"
   version="1.1"
   inkscape:version="0.48.1 "
   sodipodi:docname="ABP_AS_AS.svg">
  <metadata
     id="metadata66">
    <rdf:RDF>
      <cc:Work
         rdf:about="">
        <dc:format>image/svg+xml</dc:format>
        <dc:type
           rdf:resource="http://purl.org/dc/dcmitype/StillImage" />
      </cc:Work>
    </rdf:RDF>
  </metadata>
  <defs
     id="defs64" />
  <sodipodi:namedview
     pagecolor="#ffffff"
     bordercolor="#666666"
     borderopacity="1"
     objecttolerance="10"
     gridtolerance="10"
     guidetolerance="10"
     inkscape:pageopacity="0"
     inkscape:pageshadow="2"
     inkscape:window-width="1680"
     inkscape:window-height="998"
     id="namedview62"
     showgrid="false"
     fit-margin-top="0"
     fit-margin-left="0"
     fit-margin-right="0"
     fit-margin-bottom="0"
     inkscape:zoom="1.3783784"
     inkscape:cx="166.40742"
     inkscape:cy="115.45574"
     inkscape:window-x="-8"
     inkscape:window-y="-8"
     inkscape:window-maximized="1"
     inkscape:current-layer="svg2" />
  <ellipse
     cx="57"
     cy="-105"
     rx="7.1999998"
     ry="7.1999998"
     id="ellipse12"
     d="m 64.2,-105 c 0,3.97645 -3.22355,7.2 -7.2,7.2 -3.97645,0 -7.2,-3.22355 -7.2,-7.2 0,-3.97645 3.22355,-7.2 7.2,-7.2 3.97645,0 7.2,3.22355 7.2,7.2 z"
     sodipodi:cx="57"
     sodipodi:cy="-105"
     sodipodi:rx="7.1999998"
     sodipodi:ry="7.1999998"
     style="fill:#000000;stroke:#000000"
     transform="translate(1,112.7)" />
  <polyline
     points="11.5,-1 102.5,-1 "
     id="polyline17"
     style="fill:none;stroke:#000000"
     transform="translate(1,112.7)" />
  <path
     d="m 103.5,111.7 c 6,0 12,-6 12,-12"
     id="path19"
     inkscape:connector-curvature="0"
     style="fill:none;stroke:#000000" />
  <polyline
     points="114.5,-13 114.5,-47 "
     id="polyline21"
     style="fill:none;stroke:#000000"
     transform="translate(1,112.7)" />
  <path
     d="m 115.5,65.7 c 0,-6 -6,-12 -12,-12"
     id="path23"
     inkscape:connector-curvature="0"
     style="fill:none;stroke:#000000" />
  <polyline
     points="102.5,-59 11.5,-59 "
     id="polyline25"
     style="fill:none;stroke:#000000"
     transform="translate(1,112.7)" />
  <path
     d="m 12.5,53.7 c -6,0 -12,6 -12,12"
     id="path27"
     inkscape:connector-curvature="0"
     style="fill:none;stroke:#000000" />
  <polyline
     points="-0.5,-47 -0.5,-13 "
     id="polyline29"
     style="fill:none;stroke:#000000"
     transform="translate(1,112.7)" />
  <path
     d="m 0.5,99.7 c 0,6 6,12 12,12"
     id="path31"
     inkscape:connector-curvature="0"
     style="fill:none;stroke:#000000" />
  <text
     x="58"
     y="87.299995"
     font-size="14.00"
     id="text33"
     style="font-size:14px;font-style:normal;font-variant:normal;font-weight:normal;font-stretch:normal;text-anchor:middle;font-family:Arial;-inkscape-font-specification:Arial">AS</text>
  <path
     d="m 58,15.1655 c 0,6.7949 0,17.3866 0,28.1833"
     id="path38"
     inkscape:connector-curvature="0"
     style="fill:none;stroke:#000000" />
  <polygon
     points="60.5001,-69.0539 60.5001,-69.0539 57,-59.054 53.5001,-69.054 "
     id="polygon40"
     style="fill:#000000;stroke:#000000"
     transform="translate(1,112.7)" />
  <g
     id="g3092"
     transform="translate(-3,-14.5)">
    <path
       style="fill:none;stroke:#000000"
       inkscape:connector-curvature="0"
       id="path45"
       d="M 118.544,81.7639 C 128.822,82.3145 136,83.7266 136,86 c 0,1.4209 -2.804,2.5053 -7.416,3.2532" />
    <polygon
       transform="translate(4,116)"
       style="fill:#000000;stroke:#000000"
       id="polygon47"
       points="124.156,-30.2217 124.838,-23.255 124.838,-23.255 114.544,-25.7639 " />
  </g>
  <text
     x="254.41962"
     y="58.405884"
     font-size="14.00"
     id="text49"
     style="font-size:14px;font-style:normal;font-variant:normal;font-weight:normal;font-stretch:normal;text-anchor:middle;font-family:Arial;-inkscape-font-specification:Arial"><tspan
   style="font-weight:bold"
   id="tspan3102">receive</tspan>

 Acknowledge() <tspan
   style="font-weight:bold"
   id="tspan3104">from</tspan>

 AASReceiver;</text>
  <text
     x="254.41962"
     y="74.405884"
     font-size="14.00"
     id="text51"
     style="font-size:14px;font-style:normal;font-variant:normal;font-weight:normal;font-stretch:normal;text-anchor:middle;font-family:Arial;-inkscape-font-specification:Arial">b := 1 - b</text>
  <text
     x="106.93333"
     y="143.59804"
     font-size="14.00"
     id="text60"
     style="font-size:14px;font-style:normal;font-variant:normal;font-weight:normal;font-stretch:normal;text-anchor:middle;font-family:Arial;-inkscape-font-specification:Arial"><tspan
   style="font-weight:bold"
   id="tspan3106">send</tspan>

 Acknowledge(b) <tspan
   style="font-weight:bold"
   id="tspan3108">to</tspan>

 AASAR</text>
  <g
     id="g3096"
     transform="matrix(0,1,-1,0,144.57615,-6.5476447)">
    <path
       d="M 118.544,81.7639 C 128.822,82.3145 136,83.7266 136,86 c 0,1.4209 -2.804,2.5053 -7.416,3.2532"
       id="path3098"
       inkscape:connector-curvature="0"
       style="fill:none;stroke:#000000" />
    <polygon
       points="124.838,-23.255 124.838,-23.255 114.544,-25.7639 124.156,-30.2217 "
       id="polygon3100"
       style="fill:#000000;stroke:#000000"
       transform="translate(4,116)" />
  </g>
</svg>
