<?xml version="1.0" encoding="UTF-8" standalone="no"?>
<!-- Generated by graphviz version 2.26.3 (20100126.1600)
 -->

<!-- Title: CloneClasses Pages: 1 -->

<svg
   xmlns:dc="http://purl.org/dc/elements/1.1/"
   xmlns:cc="http://creativecommons.org/ns#"
   xmlns:rdf="http://www.w3.org/1999/02/22-rdf-syntax-ns#"
   xmlns:svg="http://www.w3.org/2000/svg"
   xmlns="http://www.w3.org/2000/svg"
   xmlns:sodipodi="http://sodipodi.sourceforge.net/DTD/sodipodi-0.dtd"
   xmlns:inkscape="http://www.inkscape.org/namespaces/inkscape"
   width="593.24951"
   height="201.25"
   viewBox="0 0 474.59961 161"
   id="svg2"
   version="1.1"
   inkscape:version="0.48.1 "
   sodipodi:docname="Communication_CloneClasses.svg">
  <metadata
     id="metadata87">
    <rdf:RDF>
      <cc:Work
         rdf:about="">
        <dc:format>image/svg+xml</dc:format>
        <dc:type
           rdf:resource="http://purl.org/dc/dcmitype/StillImage" />
        <dc:title></dc:title>
      </cc:Work>
    </rdf:RDF>
  </metadata>
  <defs
     id="defs85" />
  <sodipodi:namedview
     pagecolor="#ffffff"
     bordercolor="#666666"
     borderopacity="1"
     objecttolerance="10"
     gridtolerance="10"
     guidetolerance="10"
     inkscape:pageopacity="0"
     inkscape:pageshadow="2"
     inkscape:window-width="1680"
     inkscape:window-height="998"
     id="namedview83"
     showgrid="false"
     fit-margin-top="0"
     fit-margin-left="0"
     fit-margin-right="0"
     fit-margin-bottom="0"
     inkscape:zoom="1.1347826"
     inkscape:cx="10.318487"
     inkscape:cy="102.02945"
     inkscape:window-x="-8"
     inkscape:window-y="-8"
     inkscape:window-maximized="1"
     inkscape:current-layer="svg2" />
  <g
     id="g3079">
    <polygon
       transform="translate(-7.5,168.5)"
       style="fill:none;stroke:#000000"
       id="polygon12"
       points="122,-84 192,-84 192,-8 122,-8 122,-8 " />
    <text
       style="font-size:14px;font-style:normal;font-variant:normal;font-weight:normal;font-stretch:normal;text-anchor:middle;font-family:Arial;-inkscape-font-specification:Arial"
       id="text14"
       font-size="14.00"
       y="101.1"
       x="149.5">c: C</text>
    <polygon
       transform="translate(-7.5,168.5)"
       style="fill:none;stroke:#000000"
       id="polygon19"
       points="8,-168 78,-168 78,-92 8,-92 8,-92 " />
    <text
       style="font-size:14px;font-style:normal;font-variant:normal;font-weight:normal;font-stretch:normal;text-anchor:middle;font-family:Arial;-inkscape-font-specification:Arial"
       id="text21"
       font-size="14.00"
       y="17.100006"
       x="35.5">a1: A</text>
    <polygon
       transform="translate(-7.5,168.5)"
       style="fill:none;stroke:#000000"
       id="polygon26"
       points="8,-84 78,-84 78,-8 8,-8 8,-8 " />
    <text
       style="font-size:14px;font-style:normal;font-variant:normal;font-weight:normal;font-stretch:normal;text-anchor:middle;font-family:Arial;-inkscape-font-specification:Arial"
       id="text28"
       font-size="14.00"
       y="101.1"
       x="35.5">a2: A</text>
    <polygon
       transform="translate(-7.5,168.5)"
       style="fill:none;stroke:#000000"
       id="polygon33"
       points="122,-168 192,-168 192,-92 122,-92 122,-92 " />
    <text
       style="font-size:14px;font-style:normal;font-variant:normal;font-weight:normal;font-stretch:normal;text-anchor:middle;font-family:Arial;-inkscape-font-specification:Arial"
       id="text35"
       font-size="14.00"
       y="17.100006"
       x="149.5">b: B</text>
    <polygon
       transform="translate(-7.5,168.5)"
       style="fill:none;stroke:#000000"
       id="polygon40"
       points="130,-52 130,-16 184,-16 184,-52 184,-52 " />
    <text
       style="font-size:14px;font-style:normal;font-variant:normal;font-weight:normal;font-stretch:normal;text-anchor:middle;font-family:Arial;-inkscape-font-specification:Arial"
       id="text42"
       font-size="14.00"
       y="139.10001"
       x="149.5">In</text>
    <polygon
       transform="translate(-7.5,168.5)"
       style="fill:none;stroke:#000000"
       id="polygon47"
       points="16,-136 16,-100 70,-100 70,-136 70,-136 " />
    <text
       style="font-size:14px;font-style:normal;font-variant:normal;font-weight:normal;font-stretch:normal;text-anchor:middle;font-family:Arial;-inkscape-font-specification:Arial"
       id="text49"
       font-size="14.00"
       y="55.099998"
       x="35.5">Out</text>
    <polygon
       transform="translate(-7.5,168.5)"
       style="fill:none;stroke:#000000"
       id="polygon54"
       points="130,-136 130,-100 184,-100 184,-136 184,-136 " />
    <text
       style="font-size:14px;font-style:normal;font-variant:normal;font-weight:normal;font-stretch:normal;text-anchor:middle;font-family:Arial;-inkscape-font-specification:Arial"
       id="text56"
       font-size="14.00"
       y="55.099998"
       x="149.5">In</text>
    <path
       style="fill:none;stroke:#000000"
       inkscape:connector-curvature="0"
       id="path61"
       d="m 62.5164,50.5 c 14.7991,0 33.3676,0 49.5446,0" />
    <polygon
       transform="translate(-7.5,168.5)"
       style="fill:#000000;stroke:#000000"
       id="polygon63"
       points="119.782,-121.5 119.782,-121.5 129.782,-118 119.782,-114.5 " />
    <text
       style="font-size:14px;font-style:normal;font-variant:normal;font-weight:normal;font-stretch:normal;text-anchor:middle;font-family:Arial;-inkscape-font-specification:Arial"
       id="text65"
       font-size="14.00"
       y="47.099998"
       x="92.5">c1()</text>
    <polygon
       transform="translate(-7.5,168.5)"
       style="fill:none;stroke:#000000"
       id="polygon70"
       points="16,-52 16,-16 70,-16 70,-52 70,-52 " />
    <text
       style="font-size:14px;font-style:normal;font-variant:normal;font-weight:normal;font-stretch:normal;text-anchor:middle;font-family:Arial;-inkscape-font-specification:Arial"
       id="text72"
       font-size="14.00"
       y="139.10001"
       x="35.5">Out</text>
    <path
       style="fill:none;stroke:#000000"
       inkscape:connector-curvature="0"
       id="path77"
       d="m 62.5164,134.5 c 14.7991,0 33.3676,0 49.5446,0" />
    <polygon
       transform="translate(-7.5,168.5)"
       style="fill:#000000;stroke:#000000"
       id="polygon79"
       points="119.782,-37.5001 119.782,-37.5001 129.782,-34 119.782,-30.5001 " />
    <text
       style="font-size:14px;font-style:normal;font-variant:normal;font-weight:normal;font-stretch:normal;text-anchor:middle;font-family:Arial;-inkscape-font-specification:Arial"
       id="text81"
       font-size="14.00"
       y="131.10001"
       x="92.5">c2()</text>
  </g>
  <g
     id="g3055"
     transform="translate(289.59962,0)">
    <polygon
       transform="translate(-7.5,168.5)"
       style="fill:none;stroke:#000000"
       id="polygon12-9"
       points="122,-8 122,-84 192,-84 192,-8 122,-8 " />
    <text
       style="font-size:14px;font-style:normal;font-variant:normal;font-weight:normal;font-stretch:normal;text-anchor:middle;font-family:Arial;-inkscape-font-specification:Arial"
       id="text14-4"
       font-size="14.00"
       y="101.1"
       x="149.5">c: C</text>
    <polygon
       transform="translate(-7.5,168.5)"
       style="fill:none;stroke:#000000"
       id="polygon19-8"
       points="8,-92 8,-168 78,-168 78,-92 8,-92 " />
    <text
       style="font-size:14px;font-style:normal;font-variant:normal;font-weight:normal;font-stretch:normal;text-anchor:middle;font-family:Arial;-inkscape-font-specification:Arial"
       id="text21-8"
       font-size="14.00"
       y="17.100006"
       x="35.5">a1: A_c</text>
    <polygon
       transform="translate(-7.5,168.5)"
       style="fill:none;stroke:#000000"
       id="polygon26-2"
       points="8,-8 8,-84 78,-84 78,-8 8,-8 " />
    <text
       style="font-size:14px;font-style:normal;font-variant:normal;font-weight:normal;font-stretch:normal;text-anchor:middle;font-family:Arial;-inkscape-font-specification:Arial"
       id="text28-4"
       font-size="14.00"
       y="101.1"
       x="35.5">a2: A</text>
    <polygon
       transform="translate(-7.5,168.5)"
       style="fill:none;stroke:#000000"
       id="polygon33-5"
       points="122,-92 122,-168 192,-168 192,-92 122,-92 " />
    <text
       style="font-size:14px;font-style:normal;font-variant:normal;font-weight:normal;font-stretch:normal;text-anchor:middle;font-family:Arial;-inkscape-font-specification:Arial"
       id="text35-5"
       font-size="14.00"
       y="17.100006"
       x="149.5">b: B_c</text>
    <polygon
       transform="translate(-7.5,168.5)"
       style="fill:none;stroke:#000000"
       id="polygon40-1"
       points="184,-52 130,-52 130,-16 184,-16 184,-52 " />
    <text
       style="font-size:14px;font-style:normal;font-variant:normal;font-weight:normal;font-stretch:normal;text-anchor:middle;font-family:Arial;-inkscape-font-specification:Arial"
       id="text42-7"
       font-size="14.00"
       y="139.10001"
       x="149.5">In</text>
    <polygon
       transform="translate(-7.5,168.5)"
       style="fill:none;stroke:#000000"
       id="polygon47-1"
       points="70,-136 16,-136 16,-100 70,-100 70,-136 " />
    <text
       style="font-size:14px;font-style:normal;font-variant:normal;font-weight:normal;font-stretch:normal;text-anchor:middle;font-family:Arial;-inkscape-font-specification:Arial"
       id="text49-1"
       font-size="14.00"
       y="55.099998"
       x="35.5">Out</text>
    <polygon
       transform="translate(-7.5,168.5)"
       style="fill:none;stroke:#000000"
       id="polygon54-5"
       points="184,-136 130,-136 130,-100 184,-100 184,-136 " />
    <text
       style="font-size:14px;font-style:normal;font-variant:normal;font-weight:normal;font-stretch:normal;text-anchor:middle;font-family:Arial;-inkscape-font-specification:Arial"
       id="text56-2"
       font-size="14.00"
       y="55.099998"
       x="149.5">In</text>
    <path
       style="fill:none;stroke:#000000"
       inkscape:connector-curvature="0"
       id="path61-7"
       d="m 62.5164,50.5 c 14.7991,0 33.3676,0 49.5446,0" />
    <polygon
       transform="translate(-7.5,168.5)"
       style="fill:#000000;stroke:#000000"
       id="polygon63-6"
       points="119.782,-121.5 119.782,-121.5 129.782,-118 119.782,-114.5 " />
    <text
       style="font-size:14px;font-style:normal;font-variant:normal;font-weight:normal;font-stretch:normal;text-anchor:middle;font-family:Arial;-inkscape-font-specification:Arial"
       id="text65-1"
       font-size="14.00"
       y="47.099998"
       x="92.5">c1()</text>
    <polygon
       transform="translate(-7.5,168.5)"
       style="fill:none;stroke:#000000"
       id="polygon70-4"
       points="70,-52 16,-52 16,-16 70,-16 70,-52 " />
    <text
       style="font-size:14px;font-style:normal;font-variant:normal;font-weight:normal;font-stretch:normal;text-anchor:middle;font-family:Arial;-inkscape-font-specification:Arial"
       id="text72-2"
       font-size="14.00"
       y="139.10001"
       x="35.5">Out</text>
    <path
       style="fill:none;stroke:#000000"
       inkscape:connector-curvature="0"
       id="path77-3"
       d="m 62.5164,134.5 c 14.7991,0 33.3676,0 49.5446,0" />
    <polygon
       transform="translate(-7.5,168.5)"
       style="fill:#000000;stroke:#000000"
       id="polygon79-2"
       points="119.782,-37.5001 119.782,-37.5001 129.782,-34 119.782,-30.5001 " />
    <text
       style="font-size:14px;font-style:normal;font-variant:normal;font-weight:normal;font-stretch:normal;text-anchor:middle;font-family:Arial;-inkscape-font-specification:Arial"
       id="text81-2"
       font-size="14.00"
       y="131.10001"
       x="92.5">c2()</text>
  </g>
</svg>
