<?xml version="1.0" encoding="UTF-8" standalone="no"?>
<!-- Generated by graphviz version 2.26.3 (20100126.1600)
 -->

<!-- Title: Lossless2Lossy_ll Pages: 1 -->

<svg
   xmlns:dc="http://purl.org/dc/elements/1.1/"
   xmlns:cc="http://creativecommons.org/ns#"
   xmlns:rdf="http://www.w3.org/1999/02/22-rdf-syntax-ns#"
   xmlns:svg="http://www.w3.org/2000/svg"
   xmlns="http://www.w3.org/2000/svg"
   xmlns:sodipodi="http://sodipodi.sourceforge.net/DTD/sodipodi-0.dtd"
   xmlns:inkscape="http://www.inkscape.org/namespaces/inkscape"
   width="1004.9003"
   height="452.77374"
   viewBox="0 0 803.92029 362.219"
   id="svg2"
   version="1.1"
   inkscape:version="0.48.1 "
   sodipodi:docname="Communication_Lossless2Lossy_ll.svg">
  <metadata
     id="metadata193">
    <rdf:RDF>
      <cc:Work
         rdf:about="">
        <dc:format>image/svg+xml</dc:format>
        <dc:type
           rdf:resource="http://purl.org/dc/dcmitype/StillImage" />
      </cc:Work>
    </rdf:RDF>
  </metadata>
  <defs
     id="defs191" />
  <sodipodi:namedview
     pagecolor="#ffffff"
     bordercolor="#666666"
     borderopacity="1"
     objecttolerance="10"
     gridtolerance="10"
     guidetolerance="10"
     inkscape:pageopacity="0"
     inkscape:pageshadow="2"
     inkscape:window-width="1680"
     inkscape:window-height="998"
     id="namedview189"
     showgrid="false"
     fit-margin-top="0"
     fit-margin-left="0"
     fit-margin-right="0"
     fit-margin-bottom="0"
     inkscape:zoom="0.95774648"
     inkscape:cx="535.32358"
     inkscape:cy="116.20263"
     inkscape:window-x="-8"
     inkscape:window-y="-8"
     inkscape:window-maximized="1"
     inkscape:current-layer="svg2">
    <inkscape:grid
       type="xygrid"
       id="grid3459"
       empspacing="5"
       visible="true"
       enabled="true"
       snapvisiblegridlinesonly="true" />
  </sodipodi:namedview>
  <polygon
     points="78,-192 78,-116 8,-116 8,-116 8,-192 "
     id="polygon12"
     style="fill:none;stroke:#000000"
     transform="translate(-7.5,192.5)" />
  <text
     x="35.5"
     y="17.099998"
     font-size="14.00"
     id="text14"
     style="font-size:14px;font-style:normal;font-variant:normal;font-weight:normal;font-stretch:normal;text-anchor:middle;font-family:Arial;-inkscape-font-specification:Arial">a: A</text>
  <polygon
     points="1305,-181 1235,-181 1235,-181 1235,-257 1305,-257 "
     id="polygon19"
     style="fill:none;stroke:#000000"
     transform="translate(-501.5797,259.98262)" />
  <text
     x="768.42273"
     y="19.582623"
     font-size="14.00"
     id="text21"
     style="font-size:14px;font-style:normal;font-variant:normal;font-weight:normal;font-stretch:normal;text-anchor:middle;font-family:Arial;-inkscape-font-specification:Arial">b: B</text>
  <polygon
     points="16,-124 70,-124 70,-160 70,-160 16,-160 "
     id="polygon54"
     style="fill:none;stroke:#000000"
     transform="translate(-7.5,192.5)" />
  <text
     x="35.5"
     y="55.099998"
     font-size="14.00"
     id="text56"
     style="font-size:14px;font-style:normal;font-variant:normal;font-weight:normal;font-stretch:normal;text-anchor:middle;font-family:Arial;-inkscape-font-specification:Arial">Out</text>
  <polygon
     points="354.731,-142 344.731,-138.5 344.731,-145.5 344.731,-145.5 "
     id="polygon70"
     style="fill:#000000;stroke:#000000"
     transform="translate(-161.14494,192.90724)" />
  <text
     x="114.73207"
     y="40.882355"
     font-size="14.00"
     id="text72"
     style="font-size:14px;font-style:normal;font-variant:normal;font-weight:normal;font-stretch:normal;text-anchor:middle;font-family:Arial;-inkscape-font-specification:Arial">c1(<tspan
   style="font-style:normal;font-variant:normal;font-weight:bold;font-stretch:normal;font-family:Arial;-inkscape-font-specification:Arial"
   id="tspan3349">String</tspan>

)</text>
  <polygon
     points="1297,-189 1297,-225 1297,-225 1243,-225 1243,-189 "
     id="polygon77"
     style="fill:none;stroke:#000000"
     transform="translate(-501.5797,259.98262)" />
  <text
     x="768.42273"
     y="57.582634"
     font-size="14.00"
     id="text79"
     style="font-size:14px;font-style:normal;font-variant:normal;font-weight:normal;font-stretch:normal;text-anchor:middle;font-family:Arial;-inkscape-font-specification:Arial">In</text>
  <path
     d="m 273.70882,105.55628 230.11412,0"
     id="path98"
     inkscape:connector-curvature="0"
     style="fill:none;stroke:#000000;stroke-dasharray:1, 5"
     sodipodi:nodetypes="cc" />
  <text
     x="383.67502"
     y="95.327751"
     font-size="14.00"
     id="text102"
     style="font-size:14px;font-style:normal;font-variant:normal;font-weight:normal;font-stretch:normal;text-anchor:middle;font-family:Arial;-inkscape-font-specification:Arial">c2(<tspan
   style="font-weight:bold"
   id="tspan3437">String</tspan>

, <tspan
   style="font-weight:bold"
   id="tspan3439">Integer</tspan>

)</text>
  <polygon
     points="292,-192 497,-192 497,-8 292,-8 292,-8 "
     id="polygon26"
     style="fill:none;stroke:#000000;stroke-width:1.18280876"
     transform="matrix(0.71477761,0,0,1,-48.624707,192.90724)" />
  <text
     x="233.35506"
     y="17.50724"
     font-size="14.00"
     id="text28"
     style="font-size:14px;font-style:normal;font-variant:normal;font-weight:normal;font-stretch:normal;text-anchor:middle;font-family:Arial;-inkscape-font-specification:Arial">sender: ABP_Sender</text>
  <polygon
     points="433,-160 433,-160 355,-160 355,-124 433,-124 "
     id="polygon61"
     style="fill:none;stroke:#000000"
     transform="translate(-161.14494,192.90724)" />
  <text
     x="232.85506"
     y="55.507248"
     font-size="14.00"
     id="text63"
     style="font-size:14px;font-style:normal;font-variant:normal;font-weight:normal;font-stretch:normal;text-anchor:middle;font-family:Arial;-inkscape-font-specification:Arial">ASOriginal</text>
  <polygon
     points="435,-106 435,-106 353,-106 353,-70 435,-70 "
     id="polygon84"
     style="fill:none;stroke:#000000"
     transform="translate(-161.14494,192.90724)" />
  <text
     x="232.85506"
     y="109.50724"
     font-size="14.00"
     id="text86"
     style="font-size:14px;font-style:normal;font-variant:normal;font-weight:normal;font-stretch:normal;text-anchor:middle;font-family:Arial;-inkscape-font-specification:Arial">ASReceiver</text>
  <polygon
     points="421,-52 421,-52 367,-52 367,-16 421,-16 "
     id="polygon107"
     style="fill:none;stroke:#000000"
     transform="translate(-161.14494,192.90724)" />
  <text
     x="232.85506"
     y="163.50723"
     font-size="14.00"
     id="text109"
     style="font-size:14px;font-style:normal;font-variant:normal;font-weight:normal;font-stretch:normal;text-anchor:middle;font-family:Arial;-inkscape-font-specification:Arial">ASAR</text>
  <polygon
     points="1688,-161 1688,-31 1522,-31 1522,-31 1522,-161 "
     id="polygon33"
     style="fill:none;stroke:#000000;stroke-width:1.25224853"
     transform="matrix(0.63770374,0,0,1,-747.56536,392.71901)" />
  <text
     x="275.94879"
     y="248.31879"
     font-size="14.00"
     id="text35"
     style="font-size:14px;font-style:normal;font-variant:normal;font-weight:normal;font-stretch:normal;text-anchor:middle;font-family:Arial;-inkscape-font-specification:Arial">ar: ABP_AR</text>
  <polygon
     points="1637,-129 1573,-129 1573,-93 1637,-93 1637,-129 "
     id="polygon114"
     style="fill:none;stroke:#000000"
     transform="translate(-1329.0508,392.71901)" />
  <text
     x="275.94879"
     y="286.31879"
     font-size="14.00"
     id="text116"
     style="font-size:14px;font-style:normal;font-variant:normal;font-weight:normal;font-stretch:normal;text-anchor:middle;font-family:Arial;-inkscape-font-specification:Arial">AARAS</text>
  <polygon
     points="1647,-75 1563,-75 1563,-39 1647,-39 1647,-75 "
     id="polygon121"
     style="fill:none;stroke:#000000"
     transform="translate(-1329.0508,392.71901)" />
  <text
     x="275.94879"
     y="340.31879"
     font-size="14.00"
     id="text123"
     style="font-size:14px;font-style:normal;font-variant:normal;font-weight:normal;font-stretch:normal;text-anchor:middle;font-family:Arial;-inkscape-font-specification:Arial">AARSender</text>
  <polygon
     points="431.392,-36.8277 431.274,-29.8286 431.274,-29.8286 421.334,-33.4969 "
     id="polygon130"
     style="fill:#000000;stroke:#000000;stroke-width:1"
     transform="matrix(-0.64278762,0.76604445,0.76604445,0.64278762,501.0706,-143.39749)" />
  <text
     x="614.03113"
     y="235.33583"
     font-size="14.00"
     id="text132"
     style="font-size:14px;font-style:normal;font-variant:normal;font-weight:normal;font-stretch:normal;text-anchor:middle;font-family:Arial;-inkscape-font-specification:Arial">c4()</text>
  <text
     x="680.60162"
     y="42.346485"
     font-size="14.00"
     id="text148"
     style="font-size:14px;font-style:normal;font-variant:normal;font-weight:normal;font-stretch:normal;text-anchor:middle;font-family:Arial;-inkscape-font-specification:Arial">c3(<tspan
   style="font-weight:bold"
   id="tspan3441">String</tspan>

)</text>
  <polygon
     points="761,-43 761,-227 977,-227 977,-43 761,-43 "
     id="polygon40"
     style="fill:none;stroke:#000000;stroke-width:1.12978685"
     transform="matrix(0.78344226,0,0,1,-133.3092,229.66019)" />
  <text
     x="547.50446"
     y="19.260193"
     font-size="14.00"
     id="text42"
     style="font-size:14px;font-style:normal;font-variant:normal;font-weight:normal;font-stretch:normal;text-anchor:middle;font-family:Arial;-inkscape-font-specification:Arial">receiver: ABP_Receiver</text>
  <polygon
     points="832,-141 832,-105 906,-105 906,-141 906,-141 "
     id="polygon91"
     style="fill:none;stroke:#000000"
     transform="translate(-321.49788,229.66019)" />
  <text
     x="547.50446"
     y="111.26019"
     font-size="14.00"
     id="text93"
     style="font-size:14px;font-style:normal;font-variant:normal;font-weight:normal;font-stretch:normal;text-anchor:middle;font-family:Arial;-inkscape-font-specification:Arial">ARSender</text>
  <polygon
     points="829,-195 829,-159 909,-159 909,-195 909,-195 "
     id="polygon137"
     style="fill:none;stroke:#000000"
     transform="translate(-321.49788,229.66019)" />
  <text
     x="547.50446"
     y="57.260193"
     font-size="14.00"
     id="text139"
     style="font-size:14px;font-style:normal;font-variant:normal;font-weight:normal;font-stretch:normal;text-anchor:middle;font-family:Arial;-inkscape-font-specification:Arial">AROriginal</text>
  <polygon
     points="842,-87 842,-51 896,-51 896,-87 896,-87 "
     id="polygon153"
     style="fill:none;stroke:#000000"
     transform="translate(-321.49788,229.66019)" />
  <text
     x="547.50446"
     y="165.26018"
     font-size="14.00"
     id="text155"
     style="font-size:14px;font-style:normal;font-variant:normal;font-weight:normal;font-stretch:normal;text-anchor:middle;font-family:Arial;-inkscape-font-specification:Arial">ARAS</text>
  <text
     x="160.28587"
     y="236.78276"
     font-size="14.00"
     id="text171"
     style="font-size:14px;font-style:normal;font-variant:normal;font-weight:normal;font-stretch:normal;text-anchor:middle;font-family:Arial;-inkscape-font-specification:Arial">c6()</text>
  <polygon
     points="1193,-173 1348,-173 1348,-43 1193,-43 1193,-43 "
     id="polygon47"
     style="fill:none;stroke:#000000;stroke-width:1.13498867"
     transform="matrix(0.77627741,0,0,1,-492.32893,404.27195)" />
  <text
     x="493.93289"
     y="247.87173"
     font-size="14.00"
     id="text49"
     style="font-size:14px;font-style:normal;font-variant:normal;font-weight:normal;font-stretch:normal;text-anchor:middle;font-family:Arial;-inkscape-font-specification:Arial">as: ABP_AS</text>
  <polygon
     points="1224,-51 1316,-51 1316,-87 1316,-87 1224,-87 "
     id="polygon160"
     style="fill:none;stroke:#000000"
     transform="translate(-776.56848,404.27195)" />
  <text
     x="493.43289"
     y="339.87173"
     font-size="14.00"
     id="text162"
     style="font-size:14px;font-style:normal;font-variant:normal;font-weight:normal;font-stretch:normal;text-anchor:middle;font-family:Arial;-inkscape-font-specification:Arial">AASReceiver</text>
  <polygon
     points="1238,-105 1302,-105 1302,-141 1302,-141 1238,-141 "
     id="polygon176"
     style="fill:none;stroke:#000000"
     transform="translate(-776.56848,404.27195)" />
  <text
     x="493.43289"
     y="285.87173"
     font-size="14.00"
     id="text178"
     style="font-size:14px;font-style:normal;font-variant:normal;font-weight:normal;font-stretch:normal;text-anchor:middle;font-family:Arial;-inkscape-font-specification:Arial">AASAR</text>
  <path
     d="m 461.17993,282.27985 -141.80093,0"
     id="path183"
     inkscape:connector-curvature="0"
     style="fill:none;stroke:#000000;stroke-dasharray:1, 5"
     sodipodi:nodetypes="cc" />
  <polygon
     points="1563.11,-116.003 1572.98,-112.147 1562.86,-109.007 1563.11,-116.003 "
     id="polygon185"
     style="fill:#000000;stroke:#000000"
     transform="matrix(-1,0,0,1,1883.5081,394.319)" />
  <text
     x="385.80789"
     y="273.51874"
     font-size="14.00"
     id="text187"
     style="font-size:14px;font-style:normal;font-variant:normal;font-weight:normal;font-stretch:normal;text-anchor:middle;font-family:Arial;-inkscape-font-specification:Arial">c5(<tspan
   style="font-weight:bold"
   id="tspan3435">Integer</tspan>

)</text>
  <path
     style="fill:none;stroke:#000000;stroke-width:0.80000001px;stroke-linecap:butt;stroke-linejoin:miter;stroke-opacity:1"
     d="m 62.278592,50.26604 123.205888,0"
     id="path3443"
     inkscape:connector-curvature="0" />
  <polygon
     transform="matrix(0.70710679,-0.70710679,0.70710679,0.70710679,266.66928,657.54322)"
     style="fill:#000000;stroke:#000000;stroke-width:1"
     id="polygon3445"
     points="431.274,-29.8286 421.334,-33.4969 431.392,-36.8277 431.274,-29.8286 " />
  <polygon
     transform="translate(385.41978,194.57783)"
     style="fill:#000000;stroke:#000000"
     id="polygon3451"
     points="344.731,-145.5 354.731,-142 344.731,-138.5 344.731,-145.5 " />
  <path
     style="fill:none;stroke:#000000;stroke-width:0.80000007px;stroke-linecap:butt;stroke-linejoin:miter;stroke-opacity:1"
     d="m 586.42567,52.148394 144.31726,0"
     id="path3453"
     inkscape:connector-curvature="0" />
  <polygon
     points="354.731,-142 344.731,-138.5 344.731,-145.5 344.731,-145.5 "
     id="polygon3455"
     style="fill:#000000;stroke:#000000"
     transform="translate(155.06934,248.32627)" />
  <path
     style="fill:none;stroke:#000000;stroke-width:0.80000001px;stroke-linecap:butt;stroke-linejoin:miter;stroke-opacity:1"
     d="M 233.04706,336.14842 C 163.6022,258.23552 170.39458,202.13588 200.3063,162.78291"
     id="path3457"
     inkscape:connector-curvature="0"
     sodipodi:nodetypes="cc" />
  <path
     sodipodi:nodetypes="cc"
     inkscape:connector-curvature="0"
     id="path3463"
     d="m 543.48856,334.08119 c 69.44486,-77.9129 60.73289,-135.48915 30.82117,-174.84212"
     style="fill:none;stroke:#000000;stroke-width:0.80000001px;stroke-linecap:butt;stroke-linejoin:miter;stroke-opacity:1" />
</svg>
