<?xml version="1.0" encoding="UTF-8" standalone="no"?>
<!-- Generated by graphviz version 2.26.3 (20100126.1600)
 -->

<!-- Title: A_reader Pages: 1 -->

<svg
   xmlns:dc="http://purl.org/dc/elements/1.1/"
   xmlns:cc="http://creativecommons.org/ns#"
   xmlns:rdf="http://www.w3.org/1999/02/22-rdf-syntax-ns#"
   xmlns:svg="http://www.w3.org/2000/svg"
   xmlns="http://www.w3.org/2000/svg"
   xmlns:sodipodi="http://sodipodi.sourceforge.net/DTD/sodipodi-0.dtd"
   xmlns:inkscape="http://www.inkscape.org/namespaces/inkscape"
   width="264.37134"
   height="186.41081"
   viewBox="0 0 211.49707 149.12865"
   id="svg2"
   version="1.1"
   inkscape:version="0.48.1 "
   sodipodi:docname="complex_s2a_reader.svg">
  <metadata
     id="metadata55">
    <rdf:RDF>
      <cc:Work
         rdf:about="">
        <dc:format>image/svg+xml</dc:format>
        <dc:type
           rdf:resource="http://purl.org/dc/dcmitype/StillImage" />
      </cc:Work>
    </rdf:RDF>
  </metadata>
  <defs
     id="defs53" />
  <sodipodi:namedview
     pagecolor="#ffffff"
     bordercolor="#666666"
     borderopacity="1"
     objecttolerance="10"
     gridtolerance="10"
     guidetolerance="10"
     inkscape:pageopacity="0"
     inkscape:pageshadow="2"
     inkscape:window-width="1680"
     inkscape:window-height="998"
     id="namedview51"
     showgrid="false"
     fit-margin-top="0"
     fit-margin-left="0"
     fit-margin-right="0"
     fit-margin-bottom="0"
     inkscape:zoom="1.2363636"
     inkscape:cx="205.93333"
     inkscape:cy="108.7016"
     inkscape:window-x="-8"
     inkscape:window-y="-8"
     inkscape:window-maximized="1"
     inkscape:current-layer="svg2" />
  <ellipse
     cx="57"
     cy="-105"
     rx="7.1999998"
     ry="7.1999998"
     id="ellipse12"
     d="m 64.2,-105 c 0,3.97645 -3.22355,7.2 -7.2,7.2 -3.97645,0 -7.2,-3.22355 -7.2,-7.2 0,-3.97645 3.22355,-7.2 7.2,-7.2 3.97645,0 7.2,3.22355 7.2,7.2 z"
     sodipodi:cx="57"
     sodipodi:cy="-105"
     sodipodi:rx="7.1999998"
     sodipodi:ry="7.1999998"
     style="fill:#000000;stroke:#000000"
     transform="translate(3.2173216,112.7)" />
  <polyline
     points="11.5,-1 102.5,-1 "
     id="polyline17"
     style="fill:none;stroke:#000000"
     transform="translate(3.2173216,112.7)" />
  <path
     d="m 105.71732,111.7 c 6,0 12,-6 12,-12"
     id="path19"
     inkscape:connector-curvature="0"
     style="fill:none;stroke:#000000" />
  <polyline
     points="114.5,-13 114.5,-47 "
     id="polyline21"
     style="fill:none;stroke:#000000"
     transform="translate(3.2173216,112.7)" />
  <path
     d="m 117.71732,65.7 c 0,-6 -6,-12 -12,-12"
     id="path23"
     inkscape:connector-curvature="0"
     style="fill:none;stroke:#000000" />
  <polyline
     points="102.5,-59 11.5,-59 "
     id="polyline25"
     style="fill:none;stroke:#000000"
     transform="translate(3.2173216,112.7)" />
  <path
     d="m 14.717321,53.7 c -5.9999994,0 -11.9999994,6 -11.9999994,12"
     id="path27"
     inkscape:connector-curvature="0"
     style="fill:none;stroke:#000000" />
  <polyline
     points="-0.5,-47 -0.5,-13 "
     id="polyline29"
     style="fill:none;stroke:#000000"
     transform="translate(3.2173216,112.7)" />
  <path
     d="m 2.7173216,99.7 c 0,6 6,12 11.9999994,12"
     id="path31"
     inkscape:connector-curvature="0"
     style="fill:none;stroke:#000000" />
  <text
     x="60.217323"
     y="87.299995"
     font-size="14.00"
     id="text33"
     style="font-size:14px;font-style:normal;font-variant:normal;font-weight:normal;font-stretch:normal;text-anchor:middle;font-family:Arial;-inkscape-font-specification:Arial">Reader</text>
  <path
     d="m 60.217321,15.165502 c 0,6.7949 0,17.3866 0,28.183298"
     id="path38"
     inkscape:connector-curvature="0"
     style="fill:none;stroke:#000000" />
  <polygon
     points="53.5001,-69.054 60.5001,-69.0539 60.5001,-69.0539 57,-59.054 "
     id="polygon40"
     style="fill:#000000;stroke:#000000"
     transform="translate(3.2173216,112.7)" />
  <path
     d="m 72.306256,112.25801 c -1.1012,10.278 -3.9252,17.456 -8.4721,17.456 -2.8418,0 -5.0106,-2.804 -6.5064,-7.416"
     id="path45"
     inkscape:connector-curvature="0"
     style="fill:none;stroke:#000000" />
  <polygon
     points="123.686,-26.8842 125.031,-20.0147 125.031,-20.0147 114.544,-21.5279 "
     id="polygon47"
     style="fill:#000000;stroke:#000000"
     transform="matrix(0,1,-1,0,33.834156,-2.2859882)" />
  <text
     x="105.33496"
     y="146.18236"
     font-size="14.00"
     id="text49"
     style="font-size:14px;font-style:normal;font-variant:normal;font-weight:normal;font-stretch:normal;text-anchor:middle;font-family:Arial;-inkscape-font-specification:Arial"><tspan
   style="font-weight:bold"
   id="tspan3071">receive</tspan>
 A(sendvar_Out) <tspan
   style="font-weight:bold"
   id="tspan3073">from</tspan>
 Out</text>
</svg>
