<?xml version="1.0" encoding="UTF-8" standalone="no"?>
<!-- Generated by graphviz version 2.26.3 (20100126.1600)
 -->

<!-- Title: A Pages: 1 -->

<svg
   xmlns:dc="http://purl.org/dc/elements/1.1/"
   xmlns:cc="http://creativecommons.org/ns#"
   xmlns:rdf="http://www.w3.org/1999/02/22-rdf-syntax-ns#"
   xmlns:svg="http://www.w3.org/2000/svg"
   xmlns="http://www.w3.org/2000/svg"
   xmlns:sodipodi="http://sodipodi.sourceforge.net/DTD/sodipodi-0.dtd"
   xmlns:inkscape="http://www.inkscape.org/namespaces/inkscape"
   width="308.103"
   height="413.75"
   viewBox="0 0 246.23044 331"
   id="svg2"
   version="1.1"
   inkscape:version="0.48.1 "
   sodipodi:docname="complex_s2a_a_after.svg">
  <metadata
     id="metadata146">
    <rdf:RDF>
      <cc:Work
         rdf:about="">
        <dc:format>image/svg+xml</dc:format>
        <dc:type
           rdf:resource="http://purl.org/dc/dcmitype/StillImage" />
      </cc:Work>
    </rdf:RDF>
  </metadata>
  <defs
     id="defs144" />
  <sodipodi:namedview
     pagecolor="#ffffff"
     bordercolor="#666666"
     borderopacity="1"
     objecttolerance="10"
     gridtolerance="10"
     guidetolerance="10"
     inkscape:pageopacity="0"
     inkscape:pageshadow="2"
     inkscape:window-width="1680"
     inkscape:window-height="998"
     id="namedview142"
     showgrid="false"
     fit-margin-top="0"
     fit-margin-left="0"
     fit-margin-right="0"
     fit-margin-bottom="0"
     inkscape:zoom="0.9238938"
     inkscape:cx="127.66392"
     inkscape:cy="216.58398"
     inkscape:window-x="-8"
     inkscape:window-y="-8"
     inkscape:window-maximized="1"
     inkscape:current-layer="svg2" />
  <polyline
     points="23.2703,-333 114.27,-333 "
     id="polyline17"
     style="fill:none;stroke:#000000"
     transform="translate(0.3849975,391.5)" />
  <path
     d="m 114.655,58.5 c 6,0 12,-6 12,-12"
     id="path19"
     inkscape:connector-curvature="0"
     style="fill:none;stroke:#000000" />
  <polyline
     points="126.27,-345 126.27,-379 "
     id="polyline21"
     style="fill:none;stroke:#000000"
     transform="translate(0.3849975,391.5)" />
  <path
     d="m 126.655,12.5 c 0,-6 -6,-12 -12,-12"
     id="path23"
     inkscape:connector-curvature="0"
     style="fill:none;stroke:#000000" />
  <polyline
     points="114.27,-391 23.2703,-391 "
     id="polyline25"
     style="fill:none;stroke:#000000"
     transform="translate(0.3849975,391.5)" />
  <path
     d="m 23.655298,0.5 c -6,0 -12,6 -12,12"
     id="path27"
     inkscape:connector-curvature="0"
     style="fill:none;stroke:#000000" />
  <polyline
     points="11.2703,-379 11.2703,-345 "
     id="polyline29"
     style="fill:none;stroke:#000000"
     transform="translate(0.3849975,391.5)" />
  <path
     d="m 11.655298,46.5 c 0,6 6,12 12,12"
     id="path31"
     inkscape:connector-curvature="0"
     style="fill:none;stroke:#000000" />
  <text
     x="69.155296"
     y="34.100006"
     font-size="14.00"
     id="text33"
     style="font-size:14px;font-style:normal;font-variant:normal;font-weight:normal;font-stretch:normal;text-anchor:middle;font-family:Arial;-inkscape-font-specification:Arial">S0</text>
  <path
     d="m 126.7,21.028 c 10.277,1.101 17.455,3.925 17.455,8.472 0,2.842 -2.804,5.011 -7.416,6.506"
     id="path45"
     inkscape:connector-curvature="0"
     style="fill:none;stroke:#000000" />
  <polygon
     points="136.801,-352.015 136.801,-352.015 126.315,-353.528 135.456,-358.884 "
     id="polygon47"
     style="fill:#000000;stroke:#000000"
     transform="translate(0.3849975,391.5)" />
  <text
     x="154.06651"
     y="18.513802"
     font-size="14.00"
     id="text49"
     style="font-size:14px;font-style:normal;font-variant:normal;font-weight:normal;font-stretch:normal;text-anchor:middle;font-family:Arial;-inkscape-font-specification:Arial">v := v</text>
  <polyline
     points="23.2703,-205 114.27,-205 "
     id="polyline54"
     style="fill:none;stroke:#000000"
     transform="translate(0.3849975,391.5)" />
  <path
     d="m 114.655,186.5 c 6,0 12,-6 12,-12"
     id="path56"
     inkscape:connector-curvature="0"
     style="fill:none;stroke:#000000" />
  <polyline
     points="126.27,-217 126.27,-251 "
     id="polyline58"
     style="fill:none;stroke:#000000"
     transform="translate(0.3849975,391.5)" />
  <path
     d="m 126.655,140.5 c 0,-6 -6,-12 -12,-12"
     id="path60"
     inkscape:connector-curvature="0"
     style="fill:none;stroke:#000000" />
  <polyline
     points="114.27,-263 23.2703,-263 "
     id="polyline62"
     style="fill:none;stroke:#000000"
     transform="translate(0.3849975,391.5)" />
  <path
     d="m 23.655298,128.5 c -6,0 -12,6 -12,12"
     id="path64"
     inkscape:connector-curvature="0"
     style="fill:none;stroke:#000000" />
  <polyline
     points="11.2703,-251 11.2703,-217 "
     id="polyline66"
     style="fill:none;stroke:#000000"
     transform="translate(0.3849975,391.5)" />
  <path
     d="m 11.655298,174.5 c 0,6 6,12 12,12"
     id="path68"
     inkscape:connector-curvature="0"
     style="fill:none;stroke:#000000" />
  <text
     x="69.155296"
     y="162.10001"
     font-size="14.00"
     id="text70"
     style="font-size:14px;font-style:normal;font-variant:normal;font-weight:normal;font-stretch:normal;text-anchor:middle;font-family:Arial;-inkscape-font-specification:Arial">S2</text>
  <path
     d="M 19.678998,58.585 C 13.832398,64.112 8.6957175,70.419 5.1552775,77.5 c -6.36037,12.721 -6.36037,19.279 0,32 2.04682,4.094 4.62715,7.929 7.5697205,11.504"
     id="path75"
     inkscape:connector-curvature="0"
     style="fill:none;stroke:#000000" />
  <polygon
     points="15.0039,-272.772 15.0039,-272.772 19.294,-263.085 9.89912,-267.982 "
     id="polygon77"
     style="fill:#000000;stroke:#000000"
     transform="translate(0.3849975,391.5)" />
  <text
     x="63.455296"
     y="90.100006"
     font-size="14.00"
     id="text79"
     style="font-size:14px;font-style:normal;font-variant:normal;font-weight:normal;font-stretch:normal;text-anchor:middle;font-family:Arial;-inkscape-font-specification:Arial"><tspan
   style="font-weight:bold"
   id="tspan3243">send</tspan>
 A(1) <tspan
   style="font-weight:bold"
   id="tspan3245">to</tspan>
 Out;</text>
  <text
     x="63.455296"
     y="106.10001"
     font-size="14.00"
     id="text81"
     style="font-size:14px;font-style:normal;font-variant:normal;font-weight:normal;font-stretch:normal;text-anchor:middle;font-family:Arial;-inkscape-font-specification:Arial">sendvar_Out == 0</text>
  <path
     d="m 115.521,128.286 c 4.51,-5.754 8.477,-12.098 11.034,-18.786 5.08,-13.284 5.08,-18.716 0,-32 -1.358,-3.553 -3.115,-7.009 -5.139,-10.331"
     id="path86"
     inkscape:connector-curvature="0"
     style="fill:none;stroke:#000000" />
  <polygon
     points="109.326,-326.585 103.584,-322.581 103.584,-322.581 100.736,-332.786 "
     id="polygon88"
     style="fill:#000000;stroke:#000000"
     transform="translate(14.784998,391.5)" />
  <text
     x="191.7551"
     y="90.100006"
     font-size="14.00"
     id="text90"
     style="font-size:14px;font-style:normal;font-variant:normal;font-weight:normal;font-stretch:normal;text-anchor:middle;font-family:Arial;-inkscape-font-specification:Arial">sendvar_Out := 2;</text>
  <text
     x="191.7551"
     y="106.10001"
     font-size="14.00"
     id="text92"
     style="font-size:14px;font-style:normal;font-variant:normal;font-weight:normal;font-stretch:normal;text-anchor:middle;font-family:Arial;-inkscape-font-specification:Arial"><tspan
   style="font-weight:bold"
   id="tspan3247">send</tspan>
 A(4) <tspan
   style="font-weight:bold"
   id="tspan3249">to</tspan>
 Out</text>
  <polyline
     points="23.2703,-61 114.27,-61 "
     id="polyline97"
     style="fill:none;stroke:#000000"
     transform="translate(0.3849975,391.5)" />
  <path
     d="m 114.655,330.5 c 6,0 12,-6 12,-12"
     id="path99"
     inkscape:connector-curvature="0"
     style="fill:none;stroke:#000000" />
  <polyline
     points="126.27,-73 126.27,-107 "
     id="polyline101"
     style="fill:none;stroke:#000000"
     transform="translate(0.3849975,391.5)" />
  <path
     d="m 126.655,284.5 c 0,-6 -6,-12 -12,-12"
     id="path103"
     inkscape:connector-curvature="0"
     style="fill:none;stroke:#000000" />
  <polyline
     points="114.27,-119 23.2703,-119 "
     id="polyline105"
     style="fill:none;stroke:#000000"
     transform="translate(0.3849975,391.5)" />
  <path
     d="m 23.655298,272.5 c -6,0 -12,6 -12,12"
     id="path107"
     inkscape:connector-curvature="0"
     style="fill:none;stroke:#000000" />
  <polyline
     points="11.2703,-107 11.2703,-73 "
     id="polyline109"
     style="fill:none;stroke:#000000"
     transform="translate(0.3849975,391.5)" />
  <path
     d="m 11.655298,318.5 c 0,6 6,12 12,12"
     id="path111"
     inkscape:connector-curvature="0"
     style="fill:none;stroke:#000000" />
  <text
     x="69.155296"
     y="306.10001"
     font-size="14.00"
     id="text113"
     style="font-size:14px;font-style:normal;font-variant:normal;font-weight:normal;font-stretch:normal;text-anchor:middle;font-family:Arial;-inkscape-font-specification:Arial">S1</text>
  <path
     d="m 69.155298,186.641 c 0,21.762 0,51.739 0,75.611"
     id="path118"
     inkscape:connector-curvature="0"
     style="fill:none;stroke:#000000" />
  <polygon
     points="72.2704,-129.097 72.2704,-129.097 68.7703,-119.097 65.2704,-129.097 "
     id="polygon120"
     style="fill:#000000;stroke:#000000"
     transform="translate(0.3849975,391.5)" />
  <text
     x="133.85503"
     y="218.10001"
     font-size="14.00"
     id="text122"
     style="font-size:14px;font-style:normal;font-variant:normal;font-weight:normal;font-stretch:normal;text-anchor:middle;font-family:Arial;-inkscape-font-specification:Arial">sendvar_Out == 2;</text>
  <text
     x="133.85503"
     y="234.10001"
     font-size="14.00"
     id="text124"
     style="font-size:14px;font-style:normal;font-variant:normal;font-weight:normal;font-stretch:normal;text-anchor:middle;font-family:Arial;-inkscape-font-specification:Arial"><tspan
   style="font-weight:bold"
   id="tspan3251">send</tspan>
 A(3) <tspan
   style="font-weight:bold"
   id="tspan3253">to</tspan>
 Out;</text>
  <text
     x="133.85503"
     y="250.10001"
     font-size="14.00"
     id="text126"
     style="font-size:14px;font-style:normal;font-variant:normal;font-weight:normal;font-stretch:normal;text-anchor:middle;font-family:Arial;-inkscape-font-specification:Arial">sendvar_Out == 0</text>
</svg>
