<?xml version="1.0" encoding="UTF-8" standalone="no"?>
<!-- Generated by graphviz version 2.26.3 (20100126.1600)
 -->

<!-- Title: B Pages: 1 -->

<svg
   xmlns:dc="http://purl.org/dc/elements/1.1/"
   xmlns:cc="http://creativecommons.org/ns#"
   xmlns:rdf="http://www.w3.org/1999/02/22-rdf-syntax-ns#"
   xmlns:svg="http://www.w3.org/2000/svg"
   xmlns="http://www.w3.org/2000/svg"
   xmlns:sodipodi="http://sodipodi.sourceforge.net/DTD/sodipodi-0.dtd"
   xmlns:inkscape="http://www.inkscape.org/namespaces/inkscape"
   width="271.54291"
   height="427.86966"
   viewBox="0 0 217.61823 342.29573"
   id="svg2"
   version="1.1"
   inkscape:version="0.48.1 "
   sodipodi:docname="complex_s2a_b_after.svg">
  <metadata
     id="metadata146">
    <rdf:RDF>
      <cc:Work
         rdf:about="">
        <dc:format>image/svg+xml</dc:format>
        <dc:type
           rdf:resource="http://purl.org/dc/dcmitype/StillImage" />
      </cc:Work>
    </rdf:RDF>
  </metadata>
  <defs
     id="defs144" />
  <sodipodi:namedview
     pagecolor="#ffffff"
     bordercolor="#666666"
     borderopacity="1"
     objecttolerance="10"
     gridtolerance="10"
     guidetolerance="10"
     inkscape:pageopacity="0"
     inkscape:pageshadow="2"
     inkscape:window-width="1680"
     inkscape:window-height="998"
     id="namedview142"
     showgrid="false"
     fit-margin-top="0"
     fit-margin-left="0"
     fit-margin-right="0"
     fit-margin-bottom="0"
     inkscape:zoom="0.95779816"
     inkscape:cx="167.58498"
     inkscape:cy="180.68173"
     inkscape:window-x="-8"
     inkscape:window-y="-8"
     inkscape:window-maximized="1"
     inkscape:current-layer="svg2" />
  <polyline
     points="13.9139,-317 104.914,-317 "
     id="polyline17"
     style="fill:none;stroke:#000000"
     transform="translate(0.5,403.0154)" />
  <path
     d="m 105.414,86.015399 c 6,0 12,-6 12,-12"
     id="path19"
     inkscape:connector-curvature="0"
     style="fill:none;stroke:#000000" />
  <polyline
     points="116.914,-329 116.914,-363 "
     id="polyline21"
     style="fill:none;stroke:#000000"
     transform="translate(0.5,403.0154)" />
  <path
     d="m 117.414,40.015399 c 0,-6 -6,-12 -12,-12"
     id="path23"
     inkscape:connector-curvature="0"
     style="fill:none;stroke:#000000" />
  <polyline
     points="104.914,-375 13.9139,-375 "
     id="polyline25"
     style="fill:none;stroke:#000000"
     transform="translate(0.5,403.0154)" />
  <path
     d="m 14.4139,28.015399 c -6,0 -12,6 -12,12"
     id="path27"
     inkscape:connector-curvature="0"
     style="fill:none;stroke:#000000" />
  <polyline
     points="1.9139,-363 1.9139,-329 "
     id="polyline29"
     style="fill:none;stroke:#000000"
     transform="translate(0.5,403.0154)" />
  <path
     d="m 2.4139,74.015399 c 0,6 6,12 12,12"
     id="path31"
     inkscape:connector-curvature="0"
     style="fill:none;stroke:#000000" />
  <text
     x="59.913898"
     y="61.615406"
     font-size="14.00"
     id="text33"
     style="font-size:14px;font-style:normal;font-variant:normal;font-weight:normal;font-stretch:normal;text-anchor:middle;font-family:Arial;-inkscape-font-specification:Arial">R0</text>
  <path
     d="m 117.458,48.543399 c 10.277,1.101 17.456,3.925 17.456,8.472 0,2.842 -2.804,5.011 -7.416,6.506"
     id="path45"
     inkscape:connector-curvature="0"
     style="fill:none;stroke:#000000" />
  <polygon
     points="127.445,-336.015 127.445,-336.015 116.958,-337.528 126.099,-342.884 "
     id="polygon47"
     style="fill:#000000;stroke:#000000"
     transform="translate(0.5,403.0154)" />
  <text
     x="170.71002"
     y="9.6362257"
     font-size="14.00"
     id="text49"
     style="font-size:14px;font-style:normal;font-variant:normal;font-weight:normal;font-stretch:normal;text-anchor:middle;font-family:Arial;-inkscape-font-specification:Arial">recvar_In == 4;</text>
  <text
     x="170.71002"
     y="25.636227"
     font-size="14.00"
     id="text51"
     style="font-size:14px;font-style:normal;font-variant:normal;font-weight:normal;font-stretch:normal;text-anchor:middle;font-family:Arial;-inkscape-font-specification:Arial">recvar_In := 3;</text>
  <text
     x="170.71002"
     y="41.636234"
     font-size="14.00"
     id="text53"
     style="font-size:14px;font-style:normal;font-variant:normal;font-weight:normal;font-stretch:normal;text-anchor:middle;font-family:Arial;-inkscape-font-specification:Arial"><tspan
   style="font-weight:bold"
   id="tspan3246">send</tspan>
 A(0) <tspan
   style="font-weight:bold"
   id="tspan3248">to</tspan>
 In</text>
  <polyline
     points="13.9139,-189 104.914,-189 "
     id="polyline58"
     style="fill:none;stroke:#000000"
     transform="translate(0.5,403.0154)" />
  <path
     d="m 105.414,214.0154 c 6,0 12,-6 12,-12"
     id="path60"
     inkscape:connector-curvature="0"
     style="fill:none;stroke:#000000" />
  <polyline
     points="116.914,-201 116.914,-235 "
     id="polyline62"
     style="fill:none;stroke:#000000"
     transform="translate(0.5,403.0154)" />
  <path
     d="m 117.414,168.0154 c 0,-6 -6,-12 -12,-12"
     id="path64"
     inkscape:connector-curvature="0"
     style="fill:none;stroke:#000000" />
  <polyline
     points="104.914,-247 13.9139,-247 "
     id="polyline66"
     style="fill:none;stroke:#000000"
     transform="translate(0.5,403.0154)" />
  <path
     d="m 14.4139,156.0154 c -6,0 -12,6 -12,12"
     id="path68"
     inkscape:connector-curvature="0"
     style="fill:none;stroke:#000000" />
  <polyline
     points="1.9139,-235 1.9139,-201 "
     id="polyline70"
     style="fill:none;stroke:#000000"
     transform="translate(0.5,403.0154)" />
  <path
     d="m 2.4139,202.0154 c 0,6 6,12 12,12"
     id="path72"
     inkscape:connector-curvature="0"
     style="fill:none;stroke:#000000" />
  <text
     x="59.913898"
     y="189.6154"
     font-size="14.00"
     id="text74"
     style="font-size:14px;font-style:normal;font-variant:normal;font-weight:normal;font-stretch:normal;text-anchor:middle;font-family:Arial;-inkscape-font-specification:Arial">R2</text>
  <path
     d="m 18.0949,86.167399 c -5.3415,5.611 -10.03438,11.925 -13.181,18.848001 -5.8852,12.947 -5.8852,19.053 0,32 1.76998,3.894 4.0292,7.595 6.6179,11.088"
     id="path79"
     inkscape:connector-curvature="0"
     style="fill:none;stroke:#000000" />
  <polygon
     points="13.8098,-257.048 13.8098,-257.048 17.5949,-247.152 8.46492,-252.527 "
     id="polygon81"
     style="fill:#000000;stroke:#000000"
     transform="translate(0.5,403.0154)" />
  <text
     x="57.928043"
     y="117.6154"
     font-size="14.00"
     id="text83"
     style="font-size:14px;font-style:normal;font-variant:normal;font-weight:normal;font-stretch:normal;text-anchor:middle;font-family:Arial;-inkscape-font-specification:Arial">recvar_In == 1;</text>
  <text
     x="57.928043"
     y="133.6154"
     font-size="14.00"
     id="text85"
     style="font-size:14px;font-style:normal;font-variant:normal;font-weight:normal;font-stretch:normal;text-anchor:middle;font-family:Arial;-inkscape-font-specification:Arial"><tspan
   style="font-weight:bold"
   id="tspan3250">send</tspan>
 A(2) <tspan
   style="font-weight:bold"
   id="tspan3252">to</tspan>
 In</text>
  <path
     d="m 104.70975,155.9014 c 3.8795,-5.897 7.2972,-12.316 9.43811,-18.886 4.4065,-13.522 4.4065,-18.478 0,-32 -1.1039,-3.388 -2.54731,-6.735001 -4.21841,-9.992001"
     id="path90"
     inkscape:connector-curvature="0"
     style="fill:none;stroke:#000000" />
  <polygon
     points="87.0188,-306.49 87.0188,-306.49 84.9758,-316.886 93.0559,-310.033 "
     id="polygon92"
     style="fill:#000000;stroke:#000000"
     transform="translate(19.733934,403.0154)" />
  <text
     x="169.26492"
     y="125.6154"
     font-size="14.00"
     id="text94"
     style="font-size:14px;font-style:normal;font-variant:normal;font-weight:normal;font-stretch:normal;text-anchor:middle;font-family:Arial;-inkscape-font-specification:Arial">recvar_In == 4</text>
  <polyline
     points="13.9139,-61 104.914,-61 "
     id="polyline99"
     style="fill:none;stroke:#000000"
     transform="translate(0.5,403.0154)" />
  <path
     d="m 105.414,342.0154 c 6,0 12,-6 12,-12"
     id="path101"
     inkscape:connector-curvature="0"
     style="fill:none;stroke:#000000" />
  <polyline
     points="116.914,-73 116.914,-107 "
     id="polyline103"
     style="fill:none;stroke:#000000"
     transform="translate(0.5,403.0154)" />
  <path
     d="m 117.414,296.0154 c 0,-6 -6,-12 -12,-12"
     id="path105"
     inkscape:connector-curvature="0"
     style="fill:none;stroke:#000000" />
  <polyline
     points="104.914,-119 13.9139,-119 "
     id="polyline107"
     style="fill:none;stroke:#000000"
     transform="translate(0.5,403.0154)" />
  <path
     d="m 14.4139,284.0154 c -6,0 -12,6 -12,12"
     id="path109"
     inkscape:connector-curvature="0"
     style="fill:none;stroke:#000000" />
  <polyline
     points="1.9139,-107 1.9139,-73 "
     id="polyline111"
     style="fill:none;stroke:#000000"
     transform="translate(0.5,403.0154)" />
  <path
     d="m 2.4139,330.0154 c 0,6 6,12 12,12"
     id="path113"
     inkscape:connector-curvature="0"
     style="fill:none;stroke:#000000" />
  <text
     x="59.913898"
     y="317.61542"
     font-size="14.00"
     id="text115"
     style="font-size:14px;font-style:normal;font-variant:normal;font-weight:normal;font-stretch:normal;text-anchor:middle;font-family:Arial;-inkscape-font-specification:Arial">R1</text>
  <path
     d="m 59.9139,214.0604 c 0,17.551 0,40.16 0,59.336"
     id="path120"
     inkscape:connector-curvature="0"
     style="fill:none;stroke:#000000" />
  <polygon
     points="62.914,-129.373 62.914,-129.373 59.4139,-119.373 55.914,-129.373 "
     id="polygon122"
     style="fill:#000000;stroke:#000000"
     transform="translate(0.5,403.0154)" />
  <text
     x="116.13381"
     y="245.6154"
     font-size="14.00"
     id="text124"
     style="font-size:14px;font-style:normal;font-variant:normal;font-weight:normal;font-stretch:normal;text-anchor:middle;font-family:Arial;-inkscape-font-specification:Arial">recvar_In == 3;</text>
  <text
     x="116.13381"
     y="261.61542"
     font-size="14.00"
     id="text126"
     style="font-size:14px;font-style:normal;font-variant:normal;font-weight:normal;font-stretch:normal;text-anchor:middle;font-family:Arial;-inkscape-font-specification:Arial"><tspan
   style="font-weight:bold"
   id="tspan3254">send</tspan>
 A(0) <tspan
   style="font-weight:bold"
   id="tspan3256">to</tspan>
 In</text>
</svg>
