<?xml version="1.0" encoding="UTF-8" standalone="no"?>
<!-- Generated by graphviz version 2.26.3 (20100126.1600)
 -->

<!-- Title: A Pages: 1 -->

<svg
   xmlns:dc="http://purl.org/dc/elements/1.1/"
   xmlns:cc="http://creativecommons.org/ns#"
   xmlns:rdf="http://www.w3.org/1999/02/22-rdf-syntax-ns#"
   xmlns:svg="http://www.w3.org/2000/svg"
   xmlns="http://www.w3.org/2000/svg"
   xmlns:sodipodi="http://sodipodi.sourceforge.net/DTD/sodipodi-0.dtd"
   xmlns:inkscape="http://www.inkscape.org/namespaces/inkscape"
   width="205.78516"
   height="213.75"
   viewBox="0 0 164.62813 171"
   id="svg2"
   version="1.1"
   inkscape:version="0.48.1 "
   sodipodi:docname="complex_s2a_a_before.svg">
  <metadata
     id="metadata99">
    <rdf:RDF>
      <cc:Work
         rdf:about="">
        <dc:format>image/svg+xml</dc:format>
        <dc:type
           rdf:resource="http://purl.org/dc/dcmitype/StillImage" />
      </cc:Work>
    </rdf:RDF>
  </metadata>
  <defs
     id="defs97" />
  <sodipodi:namedview
     pagecolor="#ffffff"
     bordercolor="#666666"
     borderopacity="1"
     objecttolerance="10"
     gridtolerance="10"
     guidetolerance="10"
     inkscape:pageopacity="0"
     inkscape:pageshadow="2"
     inkscape:window-width="1680"
     inkscape:window-height="998"
     id="namedview95"
     showgrid="false"
     fit-margin-top="0"
     fit-margin-left="0"
     fit-margin-right="0"
     fit-margin-bottom="0"
     inkscape:zoom="1.430137"
     inkscape:cx="46.671463"
     inkscape:cy="86.217837"
     inkscape:window-x="-8"
     inkscape:window-y="-8"
     inkscape:window-maximized="1"
     inkscape:current-layer="svg2" />
  <polyline
     points="11.5,-173 102.5,-173 "
     id="polyline17"
     style="fill:none;stroke:#000000"
     transform="translate(1,231.5)" />
  <path
     d="m 103.5,58.5 c 6,0 12,-6 12,-12"
     id="path19"
     inkscape:connector-curvature="0"
     style="fill:none;stroke:#000000" />
  <polyline
     points="114.5,-185 114.5,-219 "
     id="polyline21"
     style="fill:none;stroke:#000000"
     transform="translate(1,231.5)" />
  <path
     d="m 115.5,12.5 c 0,-6 -6,-12 -12,-12"
     id="path23"
     inkscape:connector-curvature="0"
     style="fill:none;stroke:#000000" />
  <polyline
     points="102.5,-231 11.5,-231 "
     id="polyline25"
     style="fill:none;stroke:#000000"
     transform="translate(1,231.5)" />
  <path
     d="m 12.5,0.5 c -6,0 -12,6 -12,12"
     id="path27"
     inkscape:connector-curvature="0"
     style="fill:none;stroke:#000000" />
  <polyline
     points="-0.5,-219 -0.5,-185 "
     id="polyline29"
     style="fill:none;stroke:#000000"
     transform="translate(1,231.5)" />
  <path
     d="m 0.5,46.5 c 0,6 6,12 12,12"
     id="path31"
     inkscape:connector-curvature="0"
     style="fill:none;stroke:#000000" />
  <text
     x="58"
     y="34.100006"
     font-size="14.00"
     id="text33"
     style="font-size:14px;font-style:normal;font-variant:normal;font-weight:normal;font-stretch:normal;text-anchor:middle;font-family:Arial;-inkscape-font-specification:Arial">S0</text>
  <path
     d="M 115.544,21.028 C 125.822,22.129 133,24.953 133,29.5 c 0,2.842 -2.804,5.011 -7.416,6.506"
     id="path45"
     inkscape:connector-curvature="0"
     style="fill:none;stroke:#000000" />
  <polygon
     points="125.031,-192.015 125.031,-192.015 114.544,-193.528 123.686,-198.884 "
     id="polygon47"
     style="fill:#000000;stroke:#000000"
     transform="translate(1,231.5)" />
  <text
     x="141.91534"
     y="16.75901"
     font-size="14.00"
     id="text49"
     style="font-size:14px;font-style:normal;font-variant:normal;font-weight:normal;font-stretch:normal;text-anchor:middle;font-family:Arial;-inkscape-font-specification:Arial">v := v</text>
  <polyline
     points="11.5,-61 102.5,-61 "
     id="polyline54"
     style="fill:none;stroke:#000000"
     transform="translate(1,231.5)" />
  <path
     d="m 103.5,170.5 c 6,0 12,-6 12,-12"
     id="path56"
     inkscape:connector-curvature="0"
     style="fill:none;stroke:#000000" />
  <polyline
     points="114.5,-73 114.5,-107 "
     id="polyline58"
     style="fill:none;stroke:#000000"
     transform="translate(1,231.5)" />
  <path
     d="m 115.5,124.5 c 0,-6 -6,-12 -12,-12"
     id="path60"
     inkscape:connector-curvature="0"
     style="fill:none;stroke:#000000" />
  <polyline
     points="102.5,-119 11.5,-119 "
     id="polyline62"
     style="fill:none;stroke:#000000"
     transform="translate(1,231.5)" />
  <path
     d="m 12.5,112.5 c -6,0 -12,6 -12,12"
     id="path64"
     inkscape:connector-curvature="0"
     style="fill:none;stroke:#000000" />
  <polyline
     points="-0.5,-107 -0.5,-73 "
     id="polyline66"
     style="fill:none;stroke:#000000"
     transform="translate(1,231.5)" />
  <path
     d="m 0.5,158.5 c 0,6 6,12 12,12"
     id="path68"
     inkscape:connector-curvature="0"
     style="fill:none;stroke:#000000" />
  <text
     x="58"
     y="146.10001"
     font-size="14.00"
     id="text70"
     style="font-size:14px;font-style:normal;font-variant:normal;font-weight:normal;font-stretch:normal;text-anchor:middle;font-family:Arial;-inkscape-font-specification:Arial">S1</text>
  <path
     d="m 58,58.634 c 0,13.248 0,29.124 0,43.419"
     id="path75"
     inkscape:connector-curvature="0"
     style="fill:none;stroke:#000000" />
  <polygon
     points="60.5001,-129.377 60.5001,-129.377 57,-119.378 53.5001,-129.378 "
     id="polygon77"
     style="fill:#000000;stroke:#000000"
     transform="translate(1,231.5)" />
  <text
     x="115.3"
     y="90.100006"
     font-size="14.00"
     id="text79"
     style="font-size:14px;font-style:normal;font-variant:normal;font-weight:normal;font-stretch:normal;text-anchor:middle;font-family:Arial;-inkscape-font-specification:Arial"><tspan
   style="font-weight:bold"
   id="tspan3155">send</tspan>
 A() <tspan
   style="font-weight:bold"
   id="tspan3157">to</tspan>
 Out</text>
</svg>
