<?xml version="1.0" encoding="UTF-8" standalone="no"?>
<!-- Generated by graphviz version 2.26.3 (20100126.1600)
 -->

<!-- Title: ExclusiveChannels_ex Pages: 1 -->

<svg
   xmlns:dc="http://purl.org/dc/elements/1.1/"
   xmlns:cc="http://creativecommons.org/ns#"
   xmlns:rdf="http://www.w3.org/1999/02/22-rdf-syntax-ns#"
   xmlns:svg="http://www.w3.org/2000/svg"
   xmlns="http://www.w3.org/2000/svg"
   xmlns:sodipodi="http://sodipodi.sourceforge.net/DTD/sodipodi-0.dtd"
   xmlns:inkscape="http://www.inkscape.org/namespaces/inkscape"
   width="665.17963"
   height="298.75"
   viewBox="0 0 532.14369 239"
   id="svg2"
   version="1.1"
   inkscape:version="0.48.1 "
   sodipodi:docname="ExclusiveChannels_Communication_after.svg">
  <metadata
     id="metadata119">
    <rdf:RDF>
      <cc:Work
         rdf:about="">
        <dc:format>image/svg+xml</dc:format>
        <dc:type
           rdf:resource="http://purl.org/dc/dcmitype/StillImage" />
        <dc:title></dc:title>
      </cc:Work>
    </rdf:RDF>
  </metadata>
  <defs
     id="defs117" />
  <sodipodi:namedview
     pagecolor="#ffffff"
     bordercolor="#666666"
     borderopacity="1"
     objecttolerance="10"
     gridtolerance="10"
     guidetolerance="10"
     inkscape:pageopacity="0"
     inkscape:pageshadow="2"
     inkscape:window-width="1680"
     inkscape:window-height="998"
     id="namedview115"
     showgrid="false"
     fit-margin-top="0"
     fit-margin-left="0"
     fit-margin-right="0"
     fit-margin-bottom="0"
     inkscape:zoom="1.1270526"
     inkscape:cx="486.84907"
     inkscape:cy="116.46239"
     inkscape:window-x="-8"
     inkscape:window-y="-8"
     inkscape:window-maximized="1"
     inkscape:current-layer="svg2" />
  <g
     id="g3090"
     transform="translate(287.82887,2.1530781e-8)">
    <g
       transform="matrix(0.85799631,0,0,1,-6.3639705,246.5)"
       id="graph2"
       class="cluster">
      <title
         id="title10">cluster_a</title>
      <polygon
         points="110,-8 8,-8 8,-8 8,-246 110,-246 "
         id="polygon12"
         style="fill:none;stroke:#000000;stroke-width:1.07958615" />
      <text
         x="59"
         y="-229.39999"
         font-size="14.00"
         id="text14"
         style="font-size:14px;text-anchor:middle;font-family:'Times New Roman,serif'">a: A</text>
    </g>
    <g
       transform="matrix(0.90776184,0,0,1,-63.008647,246.5)"
       id="graph3"
       class="cluster">
      <title
         id="title17">cluster_b</title>
      <polygon
         points="246,-8 246,-8 246,-246 338,-246 338,-8 "
         id="polygon19"
         style="fill:none;stroke:#000000;stroke-width:1.0495764" />
      <text
         x="292"
         y="-229.39999"
         font-size="14.00"
         id="text21"
         style="font-size:14px;text-anchor:middle;font-family:'Times New Roman,serif'">b: B</text>
    </g>
    <polygon
       transform="matrix(0.6773399,0,0,1,4.2947575,246.5)"
       style="fill:none;stroke:#000000;stroke-width:1.21505702"
       id="polygon26"
       points="17,-214 17,-178 101,-178 101,-214 101,-214 " />
    <text
       style="font-size:14px;text-anchor:middle;font-family:'Times New Roman,serif'"
       id="text28"
       font-size="14.00"
       y="55.100006"
       x="44.257786">Out1</text>
    <polygon
       transform="matrix(0.72869421,0,0,1,-10.720898,246.5)"
       style="fill:none;stroke:#000000;stroke-width:1.17145967"
       id="polygon33"
       points="255,-214 255,-178 329,-178 329,-214 329,-214 " />
    <text
       style="font-size:14px;text-anchor:middle;font-family:'Times New Roman,serif'"
       id="text35"
       font-size="14.00"
       y="55.100006"
       x="202.05769">In1</text>
    <path
       sodipodi:nodetypes="cc"
       style="fill:none;stroke:#000000;stroke-width:0.99999994"
       inkscape:connector-curvature="0"
       id="path40"
       d="m 72.351642,50.5 c 27.40834,0 63.593038,0 92.128158,0" />
    <polygon
       transform="translate(-80.342188,246.5)"
       style="fill:#000000;stroke:#000000"
       id="polygon42"
       points="254.16,-196 244.16,-192.5 244.16,-199.5 244.16,-199.5 " />
    <text
       style="font-size:14px;text-anchor:middle;font-family:'Times New Roman,serif'"
       id="text44"
       font-size="14.00"
       y="47.100006"
       x="123.25782">C1()</text>
    <polygon
       transform="matrix(0.6773399,0,0,1,4.2947575,246.5)"
       style="fill:none;stroke:#000000;stroke-width:1.21505702"
       id="polygon49"
       points="17,-160 17,-124 101,-124 101,-160 101,-160 " />
    <text
       style="font-size:14px;text-anchor:middle;font-family:'Times New Roman,serif'"
       id="text51"
       font-size="14.00"
       y="109.10001"
       x="44.257786">Out2</text>
    <polygon
       transform="matrix(0.72869421,0,0,1,-10.720898,246.5)"
       style="fill:none;stroke:#000000;stroke-width:1.17145967"
       id="polygon56"
       points="255,-160 255,-124 329,-124 329,-160 329,-160 " />
    <text
       style="font-size:14px;text-anchor:middle;font-family:'Times New Roman,serif'"
       id="text58"
       font-size="14.00"
       y="109.10001"
       x="202.05769">In2</text>
    <path
       sodipodi:nodetypes="cc"
       style="fill:none;stroke:#000000;stroke-width:1"
       inkscape:connector-curvature="0"
       id="path63"
       d="m 72.976762,104.5 c 27.802398,0 64.576358,0 93.521708,0" />
    <polygon
       transform="translate(-80.342188,246.5)"
       style="fill:#000000;stroke:#000000"
       id="polygon65"
       points="254.16,-142 244.16,-138.5 244.16,-145.5 244.16,-145.5 " />
    <text
       style="font-size:14px;text-anchor:middle;font-family:'Times New Roman,serif'"
       id="text67"
       font-size="14.00"
       y="101.10001"
       x="123.25782">C2()</text>
    <polygon
       transform="matrix(0.6773399,0,0,1,4.2947575,246.5)"
       style="fill:none;stroke:#000000;stroke-width:1.21505702"
       id="polygon72"
       points="17,-106 17,-70 101,-70 101,-106 101,-106 " />
    <text
       style="font-size:14px;text-anchor:middle;font-family:'Times New Roman,serif'"
       id="text74"
       font-size="14.00"
       y="163.10001"
       x="44.257786">Out3</text>
    <polygon
       transform="matrix(0.72869421,0,0,1,-10.720898,246.5)"
       style="fill:none;stroke:#000000;stroke-width:1.17145967"
       id="polygon79"
       points="255,-106 255,-70 329,-70 329,-106 329,-106 " />
    <text
       style="font-size:14px;text-anchor:middle;font-family:'Times New Roman,serif'"
       id="text81"
       font-size="14.00"
       y="163.10001"
       x="202.05769">In3</text>
    <path
       sodipodi:nodetypes="cc"
       style="fill:none;stroke:#000000;stroke-width:1"
       inkscape:connector-curvature="0"
       id="path86"
       d="m 72.976762,158.5 c 27.802398,0 64.576358,0 93.521708,0" />
    <polygon
       transform="translate(-80.342188,246.5)"
       style="fill:#000000;stroke:#000000"
       id="polygon88"
       points="254.16,-88 244.16,-84.5001 244.16,-91.5001 244.16,-91.5001 " />
    <text
       style="font-size:14px;text-anchor:middle;font-family:'Times New Roman,serif'"
       id="text90"
       font-size="14.00"
       y="155.10001"
       x="123.25782">C3()</text>
    <polygon
       transform="matrix(0.6773399,0,0,1,4.2947575,246.5)"
       style="fill:none;stroke:#000000;stroke-width:1.21505702"
       id="polygon95"
       points="17,-52 17,-16 101,-16 101,-52 101,-52 " />
    <text
       style="font-size:14px;text-anchor:middle;font-family:'Times New Roman,serif'"
       id="text97"
       font-size="14.00"
       y="217.10001"
       x="44.257786">Out4</text>
    <polygon
       transform="matrix(0.72869421,0,0,1,-10.720898,246.5)"
       style="fill:none;stroke:#000000;stroke-width:1.17145967"
       id="polygon102"
       points="255,-52 255,-16 329,-16 329,-52 329,-52 " />
    <text
       style="font-size:14px;text-anchor:middle;font-family:'Times New Roman,serif'"
       id="text104"
       font-size="14.00"
       y="217.10001"
       x="202.05769">In4</text>
    <path
       sodipodi:nodetypes="cc"
       style="fill:none;stroke:#000000;stroke-width:0.99999988"
       inkscape:connector-curvature="0"
       id="path109"
       d="m 72.851722,212.5 c 27.767068,0 64.488178,0 93.396758,0" />
    <polygon
       transform="translate(-80.342188,246.5)"
       style="fill:#000000;stroke:#000000"
       id="polygon111"
       points="254.16,-34 244.16,-30.5001 244.16,-37.5001 244.16,-37.5001 " />
    <text
       style="font-size:14px;text-anchor:middle;font-family:'Times New Roman,serif'"
       id="text113"
       font-size="14.00"
       y="209.10001"
       x="123.25782">C4()</text>
  </g>
  <g
     id="g3067"
     transform="translate(-1.875e-6,81)">
    <g
       transform="translate(-7.5,84.5)"
       id="graph2-7"
       class="cluster">
      <title
         id="title10-4">cluster_a</title>
      <polygon
         points="78,-8 8,-8 8,-8 8,-84 78,-84 "
         id="polygon12-0"
         style="fill:none;stroke:#000000" />
      <text
         x="43"
         y="-67.400002"
         font-size="14.00"
         id="text14-9"
         style="font-size:14px;text-anchor:middle;font-family:'Times New Roman,serif'">a: A</text>
    </g>
    <g
       transform="translate(-7.5,84.5)"
       id="graph3-4"
       class="cluster">
      <title
         id="title17-8">cluster_b</title>
      <polygon
         points="188,-8 118,-8 118,-8 118,-84 188,-84 "
         id="polygon19-8"
         style="fill:none;stroke:#000000" />
      <text
         x="153"
         y="-67.400002"
         font-size="14.00"
         id="text21-2"
         style="font-size:14px;text-anchor:middle;font-family:'Times New Roman,serif'">b: B</text>
    </g>
    <g
       transform="translate(-7.5,84.5)"
       id="node2"
       class="node">
      <title
         id="title24">a_Out</title>
      <polygon
         points="70,-16 70,-52 70,-52 16,-52 16,-16 "
         id="polygon26-4"
         style="fill:none;stroke:#000000" />
      <text
         x="43"
         y="-29.4"
         font-size="14.00"
         id="text28-5"
         style="font-size:14px;text-anchor:middle;font-family:'Times New Roman,serif'">Out</text>
    </g>
    <g
       transform="translate(-7.5,84.5)"
       id="node4"
       class="node">
      <title
         id="title31">b_In</title>
      <polygon
         points="180,-16 180,-52 180,-52 126,-52 126,-16 "
         id="polygon33-5"
         style="fill:none;stroke:#000000" />
      <text
         x="153"
         y="-29.4"
         font-size="14.00"
         id="text35-1"
         style="font-size:14px;text-anchor:middle;font-family:'Times New Roman,serif'">In</text>
    </g>
    <g
       transform="translate(-7.5,84.5)"
       id="edge4"
       class="edge">
      <title
         id="title38">a_Out-&gt;b_In</title>
      <path
         d="m 70.191,-34 c 13.618,0 30.323,0 45.153,0"
         id="path40-7"
         inkscape:connector-curvature="0"
         style="fill:none;stroke:#000000" />
      <polygon
         points="125.741,-34 115.741,-30.5001 115.741,-37.5001 115.741,-37.5001 "
         id="polygon42-1"
         style="fill:#000000;stroke:#000000" />
      <text
         x="98"
         y="-37.400002"
         font-size="14.00"
         id="text44-1"
         style="font-size:14px;text-anchor:middle;font-family:'Times New Roman,serif'">C()</text>
    </g>
  </g>
</svg>
