<?xml version="1.0" encoding="UTF-8" standalone="no"?>
<!-- Generated by graphviz version 2.26.3 (20100126.1600)
 -->

<!-- Title: A2 Pages: 1 -->

<svg
   xmlns:dc="http://purl.org/dc/elements/1.1/"
   xmlns:cc="http://creativecommons.org/ns#"
   xmlns:rdf="http://www.w3.org/1999/02/22-rdf-syntax-ns#"
   xmlns:svg="http://www.w3.org/2000/svg"
   xmlns="http://www.w3.org/2000/svg"
   xmlns:sodipodi="http://sodipodi.sourceforge.net/DTD/sodipodi-0.dtd"
   xmlns:inkscape="http://www.inkscape.org/namespaces/inkscape"
   width="304.18561"
   height="213.52365"
   viewBox="0 0 243.60645 170.81892"
   id="svg2"
   version="1.1"
   inkscape:version="0.48.1 "
   sodipodi:docname="ExclusiveChannels_a_after.svg">
  <metadata
     id="metadata99">
    <rdf:RDF>
      <cc:Work
         rdf:about="">
        <dc:format>image/svg+xml</dc:format>
        <dc:type
           rdf:resource="http://purl.org/dc/dcmitype/StillImage" />
      </cc:Work>
    </rdf:RDF>
  </metadata>
  <defs
     id="defs97" />
  <sodipodi:namedview
     pagecolor="#ffffff"
     bordercolor="#666666"
     borderopacity="1"
     objecttolerance="10"
     gridtolerance="10"
     guidetolerance="10"
     inkscape:pageopacity="0"
     inkscape:pageshadow="2"
     inkscape:window-width="1680"
     inkscape:window-height="998"
     id="namedview95"
     showgrid="false"
     fit-margin-top="0"
     fit-margin-left="0"
     fit-margin-right="0"
     fit-margin-bottom="0"
     inkscape:zoom="0.71506849"
     inkscape:cx="-166.33212"
     inkscape:cy="166.27857"
     inkscape:window-x="-8"
     inkscape:window-y="-8"
     inkscape:window-maximized="1"
     inkscape:current-layer="svg2" />
  <polyline
     points="35.8004,-173 126.8,-173 "
     id="polyline17"
     style="fill:none;stroke:#000000"
     transform="translate(-2.871792,231.34523)" />
  <path
     d="m 123.92821,58.34523 c 6,0 12,-6 12,-12"
     id="path19"
     inkscape:connector-curvature="0"
     style="fill:none;stroke:#000000" />
  <polyline
     points="138.8,-185 138.8,-219 "
     id="polyline21"
     style="fill:none;stroke:#000000"
     transform="translate(-2.871792,231.34523)" />
  <path
     d="m 135.92821,12.34523 c 0,-6.0000003 -6,-12.00000032 -12,-12.00000032"
     id="path23"
     inkscape:connector-curvature="0"
     style="fill:none;stroke:#000000" />
  <polyline
     points="126.8,-231 35.8004,-231 "
     id="polyline25"
     style="fill:none;stroke:#000000"
     transform="translate(-2.871792,231.34523)" />
  <path
     d="m 32.928608,0.34522968 c -6,0 -12,6.00000002 -12,12.00000032"
     id="path27"
     inkscape:connector-curvature="0"
     style="fill:none;stroke:#000000" />
  <polyline
     points="23.8004,-219 23.8004,-185 "
     id="polyline29"
     style="fill:none;stroke:#000000"
     transform="translate(-2.871792,231.34523)" />
  <path
     d="m 20.928608,46.34523 c 0,6 6,12 12,12"
     id="path31"
     inkscape:connector-curvature="0"
     style="fill:none;stroke:#000000" />
  <text
     x="78.428604"
     y="33.945236"
     font-size="14.00"
     id="text33"
     style="font-size:14px;font-style:normal;font-variant:normal;font-weight:normal;font-stretch:normal;text-anchor:middle;font-family:Arial;-inkscape-font-specification:Arial">S0</text>
  <polyline
     points="35.8004,-61 126.8,-61 "
     id="polyline45"
     style="fill:none;stroke:#000000"
     transform="translate(-2.871792,231.34523)" />
  <path
     d="m 123.92821,170.34523 c 6,0 12,-6 12,-12"
     id="path47"
     inkscape:connector-curvature="0"
     style="fill:none;stroke:#000000" />
  <polyline
     points="138.8,-73 138.8,-107 "
     id="polyline49"
     style="fill:none;stroke:#000000"
     transform="translate(-2.871792,231.34523)" />
  <path
     d="m 135.92821,124.34523 c 0,-6 -6,-12 -12,-12"
     id="path51"
     inkscape:connector-curvature="0"
     style="fill:none;stroke:#000000" />
  <polyline
     points="126.8,-119 35.8004,-119 "
     id="polyline53"
     style="fill:none;stroke:#000000"
     transform="translate(-2.871792,231.34523)" />
  <path
     d="m 32.928608,112.34523 c -6,0 -12,6 -12,12"
     id="path55"
     inkscape:connector-curvature="0"
     style="fill:none;stroke:#000000" />
  <polyline
     points="23.8004,-107 23.8004,-73 "
     id="polyline57"
     style="fill:none;stroke:#000000"
     transform="translate(-2.871792,231.34523)" />
  <path
     d="m 20.928608,158.34523 c 0,6 6,12 12,12"
     id="path59"
     inkscape:connector-curvature="0"
     style="fill:none;stroke:#000000" />
  <text
     x="78.428604"
     y="145.94524"
     font-size="14.00"
     id="text61"
     style="font-size:14px;font-style:normal;font-variant:normal;font-weight:normal;font-stretch:normal;text-anchor:middle;font-family:Arial;-inkscape-font-specification:Arial">S1</text>
  <path
     d="m 23.8105,53.54253 c -8.0869,6.109 -15.2921,13.456 -20.17852,22.201 -7.5713898,13.549 -0.5565098,25.387 11.85422,35.074"
     id="path66"
     inkscape:connector-curvature="0"
     style="fill:none;stroke:#000000" />
  <polygon
     points="17.2495,-121.733 17.2495,-121.733 23.4972,-113.176 13.2771,-115.969 "
     id="polygon68"
     style="fill:#000000;stroke:#000000"
     transform="translate(-0.08838477,228.90356)" />
  <text
     x="63.123508"
     y="89.945236"
     font-size="14.00"
     id="text70"
     style="font-size:14px;font-style:normal;font-variant:normal;font-weight:normal;font-stretch:normal;text-anchor:middle;font-family:Arial;-inkscape-font-specification:Arial"><tspan
   style="font-weight:bold"
   id="tspan3161">send</tspan>
 S() <tspan
   style="font-weight:bold"
   id="tspan3159">to</tspan>
 Out1</text>
  <path
     d="m 122.02121,58.57723 c 5.424,5.567 10.188,11.847 13.407,18.768 4.471,9.61 2.041,18.827 -3.797,27.126"
     id="path75"
     inkscape:connector-curvature="0"
     style="fill:none;stroke:#000000" />
  <polygon
     points="137.127,-124.556 137.127,-124.556 127.976,-119.216 131.799,-129.097 "
     id="polygon77"
     style="fill:#000000;stroke:#000000"
     transform="translate(-2.871792,231.34523)" />
  <text
     x="190.92871"
     y="66.426079"
     font-size="14.00"
     id="text79"
     style="font-size:14px;font-style:normal;font-variant:normal;font-weight:normal;font-stretch:normal;text-anchor:middle;font-family:Arial;-inkscape-font-specification:Arial"><tspan
   style="font-weight:bold"
   id="tspan3155">send</tspan>
 S() <tspan
   style="font-weight:bold"
   id="tspan3157">to</tspan>
 Out3</text>
</svg>
