<?xml version="1.0" encoding="UTF-8" standalone="no"?>
<!-- Generated by graphviz version 2.26.3 (20100126.1600)
 -->

<!-- Title: B2 Pages: 1 -->

<svg
   xmlns:dc="http://purl.org/dc/elements/1.1/"
   xmlns:cc="http://creativecommons.org/ns#"
   xmlns:rdf="http://www.w3.org/1999/02/22-rdf-syntax-ns#"
   xmlns:svg="http://www.w3.org/2000/svg"
   xmlns="http://www.w3.org/2000/svg"
   xmlns:sodipodi="http://sodipodi.sourceforge.net/DTD/sodipodi-0.dtd"
   xmlns:inkscape="http://www.inkscape.org/namespaces/inkscape"
   width="351.80087"
   height="213.75"
   viewBox="0 0 281.0299 171"
   id="svg2"
   version="1.1"
   inkscape:version="0.48.1 "
   sodipodi:docname="ExclusiveChannels_b_after.svg">
  <metadata
     id="metadata99">
    <rdf:RDF>
      <cc:Work
         rdf:about="">
        <dc:format>image/svg+xml</dc:format>
        <dc:type
           rdf:resource="http://purl.org/dc/dcmitype/StillImage" />
      </cc:Work>
    </rdf:RDF>
  </metadata>
  <defs
     id="defs97" />
  <sodipodi:namedview
     pagecolor="#ffffff"
     bordercolor="#666666"
     borderopacity="1"
     objecttolerance="10"
     gridtolerance="10"
     guidetolerance="10"
     inkscape:pageopacity="0"
     inkscape:pageshadow="2"
     inkscape:window-width="1680"
     inkscape:window-height="998"
     id="namedview95"
     showgrid="false"
     fit-margin-top="0"
     fit-margin-left="0"
     fit-margin-right="0"
     fit-margin-bottom="0"
     inkscape:zoom="1.0112596"
     inkscape:cx="110.13324"
     inkscape:cy="190.50947"
     inkscape:window-x="-8"
     inkscape:window-y="-8"
     inkscape:window-maximized="1"
     inkscape:current-layer="svg2" />
  <polyline
     points="45.0289,-173 136.029,-173 "
     id="polyline17"
     style="fill:none;stroke:#000000"
     transform="translate(0.23075749,231.5)" />
  <path
     d="m 136.25976,58.5 c 6,0 12,-6 12,-12"
     id="path19"
     inkscape:connector-curvature="0"
     style="fill:none;stroke:#000000" />
  <polyline
     points="148.029,-185 148.029,-219 "
     id="polyline21"
     style="fill:none;stroke:#000000"
     transform="translate(0.23075749,231.5)" />
  <path
     d="m 148.25976,12.5 c 0,-6 -6,-12 -12,-12"
     id="path23"
     inkscape:connector-curvature="0"
     style="fill:none;stroke:#000000" />
  <polyline
     points="136.029,-231 45.0289,-231 "
     id="polyline25"
     style="fill:none;stroke:#000000"
     transform="translate(0.23075749,231.5)" />
  <path
     d="m 45.259657,0.5 c -6,0 -12,6 -12,12"
     id="path27"
     inkscape:connector-curvature="0"
     style="fill:none;stroke:#000000" />
  <polyline
     points="33.0289,-219 33.0289,-185 "
     id="polyline29"
     style="fill:none;stroke:#000000"
     transform="translate(0.23075749,231.5)" />
  <path
     d="m 33.259657,46.5 c 0,6 6,12 12,12"
     id="path31"
     inkscape:connector-curvature="0"
     style="fill:none;stroke:#000000" />
  <text
     x="90.759659"
     y="34.100006"
     font-size="14.00"
     id="text33"
     style="font-size:14px;font-style:normal;font-variant:normal;font-weight:normal;font-stretch:normal;text-anchor:middle;font-family:Arial;-inkscape-font-specification:Arial">R0</text>
  <polyline
     points="45.0289,-61 136.029,-61 "
     id="polyline45"
     style="fill:none;stroke:#000000"
     transform="translate(0.23075749,231.5)" />
  <path
     d="m 136.25976,170.5 c 6,0 12,-6 12,-12"
     id="path47"
     inkscape:connector-curvature="0"
     style="fill:none;stroke:#000000" />
  <polyline
     points="148.029,-73 148.029,-107 "
     id="polyline49"
     style="fill:none;stroke:#000000"
     transform="translate(0.23075749,231.5)" />
  <path
     d="m 148.25976,124.5 c 0,-6 -6,-12 -12,-12"
     id="path51"
     inkscape:connector-curvature="0"
     style="fill:none;stroke:#000000" />
  <polyline
     points="136.029,-119 45.0289,-119 "
     id="polyline53"
     style="fill:none;stroke:#000000"
     transform="translate(0.23075749,231.5)" />
  <path
     d="m 45.259657,112.5 c -6,0 -12,6 -12,12"
     id="path55"
     inkscape:connector-curvature="0"
     style="fill:none;stroke:#000000" />
  <polyline
     points="33.0289,-107 33.0289,-73 "
     id="polyline57"
     style="fill:none;stroke:#000000"
     transform="translate(0.23075749,231.5)" />
  <path
     d="m 33.259657,158.5 c 0,6 6,12 12,12"
     id="path59"
     inkscape:connector-curvature="0"
     style="fill:none;stroke:#000000" />
  <text
     x="90.759659"
     y="146.09999"
     font-size="14.00"
     id="text61"
     style="font-size:14px;font-style:normal;font-variant:normal;font-weight:normal;font-stretch:normal;text-anchor:middle;font-family:Arial;-inkscape-font-specification:Arial">R2</text>
  <path
     d="M 33.78035,48.855361 C 22.14005,55.744361 10.600257,65.913 3.7596775,77.5 c -9.78968,16.582 2.27538,30.159 20.2363795,40.474"
     id="path66"
     inkscape:connector-curvature="0"
     style="fill:none;stroke:#000000"
     sodipodi:nodetypes="csc" />
  <polygon
     points="25.7324,-116.448 32.9862,-108.725 22.5,-110.239 25.7324,-116.448 "
     id="polygon68"
     style="fill:#000000;stroke:#000000"
     transform="translate(0.23075749,231.5)" />
  <text
     x="72.759666"
     y="90.100014"
     font-size="14.00"
     id="text70"
     style="font-size:14px;font-style:normal;font-variant:normal;font-weight:normal;font-stretch:normal;text-anchor:middle;font-family:Arial;-inkscape-font-specification:Arial"><tspan
   style="font-weight:bold"
   id="tspan3159">receive</tspan>
 S() <tspan
   style="font-weight:bold"
   id="tspan3161">from</tspan>
 In1</text>
  <path
     d="m 141.65312,56.88193 c 5.993,5.503 12.44464,13.49007 16.10664,20.61807 5.121,9.969 0.3165,22.31748 -6.2235,30.54948"
     id="path75"
     inkscape:connector-curvature="0"
     style="fill:none;stroke:#000000"
     sodipodi:nodetypes="ccc" />
  <polygon
     points="146.486,-119.262 150.908,-128.889 155.947,-124.03 155.947,-124.03 "
     id="polygon77"
     style="fill:#000000;stroke:#000000"
     transform="translate(-1.4503145,233.97216)" />
  <text
     x="217.33752"
     y="61.571281"
     font-size="14.00"
     id="text79"
     style="font-size:14px;font-style:normal;font-variant:normal;font-weight:normal;font-stretch:normal;text-anchor:middle;font-family:Arial;-inkscape-font-specification:Arial"><tspan
   style="font-weight:bold"
   id="tspan3155">receive</tspan>
 S() <tspan
   style="font-weight:bold"
   id="tspan3157">from</tspan>
 In2</text>
</svg>
