<?xml version="1.0" encoding="UTF-8" standalone="no"?>
<!-- Generated by graphviz version 2.26.3 (20100126.1600)
 -->

<!-- Title: ExclusiveChannels_ex Pages: 1 -->

<svg
   xmlns:dc="http://purl.org/dc/elements/1.1/"
   xmlns:cc="http://creativecommons.org/ns#"
   xmlns:rdf="http://www.w3.org/1999/02/22-rdf-syntax-ns#"
   xmlns:svg="http://www.w3.org/2000/svg"
   xmlns="http://www.w3.org/2000/svg"
   xmlns:sodipodi="http://sodipodi.sourceforge.net/DTD/sodipodi-0.dtd"
   xmlns:inkscape="http://www.inkscape.org/namespaces/inkscape"
   width="305.39355"
   height="298.75"
   viewBox="0 0 244.31484 239"
   id="svg2"
   version="1.1"
   inkscape:version="0.48.1 "
   sodipodi:docname="ExclusiveChannels_Communication_after.svg">
  <metadata
     id="metadata119">
    <rdf:RDF>
      <cc:Work
         rdf:about="">
        <dc:format>image/svg+xml</dc:format>
        <dc:type
           rdf:resource="http://purl.org/dc/dcmitype/StillImage" />
      </cc:Work>
    </rdf:RDF>
  </metadata>
  <defs
     id="defs117" />
  <sodipodi:namedview
     pagecolor="#ffffff"
     bordercolor="#666666"
     borderopacity="1"
     objecttolerance="10"
     gridtolerance="10"
     guidetolerance="10"
     inkscape:pageopacity="0"
     inkscape:pageshadow="2"
     inkscape:window-width="1680"
     inkscape:window-height="998"
     id="namedview115"
     showgrid="false"
     fit-margin-top="0"
     fit-margin-left="0"
     fit-margin-right="0"
     fit-margin-bottom="0"
     inkscape:zoom="1.1270526"
     inkscape:cx="127.06298"
     inkscape:cy="116.46239"
     inkscape:window-x="-8"
     inkscape:window-y="-8"
     inkscape:window-maximized="1"
     inkscape:current-layer="svg2" />
  <g
     class="cluster"
     id="graph2"
     transform="matrix(0.85799631,0,0,1,-6.3639705,246.5)">
    <title
       id="title10">cluster_a</title>
    <polygon
       style="fill:none;stroke:#000000;stroke-width:1.07958615"
       id="polygon12"
       points="8,-8 8,-246 110,-246 110,-8 8,-8 " />
    <text
       style="font-size:14px;text-anchor:middle;font-family:'Times New Roman,serif'"
       id="text14"
       font-size="14.00"
       y="-229.39999"
       x="59">a: A</text>
  </g>
  <g
     class="cluster"
     id="graph3"
     transform="matrix(0.90776184,0,0,1,-63.008647,246.5)">
    <title
       id="title17">cluster_b</title>
    <polygon
       style="fill:none;stroke:#000000;stroke-width:1.0495764"
       id="polygon19"
       points="246,-246 338,-246 338,-8 246,-8 246,-8 " />
    <text
       style="font-size:14px;text-anchor:middle;font-family:'Times New Roman,serif'"
       id="text21"
       font-size="14.00"
       y="-229.39999"
       x="292">b: B</text>
  </g>
  <polygon
     points="101,-178 101,-214 101,-214 17,-214 17,-178 "
     id="polygon26"
     style="fill:none;stroke:#000000;stroke-width:1.21505702"
     transform="matrix(0.6773399,0,0,1,4.2947575,246.5)" />
  <text
     x="44.257786"
     y="55.100006"
     font-size="14.00"
     id="text28"
     style="font-size:14px;text-anchor:middle;font-family:'Times New Roman,serif'">Out1</text>
  <polygon
     points="329,-178 329,-214 329,-214 255,-214 255,-178 "
     id="polygon33"
     style="fill:none;stroke:#000000;stroke-width:1.17145967"
     transform="matrix(0.72869421,0,0,1,-10.720898,246.5)" />
  <text
     x="202.05769"
     y="55.100006"
     font-size="14.00"
     id="text35"
     style="font-size:14px;text-anchor:middle;font-family:'Times New Roman,serif'">In1</text>
  <path
     d="m 72.351642,50.5 c 27.40834,0 63.593038,0 92.128158,0"
     id="path40"
     inkscape:connector-curvature="0"
     style="fill:none;stroke:#000000;stroke-width:0.99999994"
     sodipodi:nodetypes="cc" />
  <polygon
     points="244.16,-192.5 244.16,-199.5 244.16,-199.5 254.16,-196 "
     id="polygon42"
     style="fill:#000000;stroke:#000000"
     transform="translate(-80.342188,246.5)" />
  <text
     x="123.25782"
     y="47.100006"
     font-size="14.00"
     id="text44"
     style="font-size:14px;text-anchor:middle;font-family:'Times New Roman,serif'">C1()</text>
  <polygon
     points="101,-124 101,-160 101,-160 17,-160 17,-124 "
     id="polygon49"
     style="fill:none;stroke:#000000;stroke-width:1.21505702"
     transform="matrix(0.6773399,0,0,1,4.2947575,246.5)" />
  <text
     x="44.257786"
     y="109.10001"
     font-size="14.00"
     id="text51"
     style="font-size:14px;text-anchor:middle;font-family:'Times New Roman,serif'">Out2</text>
  <polygon
     points="329,-124 329,-160 329,-160 255,-160 255,-124 "
     id="polygon56"
     style="fill:none;stroke:#000000;stroke-width:1.17145967"
     transform="matrix(0.72869421,0,0,1,-10.720898,246.5)" />
  <text
     x="202.05769"
     y="109.10001"
     font-size="14.00"
     id="text58"
     style="font-size:14px;text-anchor:middle;font-family:'Times New Roman,serif'">In2</text>
  <path
     d="m 72.976762,104.5 c 27.802398,0 64.576358,0 93.521708,0"
     id="path63"
     inkscape:connector-curvature="0"
     style="fill:none;stroke:#000000;stroke-width:1"
     sodipodi:nodetypes="cc" />
  <polygon
     points="244.16,-138.5 244.16,-145.5 244.16,-145.5 254.16,-142 "
     id="polygon65"
     style="fill:#000000;stroke:#000000"
     transform="translate(-80.342188,246.5)" />
  <text
     x="123.25782"
     y="101.10001"
     font-size="14.00"
     id="text67"
     style="font-size:14px;text-anchor:middle;font-family:'Times New Roman,serif'">C2()</text>
  <polygon
     points="101,-70 101,-106 101,-106 17,-106 17,-70 "
     id="polygon72"
     style="fill:none;stroke:#000000;stroke-width:1.21505702"
     transform="matrix(0.6773399,0,0,1,4.2947575,246.5)" />
  <text
     x="44.257786"
     y="163.10001"
     font-size="14.00"
     id="text74"
     style="font-size:14px;text-anchor:middle;font-family:'Times New Roman,serif'">Out3</text>
  <polygon
     points="329,-70 329,-106 329,-106 255,-106 255,-70 "
     id="polygon79"
     style="fill:none;stroke:#000000;stroke-width:1.17145967"
     transform="matrix(0.72869421,0,0,1,-10.720898,246.5)" />
  <text
     x="202.05769"
     y="163.10001"
     font-size="14.00"
     id="text81"
     style="font-size:14px;text-anchor:middle;font-family:'Times New Roman,serif'">In3</text>
  <path
     d="m 72.976762,158.5 c 27.802398,0 64.576358,0 93.521708,0"
     id="path86"
     inkscape:connector-curvature="0"
     style="fill:none;stroke:#000000;stroke-width:1"
     sodipodi:nodetypes="cc" />
  <polygon
     points="244.16,-84.5001 244.16,-91.5001 244.16,-91.5001 254.16,-88 "
     id="polygon88"
     style="fill:#000000;stroke:#000000"
     transform="translate(-80.342188,246.5)" />
  <text
     x="123.25782"
     y="155.10001"
     font-size="14.00"
     id="text90"
     style="font-size:14px;text-anchor:middle;font-family:'Times New Roman,serif'">C3()</text>
  <polygon
     points="101,-16 101,-52 101,-52 17,-52 17,-16 "
     id="polygon95"
     style="fill:none;stroke:#000000;stroke-width:1.21505702"
     transform="matrix(0.6773399,0,0,1,4.2947575,246.5)" />
  <text
     x="44.257786"
     y="217.10001"
     font-size="14.00"
     id="text97"
     style="font-size:14px;text-anchor:middle;font-family:'Times New Roman,serif'">Out4</text>
  <polygon
     points="329,-16 329,-52 329,-52 255,-52 255,-16 "
     id="polygon102"
     style="fill:none;stroke:#000000;stroke-width:1.17145967"
     transform="matrix(0.72869421,0,0,1,-10.720898,246.5)" />
  <text
     x="202.05769"
     y="217.10001"
     font-size="14.00"
     id="text104"
     style="font-size:14px;text-anchor:middle;font-family:'Times New Roman,serif'">In4</text>
  <path
     d="m 72.851722,212.5 c 27.767068,0 64.488178,0 93.396758,0"
     id="path109"
     inkscape:connector-curvature="0"
     style="fill:none;stroke:#000000;stroke-width:0.99999988"
     sodipodi:nodetypes="cc" />
  <polygon
     points="244.16,-30.5001 244.16,-37.5001 244.16,-37.5001 254.16,-34 "
     id="polygon111"
     style="fill:#000000;stroke:#000000"
     transform="translate(-80.342188,246.5)" />
  <text
     x="123.25782"
     y="209.10001"
     font-size="14.00"
     id="text113"
     style="font-size:14px;text-anchor:middle;font-family:'Times New Roman,serif'">C4()</text>
</svg>
