<?xml version="1.0" encoding="UTF-8" standalone="no"?>
<!-- Generated by graphviz version 2.26.3 (20100126.1600)
 -->

<!-- Title: A2 Pages: 1 -->

<svg
   xmlns:dc="http://purl.org/dc/elements/1.1/"
   xmlns:cc="http://creativecommons.org/ns#"
   xmlns:rdf="http://www.w3.org/1999/02/22-rdf-syntax-ns#"
   xmlns:svg="http://www.w3.org/2000/svg"
   xmlns="http://www.w3.org/2000/svg"
   xmlns:sodipodi="http://sodipodi.sourceforge.net/DTD/sodipodi-0.dtd"
   xmlns:inkscape="http://www.inkscape.org/namespaces/inkscape"
   width="1061.4423"
   height="213.75002"
   viewBox="0 0 850.054 171.00001"
   id="svg2"
   version="1.1"
   inkscape:version="0.48.1 "
   sodipodi:docname="ExclusiveChannels_Behavior.svg">
  <metadata
     id="metadata99">
    <rdf:RDF>
      <cc:Work
         rdf:about="">
        <dc:format>image/svg+xml</dc:format>
        <dc:type
           rdf:resource="http://purl.org/dc/dcmitype/StillImage" />
        <dc:title />
      </cc:Work>
    </rdf:RDF>
  </metadata>
  <defs
     id="defs97" />
  <sodipodi:namedview
     pagecolor="#ffffff"
     bordercolor="#666666"
     borderopacity="1"
     objecttolerance="10"
     gridtolerance="10"
     guidetolerance="10"
     inkscape:pageopacity="0"
     inkscape:pageshadow="2"
     inkscape:window-width="1680"
     inkscape:window-height="998"
     id="namedview95"
     showgrid="false"
     fit-margin-top="0"
     fit-margin-left="0"
     fit-margin-right="0"
     fit-margin-bottom="0"
     inkscape:zoom="0.71506849"
     inkscape:cx="171.08594"
     inkscape:cy="14.546374"
     inkscape:window-x="-8"
     inkscape:window-y="-8"
     inkscape:window-maximized="1"
     inkscape:current-layer="svg2" />
  <polyline
     points="35.8004,-173 126.8,-173 "
     id="polyline17"
     style="fill:none;stroke:#000000"
     transform="translate(332.89313,231.5)" />
  <path
     d="m 459.69313,58.500006 c 6,0 12,-6 12,-12"
     id="path19"
     inkscape:connector-curvature="0"
     style="fill:none;stroke:#000000;stroke-width:1" />
  <polyline
     points="138.8,-185 138.8,-219 "
     id="polyline21"
     style="fill:none;stroke:#000000"
     transform="translate(332.89313,231.5)" />
  <path
     d="m 471.69313,12.500006 c 0,-6.0000007 -6,-12.00000067 -12,-12.00000067"
     id="path23"
     inkscape:connector-curvature="0"
     style="fill:none;stroke:#000000;stroke-width:1" />
  <polyline
     points="126.8,-231 35.8004,-231 "
     id="polyline25"
     style="fill:none;stroke:#000000"
     transform="translate(332.89313,231.5)" />
  <path
     d="m 368.69353,0.50000533 c -6,0 -12,5.99999997 -12,12.00000067"
     id="path27"
     inkscape:connector-curvature="0"
     style="fill:none;stroke:#000000;stroke-width:1" />
  <polyline
     points="23.8004,-219 23.8004,-185 "
     id="polyline29"
     style="fill:none;stroke:#000000"
     transform="translate(332.89313,231.5)" />
  <path
     d="m 356.69353,46.500006 c 0,6 6,12 12,12"
     id="path31"
     inkscape:connector-curvature="0"
     style="fill:none;stroke:#000000;stroke-width:1" />
  <text
     x="414.19391"
     y="34.10001"
     font-size="14.00"
     id="text33"
     style="font-size:14px;font-style:normal;font-variant:normal;font-weight:normal;font-stretch:normal;text-anchor:middle;font-family:Arial;-inkscape-font-specification:Arial">A0</text>
  <polyline
     points="35.8004,-61 126.8,-61 "
     id="polyline45"
     style="fill:none;stroke:#000000"
     transform="translate(332.89313,231.5)" />
  <path
     d="m 459.69313,170.5 c 6,0 12,-6 12,-12"
     id="path47"
     inkscape:connector-curvature="0"
     style="fill:none;stroke:#000000;stroke-width:1" />
  <polyline
     points="138.8,-73 138.8,-107 "
     id="polyline49"
     style="fill:none;stroke:#000000"
     transform="translate(332.89313,231.5)" />
  <path
     d="m 471.69313,124.5 c 0,-6 -6,-12 -12,-12"
     id="path51"
     inkscape:connector-curvature="0"
     style="fill:none;stroke:#000000;stroke-width:1" />
  <polyline
     points="126.8,-119 35.8004,-119 "
     id="polyline53"
     style="fill:none;stroke:#000000"
     transform="translate(332.89313,231.5)" />
  <path
     d="m 368.69353,112.5 c -6,0 -12,6 -12,12"
     id="path55"
     inkscape:connector-curvature="0"
     style="fill:none;stroke:#000000;stroke-width:1" />
  <polyline
     points="23.8004,-107 23.8004,-73 "
     id="polyline57"
     style="fill:none;stroke:#000000"
     transform="translate(332.89313,231.5)" />
  <path
     d="m 356.69353,158.5 c 0,6 6,12 12,12"
     id="path59"
     inkscape:connector-curvature="0"
     style="fill:none;stroke:#000000;stroke-width:1" />
  <text
     x="414.19391"
     y="146.10001"
     font-size="14.00"
     id="text61"
     style="font-size:14px;font-style:normal;font-variant:normal;font-weight:normal;font-stretch:normal;text-anchor:middle;font-family:Arial;-inkscape-font-specification:Arial">A1</text>
  <path
     d="m 359.57542,53.697306 c -10.80666,6.109 -20.43509,13.456 -26.9649,22.201 -10.11778,13.549 2.33622,25.946974 18.92089,35.633974"
     id="path66"
     inkscape:connector-curvature="0"
     style="fill:none;stroke:#000000;stroke-width:1"
     sodipodi:nodetypes="ccc" />
  <polygon
     points="23.4972,-113.176 13.2771,-115.969 17.2495,-121.733 17.2495,-121.733 "
     id="polygon68"
     style="fill:#000000;stroke:#000000"
     transform="translate(335.67654,229.05833)" />
  <text
     x="392.48206"
     y="90.100014"
     font-size="14.00"
     id="text70"
     style="font-size:14px;font-style:normal;font-variant:normal;font-weight:normal;font-stretch:normal;text-anchor:middle;font-family:Arial;-inkscape-font-specification:Arial"><tspan
   style="font-weight:bold"
   id="tspan3161">send</tspan>

 S() <tspan
   style="font-weight:bold"
   id="tspan3159">to</tspan>

 Out1</text>
  <path
     d="m 452.98103,58.732006 c 5.424,5.567 10.188,11.847 13.407,18.768 4.471,9.61 2.041,18.827 -3.797,27.125994"
     id="path75"
     inkscape:connector-curvature="0"
     style="fill:none;stroke:#000000;stroke-width:1" />
  <polygon
     points="137.127,-124.556 127.976,-119.216 131.799,-129.097 137.127,-124.556 "
     id="polygon77"
     style="fill:#000000;stroke:#000000"
     transform="translate(328.08803,231.5)" />
  <text
     x="521.88904"
     y="66.580849"
     font-size="14.00"
     id="text79"
     style="font-size:14px;font-style:normal;font-variant:normal;font-weight:normal;font-stretch:normal;text-anchor:middle;font-family:Arial;-inkscape-font-specification:Arial"><tspan
   style="font-weight:bold"
   id="tspan3155">send</tspan>

 S() <tspan
   style="font-weight:bold"
   id="tspan3157">to</tspan>

 Out3</text>
  <g
     id="g3214"
     transform="translate(0,-2.9282984e-6)">
    <polyline
       transform="matrix(1.0010601,0,0,1.0010601,1.0010601,231.65479)"
       style="fill:none;stroke:#000000;stroke-width:1"
       id="polyline17-7"
       points="11.5,-173 102.5,-173 " />
    <path
       style="fill:none;stroke:#000000;stroke-width:1.00106013"
       inkscape:connector-curvature="0"
       id="path19-4"
       d="m 103.60972,58.471385 c 6.00636,0 12.01272,-6.00636 12.01272,-12.012721" />
    <polyline
       transform="matrix(1.0010601,0,0,1.0010601,1.0010601,231.65479)"
       style="fill:none;stroke:#000000;stroke-width:1"
       id="polyline21-0"
       points="114.5,-185 114.5,-219 " />
    <path
       style="fill:none;stroke:#000000;stroke-width:1.00106013"
       inkscape:connector-curvature="0"
       id="path23-9"
       d="m 115.62244,12.422621 c 0,-6.0063608 -6.00636,-12.01272137 -12.01272,-12.01272137" />
    <polyline
       transform="matrix(1.0010601,0,0,1.0010601,1.0010601,231.65479)"
       style="fill:none;stroke:#000000;stroke-width:1"
       id="polyline25-4"
       points="102.5,-231 11.5,-231 " />
    <path
       style="fill:none;stroke:#000000;stroke-width:1.00106013"
       inkscape:connector-curvature="0"
       id="path27-8"
       d="m 12.513251,0.40989963 c -6.0063604,0 -12.01272094,6.00636057 -12.01272094,12.01272137" />
    <polyline
       transform="matrix(1.0010601,0,0,1.0010601,1.0010601,231.65479)"
       style="fill:none;stroke:#000000;stroke-width:1"
       id="polyline29-8"
       points="-0.5,-219 -0.5,-185 " />
    <path
       style="fill:none;stroke:#000000;stroke-width:1.00106013"
       inkscape:connector-curvature="0"
       id="path31-2"
       d="m 0.50053006,46.458664 c 0,6.006361 6.00636054,12.012721 12.01272094,12.012721" />
    <text
       style="font-size:14.01484108px;font-style:normal;font-variant:normal;font-weight:normal;font-stretch:normal;text-anchor:middle;font-family:Arial;-inkscape-font-specification:Arial"
       id="text33-4"
       font-size="14.00"
       y="34.045525"
       x="58.061485">A0</text>
    <polyline
       transform="matrix(1.0010601,0,0,1.0010601,1.0010601,231.65479)"
       style="fill:none;stroke:#000000;stroke-width:1"
       id="polyline45-5"
       points="11.5,-61 102.5,-61 " />
    <path
       style="fill:none;stroke:#000000;stroke-width:1.00106013"
       inkscape:connector-curvature="0"
       id="path47-5"
       d="m 103.60972,170.59012 c 6.00636,0 12.01272,-6.00636 12.01272,-12.01272" />
    <polyline
       transform="matrix(1.0010601,0,0,1.0010601,1.0010601,231.65479)"
       style="fill:none;stroke:#000000;stroke-width:1"
       id="polyline49-1"
       points="114.5,-73 114.5,-107 " />
    <path
       style="fill:none;stroke:#000000;stroke-width:1.00106013"
       inkscape:connector-curvature="0"
       id="path51-7"
       d="m 115.62244,124.54136 c 0,-6.00636 -6.00636,-12.01272 -12.01272,-12.01272" />
    <polyline
       transform="matrix(1.0010601,0,0,1.0010601,1.0010601,231.65479)"
       style="fill:none;stroke:#000000;stroke-width:1"
       id="polyline53-1"
       points="102.5,-119 11.5,-119 " />
    <path
       style="fill:none;stroke:#000000;stroke-width:1.00106013"
       inkscape:connector-curvature="0"
       id="path55-1"
       d="m 12.513251,112.52864 c -6.0063604,0 -12.01272094,6.00636 -12.01272094,12.01272" />
    <polyline
       transform="matrix(1.0010601,0,0,1.0010601,1.0010601,231.65479)"
       style="fill:none;stroke:#000000;stroke-width:1"
       id="polyline57-5"
       points="-0.5,-107 -0.5,-73 " />
    <path
       style="fill:none;stroke:#000000;stroke-width:1.00106013"
       inkscape:connector-curvature="0"
       id="path59-2"
       d="m 0.50053006,158.5774 c 0,6.00636 6.00636054,12.01272 12.01272094,12.01272" />
    <text
       style="font-size:14.01484108px;font-style:normal;font-variant:normal;font-weight:normal;font-stretch:normal;text-anchor:middle;font-family:Arial;-inkscape-font-specification:Arial"
       id="text61-7"
       font-size="14.00"
       y="146.16425"
       x="58.061485">A1</text>
    <path
       style="fill:none;stroke:#000000;stroke-width:1.00106013"
       inkscape:connector-curvature="0"
       id="path66-6"
       d="m 27.629262,58.605527 c 0,13.262045 0,29.154875 0,43.465033" />
    <polygon
       transform="matrix(1.0010601,0,0,1.0010601,-29.431165,231.65479)"
       style="fill:#000000;stroke:#000000;stroke-width:1"
       id="polygon68-1"
       points="60.5001,-129.377 60.5001,-129.377 57,-119.378 53.5001,-129.378 " />
    <text
       style="font-size:14.01484108px;font-style:normal;font-variant:normal;font-weight:normal;font-stretch:normal;text-anchor:middle;font-family:Arial;-inkscape-font-specification:Arial"
       id="text70-4"
       font-size="14.00"
       y="88.503189"
       x="87.692795"><tspan
   id="tspan3131"
   style="font-weight:bold">send</tspan>

 S() <tspan
   id="tspan3133"
   style="font-weight:bold">to</tspan>

 Out</text>
  </g>
  <polyline
     points="45.0289,-173 136.029,-173 "
     id="polyline17-1"
     style="fill:none;stroke:#000000;stroke-width:1"
     transform="matrix(1.0010601,0,0,1.0010601,569.51096,231.65477)" />
  <path
     d="m 705.68417,58.471383 c 6.00636,0 12.01272,-6.006361 12.01272,-12.012721"
     id="path19-6"
     inkscape:connector-curvature="0"
     style="fill:none;stroke:#000000;stroke-width:1.00106013" />
  <polyline
     points="148.029,-185 148.029,-219 "
     id="polyline21-8"
     style="fill:none;stroke:#000000;stroke-width:1"
     transform="matrix(1.0010601,0,0,1.0010601,569.51096,231.65477)" />
  <path
     d="m 717.69689,12.422618 c 0,-6.0063608 -6.00636,-12.0127213 -12.01272,-12.0127213"
     id="path23-5"
     inkscape:connector-curvature="0"
     style="fill:none;stroke:#000000;stroke-width:1.00106013" />
  <polyline
     points="136.029,-231 45.0289,-231 "
     id="polyline25-7"
     style="fill:none;stroke:#000000;stroke-width:1"
     transform="matrix(1.0010601,0,0,1.0010601,569.51096,231.65477)" />
  <path
     d="m 614.5876,0.4098967 c -6.00636,0 -12.01272,6.0063605 -12.01272,12.0127213"
     id="path27-6"
     inkscape:connector-curvature="0"
     style="fill:none;stroke:#000000;stroke-width:1.00106013" />
  <polyline
     points="33.0289,-219 33.0289,-185 "
     id="polyline29-1"
     style="fill:none;stroke:#000000;stroke-width:1"
     transform="matrix(1.0010601,0,0,1.0010601,569.51096,231.65477)" />
  <path
     d="m 602.57488,46.458662 c 0,6.00636 6.00636,12.012721 12.01272,12.012721"
     id="path31-8"
     inkscape:connector-curvature="0"
     style="fill:none;stroke:#000000;stroke-width:1.00106013" />
  <text
     x="660.13647"
     y="34.045521"
     font-size="14.00"
     id="text33-9"
     style="font-size:14.01484108px;font-style:normal;font-variant:normal;font-weight:normal;font-stretch:normal;text-anchor:middle;font-family:Arial;-inkscape-font-specification:Arial">B0</text>
  <polyline
     points="45.0289,-61 136.029,-61 "
     id="polyline45-2"
     style="fill:none;stroke:#000000;stroke-width:1"
     transform="matrix(1.0010601,0,0,1.0010601,569.51096,231.65477)" />
  <path
     d="m 705.68417,170.59011 c 6.00636,0 12.01272,-6.00636 12.01272,-12.01272"
     id="path47-7"
     inkscape:connector-curvature="0"
     style="fill:none;stroke:#000000;stroke-width:1.00106013" />
  <polyline
     points="148.029,-73 148.029,-107 "
     id="polyline49-9"
     style="fill:none;stroke:#000000;stroke-width:1"
     transform="matrix(1.0010601,0,0,1.0010601,569.51096,231.65477)" />
  <path
     d="m 717.69689,124.54134 c 0,-6.00636 -6.00636,-12.01272 -12.01272,-12.01272"
     id="path51-5"
     inkscape:connector-curvature="0"
     style="fill:none;stroke:#000000;stroke-width:1.00106013" />
  <polyline
     points="136.029,-119 45.0289,-119 "
     id="polyline53-4"
     style="fill:none;stroke:#000000;stroke-width:1"
     transform="matrix(1.0010601,0,0,1.0010601,569.51096,231.65477)" />
  <path
     d="m 614.5876,112.52862 c -6.00636,0 -12.01272,6.00636 -12.01272,12.01272"
     id="path55-3"
     inkscape:connector-curvature="0"
     style="fill:none;stroke:#000000;stroke-width:1.00106013" />
  <polyline
     points="33.0289,-107 33.0289,-73 "
     id="polyline57-1"
     style="fill:none;stroke:#000000;stroke-width:1"
     transform="matrix(1.0010601,0,0,1.0010601,569.51096,231.65477)" />
  <path
     d="m 602.57488,158.57739 c 0,6.00636 6.00636,12.01272 12.01272,12.01272"
     id="path59-23"
     inkscape:connector-curvature="0"
     style="fill:none;stroke:#000000;stroke-width:1.00106013" />
  <text
     x="660.13647"
     y="146.16423"
     font-size="14.00"
     id="text61-3"
     style="font-size:14.01484108px;font-style:normal;font-variant:normal;font-weight:normal;font-stretch:normal;text-anchor:middle;font-family:Arial;-inkscape-font-specification:Arial">B2</text>
  <path
     d="m 603.09612,48.81652 c -47.34626,43.134499 -40.93155,61.22615 -8.6747,80.95148"
     id="path66-4"
     inkscape:connector-curvature="0"
     style="fill:none;stroke:#000000;stroke-width:1.00106013"
     sodipodi:nodetypes="cc" />
  <polygon
     points="32.9862,-108.725 22.5,-110.239 25.7324,-116.448 25.7324,-116.448 "
     id="polygon68-11"
     style="fill:#000000;stroke:#000000;stroke-width:1"
     transform="matrix(1.0010601,0,0,1.0010601,569.51096,242.86667)" />
  <text
     x="639.08948"
     y="101.1618"
     font-size="14.00"
     id="text70-3"
     style="font-size:14.01484108px;font-style:normal;font-variant:normal;font-weight:normal;font-stretch:normal;text-anchor:middle;font-family:Arial;-inkscape-font-specification:Arial"><tspan
   style="font-weight:bold"
   id="tspan3159-8">receive</tspan>

 S() <tspan
   style="font-weight:bold"
   id="tspan3161-7">from</tspan>

 In1</text>
  <path
     d="m 711.08325,56.851598 c 19.37448,16.543879 18.18694,30.252725 3.73383,48.141892"
     id="path75-4"
     inkscape:connector-curvature="0"
     style="fill:none;stroke:#000000;stroke-width:1.00106013"
     sodipodi:nodetypes="cc" />
  <polygon
     points="150.908,-128.889 155.947,-124.03 155.947,-124.03 146.486,-119.262 "
     id="polygon77-2"
     style="fill:#000000;stroke:#000000;stroke-width:1"
     transform="matrix(1.0010601,0,0,1.0010601,561.10835,231.32965)" />
  <text
     x="786.11816"
     y="60.475414"
     font-size="14.00"
     id="text79-7"
     style="font-size:14.01484108px;font-style:normal;font-variant:normal;font-weight:normal;font-stretch:normal;text-anchor:middle;font-family:Arial;-inkscape-font-specification:Arial"><tspan
   style="font-weight:bold"
   id="tspan3155-7">receive</tspan>

 S() <tspan
   style="font-weight:bold"
   id="tspan3157-9">from</tspan>

 In2</text>
  <g
     id="g3189"
     transform="translate(-9.6101772,-2.9282984e-6)">
    <polyline
       transform="matrix(1.00106,0,0,1.00106,148.05772,231.65477)"
       style="fill:none;stroke:#000000"
       id="polyline17-19"
       points="11.5,-173 102.5,-173 " />
    <path
       style="fill:none;stroke:#000000;stroke-width:1.00106001"
       inkscape:connector-curvature="0"
       id="path19-8"
       d="m 250.66637,58.471389 c 6.00636,0 12.01272,-6.00636 12.01272,-12.01272" />
    <polyline
       transform="matrix(1.00106,0,0,1.00106,148.05772,231.65477)"
       style="fill:none;stroke:#000000"
       id="polyline21-6"
       points="114.5,-185 114.5,-219 " />
    <path
       style="fill:none;stroke:#000000;stroke-width:1.00106001"
       inkscape:connector-curvature="0"
       id="path23-50"
       d="m 262.67909,12.422629 c 0,-6.0063605 -6.00636,-12.01272042 -12.01272,-12.01272042" />
    <polyline
       transform="matrix(1.00106,0,0,1.00106,148.05772,231.65477)"
       style="fill:none;stroke:#000000"
       id="polyline25-2"
       points="102.5,-231 11.5,-231 " />
    <path
       style="fill:none;stroke:#000000;stroke-width:1.00106001"
       inkscape:connector-curvature="0"
       id="path27-86"
       d="m 159.56991,0.40990858 c -6.00636,0 -12.01272,6.00635992 -12.01272,12.01272042" />
    <polyline
       transform="matrix(1.00106,0,0,1.00106,148.05772,231.65477)"
       style="fill:none;stroke:#000000"
       id="polyline29-0"
       points="-0.5,-219 -0.5,-185 " />
    <path
       style="fill:none;stroke:#000000;stroke-width:1.00106001"
       inkscape:connector-curvature="0"
       id="path31-24"
       d="m 147.55719,46.458669 c 0,6.00636 6.00636,12.01272 12.01272,12.01272" />
    <text
       style="font-size:14.01484013px;font-style:normal;font-variant:normal;font-weight:normal;font-stretch:normal;text-anchor:middle;font-family:Arial;-inkscape-font-specification:Arial"
       id="text33-8"
       font-size="14.00"
       y="34.045528"
       x="205.11813">B0</text>
    <polyline
       transform="matrix(1.00106,0,0,1.00106,148.05772,231.65477)"
       style="fill:none;stroke:#000000"
       id="polyline45-6"
       points="11.5,-61 102.5,-61 " />
    <path
       style="fill:none;stroke:#000000;stroke-width:1.00106001"
       inkscape:connector-curvature="0"
       id="path47-50"
       d="m 250.66637,170.59011 c 6.00636,0 12.01272,-6.00636 12.01272,-12.01272" />
    <polyline
       transform="matrix(1.00106,0,0,1.00106,148.05772,231.65477)"
       style="fill:none;stroke:#000000"
       id="polyline49-90"
       points="114.5,-73 114.5,-107 " />
    <path
       style="fill:none;stroke:#000000;stroke-width:1.00106001"
       inkscape:connector-curvature="0"
       id="path51-0"
       d="m 262.67909,124.54135 c 0,-6.00636 -6.00636,-12.01272 -12.01272,-12.01272" />
    <polyline
       transform="matrix(1.00106,0,0,1.00106,148.05772,231.65477)"
       style="fill:none;stroke:#000000"
       id="polyline53-6"
       points="102.5,-119 11.5,-119 " />
    <path
       style="fill:none;stroke:#000000;stroke-width:1.00106001"
       inkscape:connector-curvature="0"
       id="path55-13"
       d="m 159.56991,112.52863 c -6.00636,0 -12.01272,6.00636 -12.01272,12.01272" />
    <polyline
       transform="matrix(1.00106,0,0,1.00106,148.05772,231.65477)"
       style="fill:none;stroke:#000000"
       id="polyline57-8"
       points="-0.5,-107 -0.5,-73 " />
    <path
       style="fill:none;stroke:#000000;stroke-width:1.00106001"
       inkscape:connector-curvature="0"
       id="path59-9"
       d="m 147.55719,158.57739 c 0,6.00636 6.00636,12.01272 12.01272,12.01272" />
    <text
       style="font-size:14.01484013px;font-style:normal;font-variant:normal;font-weight:normal;font-stretch:normal;text-anchor:middle;font-family:Arial;-inkscape-font-specification:Arial"
       id="text61-34"
       font-size="14.00"
       y="146.16425"
       x="205.11813">B1</text>
    <path
       style="fill:none;stroke:#000000;stroke-width:1.00106001"
       inkscape:connector-curvature="0"
       id="path66-46"
       d="m 177.88924,58.605531 c 0,13.262042 0,29.154871 0,43.465029" />
    <polygon
       transform="matrix(1.00106,0,0,1.00106,120.82882,231.65477)"
       style="fill:#000000;stroke:#000000"
       id="polygon68-0"
       points="57,-119.378 53.5001,-129.378 60.5001,-129.377 60.5001,-129.377 " />
    <text
       style="font-size:14.01484013px;font-style:normal;font-variant:normal;font-weight:normal;font-stretch:normal;text-anchor:middle;font-family:Arial;-inkscape-font-specification:Arial"
       id="text70-6"
       font-size="14.00"
       y="88.503189"
       x="248.56429"><tspan
   id="tspan3131-6"
   style="font-weight:bold">receive</tspan>

 S() <tspan
   id="tspan3133-1"
   style="font-weight:bold">from</tspan>

 In</text>
  </g>
</svg>
