<?xml version="1.0" encoding="UTF-8" standalone="no"?>
<!-- Generated by graphviz version 2.26.3 (20100126.1600)
 -->

<!-- Title: b_B Pages: 1 -->

<svg
   xmlns:dc="http://purl.org/dc/elements/1.1/"
   xmlns:cc="http://creativecommons.org/ns#"
   xmlns:rdf="http://www.w3.org/1999/02/22-rdf-syntax-ns#"
   xmlns:svg="http://www.w3.org/2000/svg"
   xmlns="http://www.w3.org/2000/svg"
   xmlns:sodipodi="http://sodipodi.sourceforge.net/DTD/sodipodi-0.dtd"
   xmlns:inkscape="http://www.inkscape.org/namespaces/inkscape"
   width="344.95404"
   height="393.75"
   viewBox="0 0 275.73158 315"
   id="svg2"
   version="1.1"
   inkscape:version="0.48.1 "
   sodipodi:docname="MergeObjects_b_after.svg">
  <metadata
     id="metadata133">
    <rdf:RDF>
      <cc:Work
         rdf:about="">
        <dc:format>image/svg+xml</dc:format>
        <dc:type
           rdf:resource="http://purl.org/dc/dcmitype/StillImage" />
        <dc:title></dc:title>
      </cc:Work>
    </rdf:RDF>
  </metadata>
  <defs
     id="defs131" />
  <sodipodi:namedview
     pagecolor="#ffffff"
     bordercolor="#666666"
     borderopacity="1"
     objecttolerance="10"
     gridtolerance="10"
     guidetolerance="10"
     inkscape:pageopacity="0"
     inkscape:pageshadow="2"
     inkscape:window-width="1680"
     inkscape:window-height="998"
     id="namedview129"
     showgrid="false"
     fit-margin-top="0"
     fit-margin-left="0"
     fit-margin-right="0"
     fit-margin-bottom="0"
     inkscape:zoom="1.3545312"
     inkscape:cx="195.8956"
     inkscape:cy="215.18892"
     inkscape:window-x="-8"
     inkscape:window-y="-8"
     inkscape:window-maximized="1"
     inkscape:current-layer="svg2" />
  <polyline
     points="65.2651,-317 156.265,-317 "
     id="polyline17"
     style="fill:none;stroke:#000000"
     transform="translate(8.7974595,375.5)" />
  <path
     d="m 165.06246,58.5 c 6,0 12,-6 12,-12"
     id="path19"
     inkscape:connector-curvature="0"
     style="fill:none;stroke:#000000" />
  <polyline
     points="168.265,-329 168.265,-363 "
     id="polyline21"
     style="fill:none;stroke:#000000"
     transform="translate(8.7974595,375.5)" />
  <path
     d="m 177.06246,12.5 c 0,-6 -6,-12 -12,-12"
     id="path23"
     inkscape:connector-curvature="0"
     style="fill:none;stroke:#000000" />
  <polyline
     points="156.265,-375 65.2651,-375 "
     id="polyline25"
     style="fill:none;stroke:#000000"
     transform="translate(8.7974595,375.5)" />
  <path
     d="m 74.06256,0.5 c -6,0 -12,6 -12,12"
     id="path27"
     inkscape:connector-curvature="0"
     style="fill:none;stroke:#000000" />
  <polyline
     points="53.2651,-363 53.2651,-329 "
     id="polyline29"
     style="fill:none;stroke:#000000"
     transform="translate(8.7974595,375.5)" />
  <path
     d="m 62.06256,46.5 c 0,6 6,12 12,12"
     id="path31"
     inkscape:connector-curvature="0"
     style="fill:none;stroke:#000000" />
  <text
     x="119.56246"
     y="34.100006"
     font-size="14.00"
     id="text33"
     style="font-size:14px;font-style:normal;font-variant:normal;font-weight:normal;font-stretch:normal;text-anchor:middle;font-family:Arial;-inkscape-font-specification:Arial">R0</text>
  <polyline
     points="33.7651,-189 187.765,-189 "
     id="polyline45"
     style="fill:none;stroke:#000000"
     transform="translate(8.7974595,375.5)" />
  <path
     d="m 196.56246,186.5 c 6,0 12,-6 12,-12"
     id="path47"
     inkscape:connector-curvature="0"
     style="fill:none;stroke:#000000" />
  <polyline
     points="199.765,-201 199.765,-235 "
     id="polyline49"
     style="fill:none;stroke:#000000"
     transform="translate(8.7974595,375.5)" />
  <path
     d="m 208.56246,140.5 c 0,-6 -6,-12 -12,-12"
     id="path51"
     inkscape:connector-curvature="0"
     style="fill:none;stroke:#000000" />
  <polyline
     points="187.765,-247 33.7651,-247 "
     id="polyline53"
     style="fill:none;stroke:#000000"
     transform="translate(8.7974595,375.5)" />
  <path
     d="m 42.56256,128.5 c -6,0 -12,6 -12,12"
     id="path55"
     inkscape:connector-curvature="0"
     style="fill:none;stroke:#000000" />
  <polyline
     points="21.7651,-235 21.7651,-201 "
     id="polyline57"
     style="fill:none;stroke:#000000"
     transform="translate(8.7974595,375.5)" />
  <path
     d="m 30.56256,174.5 c 0,6 6,12 12,12"
     id="path59"
     inkscape:connector-curvature="0"
     style="fill:none;stroke:#000000" />
  <text
     x="119.56246"
     y="162.10001"
     font-size="14.00"
     id="text61"
     style="font-size:14px;font-style:normal;font-variant:normal;font-weight:normal;font-stretch:normal;text-anchor:middle;font-family:Arial;-inkscape-font-specification:Arial">R2</text>
  <path
     d="M 61.90326,42.571 C 6.552079,46.11907 -21.536957,83.16671 20.955698,135.76165"
     id="path66"
     inkscape:connector-curvature="0"
     style="fill:none;stroke:#000000"
     sodipodi:nodetypes="cc" />
  <polygon
     points="18.045,-256.514 23.3316,-247.332 13.4731,-251.213 18.045,-256.514 "
     id="polygon68"
     style="fill:#000000;stroke:#000000"
     transform="translate(5.8444082,390.26526)" />
  <text
     x="104.00002"
     y="87.146957"
     font-size="14.00"
     id="text70"
     style="font-size:14px;font-style:normal;font-variant:normal;font-weight:normal;font-stretch:normal;text-anchor:middle;font-family:Arial;-inkscape-font-specification:Arial">C_abl == 1 &amp;&amp; C_name == &quot;S&quot;;</text>
  <text
     x="104.00002"
     y="103.14696"
     font-size="14.00"
     id="text72"
     style="font-size:14px;font-style:normal;font-variant:normal;font-weight:normal;font-stretch:normal;text-anchor:middle;font-family:Arial;-inkscape-font-specification:Arial">C_abl := 2</text>
  <path
     d="m 194.20346,128.494 c 32.41725,-30.97608 26.3972,-57.00411 -8.54371,-84.59443"
     id="path77"
     inkscape:connector-curvature="0"
     style="fill:none;stroke:#000000"
     sodipodi:nodetypes="cc" />
  <polygon
     points="174.79,-315.85 168.544,-324.408 178.763,-321.614 174.79,-315.85 "
     id="polygon79"
     style="fill:#000000;stroke:#000000"
     transform="translate(9.8819671,364.27841)" />
  <text
     x="242.26328"
     y="58.8433"
     font-size="14.00"
     id="text81"
     style="font-size:14px;font-style:normal;font-variant:normal;font-weight:normal;font-stretch:normal;text-anchor:middle;font-family:Arial;-inkscape-font-specification:Arial">C_abl == 0</text>
  <polyline
     points="65.2651,-61 156.265,-61 "
     id="polyline86"
     style="fill:none;stroke:#000000"
     transform="translate(8.7974595,375.5)" />
  <path
     d="m 165.06246,314.5 c 6,0 12,-6 12,-12"
     id="path88"
     inkscape:connector-curvature="0"
     style="fill:none;stroke:#000000" />
  <polyline
     points="168.265,-73 168.265,-107 "
     id="polyline90"
     style="fill:none;stroke:#000000"
     transform="translate(8.7974595,375.5)" />
  <path
     d="m 177.06246,268.5 c 0,-6 -6,-12 -12,-12"
     id="path92"
     inkscape:connector-curvature="0"
     style="fill:none;stroke:#000000" />
  <polyline
     points="156.265,-119 65.2651,-119 "
     id="polyline94"
     style="fill:none;stroke:#000000"
     transform="translate(8.7974595,375.5)" />
  <path
     d="m 74.06256,256.5 c -6,0 -12,6 -12,12"
     id="path96"
     inkscape:connector-curvature="0"
     style="fill:none;stroke:#000000" />
  <polyline
     points="53.2651,-107 53.2651,-73 "
     id="polyline98"
     style="fill:none;stroke:#000000"
     transform="translate(8.7974595,375.5)" />
  <path
     d="m 62.06256,302.5 c 0,6 6,12 12,12"
     id="path100"
     inkscape:connector-curvature="0"
     style="fill:none;stroke:#000000" />
  <text
     x="119.56246"
     y="290.10001"
     font-size="14.00"
     id="text102"
     style="font-size:14px;font-style:normal;font-variant:normal;font-weight:normal;font-stretch:normal;text-anchor:middle;font-family:Arial;-inkscape-font-specification:Arial">R1</text>
  <path
     d="m 119.56246,186.545 c 0,17.551 0,40.16 0,59.336"
     id="path107"
     inkscape:connector-curvature="0"
     style="fill:none;stroke:#000000" />
  <polygon
     points="114.265,-129.373 114.265,-129.373 110.765,-119.373 107.265,-129.373 "
     id="polygon109"
     style="fill:#000000;stroke:#000000"
     transform="translate(8.7974595,375.5)" />
  <text
     x="165.2625"
     y="214.89999"
     font-size="14.00"
     id="text111"
     style="font-size:14px;font-style:normal;font-variant:normal;font-weight:normal;font-stretch:normal;text-anchor:middle;font-family:Arial;-inkscape-font-specification:Arial">C_abl == 3;</text>
  <text
     x="165.2625"
     y="230.89999"
     font-size="14.00"
     id="text113"
     style="font-size:14px;font-style:normal;font-variant:normal;font-weight:normal;font-stretch:normal;text-anchor:middle;font-family:Arial;-inkscape-font-specification:Arial">C_abl := 0</text>
</svg>
