<?xml version="1.0" encoding="UTF-8" standalone="no"?>
<!-- Generated by graphviz version 2.26.3 (20100126.1600)
 -->

<!-- Title: a_A Pages: 1 -->

<svg
   xmlns:dc="http://purl.org/dc/elements/1.1/"
   xmlns:cc="http://creativecommons.org/ns#"
   xmlns:rdf="http://www.w3.org/1999/02/22-rdf-syntax-ns#"
   xmlns:svg="http://www.w3.org/2000/svg"
   xmlns="http://www.w3.org/2000/svg"
   xmlns:sodipodi="http://sodipodi.sourceforge.net/DTD/sodipodi-0.dtd"
   xmlns:inkscape="http://www.inkscape.org/namespaces/inkscape"
   width="257.13297"
   height="413.75"
   viewBox="0 0 205.65816 331"
   id="svg2"
   version="1.1"
   inkscape:version="0.48.1 "
   sodipodi:docname="MergeObjects_a_after.svg">
  <metadata
     id="metadata142">
    <rdf:RDF>
      <cc:Work
         rdf:about="">
        <dc:format>image/svg+xml</dc:format>
        <dc:type
           rdf:resource="http://purl.org/dc/dcmitype/StillImage" />
        <dc:title></dc:title>
      </cc:Work>
    </rdf:RDF>
  </metadata>
  <defs
     id="defs140" />
  <sodipodi:namedview
     pagecolor="#ffffff"
     bordercolor="#666666"
     borderopacity="1"
     objecttolerance="10"
     gridtolerance="10"
     guidetolerance="10"
     inkscape:pageopacity="0"
     inkscape:pageshadow="2"
     inkscape:window-width="1680"
     inkscape:window-height="998"
     id="namedview138"
     showgrid="false"
     inkscape:zoom="1.3065831"
     inkscape:cx="256.72624"
     inkscape:cy="230.98003"
     inkscape:window-x="-8"
     inkscape:window-y="-8"
     inkscape:window-maximized="1"
     inkscape:current-layer="svg2"
     fit-margin-top="0"
     fit-margin-left="0"
     fit-margin-right="0"
     fit-margin-bottom="0" />
  <polyline
     points="131.5,-333 222.5,-333 "
     id="polyline17"
     style="fill:none;stroke:#000000"
     transform="translate(-36.99161,391.5)" />
  <path
     d="m 185.50839,58.5 c 6,0 12,-6 12,-12"
     id="path19"
     inkscape:connector-curvature="0"
     style="fill:none;stroke:#000000" />
  <polyline
     points="234.5,-345 234.5,-379 "
     id="polyline21"
     style="fill:none;stroke:#000000"
     transform="translate(-36.99161,391.5)" />
  <path
     d="m 197.50839,12.5 c 0,-6 -6,-12 -12,-12"
     id="path23"
     inkscape:connector-curvature="0"
     style="fill:none;stroke:#000000" />
  <polyline
     points="222.5,-391 131.5,-391 "
     id="polyline25"
     style="fill:none;stroke:#000000"
     transform="translate(-36.99161,391.5)" />
  <path
     d="m 94.50839,0.5 c -6,0 -12,6 -12,12"
     id="path27"
     inkscape:connector-curvature="0"
     style="fill:none;stroke:#000000" />
  <polyline
     points="119.5,-379 119.5,-345 "
     id="polyline29"
     style="fill:none;stroke:#000000"
     transform="translate(-36.99161,391.5)" />
  <path
     d="m 82.50839,46.5 c 0,6 6,12 12,12"
     id="path31"
     inkscape:connector-curvature="0"
     style="fill:none;stroke:#000000" />
  <text
     x="140.00839"
     y="34.100006"
     font-size="14.00"
     id="text33"
     style="font-size:14px;font-style:normal;font-variant:normal;font-weight:normal;font-stretch:normal;text-anchor:middle;font-family:Arial;-inkscape-font-specification:Arial">S0</text>
  <polyline
     points="11.5,-205 196.5,-205 "
     id="polyline45"
     style="fill:none;stroke:#000000;stroke-width:1.2532047"
     transform="matrix(0.636731,0,0,1,0.788366,391.5)" />
  <path
     d="m 125.90601,186.5 c 3.82038,0 7.64077,-6 7.64077,-12"
     id="path47"
     inkscape:connector-curvature="0"
     style="fill:none;stroke:#000000;stroke-width:1" />
  <polyline
     points="208.5,-217 208.5,-251 "
     id="polyline49"
     style="fill:none;stroke:#000000;stroke-width:1.2532047"
     transform="matrix(0.636731,0,0,1,0.788366,391.5)" />
  <path
     d="m 133.54678,140.5 c 0,-6 -3.82039,-12 -7.64077,-12"
     id="path51"
     inkscape:connector-curvature="0"
     style="fill:none;stroke:#000000;stroke-width:1" />
  <polyline
     points="196.5,-263 11.5,-263 "
     id="polyline53"
     style="fill:none;stroke:#000000;stroke-width:1.2532047"
     transform="matrix(0.636731,0,0,1,0.788366,391.5)" />
  <path
     d="M 8.110773,128.5 C 4.290386,128.5 0.47,134.5 0.47,140.5"
     id="path55"
     inkscape:connector-curvature="0"
     style="fill:none;stroke:#000000;stroke-width:1" />
  <polyline
     points="-0.5,-251 -0.5,-217 "
     id="polyline57"
     style="fill:none;stroke:#000000;stroke-width:1.2532047"
     transform="matrix(0.636731,0,0,1,0.788366,391.5)" />
  <path
     d="m 0.47,174.5 c 0,6 3.820386,12 7.640773,12"
     id="path59"
     inkscape:connector-curvature="0"
     style="fill:none;stroke:#000000;stroke-width:1" />
  <text
     x="67.066505"
     y="162.10001"
     font-size="14.00"
     id="text61"
     style="font-size:14px;font-style:normal;font-variant:normal;font-weight:normal;font-stretch:normal;text-anchor:middle;font-family:Arial;-inkscape-font-specification:Arial">S2</text>
  <path
     d="m 99.52839,58.655 c -5.18,5.893 -10.153,12.3 -14.12,18.845 -7.672,12.658 -13.638,27.719 -18.054,41.341"
     id="path66"
     inkscape:connector-curvature="0"
     style="fill:none;stroke:#000000" />
  <polygon
     points="111.002,-263.049 110.585,-273.636 117.278,-271.585 117.278,-271.585 "
     id="polygon68"
     style="fill:#000000;stroke:#000000"
     transform="translate(-46.59161,391.5)" />
  <text
     x="133.98384"
     y="99.896545"
     font-size="14.00"
     id="text70"
     style="font-size:14px;font-style:normal;font-variant:normal;font-weight:normal;font-stretch:normal;text-anchor:middle;font-family:Arial;-inkscape-font-specification:Arial">C_name := &quot;S&quot;;</text>
  <text
     x="133.98384"
     y="115.89655"
     font-size="14.00"
     id="text72"
     style="font-size:14px;font-style:normal;font-variant:normal;font-weight:normal;font-stretch:normal;text-anchor:middle;font-family:Arial;-inkscape-font-specification:Arial">C_abl := 1</text>
  <polyline
     points="115.5,-61 206.5,-61 "
     id="polyline77"
     style="fill:none;stroke:#000000"
     transform="translate(-36.99161,391.5)" />
  <path
     d="m 169.50839,330.5 c 6,0 12,-6 12,-12"
     id="path79"
     inkscape:connector-curvature="0"
     style="fill:none;stroke:#000000" />
  <polyline
     points="218.5,-73 218.5,-107 "
     id="polyline81"
     style="fill:none;stroke:#000000"
     transform="translate(-36.99161,391.5)" />
  <path
     d="m 181.50839,284.5 c 0,-6 -6,-12 -12,-12"
     id="path83"
     inkscape:connector-curvature="0"
     style="fill:none;stroke:#000000" />
  <polyline
     points="206.5,-119 115.5,-119 "
     id="polyline85"
     style="fill:none;stroke:#000000"
     transform="translate(-36.99161,391.5)" />
  <path
     d="m 78.50839,272.5 c -6,0 -12,6 -12,12"
     id="path87"
     inkscape:connector-curvature="0"
     style="fill:none;stroke:#000000" />
  <polyline
     points="103.5,-107 103.5,-73 "
     id="polyline89"
     style="fill:none;stroke:#000000"
     transform="translate(-36.99161,391.5)" />
  <path
     d="m 66.50839,318.5 c 0,6 6,12 12,12"
     id="path91"
     inkscape:connector-curvature="0"
     style="fill:none;stroke:#000000" />
  <text
     x="124.00839"
     y="306.10001"
     font-size="14.00"
     id="text93"
     style="font-size:14px;font-style:normal;font-variant:normal;font-weight:normal;font-stretch:normal;text-anchor:middle;font-family:Arial;-inkscape-font-specification:Arial">S1</text>
  <path
     d="m 183.04039,58.528 c 29.50295,62.09095 32.47306,152.60349 -9.258,206.44"
     id="path98"
     inkscape:connector-curvature="0"
     style="fill:none;stroke:#000000"
     sodipodi:nodetypes="cc" />
  <polygon
     points="213.389,-124.207 213.389,-124.207 204.145,-119.03 208.144,-128.842 "
     id="polygon100"
     style="fill:#000000;stroke:#000000"
     transform="translate(-36.99161,391.5)" />
  <path
     d="m 11.76929,186.696 c -11.453783,47.83125 0.757687,61.88897 45.859,91.109"
     id="path105"
     inkscape:connector-curvature="0"
     style="fill:none;stroke:#000000"
     sodipodi:nodetypes="cc" />
  <polygon
     points="96.6177,-116.58 96.6177,-116.58 103.457,-108.488 93.0644,-110.549 "
     id="polygon107"
     style="fill:#000000;stroke:#000000"
     transform="translate(-36.99161,391.5)" />
  <text
     x="54.13641"
     y="207.07889"
     font-size="14.00"
     id="text109"
     style="font-size:14px;font-style:normal;font-variant:normal;font-weight:normal;font-stretch:normal;text-anchor:middle;font-family:Arial;-inkscape-font-specification:Arial">C_abl == 2;</text>
  <text
     x="54.13641"
     y="223.07889"
     font-size="14.00"
     id="text111"
     style="font-size:14px;font-style:normal;font-variant:normal;font-weight:normal;font-stretch:normal;text-anchor:middle;font-family:Arial;-inkscape-font-specification:Arial">C_abl := 3;</text>
  <text
     x="54.13641"
     y="239.07889"
     font-size="14.00"
     id="text113"
     style="font-size:14px;font-style:normal;font-variant:normal;font-weight:normal;font-stretch:normal;text-anchor:middle;font-family:Arial;-inkscape-font-specification:Arial">C_abl == 0</text>
  <path
     d="m 94.22639,186.553 c 4.128,6 8.031,12.472 10.982,18.947 8.121,17.818 13.379,38.907 16.71,56.773"
     id="path118"
     inkscape:connector-curvature="0"
     style="fill:none;stroke:#000000" />
  <polygon
     points="157.456,-119.128 152.304,-128.386 159.201,-129.578 159.201,-129.578 "
     id="polygon120"
     style="fill:#000000;stroke:#000000"
     transform="translate(-33.79161,391.5)" />
  <text
     x="145.92241"
     y="208.24548"
     font-size="14.00"
     id="text122"
     style="font-size:14px;font-style:normal;font-variant:normal;font-weight:normal;font-stretch:normal;text-anchor:middle;font-family:Arial;-inkscape-font-specification:Arial">C_abl := 0</text>
</svg>
