<?xml version="1.0" encoding="UTF-8" standalone="no"?>
<!-- Generated by graphviz version 2.26.3 (20100126.1600)
 -->

<!-- Title: A Pages: 1 -->

<svg
   xmlns:dc="http://purl.org/dc/elements/1.1/"
   xmlns:cc="http://creativecommons.org/ns#"
   xmlns:rdf="http://www.w3.org/1999/02/22-rdf-syntax-ns#"
   xmlns:svg="http://www.w3.org/2000/svg"
   xmlns="http://www.w3.org/2000/svg"
   xmlns:sodipodi="http://sodipodi.sourceforge.net/DTD/sodipodi-0.dtd"
   xmlns:inkscape="http://www.inkscape.org/namespaces/inkscape"
   width="148.17403"
   height="213.75"
   viewBox="0 0 118.53922 171"
   id="svg2"
   version="1.1"
   inkscape:version="0.48.1 "
   sodipodi:docname="MergeObjects_a_before.svg">
  <metadata
     id="metadata97">
    <rdf:RDF>
      <cc:Work
         rdf:about="">
        <dc:format>image/svg+xml</dc:format>
        <dc:type
           rdf:resource="http://purl.org/dc/dcmitype/StillImage" />
      </cc:Work>
    </rdf:RDF>
  </metadata>
  <defs
     id="defs95" />
  <sodipodi:namedview
     pagecolor="#ffffff"
     bordercolor="#666666"
     borderopacity="1"
     objecttolerance="10"
     gridtolerance="10"
     guidetolerance="10"
     inkscape:pageopacity="0"
     inkscape:pageshadow="2"
     inkscape:window-width="1680"
     inkscape:window-height="998"
     id="namedview93"
     showgrid="false"
     fit-margin-top="0"
     fit-margin-left="0"
     fit-margin-right="0"
     fit-margin-bottom="0"
     inkscape:zoom="1.430137"
     inkscape:cx="58.402533"
     inkscape:cy="116.88027"
     inkscape:window-x="-8"
     inkscape:window-y="-8"
     inkscape:window-maximized="1"
     inkscape:current-layer="svg2" />
  <polyline
     points="11.5,-173 102.5,-173 "
     id="polyline17"
     style="fill:none;stroke:#000000"
     transform="translate(3.5392179,231.5)" />
  <path
     d="m 106.03922,58.5 c 6,0 12,-6 12,-12"
     id="path19"
     inkscape:connector-curvature="0"
     style="fill:none;stroke:#000000" />
  <polyline
     points="114.5,-185 114.5,-219 "
     id="polyline21"
     style="fill:none;stroke:#000000"
     transform="translate(3.5392179,231.5)" />
  <path
     d="m 118.03922,12.5 c 0,-6 -6,-12 -12,-12"
     id="path23"
     inkscape:connector-curvature="0"
     style="fill:none;stroke:#000000" />
  <polyline
     points="102.5,-231 11.5,-231 "
     id="polyline25"
     style="fill:none;stroke:#000000"
     transform="translate(3.5392179,231.5)" />
  <path
     d="m 15.039218,0.5 c -6.0000001,0 -12.0000001,6 -12.0000001,12"
     id="path27"
     inkscape:connector-curvature="0"
     style="fill:none;stroke:#000000" />
  <polyline
     points="-0.5,-219 -0.5,-185 "
     id="polyline29"
     style="fill:none;stroke:#000000"
     transform="translate(3.5392179,231.5)" />
  <path
     d="m 3.0392179,46.5 c 0,6 6,12 12.0000001,12"
     id="path31"
     inkscape:connector-curvature="0"
     style="fill:none;stroke:#000000" />
  <text
     x="60.539219"
     y="34.100006"
     font-size="14.00"
     id="text33"
     style="font-size:14px;font-style:normal;font-variant:normal;font-weight:normal;font-stretch:normal;text-anchor:middle;font-family:Arial;-inkscape-font-specification:Arial">S0</text>
  <polyline
     points="11.5,-61 102.5,-61 "
     id="polyline45"
     style="fill:none;stroke:#000000"
     transform="translate(3.5392179,231.5)" />
  <path
     d="m 106.03922,170.5 c 6,0 12,-6 12,-12"
     id="path47"
     inkscape:connector-curvature="0"
     style="fill:none;stroke:#000000" />
  <polyline
     points="114.5,-73 114.5,-107 "
     id="polyline49"
     style="fill:none;stroke:#000000"
     transform="translate(3.5392179,231.5)" />
  <path
     d="m 118.03922,124.5 c 0,-6 -6,-12 -12,-12"
     id="path51"
     inkscape:connector-curvature="0"
     style="fill:none;stroke:#000000" />
  <polyline
     points="102.5,-119 11.5,-119 "
     id="polyline53"
     style="fill:none;stroke:#000000"
     transform="translate(3.5392179,231.5)" />
  <path
     d="m 15.039218,112.5 c -6.0000001,0 -12.0000001,6 -12.0000001,12"
     id="path55"
     inkscape:connector-curvature="0"
     style="fill:none;stroke:#000000" />
  <polyline
     points="-0.5,-107 -0.5,-73 "
     id="polyline57"
     style="fill:none;stroke:#000000"
     transform="translate(3.5392179,231.5)" />
  <path
     d="m 3.0392179,158.5 c 0,6 6,12 12.0000001,12"
     id="path59"
     inkscape:connector-curvature="0"
     style="fill:none;stroke:#000000" />
  <text
     x="60.539219"
     y="146.10001"
     font-size="14.00"
     id="text61"
     style="font-size:14px;font-style:normal;font-variant:normal;font-weight:normal;font-stretch:normal;text-anchor:middle;font-family:Arial;-inkscape-font-specification:Arial">S1</text>
  <path
     d="M 14.956518,58.593 C 9.9054179,64.283 5.4644179,70.637 2.5392179,77.5 c -3.98048,9.339 -1.76686,18.487 3.4715,26.814"
     id="path66"
     inkscape:connector-curvature="0"
     style="fill:none;stroke:#000000" />
  <polygon
     points="13.3147,-129.23 16.6008,-119.158 7.75074,-124.982 13.3147,-129.23 "
     id="polygon68"
     style="fill:#000000;stroke:#000000"
     transform="translate(-4.4607821,231.5)" />
  <text
     x="54.539219"
     y="90.100006"
     font-size="14.00"
     id="text70"
     style="font-size:14px;font-style:normal;font-variant:normal;font-weight:normal;font-stretch:normal;text-anchor:middle;font-family:Arial;-inkscape-font-specification:Arial"><tspan
   style="font-weight:bold"
   id="tspan3144">send</tspan>
 S() <tspan
   style="font-weight:bold"
   id="tspan3146">to</tspan>
 Out</text>
  <path
     d="m 108.22902,58.556 c 7.3834,10.553 12.1139,22.862 7.9102,34.944 -1.2246,3.52 -2.8265,6.976 -4.6796,10.319"
     id="path75"
     inkscape:connector-curvature="0"
     style="fill:none;stroke:#000000" />
  <polygon
     points="87.2976,-129.449 93.2157,-125.71 93.2157,-125.71 84.9159,-119.125 "
     id="polygon77"
     style="fill:#000000;stroke:#000000"
     transform="translate(21.139218,231.5)" />
</svg>
