<?xml version="1.0" encoding="UTF-8" standalone="no"?>
<!-- Generated by graphviz version 2.26.3 (20100126.1600)
 -->

<!-- Title: a_A Pages: 1 -->

<svg
   xmlns:dc="http://purl.org/dc/elements/1.1/"
   xmlns:cc="http://creativecommons.org/ns#"
   xmlns:rdf="http://www.w3.org/1999/02/22-rdf-syntax-ns#"
   xmlns:svg="http://www.w3.org/2000/svg"
   xmlns="http://www.w3.org/2000/svg"
   xmlns:sodipodi="http://sodipodi.sourceforge.net/DTD/sodipodi-0.dtd"
   xmlns:inkscape="http://www.inkscape.org/namespaces/inkscape"
   width="1061.3649"
   height="381.75"
   viewBox="0 0 848.89289 305.4"
   id="svg2"
   version="1.1"
   inkscape:version="0.48.1 "
   sodipodi:docname="MergeObjects.svg">
  <metadata
     id="metadata142">
    <rdf:RDF>
      <cc:Work
         rdf:about="">
        <dc:format>image/svg+xml</dc:format>
        <dc:type
           rdf:resource="http://purl.org/dc/dcmitype/StillImage" />
        <dc:title></dc:title>
      </cc:Work>
    </rdf:RDF>
  </metadata>
  <defs
     id="defs140" />
  <sodipodi:namedview
     pagecolor="#ffffff"
     bordercolor="#666666"
     borderopacity="1"
     objecttolerance="10"
     gridtolerance="10"
     guidetolerance="10"
     inkscape:pageopacity="0"
     inkscape:pageshadow="2"
     inkscape:window-width="1680"
     inkscape:window-height="998"
     id="namedview138"
     showgrid="false"
     inkscape:zoom="0.65329156"
     inkscape:cx="391.7648"
     inkscape:cy="67.977673"
     inkscape:window-x="-8"
     inkscape:window-y="-8"
     inkscape:window-maximized="1"
     inkscape:current-layer="svg2"
     fit-margin-top="0"
     fit-margin-left="0"
     fit-margin-right="0"
     fit-margin-bottom="0" />
  <g
     id="g3432"
     transform="translate(7.923479,-9.82245)">
    <polyline
       transform="translate(315.56207,401.32245)"
       style="fill:none;stroke:#000000"
       id="polyline17"
       points="131.5,-333 222.5,-333 " />
    <path
       style="fill:none;stroke:#000000"
       inkscape:connector-curvature="0"
       id="path19"
       d="m 538.06207,68.322451 c 6,0 12,-6 12,-12" />
    <polyline
       transform="translate(315.56207,401.32245)"
       style="fill:none;stroke:#000000"
       id="polyline21"
       points="234.5,-345 234.5,-379 " />
    <path
       style="fill:none;stroke:#000000"
       inkscape:connector-curvature="0"
       id="path23"
       d="m 550.06207,22.322451 c 0,-6 -6,-12 -12,-12" />
    <polyline
       transform="translate(315.56207,401.32245)"
       style="fill:none;stroke:#000000"
       id="polyline25"
       points="222.5,-391 131.5,-391 " />
    <path
       style="fill:none;stroke:#000000"
       inkscape:connector-curvature="0"
       id="path27"
       d="m 447.06207,10.322451 c -6,0 -12,6 -12,12" />
    <polyline
       transform="translate(315.56207,401.32245)"
       style="fill:none;stroke:#000000"
       id="polyline29"
       points="119.5,-379 119.5,-345 " />
    <path
       style="fill:none;stroke:#000000"
       inkscape:connector-curvature="0"
       id="path31"
       d="m 435.06207,56.322451 c 0,6 6,12 12,12" />
    <text
       style="font-size:14px;font-style:normal;font-variant:normal;font-weight:normal;font-stretch:normal;text-anchor:middle;font-family:Arial;-inkscape-font-specification:Arial"
       id="text33"
       font-size="14.00"
       y="43.922459"
       x="492.56207">S0</text>
    <polyline
       transform="matrix(0.636731,0,0,1,353.34205,391.72245)"
       style="fill:none;stroke:#000000;stroke-width:1.2532047"
       id="polyline45"
       points="11.5,-205 196.5,-205 " />
    <path
       style="fill:none;stroke:#000000;stroke-width:1"
       inkscape:connector-curvature="0"
       id="path47"
       d="m 478.45969,186.72245 c 3.82038,0 7.64077,-6 7.64077,-12" />
    <polyline
       transform="matrix(0.636731,0,0,1,353.34205,391.72245)"
       style="fill:none;stroke:#000000;stroke-width:1.2532047"
       id="polyline49"
       points="208.5,-217 208.5,-251 " />
    <path
       style="fill:none;stroke:#000000;stroke-width:1"
       inkscape:connector-curvature="0"
       id="path51"
       d="m 486.10046,140.72245 c 0,-6 -3.82039,-12 -7.64077,-12" />
    <polyline
       transform="matrix(0.636731,0,0,1,353.34205,391.72245)"
       style="fill:none;stroke:#000000;stroke-width:1.2532047"
       id="polyline53"
       points="196.5,-263 11.5,-263 " />
    <path
       style="fill:none;stroke:#000000;stroke-width:1"
       inkscape:connector-curvature="0"
       id="path55"
       d="m 360.66445,128.72245 c -3.82038,0 -7.64077,6 -7.64077,12" />
    <polyline
       transform="matrix(0.636731,0,0,1,353.34205,391.72245)"
       style="fill:none;stroke:#000000;stroke-width:1.2532047"
       id="polyline57"
       points="-0.5,-251 -0.5,-217 " />
    <path
       style="fill:none;stroke:#000000;stroke-width:1"
       inkscape:connector-curvature="0"
       id="path59"
       d="m 353.02368,174.72245 c 0,6 3.82039,12 7.64077,12" />
    <text
       style="font-size:14px;font-style:normal;font-variant:normal;font-weight:normal;font-stretch:normal;text-anchor:middle;font-family:Arial;-inkscape-font-specification:Arial"
       id="text61"
       font-size="14.00"
       y="162.32242"
       x="419.62018">S2</text>
    <path
       style="fill:none;stroke:#000000"
       inkscape:connector-curvature="0"
       id="path66"
       d="m 448.88207,68.477451 c -5.18,5.893 -10.153,12.3 -14.12,18.845 -7.672,12.658 -13.638,27.718999 -18.054,41.340999" />
    <polygon
       transform="translate(305.96207,391.72245)"
       style="fill:#000000;stroke:#000000"
       id="polygon68"
       points="110.585,-273.636 117.278,-271.585 117.278,-271.585 111.002,-263.049 " />
    <text
       style="font-size:14px;font-style:normal;font-variant:normal;font-weight:normal;font-stretch:normal;text-anchor:middle;font-family:Arial;-inkscape-font-specification:Arial"
       id="text70"
       font-size="14.00"
       y="100.11899"
       x="486.53751">C_name := &quot;S&quot;;</text>
    <text
       style="font-size:14px;font-style:normal;font-variant:normal;font-weight:normal;font-stretch:normal;text-anchor:middle;font-family:Arial;-inkscape-font-specification:Arial"
       id="text72"
       font-size="14.00"
       y="116.119"
       x="486.53751">C_abl := 1</text>
    <polyline
       transform="translate(315.56207,375.72245)"
       style="fill:none;stroke:#000000"
       id="polyline77"
       points="115.5,-61 206.5,-61 " />
    <path
       style="fill:none;stroke:#000000"
       inkscape:connector-curvature="0"
       id="path79"
       d="m 522.06207,314.72245 c 6,0 12,-6 12,-12" />
    <polyline
       transform="translate(315.56207,375.72245)"
       style="fill:none;stroke:#000000"
       id="polyline81"
       points="218.5,-73 218.5,-107 " />
    <path
       style="fill:none;stroke:#000000"
       inkscape:connector-curvature="0"
       id="path83"
       d="m 534.06207,268.72245 c 0,-6 -6,-12 -12,-12" />
    <polyline
       transform="translate(315.56207,375.72245)"
       style="fill:none;stroke:#000000"
       id="polyline85"
       points="206.5,-119 115.5,-119 " />
    <path
       style="fill:none;stroke:#000000"
       inkscape:connector-curvature="0"
       id="path87"
       d="m 431.06207,256.72245 c -6,0 -12,6 -12,12" />
    <polyline
       transform="translate(315.56207,375.72245)"
       style="fill:none;stroke:#000000"
       id="polyline89"
       points="103.5,-107 103.5,-73 " />
    <path
       style="fill:none;stroke:#000000"
       inkscape:connector-curvature="0"
       id="path91"
       d="m 419.06207,302.72245 c 0,6 6,12 12,12" />
    <text
       style="font-size:14px;font-style:normal;font-variant:normal;font-weight:normal;font-stretch:normal;text-anchor:middle;font-family:Arial;-inkscape-font-specification:Arial"
       id="text93"
       font-size="14.00"
       y="290.32236"
       x="476.56207">S1</text>
    <path
       sodipodi:nodetypes="cc"
       style="fill:none;stroke:#000000;stroke-width:1"
       inkscape:connector-curvature="0"
       id="path98"
       d="M 534.73065,68.350451 C 565.3844,123.44345 568.47037,203.75478 525.11152,251.52366" />
    <polygon
       transform="translate(315.56207,375.72245)"
       style="fill:#000000;stroke:#000000"
       id="polygon100"
       points="208.144,-128.842 213.389,-124.207 213.389,-124.207 204.145,-119.03 " />
    <path
       sodipodi:nodetypes="cc"
       style="fill:none;stroke:#000000"
       inkscape:connector-curvature="0"
       id="path105"
       d="m 364.32297,186.91845 c -11.45378,47.83125 0.75769,61.88897 45.859,91.109" />
    <polygon
       transform="translate(315.56207,391.72245)"
       style="fill:#000000;stroke:#000000"
       id="polygon107"
       points="96.6177,-116.58 103.457,-108.488 93.0644,-110.549 96.6177,-116.58 " />
    <text
       style="font-size:14px;font-style:normal;font-variant:normal;font-weight:normal;font-stretch:normal;text-anchor:middle;font-family:Arial;-inkscape-font-specification:Arial"
       id="text109"
       font-size="14.00"
       y="207.3013"
       x="406.69009">C_abl == 2;</text>
    <text
       style="font-size:14px;font-style:normal;font-variant:normal;font-weight:normal;font-stretch:normal;text-anchor:middle;font-family:Arial;-inkscape-font-specification:Arial"
       id="text111"
       font-size="14.00"
       y="223.3013"
       x="406.69009">C_abl := 3;</text>
    <text
       style="font-size:14px;font-style:normal;font-variant:normal;font-weight:normal;font-stretch:normal;text-anchor:middle;font-family:Arial;-inkscape-font-specification:Arial"
       id="text113"
       font-size="14.00"
       y="239.3013"
       x="406.69009">C_abl == 0</text>
    <path
       style="fill:none;stroke:#000000;stroke-width:0.99999994"
       inkscape:connector-curvature="0"
       id="path118"
       d="m 449.98007,186.77545 c 3.85418,5.32076 7.49829,11.06009 10.25355,16.80208 7.58232,15.80089 12.49155,34.50249 15.6016,50.34594" />
    <polygon
       transform="translate(318.76207,375.72245)"
       style="fill:#000000;stroke:#000000"
       id="polygon120"
       points="159.201,-129.578 157.456,-119.128 152.304,-128.386 159.201,-129.578 " />
    <text
       style="font-size:14px;font-style:normal;font-variant:normal;font-weight:normal;font-stretch:normal;text-anchor:middle;font-family:Arial;-inkscape-font-specification:Arial"
       id="text122"
       font-size="14.00"
       y="208.4679"
       x="498.47607">C_abl := 0</text>
  </g>
  <g
     id="g3515"
     transform="translate(-0.07652123,64.750863)">
    <g
       transform="translate(-0.02410604,2.449137)"
       id="g3080">
      <polyline
         points="11.5,-173 102.5,-173 "
         id="polyline17-7"
         style="fill:none;stroke:#000000"
         transform="translate(3.5392179,231.5)" />
      <path
         d="m 106.03922,58.5 c 6,0 12,-6 12,-12"
         id="path19-4"
         inkscape:connector-curvature="0"
         style="fill:none;stroke:#000000" />
      <polyline
         points="114.5,-185 114.5,-219 "
         id="polyline21-0"
         style="fill:none;stroke:#000000"
         transform="translate(3.5392179,231.5)" />
      <path
         d="m 118.03922,12.5 c 0,-6 -6,-12 -12,-12"
         id="path23-9"
         inkscape:connector-curvature="0"
         style="fill:none;stroke:#000000" />
      <polyline
         points="102.5,-231 11.5,-231 "
         id="polyline25-4"
         style="fill:none;stroke:#000000"
         transform="translate(3.5392179,231.5)" />
      <path
         d="m 15.039218,0.5 c -6.0000001,0 -12.0000001,6 -12.0000001,12"
         id="path27-8"
         inkscape:connector-curvature="0"
         style="fill:none;stroke:#000000" />
      <polyline
         points="-0.5,-219 -0.5,-185 "
         id="polyline29-8"
         style="fill:none;stroke:#000000"
         transform="translate(3.5392179,231.5)" />
      <path
         d="m 3.0392179,46.5 c 0,6 6,12 12.0000001,12"
         id="path31-2"
         inkscape:connector-curvature="0"
         style="fill:none;stroke:#000000" />
      <text
         x="60.539219"
         y="34.100006"
         font-size="14.00"
         id="text33-4"
         style="font-size:14px;font-style:normal;font-variant:normal;font-weight:normal;font-stretch:normal;text-anchor:middle;font-family:Arial;-inkscape-font-specification:Arial">S0</text>
      <polyline
         points="11.5,-61 102.5,-61 "
         id="polyline45-5"
         style="fill:none;stroke:#000000"
         transform="translate(3.5392179,231.5)" />
      <path
         d="m 106.03922,170.5 c 6,0 12,-6 12,-12"
         id="path47-5"
         inkscape:connector-curvature="0"
         style="fill:none;stroke:#000000" />
      <polyline
         points="114.5,-73 114.5,-107 "
         id="polyline49-1"
         style="fill:none;stroke:#000000"
         transform="translate(3.5392179,231.5)" />
      <path
         d="m 118.03922,124.5 c 0,-6 -6,-12 -12,-12"
         id="path51-7"
         inkscape:connector-curvature="0"
         style="fill:none;stroke:#000000" />
      <polyline
         points="102.5,-119 11.5,-119 "
         id="polyline53-1"
         style="fill:none;stroke:#000000"
         transform="translate(3.5392179,231.5)" />
      <path
         d="m 15.039218,112.5 c -6.0000001,0 -12.0000001,6 -12.0000001,12"
         id="path55-1"
         inkscape:connector-curvature="0"
         style="fill:none;stroke:#000000" />
      <polyline
         points="-0.5,-107 -0.5,-73 "
         id="polyline57-5"
         style="fill:none;stroke:#000000"
         transform="translate(3.5392179,231.5)" />
      <path
         d="m 3.0392179,158.5 c 0,6 6,12 12.0000001,12"
         id="path59-2"
         inkscape:connector-curvature="0"
         style="fill:none;stroke:#000000" />
      <text
         x="60.539219"
         y="146.10001"
         font-size="14.00"
         id="text61-7"
         style="font-size:14px;font-style:normal;font-variant:normal;font-weight:normal;font-stretch:normal;text-anchor:middle;font-family:Arial;-inkscape-font-specification:Arial">S1</text>
      <path
         d="M 14.956518,58.593 C 9.9054179,64.283 5.4644179,70.637 2.5392179,77.5 c -3.98048,9.339 -1.76686,18.487 3.4715,26.814"
         id="path66-6"
         inkscape:connector-curvature="0"
         style="fill:none;stroke:#000000" />
      <polygon
         points="13.3147,-129.23 16.6008,-119.158 7.75074,-124.982 13.3147,-129.23 "
         id="polygon68-1"
         style="fill:#000000;stroke:#000000"
         transform="translate(-4.4607821,231.5)" />
      <text
         x="54.539219"
         y="90.100006"
         font-size="14.00"
         id="text70-4"
         style="font-size:14px;font-style:normal;font-variant:normal;font-weight:normal;font-stretch:normal;text-anchor:middle;font-family:Arial;-inkscape-font-specification:Arial"><tspan
   style="font-weight:bold"
   id="tspan3144">send</tspan>
 S() <tspan
   style="font-weight:bold"
   id="tspan3146">to</tspan>
 Out</text>
      <path
         d="m 108.22902,58.556 c 7.3834,10.553 12.1139,22.862 7.9102,34.944 -1.2246,3.52 -2.8265,6.976 -4.6796,10.319"
         id="path75"
         inkscape:connector-curvature="0"
         style="fill:none;stroke:#000000" />
      <polygon
         points="87.2976,-129.449 93.2157,-125.71 93.2157,-125.71 84.9159,-119.125 "
         id="polygon77"
         style="fill:#000000;stroke:#000000"
         transform="translate(21.139218,231.5)" />
    </g>
  </g>
  <g
     id="g3475"
     transform="translate(-48.076521,-36.758539)">
    <polyline
       transform="translate(630.01702,421.05854)"
       style="fill:none;stroke:#000000"
       id="polyline17-3"
       points="65.2651,-317 156.265,-317 " />
    <path
       style="fill:none;stroke:#000000"
       inkscape:connector-curvature="0"
       id="path19-2"
       d="m 786.28202,104.05854 c 6,0 12,-6.000002 12,-12.000002" />
    <polyline
       transform="translate(630.01702,421.05854)"
       style="fill:none;stroke:#000000"
       id="polyline21-2"
       points="168.265,-329 168.265,-363 " />
    <path
       style="fill:none;stroke:#000000"
       inkscape:connector-curvature="0"
       id="path23-1"
       d="m 798.28202,58.058538 c 0,-6 -6,-12 -12,-12" />
    <polyline
       transform="translate(630.01702,421.05854)"
       style="fill:none;stroke:#000000"
       id="polyline25-6"
       points="156.265,-375 65.2651,-375 " />
    <path
       style="fill:none;stroke:#000000"
       inkscape:connector-curvature="0"
       id="path27-85"
       d="m 695.28212,46.058538 c -6,0 -12,6 -12,12" />
    <polyline
       transform="translate(630.01702,421.05854)"
       style="fill:none;stroke:#000000"
       id="polyline29-7"
       points="53.2651,-363 53.2651,-329 " />
    <path
       style="fill:none;stroke:#000000"
       inkscape:connector-curvature="0"
       id="path31-6"
       d="m 683.28212,92.058538 c 0,6 6,12.000002 12,12.000002" />
    <text
       style="font-size:14px;font-style:normal;font-variant:normal;font-weight:normal;font-stretch:normal;text-anchor:middle;font-family:Arial;-inkscape-font-specification:Arial"
       id="text33-1"
       font-size="14.00"
       y="79.658546"
       x="740.78204">R0</text>
    <polyline
       transform="translate(630.01702,411.45854)"
       style="fill:none;stroke:#000000"
       id="polyline45-8"
       points="33.7651,-189 187.765,-189 " />
    <path
       style="fill:none;stroke:#000000"
       inkscape:connector-curvature="0"
       id="path47-9"
       d="m 817.78202,222.45854 c 6,0 12,-6 12,-12" />
    <polyline
       transform="translate(630.01702,411.45854)"
       style="fill:none;stroke:#000000"
       id="polyline49-2"
       points="199.765,-201 199.765,-235 " />
    <path
       style="fill:none;stroke:#000000"
       inkscape:connector-curvature="0"
       id="path51-79"
       d="m 829.78202,176.45854 c 0,-6 -6,-12 -12,-12" />
    <polyline
       transform="translate(630.01702,411.45854)"
       style="fill:none;stroke:#000000"
       id="polyline53-5"
       points="187.765,-247 33.7651,-247 " />
    <path
       style="fill:none;stroke:#000000"
       inkscape:connector-curvature="0"
       id="path55-4"
       d="m 663.78212,164.45854 c -6,0 -12,6 -12,12" />
    <polyline
       transform="translate(630.01702,411.45854)"
       style="fill:none;stroke:#000000"
       id="polyline57-3"
       points="21.7651,-235 21.7651,-201 " />
    <path
       style="fill:none;stroke:#000000"
       inkscape:connector-curvature="0"
       id="path59-1"
       d="m 651.78212,210.45854 c 0,6 6,12 12,12" />
    <text
       style="font-size:14px;font-style:normal;font-variant:normal;font-weight:normal;font-stretch:normal;text-anchor:middle;font-family:Arial;-inkscape-font-specification:Arial"
       id="text61-2"
       font-size="14.00"
       y="198.0585"
       x="740.78204">R2</text>
    <path
       sodipodi:nodetypes="cc"
       style="fill:none;stroke:#000000"
       inkscape:connector-curvature="0"
       id="path66-3"
       d="m 683.12282,88.129538 c -55.35118,3.54807 -83.44022,32.595712 -40.94756,85.190652" />
    <polygon
       transform="translate(627.06397,426.2238)"
       style="fill:#000000;stroke:#000000"
       id="polygon68-3"
       points="23.3316,-247.332 13.4731,-251.213 18.045,-256.514 18.045,-256.514 " />
    <text
       style="font-size:14px;font-style:normal;font-variant:normal;font-weight:normal;font-stretch:normal;text-anchor:middle;font-family:Arial;-inkscape-font-specification:Arial"
       id="text70-41"
       font-size="14.00"
       y="129.50548"
       x="725.2196">C_abl == 1 &amp;&amp; C_name == &quot;S&quot;;</text>
    <text
       style="font-size:14px;font-style:normal;font-variant:normal;font-weight:normal;font-stretch:normal;text-anchor:middle;font-family:Arial;-inkscape-font-specification:Arial"
       id="text72-1"
       font-size="14.00"
       y="145.50548"
       x="725.2196">C_abl := 2</text>
    <path
       sodipodi:nodetypes="cc"
       style="fill:none;stroke:#000000"
       inkscape:connector-curvature="0"
       id="path77"
       d="m 815.42302,164.45254 c 32.41725,-30.97608 26.3972,-47.40411 -8.54371,-74.994432" />
    <polygon
       transform="translate(631.10153,409.83695)"
       style="fill:#000000;stroke:#000000"
       id="polygon79"
       points="174.79,-315.85 174.79,-315.85 168.544,-324.408 178.763,-321.614 " />
    <text
       style="font-size:14px;font-style:normal;font-variant:normal;font-weight:normal;font-stretch:normal;text-anchor:middle;font-family:Arial;-inkscape-font-specification:Arial"
       id="text81"
       font-size="14.00"
       y="104.40184"
       x="863.48285">C_abl == 0</text>
    <polyline
       transform="translate(630.01702,393.85854)"
       style="fill:none;stroke:#000000"
       id="polyline86"
       points="65.2651,-61 156.265,-61 " />
    <path
       style="fill:none;stroke:#000000"
       inkscape:connector-curvature="0"
       id="path88"
       d="m 786.28202,332.85854 c 6,0 12,-6 12,-12" />
    <polyline
       transform="translate(630.01702,393.85854)"
       style="fill:none;stroke:#000000"
       id="polyline90"
       points="168.265,-73 168.265,-107 " />
    <path
       style="fill:none;stroke:#000000"
       inkscape:connector-curvature="0"
       id="path92"
       d="m 798.28202,286.85854 c 0,-6 -6,-12 -12,-12" />
    <polyline
       transform="translate(630.01702,393.85854)"
       style="fill:none;stroke:#000000"
       id="polyline94"
       points="156.265,-119 65.2651,-119 " />
    <path
       style="fill:none;stroke:#000000"
       inkscape:connector-curvature="0"
       id="path96"
       d="m 695.28212,274.85854 c -6,0 -12,6 -12,12" />
    <polyline
       transform="translate(630.01702,393.85854)"
       style="fill:none;stroke:#000000"
       id="polyline98"
       points="53.2651,-107 53.2651,-73 " />
    <path
       style="fill:none;stroke:#000000"
       inkscape:connector-curvature="0"
       id="path100"
       d="m 683.28212,320.85854 c 0,6 6,12 12,12" />
    <text
       style="font-size:14px;font-style:normal;font-variant:normal;font-weight:normal;font-stretch:normal;text-anchor:middle;font-family:Arial;-inkscape-font-specification:Arial"
       id="text102"
       font-size="14.00"
       y="308.45844"
       x="740.78204">R1</text>
    <path
       style="fill:none;stroke:#000000;stroke-width:1"
       inkscape:connector-curvature="0"
       id="path107"
       d="m 740.78202,222.50354 c 0,13.23296 0,30.27951 0,44.73768" />
    <polygon
       transform="translate(630.01702,393.85854)"
       style="fill:#000000;stroke:#000000"
       id="polygon109"
       points="114.265,-129.373 114.265,-129.373 110.765,-119.373 107.265,-129.373 " />
    <text
       style="font-size:14px;font-style:normal;font-variant:normal;font-weight:normal;font-stretch:normal;text-anchor:middle;font-family:Arial;-inkscape-font-specification:Arial"
       id="text111-3"
       font-size="14.00"
       y="244.45847"
       x="786.48206">C_abl == 3;</text>
    <text
       style="font-size:14px;font-style:normal;font-variant:normal;font-weight:normal;font-stretch:normal;text-anchor:middle;font-family:Arial;-inkscape-font-specification:Arial"
       id="text113-8"
       font-size="14.00"
       y="260.45847"
       x="786.48206">C_abl := 0</text>
  </g>
  <g
     id="g3285"
     transform="translate(134.61626,67.2)">
    <polyline
       transform="translate(1,231.5)"
       style="fill:none;stroke:#000000"
       id="polyline17-4"
       points="11.5,-173 102.5,-173 " />
    <path
       style="fill:none;stroke:#000000"
       inkscape:connector-curvature="0"
       id="path19-27"
       d="m 103.5,58.5 c 6,0 12,-6 12,-12" />
    <polyline
       transform="translate(1,231.5)"
       style="fill:none;stroke:#000000"
       id="polyline21-7"
       points="114.5,-185 114.5,-219 " />
    <path
       style="fill:none;stroke:#000000"
       inkscape:connector-curvature="0"
       id="path23-93"
       d="m 115.5,12.5 c 0,-6 -6,-12 -12,-12" />
    <polyline
       transform="translate(1,231.5)"
       style="fill:none;stroke:#000000"
       id="polyline25-1"
       points="102.5,-231 11.5,-231 " />
    <path
       style="fill:none;stroke:#000000"
       inkscape:connector-curvature="0"
       id="path27-9"
       d="m 12.5,0.5 c -6,0 -12,6 -12,12" />
    <polyline
       transform="translate(1,231.5)"
       style="fill:none;stroke:#000000"
       id="polyline29-86"
       points="-0.5,-219 -0.5,-185 " />
    <path
       style="fill:none;stroke:#000000"
       inkscape:connector-curvature="0"
       id="path31-5"
       d="m 0.5,46.5 c 0,6 6,12 12,12" />
    <text
       style="font-size:14px;font-style:normal;font-variant:normal;font-weight:normal;font-stretch:normal;text-anchor:middle;font-family:Arial;-inkscape-font-specification:Arial"
       id="text33-0"
       font-size="14.00"
       y="34.100006"
       x="58">R0</text>
    <polyline
       transform="translate(1,231.5)"
       style="fill:none;stroke:#000000"
       id="polyline45-2"
       points="11.5,-61 102.5,-61 " />
    <path
       style="fill:none;stroke:#000000"
       inkscape:connector-curvature="0"
       id="path47-8"
       d="m 103.5,170.5 c 6,0 12,-6 12,-12" />
    <polyline
       transform="translate(1,231.5)"
       style="fill:none;stroke:#000000"
       id="polyline49-6"
       points="114.5,-73 114.5,-107 " />
    <path
       style="fill:none;stroke:#000000"
       inkscape:connector-curvature="0"
       id="path51-0"
       d="m 115.5,124.5 c 0,-6 -6,-12 -12,-12" />
    <polyline
       transform="translate(1,231.5)"
       style="fill:none;stroke:#000000"
       id="polyline53-2"
       points="102.5,-119 11.5,-119 " />
    <path
       style="fill:none;stroke:#000000"
       inkscape:connector-curvature="0"
       id="path55-48"
       d="m 12.5,112.5 c -6,0 -12,6 -12,12" />
    <polyline
       transform="translate(1,231.5)"
       style="fill:none;stroke:#000000"
       id="polyline57-6"
       points="-0.5,-107 -0.5,-73 " />
    <path
       style="fill:none;stroke:#000000"
       inkscape:connector-curvature="0"
       id="path59-5"
       d="m 0.5,158.5 c 0,6 6,12 12,12" />
    <text
       style="font-size:14px;font-style:normal;font-variant:normal;font-weight:normal;font-stretch:normal;text-anchor:middle;font-family:Arial;-inkscape-font-specification:Arial"
       id="text61-0"
       font-size="14.00"
       y="146.10001"
       x="58">R1</text>
    <path
       style="fill:none;stroke:#000000"
       inkscape:connector-curvature="0"
       id="path66-9"
       d="m 58,58.634 c 0,13.248 0,29.124 0,43.419" />
    <polygon
       transform="translate(1,231.5)"
       style="fill:#000000;stroke:#000000"
       id="polygon68-0"
       points="60.5001,-129.377 57,-119.378 53.5001,-129.378 60.5001,-129.377 " />
    <text
       style="font-size:14px;font-style:normal;font-variant:normal;font-weight:normal;font-stretch:normal;text-anchor:middle;font-family:Arial;-inkscape-font-specification:Arial"
       id="text70-0"
       font-size="14.00"
       y="86.899994"
       x="125.40001"><tspan
   id="tspan3131"
   style="font-weight:bold">receive</tspan>
 S() <tspan
   id="tspan3133"
   style="font-weight:bold">from</tspan>
 In</text>
  </g>
</svg>
