<?xml version="1.0" encoding="UTF-8" standalone="no"?>
<!-- Generated by graphviz version 2.26.3 (20100126.1600)
 -->

<!-- Title: A Pages: 1 -->

<svg
   xmlns:dc="http://purl.org/dc/elements/1.1/"
   xmlns:cc="http://creativecommons.org/ns#"
   xmlns:rdf="http://www.w3.org/1999/02/22-rdf-syntax-ns#"
   xmlns:svg="http://www.w3.org/2000/svg"
   xmlns="http://www.w3.org/2000/svg"
   xmlns:sodipodi="http://sodipodi.sourceforge.net/DTD/sodipodi-0.dtd"
   xmlns:inkscape="http://www.inkscape.org/namespaces/inkscape"
   width="1033.9506"
   height="213.75"
   viewBox="0 0 827.16045 171"
   id="svg2"
   version="1.1"
   inkscape:version="0.48.1 "
   sodipodi:docname="s2a_simple.svg">
  <metadata
     id="metadata92">
    <rdf:RDF>
      <cc:Work
         rdf:about="">
        <dc:format>image/svg+xml</dc:format>
        <dc:type
           rdf:resource="http://purl.org/dc/dcmitype/StillImage" />
        <dc:title></dc:title>
      </cc:Work>
    </rdf:RDF>
  </metadata>
  <defs
     id="defs90" />
  <sodipodi:namedview
     pagecolor="#ffffff"
     bordercolor="#666666"
     borderopacity="1"
     objecttolerance="10"
     gridtolerance="10"
     guidetolerance="10"
     inkscape:pageopacity="0"
     inkscape:pageshadow="2"
     inkscape:window-width="1680"
     inkscape:window-height="998"
     id="namedview88"
     showgrid="false"
     fit-margin-top="0"
     fit-margin-left="0"
     fit-margin-right="0"
     fit-margin-bottom="0"
     inkscape:zoom="0.95872663"
     inkscape:cx="421.33073"
     inkscape:cy="23.1257"
     inkscape:window-x="-8"
     inkscape:window-y="-8"
     inkscape:window-maximized="1"
     inkscape:current-layer="svg2">
    <inkscape:grid
       type="xygrid"
       id="grid3085"
       empspacing="5"
       visible="true"
       enabled="true"
       snapvisiblegridlinesonly="true" />
  </sodipodi:namedview>
  <g
     id="g3253">
    <polyline
       transform="translate(387.94006,249.1)"
       style="fill:none;stroke:#000000"
       id="polyline17"
       points="11.5,-189 102.5,-189 " />
    <path
       style="fill:none;stroke:#000000"
       inkscape:connector-curvature="0"
       id="path19"
       d="m 490.44006,60.1 c 6,0 12,-6 12,-12" />
    <polyline
       transform="translate(387.94006,249.1)"
       style="fill:none;stroke:#000000"
       id="polyline21"
       points="114.5,-201 114.5,-235 " />
    <path
       style="fill:none;stroke:#000000"
       inkscape:connector-curvature="0"
       id="path23"
       d="m 502.44006,14.1 c 0,-6 -6,-12 -12,-12" />
    <polyline
       transform="translate(387.94006,249.1)"
       style="fill:none;stroke:#000000"
       id="polyline25"
       points="102.5,-247 11.5,-247 " />
    <path
       style="fill:none;stroke:#000000"
       inkscape:connector-curvature="0"
       id="path27"
       d="m 399.44006,2.1 c -6,0 -12,6 -12,12" />
    <polyline
       transform="translate(387.94006,249.1)"
       style="fill:none;stroke:#000000"
       id="polyline29"
       points="-0.5,-235 -0.5,-201 " />
    <path
       style="fill:none;stroke:#000000"
       inkscape:connector-curvature="0"
       id="path31"
       d="m 387.44006,48.1 c 0,6 6,12 12,12" />
    <text
       style="font-size:14px;font-style:normal;font-variant:normal;font-weight:normal;font-stretch:normal;text-anchor:middle;font-family:Arial;-inkscape-font-specification:Arial"
       id="text33"
       font-size="14.00"
       y="35.700047"
       x="444.94006">S0</text>
    <polyline
       transform="translate(387.94006,229.9)"
       style="fill:none;stroke:#000000"
       id="polyline45"
       points="11.5,-61 102.5,-61 " />
    <path
       style="fill:none;stroke:#000000"
       inkscape:connector-curvature="0"
       id="path47"
       d="m 490.44006,168.9 c 6,0 12,-6 12,-12" />
    <polyline
       transform="translate(387.94006,229.9)"
       style="fill:none;stroke:#000000"
       id="polyline49"
       points="114.5,-73 114.5,-107 " />
    <path
       style="fill:none;stroke:#000000"
       inkscape:connector-curvature="0"
       id="path51"
       d="m 502.44006,122.9 c 0,-6 -6,-12 -12,-12" />
    <polyline
       transform="translate(387.94006,229.9)"
       style="fill:none;stroke:#000000"
       id="polyline53"
       points="102.5,-119 11.5,-119 " />
    <path
       style="fill:none;stroke:#000000"
       inkscape:connector-curvature="0"
       id="path55"
       d="m 399.44006,110.9 c -6,0 -12,6 -12,12" />
    <polyline
       transform="translate(387.94006,229.9)"
       style="fill:none;stroke:#000000"
       id="polyline57"
       points="-0.5,-107 -0.5,-73 " />
    <path
       style="fill:none;stroke:#000000"
       inkscape:connector-curvature="0"
       id="path59"
       d="m 387.44006,156.9 c 0,6 6,12 12,12" />
    <text
       style="font-size:14px;font-style:normal;font-variant:normal;font-weight:normal;font-stretch:normal;text-anchor:middle;font-family:Arial;-inkscape-font-specification:Arial"
       id="text61"
       font-size="14.00"
       y="144.50002"
       x="444.94006">S1</text>
    <path
       style="fill:none;stroke:#000000;stroke-width:1"
       inkscape:connector-curvature="0"
       id="path66"
       d="m 444.94006,59.70283 c 0,14.36894 0,32.87885 0,48.57817" />
    <polygon
       transform="translate(387.94006,229.9)"
       style="fill:#000000;stroke:#000000"
       id="polygon68"
       points="57,-119.373 53.5001,-129.373 60.5001,-129.373 60.5001,-129.373 " />
    <text
       style="font-size:14px;font-style:normal;font-variant:normal;font-weight:normal;font-stretch:normal;text-anchor:middle;font-family:Arial;-inkscape-font-specification:Arial"
       id="text70"
       font-size="14.00"
       y="78.900002"
       x="534.14056"><tspan
   id="tspan3139"
   style="font-weight:bold">send</tspan>
 Send_S() <tspan
   id="tspan3141"
   style="font-weight:bold">to</tspan>
 Out;</text>
    <text
       style="font-size:14px;font-style:normal;font-variant:normal;font-weight:normal;font-stretch:normal;text-anchor:middle;font-family:Arial;-inkscape-font-specification:Arial"
       id="text72"
       font-size="14.00"
       y="94.900002"
       x="534.14056"><tspan
   id="tspan3143"
   style="font-weight:bold">receive</tspan>
 Ack_S() <tspan
   id="tspan3145"
   style="font-weight:bold">from</tspan>
 Out</text>
  </g>
  <g
     id="g3556"
     transform="translate(331.55623,200.78232)">
    <polyline
       transform="translate(-330.55623,40.31768)"
       style="fill:none;stroke:#000000"
       id="polyline17-6"
       points="11.5,-173 102.5,-173 " />
    <path
       style="fill:none;stroke:#000000"
       inkscape:connector-curvature="0"
       id="path19-8"
       d="m -228.05623,-132.68232 c 6,0 12,-6 12,-12" />
    <polyline
       transform="translate(-330.55623,40.31768)"
       style="fill:none;stroke:#000000"
       id="polyline21-5"
       points="114.5,-185 114.5,-219 " />
    <path
       style="fill:none;stroke:#000000"
       inkscape:connector-curvature="0"
       id="path23-7"
       d="m -216.05623,-178.68232 c 0,-6 -6,-12 -12,-12" />
    <polyline
       transform="translate(-330.55623,40.31768)"
       style="fill:none;stroke:#000000"
       id="polyline25-6"
       points="102.5,-231 11.5,-231 " />
    <path
       style="fill:none;stroke:#000000"
       inkscape:connector-curvature="0"
       id="path27-1"
       d="m -319.05623,-190.68232 c -6,0 -12,6 -12,12" />
    <polyline
       transform="translate(-330.55623,40.31768)"
       style="fill:none;stroke:#000000"
       id="polyline29-8"
       points="-0.5,-219 -0.5,-185 " />
    <path
       style="fill:none;stroke:#000000"
       inkscape:connector-curvature="0"
       id="path31-9"
       d="m -331.05623,-144.68232 c 0,6 6,12 12,12" />
    <text
       style="font-size:14px;font-style:normal;font-variant:normal;font-weight:normal;font-stretch:normal;text-anchor:middle;font-family:Arial;-inkscape-font-specification:Arial"
       id="text33-2"
       font-size="14.00"
       y="-157.08229"
       x="-273.55624">S0</text>
    <polyline
       transform="translate(-330.55623,21.11768)"
       style="fill:none;stroke:#000000"
       id="polyline45-79"
       points="11.5,-61 102.5,-61 " />
    <path
       style="fill:none;stroke:#000000"
       inkscape:connector-curvature="0"
       id="path47-5"
       d="m -228.05623,-39.88232 c 6,0 12,-6 12,-12" />
    <polyline
       transform="translate(-330.55623,21.11768)"
       style="fill:none;stroke:#000000"
       id="polyline49-4"
       points="114.5,-73 114.5,-107 " />
    <path
       style="fill:none;stroke:#000000"
       inkscape:connector-curvature="0"
       id="path51-3"
       d="m -216.05623,-85.88232 c 0,-6 -6,-12 -12,-12" />
    <polyline
       transform="translate(-330.55623,21.11768)"
       style="fill:none;stroke:#000000"
       id="polyline53-1"
       points="102.5,-119 11.5,-119 " />
    <path
       style="fill:none;stroke:#000000"
       inkscape:connector-curvature="0"
       id="path55-2"
       d="m -319.05623,-97.88232 c -6,0 -12,6 -12,12" />
    <polyline
       transform="translate(-330.55623,21.11768)"
       style="fill:none;stroke:#000000"
       id="polyline57-3"
       points="-0.5,-107 -0.5,-73 " />
    <path
       style="fill:none;stroke:#000000"
       inkscape:connector-curvature="0"
       id="path59-3"
       d="m -331.05623,-51.88232 c 0,6 6,12 12,12" />
    <text
       style="font-size:14px;font-style:normal;font-variant:normal;font-weight:normal;font-stretch:normal;text-anchor:middle;font-family:Arial;-inkscape-font-specification:Arial"
       id="text61-41"
       font-size="14.00"
       y="-64.282303"
       x="-273.55624">S1</text>
    <path
       style="fill:none;stroke:#000000;stroke-width:1"
       inkscape:connector-curvature="0"
       id="path66-1"
       d="m -273.55623,-133.12289 c 0,10.98235 0,24.14327 0,35.99357" />
    <polygon
       transform="translate(-330.55623,21.11768)"
       style="fill:#000000;stroke:#000000"
       id="polygon68-38"
       points="57,-119.378 53.5001,-129.378 60.5001,-129.377 60.5001,-129.377 " />
    <text
       style="font-size:14px;font-style:normal;font-variant:normal;font-weight:normal;font-stretch:normal;text-anchor:middle;font-family:Arial;-inkscape-font-specification:Arial"
       id="text70-7"
       font-size="14.00"
       y="-112.28233"
       x="-216.75623"><tspan
   id="tspan3131"
   style="font-weight:bold">send</tspan>
 S() <tspan
   id="tspan3133"
   style="font-weight:bold">to</tspan>
 Out</text>
  </g>
  <g
     id="g3225">
    <polyline
       transform="translate(599.07691,247.5)"
       style="fill:none;stroke:#000000"
       id="polyline17-9"
       points="11.5,-189 102.5,-189 " />
    <path
       style="fill:none;stroke:#000000"
       inkscape:connector-curvature="0"
       id="path19-4"
       d="m 701.57691,58.5 c 6,0 12,-6 12,-12" />
    <polyline
       transform="translate(599.07691,247.5)"
       style="fill:none;stroke:#000000"
       id="polyline21-8"
       points="114.5,-201 114.5,-235 " />
    <path
       style="fill:none;stroke:#000000"
       inkscape:connector-curvature="0"
       id="path23-8"
       d="m 713.57691,12.5 c 0,-6 -6,-12 -12,-12" />
    <polyline
       transform="translate(599.07691,247.5)"
       style="fill:none;stroke:#000000"
       id="polyline25-2"
       points="102.5,-247 11.5,-247 " />
    <path
       style="fill:none;stroke:#000000"
       inkscape:connector-curvature="0"
       id="path27-4"
       d="m 610.57691,0.5 c -6,0 -12,6 -12,12" />
    <polyline
       transform="translate(599.07691,247.5)"
       style="fill:none;stroke:#000000"
       id="polyline29-5"
       points="-0.5,-235 -0.5,-201 " />
    <path
       style="fill:none;stroke:#000000"
       inkscape:connector-curvature="0"
       id="path31-5"
       d="m 598.57691,46.5 c 0,6 6,12 12,12" />
    <text
       style="font-size:14px;font-style:normal;font-variant:normal;font-weight:normal;font-stretch:normal;text-anchor:middle;font-family:Arial;-inkscape-font-specification:Arial"
       id="text33-1"
       font-size="14.00"
       y="34.099998"
       x="656.07764">R0</text>
    <polyline
       transform="translate(599.07691,231.5)"
       style="fill:none;stroke:#000000"
       id="polyline45-7"
       points="11.5,-61 102.5,-61 " />
    <path
       style="fill:none;stroke:#000000"
       inkscape:connector-curvature="0"
       id="path47-1"
       d="m 701.57691,170.5 c 6,0 12,-6 12,-12" />
    <polyline
       transform="translate(599.07691,231.5)"
       style="fill:none;stroke:#000000"
       id="polyline49-1"
       points="114.5,-73 114.5,-107 " />
    <path
       style="fill:none;stroke:#000000"
       inkscape:connector-curvature="0"
       id="path51-5"
       d="m 713.57691,124.5 c 0,-6 -6,-12 -12,-12" />
    <polyline
       transform="translate(599.07691,231.5)"
       style="fill:none;stroke:#000000"
       id="polyline53-2"
       points="102.5,-119 11.5,-119 " />
    <path
       style="fill:none;stroke:#000000"
       inkscape:connector-curvature="0"
       id="path55-7"
       d="m 610.57691,112.5 c -6,0 -12,6 -12,12" />
    <polyline
       transform="translate(599.07691,231.5)"
       style="fill:none;stroke:#000000"
       id="polyline57-6"
       points="-0.5,-107 -0.5,-73 " />
    <path
       style="fill:none;stroke:#000000"
       inkscape:connector-curvature="0"
       id="path59-1"
       d="m 598.57691,158.5 c 0,6 6,12 12,12" />
    <text
       style="font-size:14px;font-style:normal;font-variant:normal;font-weight:normal;font-stretch:normal;text-anchor:middle;font-family:Arial;-inkscape-font-specification:Arial"
       id="text61-4"
       font-size="14.00"
       y="146.09999"
       x="656.07764">R1</text>
    <path
       style="fill:none;stroke:#000000;stroke-width:1"
       inkscape:connector-curvature="0"
       id="path66-2"
       d="m 656.07691,58.875302 c 0,14.613715 0,33.438938 0,49.405698" />
    <polygon
       transform="translate(599.07691,231.5)"
       style="fill:#000000;stroke:#000000"
       id="polygon68-3"
       points="53.5001,-129.373 60.5001,-129.373 60.5001,-129.373 57,-119.373 " />
    <text
       style="font-size:14px;font-style:normal;font-variant:normal;font-weight:normal;font-stretch:normal;text-anchor:middle;font-family:Arial;-inkscape-font-specification:Arial"
       id="text70-2"
       font-size="14.00"
       y="80.5"
       x="745.47784"><tspan
   id="tspan3142"
   style="font-weight:bold">receive</tspan>
 Send_S() <tspan
   id="tspan3144"
   style="font-weight:bold">from</tspan>
 In;</text>
    <text
       style="font-size:14px;font-style:normal;font-variant:normal;font-weight:normal;font-stretch:normal;text-anchor:middle;font-family:Arial;-inkscape-font-specification:Arial"
       id="text72-2"
       font-size="14.00"
       y="96.500008"
       x="745.47784"><tspan
   id="tspan3148"
   style="font-weight:bold">send</tspan>
 Ack_S() <tspan
   id="tspan3146"
   style="font-weight:bold">to</tspan>
 In</text>
  </g>
  <g
     id="g3198"
     transform="translate(0,1.4192456e-6)">
    <polyline
       transform="translate(149.84956,238.7)"
       style="fill:none;stroke:#000000"
       id="polyline17-2"
       points="11.5,-173 102.5,-173 " />
    <path
       style="fill:none;stroke:#000000;stroke-width:1"
       inkscape:connector-curvature="0"
       id="path19-7"
       d="m 252.34956,65.699997 c 6,0 12,-6 12,-12" />
    <polyline
       transform="translate(149.84956,238.7)"
       style="fill:none;stroke:#000000"
       id="polyline21-7"
       points="114.5,-185 114.5,-219 " />
    <path
       style="fill:none;stroke:#000000;stroke-width:1"
       inkscape:connector-curvature="0"
       id="path23-9"
       d="m 264.34956,19.699997 c 0,-6 -6,-12 -12,-12" />
    <polyline
       transform="translate(149.84956,238.7)"
       style="fill:none;stroke:#000000"
       id="polyline25-3"
       points="102.5,-231 11.5,-231 " />
    <path
       style="fill:none;stroke:#000000;stroke-width:1"
       inkscape:connector-curvature="0"
       id="path27-19"
       d="m 161.34956,7.699997 c -6,0 -12,6 -12,12" />
    <polyline
       transform="translate(149.84956,238.7)"
       style="fill:none;stroke:#000000"
       id="polyline29-86"
       points="-0.5,-219 -0.5,-185 " />
    <path
       style="fill:none;stroke:#000000;stroke-width:1"
       inkscape:connector-curvature="0"
       id="path31-50"
       d="m 149.34956,53.699997 c 0,6 6,12 12,12" />
    <text
       style="font-size:14px;text-anchor:middle;font-family:'Times New Roman,serif'"
       id="text33-28"
       font-size="14.00"
       y="41.299992"
       x="206.87349">R0</text>
    <g
       transform="translate(149.84956,224.3)"
       id="node5"
       class="node">
      <title
         id="title43">Final</title>
      <polyline
         points="11.5,-61 102.5,-61 "
         id="polyline45-6"
         style="fill:none;stroke:#000000" />
      <path
         d="m 102.5,-61 c 6,0 12,-6 12,-12"
         id="path47-0"
         inkscape:connector-curvature="0"
         style="fill:none;stroke:#000000" />
      <polyline
         points="114.5,-73 114.5,-107 "
         id="polyline49-2"
         style="fill:none;stroke:#000000" />
      <path
         d="m 114.5,-107 c 0,-6 -6,-12 -12,-12"
         id="path51-4"
         inkscape:connector-curvature="0"
         style="fill:none;stroke:#000000" />
      <polyline
         points="102.5,-119 11.5,-119 "
         id="polyline53-8"
         style="fill:none;stroke:#000000" />
      <path
         d="m 11.5,-119 c -6,0 -12,6 -12,12"
         id="path55-6"
         inkscape:connector-curvature="0"
         style="fill:none;stroke:#000000" />
      <polyline
         points="-0.5,-107 -0.5,-73 "
         id="polyline57-5"
         style="fill:none;stroke:#000000" />
      <path
         d="m -0.5,-73 c 0,6 6,12 12,12"
         id="path59-0"
         inkscape:connector-curvature="0"
         style="fill:none;stroke:#000000" />
      <text
         x="57"
         y="-85.400002"
         font-size="14.00"
         id="text61-9"
         style="font-size:14px;text-anchor:middle;font-family:'Times New Roman,serif'">R1</text>
    </g>
    <path
       style="fill:none;stroke:#000000;stroke-width:1"
       inkscape:connector-curvature="0"
       id="path66-0"
       d="m 206.84956,65.259424 c 0,10.982355 0,24.143279 0,35.993576" />
    <polygon
       transform="translate(149.84956,224.3)"
       style="fill:#000000;stroke:#000000"
       id="polygon68-0"
       points="60.5001,-129.377 60.5001,-129.377 57,-119.378 53.5001,-129.378 " />
    <text
       style="font-size:14px;font-style:normal;font-variant:normal;font-weight:normal;font-stretch:normal;text-anchor:middle;font-family:Arial;-inkscape-font-specification:Arial"
       id="text70-6"
       font-size="14.00"
       y="87.699989"
       x="274.24954"><tspan
   id="tspan3113"
   style="font-style:normal;font-variant:normal;font-weight:bold;font-stretch:normal;font-family:Arial;-inkscape-font-specification:Arial">receive</tspan>
 S() <tspan
   id="tspan3117"
   style="font-weight:bold">from</tspan>
 In</text>
  </g>
</svg>
