<?xml version="1.0" encoding="UTF-8" standalone="no"?>
<!-- Generated by graphviz version 2.26.3 (20100126.1600)
 -->

<!-- Title: A Pages: 1 -->

<svg
   xmlns:dc="http://purl.org/dc/elements/1.1/"
   xmlns:cc="http://creativecommons.org/ns#"
   xmlns:rdf="http://www.w3.org/1999/02/22-rdf-syntax-ns#"
   xmlns:svg="http://www.w3.org/2000/svg"
   xmlns="http://www.w3.org/2000/svg"
   xmlns:sodipodi="http://sodipodi.sourceforge.net/DTD/sodipodi-0.dtd"
   xmlns:inkscape="http://www.inkscape.org/namespaces/inkscape"
   width="1050.0452"
   height="408.17242"
   viewBox="0 0 839.17743 326.53794"
   id="svg2"
   version="1.1"
   inkscape:version="0.48.1 "
   sodipodi:docname="s2a_complex.svg">
  <metadata
     id="metadata146">
    <rdf:RDF>
      <cc:Work
         rdf:about="">
        <dc:format>image/svg+xml</dc:format>
        <dc:type
           rdf:resource="http://purl.org/dc/dcmitype/StillImage" />
        <dc:title />
      </cc:Work>
    </rdf:RDF>
  </metadata>
  <defs
     id="defs144" />
  <sodipodi:namedview
     pagecolor="#ffffff"
     bordercolor="#666666"
     borderopacity="1"
     objecttolerance="10"
     gridtolerance="10"
     guidetolerance="10"
     inkscape:pageopacity="0"
     inkscape:pageshadow="2"
     inkscape:window-width="1680"
     inkscape:window-height="998"
     id="namedview142"
     showgrid="false"
     fit-margin-top="0"
     fit-margin-left="0"
     fit-margin-right="0"
     fit-margin-bottom="0"
     inkscape:zoom="0.98901497"
     inkscape:cx="497.35488"
     inkscape:cy="127.54314"
     inkscape:window-x="-8"
     inkscape:window-y="-8"
     inkscape:window-maximized="1"
     inkscape:current-layer="svg2">
    <inkscape:grid
       type="xygrid"
       id="grid3888"
       empspacing="5"
       visible="true"
       enabled="true"
       snapvisiblegridlinesonly="true" />
  </sodipodi:namedview>
  <polyline
     points="23.2703,-333 114.27,-333 "
     id="polyline17"
     style="fill:none;stroke:#000000"
     transform="translate(241.3604,397.14787)" />
  <path
     d="m 355.6304,64.147873 c 6,0 12,-6 12,-12"
     id="path19"
     inkscape:connector-curvature="0"
     style="fill:none;stroke:#000000" />
  <polyline
     points="126.27,-345 126.27,-379 "
     id="polyline21"
     style="fill:none;stroke:#000000"
     transform="translate(241.3604,397.14787)" />
  <path
     d="m 367.6304,18.147873 c 0,-6 -6,-12.0000002 -12,-12.0000002"
     id="path23"
     inkscape:connector-curvature="0"
     style="fill:none;stroke:#000000" />
  <polyline
     points="114.27,-391 23.2703,-391 "
     id="polyline25"
     style="fill:none;stroke:#000000"
     transform="translate(241.3604,397.14787)" />
  <path
     d="m 264.6307,6.1478728 c -6,0 -12,6.0000002 -12,12.0000002"
     id="path27"
     inkscape:connector-curvature="0"
     style="fill:none;stroke:#000000" />
  <polyline
     points="11.2703,-379 11.2703,-345 "
     id="polyline29"
     style="fill:none;stroke:#000000"
     transform="translate(241.3604,397.14787)" />
  <path
     d="m 252.6307,52.147873 c 0,6 6,12 12,12"
     id="path31"
     inkscape:connector-curvature="0"
     style="fill:none;stroke:#000000" />
  <text
     x="310.13062"
     y="39.747879"
     font-size="14.00"
     id="text33"
     style="font-size:14px;font-style:normal;font-variant:normal;font-weight:normal;font-stretch:normal;text-anchor:middle;font-family:Arial;-inkscape-font-specification:Arial">S0</text>
  <path
     d="m 367.6754,26.675873 c 10.277,1.101 17.455,3.925 17.455,8.472 0,2.842 -2.804,5.011 -7.416,6.506"
     id="path45"
     inkscape:connector-curvature="0"
     style="fill:none;stroke:#000000" />
  <polygon
     points="126.315,-353.528 135.456,-358.884 136.801,-352.015 136.801,-352.015 "
     id="polygon47"
     style="fill:#000000;stroke:#000000"
     transform="translate(241.3604,397.14787)" />
  <text
     x="395.04184"
     y="24.161674"
     font-size="14.00"
     id="text49"
     style="font-size:14px;font-style:normal;font-variant:normal;font-weight:normal;font-stretch:normal;text-anchor:middle;font-family:Arial;-inkscape-font-specification:Arial">v := v</text>
  <polyline
     points="23.2703,-205 114.27,-205 "
     id="polyline54"
     style="fill:none;stroke:#000000"
     transform="translate(241.3604,397.14787)" />
  <path
     d="m 355.6304,192.14787 c 6,0 12,-6 12,-12"
     id="path56"
     inkscape:connector-curvature="0"
     style="fill:none;stroke:#000000" />
  <polyline
     points="126.27,-217 126.27,-251 "
     id="polyline58"
     style="fill:none;stroke:#000000"
     transform="translate(241.3604,397.14787)" />
  <path
     d="m 367.6304,146.14787 c 0,-6 -6,-12 -12,-12"
     id="path60"
     inkscape:connector-curvature="0"
     style="fill:none;stroke:#000000" />
  <polyline
     points="114.27,-263 23.2703,-263 "
     id="polyline62"
     style="fill:none;stroke:#000000"
     transform="translate(241.3604,397.14787)" />
  <path
     d="m 264.6307,134.14787 c -6,0 -12,6 -12,12"
     id="path64"
     inkscape:connector-curvature="0"
     style="fill:none;stroke:#000000" />
  <polyline
     points="11.2703,-251 11.2703,-217 "
     id="polyline66"
     style="fill:none;stroke:#000000"
     transform="translate(241.3604,397.14787)" />
  <path
     d="m 252.6307,180.14787 c 0,6 6,12 12,12"
     id="path68"
     inkscape:connector-curvature="0"
     style="fill:none;stroke:#000000" />
  <text
     x="310.13062"
     y="167.74788"
     font-size="14.00"
     id="text70"
     style="font-size:14px;font-style:normal;font-variant:normal;font-weight:normal;font-stretch:normal;text-anchor:middle;font-family:Arial;-inkscape-font-specification:Arial">S2</text>
  <path
     d="m 260.6544,64.232873 c -5.8466,5.527 -10.98328,11.834 -14.52372,18.915 -6.36037,12.721 -6.36037,19.278997 0,31.999997 2.04682,4.094 4.62715,7.929 7.56972,11.504"
     id="path75"
     inkscape:connector-curvature="0"
     style="fill:none;stroke:#000000" />
  <polygon
     points="19.294,-263.085 9.89912,-267.982 15.0039,-272.772 15.0039,-272.772 "
     id="polygon77"
     style="fill:#000000;stroke:#000000"
     transform="translate(241.3604,397.14787)" />
  <text
     x="304.4306"
     y="95.747879"
     font-size="14.00"
     id="text79"
     style="font-size:14px;font-style:normal;font-variant:normal;font-weight:normal;font-stretch:normal;text-anchor:middle;font-family:Arial;-inkscape-font-specification:Arial"><tspan
   style="font-weight:bold"
   id="tspan3243">send</tspan>

 S(1) <tspan
   style="font-weight:bold"
   id="tspan3245">to</tspan>

 Out;</text>
  <text
     x="304.4306"
     y="111.74789"
     font-size="14.00"
     id="text81"
     style="font-size:14px;font-style:normal;font-variant:normal;font-weight:normal;font-stretch:normal;text-anchor:middle;font-family:Arial;-inkscape-font-specification:Arial">var_Out == 0</text>
  <path
     d="m 356.4964,133.93387 c 4.51,-5.754 8.477,-12.098 11.034,-18.786 5.08,-13.284 5.08,-18.715997 0,-31.999997 -1.358,-3.553 -3.115,-7.009 -5.139,-10.331"
     id="path86"
     inkscape:connector-curvature="0"
     style="fill:none;stroke:#000000" />
  <polygon
     points="103.584,-322.581 100.736,-332.786 109.326,-326.585 103.584,-322.581 "
     id="polygon88"
     style="fill:#000000;stroke:#000000"
     transform="translate(255.7604,397.14787)" />
  <text
     x="429.5304"
     y="95.747879"
     font-size="14.00"
     id="text90"
     style="font-size:14px;font-style:normal;font-variant:normal;font-weight:normal;font-stretch:normal;text-anchor:middle;font-family:Arial;-inkscape-font-specification:Arial">var_Out := 2;</text>
  <text
     x="429.5304"
     y="111.74789"
     font-size="14.00"
     id="text92"
     style="font-size:14px;font-style:normal;font-variant:normal;font-weight:normal;font-stretch:normal;text-anchor:middle;font-family:Arial;-inkscape-font-specification:Arial"><tspan
   style="font-weight:bold"
   id="tspan3247">send</tspan>

 S(4) <tspan
   style="font-weight:bold"
   id="tspan3249">to</tspan>

 Out</text>
  <polyline
     points="23.2703,-61 114.27,-61 "
     id="polyline97"
     style="fill:none;stroke:#000000"
     transform="translate(241.3604,379.54787)" />
  <path
     d="m 355.6304,318.54787 c 6,0 12,-6 12,-12"
     id="path99"
     inkscape:connector-curvature="0"
     style="fill:none;stroke:#000000" />
  <polyline
     points="126.27,-73 126.27,-107 "
     id="polyline101"
     style="fill:none;stroke:#000000"
     transform="translate(241.3604,379.54787)" />
  <path
     d="m 367.6304,272.54787 c 0,-6 -6,-12 -12,-12"
     id="path103"
     inkscape:connector-curvature="0"
     style="fill:none;stroke:#000000" />
  <polyline
     points="114.27,-119 23.2703,-119 "
     id="polyline105"
     style="fill:none;stroke:#000000"
     transform="translate(241.3604,379.54787)" />
  <path
     d="m 264.6307,260.54787 c -6,0 -12,6 -12,12"
     id="path107"
     inkscape:connector-curvature="0"
     style="fill:none;stroke:#000000" />
  <polyline
     points="11.2703,-107 11.2703,-73 "
     id="polyline109"
     style="fill:none;stroke:#000000"
     transform="translate(241.3604,379.54787)" />
  <path
     d="m 252.6307,306.54787 c 0,6 6,12 12,12"
     id="path111"
     inkscape:connector-curvature="0"
     style="fill:none;stroke:#000000" />
  <text
     x="310.13062"
     y="294.14783"
     font-size="14.00"
     id="text113"
     style="font-size:14px;font-style:normal;font-variant:normal;font-weight:normal;font-stretch:normal;text-anchor:middle;font-family:Arial;-inkscape-font-specification:Arial">S1</text>
  <path
     d="m 310.1307,192.28887 c 0,17.67672 0,42.02627 0,61.41689"
     id="path118"
     inkscape:connector-curvature="0"
     style="fill:none;stroke:#000000;stroke-width:1" />
  <polygon
     points="65.2704,-129.097 72.2704,-129.097 72.2704,-129.097 68.7703,-119.097 "
     id="polygon120"
     style="fill:#000000;stroke:#000000"
     transform="translate(241.3604,379.54787)" />
  <text
     x="371.63034"
     y="214.14784"
     font-size="14.00"
     id="text122"
     style="font-size:14px;font-style:normal;font-variant:normal;font-weight:normal;font-stretch:normal;text-anchor:middle;font-family:Arial;-inkscape-font-specification:Arial">var_Out == 2;</text>
  <text
     x="371.63034"
     y="230.14784"
     font-size="14.00"
     id="text124"
     style="font-size:14px;font-style:normal;font-variant:normal;font-weight:normal;font-stretch:normal;text-anchor:middle;font-family:Arial;-inkscape-font-specification:Arial"><tspan
   style="font-weight:bold"
   id="tspan3251">send</tspan>

 S(3) <tspan
   style="font-weight:bold"
   id="tspan3253">to</tspan>

 Out;</text>
  <text
     x="371.63034"
     y="246.14784"
     font-size="14.00"
     id="text126"
     style="font-size:14px;font-style:normal;font-variant:normal;font-weight:normal;font-stretch:normal;text-anchor:middle;font-family:Arial;-inkscape-font-specification:Arial">var_Out == 0</text>
  <g
     id="g3541"
     transform="translate(518.46959,199.57444)">
    <polyline
       transform="translate(-517.89895,116.77343)"
       style="fill:none;stroke:#000000"
       id="polyline17-7"
       points="11.5,-173 102.5,-173 " />
    <path
       style="fill:none;stroke:#000000"
       inkscape:connector-curvature="0"
       id="path19-4"
       d="m -415.39895,-56.22657 c 6,0 12,-6 12,-12" />
    <polyline
       transform="translate(-517.89895,116.77343)"
       style="fill:none;stroke:#000000"
       id="polyline21-0"
       points="114.5,-185 114.5,-219 " />
    <path
       style="fill:none;stroke:#000000"
       inkscape:connector-curvature="0"
       id="path23-9"
       d="m -403.39895,-102.22657 c 0,-6 -6,-12 -12,-12" />
    <polyline
       transform="translate(-517.89895,116.77343)"
       style="fill:none;stroke:#000000"
       id="polyline25-4"
       points="102.5,-231 11.5,-231 " />
    <path
       style="fill:none;stroke:#000000"
       inkscape:connector-curvature="0"
       id="path27-8"
       d="m -506.39895,-114.22657 c -6,0 -12,6 -12,12" />
    <polyline
       transform="translate(-517.89895,116.77343)"
       style="fill:none;stroke:#000000"
       id="polyline29-8"
       points="-0.5,-219 -0.5,-185 " />
    <path
       style="fill:none;stroke:#000000"
       inkscape:connector-curvature="0"
       id="path31-2"
       d="m -518.39895,-68.22657 c 0,6 6,12 12,12" />
    <text
       style="font-size:14px;font-style:normal;font-variant:normal;font-weight:normal;font-stretch:normal;text-anchor:middle;font-family:Arial;-inkscape-font-specification:Arial"
       id="text33-4"
       font-size="14.00"
       y="-80.626572"
       x="-460.89896">S0</text>
    <path
       style="fill:none;stroke:#000000"
       inkscape:connector-curvature="0"
       id="path45-5"
       d="m -403.35495,-93.69857 c 10.278,1.101 17.456,3.925 17.456,8.472 0,2.842 -2.804,5.011 -7.416,6.506" />
    <polygon
       transform="translate(-517.89895,116.77343)"
       style="fill:#000000;stroke:#000000"
       id="polygon47-5"
       points="123.686,-198.884 125.031,-192.015 125.031,-192.015 114.544,-193.528 " />
    <text
       style="font-size:14px;font-style:normal;font-variant:normal;font-weight:normal;font-stretch:normal;text-anchor:middle;font-family:Arial;-inkscape-font-specification:Arial"
       id="text49-1"
       font-size="14.00"
       y="-97.96756"
       x="-376.98361">v := v</text>
    <polyline
       transform="translate(-517.89895,100.77343)"
       style="fill:none;stroke:#000000"
       id="polyline54-7"
       points="11.5,-61 102.5,-61 " />
    <path
       style="fill:none;stroke:#000000"
       inkscape:connector-curvature="0"
       id="path56-1"
       d="m -415.39895,39.77343 c 6,0 12,-6 12,-12" />
    <polyline
       transform="translate(-517.89895,100.77343)"
       style="fill:none;stroke:#000000"
       id="polyline58-1"
       points="114.5,-73 114.5,-107 " />
    <path
       style="fill:none;stroke:#000000"
       inkscape:connector-curvature="0"
       id="path60-5"
       d="m -403.39895,-6.22657 c 0,-6 -6,-12 -12,-12" />
    <polyline
       transform="translate(-517.89895,100.77343)"
       style="fill:none;stroke:#000000"
       id="polyline62-2"
       points="102.5,-119 11.5,-119 " />
    <path
       style="fill:none;stroke:#000000"
       inkscape:connector-curvature="0"
       id="path64-7"
       d="m -506.39895,-18.22657 c -6,0 -12,6 -12,12" />
    <polyline
       transform="translate(-517.89895,100.77343)"
       style="fill:none;stroke:#000000"
       id="polyline66-6"
       points="-0.5,-107 -0.5,-73 " />
    <path
       style="fill:none;stroke:#000000"
       inkscape:connector-curvature="0"
       id="path68-1"
       d="m -518.39895,27.77343 c 0,6 6,12 12,12" />
    <text
       style="font-size:14px;font-style:normal;font-variant:normal;font-weight:normal;font-stretch:normal;text-anchor:middle;font-family:Arial;-inkscape-font-specification:Arial"
       id="text70-4"
       font-size="14.00"
       y="15.373434"
       x="-460.89896">S1</text>
    <path
       style="fill:none;stroke:#000000;stroke-width:1"
       inkscape:connector-curvature="0"
       id="path75-2"
       d="m -460.89895,-55.720391 c 0,10.20529 0,22.434998 0,33.44682" />
    <polygon
       transform="translate(-517.89895,100.77343)"
       style="fill:#000000;stroke:#000000"
       id="polygon77-3"
       points="53.5001,-129.378 60.5001,-129.377 60.5001,-129.377 57,-119.378 " />
    <text
       style="font-size:14px;font-style:normal;font-variant:normal;font-weight:normal;font-stretch:normal;text-anchor:middle;font-family:Arial;-inkscape-font-specification:Arial"
       id="text79-2"
       font-size="14.00"
       y="-34.226563"
       x="-403.59894"><tspan
   id="tspan3155"
   style="font-weight:bold">send</tspan>

 S() <tspan
   id="tspan3157"
   style="font-weight:bold">to</tspan>

 Out</text>
  </g>
  <polyline
     points="13.9139,-317 104.914,-317 "
     id="polyline17-5"
     style="fill:none;stroke:#000000;stroke-width:1"
     transform="matrix(0.99823588,0,0,0.99823588,495.8035,402.68902)" />
  <path
     d="m 600.53242,86.248239 c 5.98941,0 11.97883,-5.989416 11.97883,-11.978831"
     id="path19-7"
     inkscape:connector-curvature="0"
     style="fill:none;stroke:#000000;stroke-width:0.99823588" />
  <polyline
     points="116.914,-329 116.914,-363 "
     id="polyline21-6"
     style="fill:none;stroke:#000000;stroke-width:1"
     transform="matrix(0.99823588,0,0,0.99823588,495.8035,402.68902)" />
  <path
     d="m 612.51125,40.329388 c 0,-5.989415 -5.98942,-11.978831 -11.97883,-11.978831"
     id="path23-1"
     inkscape:connector-curvature="0"
     style="fill:none;stroke:#000000;stroke-width:0.99823588" />
  <polyline
     points="104.914,-375 13.9139,-375 "
     id="polyline25-8"
     style="fill:none;stroke:#000000;stroke-width:1"
     transform="matrix(0.99823588,0,0,0.99823588,495.8035,402.68902)" />
  <path
     d="m 509.69285,28.350557 c -5.98941,0 -11.97883,5.989416 -11.97883,11.978831"
     id="path27-9"
     inkscape:connector-curvature="0"
     style="fill:none;stroke:#000000;stroke-width:0.99823588" />
  <polyline
     points="1.9139,-363 1.9139,-329 "
     id="polyline29-2"
     style="fill:none;stroke:#000000;stroke-width:1"
     transform="matrix(0.99823588,0,0,0.99823588,495.8035,402.68902)" />
  <path
     d="m 497.71402,74.269408 c 0,5.989415 5.98942,11.978831 11.97883,11.978831"
     id="path31-7"
     inkscape:connector-curvature="0"
     style="fill:none;stroke:#000000;stroke-width:0.99823588" />
  <text
     x="555.11285"
     y="61.891293"
     font-size="14.00"
     id="text33-9"
     style="font-size:13.9753027px;font-style:normal;font-variant:normal;font-weight:normal;font-stretch:normal;text-anchor:middle;font-family:Arial;-inkscape-font-specification:Arial">R0</text>
  <path
     d="m 612.55517,48.842344 c 10.25887,1.099057 17.42521,3.918075 17.42521,8.457054 0,2.836986 -2.79906,5.00216 -7.40292,6.494523"
     id="path45-54"
     inkscape:connector-curvature="0"
     style="fill:none;stroke:#000000;stroke-width:0.99823588" />
  <polygon
     points="127.445,-336.015 116.958,-337.528 126.099,-342.884 127.445,-336.015 "
     id="polygon47-3"
     style="fill:#000000;stroke:#000000;stroke-width:1"
     transform="matrix(0.99823588,0,0,0.99823588,495.8035,402.68902)" />
  <text
     x="665.7135"
     y="10.003805"
     font-size="14.00"
     id="text49-12"
     style="font-size:13.9753027px;font-style:normal;font-variant:normal;font-weight:normal;font-stretch:normal;text-anchor:middle;font-family:Arial;-inkscape-font-specification:Arial">var_In == 4;</text>
  <text
     x="665.7135"
     y="25.97558"
     font-size="14.00"
     id="text51"
     style="font-size:13.9753027px;font-style:normal;font-variant:normal;font-weight:normal;font-stretch:normal;text-anchor:middle;font-family:Arial;-inkscape-font-specification:Arial">var_In := 3;</text>
  <text
     x="665.7135"
     y="41.947365"
     font-size="14.00"
     id="text53"
     style="font-size:13.9753027px;font-style:normal;font-variant:normal;font-weight:normal;font-stretch:normal;text-anchor:middle;font-family:Arial;-inkscape-font-specification:Arial"><tspan
   style="font-weight:bold"
   id="tspan3246">send</tspan>

 S(0) <tspan
   style="font-weight:bold"
   id="tspan3248">to</tspan>

 In</text>
  <polyline
     points="13.9139,-189 104.914,-189 "
     id="polyline58-3"
     style="fill:none;stroke:#000000;stroke-width:1"
     transform="matrix(0.99823588,0,0,0.99823588,495.8035,402.68902)" />
  <path
     d="m 600.53242,214.02243 c 5.98941,0 11.97883,-5.98941 11.97883,-11.97883"
     id="path60-3"
     inkscape:connector-curvature="0"
     style="fill:none;stroke:#000000;stroke-width:0.99823588" />
  <polyline
     points="116.914,-201 116.914,-235 "
     id="polyline62-4"
     style="fill:none;stroke:#000000;stroke-width:1"
     transform="matrix(0.99823588,0,0,0.99823588,495.8035,402.68902)" />
  <path
     d="m 612.51125,168.10357 c 0,-5.98941 -5.98942,-11.97882 -11.97883,-11.97882"
     id="path64-1"
     inkscape:connector-curvature="0"
     style="fill:none;stroke:#000000;stroke-width:0.99823588" />
  <polyline
     points="104.914,-247 13.9139,-247 "
     id="polyline66-1"
     style="fill:none;stroke:#000000;stroke-width:1"
     transform="matrix(0.99823588,0,0,0.99823588,495.8035,402.68902)" />
  <path
     d="m 509.69285,156.12475 c -5.98941,0 -11.97883,5.98941 -11.97883,11.97882"
     id="path68-3"
     inkscape:connector-curvature="0"
     style="fill:none;stroke:#000000;stroke-width:0.99823588" />
  <polyline
     points="1.9139,-235 1.9139,-201 "
     id="polyline70"
     style="fill:none;stroke:#000000;stroke-width:1"
     transform="matrix(0.99823588,0,0,0.99823588,495.8035,402.68902)" />
  <path
     d="m 497.71402,202.04359 c 0,5.98942 5.98942,11.97884 11.97883,11.97884"
     id="path72"
     inkscape:connector-curvature="0"
     style="fill:none;stroke:#000000;stroke-width:0.99823588" />
  <text
     x="555.11285"
     y="189.66548"
     font-size="14.00"
     id="text74"
     style="font-size:13.9753027px;font-style:normal;font-variant:normal;font-weight:normal;font-stretch:normal;text-anchor:middle;font-family:Arial;-inkscape-font-specification:Arial">R2</text>
  <path
     d="m 513.36736,86.39997 c -5.33208,5.601102 -10.01668,11.903962 -13.15775,18.81475 -5.87482,12.92416 -5.87482,19.01939 0,31.94355 1.76686,3.88713 4.02209,7.5816 6.60623,11.06844"
     id="path79"
     inkscape:connector-curvature="0"
     style="fill:none;stroke:#000000;stroke-width:0.99823588" />
  <polygon
     points="13.8098,-257.048 17.5949,-247.152 8.46492,-252.527 13.8098,-257.048 "
     id="polygon81"
     style="fill:#000000;stroke:#000000;stroke-width:1"
     transform="matrix(0.99823588,0,0,0.99823588,495.8035,402.68902)" />
  <text
     x="549.93054"
     y="117.79249"
     font-size="14.00"
     id="text83"
     style="font-size:13.9753027px;font-style:normal;font-variant:normal;font-weight:normal;font-stretch:normal;text-anchor:middle;font-family:Arial;-inkscape-font-specification:Arial">var_In == 1;</text>
  <text
     x="549.93054"
     y="133.76428"
     font-size="14.00"
     id="text85"
     style="font-size:13.9753027px;font-style:normal;font-variant:normal;font-weight:normal;font-stretch:normal;text-anchor:middle;font-family:Arial;-inkscape-font-specification:Arial"><tspan
   style="font-weight:bold"
   id="tspan3250">send</tspan>

 S(2) <tspan
   style="font-weight:bold"
   id="tspan3252">to</tspan>

 In</text>
  <path
     d="m 599.82941,156.01095 c 3.87266,-5.8866 7.28433,-12.29427 9.42146,-18.85268 4.39873,-13.49815 4.39873,-18.4454 0,-31.94355 -1.10195,-3.38202 -2.54282,-6.723118 -4.21097,-9.974373"
     id="path90"
     inkscape:connector-curvature="0"
     style="fill:none;stroke:#000000;stroke-width:0.99823588" />
  <polygon
     points="87.0188,-306.49 84.9758,-316.886 93.0559,-310.033 87.0188,-306.49 "
     id="polygon92"
     style="fill:#000000;stroke:#000000;stroke-width:1"
     transform="matrix(0.99823588,0,0,0.99823588,515.0035,402.68902)" />
  <text
     x="653.07117"
     y="125.77838"
     font-size="14.00"
     id="text94"
     style="font-size:13.9753027px;font-style:normal;font-variant:normal;font-weight:normal;font-stretch:normal;text-anchor:middle;font-family:Arial;-inkscape-font-specification:Arial">var_In == 4</text>
  <polyline
     points="13.9139,-61 104.914,-61 "
     id="polyline99"
     style="fill:none;stroke:#000000;stroke-width:1"
     transform="matrix(0.99823588,0,0,0.99823588,495.8035,385.08902)" />
  <path
     d="m 600.53242,324.19663 c 5.98941,0 11.97883,-5.98942 11.97883,-11.97883"
     id="path101"
     inkscape:connector-curvature="0"
     style="fill:none;stroke:#000000;stroke-width:0.99823588" />
  <polyline
     points="116.914,-73 116.914,-107 "
     id="polyline103"
     style="fill:none;stroke:#000000;stroke-width:1"
     transform="matrix(0.99823588,0,0,0.99823588,495.8035,385.08902)" />
  <path
     d="m 612.51125,278.27778 c 0,-5.98942 -5.98942,-11.97883 -11.97883,-11.97883"
     id="path105"
     inkscape:connector-curvature="0"
     style="fill:none;stroke:#000000;stroke-width:0.99823588" />
  <polyline
     points="104.914,-119 13.9139,-119 "
     id="polyline107"
     style="fill:none;stroke:#000000;stroke-width:1"
     transform="matrix(0.99823588,0,0,0.99823588,495.8035,385.08902)" />
  <path
     d="m 509.69285,266.29895 c -5.98941,0 -11.97883,5.98941 -11.97883,11.97883"
     id="path109"
     inkscape:connector-curvature="0"
     style="fill:none;stroke:#000000;stroke-width:0.99823588" />
  <polyline
     points="1.9139,-107 1.9139,-73 "
     id="polyline111"
     style="fill:none;stroke:#000000;stroke-width:1"
     transform="matrix(0.99823588,0,0,0.99823588,495.8035,385.08902)" />
  <path
     d="m 497.71402,312.2178 c 0,5.9894 5.98942,11.97883 11.97883,11.97883"
     id="path113"
     inkscape:connector-curvature="0"
     style="fill:none;stroke:#000000;stroke-width:0.99823588" />
  <text
     x="555.11285"
     y="299.83963"
     font-size="14.00"
     id="text115"
     style="font-size:13.9753027px;font-style:normal;font-variant:normal;font-weight:normal;font-stretch:normal;text-anchor:middle;font-family:Arial;-inkscape-font-specification:Arial">R1</text>
  <path
     d="m 555.11258,214.06735 c 0,13.583 0,31.08047 0,45.92109"
     id="path120"
     inkscape:connector-curvature="0"
     style="fill:none;stroke:#000000;stroke-width:0.99823588" />
  <polygon
     points="59.4139,-119.373 55.914,-129.373 62.914,-129.373 62.914,-129.373 "
     id="polygon122"
     style="fill:#000000;stroke:#000000;stroke-width:1"
     transform="matrix(0.99823588,0,0,0.99823588,495.8035,385.08902)" />
  <text
     x="611.23358"
     y="235.96666"
     font-size="14.00"
     id="text124-8"
     style="font-size:13.9753027px;font-style:normal;font-variant:normal;font-weight:normal;font-stretch:normal;text-anchor:middle;font-family:Arial;-inkscape-font-specification:Arial">var_In == 3;</text>
  <text
     x="611.23358"
     y="251.93845"
     font-size="14.00"
     id="text126-7"
     style="font-size:13.9753027px;font-style:normal;font-variant:normal;font-weight:normal;font-stretch:normal;text-anchor:middle;font-family:Arial;-inkscape-font-specification:Arial"><tspan
   style="font-weight:bold"
   id="tspan3254">send</tspan>

 S(0) <tspan
   style="font-weight:bold"
   id="tspan3256">to</tspan>

 In</text>
  <ellipse
     cx="57"
     cy="-105"
     rx="7.1999998"
     ry="7.1999998"
     id="ellipse12"
     d="m 64.2,-105 c 0,3.97645 -3.22355,7.2 -7.2,7.2 -3.97645,0 -7.2,-3.22355 -7.2,-7.2 0,-3.97645 3.22355,-7.2 7.2,-7.2 3.97645,0 7.2,3.22355 7.2,7.2 z"
     sodipodi:cx="57"
     sodipodi:cy="-105"
     sodipodi:rx="7.1999998"
     sodipodi:ry="7.1999998"
     style="fill:#000000;stroke:#000000"
     transform="translate(724.60677,146.05783)" />
  <polyline
     points="11.5,-1 102.5,-1 "
     id="polyline17-2"
     style="fill:none;stroke:#000000"
     transform="translate(724.60677,136.45783)" />
  <path
     d="m 827.10677,135.45783 c 6,0 12,-6 12,-12"
     id="path19-77"
     inkscape:connector-curvature="0"
     style="fill:none;stroke:#000000" />
  <polyline
     points="114.5,-13 114.5,-47 "
     id="polyline21-9"
     style="fill:none;stroke:#000000"
     transform="translate(724.60677,136.45783)" />
  <path
     d="m 839.10677,89.457832 c 0,-6 -6,-12 -12,-12"
     id="path23-3"
     inkscape:connector-curvature="0"
     style="fill:none;stroke:#000000" />
  <polyline
     points="102.5,-59 11.5,-59 "
     id="polyline25-1"
     style="fill:none;stroke:#000000"
     transform="translate(724.60677,136.45783)" />
  <path
     d="m 736.10677,77.457832 c -6,0 -12,6 -12,12"
     id="path27-98"
     inkscape:connector-curvature="0"
     style="fill:none;stroke:#000000" />
  <polyline
     points="-0.5,-47 -0.5,-13 "
     id="polyline29-6"
     style="fill:none;stroke:#000000"
     transform="translate(724.60677,136.45783)" />
  <path
     d="m 724.10677,123.45783 c 0,6 6,12 12,12"
     id="path31-5"
     inkscape:connector-curvature="0"
     style="fill:none;stroke:#000000" />
  <text
     x="781.60675"
     y="111.05781"
     font-size="14.00"
     id="text33-0"
     style="font-size:14px;font-style:normal;font-variant:normal;font-weight:normal;font-stretch:normal;text-anchor:middle;font-family:Arial;-inkscape-font-specification:Arial">S_Reader</text>
  <path
     d="m 781.60677,44.455255 c 0,5.461172 0,13.973895 0,22.651377"
     id="path38"
     inkscape:connector-curvature="0"
     style="fill:none;stroke:#000000;stroke-width:0.99999994" />
  <polygon
     points="53.5001,-69.054 60.5001,-69.0539 60.5001,-69.0539 57,-59.054 "
     id="polygon40"
     style="fill:#000000;stroke:#000000"
     transform="translate(724.60677,136.45783)" />
  <path
     d="m 793.69571,136.01584 c -1.1012,10.278 -3.9252,17.456 -8.4721,17.456 -2.8418,0 -5.0106,-2.804 -6.5064,-7.416"
     id="path45-2"
     inkscape:connector-curvature="0"
     style="fill:none;stroke:#000000" />
  <polygon
     points="123.686,-26.8842 125.031,-20.0147 125.031,-20.0147 114.544,-21.5279 "
     id="polygon47-8"
     style="fill:#000000;stroke:#000000"
     transform="matrix(0,1,-1,0,755.22361,21.471844)" />
  <text
     x="740.32568"
     y="169.94032"
     font-size="14.00"
     id="text49-6"
     style="font-size:14px;font-style:normal;font-variant:normal;font-weight:normal;font-stretch:normal;text-anchor:middle;font-family:Arial;-inkscape-font-specification:Arial"><tspan
   style="font-weight:bold"
   id="tspan3071">receive</tspan>

 S(var_Out) <tspan
   style="font-weight:bold"
   id="tspan3073">from</tspan>

 Out</text>
  <ellipse
     transform="translate(722.38944,299.70926)"
     style="fill:#000000;stroke:#000000"
     sodipodi:ry="7.1999998"
     sodipodi:rx="7.1999998"
     sodipodi:cy="-105"
     sodipodi:cx="57"
     d="m 64.2,-105 c 0,3.97645 -3.22355,7.2 -7.2,7.2 -3.97645,0 -7.2,-3.22355 -7.2,-7.2 0,-3.97645 3.22355,-7.2 7.2,-7.2 3.97645,0 7.2,3.22355 7.2,7.2 z"
     id="ellipse3814"
     ry="7.1999998"
     rx="7.1999998"
     cy="-105"
     cx="57" />
  <polyline
     transform="translate(722.38944,290.10926)"
     style="fill:none;stroke:#000000"
     id="polyline3816"
     points="11.5,-1 102.5,-1 " />
  <path
     style="fill:none;stroke:#000000"
     inkscape:connector-curvature="0"
     id="path3818"
     d="m 824.88944,289.10926 c 6,0 12,-6 12,-12" />
  <polyline
     transform="translate(722.38944,290.10926)"
     style="fill:none;stroke:#000000"
     id="polyline3820"
     points="114.5,-13 114.5,-47 " />
  <path
     style="fill:none;stroke:#000000"
     inkscape:connector-curvature="0"
     id="path3822"
     d="m 836.88944,243.10926 c 0,-6 -6,-12 -12,-12" />
  <polyline
     transform="translate(722.38944,290.10926)"
     style="fill:none;stroke:#000000"
     id="polyline3824"
     points="102.5,-59 11.5,-59 " />
  <path
     style="fill:none;stroke:#000000"
     inkscape:connector-curvature="0"
     id="path3826"
     d="m 733.88944,231.10926 c -6,0 -12,6 -12,12" />
  <polyline
     transform="translate(722.38944,290.10926)"
     style="fill:none;stroke:#000000"
     id="polyline3828"
     points="-0.5,-47 -0.5,-13 " />
  <path
     style="fill:none;stroke:#000000"
     inkscape:connector-curvature="0"
     id="path3830"
     d="m 721.88944,277.10926 c 0,6 6,12 12,12" />
  <text
     style="font-size:14px;font-style:normal;font-variant:normal;font-weight:normal;font-stretch:normal;text-anchor:middle;font-family:Arial;-inkscape-font-specification:Arial"
     id="text3832"
     font-size="14.00"
     y="264.70926"
     x="779.38947">R_Reader</text>
  <path
     style="fill:none;stroke:#000000;stroke-width:0.99999994"
     inkscape:connector-curvature="0"
     id="path3834"
     d="m 779.38944,198.10669 c 0,5.46117 0,13.97389 0,22.65137" />
  <polygon
     transform="translate(722.38944,290.10926)"
     style="fill:#000000;stroke:#000000"
     id="polygon3836"
     points="60.5001,-69.0539 60.5001,-69.0539 57,-59.054 53.5001,-69.054 " />
  <path
     style="fill:none;stroke:#000000"
     inkscape:connector-curvature="0"
     id="path3838"
     d="m 791.47838,289.66727 c -1.1012,10.278 -3.9252,17.456 -8.4721,17.456 -2.8418,0 -5.0106,-2.804 -6.5064,-7.416" />
  <polygon
     transform="matrix(0,1,-1,0,753.00628,175.12328)"
     style="fill:#000000;stroke:#000000"
     id="polygon3840"
     points="125.031,-20.0147 125.031,-20.0147 114.544,-21.5279 123.686,-26.8842 " />
  <text
     style="font-size:14px;font-style:normal;font-variant:normal;font-weight:normal;font-stretch:normal;text-anchor:middle;font-family:Arial;-inkscape-font-specification:Arial"
     id="text3842"
     font-size="14.00"
     y="323.59164"
     x="752.50818"><tspan
   id="tspan3844"
   style="font-weight:bold">receive</tspan>

 S(var_In) <tspan
   id="tspan3846"
   style="font-weight:bold">from</tspan>

 In</text>
</svg>
