<?xml version="1.0" encoding="UTF-8" standalone="no"?>
<!-- Generated by graphviz version 2.26.3 (20100126.1600)
 -->

<!-- Title: A Pages: 1 -->

<svg
   xmlns:dc="http://purl.org/dc/elements/1.1/"
   xmlns:cc="http://creativecommons.org/ns#"
   xmlns:rdf="http://www.w3.org/1999/02/22-rdf-syntax-ns#"
   xmlns:svg="http://www.w3.org/2000/svg"
   xmlns="http://www.w3.org/2000/svg"
   xmlns:sodipodi="http://sodipodi.sourceforge.net/DTD/sodipodi-0.dtd"
   xmlns:inkscape="http://www.inkscape.org/namespaces/inkscape"
   width="205.16016"
   height="213.75"
   viewBox="0 0 164.12813 171"
   id="svg2"
   version="1.1"
   inkscape:version="0.48.1 "
   sodipodi:docname="s2a_a_before.svg">
  <metadata
     id="metadata90">
    <rdf:RDF>
      <cc:Work
         rdf:about="">
        <dc:format>image/svg+xml</dc:format>
        <dc:type
           rdf:resource="http://purl.org/dc/dcmitype/StillImage" />
      </cc:Work>
    </rdf:RDF>
  </metadata>
  <defs
     id="defs88" />
  <sodipodi:namedview
     pagecolor="#ffffff"
     bordercolor="#666666"
     borderopacity="1"
     objecttolerance="10"
     gridtolerance="10"
     guidetolerance="10"
     inkscape:pageopacity="0"
     inkscape:pageshadow="2"
     inkscape:window-width="1680"
     inkscape:window-height="998"
     id="namedview86"
     showgrid="false"
     fit-margin-top="0"
     fit-margin-left="0"
     fit-margin-right="0"
     fit-margin-bottom="0"
     inkscape:zoom="1.430137"
     inkscape:cx="113.28457"
     inkscape:cy="137.77349"
     inkscape:window-x="-8"
     inkscape:window-y="-8"
     inkscape:window-maximized="1"
     inkscape:current-layer="svg2" />
  <polyline
     points="11.5,-173 102.5,-173 "
     id="polyline17"
     style="fill:none;stroke:#000000"
     transform="translate(1,231.5)" />
  <path
     d="m 103.5,58.5 c 6,0 12,-6 12,-12"
     id="path19"
     inkscape:connector-curvature="0"
     style="fill:none;stroke:#000000" />
  <polyline
     points="114.5,-185 114.5,-219 "
     id="polyline21"
     style="fill:none;stroke:#000000"
     transform="translate(1,231.5)" />
  <path
     d="m 115.5,12.5 c 0,-6 -6,-12 -12,-12"
     id="path23"
     inkscape:connector-curvature="0"
     style="fill:none;stroke:#000000" />
  <polyline
     points="102.5,-231 11.5,-231 "
     id="polyline25"
     style="fill:none;stroke:#000000"
     transform="translate(1,231.5)" />
  <path
     d="m 12.5,0.5 c -6,0 -12,6 -12,12"
     id="path27"
     inkscape:connector-curvature="0"
     style="fill:none;stroke:#000000" />
  <polyline
     points="-0.5,-219 -0.5,-185 "
     id="polyline29"
     style="fill:none;stroke:#000000"
     transform="translate(1,231.5)" />
  <path
     d="m 0.5,46.5 c 0,6 6,12 12,12"
     id="path31"
     inkscape:connector-curvature="0"
     style="fill:none;stroke:#000000" />
  <text
     x="58"
     y="34.100006"
     font-size="14.00"
     id="text33"
     style="font-size:14px;font-style:normal;font-variant:normal;font-weight:normal;font-stretch:normal;text-anchor:middle;font-family:Arial;-inkscape-font-specification:Arial">S0</text>
  <polyline
     points="11.5,-61 102.5,-61 "
     id="polyline45"
     style="fill:none;stroke:#000000"
     transform="translate(1,231.5)" />
  <path
     d="m 103.5,170.5 c 6,0 12,-6 12,-12"
     id="path47"
     inkscape:connector-curvature="0"
     style="fill:none;stroke:#000000" />
  <polyline
     points="114.5,-73 114.5,-107 "
     id="polyline49"
     style="fill:none;stroke:#000000"
     transform="translate(1,231.5)" />
  <path
     d="m 115.5,124.5 c 0,-6 -6,-12 -12,-12"
     id="path51"
     inkscape:connector-curvature="0"
     style="fill:none;stroke:#000000" />
  <polyline
     points="102.5,-119 11.5,-119 "
     id="polyline53"
     style="fill:none;stroke:#000000"
     transform="translate(1,231.5)" />
  <path
     d="m 12.5,112.5 c -6,0 -12,6 -12,12"
     id="path55"
     inkscape:connector-curvature="0"
     style="fill:none;stroke:#000000" />
  <polyline
     points="-0.5,-107 -0.5,-73 "
     id="polyline57"
     style="fill:none;stroke:#000000"
     transform="translate(1,231.5)" />
  <path
     d="m 0.5,158.5 c 0,6 6,12 12,12"
     id="path59"
     inkscape:connector-curvature="0"
     style="fill:none;stroke:#000000" />
  <text
     x="58"
     y="146.10001"
     font-size="14.00"
     id="text61"
     style="font-size:14px;font-style:normal;font-variant:normal;font-weight:normal;font-stretch:normal;text-anchor:middle;font-family:Arial;-inkscape-font-specification:Arial">S1</text>
  <path
     d="m 58,58.634 c 0,13.248 0,29.124 0,43.419"
     id="path66"
     inkscape:connector-curvature="0"
     style="fill:none;stroke:#000000" />
  <polygon
     points="60.5001,-129.377 60.5001,-129.377 57,-119.378 53.5001,-129.378 "
     id="polygon68"
     style="fill:#000000;stroke:#000000"
     transform="translate(1,231.5)" />
  <text
     x="114.8"
     y="86.899994"
     font-size="14.00"
     id="text70"
     style="font-size:14px;font-style:normal;font-variant:normal;font-weight:normal;font-stretch:normal;text-anchor:middle;font-family:Arial;-inkscape-font-specification:Arial"><tspan
   style="font-weight:bold"
   id="tspan3131">send</tspan>
 S() <tspan
   style="font-weight:bold"
   id="tspan3133">to</tspan>
 Out</text>
</svg>
