<?xml version="1.0" encoding="UTF-8" standalone="no"?>
<!-- Generated by graphviz version 2.26.3 (20100126.1600)
 -->

<!-- Title: Com Pages: 1 -->

<svg
   xmlns:dc="http://purl.org/dc/elements/1.1/"
   xmlns:cc="http://creativecommons.org/ns#"
   xmlns:rdf="http://www.w3.org/1999/02/22-rdf-syntax-ns#"
   xmlns:svg="http://www.w3.org/2000/svg"
   xmlns="http://www.w3.org/2000/svg"
   xmlns:sodipodi="http://sodipodi.sourceforge.net/DTD/sodipodi-0.dtd"
   xmlns:inkscape="http://www.inkscape.org/namespaces/inkscape"
   width="853.59045"
   height="483.13031"
   viewBox="0 0 682.87236 386.50425"
   id="svg2"
   version="1.1"
   inkscape:version="0.48.1 "
   sodipodi:docname="Behavior_CoreWithTime.svg">
  <metadata
     id="metadata133">
    <rdf:RDF>
      <cc:Work
         rdf:about="">
        <dc:format>image/svg+xml</dc:format>
        <dc:type
           rdf:resource="http://purl.org/dc/dcmitype/StillImage" />
        <dc:title />
      </cc:Work>
    </rdf:RDF>
  </metadata>
  <defs
     id="defs131" />
  <sodipodi:namedview
     pagecolor="#ffffff"
     bordercolor="#666666"
     borderopacity="1"
     objecttolerance="10"
     gridtolerance="10"
     guidetolerance="10"
     inkscape:pageopacity="0"
     inkscape:pageshadow="2"
     inkscape:window-width="1680"
     inkscape:window-height="998"
     id="namedview129"
     showgrid="false"
     fit-margin-top="0"
     fit-margin-left="0"
     fit-margin-right="0"
     fit-margin-bottom="0"
     inkscape:zoom="1.3545311"
     inkscape:cx="360.88886"
     inkscape:cy="245.80789"
     inkscape:window-x="-8"
     inkscape:window-y="-8"
     inkscape:window-maximized="1"
     inkscape:current-layer="svg2" />
  <g
     id="g3174"
     transform="translate(-362.1753,114.25398)">
    <ellipse
       transform="translate(363.1753,280.24602)"
       style="fill:#000000;stroke:#000000"
       sodipodi:ry="7.1999998"
       sodipodi:rx="7.1999998"
       sodipodi:cy="-105"
       sodipodi:cx="57"
       d="m 64.2,-105 c 0,3.97645 -3.22355,7.2 -7.2,7.2 -3.97645,0 -7.2,-3.22355 -7.2,-7.2 0,-3.97645 3.22355,-7.2 7.2,-7.2 3.97645,0 7.2,3.22355 7.2,7.2 z"
       id="ellipse12-1"
       ry="7.1999998"
       rx="7.1999998"
       cy="-105"
       cx="57" />
    <polyline
       transform="translate(363.1753,272.24602)"
       style="fill:none;stroke:#000000"
       id="polyline17-7"
       points="11.5,-1 102.5,-1 " />
    <path
       style="fill:none;stroke:#000000;stroke-width:1"
       inkscape:connector-curvature="0"
       id="path19-4"
       d="m 465.6753,271.24602 c 6,0 12,-6 12,-12" />
    <polyline
       transform="translate(363.1753,272.24602)"
       style="fill:none;stroke:#000000"
       id="polyline21-0"
       points="114.5,-13 114.5,-47 " />
    <path
       style="fill:none;stroke:#000000;stroke-width:1"
       inkscape:connector-curvature="0"
       id="path23-9"
       d="m 477.6753,225.24602 c 0,-6 -6,-12 -12,-12" />
    <polyline
       transform="translate(363.1753,272.24602)"
       style="fill:none;stroke:#000000"
       id="polyline25-4"
       points="102.5,-59 11.5,-59 " />
    <path
       style="fill:none;stroke:#000000;stroke-width:1"
       inkscape:connector-curvature="0"
       id="path27-8"
       d="m 374.6753,213.24602 c -6,0 -12,6 -12,12" />
    <polyline
       transform="translate(363.1753,272.24602)"
       style="fill:none;stroke:#000000"
       id="polyline29-8"
       points="-0.5,-47 -0.5,-13 " />
    <path
       style="fill:none;stroke:#000000;stroke-width:1"
       inkscape:connector-curvature="0"
       id="path31-2"
       d="m 362.6753,259.24602 c 0,6 6,12 12,12" />
    <text
       style="font-size:14px;font-style:normal;font-variant:normal;font-weight:normal;font-stretch:normal;text-anchor:middle;font-family:Arial;-inkscape-font-specification:Arial"
       id="text33-4"
       font-size="14.00"
       y="246.84601"
       x="420.17529">SendRec</text>
    <path
       style="fill:none;stroke:#000000;stroke-width:1"
       inkscape:connector-curvature="0"
       id="path38-5"
       d="m 420.17531,174.71152 c 0,6.7949 0,17.3866 0,28.1833" />
    <polygon
       transform="translate(363.1753,272.24602)"
       style="fill:#000000;stroke:#000000"
       id="polygon40-5"
       points="57,-59.054 53.5001,-69.054 60.5001,-69.0539 60.5001,-69.0539 " />
    <path
       style="fill:none;stroke:#000000;stroke-width:1"
       inkscape:connector-curvature="0"
       id="path45"
       d="m 477.7193,233.77392 c 10.278,1.1012 17.456,3.9252 17.456,8.4721 0,2.8418 -2.804,5.0106 -7.416,6.5064" />
    <polygon
       transform="translate(363.1753,272.24602)"
       style="fill:#000000;stroke:#000000"
       id="polygon47"
       points="114.544,-21.5279 123.686,-26.8842 125.031,-20.0147 125.031,-20.0147 " />
    <text
       style="font-size:14px;font-style:normal;font-variant:normal;font-weight:normal;font-stretch:normal;text-anchor:middle;font-family:Arial;-inkscape-font-specification:Arial"
       id="text49"
       font-size="14.00"
       y="230.84601"
       x="567.37531">m == 6;</text>
    <text
       style="font-size:14px;font-style:normal;font-variant:normal;font-weight:normal;font-stretch:normal;text-anchor:middle;font-family:Arial;-inkscape-font-specification:Arial"
       id="text51"
       font-size="14.00"
       y="246.84601"
       x="567.37531"><tspan
   id="tspan3079"
   style="font-weight:bold">send</tspan>
 S(&quot;a&quot;) <tspan
   id="tspan3083"
   style="font-weight:bold">to</tspan>
 InOut;</text>
    <text
       style="font-size:14px;font-style:normal;font-variant:normal;font-weight:normal;font-stretch:normal;text-anchor:middle;font-family:Arial;-inkscape-font-specification:Arial"
       id="text53"
       font-size="14.00"
       y="262.84604"
       x="567.37531"><tspan
   id="tspan3081"
   style="font-weight:bold">receive</tspan>
 T(s) <tspan
   id="tspan3085"
   style="font-weight:bold">from</tspan>
 InOut</text>
  </g>
  <g
     id="g3197"
     transform="translate(-362.1753,-183.68921)">
    <ellipse
       transform="translate(363.1753,438.08921)"
       style="fill:#000000;stroke:#000000"
       sodipodi:ry="7.1999998"
       sodipodi:rx="7.1999998"
       sodipodi:cy="-105"
       sodipodi:cx="57"
       d="m 64.2,-105 c 0,3.97645 -3.22355,7.2 -7.2,7.2 -3.97645,0 -7.2,-3.22355 -7.2,-7.2 0,-3.97645 3.22355,-7.2 7.2,-7.2 3.97645,0 7.2,3.22355 7.2,7.2 z"
       id="ellipse12-17"
       ry="7.1999998"
       rx="7.1999998"
       cy="-105"
       cx="57" />
    <polyline
       transform="translate(363.1753,430.08921)"
       style="fill:none;stroke:#000000"
       id="polyline17-1"
       points="11.5,-1 102.5,-1 " />
    <path
       style="fill:none;stroke:#000000;stroke-width:1"
       inkscape:connector-curvature="0"
       id="path19-1"
       d="m 465.6753,429.08921 c 6,0 12,-6 12,-12.00001" />
    <polyline
       transform="translate(363.1753,430.08921)"
       style="fill:none;stroke:#000000"
       id="polyline21-5"
       points="114.5,-13 114.5,-47 " />
    <path
       style="fill:none;stroke:#000000;stroke-width:1"
       inkscape:connector-curvature="0"
       id="path23-2"
       d="m 477.6753,383.0892 c 0,-6 -6,-12 -12,-12" />
    <polyline
       transform="translate(363.1753,430.08921)"
       style="fill:none;stroke:#000000"
       id="polyline25-7"
       points="102.5,-59 11.5,-59 " />
    <path
       style="fill:none;stroke:#000000;stroke-width:1"
       inkscape:connector-curvature="0"
       id="path27-6"
       d="m 374.6753,371.0892 c -6,0 -12,6 -12,12" />
    <polyline
       transform="translate(363.1753,430.08921)"
       style="fill:none;stroke:#000000"
       id="polyline29-1"
       points="-0.5,-47 -0.5,-13 " />
    <path
       style="fill:none;stroke:#000000;stroke-width:1"
       inkscape:connector-curvature="0"
       id="path31-4"
       d="m 362.6753,417.0892 c 0,6.00001 6,12.00001 12,12.00001" />
    <text
       style="font-size:14px;font-style:normal;font-variant:normal;font-weight:normal;font-stretch:normal;text-anchor:middle;font-family:Arial;-inkscape-font-specification:Arial"
       id="text33-2"
       font-size="14.00"
       y="404.68921"
       x="420.17532">Rec2</text>
    <path
       style="fill:none;stroke:#000000;stroke-width:1"
       inkscape:connector-curvature="0"
       id="path38-3"
       d="m 420.1753,332.5547 c 0,6.7949 0,17.3866 0,28.1833" />
    <polygon
       transform="translate(363.1753,430.08921)"
       style="fill:#000000;stroke:#000000"
       id="polygon40-2"
       points="57,-59.054 53.5001,-69.054 60.5001,-69.0539 60.5001,-69.0539 " />
    <path
       style="fill:none;stroke:#000000;stroke-width:1"
       inkscape:connector-curvature="0"
       id="path45-2"
       d="m 477.7193,391.6171 c 10.278,1.1012 17.456,3.9252 17.456,8.4721 0,2.8418 -2.804,5.0106 -7.416,6.5064" />
    <polygon
       transform="translate(363.1753,430.08921)"
       style="fill:#000000;stroke:#000000"
       id="polygon47-1"
       points="114.544,-21.5279 123.686,-26.8842 125.031,-20.0147 125.031,-20.0147 " />
    <text
       style="font-size:14px;font-style:normal;font-variant:normal;font-weight:normal;font-stretch:normal;text-anchor:middle;font-family:Arial;-inkscape-font-specification:Arial"
       id="text49-6"
       font-size="14.00"
       y="385.4892"
       x="584.07532"><tspan
   id="tspan3075"
   style="font-weight:bold">receive</tspan>
 Q(m | m &gt;= 0) <tspan
   id="tspan3077"
   style="font-weight:bold">from</tspan>
 In2;</text>
    <text
       style="font-size:14px;font-style:normal;font-variant:normal;font-weight:normal;font-stretch:normal;text-anchor:middle;font-family:Arial;-inkscape-font-specification:Arial"
       id="text51-8"
       font-size="14.00"
       y="401.4892"
       x="584.07532">m := m + 1</text>
  </g>
  <ellipse
     cx="57"
     cy="-105"
     rx="7.1999998"
     ry="7.1999998"
     id="ellipse12-5"
     d="m 64.2,-105 c 0,3.97645 -3.22355,7.2 -7.2,7.2 -3.97645,0 -7.2,-3.22355 -7.2,-7.2 0,-3.97645 3.22355,-7.2 7.2,-7.2 3.97645,0 7.2,3.22355 7.2,7.2 z"
     sodipodi:cx="57"
     sodipodi:cy="-105"
     sodipodi:rx="7.1999998"
     sodipodi:ry="7.1999998"
     style="fill:#000000;stroke:#000000"
     transform="translate(0.99999898,112.7)" />
  <polyline
     points="11.5,-1 102.5,-1 "
     id="polyline17-76"
     style="fill:none;stroke:#000000"
     transform="translate(0.99999898,106.3)" />
  <path
     d="m 103.5,105.3 c 6,0 12,-6 12,-12"
     id="path19-18"
     inkscape:connector-curvature="0"
     style="fill:none;stroke:#000000;stroke-width:1" />
  <polyline
     points="114.5,-13 114.5,-47 "
     id="polyline21-9"
     style="fill:none;stroke:#000000"
     transform="translate(0.99999898,106.3)" />
  <path
     d="m 115.5,59.300002 c 0,-6 -6,-12 -12,-12"
     id="path23-27"
     inkscape:connector-curvature="0"
     style="fill:none;stroke:#000000;stroke-width:1" />
  <polyline
     points="102.5,-59 11.5,-59 "
     id="polyline25-9"
     style="fill:none;stroke:#000000"
     transform="translate(0.99999898,106.3)" />
  <path
     d="m 12.499999,47.300002 c -6,0 -12.00000002,6 -12.00000002,12"
     id="path27-5"
     inkscape:connector-curvature="0"
     style="fill:none;stroke:#000000;stroke-width:1" />
  <polyline
     points="-0.5,-47 -0.5,-13 "
     id="polyline29-4"
     style="fill:none;stroke:#000000"
     transform="translate(0.99999898,106.3)" />
  <path
     d="m 0.49999898,93.3 c 0,6 6.00000002,12 12.00000002,12"
     id="path31-3"
     inkscape:connector-curvature="0"
     style="fill:none;stroke:#000000;stroke-width:1" />
  <text
     x="57.998947"
     y="80.899994"
     font-size="14.00"
     id="text33-1"
     style="font-size:14px;font-style:normal;font-variant:normal;font-weight:normal;font-stretch:normal;text-anchor:middle;font-family:Arial;-inkscape-font-specification:Arial">Rec1</text>
  <path
     d="m 57.999999,8.7654976 c 0,6.7949004 0,17.3866004 0,28.1833004"
     id="path38-2"
     inkscape:connector-curvature="0"
     style="fill:none;stroke:#000000;stroke-width:1" />
  <polygon
     points="60.5001,-69.0539 60.5001,-69.0539 57,-59.054 53.5001,-69.054 "
     id="polygon40-3"
     style="fill:#000000;stroke:#000000"
     transform="translate(0.99999898,106.3)" />
  <path
     d="m 115.544,67.827902 c 10.278,1.1012 17.456,3.9252 17.456,8.4721 0,2.8418 -2.804,5.0106 -7.416,6.5064"
     id="path45-3"
     inkscape:connector-curvature="0"
     style="fill:none;stroke:#000000;stroke-width:1" />
  <polygon
     points="125.031,-20.0147 125.031,-20.0147 114.544,-21.5279 123.686,-26.8842 "
     id="polygon47-4"
     style="fill:#000000;stroke:#000000"
     transform="translate(0.99999898,106.3)" />
  <text
     x="210.59966"
     y="63.300011"
     font-size="14.00"
     id="text49-1"
     style="font-size:14px;font-style:normal;font-variant:normal;font-weight:normal;font-stretch:normal;text-anchor:middle;font-family:Arial;-inkscape-font-specification:Arial"><tspan
   style="font-weight:bold"
   id="tspan3071">receive</tspan>
 P([[<tspan
   id="tspan3098"
   style="font-weight:bold">false</tspan>
]]) <tspan
   style="font-weight:bold"
   id="tspan3075-1">from</tspan>
 In1</text>
  <g
     id="g3217"
     transform="translate(383.06993,-7.4957622)">
    <ellipse
       transform="translate(1,436.7)"
       style="fill:#000000;stroke:#000000"
       sodipodi:ry="7.1999998"
       sodipodi:rx="7.1999998"
       sodipodi:cy="-421"
       sodipodi:cx="135"
       d="m 142.2,-421 c 0,3.97645 -3.22355,7.2 -7.2,7.2 -3.97645,0 -7.2,-3.22355 -7.2,-7.2 0,-3.97645 3.22355,-7.2 7.2,-7.2 3.97645,0 7.2,3.22355 7.2,7.2 z"
       id="ellipse12"
       ry="7.1999998"
       rx="7.1999998"
       cy="-421"
       cx="135" />
    <polyline
       transform="translate(1,428.7)"
       style="fill:none;stroke:#000000"
       id="polyline17"
       points="89.5,-317 180.5,-317 " />
    <path
       style="fill:none;stroke:#000000"
       inkscape:connector-curvature="0"
       id="path19"
       d="m 181.5,111.7 c 6,0 12,-6 12,-12.000005" />
    <polyline
       transform="translate(1,428.7)"
       style="fill:none;stroke:#000000"
       id="polyline21"
       points="192.5,-329 192.5,-363 " />
    <path
       style="fill:none;stroke:#000000"
       inkscape:connector-curvature="0"
       id="path23"
       d="m 193.5,65.699995 c 0,-6 -6,-12 -12,-12" />
    <polyline
       transform="translate(1,428.7)"
       style="fill:none;stroke:#000000"
       id="polyline25"
       points="180.5,-375 89.5,-375 " />
    <path
       style="fill:none;stroke:#000000"
       inkscape:connector-curvature="0"
       id="path27"
       d="m 90.5,53.699995 c -6,0 -12,6 -12,12" />
    <polyline
       transform="translate(1,428.7)"
       style="fill:none;stroke:#000000"
       id="polyline29"
       points="77.5,-363 77.5,-329 " />
    <path
       style="fill:none;stroke:#000000"
       inkscape:connector-curvature="0"
       id="path31"
       d="M 78.5,99.699995 C 78.5,105.7 84.5,111.7 90.5,111.7" />
    <text
       style="font-size:14px;font-style:normal;font-variant:normal;font-weight:normal;font-stretch:normal;text-anchor:middle;font-family:Arial;-inkscape-font-specification:Arial"
       id="text33"
       font-size="14.00"
       y="87.299995"
       x="136">Com0</text>
    <path
       style="fill:none;stroke:#000000"
       inkscape:connector-curvature="0"
       id="path38"
       d="m 136,15.164995 c 0,6.795 0,17.387 0,28.184" />
    <polygon
       transform="translate(1,428.7)"
       style="fill:#000000;stroke:#000000"
       id="polygon40"
       points="138.5,-385.054 135,-375.054 131.5,-385.054 138.5,-385.054 " />
    <polyline
       transform="translate(1,420.7)"
       style="fill:none;stroke:#000000"
       id="polyline45"
       points="11.5,-205 102.5,-205 " />
    <path
       style="fill:none;stroke:#000000"
       inkscape:connector-curvature="0"
       id="path47"
       d="m 103.5,215.7 c 6,0 12,-6 12,-12" />
    <polyline
       transform="translate(1,420.7)"
       style="fill:none;stroke:#000000"
       id="polyline49"
       points="114.5,-217 114.5,-251 " />
    <path
       style="fill:none;stroke:#000000"
       inkscape:connector-curvature="0"
       id="path51"
       d="m 115.5,169.7 c 0,-6 -6,-12 -12,-12" />
    <polyline
       transform="translate(1,420.7)"
       style="fill:none;stroke:#000000"
       id="polyline53"
       points="102.5,-263 11.5,-263 " />
    <path
       style="fill:none;stroke:#000000"
       inkscape:connector-curvature="0"
       id="path55"
       d="m 12.5,157.7 c -6,0 -12,6 -12,12" />
    <polyline
       transform="translate(1,420.7)"
       style="fill:none;stroke:#000000"
       id="polyline57"
       points="-0.5,-251 -0.5,-217 " />
    <path
       style="fill:none;stroke:#000000"
       inkscape:connector-curvature="0"
       id="path59"
       d="m 0.5,203.7 c 0,6 6,12 12,12" />
    <text
       style="font-size:14px;font-style:normal;font-variant:normal;font-weight:normal;font-stretch:normal;text-anchor:middle;font-family:Arial;-inkscape-font-specification:Arial"
       id="text61"
       font-size="14.00"
       y="191.29997"
       x="58.000011">Com1</text>
    <path
       sodipodi:nodetypes="cc"
       style="fill:none;stroke:#000000"
       inkscape:connector-curvature="0"
       id="path66"
       d="M 92.235,111.893 C 77.67616,122.01848 62.00122,143.48031 57.3654,155.781" />
    <polygon
       transform="translate(-5.4,420.7)"
       style="fill:#000000;stroke:#000000"
       id="polygon68"
       points="69.2713,-271.764 69.2713,-271.764 62.944,-263.266 62.5909,-273.855 " />
    <text
       style="font-size:14px;font-style:normal;font-variant:normal;font-weight:normal;font-stretch:normal;text-anchor:middle;font-family:Arial;-inkscape-font-specification:Arial"
       id="text70"
       font-size="14.00"
       y="140.31146"
       x="142.97052"><tspan
   id="tspan3221"
   style="font-weight:bold">send</tspan>
 P(<tspan
   id="tspan3223"
   style="font-weight:bold">true</tspan>
) <tspan
   id="tspan3225"
   style="font-weight:bold">to</tspan>
 Out1</text>
    <polyline
       transform="translate(1,401.5)"
       style="fill:none;stroke:#000000"
       id="polyline75"
       points="83.5,-61 174.5,-61 " />
    <path
       style="fill:none;stroke:#000000"
       inkscape:connector-curvature="0"
       id="path77"
       d="m 175.5,340.5 c 6,0 12,-6 12,-12" />
    <polyline
       transform="translate(1,401.5)"
       style="fill:none;stroke:#000000"
       id="polyline79"
       points="186.5,-73 186.5,-107 " />
    <path
       style="fill:none;stroke:#000000"
       inkscape:connector-curvature="0"
       id="path81"
       d="m 187.5,294.5 c 0,-6 -6,-12 -12,-12" />
    <polyline
       transform="translate(1,401.5)"
       style="fill:none;stroke:#000000"
       id="polyline83"
       points="174.5,-119 83.5,-119 " />
    <path
       style="fill:none;stroke:#000000"
       inkscape:connector-curvature="0"
       id="path85"
       d="m 84.5,282.5 c -6,0 -12,6 -12,12" />
    <polyline
       transform="translate(1,401.5)"
       style="fill:none;stroke:#000000"
       id="polyline87"
       points="71.5,-107 71.5,-73 " />
    <path
       style="fill:none;stroke:#000000"
       inkscape:connector-curvature="0"
       id="path89"
       d="m 72.5,328.5 c 0,6 6,12 12,12" />
    <text
       style="font-size:14px;font-style:normal;font-variant:normal;font-weight:normal;font-stretch:normal;text-anchor:middle;font-family:Arial;-inkscape-font-specification:Arial"
       id="text91"
       font-size="14.00"
       y="316.09991"
       x="130">Com2</text>
    <path
       sodipodi:nodetypes="cc"
       style="fill:none;stroke:#000000"
       inkscape:connector-curvature="0"
       id="path96"
       d="M 193.93004,94.702298 C 236.18499,146.27124 242.11292,241.90426 192.83,295.804" />
    <polygon
       transform="translate(9.5613027,419.24904)"
       style="fill:#000000;stroke:#000000"
       id="polygon98"
       points="187.871,-123.982 178.476,-119.085 182.766,-128.772 187.871,-123.982 " />
    <text
       style="font-size:14px;font-style:normal;font-variant:normal;font-weight:normal;font-stretch:normal;text-anchor:middle;font-family:Arial;-inkscape-font-specification:Arial"
       id="text100"
       font-size="14.00"
       y="191.29997"
       x="267.40009"><tspan
   id="tspan3227"
   style="font-weight:bold">after</tspan>
 5 <tspan
   id="tspan3229"
   style="font-weight:bold">ms</tspan>
</text>
    <path
       sodipodi:nodetypes="cc"
       style="fill:none;stroke:#000000"
       inkscape:connector-curvature="0"
       id="path105"
       d="m 35.9671,215.817 c -1.9881,27.90914 11.01642,65.79532 30.2264,85.01" />
    <polygon
       transform="translate(0.79118644,422.02337)"
       style="fill:#000000;stroke:#000000"
       id="polygon107"
       points="65.9033,-125.703 71.1491,-116.498 61.3079,-120.423 65.9033,-125.703 " />
    <text
       style="font-size:14px;font-style:normal;font-variant:normal;font-weight:normal;font-stretch:normal;text-anchor:middle;font-family:Arial;-inkscape-font-specification:Arial"
       id="text109"
       font-size="14.00"
       y="232.89992"
       x="121.90001"><tspan
   id="tspan3231"
   style="font-weight:bold">send</tspan>
 Q(5) <tspan
   id="tspan3245"
   style="font-weight:bold">to</tspan>
 Out2;</text>
    <text
       style="font-size:14px;font-style:normal;font-variant:normal;font-weight:normal;font-stretch:normal;text-anchor:middle;font-family:Arial;-inkscape-font-specification:Arial"
       id="text111"
       font-size="14.00"
       y="248.89993"
       x="121.90001"><tspan
   id="tspan3233"
   style="font-weight:bold">receive</tspan>
 S(s) <tspan
   id="tspan3243"
   style="font-weight:bold">from</tspan>
 InOut;</text>
    <text
       style="font-size:14px;font-style:normal;font-variant:normal;font-weight:normal;font-stretch:normal;text-anchor:middle;font-family:Arial;-inkscape-font-specification:Arial"
       id="text113"
       font-size="14.00"
       y="264.89993"
       x="121.90001"><tspan
   id="tspan3235"
   style="font-weight:bold">send</tspan>
 T(s) <tspan
   id="tspan3237"
   style="font-weight:bold">to</tspan>
 InOut</text>
    <ellipse
       transform="translate(1,393.5)"
       style="fill:#000000;stroke:#000000"
       sodipodi:ry="7"
       sodipodi:rx="7"
       sodipodi:cy="-11"
       sodipodi:cx="129"
       d="m 136,-11 c 0,3.8659932 -3.13401,7 -7,7 -3.86599,0 -7,-3.1340068 -7,-7 0,-3.865993 3.13401,-7 7,-7 3.86599,0 7,3.134007 7,7 z"
       id="ellipse118"
       ry="7"
       rx="7"
       cy="-11"
       cx="129" />
    <ellipse
       transform="translate(1,393.5)"
       style="fill:none;stroke:#000000"
       sodipodi:ry="11"
       sodipodi:rx="11"
       sodipodi:cy="-11"
       sodipodi:cx="129"
       d="m 140,-11 c 0,6.0751322 -4.92487,11 -11,11 -6.07513,0 -11,-4.9248678 -11,-11 0,-6.075132 4.92487,-11 11,-11 6.07513,0 11,4.924868 11,11 z"
       id="ellipse120"
       ry="11"
       rx="11"
       cy="-11"
       cx="129" />
    <path
       style="fill:none;stroke:#000000;stroke-width:1"
       inkscape:connector-curvature="0"
       id="path125"
       d="m 130,340.9167 c 0,7.54672 0,15.74745 0,22.74069" />
    <polygon
       transform="translate(1,393.5)"
       style="fill:#000000;stroke:#000000"
       id="polygon127"
       points="132.5,-32.2977 129,-22.2978 125.5,-32.2978 132.5,-32.2977 " />
  </g>
</svg>
