<?xml version="1.0" encoding="UTF-8" standalone="no"?>
<!-- Generated by graphviz version 2.26.3 (20100126.1600)
 -->

<!-- Title: Rec Pages: 1 -->

<svg
   xmlns:dc="http://purl.org/dc/elements/1.1/"
   xmlns:cc="http://creativecommons.org/ns#"
   xmlns:rdf="http://www.w3.org/1999/02/22-rdf-syntax-ns#"
   xmlns:svg="http://www.w3.org/2000/svg"
   xmlns="http://www.w3.org/2000/svg"
   xmlns:sodipodi="http://sodipodi.sourceforge.net/DTD/sodipodi-0.dtd"
   xmlns:inkscape="http://www.inkscape.org/namespaces/inkscape"
   width="401.6438"
   height="140.25"
   viewBox="0 0 321.31504 112.2"
   id="svg2"
   version="1.1"
   inkscape:version="0.48.1 "
   sodipodi:docname="P_Rec.svg">
  <metadata
     id="metadata57">
    <rdf:RDF>
      <cc:Work
         rdf:about="">
        <dc:format>image/svg+xml</dc:format>
        <dc:type
           rdf:resource="http://purl.org/dc/dcmitype/StillImage" />
      </cc:Work>
    </rdf:RDF>
  </metadata>
  <defs
     id="defs55" />
  <sodipodi:namedview
     pagecolor="#ffffff"
     bordercolor="#666666"
     borderopacity="1"
     objecttolerance="10"
     gridtolerance="10"
     guidetolerance="10"
     inkscape:pageopacity="0"
     inkscape:pageshadow="2"
     inkscape:window-width="1680"
     inkscape:window-height="998"
     id="namedview53"
     showgrid="false"
     fit-margin-top="0"
     fit-margin-left="0"
     fit-margin-right="0"
     fit-margin-bottom="0"
     inkscape:zoom="1.271028"
     inkscape:cx="196.875"
     inkscape:cy="69.375"
     inkscape:window-x="-8"
     inkscape:window-y="-8"
     inkscape:window-maximized="1"
     inkscape:current-layer="svg2" />
  <ellipse
     cx="57"
     cy="-105"
     rx="7.1999998"
     ry="7.1999998"
     id="ellipse12"
     d="m 64.2,-105 c 0,3.97645 -3.22355,7.2 -7.2,7.2 -3.97645,0 -7.2,-3.22355 -7.2,-7.2 0,-3.97645 3.22355,-7.2 7.2,-7.2 3.97645,0 7.2,3.22355 7.2,7.2 z"
     sodipodi:cx="57"
     sodipodi:cy="-105"
     sodipodi:rx="7.1999998"
     sodipodi:ry="7.1999998"
     style="fill:#000000;stroke:#000000"
     transform="translate(1,112.7)" />
  <polyline
     points="11.5,-1 102.5,-1 "
     id="polyline17"
     style="fill:none;stroke:#000000"
     transform="translate(1,112.7)" />
  <path
     d="m 103.5,111.7 c 6,0 12,-6 12,-12"
     id="path19"
     inkscape:connector-curvature="0"
     style="fill:none;stroke:#000000" />
  <polyline
     points="114.5,-13 114.5,-47 "
     id="polyline21"
     style="fill:none;stroke:#000000"
     transform="translate(1,112.7)" />
  <path
     d="m 115.5,65.7 c 0,-6 -6,-12 -12,-12"
     id="path23"
     inkscape:connector-curvature="0"
     style="fill:none;stroke:#000000" />
  <polyline
     points="102.5,-59 11.5,-59 "
     id="polyline25"
     style="fill:none;stroke:#000000"
     transform="translate(1,112.7)" />
  <path
     d="m 12.5,53.7 c -6,0 -12,6 -12,12"
     id="path27"
     inkscape:connector-curvature="0"
     style="fill:none;stroke:#000000" />
  <polyline
     points="-0.5,-47 -0.5,-13 "
     id="polyline29"
     style="fill:none;stroke:#000000"
     transform="translate(1,112.7)" />
  <path
     d="m 0.5,99.7 c 0,6 6,12 12,12"
     id="path31"
     inkscape:connector-curvature="0"
     style="fill:none;stroke:#000000" />
  <text
     x="58"
     y="87.299995"
     font-size="14.00"
     id="text33"
     style="font-size:14px;font-style:normal;font-variant:normal;font-weight:normal;font-stretch:normal;text-anchor:middle;font-family:Arial;-inkscape-font-specification:Arial">Initial</text>
  <path
     d="m 58,15.1655 c 0,6.7949 0,17.3866 0,28.1833"
     id="path38"
     inkscape:connector-curvature="0"
     style="fill:none;stroke:#000000" />
  <polygon
     points="60.5001,-69.0539 60.5001,-69.0539 57,-59.054 53.5001,-69.054 "
     id="polygon40"
     style="fill:#000000;stroke:#000000"
     transform="translate(1,112.7)" />
  <path
     d="M 115.544,74.2279 C 125.822,75.3291 133,78.1531 133,82.7 c 0,2.8418 -2.804,5.0106 -7.416,6.5064"
     id="path45"
     inkscape:connector-curvature="0"
     style="fill:none;stroke:#000000" />
  <polygon
     points="125.031,-20.0147 125.031,-20.0147 114.544,-21.5279 123.686,-26.8842 "
     id="polygon47"
     style="fill:#000000;stroke:#000000"
     transform="translate(1,112.7)" />
  <text
     x="221.89999"
     y="68.100006"
     font-size="14.00"
     id="text49"
     style="font-size:14px;font-style:normal;font-variant:normal;font-weight:normal;font-stretch:normal;text-anchor:middle;font-family:Arial;-inkscape-font-specification:Arial"><tspan
   style="font-weight:bold"
   id="tspan3075">receive</tspan>
 Q(m | m &gt;= 0) <tspan
   style="font-weight:bold"
   id="tspan3077">from</tspan>
 In2;</text>
  <text
     x="221.89999"
     y="84.100006"
     font-size="14.00"
     id="text51"
     style="font-size:14px;font-style:normal;font-variant:normal;font-weight:normal;font-stretch:normal;text-anchor:middle;font-family:Arial;-inkscape-font-specification:Arial">m := m + 1</text>
</svg>
