<?xml version="1.0" encoding="UTF-8" standalone="no"?>
<!-- Generated by graphviz version 2.26.3 (20100126.1600)
 -->

<!-- Title: Com Pages: 1 -->

<svg
   xmlns:dc="http://purl.org/dc/elements/1.1/"
   xmlns:cc="http://creativecommons.org/ns#"
   xmlns:rdf="http://www.w3.org/1999/02/22-rdf-syntax-ns#"
   xmlns:svg="http://www.w3.org/2000/svg"
   xmlns="http://www.w3.org/2000/svg"
   xmlns:sodipodi="http://sodipodi.sourceforge.net/DTD/sodipodi-0.dtd"
   xmlns:inkscape="http://www.inkscape.org/namespaces/inkscape"
   width="368.75302"
   height="536.5"
   viewBox="0 0 295.00242 429.2"
   id="svg2"
   version="1.1"
   inkscape:version="0.48.1 "
   sodipodi:docname="Q_Com.svg">
  <metadata
     id="metadata133">
    <rdf:RDF>
      <cc:Work
         rdf:about="">
        <dc:format>image/svg+xml</dc:format>
        <dc:type
           rdf:resource="http://purl.org/dc/dcmitype/StillImage" />
      </cc:Work>
    </rdf:RDF>
  </metadata>
  <defs
     id="defs131" />
  <sodipodi:namedview
     pagecolor="#ffffff"
     bordercolor="#666666"
     borderopacity="1"
     objecttolerance="10"
     gridtolerance="10"
     guidetolerance="10"
     inkscape:pageopacity="0"
     inkscape:pageshadow="2"
     inkscape:window-width="1680"
     inkscape:window-height="998"
     id="namedview129"
     showgrid="false"
     fit-margin-top="0"
     fit-margin-left="0"
     fit-margin-right="0"
     fit-margin-bottom="0"
     inkscape:zoom="0.67726558"
     inkscape:cx="-85.667391"
     inkscape:cy="195.94343"
     inkscape:window-x="-8"
     inkscape:window-y="-8"
     inkscape:window-maximized="1"
     inkscape:current-layer="svg2" />
  <ellipse
     cx="135"
     cy="-421"
     rx="7.1999998"
     ry="7.1999998"
     id="ellipse12"
     d="m 142.2,-421 c 0,3.97645 -3.22355,7.2 -7.2,7.2 -3.97645,0 -7.2,-3.22355 -7.2,-7.2 0,-3.97645 3.22355,-7.2 7.2,-7.2 3.97645,0 7.2,3.22355 7.2,7.2 z"
     sodipodi:cx="135"
     sodipodi:cy="-421"
     sodipodi:rx="7.1999998"
     sodipodi:ry="7.1999998"
     style="fill:#000000;stroke:#000000"
     transform="translate(1,428.7)" />
  <polyline
     points="89.5,-317 180.5,-317 "
     id="polyline17"
     style="fill:none;stroke:#000000"
     transform="translate(1,428.7)" />
  <path
     d="m 181.5,111.7 c 6,0 12,-6 12,-12"
     id="path19"
     inkscape:connector-curvature="0"
     style="fill:none;stroke:#000000" />
  <polyline
     points="192.5,-329 192.5,-363 "
     id="polyline21"
     style="fill:none;stroke:#000000"
     transform="translate(1,428.7)" />
  <path
     d="m 193.5,65.7 c 0,-6 -6,-12 -12,-12"
     id="path23"
     inkscape:connector-curvature="0"
     style="fill:none;stroke:#000000" />
  <polyline
     points="180.5,-375 89.5,-375 "
     id="polyline25"
     style="fill:none;stroke:#000000"
     transform="translate(1,428.7)" />
  <path
     d="m 90.5,53.7 c -6,0 -12,6 -12,12"
     id="path27"
     inkscape:connector-curvature="0"
     style="fill:none;stroke:#000000" />
  <polyline
     points="77.5,-363 77.5,-329 "
     id="polyline29"
     style="fill:none;stroke:#000000"
     transform="translate(1,428.7)" />
  <path
     d="m 78.5,99.7 c 0,6 6,12 12,12"
     id="path31"
     inkscape:connector-curvature="0"
     style="fill:none;stroke:#000000" />
  <text
     x="136"
     y="87.300003"
     font-size="14.00"
     id="text33"
     style="font-size:14px;font-style:normal;font-variant:normal;font-weight:normal;font-stretch:normal;text-anchor:middle;font-family:Arial;-inkscape-font-specification:Arial">Initial</text>
  <path
     d="m 136,15.165 c 0,6.795 0,17.387 0,28.184"
     id="path38"
     inkscape:connector-curvature="0"
     style="fill:none;stroke:#000000" />
  <polygon
     points="138.5,-385.054 138.5,-385.054 135,-375.054 131.5,-385.054 "
     id="polygon40"
     style="fill:#000000;stroke:#000000"
     transform="translate(1,428.7)" />
  <polyline
     points="11.5,-205 102.5,-205 "
     id="polyline45"
     style="fill:none;stroke:#000000"
     transform="translate(1,428.7)" />
  <path
     d="m 103.5,223.7 c 6,0 12,-6 12,-12"
     id="path47"
     inkscape:connector-curvature="0"
     style="fill:none;stroke:#000000" />
  <polyline
     points="114.5,-217 114.5,-251 "
     id="polyline49"
     style="fill:none;stroke:#000000"
     transform="translate(1,428.7)" />
  <path
     d="m 115.5,177.7 c 0,-6 -6,-12 -12,-12"
     id="path51"
     inkscape:connector-curvature="0"
     style="fill:none;stroke:#000000" />
  <polyline
     points="102.5,-263 11.5,-263 "
     id="polyline53"
     style="fill:none;stroke:#000000"
     transform="translate(1,428.7)" />
  <path
     d="m 12.5,165.7 c -6,0 -12,6 -12,12"
     id="path55"
     inkscape:connector-curvature="0"
     style="fill:none;stroke:#000000" />
  <polyline
     points="-0.5,-251 -0.5,-217 "
     id="polyline57"
     style="fill:none;stroke:#000000"
     transform="translate(1,428.7)" />
  <path
     d="m 0.5,211.7 c 0,6 6,12 12,12"
     id="path59"
     inkscape:connector-curvature="0"
     style="fill:none;stroke:#000000" />
  <text
     x="58"
     y="199.3"
     font-size="14.00"
     id="text61"
     style="font-size:14px;font-style:normal;font-variant:normal;font-weight:normal;font-stretch:normal;text-anchor:middle;font-family:Arial;-inkscape-font-specification:Arial">State</text>
  <path
     d="M 95.435,111.893 C 80.876157,122.01848 65.201223,143.48031 60.5654,155.781"
     id="path66"
     inkscape:connector-curvature="0"
     style="fill:none;stroke:#000000"
     sodipodi:nodetypes="cc" />
  <polygon
     points="69.2713,-271.764 69.2713,-271.764 62.944,-263.266 62.5909,-273.855 "
     id="polygon68"
     style="fill:#000000;stroke:#000000"
     transform="translate(-5.4,428.7)" />
  <text
     x="141.30002"
     y="143.3"
     font-size="14.00"
     id="text70"
     style="font-size:14px;font-style:normal;font-variant:normal;font-weight:normal;font-stretch:normal;text-anchor:middle;font-family:Arial;-inkscape-font-specification:Arial"><tspan
   style="font-weight:bold"
   id="tspan3221">send</tspan>
 P(<tspan
   style="font-weight:bold"
   id="tspan3223">true</tspan>
) <tspan
   style="font-weight:bold"
   id="tspan3225">to</tspan>
 Out1</text>
  <polyline
     points="83.5,-61 174.5,-61 "
     id="polyline75"
     style="fill:none;stroke:#000000"
     transform="translate(1,428.7)" />
  <path
     d="m 175.5,367.7 c 6,0 12,-6 12,-12"
     id="path77"
     inkscape:connector-curvature="0"
     style="fill:none;stroke:#000000" />
  <polyline
     points="186.5,-73 186.5,-107 "
     id="polyline79"
     style="fill:none;stroke:#000000"
     transform="translate(1,428.7)" />
  <path
     d="m 187.5,321.7 c 0,-6 -6,-12 -12,-12"
     id="path81"
     inkscape:connector-curvature="0"
     style="fill:none;stroke:#000000" />
  <polyline
     points="174.5,-119 83.5,-119 "
     id="polyline83"
     style="fill:none;stroke:#000000"
     transform="translate(1,428.7)" />
  <path
     d="m 84.5,309.7 c -6,0 -12,6 -12,12"
     id="path85"
     inkscape:connector-curvature="0"
     style="fill:none;stroke:#000000" />
  <polyline
     points="71.5,-107 71.5,-73 "
     id="polyline87"
     style="fill:none;stroke:#000000"
     transform="translate(1,428.7)" />
  <path
     d="m 72.5,355.7 c 0,6 6,12 12,12"
     id="path89"
     inkscape:connector-curvature="0"
     style="fill:none;stroke:#000000" />
  <text
     x="130"
     y="343.30002"
     font-size="14.00"
     id="text91"
     style="font-size:14px;font-style:normal;font-variant:normal;font-weight:normal;font-stretch:normal;text-anchor:middle;font-family:Arial;-inkscape-font-specification:Arial">Final</text>
  <path
     d="M 193.93004,94.702303 C 236.18499,146.27124 235.71292,248.30426 186.43,302.204"
     id="path96"
     inkscape:connector-curvature="0"
     style="fill:none;stroke:#000000"
     sodipodi:nodetypes="cc" />
  <polygon
     points="187.871,-123.982 187.871,-123.982 178.476,-119.085 182.766,-128.772 "
     id="polygon98"
     style="fill:#000000;stroke:#000000"
     transform="translate(1,428.7)" />
  <text
     x="262.60007"
     y="199.3"
     font-size="14.00"
     id="text100"
     style="font-size:14px;font-style:normal;font-variant:normal;font-weight:normal;font-stretch:normal;text-anchor:middle;font-family:Arial;-inkscape-font-specification:Arial"><tspan
   style="font-weight:bold"
   id="tspan3227">after</tspan>
 5 <tspan
   style="font-weight:bold"
   id="tspan3229">ms</tspan>
</text>
  <path
     d="m 35.9671,223.817 c -1.988098,27.90914 11.016421,65.79532 30.2264,85.01"
     id="path105"
     inkscape:connector-curvature="0"
     style="fill:none;stroke:#000000"
     sodipodi:nodetypes="cc" />
  <polygon
     points="65.9033,-125.703 71.1491,-116.498 61.3079,-120.423 65.9033,-125.703 "
     id="polygon107"
     style="fill:#000000;stroke:#000000"
     transform="translate(2.0440613,431.62337)" />
  <text
     x="121.90001"
     y="240.89995"
     font-size="14.00"
     id="text109"
     style="font-size:14px;font-style:normal;font-variant:normal;font-weight:normal;font-stretch:normal;text-anchor:middle;font-family:Arial;-inkscape-font-specification:Arial"><tspan
   style="font-weight:bold"
   id="tspan3231">send</tspan>
 Q(5) <tspan
   style="font-weight:bold"
   id="tspan3245">to</tspan>
 Out2;</text>
  <text
     x="121.90001"
     y="256.89996"
     font-size="14.00"
     id="text111"
     style="font-size:14px;font-style:normal;font-variant:normal;font-weight:normal;font-stretch:normal;text-anchor:middle;font-family:Arial;-inkscape-font-specification:Arial"><tspan
   style="font-weight:bold"
   id="tspan3233">receive</tspan>
 S(s) <tspan
   style="font-weight:bold"
   id="tspan3243">from</tspan>
 InOut;</text>
  <text
     x="121.90001"
     y="272.89996"
     font-size="14.00"
     id="text113"
     style="font-size:14px;font-style:normal;font-variant:normal;font-weight:normal;font-stretch:normal;text-anchor:middle;font-family:Arial;-inkscape-font-specification:Arial"><tspan
   style="font-weight:bold"
   id="tspan3235">send</tspan>
 T(s) <tspan
   style="font-weight:bold"
   id="tspan3237">to</tspan>
 InOut</text>
  <ellipse
     cx="129"
     cy="-11"
     rx="7"
     ry="7"
     id="ellipse118"
     d="m 136,-11 c 0,3.8659932 -3.13401,7 -7,7 -3.86599,0 -7,-3.1340068 -7,-7 0,-3.865993 3.13401,-7 7,-7 3.86599,0 7,3.134007 7,7 z"
     sodipodi:cx="129"
     sodipodi:cy="-11"
     sodipodi:rx="7"
     sodipodi:ry="7"
     style="fill:#000000;stroke:#000000"
     transform="translate(1,428.7)" />
  <ellipse
     cx="129"
     cy="-11"
     rx="11"
     ry="11"
     id="ellipse120"
     d="m 140,-11 c 0,6.0751322 -4.92487,11 -11,11 -6.07513,0 -11,-4.9248678 -11,-11 0,-6.075132 4.92487,-11 11,-11 6.07513,0 11,4.924868 11,11 z"
     sodipodi:cx="129"
     sodipodi:cy="-11"
     sodipodi:rx="11"
     sodipodi:ry="11"
     style="fill:none;stroke:#000000"
     transform="translate(1,428.7)" />
  <path
     d="m 130,368.1167 c 0,9.3769 0,19.5664 0,28.2556"
     id="path125"
     inkscape:connector-curvature="0"
     style="fill:none;stroke:#000000" />
  <polygon
     points="132.5,-32.2977 132.5,-32.2977 129,-22.2978 125.5,-32.2978 "
     id="polygon127"
     style="fill:#000000;stroke:#000000"
     transform="translate(1,428.7)" />
</svg>
