<?xml version="1.0" encoding="UTF-8" standalone="no"?>
<!-- Generated by graphviz version 2.26.3 (20100126.1600)
 -->

<!-- Title: LTS Pages: 1 -->

<svg
   xmlns:dc="http://purl.org/dc/elements/1.1/"
   xmlns:cc="http://creativecommons.org/ns#"
   xmlns:rdf="http://www.w3.org/1999/02/22-rdf-syntax-ns#"
   xmlns:svg="http://www.w3.org/2000/svg"
   xmlns="http://www.w3.org/2000/svg"
   xmlns:sodipodi="http://sodipodi.sourceforge.net/DTD/sodipodi-0.dtd"
   xmlns:inkscape="http://www.inkscape.org/namespaces/inkscape"
   width="1261.5538"
   height="691.70947"
   viewBox="0 0 1009.2431 553.36758"
   id="svg2"
   version="1.1"
   inkscape:version="0.48.1 "
   sodipodi:docname="comparison-network.svg">
  <metadata
     id="metadata68">
    <rdf:RDF>
      <cc:Work
         rdf:about="">
        <dc:format>image/svg+xml</dc:format>
        <dc:type
           rdf:resource="http://purl.org/dc/dcmitype/StillImage" />
        <dc:title></dc:title>
      </cc:Work>
    </rdf:RDF>
  </metadata>
  <defs
     id="defs66" />
  <sodipodi:namedview
     pagecolor="#ffffff"
     bordercolor="#666666"
     borderopacity="1"
     objecttolerance="10"
     gridtolerance="10"
     guidetolerance="10"
     inkscape:pageopacity="0"
     inkscape:pageshadow="2"
     inkscape:window-width="1680"
     inkscape:window-height="998"
     id="namedview64"
     showgrid="false"
     inkscape:zoom="0.36910974"
     inkscape:cx="115.52451"
     inkscape:cy="115.96039"
     inkscape:window-x="-8"
     inkscape:window-y="-8"
     inkscape:window-maximized="1"
     inkscape:current-layer="svg2"
     fit-margin-top="0"
     fit-margin-left="0"
     fit-margin-right="0"
     fit-margin-bottom="0">
    <inkscape:grid
       type="xygrid"
       id="grid3138"
       empspacing="5"
       visible="true"
       enabled="true"
       snapvisiblegridlinesonly="true" />
  </sodipodi:namedview>
  <g
     id="g4856"
     transform="translate(126.57728,76.683792)">
    <ellipse
       transform="translate(4,396)"
       style="fill:#000000;stroke:#000000;stroke-width:3"
       sodipodi:ry="38.1838"
       sodipodi:rx="38.1838"
       sodipodi:cy="-354"
       sodipodi:cx="85"
       d="m 123.1838,-354 c 0,21.08833 -17.09547,38.1838 -38.1838,38.1838 -21.08833,0 -38.1838,-17.09547 -38.1838,-38.1838 0,-21.08833 17.09547,-38.1838 38.1838,-38.1838 21.08833,0 38.1838,17.09547 38.1838,38.1838 z"
       id="ellipse12"
       ry="38.1838"
       rx="38.1838"
       cy="-354"
       cx="85" />
    <text
       style="font-size:44.79999924px;font-style:normal;font-variant:normal;font-weight:normal;font-stretch:normal;text-anchor:middle;fill:#ffffff;font-family:Arial;-inkscape-font-specification:Arial"
       id="text14"
       font-size="40.00"
       y="57.815624"
       x="89.087502">3</text>
    <ellipse
       transform="translate(4,396)"
       style="fill:none;stroke:#000000;stroke-width:3"
       sodipodi:ry="38.1838"
       sodipodi:rx="38.1838"
       sodipodi:cy="-196"
       sodipodi:cx="85"
       d="m 123.1838,-196 c 0,21.08833 -17.09547,38.1838 -38.1838,38.1838 -21.08833,0 -38.1838,-17.09547 -38.1838,-38.1838 0,-21.08833 17.09547,-38.1838 38.1838,-38.1838 21.08833,0 38.1838,17.09547 38.1838,38.1838 z"
       id="ellipse19"
       ry="38.1838"
       rx="38.1838"
       cy="-196"
       cx="85" />
    <text
       style="font-size:44.79999924px;font-style:normal;font-variant:normal;font-weight:normal;font-stretch:normal;text-anchor:middle;font-family:Arial;-inkscape-font-specification:Arial"
       id="text21"
       font-size="40.00"
       y="216.03438"
       x="89.809372">4</text>
    <path
       style="fill:none;stroke:#000000;stroke-width:3"
       inkscape:connector-curvature="0"
       id="path26"
       d="m 89,80.247 c 0,18.466 0,41.023 0,61.56" />
    <polygon
       transform="translate(4,396)"
       style="fill:#000000;stroke:#000000"
       id="polygon28"
       points="85,-234.169 78.0001,-254.169 92.0001,-254.169 92.0001,-254.169 " />
    <text
       style="font-size:44.79999924px;font-style:normal;font-variant:normal;font-weight:normal;font-stretch:normal;text-anchor:middle;font-family:Arial;-inkscape-font-specification:Arial"
       id="text30"
       font-size="40.00"
       y="134"
       x="107.5">d</text>
    <ellipse
       transform="translate(4,396)"
       style="fill:none;stroke:#000000;stroke-width:3"
       sodipodi:ry="38.1838"
       sodipodi:rx="38.1838"
       sodipodi:cy="-38"
       sodipodi:cx="38"
       d="M 76.1838,-38 C 76.1838,-16.91167 59.08833,0.18379974 38,0.18379974 16.91167,0.18379974 -0.18379974,-16.91167 -0.18379974,-38 -0.18379974,-59.08833 16.91167,-76.1838 38,-76.1838 c 21.08833,0 38.1838,17.09547 38.1838,38.1838 z"
       id="ellipse35"
       ry="38.1838"
       rx="38.1838"
       cy="-38"
       cx="38" />
    <text
       style="font-size:44.79999924px;font-style:normal;font-variant:normal;font-weight:normal;font-stretch:normal;text-anchor:middle;font-family:Arial;-inkscape-font-specification:Arial"
       id="text37"
       font-size="40.00"
       y="373.54218"
       x="41.978127">5</text>
    <path
       style="fill:none;stroke:#000000;stroke-width:3"
       inkscape:connector-curvature="0"
       id="path42"
       d="m 78.0991,236.646 c -5.7837,19.443 -13.013,43.745 -19.4798,65.485" />
    <polygon
       transform="translate(4,396)"
       style="fill:#000000;stroke:#000000"
       id="polygon44"
       points="48.8418,-74.4468 47.8348,-95.6125 61.2537,-91.6207 61.2537,-91.6207 " />
    <text
       style="font-size:44.79999924px;font-style:normal;font-variant:normal;font-weight:normal;font-stretch:normal;text-anchor:middle;font-family:Arial;-inkscape-font-specification:Arial"
       id="text46"
       font-size="40.00"
       y="292"
       x="81.5">e</text>
    <ellipse
       transform="translate(4,396)"
       style="fill:none;stroke:#000000;stroke-width:3"
       sodipodi:ry="38.1838"
       sodipodi:rx="38.1838"
       sodipodi:cy="-38"
       sodipodi:cx="132"
       d="M 170.1838,-38 C 170.1838,-16.91167 153.08833,0.18379974 132,0.18379974 110.91167,0.18379974 93.8162,-16.91167 93.8162,-38 c 0,-21.08833 17.09547,-38.1838 38.1838,-38.1838 21.08833,0 38.1838,17.09547 38.1838,38.1838 z"
       id="ellipse51"
       ry="38.1838"
       rx="38.1838"
       cy="-38"
       cx="132" />
    <text
       style="font-size:44.79999924px;font-style:normal;font-variant:normal;font-weight:normal;font-stretch:normal;text-anchor:middle;font-family:Arial;-inkscape-font-specification:Arial"
       id="text53"
       font-size="40.00"
       y="373.82657"
       x="136.19687">6</text>
    <path
       style="fill:none;stroke:#000000;stroke-width:3"
       inkscape:connector-curvature="0"
       id="path58"
       d="m 99.9009,236.646 c 5.7841,19.443 13.0131,43.745 19.4801,65.485" />
    <polygon
       transform="translate(4,396)"
       style="fill:#000000;stroke:#000000"
       id="polygon60"
       points="121.158,-74.4468 108.746,-91.6207 122.165,-95.6125 122.165,-95.6125 " />
    <text
       style="font-size:44.79999924px;font-style:normal;font-variant:normal;font-weight:normal;font-stretch:normal;text-anchor:middle;font-family:Arial;-inkscape-font-specification:Arial"
       id="text62"
       font-size="40.00"
       y="292"
       x="124.5">f</text>
  </g>
  <g
     id="g3140"
     transform="translate(46.399998,-8.5285677e-6)">
    <ellipse
       transform="translate(735.42325,551.6838)"
       d="m 153.1838,-512 c 0,21.08833 -17.09547,38.1838 -38.1838,38.1838 -21.08833,0 -38.1838,-17.09547 -38.1838,-38.1838 0,-21.08833 17.09547,-38.1838 38.1838,-38.1838 21.08833,0 38.1838,17.09547 38.1838,38.1838 z"
       style="fill:#000000;stroke:#000000;stroke-width:3"
       sodipodi:ry="38.1838"
       sodipodi:rx="38.1838"
       sodipodi:cy="-512"
       sodipodi:cx="115"
       cx="115"
       cy="-512"
       rx="38.1838"
       ry="38.1838"
       id="ellipse3513" />
    <text
       style="font-size:44.79999924px;font-style:normal;font-variant:normal;font-weight:normal;font-stretch:normal;text-anchor:middle;fill:#ffffff;font-family:Arial;-inkscape-font-specification:Arial"
       x="850.52167"
       y="55.499424"
       font-size="40.00"
       id="text3515">0 3</text>
    <ellipse
       transform="translate(735.42325,551.6838)"
       d="m 76.1838,-354 c 0,21.08833 -17.09547,38.1838 -38.1838,38.1838 -21.08833,0 -38.18379974,-17.09547 -38.18379974,-38.1838 0,-21.08833 17.09546974,-38.1838 38.18379974,-38.1838 21.08833,0 38.1838,17.09547 38.1838,38.1838 z"
       style="fill:none;stroke:#000000;stroke-width:3"
       sodipodi:ry="38.1838"
       sodipodi:rx="38.1838"
       sodipodi:cy="-354"
       sodipodi:cx="38"
       cx="38"
       cy="-354"
       rx="38.1838"
       ry="38.1838"
       id="ellipse3520" />
    <text
       style="font-size:44.79999924px;font-style:normal;font-variant:normal;font-weight:normal;font-stretch:normal;text-anchor:middle;font-family:Arial;-inkscape-font-specification:Arial"
       x="772.01233"
       y="213.49942"
       font-size="40.00"
       id="text3522">1 3</text>
    <path
       style="fill:none;stroke:#000000;stroke-width:3"
       inkscape:connector-curvature="0"
       d="m 833.71535,73.9678 c -10.1406,20.808 -23.2889,47.787 -34.7179,71.239"
       id="path3527" />
    <polygon
       transform="translate(735.42325,551.6838)"
       style="fill:#000000;stroke:#000000"
       points="57.1445,-409.262 69.7296,-403.129 69.7296,-403.129 54.6752,-388.217 "
       id="polygon3529" />
    <text
       style="font-size:44.79999924px;font-style:normal;font-variant:normal;font-weight:normal;font-stretch:normal;text-anchor:middle;font-family:Arial;-inkscape-font-specification:Arial"
       x="829.92322"
       y="131.68381"
       font-size="40.00"
       id="text3531">a</text>
    <ellipse
       transform="translate(735.42325,551.6838)"
       d="m 209.1838,-354 c 0,21.08833 -17.09547,38.1838 -38.1838,38.1838 -21.08833,0 -38.1838,-17.09547 -38.1838,-38.1838 0,-21.08833 17.09547,-38.1838 38.1838,-38.1838 21.08833,0 38.1838,17.09547 38.1838,38.1838 z"
       style="fill:none;stroke:#000000;stroke-width:3"
       sodipodi:ry="38.1838"
       sodipodi:rx="38.1838"
       sodipodi:cy="-354"
       sodipodi:cx="171"
       cx="171"
       cy="-354"
       rx="38.1838"
       ry="38.1838"
       id="ellipse3536" />
    <text
       style="font-size:44.79999924px;font-style:normal;font-variant:normal;font-weight:normal;font-stretch:normal;text-anchor:middle;font-family:Arial;-inkscape-font-specification:Arial"
       x="906.58728"
       y="213.51036"
       font-size="40.00"
       id="text3538">0 4</text>
    <path
       style="fill:none;stroke:#000000;stroke-width:3"
       inkscape:connector-curvature="0"
       d="m 863.13025,75.5368 c 7.028,19.828 15.91,44.887 23.797,67.14"
       id="path3543" />
    <polygon
       transform="translate(735.42325,551.6838)"
       style="fill:#000000;stroke:#000000"
       points="144.967,-406.496 158.163,-411.173 158.163,-411.173 158.246,-389.984 "
       id="polygon3545" />
    <text
       style="font-size:44.79999924px;font-style:normal;font-variant:normal;font-weight:normal;font-stretch:normal;text-anchor:middle;font-family:Arial;-inkscape-font-specification:Arial"
       x="898.12317"
       y="131.68381"
       font-size="40.00"
       id="text3547">d</text>
    <path
       style="fill:none;stroke:#000000;stroke-width:3"
       inkscape:connector-curvature="0"
       d="m 808.69625,183.0598 c 11.5389,0.075 20.727,4.95 20.727,14.624 0,2.721 -0.7268,5.062 -2.0283,7.023"
       id="path3552" />
    <polygon
       transform="translate(735.42325,551.6838)"
       style="fill:#000000;stroke:#000000"
       points="89.1649,-353.392 94.4368,-340.422 94.4368,-340.422 73.273,-339.376 "
       id="polygon3554" />
    <text
       style="font-size:44.79999924px;font-style:normal;font-variant:normal;font-weight:normal;font-stretch:normal;text-anchor:middle;font-family:Arial;-inkscape-font-specification:Arial"
       x="844.72314"
       y="210.68379"
       font-size="40.00"
       id="text3556">
      <tspan
         style="font-style:normal;font-variant:normal;font-weight:normal;font-stretch:normal;font-family:FreeSans;-inkscape-font-specification:FreeSans"
         id="tspan3083">τ</tspan>
    </text>
    <ellipse
       transform="translate(735.42325,551.6838)"
       d="m 76.1838,-196 c 0,21.08833 -17.09547,38.1838 -38.1838,38.1838 -21.08833,0 -38.18379974,-17.09547 -38.18379974,-38.1838 0,-21.08833 17.09546974,-38.1838 38.18379974,-38.1838 21.08833,0 38.1838,17.09547 38.1838,38.1838 z"
       style="fill:none;stroke:#000000;stroke-width:3"
       sodipodi:ry="38.1838"
       sodipodi:rx="38.1838"
       sodipodi:cy="-196"
       sodipodi:cx="38"
       cx="38"
       cy="-196"
       rx="38.1838"
       ry="38.1838"
       id="ellipse3561" />
    <text
       style="font-size:44.79999924px;font-style:normal;font-variant:normal;font-weight:normal;font-stretch:normal;text-anchor:middle;font-family:Arial;-inkscape-font-specification:Arial"
       x="772.07794"
       y="371.78381"
       font-size="40.00"
       id="text3563">1 4</text>
    <path
       style="fill:none;stroke:#000000;stroke-width:3"
       inkscape:connector-curvature="0"
       d="m 773.42325,235.9308 c 0,18.466 0,41.023 0,61.56"
       id="path3568" />
    <polygon
       transform="translate(735.42325,551.6838)"
       style="fill:#000000;stroke:#000000"
       points="31.0001,-254.169 45.0001,-254.169 45.0001,-254.169 38,-234.169 "
       id="polygon3570" />
    <text
       style="font-size:44.79999924px;font-style:normal;font-variant:normal;font-weight:normal;font-stretch:normal;text-anchor:middle;font-family:Arial;-inkscape-font-specification:Arial"
       x="788.72314"
       y="289.68381"
       font-size="40.00"
       id="text3572">d</text>
    <path
       style="fill:none;stroke:#000000;stroke-width:3"
       inkscape:connector-curvature="0"
       d="m 881.71825,227.0318 c -19.876,23.613 -48.1296,57.177 -70.7944,84.102"
       id="path3577" />
    <polygon
       transform="translate(735.42325,551.6838)"
       style="fill:#000000;stroke:#000000"
       points="70.0968,-245 80.8073,-235.984 80.8073,-235.984 62.5723,-225.191 "
       id="polygon3579" />
    <text
       style="font-size:44.79999924px;font-style:normal;font-variant:normal;font-weight:normal;font-stretch:normal;text-anchor:middle;font-family:Arial;-inkscape-font-specification:Arial"
       x="864.92322"
       y="289.68381"
       font-size="40.00"
       id="text3581">a</text>
    <ellipse
       transform="translate(735.42325,551.6838)"
       d="m 209.1838,-196 c 0,21.08833 -17.09547,38.1838 -38.1838,38.1838 -21.08833,0 -38.1838,-17.09547 -38.1838,-38.1838 0,-21.08833 17.09547,-38.1838 38.1838,-38.1838 21.08833,0 38.1838,17.09547 38.1838,38.1838 z"
       style="fill:none;stroke:#000000;stroke-width:3"
       sodipodi:ry="38.1838"
       sodipodi:rx="38.1838"
       sodipodi:cy="-196"
       sodipodi:cx="171"
       cx="171"
       cy="-196"
       rx="38.1838"
       ry="38.1838"
       id="ellipse3586" />
    <text
       style="font-size:44.79999924px;font-style:normal;font-variant:normal;font-weight:normal;font-stretch:normal;text-anchor:middle;font-family:Arial;-inkscape-font-specification:Arial"
       x="906.53259"
       y="371.51038"
       font-size="40.00"
       id="text3588">0 6</text>
    <path
       style="fill:none;stroke:#000000;stroke-width:3"
       inkscape:connector-curvature="0"
       d="m 906.42325,235.9308 c 0,18.466 0,41.023 0,61.56"
       id="path3593" />
    <polygon
       transform="translate(735.42325,551.6838)"
       style="fill:#000000;stroke:#000000"
       points="164,-254.169 178,-254.169 178,-254.169 171,-234.169 "
       id="polygon3595" />
    <text
       style="font-size:44.79999924px;font-style:normal;font-variant:normal;font-weight:normal;font-stretch:normal;text-anchor:middle;font-family:Arial;-inkscape-font-specification:Arial"
       x="917.72314"
       y="289.68381"
       font-size="40.00"
       id="text3597">f</text>
    <path
       style="fill:none;stroke:#000000;stroke-width:3"
       inkscape:connector-curvature="0"
       d="m 808.69625,341.0598 c 11.5389,0.075 20.727,4.95 20.727,14.624 0,2.721 -0.7268,5.062 -2.0283,7.023"
       id="path3602" />
    <polygon
       transform="translate(735.42325,551.6838)"
       style="fill:#000000;stroke:#000000"
       points="89.1649,-195.392 94.4368,-182.422 94.4368,-182.422 73.273,-181.376 "
       id="polygon3604" />
    <text
       style="font-size:44.79999924px;font-style:normal;font-variant:normal;font-weight:normal;font-stretch:normal;text-anchor:middle;font-family:Arial;-inkscape-font-specification:Arial"
       x="844.72314"
       y="368.68381"
       font-size="40.00"
       id="text3606">
      <tspan
         style="font-style:normal;font-variant:normal;font-weight:normal;font-stretch:normal;font-family:FreeSans;-inkscape-font-specification:FreeSans"
         id="tspan3081">τ</tspan>
    </text>
    <ellipse
       transform="translate(735.42325,551.6838)"
       d="m 184.1838,-38 c 0,21.08833 -17.09547,38.18379974 -38.1838,38.18379974 -21.08833,0 -38.1838,-17.09546974 -38.1838,-38.18379974 0,-21.08833 17.09547,-38.1838 38.1838,-38.1838 21.08833,0 38.1838,17.09547 38.1838,38.1838 z"
       style="fill:none;stroke:#000000;stroke-width:3"
       sodipodi:ry="38.1838"
       sodipodi:rx="38.1838"
       sodipodi:cy="-38"
       sodipodi:cx="146"
       cx="146"
       cy="-38"
       rx="38.1838"
       ry="38.1838"
       id="ellipse3611" />
    <text
       style="font-size:44.79999924px;font-style:normal;font-variant:normal;font-weight:normal;font-stretch:normal;text-anchor:middle;font-family:Arial;-inkscape-font-specification:Arial"
       x="880.02325"
       y="529.51038"
       font-size="40.00"
       id="text3613">1 6</text>
    <path
       style="fill:none;stroke:#000000;stroke-width:3"
       inkscape:connector-curvature="0"
       d="m 796.26335,386.2908 c 5.9923,8.189 12.39,17.077 18.1599,25.393 11.7702,16.964 24.288,35.794 35.279,52.6102"
       id="path3618" />
    <polygon
       transform="translate(735.42325,551.6838)"
       style="fill:#000000;stroke:#000000"
       points="108.526,-83.3963 120.267,-91.0226 120.267,-91.0226 125.291,-70.4372 "
       id="polygon3620" />
    <text
       style="font-size:44.79999924px;font-style:normal;font-variant:normal;font-weight:normal;font-stretch:normal;text-anchor:middle;font-family:Arial;-inkscape-font-specification:Arial"
       x="849.92322"
       y="447.68381"
       font-size="40.00"
       id="text3622">f</text>
    <ellipse
       transform="translate(735.42325,551.6838)"
       d="M 76.1838,-38 C 76.1838,-16.91167 59.08833,0.18379974 38,0.18379974 16.91167,0.18379974 -0.18379974,-16.91167 -0.18379974,-38 -0.18379974,-59.08833 16.91167,-76.1838 38,-76.1838 c 21.08833,0 38.1838,17.09547 38.1838,38.1838 z"
       style="fill:none;stroke:#000000;stroke-width:3"
       sodipodi:ry="38.1838"
       sodipodi:rx="38.1838"
       sodipodi:cy="-38"
       sodipodi:cx="38"
       cx="38"
       cy="-38"
       rx="38.1838"
       ry="38.1838"
       id="ellipse3627" />
    <text
       style="font-size:44.79999924px;font-style:normal;font-variant:normal;font-weight:normal;font-stretch:normal;text-anchor:middle;font-family:Arial;-inkscape-font-specification:Arial"
       x="773.6748"
       y="529.51038"
       font-size="40.00"
       id="text3629">2 5</text>
    <path
       style="fill:none;stroke:#000000;stroke-width:3"
       inkscape:connector-curvature="0"
       d="m 773.42325,393.9308 c 0,18.466 0,41.023 0,61.56"
       id="path3634" />
    <polygon
       transform="translate(735.42325,551.6838)"
       style="fill:#000000;stroke:#000000"
       points="31.0001,-96.1687 45.0001,-96.1687 45.0001,-96.1687 38,-76.1687 "
       id="polygon3636" />
    <text
       style="font-size:44.79999924px;font-style:normal;font-variant:normal;font-weight:normal;font-stretch:normal;text-anchor:middle;font-family:Arial;-inkscape-font-specification:Arial"
       x="790.32324"
       y="447.68381"
       font-size="40.00"
       id="text3638">
      <tspan
         style="font-style:normal;font-variant:normal;font-weight:normal;font-stretch:normal;font-family:FreeSans;-inkscape-font-specification:FreeSans"
         id="tspan3079">τ</tspan>
    </text>
    <path
       style="fill:none;stroke:#000000;stroke-width:3"
       inkscape:connector-curvature="0"
       d="m 900.43525,393.5288 c -2.969,18.761 -6.617,41.818 -9.921,62.7009"
       id="path3643" />
    <polygon
       transform="translate(735.42325,551.6838)"
       style="fill:#000000;stroke:#000000"
       points="148.151,-96.3844 161.979,-94.1964 161.979,-94.1964 151.939,-75.5361 "
       id="polygon3645" />
    <text
       style="font-size:44.79999924px;font-style:normal;font-variant:normal;font-weight:normal;font-stretch:normal;text-anchor:middle;font-family:Arial;-inkscape-font-specification:Arial"
       x="909.12317"
       y="447.68381"
       font-size="40.00"
       id="text3647">a</text>
    <path
       style="fill:none;stroke:#000000;stroke-width:3"
       inkscape:connector-curvature="0"
       d="m 916.69625,499.0597 c 11.539,0.0756 20.727,4.9503 20.727,14.6241 0,2.7208 -0.727,5.0619 -2.028,7.0234"
       id="path3652" />
    <polygon
       transform="translate(735.42325,551.6838)"
       style="fill:#000000;stroke:#000000"
       points="197.165,-37.3919 202.437,-24.4224 202.437,-24.4224 181.273,-23.3759 "
       id="polygon3654" />
    <text
       style="font-size:44.79999924px;font-style:normal;font-variant:normal;font-weight:normal;font-stretch:normal;text-anchor:middle;font-family:Arial;-inkscape-font-specification:Arial"
       x="952.72314"
       y="526.68384"
       font-size="40.00"
       id="text3656">
      <tspan
         style="font-style:normal;font-variant:normal;font-weight:normal;font-stretch:normal;font-family:FreeSans;-inkscape-font-specification:FreeSans"
         id="tspan3085">τ</tspan>
    </text>
  </g>
  <g
     id="g4839"
     transform="translate(202.21253,97.873442)">
    <ellipse
       transform="translate(-200.52873,374.81035)"
       d="m 76.1838,-354 c 0,21.08833 -17.09547,38.1838 -38.1838,38.1838 -21.08833,0 -38.18379974,-17.09547 -38.18379974,-38.1838 0,-21.08833 17.09546974,-38.1838 38.18379974,-38.1838 21.08833,0 38.1838,17.09547 38.1838,38.1838 z"
       style="fill:#000000;stroke:#000000;stroke-width:3"
       sodipodi:ry="38.1838"
       sodipodi:rx="38.1838"
       sodipodi:cy="-354"
       sodipodi:cx="38"
       cx="38"
       cy="-354"
       rx="38.1838"
       ry="38.1838"
       id="ellipse4501" />
    <text
       style="font-size:44.79999924px;font-style:normal;font-variant:normal;font-weight:normal;font-stretch:normal;text-anchor:middle;fill:#ffffff;font-family:Arial;-inkscape-font-specification:Arial"
       x="-162.37561"
       y="36.636909"
       font-size="40.00"
       id="text4503">0</text>
    <ellipse
       transform="translate(-200.52873,374.81035)"
       d="m 76.1838,-196 c 0,21.08833 -17.09547,38.1838 -38.1838,38.1838 -21.08833,0 -38.18379974,-17.09547 -38.18379974,-38.1838 0,-21.08833 17.09546974,-38.1838 38.18379974,-38.1838 21.08833,0 38.1838,17.09547 38.1838,38.1838 z"
       style="fill:none;stroke:#000000;stroke-width:3"
       sodipodi:ry="38.1838"
       sodipodi:rx="38.1838"
       sodipodi:cy="-196"
       sodipodi:cx="38"
       cx="38"
       cy="-196"
       rx="38.1838"
       ry="38.1838"
       id="ellipse4508" />
    <text
       style="font-size:44.79999924px;font-style:normal;font-variant:normal;font-weight:normal;font-stretch:normal;text-anchor:middle;font-family:Arial;-inkscape-font-specification:Arial"
       x="-160.84436"
       y="194.91034"
       font-size="40.00"
       id="text4510">1</text>
    <path
       style="fill:none;stroke:#000000;stroke-width:3"
       inkscape:connector-curvature="0"
       d="m -162.52873,59.057349 c 0,18.466 0,41.023001 0,61.560001"
       id="path4515" />
    <polygon
       transform="translate(-200.52873,374.81035)"
       style="fill:#000000;stroke:#000000"
       points="38,-234.169 31.0001,-254.169 45.0001,-254.169 45.0001,-254.169 "
       id="polygon4517" />
    <text
       style="font-size:44.79999924px;font-style:normal;font-variant:normal;font-weight:normal;font-stretch:normal;text-anchor:middle;font-family:Arial;-inkscape-font-specification:Arial"
       x="-145.02869"
       y="112.81035"
       font-size="40.00"
       id="text4519">a</text>
    <path
       style="fill:none;stroke:#000000;stroke-width:3"
       inkscape:connector-curvature="0"
       d="m -127.25573,164.18635 c 11.5389,0.075 20.727,4.95 20.727,14.624 0,2.721 -0.7268,5.062 -2.0283,7.023"
       id="path4524" />
    <polygon
       transform="translate(-200.52873,374.81035)"
       style="fill:#000000;stroke:#000000"
       points="73.273,-181.376 89.1649,-195.392 94.4368,-182.422 94.4368,-182.422 "
       id="polygon4526" />
    <text
       style="font-size:44.79999924px;font-style:normal;font-variant:normal;font-weight:normal;font-stretch:normal;text-anchor:middle;font-family:Arial;-inkscape-font-specification:Arial"
       x="-89.628708"
       y="191.81035"
       font-size="40.00"
       id="text4528">b</text>
    <ellipse
       transform="translate(-200.52873,374.81035)"
       d="M 76.1838,-38 C 76.1838,-16.91167 59.08833,0.18379974 38,0.18379974 16.91167,0.18379974 -0.18379974,-16.91167 -0.18379974,-38 -0.18379974,-59.08833 16.91167,-76.1838 38,-76.1838 c 21.08833,0 38.1838,17.09547 38.1838,38.1838 z"
       style="fill:none;stroke:#000000;stroke-width:3"
       sodipodi:ry="38.1838"
       sodipodi:rx="38.1838"
       sodipodi:cy="-38"
       sodipodi:cx="38"
       cx="38"
       cy="-38"
       rx="38.1838"
       ry="38.1838"
       id="ellipse4533" />
    <text
       style="font-size:44.79999924px;font-style:normal;font-variant:normal;font-weight:normal;font-stretch:normal;text-anchor:middle;font-family:Arial;-inkscape-font-specification:Arial"
       x="-161.9928"
       y="352.91034"
       font-size="40.00"
       id="text4535">2</text>
    <path
       style="fill:none;stroke:#000000;stroke-width:3"
       inkscape:connector-curvature="0"
       d="m -162.52873,217.05735 c 0,18.466 0,41.023 0,61.56"
       id="path4540" />
    <polygon
       transform="translate(-200.52873,374.81035)"
       style="fill:#000000;stroke:#000000"
       points="38,-76.1687 31.0001,-96.1687 45.0001,-96.1687 45.0001,-96.1687 "
       id="polygon4542" />
    <text
       style="font-size:44.79999924px;font-style:normal;font-variant:normal;font-weight:normal;font-stretch:normal;text-anchor:middle;font-family:Arial;-inkscape-font-specification:Arial"
       x="-146.62869"
       y="270.81036"
       font-size="40.00"
       id="text4544">c</text>
  </g>
  <text
     sodipodi:linespacing="125%"
     id="text4079"
     y="94.6213"
     x="348.54092"
     style="font-size:38.39999771px;font-style:normal;font-variant:normal;font-weight:normal;font-stretch:normal;text-align:justify;line-height:125%;letter-spacing:0px;word-spacing:0px;text-anchor:start;fill:#000000;fill-opacity:1;stroke:none;font-family:Arial;-inkscape-font-specification:Arial"
     xml:space="preserve"><tspan
       style="font-size:38.39999771px;font-style:normal;font-variant:normal;font-weight:normal;font-stretch:normal;font-family:Arial Unicode MS;-inkscape-font-specification:Arial Unicode MS"
       y="94.6213"
       x="348.54092"
       id="tspan4081"
       sodipodi:role="line">V = {</tspan><tspan
       style="font-size:38.39999771px;font-style:normal;font-variant:normal;font-weight:normal;font-stretch:normal;font-family:Arial Unicode MS;-inkscape-font-specification:Arial Unicode MS"
       y="142.62129"
       x="348.54092"
       sodipodi:role="line"
       id="tspan3069"><tspan
   style="font-weight:bold"
   id="tspan3080">  〈〈</tspan>a, • <tspan
   style="font-weight:bold"
   id="tspan3099">〉</tspan>, a<tspan
   style="font-weight:bold"
   id="tspan3101">〉</tspan>,</tspan><tspan
       style="font-size:38.39999771px;font-style:normal;font-variant:normal;font-weight:normal;font-stretch:normal;font-family:Arial Unicode MS;-inkscape-font-specification:Arial Unicode MS"
       y="190.62129"
       x="348.54092"
       sodipodi:role="line"
       id="tspan4085"><tspan
   style="font-weight:bold"
   id="tspan3082">  〈〈</tspan>b, • <tspan
   style="font-weight:bold"
   id="tspan3097">〉</tspan>, b<tspan
   style="font-weight:bold"
   id="tspan3103">〉</tspan>,</tspan><tspan
       style="font-size:38.39999771px;font-style:normal;font-variant:normal;font-weight:normal;font-stretch:normal;font-family:Arial Unicode MS;-inkscape-font-specification:Arial Unicode MS"
       id="tspan4097"
       y="238.62129"
       x="348.54092"
       sodipodi:role="line"><tspan
   style="font-weight:bold"
   id="tspan3084">  〈〈</tspan> •, d<tspan
   style="font-weight:bold"
   id="tspan3095">〉</tspan>, d<tspan
   style="font-weight:bold"
   id="tspan3105">〉</tspan>,</tspan><tspan
       style="font-size:38.39999771px;font-style:normal;font-variant:normal;font-weight:normal;font-stretch:normal;font-family:Arial Unicode MS;-inkscape-font-specification:Arial Unicode MS"
       y="286.62128"
       x="348.54092"
       sodipodi:role="line"
       id="tspan3073"><tspan
   style="font-weight:bold"
   id="tspan3086">  〈〈</tspan> •, f <tspan
   style="font-weight:bold"
   id="tspan3093">〉</tspan>, f<tspan
   style="font-weight:bold"
   id="tspan3107">〉</tspan>,</tspan><tspan
       style="font-size:38.39999771px;font-style:normal;font-variant:normal;font-weight:normal;font-stretch:normal;font-family:Arial Unicode MS;-inkscape-font-specification:Arial Unicode MS"
       y="334.62128"
       x="348.54092"
       sodipodi:role="line"
       id="tspan3090"><tspan
   style="font-weight:bold"
   id="tspan3088">  〈〈</tspan>c, e<tspan
   style="font-weight:bold"
   id="tspan3091">〉</tspan>, ce<tspan
   style="font-weight:bold"
   id="tspan3109">〉</tspan></tspan><tspan
       style="font-size:38.39999771px;font-style:normal;font-variant:normal;font-weight:normal;font-stretch:normal;font-family:Arial Unicode MS;-inkscape-font-specification:Arial Unicode MS"
       y="382.62128"
       x="348.54092"
       sodipodi:role="line"
       id="tspan3071">}</tspan><tspan
       style="font-size:38.39999771px;font-style:normal;font-variant:normal;font-weight:normal;font-stretch:normal;font-family:Arial;-inkscape-font-specification:Arial"
       y="430.62128"
       x="348.54092"
       sodipodi:role="line"
       id="tspan3077" /><tspan
       style="font-size:38.39999771px;font-style:normal;font-variant:normal;font-weight:normal;font-stretch:normal;font-family:Arial;-inkscape-font-specification:Arial"
       y="478.09528"
       x="348.54092"
       sodipodi:role="line"
       id="tspan3075">h = {b, ce}</tspan><tspan
       id="tspan4083"
       y="526.09528"
       x="348.54092"
       sodipodi:role="line"
       style="font-size:38.39999771px;font-style:normal;font-variant:normal;font-weight:normal;font-stretch:normal;font-family:Arial;-inkscape-font-specification:Arial" /></text>
</svg>
