<?xml version="1.0" encoding="UTF-8" standalone="no"?>
<!-- Created with Inkscape (http://www.inkscape.org/) -->

<svg
   xmlns:dc="http://purl.org/dc/elements/1.1/"
   xmlns:cc="http://creativecommons.org/ns#"
   xmlns:rdf="http://www.w3.org/1999/02/22-rdf-syntax-ns#"
   xmlns:svg="http://www.w3.org/2000/svg"
   xmlns="http://www.w3.org/2000/svg"
   xmlns:sodipodi="http://sodipodi.sourceforge.net/DTD/sodipodi-0.dtd"
   xmlns:inkscape="http://www.inkscape.org/namespaces/inkscape"
   width="1359.2584"
   height="659.76532"
   id="svg2"
   version="1.1"
   inkscape:version="0.48.1 "
   sodipodi:docname="matching.svg">
  <defs
     id="defs4">
    <marker
       inkscape:stockid="Arrow1Lend"
       orient="auto"
       refY="0"
       refX="0"
       id="Arrow1Lend"
       style="overflow:visible">
      <path
         id="path4840"
         d="M 0,0 5,-5 -12.5,0 5,5 0,0 z"
         style="fill-rule:evenodd;stroke:#000000;stroke-width:1pt;marker-start:none"
         transform="matrix(-0.8,0,0,-0.8,-10,0)"
         inkscape:connector-curvature="0" />
    </marker>
  </defs>
  <sodipodi:namedview
     id="base"
     pagecolor="#ffffff"
     bordercolor="#666666"
     borderopacity="1.0"
     inkscape:pageopacity="0.0"
     inkscape:pageshadow="2"
     inkscape:zoom="0.49497476"
     inkscape:cx="753.02391"
     inkscape:cy="267.32268"
     inkscape:document-units="px"
     inkscape:current-layer="layer1"
     showgrid="false"
     fit-margin-top="0"
     fit-margin-left="0"
     fit-margin-right="0"
     fit-margin-bottom="0"
     inkscape:window-width="1680"
     inkscape:window-height="998"
     inkscape:window-x="-8"
     inkscape:window-y="-8"
     inkscape:window-maximized="1">
    <inkscape:grid
       type="xygrid"
       id="grid5281"
       empspacing="5"
       visible="true"
       enabled="true"
       snapvisiblegridlinesonly="true" />
  </sodipodi:namedview>
  <metadata
     id="metadata7">
    <rdf:RDF>
      <cc:Work
         rdf:about="">
        <dc:format>image/svg+xml</dc:format>
        <dc:type
           rdf:resource="http://purl.org/dc/dcmitype/StillImage" />
        <dc:title />
      </cc:Work>
    </rdf:RDF>
  </metadata>
  <g
     inkscape:label="Layer 1"
     inkscape:groupmode="layer"
     id="layer1"
     transform="translate(356.82569,-100.89289)">
    <ellipse
       id="ellipse3169"
       ry="39.598"
       rx="39.096699"
       cy="-532"
       cx="87"
       sodipodi:cx="87"
       sodipodi:cy="-532"
       sodipodi:rx="39.096699"
       sodipodi:ry="39.598"
       style="fill:#000000;stroke:#000000;stroke-width:3"
       d="m 126.0967,-532 c 0,21.86937 -17.50419,39.598 -39.0967,39.598 -21.59251,0 -39.096699,-17.72863 -39.096699,-39.598 0,-21.86937 17.504189,-39.598 39.096699,-39.598 21.59251,0 39.0967,17.72863 39.0967,39.598 z"
       transform="matrix(1.25,0,0,1.25,-354.82982,819.2857)" />
    <text
       id="text3171"
       font-size="40.00"
       y="174.06891"
       x="-245.88841"
       style="font-size:56px;font-style:normal;font-variant:normal;font-weight:normal;font-stretch:normal;text-anchor:middle;fill:#ffffff;font-family:Arial;-inkscape-font-specification:Arial">0</text>
    <ellipse
       id="ellipse3176"
       ry="39.598"
       rx="39.096699"
       cy="-368"
       cx="87"
       sodipodi:cx="87"
       sodipodi:cy="-368"
       sodipodi:rx="39.096699"
       sodipodi:ry="39.598"
       style="fill:none;stroke:#000000;stroke-width:3"
       d="m 126.0967,-368 c 0,21.86937 -17.50419,39.598 -39.0967,39.598 -21.59251,0 -39.096699,-17.72863 -39.096699,-39.598 0,-21.86937 17.504189,-39.598 39.096699,-39.598 21.59251,0 39.0967,17.72863 39.0967,39.598 z"
       transform="matrix(1.25,0,0,1.25,-354.82982,797.2857)" />
    <text
       id="text3178"
       font-size="40.00"
       y="357.41071"
       x="-243.97435"
       style="font-size:56px;font-style:normal;font-variant:normal;font-weight:normal;font-stretch:normal;text-anchor:middle;font-family:Arial;-inkscape-font-specification:Arial">1</text>
    <path
       id="path3183"
       d="m -246.07982,181.9107 c 0,24.21 0,53.83875 0,80.7075"
       inkscape:connector-curvature="0"
       style="fill:none;stroke:#000000;stroke-width:3.75" />
    <polygon
       id="polygon3185"
       points="87,-407.618 80.0001,-427.618 94.0001,-427.618 94.0001,-427.618 "
       style="fill:#000000;stroke:#000000"
       transform="matrix(1.25,0,0,1.25,-354.82982,797.2857)" />
    <ellipse
       id="ellipse3192"
       ry="39.598"
       rx="39.096699"
       cy="-204"
       cx="87"
       sodipodi:cx="87"
       sodipodi:cy="-204"
       sodipodi:rx="39.096699"
       sodipodi:ry="39.598"
       style="fill:none;stroke:#000000;stroke-width:3"
       d="m 126.0967,-204 c 0,21.86937 -17.50419,39.598 -39.0967,39.598 -21.59251,0 -39.096699,-17.72863 -39.096699,-39.598 0,-21.86937 17.504189,-39.598 39.096699,-39.598 21.59251,0 39.0967,17.72863 39.0967,39.598 z"
       transform="matrix(1.25,0,0,1.25,-354.82982,777.2857)" />
    <text
       id="text3194"
       font-size="40.00"
       y="542.41071"
       x="-245.4099"
       style="font-size:56px;font-style:normal;font-variant:normal;font-weight:normal;font-stretch:normal;text-anchor:middle;font-family:Arial;-inkscape-font-specification:Arial">2</text>
    <path
       id="path3199"
       d="m -246.07982,387.65296 c 0,17.9879 0,40.0019 0,59.96524"
       inkscape:connector-curvature="0"
       style="fill:none;stroke:#000000;stroke-width:3.75" />
    <polygon
       id="polygon3201"
       points="94.0001,-263.618 94.0001,-263.618 87,-243.618 80.0001,-263.618 "
       style="fill:#000000;stroke:#000000"
       transform="matrix(1.25,0,0,1.25,-354.82982,777.2857)" />
    <ellipse
       id="ellipse3208"
       ry="39.598"
       rx="39.096699"
       cy="-40"
       cx="39"
       sodipodi:cx="39"
       sodipodi:cy="-40"
       sodipodi:rx="39.096699"
       sodipodi:ry="39.598"
       style="fill:none;stroke:#000000;stroke-width:3"
       d="M 78.096699,-40 C 78.096699,-18.130629 60.59251,-0.40200043 39,-0.40200043 17.40749,-0.40200043 -0.09669876,-18.130629 -0.09669876,-40 -0.09669876,-61.869371 17.40749,-79.598 39,-79.598 c 21.59251,0 39.096699,17.728629 39.096699,39.598 z"
       transform="matrix(1.25,0,0,1.25,-354.82982,759.2857)" />
    <text
       id="text3210"
       font-size="40.00"
       y="729.05524"
       x="-305.97046"
       style="font-size:56px;font-style:normal;font-variant:normal;font-weight:normal;font-stretch:normal;text-anchor:middle;font-family:Arial;-inkscape-font-specification:Arial">3</text>
    <path
       id="path3215"
       d="m -259.99582,569.83195 c -7.4325,25.395 -17.74527,46.06707 -26.04265,74.41595"
       inkscape:connector-curvature="0"
       style="fill:none;stroke:#000000;stroke-width:3.75"
       sodipodi:nodetypes="cc" />
    <polygon
       id="polygon3217"
       points="62.4917,-95.343 50.1555,-78.1146 49.0554,-99.2756 62.4917,-95.343 "
       style="fill:#000000;stroke:#000000"
       transform="matrix(1.25,0,0,1.25,-354.82982,759.2857)" />
    <ellipse
       id="ellipse3224"
       ry="39.598"
       rx="39.096699"
       cy="-40"
       cx="135"
       sodipodi:cx="135"
       sodipodi:cy="-40"
       sodipodi:rx="39.096699"
       sodipodi:ry="39.598"
       style="fill:none;stroke:#000000;stroke-width:3"
       d="m 174.0967,-40 c 0,21.869371 -17.50419,39.59799957 -39.0967,39.59799957 -21.59251,0 -39.096699,-17.72862857 -39.096699,-39.59799957 0,-21.869371 17.504189,-39.598 39.096699,-39.598 21.59251,0 39.0967,17.728629 39.0967,39.598 z"
       transform="matrix(1.25,0,0,1.25,-354.82982,759.2857)" />
    <text
       id="text3226"
       font-size="40.00"
       y="729.32867"
       x="-185.0681"
       style="font-size:56px;font-style:normal;font-variant:normal;font-weight:normal;font-stretch:normal;text-anchor:middle;font-family:Arial;-inkscape-font-specification:Arial">4</text>
    <path
       id="path3231"
       d="m -232.16382,569.83195 c 7.43275,25.395 18.75556,46.06707 27.05306,74.41595"
       inkscape:connector-curvature="0"
       style="fill:none;stroke:#000000;stroke-width:3.75"
       sodipodi:nodetypes="cc" />
    <polygon
       id="polygon3233"
       points="124.945,-99.2756 123.845,-78.1146 111.508,-95.343 124.945,-99.2756 "
       style="fill:#000000;stroke:#000000"
       transform="matrix(1.25,0,0,1.25,-354.82982,759.2857)" />
    <text
       xml:space="preserve"
       style="font-size:56px;font-style:normal;font-variant:normal;font-weight:normal;font-stretch:normal;text-align:justify;line-height:125%;letter-spacing:0px;word-spacing:0px;text-anchor:start;fill:#000000;fill-opacity:1;stroke:none;font-family:Arial;-inkscape-font-specification:Arial"
       x="-234.45482"
       y="250.16071"
       id="text3130"
       sodipodi:linespacing="125%"><tspan
         sodipodi:role="line"
         id="tspan3132"
         x="-234.45482"
         y="250.16071"
         style="font-size:56px;font-style:normal;font-variant:normal;font-weight:normal;font-stretch:normal;font-family:Arial;-inkscape-font-specification:Arial">a</tspan></text>
    <text
       sodipodi:linespacing="125%"
       id="text3134"
       y="434.10999"
       x="-234.53603"
       style="font-size:56px;font-style:normal;font-variant:normal;font-weight:normal;font-stretch:normal;text-align:justify;line-height:125%;letter-spacing:0px;word-spacing:0px;text-anchor:start;fill:#000000;fill-opacity:1;stroke:none;font-family:Arial;-inkscape-font-specification:Arial"
       xml:space="preserve"><tspan
         style="font-size:56px;font-style:normal;font-variant:normal;font-weight:normal;font-stretch:normal;font-family:Arial;-inkscape-font-specification:Arial"
         y="434.10999"
         x="-234.53603"
         id="tspan3136"
         sodipodi:role="line">a</tspan></text>
    <text
       xml:space="preserve"
       style="font-size:56px;font-style:normal;font-variant:normal;font-weight:normal;font-stretch:normal;text-align:justify;line-height:125%;letter-spacing:0px;word-spacing:0px;text-anchor:start;fill:#000000;fill-opacity:1;stroke:none;font-family:Arial;-inkscape-font-specification:Arial"
       x="-264.90155"
       y="622.0575"
       id="text3144"
       sodipodi:linespacing="125%"><tspan
         sodipodi:role="line"
         id="tspan3146"
         x="-264.90155"
         y="622.0575"
         style="font-size:56px;font-style:normal;font-variant:normal;font-weight:normal;font-stretch:normal;font-family:Arial;-inkscape-font-specification:Arial">a</tspan></text>
    <text
       xml:space="preserve"
       style="font-size:56px;font-style:normal;font-variant:normal;font-weight:normal;font-stretch:normal;text-align:justify;line-height:125%;letter-spacing:0px;word-spacing:0px;text-anchor:start;fill:#000000;fill-opacity:1;stroke:none;font-family:Arial;-inkscape-font-specification:Arial"
       x="-204.89131"
       y="626.61749"
       id="text3148"
       sodipodi:linespacing="125%"><tspan
         sodipodi:role="line"
         id="tspan3150"
         x="-204.89131"
         y="626.61749"
         style="font-size:56px;font-style:normal;font-variant:normal;font-weight:normal;font-stretch:normal;font-family:Arial;-inkscape-font-specification:Arial">b</tspan></text>
    <ellipse
       d="m 126.0967,-532 c 0,21.86937 -17.50419,39.598 -39.0967,39.598 -21.59251,0 -39.096699,-17.72863 -39.096699,-39.598 0,-21.86937 17.504189,-39.598 39.096699,-39.598 21.59251,0 39.0967,17.72863 39.0967,39.598 z"
       style="fill:#000000;stroke:#000000;stroke-width:3"
       sodipodi:ry="39.598"
       sodipodi:rx="39.096699"
       sodipodi:cy="-532"
       sodipodi:cx="87"
       cx="87"
       cy="-532"
       rx="39.096699"
       ry="39.598"
       id="ellipse3184"
       transform="matrix(1.25,0,0,1.25,782.93682,817.26539)" />
    <text
       style="font-size:56px;font-style:normal;font-variant:normal;font-weight:normal;font-stretch:normal;text-anchor:middle;fill:#ffffff;font-family:Arial;-inkscape-font-specification:Arial"
       x="891.87823"
       y="172.0486"
       font-size="40.00"
       id="text3186">0</text>
    <path
       style="fill:none;stroke:#000000;stroke-width:3.75"
       inkscape:connector-curvature="0"
       d="m 891.68681,179.89039 c 0,24.21 0,53.83875 0,80.7075"
       id="path3197" />
    <polygon
       transform="matrix(1.25,0,0,1.25,782.93682,795.26539)"
       style="fill:#000000;stroke:#000000"
       points="80.0001,-427.618 94.0001,-427.618 94.0001,-427.618 87,-407.618 "
       id="polygon3199" />
    <ellipse
       d="m 126.0967,-204 c 0,21.86937 -17.50419,39.598 -39.0967,39.598 -21.59251,0 -39.096699,-17.72863 -39.096699,-39.598 0,-21.86937 17.504189,-39.598 39.096699,-39.598 21.59251,0 39.0967,17.72863 39.0967,39.598 z"
       style="fill:none;stroke:#000000;stroke-width:3"
       sodipodi:ry="39.598"
       sodipodi:rx="39.096699"
       sodipodi:cy="-204"
       sodipodi:cx="87"
       cx="87"
       cy="-204"
       rx="39.096699"
       ry="39.598"
       id="ellipse3205"
       transform="matrix(1.25,0,0,1.25,782.93682,775.26539)" />
    <text
       style="font-size:56px;font-style:normal;font-variant:normal;font-weight:normal;font-stretch:normal;text-anchor:middle;font-family:Arial;-inkscape-font-specification:Arial"
       x="892.35675"
       y="540.39038"
       font-size="40.00"
       id="text3207">2</text>
    <path
       style="fill:none;stroke:#000000;stroke-width:3.75"
       inkscape:connector-curvature="0"
       d="m 891.68681,386.62037 c 0,17.69162 0,39.34301 0,58.97752"
       id="path3209" />
    <polygon
       transform="matrix(1.25,0,0,1.25,782.93682,775.26539)"
       style="fill:#000000;stroke:#000000"
       points="94.0001,-263.618 87,-243.618 80.0001,-263.618 94.0001,-263.618 "
       id="polygon3211" />
    <ellipse
       d="M 78.096699,-40 C 78.096699,-18.130629 60.59251,-0.40200043 39,-0.40200043 17.40749,-0.40200043 -0.09669876,-18.130629 -0.09669876,-40 -0.09669876,-61.869371 17.40749,-79.598 39,-79.598 c 21.59251,0 39.096699,17.728629 39.096699,39.598 z"
       style="fill:none;stroke:#000000;stroke-width:3"
       sodipodi:ry="39.598"
       sodipodi:rx="39.096699"
       sodipodi:cy="-40"
       sodipodi:cx="39"
       cx="39"
       cy="-40"
       rx="39.096699"
       ry="39.598"
       id="ellipse3217"
       transform="matrix(1.25,0,0,1.25,774.93682,755.26539)" />
    <text
       style="font-size:56px;font-style:normal;font-variant:normal;font-weight:normal;font-stretch:normal;text-anchor:middle;font-family:Arial;-inkscape-font-specification:Arial"
       x="823.7962"
       y="725.03491"
       font-size="40.00"
       id="text3219">3</text>
    <path
       style="fill:none;stroke:#000000;stroke-width:3.75"
       inkscape:connector-curvature="0"
       d="m 869.77081,565.81164 c -7.43249,25.395 -17.74526,44.04677 -26.04264,72.39565"
       id="path3221"
       sodipodi:nodetypes="cc" />
    <polygon
       transform="matrix(1.25,0,0,1.25,774.93682,755.26539)"
       style="fill:#000000;stroke:#000000"
       points="49.0554,-99.2756 62.4917,-95.343 62.4917,-95.343 50.1555,-78.1146 "
       id="polygon3223" />
    <ellipse
       d="m 174.0967,-40 c 0,21.869371 -17.50419,39.59799957 -39.0967,39.59799957 -21.59251,0 -39.096699,-17.72862857 -39.096699,-39.59799957 0,-21.869371 17.504189,-39.598 39.096699,-39.598 21.59251,0 39.0967,17.728629 39.0967,39.598 z"
       style="fill:none;stroke:#000000;stroke-width:3"
       sodipodi:ry="39.598"
       sodipodi:rx="39.096699"
       sodipodi:cy="-40"
       sodipodi:cx="135"
       cx="135"
       cy="-40"
       rx="39.096699"
       ry="39.598"
       id="ellipse3229"
       transform="matrix(1.25,0,0,1.25,782.93682,757.26539)" />
    <text
       style="font-size:56px;font-style:normal;font-variant:normal;font-weight:normal;font-stretch:normal;text-anchor:middle;font-family:Arial;-inkscape-font-specification:Arial"
       x="952.69855"
       y="727.30835"
       font-size="40.00"
       id="text3231">4</text>
    <path
       style="fill:none;stroke:#000000;stroke-width:3.75"
       inkscape:connector-curvature="0"
       d="m 905.60281,567.81164 c 7.4328,25.395 18.75561,49.09753 27.05311,77.44641"
       id="path3233"
       sodipodi:nodetypes="cc" />
    <polygon
       transform="matrix(1.25,0,0,1.25,782.93682,757.26539)"
       style="fill:#000000;stroke:#000000"
       points="123.845,-78.1146 111.508,-95.343 124.945,-99.2756 124.945,-99.2756 "
       id="polygon3235" />
    <text
       sodipodi:linespacing="125%"
       id="text3237"
       y="248.1404"
       x="903.31183"
       style="font-size:56px;font-style:normal;font-variant:normal;font-weight:normal;font-stretch:normal;text-align:justify;line-height:125%;letter-spacing:0px;word-spacing:0px;text-anchor:start;fill:#000000;fill-opacity:1;stroke:none;font-family:Arial;-inkscape-font-specification:Arial"
       xml:space="preserve"><tspan
         style="font-size:56px;font-style:normal;font-variant:normal;font-weight:normal;font-stretch:normal;font-family:Arial;-inkscape-font-specification:Arial"
         y="248.1404"
         x="903.31183"
         id="tspan3239"
         sodipodi:role="line">a'</tspan></text>
    <text
       xml:space="preserve"
       style="font-size:56px;font-style:normal;font-variant:normal;font-weight:normal;font-stretch:normal;text-align:justify;line-height:125%;letter-spacing:0px;word-spacing:0px;text-anchor:start;fill:#000000;fill-opacity:1;stroke:none;font-family:Arial;-inkscape-font-specification:Arial"
       x="903.23059"
       y="432.08969"
       id="text3241"
       sodipodi:linespacing="125%"><tspan
         sodipodi:role="line"
         id="tspan3243"
         x="903.23059"
         y="432.08969"
         style="font-size:56px;font-style:normal;font-variant:normal;font-weight:normal;font-stretch:normal;font-family:Arial;-inkscape-font-specification:Arial">a'</tspan></text>
    <text
       sodipodi:linespacing="125%"
       id="text3245"
       y="619.89429"
       x="863.2937"
       style="font-size:56px;font-style:normal;font-variant:normal;font-weight:normal;font-stretch:normal;text-align:justify;line-height:125%;letter-spacing:0px;word-spacing:0px;text-anchor:start;fill:#000000;fill-opacity:1;stroke:none;font-family:Arial;-inkscape-font-specification:Arial"
       xml:space="preserve"><tspan
         style="font-size:56px;font-style:normal;font-variant:normal;font-weight:normal;font-stretch:normal;font-family:Arial;-inkscape-font-specification:Arial"
         y="619.89429"
         x="863.2937"
         id="tspan3247"
         sodipodi:role="line">a</tspan></text>
    <text
       sodipodi:linespacing="125%"
       id="text3249"
       y="624.59717"
       x="932.87531"
       style="font-size:56px;font-style:normal;font-variant:normal;font-weight:normal;font-stretch:normal;text-align:justify;line-height:125%;letter-spacing:0px;word-spacing:0px;text-anchor:start;fill:#000000;fill-opacity:1;stroke:none;font-family:Arial;-inkscape-font-specification:Arial"
       xml:space="preserve"><tspan
         style="font-size:56px;font-style:normal;font-variant:normal;font-weight:normal;font-stretch:normal;font-family:Arial;-inkscape-font-specification:Arial"
         y="624.59717"
         x="932.87531"
         id="tspan3251"
         sodipodi:role="line">b</tspan></text>
    <ellipse
       id="ellipse3494"
       ry="39.598"
       rx="39.096699"
       cy="-368"
       cx="87"
       sodipodi:cx="87"
       sodipodi:cy="-368"
       sodipodi:rx="39.096699"
       sodipodi:ry="39.598"
       style="fill:none;stroke:#000000;stroke-width:3"
       d="m 126.0967,-368 c 0,21.86937 -17.50419,39.598 -39.0967,39.598 -21.59251,0 -39.096699,-17.72863 -39.096699,-39.598 0,-21.86937 17.504189,-39.598 39.096699,-39.598 21.59251,0 39.0967,17.72863 39.0967,39.598 z"
       transform="matrix(1.25,0,0,1.25,782.70668,795.9339)" />
    <text
       id="text3496"
       font-size="40.00"
       y="355.36163"
       x="891.42932"
       style="font-size:56px;font-style:normal;font-variant:normal;font-weight:normal;font-stretch:normal;text-anchor:middle;font-family:Arial;-inkscape-font-specification:Arial">5</text>
    <ellipse
       id="ellipse3765"
       ry="39.598"
       rx="39.096699"
       cy="-368"
       cx="39"
       sodipodi:cx="39"
       sodipodi:cy="-368"
       sodipodi:rx="39.096699"
       sodipodi:ry="39.598"
       style="fill:#000000;stroke:#000000;stroke-width:3"
       d="m 78.096699,-368 c 0,21.86937 -17.504189,39.598 -39.096699,39.598 -21.59251,0 -39.09669876,-17.72863 -39.09669876,-39.598 0,-21.86937 17.50418876,-39.598 39.09669876,-39.598 21.59251,0 39.096699,17.72863 39.096699,39.598 z"
       transform="matrix(1.25,0,0,1.25,82.399448,698.7857)" />
    <text
       id="text3767"
       font-size="40.00"
       y="258.82867"
       x="131.20413"
       style="font-size:56px;font-style:normal;font-variant:normal;font-weight:normal;font-stretch:normal;text-anchor:middle;fill:#ffffff;font-family:Arial;-inkscape-font-specification:Arial">i</text>
    <path
       id="path3779"
       d="m 131.14945,264.4107 c 0,24.21 0,53.83875 0,80.7075"
       inkscape:connector-curvature="0"
       style="fill:none;stroke:#000000;stroke-width:3.75" />
    <polygon
       id="polygon3781"
       points="46.0001,-263.618 39,-243.618 32.0001,-263.618 46.0001,-263.618 "
       style="fill:#000000;stroke:#000000"
       transform="matrix(1.25,0,0,1.25,82.399448,674.7857)" />
    <ellipse
       id="ellipse3788"
       ry="39.598"
       rx="39.096699"
       cy="-40"
       cx="39"
       sodipodi:cx="39"
       sodipodi:cy="-40"
       sodipodi:rx="39.096699"
       sodipodi:ry="39.598"
       style="fill:#000000;stroke:#000000;stroke-width:3"
       d="M 78.096699,-40 C 78.096699,-18.130629 60.59251,-0.40200043 39,-0.40200043 17.40749,-0.40200043 -0.09669876,-18.130629 -0.09669876,-40 -0.09669876,-61.869371 17.40749,-79.598 39,-79.598 c 21.59251,0 39.096699,17.728629 39.096699,39.598 z"
       transform="matrix(1.25,0,0,1.25,82.399448,652.7857)" />
    <text
       id="text3790"
       font-size="40.00"
       y="622.82867"
       x="131.20413"
       style="font-size:56px;font-style:normal;font-variant:normal;font-weight:normal;font-stretch:normal;text-anchor:middle;fill:#ffffff;font-family:Arial;-inkscape-font-specification:Arial">iii</text>
    <path
       id="path3795"
       d="m 131.14945,469.4107 c 0,24.21 0,53.83875 0,80.70763"
       inkscape:connector-curvature="0"
       style="fill:none;stroke:#000000;stroke-width:3.75" />
    <polygon
       id="polygon3797"
       points="46.0001,-99.6181 46.0001,-99.6181 39,-79.6181 32.0001,-99.6182 "
       style="fill:#000000;stroke:#000000"
       transform="matrix(1.25,0,0,1.25,82.399448,652.7857)" />
    <ellipse
       id="ellipse3997"
       ry="39.598"
       rx="39.096699"
       cy="-368"
       cx="39"
       sodipodi:cx="39"
       sodipodi:cy="-368"
       sodipodi:rx="39.096699"
       sodipodi:ry="39.598"
       style="fill:#000000;stroke:#000000;stroke-width:3"
       d="m 78.096699,-368 c 0,21.86937 -17.504189,39.598 -39.096699,39.598 -21.59251,0 -39.09669876,-17.72863 -39.09669876,-39.598 0,-21.86937 17.50418876,-39.598 39.09669876,-39.598 21.59251,0 39.096699,17.72863 39.096699,39.598 z"
       transform="matrix(1.25,0,0,1.25,454.92746,698.7857)" />
    <text
       id="text3999"
       font-size="40.00"
       y="258.82867"
       x="503.73215"
       style="font-size:56px;font-style:normal;font-variant:normal;font-weight:normal;font-stretch:normal;text-anchor:middle;fill:#ffffff;font-family:Arial;-inkscape-font-specification:Arial">i</text>
    <path
       id="path4011"
       d="m 503.67746,264.4107 c 0,24.21 0,53.83875 0,80.7075"
       inkscape:connector-curvature="0"
       style="fill:none;stroke:#000000;stroke-width:3.75" />
    <polygon
       id="polygon4013"
       points="32.0001,-263.618 46.0001,-263.618 46.0001,-263.618 39,-243.618 "
       style="fill:#000000;stroke:#000000"
       transform="matrix(1.25,0,0,1.25,454.92746,674.7857)" />
    <ellipse
       id="ellipse4020"
       ry="39.598"
       rx="39.096699"
       cy="-40"
       cx="39"
       sodipodi:cx="39"
       sodipodi:cy="-40"
       sodipodi:rx="39.096699"
       sodipodi:ry="39.598"
       style="fill:#000000;stroke:#000000;stroke-width:3"
       d="M 78.096699,-40 C 78.096699,-18.130629 60.59251,-0.40200043 39,-0.40200043 17.40749,-0.40200043 -0.09669876,-18.130629 -0.09669876,-40 -0.09669876,-61.869371 17.40749,-79.598 39,-79.598 c 21.59251,0 39.096699,17.728629 39.096699,39.598 z"
       transform="matrix(1.25,0,0,1.25,454.92746,652.7857)" />
    <text
       id="text4022"
       font-size="40.00"
       y="622.82867"
       x="503.73215"
       style="font-size:56px;font-style:normal;font-variant:normal;font-weight:normal;font-stretch:normal;text-anchor:middle;fill:#ffffff;font-family:Arial;-inkscape-font-specification:Arial">iii</text>
    <path
       id="path4027"
       d="m 503.67746,469.4107 c 0,24.21 0,53.83875 0,80.70763"
       inkscape:connector-curvature="0"
       style="fill:none;stroke:#000000;stroke-width:3.75" />
    <polygon
       id="polygon4029"
       points="39,-79.6181 32.0001,-99.6182 46.0001,-99.6181 46.0001,-99.6181 "
       style="fill:#000000;stroke:#000000"
       transform="matrix(1.25,0,0,1.25,454.92746,652.7857)" />
    <path
       style="fill:none;stroke:#000000;stroke-width:7;stroke-miterlimit:4;stroke-opacity:1;stroke-dasharray:none"
       d="m 372.47595,362.375 0,33.125 -160,0 0,40 160,0 0,33.15625 53.125,-53.15625 -53.125,-53.125 z"
       id="rect5283"
       inkscape:connector-curvature="0" />
    <text
       sodipodi:linespacing="125%"
       id="text3164"
       y="333.21658"
       x="142.82373"
       style="font-size:56px;font-style:normal;font-variant:normal;font-weight:normal;font-stretch:normal;text-align:justify;line-height:125%;letter-spacing:0px;word-spacing:0px;text-anchor:start;fill:#000000;fill-opacity:1;stroke:none;font-family:Arial;-inkscape-font-specification:Arial"
       xml:space="preserve"><tspan
         style="font-size:56px;font-style:normal;font-variant:normal;font-weight:normal;font-stretch:normal;font-family:Arial;-inkscape-font-specification:Arial"
         y="333.21658"
         x="142.82373"
         id="tspan3166"
         sodipodi:role="line">a</tspan></text>
    <text
       xml:space="preserve"
       style="font-size:56px;font-style:normal;font-variant:normal;font-weight:normal;font-stretch:normal;text-align:justify;line-height:125%;letter-spacing:0px;word-spacing:0px;text-anchor:start;fill:#000000;fill-opacity:1;stroke:none;font-family:Arial;-inkscape-font-specification:Arial"
       x="142.84402"
       y="513.22681"
       id="text3168"
       sodipodi:linespacing="125%"><tspan
         sodipodi:role="line"
         id="tspan3170"
         x="142.84402"
         y="513.22681"
         style="font-size:56px;font-style:normal;font-variant:normal;font-weight:normal;font-stretch:normal;font-family:Arial;-inkscape-font-specification:Arial">a</tspan></text>
    <text
       xml:space="preserve"
       style="font-size:56px;font-style:normal;font-variant:normal;font-weight:normal;font-stretch:normal;text-align:justify;line-height:125%;letter-spacing:0px;word-spacing:0px;text-anchor:start;fill:#000000;fill-opacity:1;stroke:none;font-family:Arial;-inkscape-font-specification:Arial"
       x="517.41266"
       y="329.15567"
       id="text3172"
       sodipodi:linespacing="125%"><tspan
         sodipodi:role="line"
         id="tspan3174"
         x="517.41266"
         y="329.15567"
         style="font-size:56px;font-style:normal;font-variant:normal;font-weight:normal;font-stretch:normal;font-family:Arial;-inkscape-font-specification:Arial">a'</tspan></text>
    <text
       sodipodi:linespacing="125%"
       id="text3176"
       y="515.15564"
       x="517.41266"
       style="font-size:56px;font-style:normal;font-variant:normal;font-weight:normal;font-stretch:normal;text-align:justify;line-height:125%;letter-spacing:0px;word-spacing:0px;text-anchor:start;fill:#000000;fill-opacity:1;stroke:none;font-family:Arial;-inkscape-font-specification:Arial"
       xml:space="preserve"><tspan
         style="font-size:56px;font-style:normal;font-variant:normal;font-weight:normal;font-stretch:normal;font-family:Arial;-inkscape-font-specification:Arial"
         y="515.15564"
         x="517.41266"
         id="tspan3178"
         sodipodi:role="line">a'</tspan></text>
    <ellipse
       id="ellipse3711"
       ry="39.598"
       rx="39.096699"
       cy="-204"
       cx="39"
       sodipodi:cx="39"
       sodipodi:cy="-204"
       sodipodi:rx="39.096699"
       sodipodi:ry="39.598"
       style="fill:none;stroke:#000000;stroke-width:3"
       d="m 78.096699,-204 c 0,21.86937 -17.504189,39.598 -39.096699,39.598 -21.59251,0 -39.09669876,-17.72863 -39.09669876,-39.598 0,-21.86937 17.50418876,-39.598 39.09669876,-39.598 21.59251,0 39.096699,17.72863 39.096699,39.598 z"
       transform="matrix(1.25,0,0,1.25,81.17953,675.43392)" />
    <text
       id="text3713"
       font-size="40.00"
       y="440.4769"
       x="129.98422"
       style="font-size:56px;font-style:normal;font-variant:normal;font-weight:normal;font-stretch:normal;text-anchor:middle;font-family:Arial;-inkscape-font-specification:Arial">ii</text>
    <ellipse
       id="ellipse3878"
       ry="39.598"
       rx="39.096699"
       cy="-204"
       cx="39"
       sodipodi:cx="39"
       sodipodi:cy="-204"
       sodipodi:rx="39.096699"
       sodipodi:ry="39.598"
       style="fill:none;stroke:#000000;stroke-width:3"
       d="m 78.096699,-204 c 0,21.86937 -17.504189,39.598 -39.096699,39.598 -21.59251,0 -39.09669876,-17.72863 -39.09669876,-39.598 0,-21.86937 17.50418876,-39.598 39.09669876,-39.598 21.59251,0 39.096699,17.72863 39.096699,39.598 z"
       transform="matrix(1.25,0,0,1.25,453.68722,677.45421)" />
    <text
       id="text3880"
       font-size="40.00"
       y="442.49719"
       x="500.90598"
       style="font-size:56px;font-style:normal;font-variant:normal;font-weight:normal;font-stretch:normal;text-anchor:middle;font-family:Arial;-inkscape-font-specification:Arial">iv</text>
  </g>
</svg>
