<?xml version="1.0" encoding="UTF-8" standalone="no"?>
<!-- Generated by graphviz version 2.26.3 (20100126.1600)
 -->

<!-- Title: LTS Pages: 1 -->

<svg
   xmlns:dc="http://purl.org/dc/elements/1.1/"
   xmlns:cc="http://creativecommons.org/ns#"
   xmlns:rdf="http://www.w3.org/1999/02/22-rdf-syntax-ns#"
   xmlns:svg="http://www.w3.org/2000/svg"
   xmlns="http://www.w3.org/2000/svg"
   xmlns:sodipodi="http://sodipodi.sourceforge.net/DTD/sodipodi-0.dtd"
   xmlns:inkscape="http://www.inkscape.org/namespaces/inkscape"
   width="1470.6675"
   height="923.65619"
   viewBox="0 0 1176.5341 738.92496"
   id="svg2"
   version="1.1"
   inkscape:version="0.48.1 "
   sodipodi:docname="network.svg">
  <metadata
     id="metadata52">
    <rdf:RDF>
      <cc:Work
         rdf:about="">
        <dc:format>image/svg+xml</dc:format>
        <dc:type
           rdf:resource="http://purl.org/dc/dcmitype/StillImage" />
        <dc:title />
      </cc:Work>
    </rdf:RDF>
  </metadata>
  <defs
     id="defs50" />
  <sodipodi:namedview
     pagecolor="#ffffff"
     bordercolor="#666666"
     borderopacity="1"
     objecttolerance="10"
     gridtolerance="10"
     guidetolerance="10"
     inkscape:pageopacity="0"
     inkscape:pageshadow="2"
     inkscape:window-width="1680"
     inkscape:window-height="998"
     id="namedview48"
     showgrid="false"
     fit-margin-top="0"
     fit-margin-left="0"
     fit-margin-right="0"
     fit-margin-bottom="0"
     inkscape:zoom="0.6363961"
     inkscape:cx="325.11996"
     inkscape:cy="346.32241"
     inkscape:window-x="-8"
     inkscape:window-y="-8"
     inkscape:window-maximized="1"
     inkscape:current-layer="svg2" />
  <text
     sodipodi:linespacing="125%"
     id="text3880"
     y="560.59375"
     x="263.00354"
     style="font-size:32.00000381px;font-style:normal;font-variant:normal;font-weight:normal;font-stretch:normal;line-height:125%;letter-spacing:0px;word-spacing:0px;fill:#000000;fill-opacity:1;stroke:none;font-family:Arial;-inkscape-font-specification:Arial"
     xml:space="preserve"><tspan
       y="560.59375"
       x="263.00354"
       id="tspan3882"
       sodipodi:role="line" /></text>
  <text
     x="1050.4672"
     y="51.452843"
     font-size="40.00"
     id="text14-1"
     style="font-size:44.79999924px;font-style:normal;font-variant:normal;font-weight:normal;font-stretch:normal;text-anchor:middle;fill:#ffffff;font-family:Arial;-inkscape-font-specification:Arial" />
  <text
     style="font-size:44.79999924px;font-style:normal;font-variant:normal;font-weight:normal;font-stretch:normal;text-anchor:middle;fill:#ffffff;font-family:Arial;-inkscape-font-specification:Arial"
     id="text14-1-7-3"
     font-size="40.00"
     y="-3.0999165"
     x="1505.1803" />
  <ellipse
     transform="translate(924.55503,737.09797)"
     style="fill:#000000;stroke:#000000;stroke-width:3"
     sodipodi:ry="39.598"
     sodipodi:rx="39.096699"
     sodipodi:cy="-696"
     sodipodi:cx="87"
     d="m 126.0967,-696 c 0,21.86937 -17.50419,39.598 -39.0967,39.598 -21.59251,0 -39.096699,-17.72863 -39.096699,-39.598 0,-21.86937 17.504189,-39.598 39.096699,-39.598 21.59251,0 39.0967,17.72863 39.0967,39.598 z"
     id="ellipse12-1-1-1"
     ry="39.598"
     rx="39.096699"
     cy="-696"
     cx="87" />
  <ellipse
     transform="translate(924.55503,737.09797)"
     style="fill:none;stroke:#000000;stroke-width:3"
     sodipodi:ry="39.598"
     sodipodi:rx="39.096699"
     sodipodi:cy="-532"
     sodipodi:cx="39"
     d="m 78.096699,-532 c 0,21.86937 -17.504189,39.598 -39.096699,39.598 -21.59251,0 -39.09669876,-17.72863 -39.09669876,-39.598 0,-21.86937 17.50418876,-39.598 39.09669876,-39.598 21.59251,0 39.096699,17.72863 39.096699,39.598 z"
     id="ellipse19-5-4-6"
     ry="39.598"
     rx="39.096699"
     cy="-532"
     cx="39" />
  <path
     style="fill:none;stroke:#000000;stroke-width:3"
     inkscape:connector-curvature="0"
     id="path26-2-0-0"
     d="m 1000.4222,79.134965 c -5.94597,20.316 -13.38807,45.743005 -20.02597,68.422005" />
  <polygon
     transform="translate(924.55503,737.09797)"
     style="fill:#000000;stroke:#000000"
     id="polygon28-7-9-4"
     points="62.4917,-587.343 62.4917,-587.343 50.1555,-570.115 49.0554,-591.276 " />
  <text
     style="font-size:44.79999924px;font-style:normal;font-variant:normal;font-weight:normal;font-stretch:normal;text-anchor:middle;font-family:Arial;-inkscape-font-specification:Arial"
     id="text30-6-4-3"
     font-size="40.00"
     y="135.09796"
     x="1006.055">a</text>
  <ellipse
     transform="translate(924.55503,737.09797)"
     style="fill:none;stroke:#000000;stroke-width:3"
     sodipodi:ry="39.598"
     sodipodi:rx="39.096699"
     sodipodi:cy="-532"
     sodipodi:cx="135"
     d="m 174.0967,-532 c 0,21.86937 -17.50419,39.598 -39.0967,39.598 -21.59251,0 -39.096699,-17.72863 -39.096699,-39.598 0,-21.86937 17.504189,-39.598 39.096699,-39.598 21.59251,0 39.0967,17.72863 39.0967,39.598 z"
     id="ellipse35-1-8-8"
     ry="39.598"
     rx="39.096699"
     cy="-532"
     cx="135" />
  <path
     style="fill:none;stroke:#000000;stroke-width:3"
     inkscape:connector-curvature="0"
     id="path42-4-8-2"
     d="m 1022.6878,79.134965 c 5.9462,20.315999 13.3882,45.743005 20.0262,68.422005" />
  <polygon
     transform="translate(924.55503,737.09797)"
     style="fill:#000000;stroke:#000000"
     id="polygon44-2-2-0"
     points="124.945,-591.276 124.945,-591.276 123.845,-570.115 111.508,-587.343 " />
  <text
     style="font-size:44.79999924px;font-style:normal;font-variant:normal;font-weight:normal;font-stretch:normal;text-anchor:middle;font-family:Arial;-inkscape-font-specification:Arial"
     id="text46-3-4-6"
     font-size="40.00"
     y="135.09796"
     x="1051.5551">c</text>
  <ellipse
     transform="translate(924.55503,737.09797)"
     style="fill:none;stroke:#000000;stroke-width:3"
     sodipodi:ry="39.598"
     sodipodi:rx="39.096699"
     sodipodi:cy="-368"
     sodipodi:cx="39"
     d="m 78.096699,-368 c 0,21.86937 -17.504189,39.598 -39.096699,39.598 -21.59251,0 -39.09669876,-17.72863 -39.09669876,-39.598 0,-21.86937 17.50418876,-39.598 39.09669876,-39.598 21.59251,0 39.096699,17.72863 39.096699,39.598 z"
     id="ellipse51-2-5-5"
     ry="39.598"
     rx="39.096699"
     cy="-368"
     cx="39" />
  <path
     style="fill:none;stroke:#000000;stroke-width:3"
     inkscape:connector-curvature="0"
     id="path58-2-5-7"
     d="m 963.55503,244.79797 c 0,19.368 0,43.071 0,64.566" />
  <polygon
     transform="translate(924.55503,737.09797)"
     style="fill:#000000;stroke:#000000"
     id="polygon60-1-1-2"
     points="46.0001,-427.618 46.0001,-427.618 39,-407.618 32.0001,-427.618 " />
  <text
     style="font-size:44.79999924px;font-style:normal;font-variant:normal;font-weight:normal;font-stretch:normal;text-anchor:middle;font-family:Arial;-inkscape-font-specification:Arial"
     id="text62-6-7-2"
     font-size="40.00"
     y="299.09796"
     x="979.255">a</text>
  <ellipse
     transform="translate(924.55503,737.09797)"
     style="fill:none;stroke:#000000;stroke-width:3"
     sodipodi:ry="39.598"
     sodipodi:rx="39.096699"
     sodipodi:cy="-368"
     sodipodi:cx="135"
     d="m 174.0967,-368 c 0,21.86937 -17.50419,39.598 -39.0967,39.598 -21.59251,0 -39.096699,-17.72863 -39.096699,-39.598 0,-21.86937 17.504189,-39.598 39.096699,-39.598 21.59251,0 39.0967,17.72863 39.0967,39.598 z"
     id="ellipse67-8-1-0"
     ry="39.598"
     rx="39.096699"
     cy="-368"
     cx="135" />
  <path
     style="fill:none;stroke:#000000;stroke-width:3"
     inkscape:connector-curvature="0"
     id="path74-5-1-6"
     d="m 983.44633,239.07897 c 13.2138,22.574 30.81557,52.643 45.76367,78.179" />
  <polygon
     transform="translate(924.55503,737.09797)"
     style="fill:#000000;stroke:#000000"
     id="polygon76-7-5-0"
     points="110.907,-423.016 110.907,-423.016 114.969,-402.219 98.8246,-415.943 " />
  <text
     style="font-size:44.79999924px;font-style:normal;font-variant:normal;font-weight:normal;font-stretch:normal;text-anchor:middle;font-family:Arial;-inkscape-font-specification:Arial"
     id="text78-6-2-1"
     font-size="40.00"
     y="299.09796"
     x="1033.5551">c</text>
  <path
     style="fill:none;stroke:#000000;stroke-width:3"
     inkscape:connector-curvature="0"
     id="path83-1-8"
     d="m 1059.555,244.79797 c 0,19.368 0,43.071 0,64.566" />
  <polygon
     transform="translate(924.55503,737.09797)"
     style="fill:#000000;stroke:#000000"
     id="polygon85-7-5"
     points="142,-427.618 142,-427.618 135,-407.618 128,-427.618 " />
  <text
     style="font-size:44.79999924px;font-style:normal;font-variant:normal;font-weight:normal;font-stretch:normal;text-anchor:middle;font-family:Arial;-inkscape-font-specification:Arial"
     id="text87-4-9"
     font-size="40.00"
     y="299.09796"
     x="1075.255">a</text>
  <ellipse
     transform="translate(924.55503,737.09797)"
     style="fill:none;stroke:#000000;stroke-width:3"
     sodipodi:ry="39.598"
     sodipodi:rx="39.096699"
     sodipodi:cy="-204"
     sodipodi:cx="39"
     d="m 78.096699,-204 c 0,21.86937 -17.504189,39.598 -39.096699,39.598 -21.59251,0 -39.09669876,-17.72863 -39.09669876,-39.598 0,-21.86937 17.50418876,-39.598 39.09669876,-39.598 21.59251,0 39.096699,17.72863 39.096699,39.598 z"
     id="ellipse92-0-7-3"
     ry="39.598"
     rx="39.096699"
     cy="-204"
     cx="39" />
  <path
     style="fill:none;stroke:#000000;stroke-width:3"
     inkscape:connector-curvature="0"
     id="path99-9-3"
     d="m 974.80557,407.46464 c 5.59709,21.2337 1.60242,55.86166 -5.02832,75.25117"
     sodipodi:nodetypes="cc" />
  <polygon
     transform="matrix(0.96592583,0.25881905,-0.25881905,0.96592583,868.14322,719.98397)"
     style="fill:#000000;stroke:#000000;stroke-width:1"
     id="polygon101-4-1"
     points="39,-243.618 32.0001,-263.618 46.0001,-263.618 46.0001,-263.618 " />
  <text
     style="font-size:44.79999924px;font-style:normal;font-variant:normal;font-weight:normal;font-stretch:normal;text-anchor:middle;font-family:Arial;-inkscape-font-specification:Arial"
     id="text103-8-8"
     font-size="40.00"
     y="464.30112"
     x="991.89282">a</text>
  <ellipse
     transform="translate(924.55503,737.09797)"
     style="fill:none;stroke:#000000;stroke-width:3"
     sodipodi:ry="39.598"
     sodipodi:rx="39.096699"
     sodipodi:cy="-204"
     sodipodi:cx="135"
     d="m 174.0967,-204 c 0,21.86937 -17.50419,39.598 -39.0967,39.598 -21.59251,0 -39.096699,-17.72863 -39.096699,-39.598 0,-21.86937 17.504189,-39.598 39.096699,-39.598 21.59251,0 39.0967,17.72863 39.0967,39.598 z"
     id="ellipse108-8-6-2"
     ry="39.598"
     rx="39.096699"
     cy="-204"
     cx="135" />
  <path
     style="fill:none;stroke:#000000;stroke-width:3"
     inkscape:connector-curvature="0"
     id="path115-2-7"
     d="m 983.44633,403.07897 c 13.2138,22.574 30.81557,52.643 45.76367,78.179" />
  <polygon
     transform="translate(924.55503,737.09797)"
     style="fill:#000000;stroke:#000000"
     id="polygon117-4-2"
     points="110.907,-259.016 110.907,-259.016 114.969,-238.219 98.8246,-251.943 " />
  <text
     style="font-size:44.79999924px;font-style:normal;font-variant:normal;font-weight:normal;font-stretch:normal;text-anchor:middle;font-family:Arial;-inkscape-font-specification:Arial"
     id="text119-5-1"
     font-size="40.00"
     y="463.09796"
     x="1033.5551">c</text>
  <path
     style="fill:none;stroke:#000000;stroke-width:3"
     inkscape:connector-curvature="0"
     id="path124-1-1"
     d="m 1059.555,408.79797 c 0,19.368 0,43.071 0,64.566" />
  <polygon
     transform="translate(924.55503,737.09797)"
     style="fill:#000000;stroke:#000000"
     id="polygon126-4-5"
     points="142,-263.618 142,-263.618 135,-243.618 128,-263.618 " />
  <text
     style="font-size:44.79999924px;font-style:normal;font-variant:normal;font-weight:normal;font-stretch:normal;text-anchor:middle;font-family:Arial;-inkscape-font-specification:Arial"
     id="text128-2-7"
     font-size="40.00"
     y="463.09796"
     x="1075.255">a</text>
  <ellipse
     transform="translate(924.55503,737.09797)"
     style="fill:none;stroke:#000000;stroke-width:3"
     sodipodi:ry="39.598"
     sodipodi:rx="39.096699"
     sodipodi:cy="-40"
     sodipodi:cx="39"
     d="M 78.096699,-40 C 78.096699,-18.130629 60.59251,-0.40200043 39,-0.40200043 17.40749,-0.40200043 -0.09669876,-18.130629 -0.09669876,-40 -0.09669876,-61.869371 17.40749,-79.598 39,-79.598 c 21.59251,0 39.096699,17.728629 39.096699,39.598 z"
     id="ellipse133-3-9"
     ry="39.598"
     rx="39.096699"
     cy="-40"
     cx="39" />
  <path
     style="fill:none;stroke:#000000;stroke-width:3"
     inkscape:connector-curvature="0"
     id="path140-5-7"
     d="m 963.55503,572.79797 c 0,19.368 0,43.071 0,64.5661" />
  <polygon
     transform="translate(924.55503,737.09797)"
     style="fill:#000000;stroke:#000000"
     id="polygon142-1-1"
     points="46.0001,-99.6181 46.0001,-99.6181 39,-79.6181 32.0001,-99.6182 " />
  <text
     style="font-size:44.79999924px;font-style:normal;font-variant:normal;font-weight:normal;font-stretch:normal;text-anchor:middle;font-family:Arial;-inkscape-font-specification:Arial"
     id="text144-7-6"
     font-size="40.00"
     y="625.30695"
     x="977.755">c</text>
  <path
     style="fill:none;stroke:#000000;stroke-width:3"
     inkscape:connector-curvature="0"
     id="path149-2-06"
     d="m 1038.7751,567.52341 c -24.6406,9.28134 -43.89608,50.65567 -50.16344,84.46459"
     sodipodi:nodetypes="cc" />
  <polygon
     transform="matrix(0.96592583,-0.25881905,0.25881905,0.96592583,947.76413,752.08421)"
     style="fill:#000000;stroke:#000000;stroke-width:1"
     id="polygon151-2-2"
     points="59.0307,-74.2191 63.0932,-95.0157 75.1754,-87.9431 75.1754,-87.9431 " />
  <text
     style="font-size:44.79999924px;font-style:normal;font-variant:normal;font-weight:normal;font-stretch:normal;text-anchor:middle;font-family:Arial;-inkscape-font-specification:Arial"
     id="text153-1-1"
     font-size="40.00"
     y="625.30695"
     x="1017.9439">a</text>
  <text
     sodipodi:linespacing="125%"
     id="text3295-6-9"
     y="215.27219"
     x="930.59253"
     style="font-size:28.80000305px;font-style:normal;font-variant:normal;font-weight:normal;font-stretch:normal;text-align:justify;line-height:125%;letter-spacing:0px;word-spacing:0px;text-anchor:start;fill:#000000;fill-opacity:1;stroke:none;font-family:Arial;-inkscape-font-specification:Arial"
     xml:space="preserve"><tspan
       y="215.27219"
       x="930.59253"
       id="tspan3297-8-1"
       sodipodi:role="line">1 5 8</tspan></text>
  <text
     sodipodi:linespacing="125%"
     id="text3299-5-4"
     y="52.40266"
     x="976.00818"
     style="font-size:38.40000153px;font-style:normal;font-variant:normal;font-weight:normal;font-stretch:normal;text-align:justify;line-height:125%;letter-spacing:0px;word-spacing:0px;text-anchor:start;fill:#000000;fill-opacity:1;stroke:none;font-family:Arial;-inkscape-font-specification:Arial"
     xml:space="preserve"><tspan
       style="font-size:32.00000381px;font-style:normal;font-variant:normal;font-weight:normal;font-stretch:normal;fill:#ffffff;font-family:Arial;-inkscape-font-specification:Arial"
       y="52.40266"
       x="976.00818"
       id="tspan3301-7-0"
       sodipodi:role="line">0 5 8</tspan></text>
  <text
     sodipodi:linespacing="125%"
     id="text3303-6-3"
     y="379.27219"
     x="931.73865"
     style="font-size:28.80000305px;font-style:normal;font-variant:normal;font-weight:normal;font-stretch:normal;text-align:justify;line-height:125%;letter-spacing:0px;word-spacing:0px;text-anchor:start;fill:#000000;fill-opacity:1;stroke:none;font-family:Arial;-inkscape-font-specification:Arial"
     xml:space="preserve"><tspan
       y="379.27219"
       x="931.73865"
       id="tspan3305-1-0"
       sodipodi:role="line">2 5 8</tspan></text>
  <text
     sodipodi:linespacing="125%"
     id="text3307-8-8"
     y="543.26514"
     x="931.55579"
     style="font-size:28.80000305px;font-style:normal;font-variant:normal;font-weight:normal;font-stretch:normal;text-align:justify;line-height:125%;letter-spacing:0px;word-spacing:0px;text-anchor:start;fill:#000000;fill-opacity:1;stroke:none;font-family:Arial;-inkscape-font-specification:Arial"
     xml:space="preserve"><tspan
       y="543.26514"
       x="931.55579"
       id="tspan3309-9-5"
       sodipodi:role="line">3 5 8</tspan></text>
  <text
     sodipodi:linespacing="125%"
     id="text3311-2-0"
     y="707.26514"
     x="931.55579"
     style="font-size:28.80000305px;font-style:normal;font-variant:normal;font-weight:normal;font-stretch:normal;text-align:justify;line-height:125%;letter-spacing:0px;word-spacing:0px;text-anchor:start;fill:#000000;fill-opacity:1;stroke:none;font-family:Arial;-inkscape-font-specification:Arial"
     xml:space="preserve"><tspan
       y="707.26514"
       x="931.55579"
       id="tspan3313-7-7"
       sodipodi:role="line">3 6 8</tspan></text>
  <text
     sodipodi:linespacing="125%"
     id="text3315-9-5"
     y="215.27219"
     x="1027.5629"
     style="font-size:28.80000305px;font-style:normal;font-variant:normal;font-weight:normal;font-stretch:normal;text-align:justify;line-height:125%;letter-spacing:0px;word-spacing:0px;text-anchor:start;fill:#000000;fill-opacity:1;stroke:none;font-family:Arial;-inkscape-font-specification:Arial"
     xml:space="preserve"><tspan
       y="215.27219"
       x="1027.5629"
       id="tspan3317-5-7"
       sodipodi:role="line">0 6 8</tspan></text>
  <text
     sodipodi:linespacing="125%"
     id="text3319-4-9"
     y="379.27219"
     x="1026.5925"
     style="font-size:28.80000305px;font-style:normal;font-variant:normal;font-weight:normal;font-stretch:normal;text-align:justify;line-height:125%;letter-spacing:0px;word-spacing:0px;text-anchor:start;fill:#000000;fill-opacity:1;stroke:none;font-family:Arial;-inkscape-font-specification:Arial"
     xml:space="preserve"><tspan
       y="379.27219"
       x="1026.5925"
       id="tspan3321-3-9"
       sodipodi:role="line">1 6 8</tspan></text>
  <text
     sodipodi:linespacing="125%"
     id="text3323-1-2"
     y="543.27222"
     x="1027.7386"
     style="font-size:28.80000305px;font-style:normal;font-variant:normal;font-weight:normal;font-stretch:normal;text-align:justify;line-height:125%;letter-spacing:0px;word-spacing:0px;text-anchor:start;fill:#000000;fill-opacity:1;stroke:none;font-family:Arial;-inkscape-font-specification:Arial"
     xml:space="preserve"><tspan
       y="543.27222"
       x="1027.7386"
       id="tspan3325-2-3"
       sodipodi:role="line">2 6 8</tspan></text>
  <path
     d="m 1080.8655,565.93699 c 26.7028,19.62785 48.8432,44.46014 51.0971,82.179"
     id="path3548-9"
     inkscape:connector-curvature="0"
     style="fill:none;stroke:#000000;stroke-width:3;stroke-miterlimit:4;stroke-dasharray:none;stroke-dashoffset:0"
     sodipodi:nodetypes="cc" />
  <polygon
     points="98.8246,-415.943 110.907,-423.016 110.907,-423.016 114.969,-402.219 "
     id="polygon3550-4"
     style="fill:#000000;stroke:#000000;stroke-width:1"
     transform="matrix(0.93969262,0.34202015,-0.34202015,0.93969262,889.21758,996.33416)" />
  <text
     x="1140.1156"
     y="625.30695"
     font-size="40.00"
     id="text3552-5"
     style="font-size:44.79999924px;font-style:normal;font-variant:normal;font-weight:normal;font-stretch:normal;text-anchor:middle;font-family:Arial;-inkscape-font-specification:Arial">e</text>
  <ellipse
     cx="135"
     cy="-532"
     rx="39.096699"
     ry="39.598"
     id="ellipse3554-6"
     d="m 174.0967,-532 c 0,21.86937 -17.50419,39.598 -39.0967,39.598 -21.59251,0 -39.096699,-17.72863 -39.096699,-39.598 0,-21.86937 17.504189,-39.598 39.096699,-39.598 21.59251,0 39.0967,17.72863 39.0967,39.598 z"
     sodipodi:cx="135"
     sodipodi:cy="-532"
     sodipodi:rx="39.096699"
     sodipodi:ry="39.598"
     style="fill:none;stroke:#000000;stroke-width:3;stroke-miterlimit:4;stroke-dasharray:none;stroke-dashoffset:0"
     transform="translate(1000.9374,1229.827)" />
  <text
     xml:space="preserve"
     style="font-size:28.80000305px;font-style:normal;font-variant:normal;font-weight:normal;font-stretch:normal;text-align:justify;line-height:125%;letter-spacing:0px;word-spacing:0px;text-anchor:start;fill:#000000;fill-opacity:1;stroke:none;font-family:Arial;-inkscape-font-specification:Arial"
     x="1104.3601"
     y="708.00122"
     id="text3556-2"
     sodipodi:linespacing="125%"><tspan
       sodipodi:role="line"
       id="tspan3558-6"
       x="1104.3601"
       y="708.00122">4 7 8</tspan></text>
  <path
     style="fill:none;stroke:#000000;stroke-width:3.09245086"
     inkscape:connector-curvature="0"
     id="path149-2-0-8"
     d="m 992.86596,668.63774 c 26.84354,-12.49444 60.68924,-49.35238 59.23774,-86.87542"
     sodipodi:nodetypes="cc" />
  <polygon
     transform="matrix(-0.93969262,0.34202015,-0.34202015,-0.93969262,1084.8215,482.54222)"
     style="fill:#000000;stroke:#000000;stroke-width:1"
     id="polygon151-2-9-5"
     points="63.0932,-95.0157 75.1754,-87.9431 75.1754,-87.9431 59.0307,-74.2191 " />
  <text
     style="font-size:44.79999924px;font-style:normal;font-variant:normal;font-weight:normal;font-stretch:normal;text-anchor:middle;font-family:Arial;-inkscape-font-specification:Arial"
     id="text153-1-2-25"
     font-size="40.00"
     y="625.30695"
     x="1063.0675">a</text>
  <path
     style="fill:none;stroke:#000000;stroke-width:3.05626321"
     inkscape:connector-curvature="0"
     id="path99-9-9-1"
     d="m 942.30318,498.29174 c -7.81511,-19.05665 -6.07246,-48.88044 3.55556,-75.45495"
     sodipodi:nodetypes="cc" />
  <polygon
     transform="matrix(0.96592583,0.25881905,0.25881905,-0.96592583,975.78408,161.75125)"
     style="fill:#000000;stroke:#000000;stroke-width:1"
     id="polygon101-4-0-0"
     points="46.0001,-263.618 46.0001,-263.618 39,-243.618 32.0001,-263.618 " />
  <text
     style="font-size:44.79999924px;font-style:normal;font-variant:normal;font-weight:normal;font-stretch:normal;text-anchor:middle;font-family:Arial;-inkscape-font-specification:Arial"
     id="text103-8-1-0"
     font-size="40.00"
     y="463.15836"
     x="954.85022">a</text>
  <path
     d="m 1113.8617,663.41211 c -16.0452,-19.94268 -32.4498,-48.96506 -38.8782,-78.22314"
     id="path3548-9-9"
     inkscape:connector-curvature="0"
     style="fill:none;stroke:#000000;stroke-width:2.89880896;stroke-miterlimit:4;stroke-dasharray:none;stroke-dashoffset:0"
     sodipodi:nodetypes="cc" />
  <polygon
     points="114.969,-402.219 98.8246,-415.943 110.907,-423.016 110.907,-423.016 "
     id="polygon3550-4-7"
     style="fill:#000000;stroke:#000000;stroke-width:1"
     transform="matrix(-0.95140754,-0.16775881,0.16782312,-0.95177217,1246.4959,207.8251)" />
  <text
     x="1099.8035"
     y="625.83197"
     font-size="40.00"
     id="text3552-5-5"
     style="font-size:44.79999924px;font-style:normal;font-variant:normal;font-weight:normal;font-stretch:normal;text-anchor:middle;font-family:Arial;-inkscape-font-specification:Arial">f</text>
  <text
     xml:space="preserve"
     style="font-size:16.00000191px;font-style:normal;font-variant:normal;font-weight:normal;font-stretch:normal;line-height:125%;letter-spacing:0px;word-spacing:0px;fill:#000000;fill-opacity:1;stroke:none;font-family:Arial;-inkscape-font-specification:Arial"
     x="-2053.1289"
     y="81.384407"
     id="text3273"
     sodipodi:linespacing="125%"><tspan
       sodipodi:role="line"
       id="tspan3275"
       x="-2053.1289"
       y="81.384407"
       style="font-size:38.40000153px;font-style:normal;font-variant:normal;font-weight:normal;font-stretch:normal;font-family:Arial;-inkscape-font-specification:Arial" /></text>
  <text
     sodipodi:linespacing="125%"
     id="text4079"
     y="307.39996"
     x="488.26825"
     style="font-size:38.40000153px;font-style:normal;font-variant:normal;font-weight:normal;font-stretch:normal;text-align:justify;line-height:125%;letter-spacing:0px;word-spacing:0px;text-anchor:start;fill:#000000;fill-opacity:1;stroke:none;font-family:Arial;-inkscape-font-specification:Arial"
     xml:space="preserve"><tspan
       style="font-size:38.40000153px;font-style:normal;font-variant:normal;font-weight:normal;font-stretch:normal;font-family:Arial Unicode MS;-inkscape-font-specification:Arial Unicode MS"
       y="307.39996"
       x="488.26825"
       id="tspan4081"
       sodipodi:role="line"><tspan
   style="font-weight:bold"
   id="tspan3112">〈〈</tspan>a, • , • <tspan
   style="font-weight:bold"
   id="tspan3120">〉</tspan>, a<tspan
   style="font-weight:bold"
   id="tspan3134">〉</tspan></tspan><tspan
       style="font-size:38.40000153px;font-style:normal;font-variant:normal;font-weight:normal;font-stretch:normal;font-family:Arial Unicode MS;-inkscape-font-specification:Arial Unicode MS"
       y="355.39996"
       x="488.26825"
       sodipodi:role="line"
       id="tspan4085"><tspan
   style="font-weight:bold"
   id="tspan3114">〈〈</tspan> •, c, • <tspan
   style="font-weight:bold"
   id="tspan3122">〉</tspan>, c<tspan
   style="font-weight:bold"
   id="tspan3132">〉</tspan></tspan><tspan
       style="font-size:38.40000153px;font-style:normal;font-variant:normal;font-weight:normal;font-stretch:normal;font-family:Arial Unicode MS;-inkscape-font-specification:Arial Unicode MS"
       id="tspan4097"
       y="403.39996"
       x="488.26825"
       sodipodi:role="line"><tspan
   style="font-weight:bold"
   id="tspan3116">〈〈</tspan>b, d, • <tspan
   style="font-weight:bold"
   id="tspan3124">〉</tspan>, e<tspan
   style="font-weight:bold"
   id="tspan3130">〉</tspan></tspan><tspan
       style="font-size:38.40000153px;font-style:normal;font-variant:normal;font-weight:normal;font-stretch:normal;font-family:Arial Unicode MS;-inkscape-font-specification:Arial Unicode MS"
       y="451.39996"
       x="488.26825"
       sodipodi:role="line"
       id="tspan3090"><tspan
   style="font-weight:bold"
   id="tspan3118">〈〈</tspan>f , f , f <tspan
   style="font-weight:bold"
   id="tspan3126">〉</tspan>, f<tspan
   style="font-weight:bold"
   id="tspan3128">〉</tspan></tspan><tspan
       id="tspan4083"
       y="499.39996"
       x="488.26825"
       sodipodi:role="line"
       style="font-size:38.40000153px;font-style:normal;font-variant:normal;font-weight:normal;font-stretch:normal;font-family:Arial;-inkscape-font-specification:Arial" /></text>
  <ellipse
     cx="39"
     cy="-368"
     rx="39.096699"
     ry="39.598"
     id="ellipse12"
     d="m 78.096699,-368 c 0,21.86937 -17.504189,39.598 -39.096699,39.598 -21.59251,0 -39.09669876,-17.72863 -39.09669876,-39.598 0,-21.86937 17.50418876,-39.598 39.09669876,-39.598 21.59251,0 39.096699,17.72863 39.096699,39.598 z"
     sodipodi:cx="39"
     sodipodi:cy="-368"
     sodipodi:rx="39.096699"
     sodipodi:ry="39.598"
     style="fill:#000000;stroke:#000000;stroke-width:3"
     transform="translate(216.85066,581.46248)" />
  <text
     x="255.82878"
     y="229.00467"
     font-size="40.00"
     id="text14"
     style="font-size:44.79999924px;font-style:normal;font-variant:normal;font-weight:normal;font-stretch:normal;text-anchor:middle;fill:#ffffff;font-family:Arial;-inkscape-font-specification:Arial">5</text>
  <ellipse
     cx="39"
     cy="-204"
     rx="39.096699"
     ry="39.598"
     id="ellipse19"
     d="m 78.096699,-204 c 0,21.86937 -17.504189,39.598 -39.096699,39.598 -21.59251,0 -39.09669876,-17.72863 -39.09669876,-39.598 0,-21.86937 17.50418876,-39.598 39.09669876,-39.598 21.59251,0 39.096699,17.72863 39.096699,39.598 z"
     sodipodi:cx="39"
     sodipodi:cy="-204"
     sodipodi:rx="39.096699"
     sodipodi:ry="39.598"
     style="fill:none;stroke:#000000;stroke-width:3"
     transform="translate(216.85066,573.46248)" />
  <text
     x="256.04755"
     y="385.28903"
     font-size="40.00"
     id="text21"
     style="font-size:44.79999924px;font-style:normal;font-variant:normal;font-weight:normal;font-stretch:normal;text-anchor:middle;font-family:Arial;-inkscape-font-specification:Arial">6</text>
  <path
     d="m 255.85066,252.32943 c 0,19.368 0,35.90405 0,57.39905"
     id="path26"
     inkscape:connector-curvature="0"
     style="fill:none;stroke:#000000;stroke-width:3"
     sodipodi:nodetypes="cc" />
  <polygon
     points="46.0001,-263.618 46.0001,-263.618 39,-243.618 32.0001,-263.618 "
     id="polygon28"
     style="fill:#000000;stroke:#000000"
     transform="translate(216.85066,573.46248)" />
  <text
     x="270.05066"
     y="296.26251"
     font-size="40.00"
     id="text30"
     style="font-size:44.79999924px;font-style:normal;font-variant:normal;font-weight:normal;font-stretch:normal;text-anchor:middle;font-family:Arial;-inkscape-font-specification:Arial">c</text>
  <ellipse
     cx="39"
     cy="-40"
     rx="39.096699"
     ry="39.598"
     id="ellipse35"
     d="M 78.096699,-40 C 78.096699,-18.130629 60.59251,-0.40200043 39,-0.40200043 17.40749,-0.40200043 -0.09669876,-18.130629 -0.09669876,-40 -0.09669876,-61.869371 17.40749,-79.598 39,-79.598 c 21.59251,0 39.096699,17.728629 39.096699,39.598 z"
     sodipodi:cx="39"
     sodipodi:cy="-40"
     sodipodi:rx="39.096699"
     sodipodi:ry="39.598"
     style="fill:none;stroke:#000000;stroke-width:3"
     transform="translate(216.85066,565.46248)" />
  <text
     x="255.81784"
     y="541.28906"
     font-size="40.00"
     id="text37"
     style="font-size:44.79999924px;font-style:normal;font-variant:normal;font-weight:normal;font-stretch:normal;text-anchor:middle;font-family:Arial;-inkscape-font-specification:Arial">7</text>
  <path
     d="m 266.74248,408.33456 c 7.46318,20.24602 6.33242,38.3438 -0.44445,59.04162"
     id="path42"
     inkscape:connector-curvature="0"
     style="fill:none;stroke:#000000;stroke-width:3"
     sodipodi:nodetypes="cc" />
  <polygon
     points="46.0001,-99.6181 46.0001,-99.6181 39,-79.6181 32.0001,-99.6182 "
     id="polygon44"
     style="fill:#000000;stroke:#000000;stroke-width:1"
     transform="matrix(0.93969262,0.34202015,-0.34202015,0.93969262,196.06978,546.88776)" />
  <text
     x="288.13574"
     y="462.97226"
     font-size="40.00"
     id="text46"
     style="font-size:44.79999924px;font-style:normal;font-variant:normal;font-weight:normal;font-stretch:normal;text-anchor:middle;font-family:Arial;-inkscape-font-specification:Arial">d</text>
  <polygon
     points="46.0001,-99.6181 39,-79.6181 32.0001,-99.6182 46.0001,-99.6181 "
     id="polygon44-0"
     style="fill:#000000;stroke:#000000"
     transform="matrix(-0.97437006,-0.22495106,0.22495106,-0.97437006,300.72808,339.72591)" />
  <text
     x="248.76869"
     y="463.49728"
     font-size="40.00"
     id="text46-9"
     style="font-size:44.79999924px;font-style:normal;font-variant:normal;font-weight:normal;font-stretch:normal;text-anchor:middle;font-family:Arial;-inkscape-font-specification:Arial">f</text>
  <path
     style="fill:none;stroke:#000000;stroke-width:2.80000019;stroke-linecap:butt;stroke-linejoin:miter;stroke-miterlimit:0;stroke-opacity:1;stroke-dasharray:none;stroke-dashoffset:0"
     d="m 245.09206,489.03472 c -9.18457,-24.85823 -9.16258,-43.52112 -3.56305,-68.15907 l 1.14604,-5.04257"
     id="path3092"
     inkscape:connector-curvature="0"
     sodipodi:nodetypes="ccc" />
  <ellipse
     cx="87"
     cy="-532"
     rx="39.096699"
     ry="39.598"
     id="ellipse12-7"
     d="m 126.0967,-532 c 0,21.86937 -17.50419,39.598 -39.0967,39.598 -21.59251,0 -39.096699,-17.72863 -39.096699,-39.598 0,-21.86937 17.504189,-39.598 39.096699,-39.598 21.59251,0 39.0967,17.72863 39.0967,39.598 z"
     sodipodi:cx="87"
     sodipodi:cy="-532"
     sodipodi:rx="39.096699"
     sodipodi:ry="39.598"
     style="fill:#000000;stroke:#000000;stroke-width:3"
     transform="translate(9.29966,667.30652)" />
  <text
     x="96.452782"
     y="151.13309"
     font-size="40.00"
     id="text14-4"
     style="font-size:44.79999924px;font-style:normal;font-variant:normal;font-weight:normal;font-stretch:normal;text-anchor:middle;fill:#ffffff;font-family:Arial;-inkscape-font-specification:Arial">0</text>
  <ellipse
     cx="87"
     cy="-368"
     rx="39.096699"
     ry="39.598"
     id="ellipse19-0"
     d="m 126.0967,-368 c 0,21.86937 -17.50419,39.598 -39.0967,39.598 -21.59251,0 -39.096699,-17.72863 -39.096699,-39.598 0,-21.86937 17.504189,-39.598 39.096699,-39.598 21.59251,0 39.0967,17.72863 39.0967,39.598 z"
     sodipodi:cx="87"
     sodipodi:cy="-368"
     sodipodi:rx="39.096699"
     sodipodi:ry="39.598"
     style="fill:none;stroke:#000000;stroke-width:3"
     transform="translate(9.29966,657.70652)" />
  <text
     x="97.984032"
     y="305.80652"
     font-size="40.00"
     id="text21-9"
     style="font-size:44.79999924px;font-style:normal;font-variant:normal;font-weight:normal;font-stretch:normal;text-anchor:middle;font-family:Arial;-inkscape-font-specification:Arial">1</text>
  <path
     d="m 96.29966,173.40652 c 0,19.368 0,35.071 0,56.566"
     id="path26-4"
     inkscape:connector-curvature="0"
     style="fill:none;stroke:#000000;stroke-width:3"
     sodipodi:nodetypes="cc" />
  <polygon
     points="87,-407.618 80.0001,-427.618 94.0001,-427.618 94.0001,-427.618 "
     id="polygon28-8"
     style="fill:#000000;stroke:#000000"
     transform="translate(9.29966,657.70652)" />
  <text
     x="111.99965"
     y="216.50655"
     font-size="40.00"
     id="text30-8"
     style="font-size:44.79999924px;font-style:normal;font-variant:normal;font-weight:normal;font-stretch:normal;text-anchor:middle;font-family:Arial;-inkscape-font-specification:Arial">a</text>
  <ellipse
     cx="87"
     cy="-204"
     rx="39.096699"
     ry="39.598"
     id="ellipse35-2"
     d="m 126.0967,-204 c 0,21.86937 -17.50419,39.598 -39.0967,39.598 -21.59251,0 -39.096699,-17.72863 -39.096699,-39.598 0,-21.86937 17.504189,-39.598 39.096699,-39.598 21.59251,0 39.0967,17.72863 39.0967,39.598 z"
     sodipodi:cx="87"
     sodipodi:cy="-204"
     sodipodi:rx="39.096699"
     sodipodi:ry="39.598"
     style="fill:none;stroke:#000000;stroke-width:3"
     transform="translate(9.29966,648.10652)" />
  <text
     x="96.835594"
     y="460.20651"
     font-size="40.00"
     id="text37-4"
     style="font-size:44.79999924px;font-style:normal;font-variant:normal;font-weight:normal;font-stretch:normal;text-anchor:middle;font-family:Arial;-inkscape-font-specification:Arial">2</text>
  <path
     d="m 96.47307,328.25427 c 0,16.78189 0,37.31996 0,55.94486"
     id="path42-5"
     inkscape:connector-curvature="0"
     style="fill:none;stroke:#000000;stroke-width:3" />
  <polygon
     points="94.0001,-263.618 94.0001,-263.618 87,-243.618 80.0001,-263.618 "
     id="polygon44-5"
     style="fill:#000000;stroke:#000000"
     transform="translate(9.29966,648.10652)" />
  <text
     x="111.99965"
     y="370.90652"
     font-size="40.00"
     id="text46-1"
     style="font-size:44.79999924px;font-style:normal;font-variant:normal;font-weight:normal;font-stretch:normal;text-anchor:middle;font-family:Arial;-inkscape-font-specification:Arial">a</text>
  <ellipse
     cx="38"
     cy="-38"
     rx="38.1838"
     ry="38.1838"
     id="ellipse51-8"
     d="M 76.1838,-38 C 76.1838,-16.91167 59.08833,0.18379974 38,0.18379974 16.91167,0.18379974 -0.18379974,-16.91167 -0.18379974,-38 -0.18379974,-59.08833 16.91167,-76.1838 38,-76.1838 c 21.08833,0 38.1838,17.09547 38.1838,38.1838 z"
     sodipodi:cx="38"
     sodipodi:cy="-38"
     sodipodi:rx="38.1838"
     sodipodi:ry="38.1838"
     style="fill:none;stroke:#000000;stroke-width:3"
     transform="translate(1.6838,643.03263)" />
  <text
     x="39.771301"
     y="620.84827"
     font-size="40.00"
     id="text53-1"
     style="font-size:40.00000381px;font-style:normal;font-variant:normal;font-weight:normal;font-stretch:normal;text-anchor:middle;font-family:Arial;-inkscape-font-specification:Arial">
    <tspan
       style="font-size:44.80000305px"
       id="tspan3335">3</tspan>
  </text>
  <path
     d="m 62.52741,467.44762 c -11.677,9.292 -23.54211,21.402 -29.84361,35.58501 -6.1935,13.94 -7.4399,30.015 -6.3627,45.2212"
     id="path58-0"
     inkscape:connector-curvature="0"
     style="fill:none;stroke:#000000;stroke-width:3.00000024" />
  <polygon
     points="17.7111,-93.7601 31.5876,-95.6156 31.5876,-95.6156 27.3,-74.8642 "
     id="polygon60-3"
     style="fill:#000000;stroke:#000000"
     transform="translate(1.6838,643.03263)" />
  <text
     x="42.183823"
     y="539.03259"
     font-size="40.00"
     id="text62-2"
     style="font-size:44.80000305px;font-style:normal;font-variant:normal;font-weight:normal;font-stretch:normal;text-anchor:middle;font-family:Arial;-inkscape-font-specification:Arial">a</text>
  <ellipse
     cx="149"
     cy="-38"
     rx="38.1838"
     ry="38.1838"
     id="ellipse67-5"
     d="m 187.1838,-38 c 0,21.08833 -17.09547,38.18379974 -38.1838,38.18379974 -21.08833,0 -38.1838,-17.09546974 -38.1838,-38.18379974 0,-21.08833 17.09547,-38.1838 38.1838,-38.1838 21.08833,0 38.1838,17.09547 38.1838,38.1838 z"
     sodipodi:cx="149"
     sodipodi:cy="-38"
     sodipodi:rx="38.1838"
     sodipodi:ry="38.1838"
     style="fill:none;stroke:#000000;stroke-width:3"
     transform="translate(1.6838,643.03263)" />
  <text
     x="151.49318"
     y="621.06702"
     font-size="40.00"
     id="text69-0"
     style="font-size:40.00000381px;font-style:normal;font-variant:normal;font-weight:normal;font-stretch:normal;text-anchor:middle;font-family:Arial;-inkscape-font-specification:Arial">
    <tspan
       style="font-size:44.80000305px"
       id="tspan3337">4</tspan>
  </text>
  <path
     d="m 99.73461,484.73962 c 3.3912,19.63301 8.7712,43.76101 16.9492,64.29301 0.872,2.1893 1.826,4.3909 2.842,6.5887"
     id="path74-3"
     inkscape:connector-curvature="0"
     style="fill:none;stroke:#000000;stroke-width:3.00000024" />
  <polygon
     points="111.734,-83.9876 124.094,-90.5626 124.094,-90.5626 127.307,-69.6179 "
     id="polygon76-2"
     style="fill:#000000;stroke:#000000"
     transform="translate(1.6838,643.03263)" />
  <text
     x="127.18379"
     y="539.03259"
     font-size="40.00"
     id="text78-2"
     style="font-size:44.80000305px;font-style:normal;font-variant:normal;font-weight:normal;font-stretch:normal;text-anchor:middle;font-family:Arial;-inkscape-font-specification:Arial">b</text>
  <path
     d="m 52.04681,568.64492 c 6.6503,-19.48239 15.0273,-43.87829 22.637,-65.61229 0.1429,-0.408 0.2864,-0.818 0.4305,-1.229"
     id="path83"
     inkscape:connector-curvature="0"
     style="fill:none;stroke:#000000;stroke-width:3.00000024" />
  <polygon
     points="80.0618,-138.985 66.8628,-143.653 66.8628,-143.653 80.1303,-160.175 "
     id="polygon85"
     style="fill:#000000;stroke:#000000"
     transform="translate(1.6838,643.03263)" />
  <text
     x="84.183792"
     y="539.03259"
     font-size="40.00"
     id="text87"
     style="font-size:44.80000305px;font-style:normal;font-variant:normal;font-weight:normal;font-stretch:normal;text-anchor:middle;font-family:Arial;-inkscape-font-specification:Arial">a</text>
  <path
     d="m 150.54581,567.00103 c -1.224,-19.7222 -4.566,-43.8314 -12.862,-63.9684 -1.605,-3.896 -3.554,-7.755 -5.727,-11.518"
     id="path92"
     inkscape:connector-curvature="0"
     style="fill:none;stroke:#000000;stroke-width:3.00000024" />
  <polygon
     points="135.974,-155.583 124.396,-147.712 124.396,-147.712 118.941,-168.188 "
     id="polygon94"
     style="fill:#000000;stroke:#000000"
     transform="translate(1.6838,643.03263)" />
  <text
     x="154.18379"
     y="539.03259"
     font-size="40.00"
     id="text96"
     style="font-size:44.80000305px;font-style:normal;font-variant:normal;font-weight:normal;font-stretch:normal;text-anchor:middle;font-family:Arial;-inkscape-font-specification:Arial">f</text>
  <ellipse
     transform="translate(353.20623,533.97422)"
     style="fill:#000000;stroke:#000000;stroke-width:3"
     sodipodi:ry="39.598"
     sodipodi:rx="39.096699"
     sodipodi:cy="-204"
     sodipodi:cx="39"
     d="m 78.096699,-204 c 0,21.86937 -17.504189,39.598 -39.096699,39.598 -21.59251,0 -39.09669876,-17.72863 -39.09669876,-39.598 0,-21.86937 17.50418876,-39.598 39.09669876,-39.598 21.59251,0 39.096699,17.72863 39.096699,39.598 z"
     id="ellipse3173"
     ry="39.598"
     rx="39.096699"
     cy="-204"
     cx="39" />
  <text
     style="font-size:44.79999924px;font-style:normal;font-variant:normal;font-weight:normal;font-stretch:normal;text-anchor:middle;fill:#ffffff;font-family:Arial;-inkscape-font-specification:Arial"
     id="text3175"
     font-size="40.00"
     y="345.80078"
     x="392.29373">8</text>
  <polygon
     transform="matrix(-0.97437006,-0.22495106,0.22495106,-0.97437006,438.68365,299.34876)"
     style="fill:#000000;stroke:#000000"
     id="polygon3187"
     points="46.0001,-99.6181 39,-79.6181 32.0001,-99.6182 46.0001,-99.6181 " />
  <text
     style="font-size:44.79999924px;font-style:normal;font-variant:normal;font-weight:normal;font-stretch:normal;text-anchor:middle;font-family:Arial;-inkscape-font-specification:Arial"
     id="text3189"
     font-size="40.00"
     y="450.04874"
     x="392.96964">f</text>
  <path
     sodipodi:nodetypes="ccc"
     inkscape:connector-curvature="0"
     id="path3191"
     d="m 400.92287,364.39516 c 37.48449,47.10953 -34.5803,58.28647 -21.43829,16.99223 l 1.14604,-5.04257"
     style="fill:none;stroke:#000000;stroke-width:2.80000019;stroke-linecap:butt;stroke-linejoin:miter;stroke-miterlimit:0;stroke-opacity:1;stroke-dasharray:none;stroke-dashoffset:0" />
</svg>
