<?xml version="1.0" encoding="UTF-8" standalone="no"?>
<!-- Created with Inkscape (http://www.inkscape.org/) -->

<svg
   xmlns:dc="http://purl.org/dc/elements/1.1/"
   xmlns:cc="http://creativecommons.org/ns#"
   xmlns:rdf="http://www.w3.org/1999/02/22-rdf-syntax-ns#"
   xmlns:svg="http://www.w3.org/2000/svg"
   xmlns="http://www.w3.org/2000/svg"
   xmlns:sodipodi="http://sodipodi.sourceforge.net/DTD/sodipodi-0.dtd"
   xmlns:inkscape="http://www.inkscape.org/namespaces/inkscape"
   width="592.58136"
   height="475.29404"
   id="svg2"
   version="1.1"
   inkscape:version="0.48.2 r9819"
   sodipodi:docname="subsets-ltss-left.svg">
  <defs
     id="defs4">
    <marker
       style="overflow:visible"
       id="Arrow1Lend"
       refX="0"
       refY="0"
       orient="auto"
       inkscape:stockid="Arrow1Lend">
      <path
         inkscape:connector-curvature="0"
         transform="matrix(-0.8,0,0,-0.8,-10,0)"
         style="fill-rule:evenodd;stroke:#000000;stroke-width:1pt;marker-start:none"
         d="M 0,0 5,-5 -12.5,0 5,5 0,0 z"
         id="path4840" />
    </marker>
  </defs>
  <sodipodi:namedview
     id="base"
     pagecolor="#ffffff"
     bordercolor="#666666"
     borderopacity="1.0"
     inkscape:pageopacity="0.0"
     inkscape:pageshadow="2"
     inkscape:zoom="0.51"
     inkscape:cx="671.60003"
     inkscape:cy="245.86818"
     inkscape:document-units="px"
     inkscape:current-layer="layer1"
     showgrid="false"
     fit-margin-top="0"
     fit-margin-left="0"
     fit-margin-right="0"
     fit-margin-bottom="0"
     inkscape:window-width="1680"
     inkscape:window-height="998"
     inkscape:window-x="-8"
     inkscape:window-y="-8"
     inkscape:window-maximized="1"
     showguides="true"
     inkscape:guide-bbox="true">
    <inkscape:grid
       type="xygrid"
       id="grid4087"
       empspacing="5"
       visible="true"
       enabled="true"
       snapvisiblegridlinesonly="true" />
  </sodipodi:namedview>
  <metadata
     id="metadata7">
    <rdf:RDF>
      <cc:Work
         rdf:about="">
        <dc:format>image/svg+xml</dc:format>
        <dc:type
           rdf:resource="http://purl.org/dc/dcmitype/StillImage" />
        <dc:title />
      </cc:Work>
    </rdf:RDF>
  </metadata>
  <g
     inkscape:label="Layer 1"
     inkscape:groupmode="layer"
     id="layer1"
     transform="translate(1069.8012,-387.98056)">
    <text
       xml:space="preserve"
       style="font-size:56px;font-style:normal;font-variant:normal;font-weight:normal;font-stretch:normal;line-height:125%;letter-spacing:0px;word-spacing:0px;fill:#000000;fill-opacity:1;stroke:none;font-family:Arial;-inkscape-font-specification:Arial"
       x="277.29678"
       y="74.215874"
       id="text3273"
       sodipodi:linespacing="125%"
       transform="translate(-1276.0808,-233.34098)"><tspan
         sodipodi:role="line"
         id="tspan3275"
         x="277.29678"
         y="74.215874"
         style="font-size:56px;font-style:normal;font-variant:normal;font-weight:normal;font-stretch:normal;font-family:Arial;-inkscape-font-specification:Arial" /></text>
    <ellipse
       id="ellipse4382"
       ry="39.598"
       rx="39.096699"
       cy="-43.377899"
       cx="286"
       sodipodi:cx="286"
       sodipodi:cy="-43.377899"
       sodipodi:rx="39.096699"
       sodipodi:ry="39.598"
       style="fill:#000000;stroke:#000000;stroke-width:3"
       d="M 325.0967,-43.377899 C 325.0967,-21.508528 307.59251,-3.7798996 286,-3.7798996 264.40749,-3.7798996 246.9033,-21.508528 246.9033,-43.377899 246.9033,-65.24727 264.40749,-82.975899 286,-82.975899 307.59251,-82.975899 325.0967,-65.24727 325.0967,-43.377899 z"
       transform="matrix(1.25,0,0,1.25,-1376.5553,694.7421)" />
    <text
       dy="0 0 0 12"
       id="text4384"
       font-size="40.00"
       y="660.56268"
       x="-1019.944"
       style="font-size:56px;font-style:normal;font-variant:normal;font-weight:normal;font-stretch:normal;text-anchor:middle;fill:#ffffff;font-family:Arial;-inkscape-font-specification:Arial">ii *</text>
    <path
       id="path4389"
       d="m -973.48528,622.2486 c 14.355,0.27888 25.67998,6.36937 25.67998,18.27113 0,3.3475 -0.8963,6.23512 -2.50248,8.66312"
       inkscape:connector-curvature="0"
       style="fill:none;stroke:#000000;stroke-width:3.75" />
    <polygon
       id="polygon4391"
       points="338.251,-42.8863 343.612,-29.9536 343.612,-29.9536 322.456,-28.7609 "
       style="fill:#000000;stroke:#000000"
       transform="matrix(1.25,0,0,1.25,-1376.5553,694.7421)" />
    <text
       xml:space="preserve"
       style="font-size:56px;font-style:normal;font-variant:normal;font-weight:normal;font-stretch:normal;text-align:justify;line-height:125%;letter-spacing:0px;word-spacing:0px;text-anchor:start;fill:#000000;fill-opacity:1;stroke:none;font-family:Arial;-inkscape-font-specification:Arial"
       x="-941.40826"
       y="652.92694"
       id="text6443"
       sodipodi:linespacing="125%"><tspan
         sodipodi:role="line"
         id="tspan6445"
         x="-941.40826"
         y="652.92694">κ1</tspan></text>
    <ellipse
       id="ellipse4357"
       ry="39.598"
       rx="39.096699"
       cy="-43.377899"
       cx="39"
       sodipodi:cx="39"
       sodipodi:cy="-43.377899"
       sodipodi:rx="39.096699"
       sodipodi:ry="39.598"
       style="fill:#000000;stroke:#000000;stroke-width:3"
       d="M 78.096699,-43.377899 C 78.096699,-21.508528 60.59251,-3.7798996 39,-3.7798996 17.40749,-3.7798996 -0.09669876,-21.508528 -0.09669876,-43.377899 -0.09669876,-65.24727 17.40749,-82.975899 39,-82.975899 60.59251,-82.975899 78.096699,-65.24727 78.096699,-43.377899 z"
       transform="matrix(1.25,0,0,1.25,-1067.8053,499.44786)" />
    <text
       dy="0 0 12"
       id="text4359"
       font-size="40.00"
       y="465.26846"
       x="-1019.944"
       style="font-size:56px;font-style:normal;font-variant:normal;font-weight:normal;font-stretch:normal;text-anchor:middle;fill:#ffffff;font-family:Arial;-inkscape-font-specification:Arial">i *</text>
    <path
       id="path4364"
       d="m -972.81937,427.5623 c 13.2064,0.43888 45.60236,5.67301 25.01412,17.66319 -0.15176,0.0884 -0.99039,2.06431 -1.00939,2.23481"
       inkscape:connector-curvature="0"
       style="fill:none;stroke:#000000;stroke-width:3.75"
       sodipodi:nodetypes="csc" />
    <polygon
       id="polygon4366"
       points="93.7118,-49.5882 98.5482,-36.4501 98.5482,-36.4501 77.3613,-36.11 "
       style="fill:#000000;stroke:#000000"
       transform="matrix(1.25,0,0,1.25,-1067.8053,499.44786)" />
    <path
       id="path4373"
       d="m -986.96928,407.74286 c 47.64153,-31.12613 121.66403,-18.63187 121.66403,37.48263 0,47.78506 -53.6775,63.93846 -99.03313,48.46025"
       inkscape:connector-curvature="0"
       style="fill:none;stroke:#000000;stroke-width:3.75" />
    <polygon
       id="polygon4375"
       points="85.7186,-10.9612 79.6085,1.63518 79.6085,1.63518 64.6688,-13.3917 "
       style="fill:#000000;stroke:#000000"
       transform="matrix(1.25,0,0,1.25,-1067.8053,499.44786)" />
    <text
       xml:space="preserve"
       style="font-size:56px;font-style:normal;font-variant:normal;font-weight:normal;font-stretch:normal;text-align:justify;line-height:125%;letter-spacing:0px;word-spacing:0px;text-anchor:start;fill:#000000;fill-opacity:1;stroke:none;font-family:Arial;-inkscape-font-specification:Arial"
       x="-859.80115"
       y="461.9184"
       id="text6439"
       sodipodi:linespacing="125%"><tspan
         sodipodi:role="line"
         id="tspan6441"
         x="-859.80115"
         y="461.9184">κ0</tspan></text>
    <text
       xml:space="preserve"
       style="font-size:56px;font-style:normal;font-variant:normal;font-weight:normal;font-stretch:normal;text-align:justify;line-height:125%;letter-spacing:0px;word-spacing:0px;text-anchor:start;fill:#000000;fill-opacity:1;stroke:none;font-family:Arial;-inkscape-font-specification:Arial"
       x="-936.35223"
       y="455.02069"
       id="text6453"
       sodipodi:linespacing="125%"><tspan
         style="font-size:56px;font-style:normal;font-variant:normal;font-weight:normal;font-stretch:normal;font-family:FreeSans;-inkscape-font-specification:FreeSans"
         sodipodi:role="line"
         id="tspan6455"
         x="-936.35223"
         y="455.02069">τ</tspan></text>
    <ellipse
       id="ellipse4630"
       ry="39.598"
       rx="39.096699"
       cy="-204"
       cx="202"
       sodipodi:cx="202"
       sodipodi:cy="-204"
       sodipodi:rx="39.096699"
       sodipodi:ry="39.598"
       style="fill:#000000;stroke:#000000;stroke-width:3"
       d="M 241.0967,-204 C 241.0967,-182.13063 223.59251,-164.402 202,-164.402 180.40749,-164.402 162.9033,-182.13063 162.9033,-204 162.9033,-225.86937 180.40749,-243.598 202,-243.598 223.59251,-243.598 241.0967,-225.86937 241.0967,-204 z"
       transform="matrix(1.25,0,0,1.25,-864.94761,1066.9021)" />
    <text
       dy="0 0 0 12"
       id="text4632"
       font-size="40.00"
       y="831.94507"
       x="-613.3363"
       style="font-size:56px;font-style:normal;font-variant:normal;font-weight:normal;font-stretch:normal;text-anchor:middle;fill:#ffffff;font-family:Arial;-inkscape-font-specification:Arial">ii *</text>
    <path
       id="path4637"
       d="m -567.22261,792.68833 c 14.51875,0.19625 26.025,6.60125 26.025,19.21375 0,3.74375 -1.01375,6.94125 -2.82,9.59125"
       inkscape:connector-curvature="0"
       style="fill:none;stroke:#000000;stroke-width:3.75" />
    <polygon
       id="polygon4639"
       points="259.336,-189.824 238.18,-188.629 253.973,-202.756 259.336,-189.824 "
       style="fill:#000000;stroke:#000000"
       transform="matrix(1.25,0,0,1.25,-864.94761,1066.9021)" />
    <text
       sodipodi:linespacing="125%"
       id="text6470"
       y="826.35583"
       x="-536.55573"
       style="font-size:56px;font-style:normal;font-variant:normal;font-weight:normal;font-stretch:normal;text-align:justify;line-height:125%;letter-spacing:0px;word-spacing:0px;text-anchor:start;fill:#000000;fill-opacity:1;stroke:none;font-family:Arial;-inkscape-font-specification:Arial"
       xml:space="preserve"><tspan
         y="826.35583"
         x="-536.55573"
         id="tspan6472"
         sodipodi:role="line">κ1</tspan></text>
    <ellipse
       id="ellipse4598"
       ry="39.598"
       rx="39.096699"
       cy="-204"
       cx="39"
       sodipodi:cx="39"
       sodipodi:cy="-204"
       sodipodi:rx="39.096699"
       sodipodi:ry="39.598"
       style="fill:#000000;stroke:#000000;stroke-width:3"
       d="M 78.096699,-204 C 78.096699,-182.13063 60.59251,-164.402 39,-164.402 17.40749,-164.402 -0.09669876,-182.13063 -0.09669876,-204 -0.09669876,-225.86937 17.40749,-243.598 39,-243.598 60.59251,-243.598 78.096699,-225.86937 78.096699,-204 z"
       transform="matrix(1.25,0,0,1.25,-661.19761,694.35306)" />
    <text
       id="text4600"
       font-size="40.00"
       y="459.39603"
       x="-613.3363"
       style="font-size:56px;font-style:normal;font-variant:normal;font-weight:normal;font-stretch:normal;text-anchor:middle;fill:#ffffff;font-family:Arial;-inkscape-font-specification:Arial"
       dy="0 0 12">i *</text>
    <path
       id="path4605"
       d="m -567.22274,420.13931 c 14.51838,0.19625 26.02513,6.60125 26.02513,19.21375 0,3.74375 -1.01413,6.94125 -2.82012,9.59125"
       inkscape:connector-curvature="0"
       style="fill:none;stroke:#000000;stroke-width:3.75" />
    <polygon
       id="polygon4607"
       points="96.3358,-189.824 96.3358,-189.824 75.1799,-188.629 90.9731,-202.756 "
       style="fill:#000000;stroke:#000000"
       transform="matrix(1.25,0,0,1.25,-661.19761,694.35306)" />
    <ellipse
       id="ellipse4614"
       ry="39.598"
       rx="39.096699"
       cy="-40"
       cx="39"
       sodipodi:cx="39"
       sodipodi:cy="-40"
       sodipodi:rx="39.096699"
       sodipodi:ry="39.598"
       style="fill:none;stroke:#000000;stroke-width:3"
       d="M 78.096699,-40 C 78.096699,-18.130629 60.59251,-0.40200043 39,-0.40200043 17.40749,-0.40200043 -0.09669876,-18.130629 -0.09669876,-40 -0.09669876,-61.869371 17.40749,-79.598 39,-79.598 60.59251,-79.598 78.096699,-61.869371 78.096699,-40 z"
       transform="matrix(1.25,0,0,1.25,-661.19761,694.35306)" />
    <text
       id="text4616"
       font-size="40.00"
       y="664.39606"
       x="-613.3363"
       style="font-size:56px;font-style:normal;font-variant:normal;font-weight:normal;font-stretch:normal;text-anchor:middle;font-family:Arial;-inkscape-font-specification:Arial"
       dy="0 0 0 0 12">iii *</text>
    <path
       id="path4621"
       d="m -612.44761,488.97806 c 0,24.21 0,53.83875 0,80.7076"
       inkscape:connector-curvature="0"
       style="fill:none;stroke:#000000;stroke-width:3.75" />
    <polygon
       id="polygon4623"
       points="46.0001,-99.6181 46.0001,-99.6181 39,-79.6181 32.0001,-99.6182 "
       style="fill:#000000;stroke:#000000"
       transform="matrix(1.25,0,0,1.25,-661.19761,694.35306)" />
    <text
       sodipodi:linespacing="125%"
       id="text6463"
       y="452.03162"
       x="-533.68463"
       style="font-size:56px;font-style:normal;font-variant:normal;font-weight:normal;font-stretch:normal;text-align:justify;line-height:125%;letter-spacing:0px;word-spacing:0px;text-anchor:start;fill:#000000;fill-opacity:1;stroke:none;font-family:Arial;-inkscape-font-specification:Arial"
       xml:space="preserve"><tspan
         y="452.03162"
         x="-533.68463"
         id="tspan6465"
         sodipodi:role="line">κ0</tspan></text>
    <text
       sodipodi:linespacing="125%"
       id="text6477"
       y="544.12885"
       x="-602.15454"
       style="font-size:56px;font-style:normal;font-variant:normal;font-weight:normal;font-stretch:normal;text-align:justify;line-height:125%;letter-spacing:0px;word-spacing:0px;text-anchor:start;fill:#000000;fill-opacity:1;stroke:none;font-family:Arial;-inkscape-font-specification:Arial"
       xml:space="preserve"><tspan
         y="544.12885"
         x="-602.15454"
         id="tspan6479"
         sodipodi:role="line"
         style="font-size:56px;font-style:normal;font-variant:normal;font-weight:normal;font-stretch:normal;font-family:FreeSans;-inkscape-font-specification:FreeSans">τ</tspan></text>
    <g
       id="g4391"
       transform="translate(-1902.2559,-790.29581)">
      <path
         inkscape:connector-curvature="0"
         id="path3137"
         style="fill:none;stroke:#000000;stroke-width:4;stroke-linecap:butt;stroke-linejoin:miter;stroke-miterlimit:4;stroke-opacity:1;stroke-dasharray:none"
         d="m 1011.2456,1321.0902 86.4162,26.04" />
      <path
         inkscape:connector-curvature="0"
         id="path3141"
         style="fill:none;stroke:#000000;stroke-width:4;stroke-linecap:butt;stroke-linejoin:miter;stroke-miterlimit:18.60000038;stroke-opacity:1;stroke-dasharray:none"
         d="m 1014.8006,1343.5815 89.9662,-16.5725" />
    </g>
    <path
       style="fill:none;stroke:#000000;stroke-width:3.75;stroke-linecap:butt;stroke-linejoin:miter;stroke-miterlimit:4;stroke-opacity:1;stroke-dasharray:3.75,11.25;stroke-dashoffset:0"
       d="m -1028.2683,481.1691 c 111.54392,57.07188 222.1981,116.60773 399.99998,-9.80392"
       id="path3603"
       inkscape:connector-curvature="0"
       sodipodi:nodetypes="cc" />
  </g>
</svg>
