<?xml version="1.0" encoding="UTF-8" standalone="no"?>
<!-- Created with Inkscape (http://www.inkscape.org/) -->

<svg
   xmlns:dc="http://purl.org/dc/elements/1.1/"
   xmlns:cc="http://creativecommons.org/ns#"
   xmlns:rdf="http://www.w3.org/1999/02/22-rdf-syntax-ns#"
   xmlns:svg="http://www.w3.org/2000/svg"
   xmlns="http://www.w3.org/2000/svg"
   xmlns:sodipodi="http://sodipodi.sourceforge.net/DTD/sodipodi-0.dtd"
   xmlns:inkscape="http://www.inkscape.org/namespaces/inkscape"
   width="467.21759"
   height="319.01019"
   id="svg2"
   version="1.1"
   inkscape:version="0.48.2 r9819"
   sodipodi:docname="subsets-ltss-right.svg">
  <defs
     id="defs4">
    <marker
       style="overflow:visible"
       id="Arrow1Lend"
       refX="0"
       refY="0"
       orient="auto"
       inkscape:stockid="Arrow1Lend">
      <path
         inkscape:connector-curvature="0"
         transform="matrix(-0.8,0,0,-0.8,-10,0)"
         style="fill-rule:evenodd;stroke:#000000;stroke-width:1pt;marker-start:none"
         d="M 0,0 5,-5 -12.5,0 5,5 0,0 z"
         id="path4840" />
    </marker>
  </defs>
  <sodipodi:namedview
     id="base"
     pagecolor="#ffffff"
     bordercolor="#666666"
     borderopacity="1.0"
     inkscape:pageopacity="0.0"
     inkscape:pageshadow="2"
     inkscape:zoom="0.51"
     inkscape:cx="-141.26315"
     inkscape:cy="122.08538"
     inkscape:document-units="px"
     inkscape:current-layer="layer1"
     showgrid="false"
     fit-margin-top="0"
     fit-margin-left="0"
     fit-margin-right="0"
     fit-margin-bottom="0"
     inkscape:window-width="1680"
     inkscape:window-height="998"
     inkscape:window-x="-8"
     inkscape:window-y="-8"
     inkscape:window-maximized="1"
     showguides="true"
     inkscape:guide-bbox="true">
    <inkscape:grid
       type="xygrid"
       id="grid4087"
       empspacing="5"
       visible="true"
       enabled="true"
       snapvisiblegridlinesonly="true" />
  </sodipodi:namedview>
  <metadata
     id="metadata7">
    <rdf:RDF>
      <cc:Work
         rdf:about="">
        <dc:format>image/svg+xml</dc:format>
        <dc:type
           rdf:resource="http://purl.org/dc/dcmitype/StillImage" />
        <dc:title />
      </cc:Work>
    </rdf:RDF>
  </metadata>
  <g
     inkscape:label="Layer 1"
     inkscape:groupmode="layer"
     id="layer1"
     transform="translate(-589.55672,-430.81642)">
    <text
       xml:space="preserve"
       style="font-size:56px;font-style:normal;font-variant:normal;font-weight:normal;font-stretch:normal;line-height:125%;letter-spacing:0px;word-spacing:0px;fill:#000000;fill-opacity:1;stroke:none;font-family:Arial;-inkscape-font-specification:Arial"
       x="277.29678"
       y="74.215874"
       id="text3273"
       sodipodi:linespacing="125%"
       transform="translate(-1276.0808,-233.34098)"><tspan
         sodipodi:role="line"
         id="tspan3275"
         x="277.29678"
         y="74.215874"
         style="font-size:56px;font-style:normal;font-variant:normal;font-weight:normal;font-stretch:normal;font-family:Arial;-inkscape-font-specification:Arial" /></text>
    <ellipse
       id="ellipse4850"
       ry="39.598"
       rx="39.096699"
       cy="-40"
       cx="202"
       sodipodi:cx="202"
       sodipodi:cy="-40"
       sodipodi:rx="39.096699"
       sodipodi:ry="39.598"
       style="fill:#000000;stroke:#000000;stroke-width:3"
       d="M 241.0967,-40 C 241.0967,-18.130629 223.59251,-0.40200043 202,-0.40200043 180.40749,-0.40200043 162.9033,-18.130629 162.9033,-40 162.9033,-61.869371 180.40749,-79.598 202,-79.598 223.59251,-79.598 241.0967,-61.869371 241.0967,-40 z"
       transform="matrix(1.25,0,0,1.25,387.80259,720.19607)" />
    <text
       id="text4852"
       font-size="40.00"
       y="684.71558"
       x="639.75574"
       style="font-size:56px;font-style:normal;font-variant:normal;font-weight:normal;font-stretch:normal;text-anchor:middle;fill:#ffffff;font-family:Arial;-inkscape-font-specification:Arial"
       dy="12 -12 0">* v</text>
    <path
       id="path4857"
       d="m 685.87258,651.92482 c 14.355,0.279 25.68,6.36937 25.68,18.27125 0,3.34738 -0.8962,6.23513 -2.5025,8.66313"
       inkscape:connector-curvature="0"
       style="fill:none;stroke:#000000;stroke-width:3.75" />
    <polygon
       id="polygon4859"
       points="238.456,-25.383 254.251,-39.5085 259.612,-26.5757 259.612,-26.5757 "
       style="fill:#000000;stroke:#000000"
       transform="matrix(1.25,0,0,1.25,387.80259,720.19607)" />
    <text
       sodipodi:linespacing="125%"
       id="text6654"
       y="682.4021"
       x="717.77747"
       style="font-size:56px;font-style:normal;font-variant:normal;font-weight:normal;font-stretch:normal;text-align:justify;line-height:125%;letter-spacing:0px;word-spacing:0px;text-anchor:start;fill:#000000;fill-opacity:1;stroke:none;font-family:Arial;-inkscape-font-specification:Arial"
       xml:space="preserve"><tspan
         y="682.4021"
         x="717.77747"
         id="tspan6656"
         sodipodi:role="line">κ4</tspan></text>
    <ellipse
       id="ellipse4834"
       ry="39.598"
       rx="39.096699"
       cy="-40"
       cx="39"
       sodipodi:cx="39"
       sodipodi:cy="-40"
       sodipodi:rx="39.096699"
       sodipodi:ry="39.598"
       style="fill:#000000;stroke:#000000;stroke-width:3"
       d="M 78.096699,-40 C 78.096699,-18.130629 60.59251,-0.40200043 39,-0.40200043 17.40749,-0.40200043 -0.09669876,-18.130629 -0.09669876,-40 -0.09669876,-61.869371 17.40749,-79.598 39,-79.598 60.59251,-79.598 78.096699,-61.869371 78.096699,-40 z"
       transform="matrix(1.25,0,0,1.25,591.55259,533.64634)" />
    <text
       id="text4836"
       font-size="40.00"
       y="497.6893"
       x="639.75574"
       style="font-size:56px;font-style:normal;font-variant:normal;font-weight:normal;font-stretch:normal;text-anchor:middle;fill:#ffffff;font-family:Arial;-inkscape-font-specification:Arial"
       dy="12 0 -12">* iv</text>
    <path
       id="path4841"
       d="m 685.87259,465.37509 c 14.3551,0.279 25.68,6.36937 25.68,18.27125 0,3.34738 -0.8959,6.23513 -2.5029,8.66313"
       inkscape:connector-curvature="0"
       style="fill:none;stroke:#000000;stroke-width:3.75" />
    <polygon
       id="polygon4843"
       points="96.612,-26.5757 75.456,-25.383 91.2507,-39.5085 96.612,-26.5757 "
       style="fill:#000000;stroke:#000000"
       transform="matrix(1.25,0,0,1.25,591.55259,533.64634)" />
    <text
       sodipodi:linespacing="125%"
       id="text6661"
       y="497.87265"
       x="717.49689"
       style="font-size:56px;font-style:normal;font-variant:normal;font-weight:normal;font-stretch:normal;text-align:justify;line-height:125%;letter-spacing:0px;word-spacing:0px;text-anchor:start;fill:#000000;fill-opacity:1;stroke:none;font-family:Arial;-inkscape-font-specification:Arial"
       xml:space="preserve"><tspan
         y="497.87265"
         x="717.49689"
         id="tspan6663"
         sodipodi:role="line">κ3</tspan></text>
    <ellipse
       id="ellipse5045"
       ry="39.598"
       rx="39.096699"
       cy="-40"
       cx="39"
       sodipodi:cx="39"
       sodipodi:cy="-40"
       sodipodi:rx="39.096699"
       sodipodi:ry="39.598"
       style="fill:#000000;stroke:#000000;stroke-width:3"
       d="M 78.096699,-40 C 78.096699,-18.130629 60.59251,-0.40200043 39,-0.40200043 17.40749,-0.40200043 -0.09669876,-18.130629 -0.09669876,-40 -0.09669876,-61.869371 17.40749,-79.598 39,-79.598 60.59251,-79.598 78.096699,-61.869371 78.096699,-40 z"
       transform="matrix(1.25,0,0,1.25,873.04135,532.18892)" />
    <text
       id="text5047"
       font-size="40.00"
       y="502.2319"
       x="921.24445"
       style="font-size:56px;font-style:normal;font-variant:normal;font-weight:normal;font-stretch:normal;text-anchor:middle;fill:#ffffff;font-family:Arial;-inkscape-font-specification:Arial"
       dy="12 -12">* iv</text>
    <path
       id="path5052"
       d="m 967.36135,463.91766 c 14.3551,0.279 25.68,6.36938 25.68,18.27125 0,3.34738 -0.8959,6.23514 -2.5029,8.66314"
       inkscape:connector-curvature="0"
       style="fill:none;stroke:#000000;stroke-width:3.75" />
    <polygon
       id="polygon5054"
       points="96.612,-26.5757 75.456,-25.383 91.2507,-39.5085 96.612,-26.5757 "
       style="fill:#000000;stroke:#000000"
       transform="matrix(1.25,0,0,1.25,873.04135,532.18892)" />
    <text
       xml:space="preserve"
       style="font-size:56px;font-style:normal;font-variant:normal;font-weight:normal;font-stretch:normal;text-align:justify;line-height:125%;letter-spacing:0px;word-spacing:0px;text-anchor:start;fill:#000000;fill-opacity:1;stroke:none;font-family:Arial;-inkscape-font-specification:Arial"
       x="998.03595"
       y="495.23172"
       id="text6671"
       sodipodi:linespacing="125%"><tspan
         sodipodi:role="line"
         id="tspan6673"
         x="998.03595"
         y="495.23172">κ3</tspan></text>
    <ellipse
       id="ellipse5061"
       ry="39.598"
       rx="39.096699"
       cy="-40"
       cx="202"
       sodipodi:cx="202"
       sodipodi:cy="-40"
       sodipodi:rx="39.096699"
       sodipodi:ry="39.598"
       style="fill:#000000;stroke:#000000;stroke-width:3"
       d="M 241.0967,-40 C 241.0967,-18.130629 223.59251,-0.40200043 202,-0.40200043 180.40749,-0.40200043 162.9033,-18.130629 162.9033,-40 162.9033,-61.869371 180.40749,-79.598 202,-79.598 223.59251,-79.598 241.0967,-61.869371 241.0967,-40 z"
       transform="matrix(1.25,0,0,1.25,669.29135,721.6535)" />
    <text
       id="text5063"
       font-size="40.00"
       y="686.17303"
       x="921.24445"
       style="font-size:56px;font-style:normal;font-variant:normal;font-weight:normal;font-stretch:normal;text-anchor:middle;fill:#ffffff;font-family:Arial;-inkscape-font-specification:Arial"
       dy="12 -12">* v</text>
    <path
       id="path5068"
       d="m 967.36132,653.38225 c 14.355,0.279 25.68,6.36938 25.68,18.27125 0,3.34738 -0.8962,6.23513 -2.5025,8.66313"
       inkscape:connector-curvature="0"
       style="fill:none;stroke:#000000;stroke-width:3.75" />
    <polygon
       id="polygon5070"
       points="254.251,-39.5085 259.612,-26.5757 259.612,-26.5757 238.456,-25.383 "
       style="fill:#000000;stroke:#000000"
       transform="matrix(1.25,0,0,1.25,669.29135,721.6535)" />
    <text
       xml:space="preserve"
       style="font-size:56px;font-style:normal;font-variant:normal;font-weight:normal;font-stretch:normal;text-align:justify;line-height:125%;letter-spacing:0px;word-spacing:0px;text-anchor:start;fill:#000000;fill-opacity:1;stroke:none;font-family:Arial;-inkscape-font-specification:Arial"
       x="1000.3368"
       y="684.69629"
       id="text6675"
       sodipodi:linespacing="125%"><tspan
         sodipodi:role="line"
         id="tspan6677"
         x="1000.3368"
         y="684.69629">κ4</tspan></text>
    <path
       style="fill:none;stroke:#000000;stroke-width:3.75;stroke-linecap:butt;stroke-linejoin:miter;stroke-miterlimit:4;stroke-opacity:1;stroke-dasharray:3.75,11.25;stroke-dashoffset:0"
       d="m 636.8242,523.31691 c 101.1776,54.24908 196.4407,61.18238 282.8427,-2.77297"
       id="path4397"
       inkscape:connector-curvature="0"
       sodipodi:nodetypes="cc" />
    <path
       style="fill:none;stroke:#000000;stroke-width:3.75;stroke-linecap:butt;stroke-linejoin:miter;stroke-miterlimit:4;stroke-opacity:1;stroke-dasharray:3.75,11.25;stroke-dashoffset:0"
       d="m 639.5971,706.33278 c 91.0677,48.19812 184.406,62.33697 282.8427,0"
       id="path4399"
       inkscape:connector-curvature="0"
       sodipodi:nodetypes="cc" />
  </g>
</svg>
