<?xml version="1.0" encoding="UTF-8" standalone="no"?>
<!-- Generated by graphviz version 2.26.3 (20100126.1600)
 -->

<!-- Title: LegoCase Pages: 1 -->

<svg
   xmlns:dc="http://purl.org/dc/elements/1.1/"
   xmlns:cc="http://creativecommons.org/ns#"
   xmlns:rdf="http://www.w3.org/1999/02/22-rdf-syntax-ns#"
   xmlns:svg="http://www.w3.org/2000/svg"
   xmlns="http://www.w3.org/2000/svg"
   xmlns:sodipodi="http://sodipodi.sourceforge.net/DTD/sodipodi-0.dtd"
   xmlns:inkscape="http://www.inkscape.org/namespaces/inkscape"
   width="815.82806"
   height="502.13776"
   viewBox="0 0 651.76358 401.7102"
   id="svg2"
   version="1.1"
   inkscape:version="0.48.1 "
   sodipodi:docname="ConveyorExampleCommunication.svg">
  <metadata
     id="metadata230">
    <rdf:RDF>
      <cc:Work
         rdf:about="">
        <dc:format>image/svg+xml</dc:format>
        <dc:type
           rdf:resource="http://purl.org/dc/dcmitype/StillImage" />
        <dc:title></dc:title>
      </cc:Work>
    </rdf:RDF>
  </metadata>
  <defs
     id="defs228" />
  <sodipodi:namedview
     pagecolor="#ffffff"
     bordercolor="#666666"
     borderopacity="1"
     objecttolerance="10"
     gridtolerance="10"
     guidetolerance="10"
     inkscape:pageopacity="0"
     inkscape:pageshadow="2"
     inkscape:window-width="1680"
     inkscape:window-height="998"
     id="namedview226"
     showgrid="false"
     fit-margin-top="0"
     fit-margin-left="0"
     fit-margin-right="0"
     fit-margin-bottom="0"
     inkscape:zoom="0.65"
     inkscape:cx="563.94074"
     inkscape:cy="139.51439"
     inkscape:window-x="-8"
     inkscape:window-y="-8"
     inkscape:window-maximized="1"
     inkscape:current-layer="svg2">
    <inkscape:grid
       type="xygrid"
       id="grid3375"
       empspacing="5"
       visible="true"
       enabled="true"
       snapvisiblegridlinesonly="true" />
  </sodipodi:namedview>
  <polygon
     points="305.538,-232 305.538,-268 305.538,-268 227.538,-268 227.538,-232 "
     id="polygon138"
     style="fill:none;stroke:#000000"
     transform="translate(13.182096,516.2)" />
  <text
     x="279.72009"
     y="270.80002"
     font-size="14.00"
     id="text140"
     style="font-size:14px;font-style:normal;font-variant:normal;font-weight:normal;font-stretch:normal;text-anchor:middle;font-family:Arial;-inkscape-font-specification:Arial">LeftSensor</text>
  <polygon
     points="215.538,-224 215.538,-516 317.538,-516 317.538,-224 215.538,-224 "
     id="polygon26"
     style="fill:none;stroke:#000000"
     transform="translate(13.182096,570.5)" />
  <text
     x="279.72009"
     y="71.100006"
     font-size="14.00"
     id="text28"
     style="font-size:14px;font-style:normal;font-variant:normal;font-weight:normal;font-stretch:normal;text-anchor:middle;font-family:Arial;-inkscape-font-specification:Arial">Middle: Middle</text>
  <polygon
     points="239.538,-484 239.538,-448 293.538,-448 293.538,-484 293.538,-484 "
     id="polygon47"
     style="fill:none;stroke:#000000"
     transform="translate(13.182096,570.50001)" />
  <text
     x="279.72009"
     y="109.10002"
     font-size="14.00"
     id="text49"
     style="font-size:14px;font-style:normal;font-variant:normal;font-weight:normal;font-stretch:normal;text-anchor:middle;font-family:Arial;-inkscape-font-specification:Arial">Right</text>
  <polygon
     points="223.538,-340 309.538,-340 309.538,-376 309.538,-376 223.538,-376 "
     id="polygon145"
     style="fill:none;stroke:#000000"
     transform="translate(13.182096,516.40001)" />
  <text
     x="279.72009"
     y="163.00002"
     font-size="14.00"
     id="text147"
     style="font-size:14px;font-style:normal;font-variant:normal;font-weight:normal;font-stretch:normal;text-anchor:middle;font-family:Arial;-inkscape-font-specification:Arial">RightSensor</text>
  <polygon
     points="293.538,-322 293.538,-322 239.538,-322 239.538,-286 293.538,-286 "
     id="polygon152"
     style="fill:none;stroke:#000000"
     transform="translate(13.182096,516.30001)" />
  <text
     x="279.72009"
     y="216.90001"
     font-size="14.00"
     id="text154"
     style="font-size:14px;font-style:normal;font-variant:normal;font-weight:normal;font-stretch:normal;text-anchor:middle;font-family:Arial;-inkscape-font-specification:Arial">Motor</text>
  <polygon
     points="213.358,-354.5 213.358,-361.5 213.358,-361.5 223.358,-358 "
     id="polygon196"
     style="fill:#000000;stroke:#000000;stroke-width:1"
     transform="matrix(0.98480776,-0.17364818,0.17364818,0.98480776,93.625723,494.15464)" />
  <polygon
     style="fill:none;stroke:#000000"
     id="polygon3359"
     points="239.538,-430 239.538,-394 293.538,-394 293.538,-430 293.538,-430 "
     transform="translate(13.182096,732.1)" />
  <text
     style="font-size:14px;font-style:normal;font-variant:normal;font-weight:normal;font-stretch:normal;text-anchor:middle;font-family:Arial;-inkscape-font-specification:Arial"
     id="text3361"
     font-size="14.00"
     y="324.70001"
     x="279.72009">Left</text>
  <polygon
     transform="matrix(0.98480776,0.17364818,-0.17364818,0.98480776,-30.711996,636.10498)"
     style="fill:#000000;stroke:#000000"
     id="polygon3373"
     points="213.358,-361.5 223.358,-358 213.358,-354.5 213.358,-361.5 " />
  <polygon
     points="31.5376,-408 195.538,-408 195.538,-8 31.5376,-8 31.5376,-8 "
     id="polygon33"
     style="fill:none;stroke:#000000;stroke-width:0.95632064"
     transform="matrix(1.0934349,0,0,1,437.90492,408.5)" />
  <text
     x="562.05164"
     y="17.100004"
     font-size="14.00"
     id="text35"
     style="font-size:14px;font-style:normal;font-variant:normal;font-weight:normal;font-stretch:normal;text-anchor:middle;font-family:Arial;-inkscape-font-specification:Arial">Environment: Environment</text>
  <polygon
     points="154.538,-232 154.538,-268 154.538,-268 72.5376,-268 72.5376,-232 "
     id="polygon75"
     style="fill:none;stroke:#000000"
     transform="translate(448.51331,299.70002)" />
  <text
     x="562.05133"
     y="54.300026"
     font-size="14.00"
     id="text77"
     style="font-size:14px;font-style:normal;font-variant:normal;font-weight:normal;font-stretch:normal;text-anchor:middle;font-family:Arial;-inkscape-font-specification:Arial">RightMotor</text>
  <polygon
     points="76.5376,-160 76.5376,-124 150.538,-124 150.538,-160 150.538,-160 "
     id="polygon124"
     style="fill:none;stroke:#000000"
     transform="translate(448.51331,515.7)" />
  <text
     x="562.05133"
     y="378.30002"
     font-size="14.00"
     id="text126"
     style="font-size:14px;font-style:normal;font-variant:normal;font-weight:normal;font-stretch:normal;text-anchor:middle;font-family:Arial;-inkscape-font-specification:Arial">LeftMotor</text>
  <polygon
     points="158.538,-286 158.538,-322 158.538,-322 68.5376,-322 68.5376,-286 "
     id="polygon159"
     style="fill:none;stroke:#000000"
     transform="translate(448.51331,515.7)" />
  <text
     x="562.05133"
     y="216.3"
     font-size="14.00"
     id="text161"
     style="font-size:14px;font-style:normal;font-variant:normal;font-weight:normal;font-stretch:normal;text-anchor:middle;font-family:Arial;-inkscape-font-specification:Arial">MiddleMotor</text>
  <polygon
     points="171.538,-16 171.538,-52 171.538,-52 55.5376,-52 55.5376,-16 "
     id="polygon173"
     style="fill:none;stroke:#000000"
     transform="translate(448.51331,299.7)" />
  <text
     x="562.05133"
     y="270.30002"
     font-size="14.00"
     id="text175"
     style="font-size:14px;font-style:normal;font-variant:normal;font-weight:normal;font-stretch:normal;text-anchor:middle;font-family:Arial;-inkscape-font-specification:Arial">MiddleLeftSensor</text>
  <polygon
     points="51.5376,-340 175.538,-340 175.538,-376 175.538,-376 51.5376,-376 "
     id="polygon187"
     style="fill:none;stroke:#000000"
     transform="translate(448.51331,515.70002)" />
  <text
     x="562.05133"
     y="162.30002"
     font-size="14.00"
     id="text189"
     style="font-size:14px;font-style:normal;font-variant:normal;font-weight:normal;font-stretch:normal;text-anchor:middle;font-family:Arial;-inkscape-font-specification:Arial">MiddleRightSensor</text>
  <polygon
     points="74.5376,-178 152.538,-178 152.538,-214 152.538,-214 74.5376,-214 "
     id="polygon201"
     style="fill:none;stroke:#000000"
     transform="translate(448.51331,515.7)" />
  <text
     x="562.05133"
     y="324.30002"
     font-size="14.00"
     id="text203"
     style="font-size:14px;font-style:normal;font-variant:normal;font-weight:normal;font-stretch:normal;text-anchor:middle;font-family:Arial;-inkscape-font-specification:Arial">LeftSensor</text>
  <polygon
     points="156.538,-70 156.538,-106 156.538,-106 70.5376,-106 70.5376,-70 "
     id="polygon215"
     style="fill:none;stroke:#000000"
     transform="translate(448.51331,191.70002)" />
  <text
     x="562.05133"
     y="108.30002"
     font-size="14.00"
     id="text217"
     style="font-size:14px;font-style:normal;font-variant:normal;font-weight:normal;font-stretch:normal;text-anchor:middle;font-family:Arial;-inkscape-font-specification:Arial">RightSensor</text>
  <polygon
     points="213.358,-354.5 213.358,-361.5 213.358,-361.5 223.358,-358 "
     id="polygon3535"
     style="fill:#000000;stroke:#000000"
     transform="translate(291.86758,569.23426)" />
  <polygon
     transform="matrix(0.93969262,0.34202015,-0.34202015,0.93969262,187.61578,311.74903)"
     style="fill:#000000;stroke:#000000;stroke-width:1"
     id="polygon3633"
     points="213.358,-361.5 223.358,-358 213.358,-354.5 213.358,-361.5 " />
  <polygon
     points="213.358,-361.5 223.358,-358 213.358,-354.5 213.358,-361.5 "
     id="polygon3635"
     style="fill:#000000;stroke:#000000;stroke-width:1"
     transform="matrix(0.96592583,-0.25881905,0.25881905,0.96592583,400.87179,775.88803)" />
  <polygon
     transform="translate(163.89293,463.27175)"
     style="fill:#000000;stroke:#000000"
     id="polygon3639"
     points="169.443,-307.5 169.443,-300.5 169.443,-300.5 159.443,-304 " />
  <polygon
     points="169.443,-300.5 159.443,-304 169.443,-307.5 169.443,-300.5 "
     id="polygon3641"
     style="fill:#000000;stroke:#000000"
     transform="translate(160.56985,570.84098)" />
  <polygon
     points="73.5376,-600 153.538,-600 153.538,-416 73.5376,-416 73.5376,-416 "
     id="polygon19"
     style="fill:none;stroke:#000000"
     transform="translate(-73.487035,816.5)" />
  <text
     x="40.050968"
     y="233.09993"
     font-size="14.00"
     id="text21"
     style="font-size:14px;font-style:normal;font-variant:normal;font-weight:normal;font-stretch:normal;text-anchor:middle;font-family:Arial;-inkscape-font-specification:Arial">Left: Single</text>
  <polygon
     points="85.5376,-532 141.538,-532 141.538,-568 141.538,-568 85.5376,-568 "
     id="polygon89"
     style="fill:none;stroke:#000000"
     transform="translate(-73.487035,816.5)" />
  <text
     x="40.050968"
     y="271.09995"
     font-size="14.00"
     id="text91"
     style="font-size:14px;font-style:normal;font-variant:normal;font-weight:normal;font-stretch:normal;text-anchor:middle;font-family:Arial;-inkscape-font-specification:Arial">Middle</text>
  <polygon
     points="85.5376,-478 141.538,-478 141.538,-514 141.538,-514 85.5376,-514 "
     id="polygon110"
     style="fill:none;stroke:#000000"
     transform="translate(-73.487035,816.5)" />
  <text
     x="40.050968"
     y="325.09998"
     font-size="14.00"
     id="text112"
     style="font-size:14px;font-style:normal;font-variant:normal;font-weight:normal;font-stretch:normal;text-anchor:middle;font-family:Arial;-inkscape-font-specification:Arial">Sensor</text>
  <polygon
     points="86.5376,-460 86.5376,-424 140.538,-424 140.538,-460 140.538,-460 "
     id="polygon117"
     style="fill:none;stroke:#000000"
     transform="translate(-73.487035,816.5)" />
  <text
     x="40.050968"
     y="379.09998"
     font-size="14.00"
     id="text119"
     style="font-size:14px;font-style:normal;font-variant:normal;font-weight:normal;font-stretch:normal;text-anchor:middle;font-family:Arial;-inkscape-font-specification:Arial">Motor</text>
  <polygon
     transform="matrix(0.92050486,0.39073114,-0.39073114,0.92050486,-195.34174,539.07622)"
     style="fill:#000000;stroke:#000000;stroke-width:1"
     id="polygon3643"
     points="169.443,-300.5 169.443,-300.5 159.443,-304 169.443,-307.5 " />
  <polygon
     style="fill:none;stroke:#000000"
     id="polygon3367"
     points="141.538,-760 85.5376,-760 85.5376,-724 141.538,-724 141.538,-760 "
     transform="translate(-70.487035,899.7)" />
  <text
     style="font-size:14px;font-style:normal;font-variant:normal;font-weight:normal;font-stretch:normal;text-anchor:middle;font-family:Arial;-inkscape-font-specification:Arial"
     id="text3369"
     font-size="14.00"
     y="162.30002"
     x="43.050968">Middle</text>
  <polygon
     points="157.538,-608 70.5376,-608 70.5376,-608 70.5376,-792 157.538,-792 "
     id="polygon12"
     style="fill:none;stroke:#000000"
     transform="translate(-70.487035,792.5)" />
  <text
     x="43.550968"
     y="17.099979"
     font-size="14.00"
     id="text14"
     style="font-size:14px;font-style:normal;font-variant:normal;font-weight:normal;font-stretch:normal;text-anchor:middle;font-family:Arial;-inkscape-font-specification:Arial">Right: Single</text>
  <polygon
     points="141.538,-706 141.538,-706 85.5376,-706 85.5376,-670 141.538,-670 "
     id="polygon61"
     style="fill:none;stroke:#000000"
     transform="translate(-70.487035,792.05781)" />
  <text
     x="43.050968"
     y="108.65779"
     font-size="14.00"
     id="text63"
     style="font-size:14px;font-style:normal;font-variant:normal;font-weight:normal;font-stretch:normal;text-anchor:middle;font-family:Arial;-inkscape-font-specification:Arial">Sensor</text>
  <polygon
     points="86.5376,-616 140.538,-616 140.538,-652 140.538,-652 86.5376,-652 "
     id="polygon68"
     style="fill:none;stroke:#000000"
     transform="translate(-70.487035,684.41562)" />
  <text
     x="43.050968"
     y="55.015579"
     font-size="14.00"
     id="text70"
     style="font-size:14px;font-style:normal;font-variant:normal;font-weight:normal;font-stretch:normal;text-anchor:middle;font-family:Arial;-inkscape-font-specification:Arial">Motor</text>
  <polygon
     points="169.443,-300.5 169.443,-300.5 159.443,-304 169.443,-307.5 "
     id="polygon3645"
     style="fill:#000000;stroke:#000000;stroke-width:1"
     transform="matrix(0.90630779,-0.42261827,0.42261827,0.90630779,56.329386,449.35067)" />
  <path
     style="fill:none;stroke:#000000;stroke-width:0.80000001px;stroke-linecap:butt;stroke-linejoin:miter;stroke-opacity:1"
     d="M 69.962966,51.11261 C 221.19826,-15.374546 335.19374,-15.595082 511.19374,48.404918"
     id="path3647"
     inkscape:connector-curvature="0"
     sodipodi:nodetypes="cc" />
  <path
     style="fill:none;stroke:#000000;stroke-width:0.80000001px;stroke-linecap:butt;stroke-linejoin:miter;stroke-opacity:1"
     d="M 79.193734,103.4203 C 219.7126,19.49121 336.7322,16.635687 518.88605,104.0203"
     id="path3649"
     inkscape:connector-curvature="0"
     sodipodi:nodetypes="cc" />
  <path
     style="fill:none;stroke:#000000;stroke-width:0.80000001px;stroke-linecap:butt;stroke-linejoin:miter;stroke-opacity:1"
     d="M 70.57835,157.57415 244.11682,103.78953"
     id="path3651"
     inkscape:connector-curvature="0"
     sodipodi:nodetypes="cc" />
  <path
     style="fill:none;stroke:#000000;stroke-width:0.80000001px;stroke-linecap:butt;stroke-linejoin:miter;stroke-opacity:1"
     d="M 67.809119,266.6203 244.11682,321.14338"
     id="path3653"
     inkscape:connector-curvature="0"
     sodipodi:nodetypes="cc" />
  <path
     style="fill:none;stroke:#000000;stroke-width:0.80000001px;stroke-linecap:butt;stroke-linejoin:miter;stroke-opacity:1"
     d="M 522.7058,319.17415 C 375.0135,378.16657 214.70205,382.1047 79.193735,324.46646"
     id="path3655"
     inkscape:connector-curvature="0"
     sodipodi:nodetypes="cc" />
  <path
     style="fill:none;stroke:#000000;stroke-width:0.80000001px;stroke-linecap:butt;stroke-linejoin:miter;stroke-opacity:1"
     d="m 67.255273,374.06646 c 157.538467,29.53846 267.938467,42.33846 447.630767,0.4923"
     id="path3657"
     inkscape:connector-curvature="0"
     sodipodi:nodetypes="cc" />
  <path
     style="fill:none;stroke:#000000;stroke-width:0.80000001px;stroke-linecap:butt;stroke-linejoin:miter;stroke-opacity:1"
     d="m 503.80912,267.05107 -177.23076,0"
     id="path3659"
     inkscape:connector-curvature="0"
     sodipodi:nodetypes="cc" />
  <path
     style="fill:none;stroke:#000000;stroke-width:0.80000001px;stroke-linecap:butt;stroke-linejoin:miter;stroke-opacity:1"
     d="M 305.65527,212.09723 508.7322,210.86646"
     id="path3661"
     inkscape:connector-curvature="0" />
  <path
     style="fill:none;stroke:#000000;stroke-width:0.80000001px;stroke-linecap:butt;stroke-linejoin:miter;stroke-opacity:1"
     d="m 499.75633,159.14557 -167.02413,0"
     id="path3663"
     inkscape:connector-curvature="0"
     sodipodi:nodetypes="cc" />
</svg>
