<?xml version="1.0" encoding="UTF-8" standalone="no"?>
<!-- Generated by graphviz version 2.26.3 (20100126.1600)
 -->

<!-- Title: B Pages: 1 -->

<svg
   xmlns:dc="http://purl.org/dc/elements/1.1/"
   xmlns:cc="http://creativecommons.org/ns#"
   xmlns:rdf="http://www.w3.org/1999/02/22-rdf-syntax-ns#"
   xmlns:svg="http://www.w3.org/2000/svg"
   xmlns="http://www.w3.org/2000/svg"
   xmlns:sodipodi="http://sodipodi.sourceforge.net/DTD/sodipodi-0.dtd"
   xmlns:inkscape="http://www.inkscape.org/namespaces/inkscape"
   width="517.6803"
   height="246.25"
   viewBox="0 0 414.14423 197"
   id="svg2"
   version="1.1"
   inkscape:version="0.48.1 "
   sodipodi:docname="delays.svg">
  <metadata
     id="metadata76">
    <rdf:RDF>
      <cc:Work
         rdf:about="">
        <dc:format>image/svg+xml</dc:format>
        <dc:type
           rdf:resource="http://purl.org/dc/dcmitype/StillImage" />
        <dc:title />
      </cc:Work>
    </rdf:RDF>
  </metadata>
  <defs
     id="defs74" />
  <sodipodi:namedview
     pagecolor="#ffffff"
     bordercolor="#666666"
     borderopacity="1"
     objecttolerance="10"
     gridtolerance="10"
     guidetolerance="10"
     inkscape:pageopacity="0"
     inkscape:pageshadow="2"
     inkscape:window-width="1680"
     inkscape:window-height="998"
     id="namedview72"
     showgrid="true"
     fit-margin-top="0"
     fit-margin-left="0"
     fit-margin-right="0"
     fit-margin-bottom="0"
     inkscape:zoom="1.2727922"
     inkscape:cx="201.31859"
     inkscape:cy="82.809068"
     inkscape:window-x="-8"
     inkscape:window-y="-8"
     inkscape:window-maximized="1"
     inkscape:current-layer="svg2">
    <inkscape:grid
       type="xygrid"
       id="grid4138"
       empspacing="5"
       visible="true"
       enabled="true"
       snapvisiblegridlinesonly="true" />
  </sodipodi:namedview>
  <g
     id="g4060"
     transform="translate(286.14191,-6.4000002)">
    <ellipse
       transform="translate(1,231.1)"
       style="fill:#000000;stroke:#000000"
       sodipodi:ry="7.1999998"
       sodipodi:rx="7.1999998"
       sodipodi:cy="-217"
       sodipodi:cx="57"
       d="m 64.2,-217 c 0,3.97645 -3.22355,7.2 -7.2,7.2 -3.97645,0 -7.2,-3.22355 -7.2,-7.2 0,-3.97645 3.22355,-7.2 7.2,-7.2 3.97645,0 7.2,3.22355 7.2,7.2 z"
       id="ellipse12"
       ry="7.1999998"
       rx="7.1999998"
       cy="-217"
       cx="57" />
    <g
       transform="translate(0,6.4)"
       id="g4038">
      <polyline
         points="11.5,-113 102.5,-113 "
         id="polyline17"
         style="fill:none;stroke:#000000"
         transform="translate(1,210.3)" />
      <path
         d="m 103.5,97.3 c 6,0 12,-6 12,-12"
         id="path19"
         inkscape:connector-curvature="0"
         style="fill:none;stroke:#000000" />
      <polyline
         points="114.5,-125 114.5,-159 "
         id="polyline21"
         style="fill:none;stroke:#000000"
         transform="translate(1,210.3)" />
      <path
         d="m 115.5,51.3 c 0,-6 -6,-12 -12,-12"
         id="path23"
         inkscape:connector-curvature="0"
         style="fill:none;stroke:#000000" />
      <polyline
         points="102.5,-171 11.5,-171 "
         id="polyline25"
         style="fill:none;stroke:#000000"
         transform="translate(1,210.3)" />
      <path
         d="m 12.5,39.3 c -6,0 -12,6 -12,12"
         id="path27"
         inkscape:connector-curvature="0"
         style="fill:none;stroke:#000000" />
      <polyline
         points="-0.5,-159 -0.5,-125 "
         id="polyline29"
         style="fill:none;stroke:#000000"
         transform="translate(1,210.3)" />
      <path
         d="m 0.5,85.3 c 0,6 6,12 12,12"
         id="path31"
         inkscape:connector-curvature="0"
         style="fill:none;stroke:#000000" />
      <text
         x="58"
         y="72.900009"
         font-size="14.00"
         id="text33"
         style="font-size:14px;font-style:normal;font-variant:normal;font-weight:normal;font-stretch:normal;text-anchor:middle;font-family:Arial;-inkscape-font-specification:Arial">B0</text>
    </g>
    <path
       style="fill:none;stroke:#000000;stroke-width:0.99999994"
       inkscape:connector-curvature="0"
       id="path38"
       d="m 58,14.269364 c 0,5.082179 0,13.004245 0,21.079636" />
    <polygon
       transform="translate(1,216.7)"
       style="fill:#000000;stroke:#000000"
       id="polygon40"
       points="60.5001,-181.054 60.5001,-181.054 57,-171.054 53.5001,-181.054 " />
    <g
       transform="translate(0,-6.4)"
       id="g4049">
      <polyline
         points="11.5,-1 102.5,-1 "
         id="polyline45"
         style="fill:none;stroke:#000000"
         transform="translate(1,210.3)" />
      <path
         d="m 103.5,209.3 c 6,0 12,-6 12,-12"
         id="path47"
         inkscape:connector-curvature="0"
         style="fill:none;stroke:#000000" />
      <polyline
         points="114.5,-13 114.5,-47 "
         id="polyline49"
         style="fill:none;stroke:#000000"
         transform="translate(1,210.3)" />
      <path
         d="m 115.5,163.3 c 0,-6 -6,-12 -12,-12"
         id="path51"
         inkscape:connector-curvature="0"
         style="fill:none;stroke:#000000" />
      <polyline
         points="102.5,-59 11.5,-59 "
         id="polyline53"
         style="fill:none;stroke:#000000"
         transform="translate(1,210.3)" />
      <path
         d="m 12.5,151.3 c -6,0 -12,6 -12,12"
         id="path55"
         inkscape:connector-curvature="0"
         style="fill:none;stroke:#000000" />
      <polyline
         points="-0.5,-47 -0.5,-13 "
         id="polyline57"
         style="fill:none;stroke:#000000"
         transform="translate(1,210.3)" />
      <path
         d="m 0.5,197.3 c 0,6 6,12 12,12"
         id="path59"
         inkscape:connector-curvature="0"
         style="fill:none;stroke:#000000" />
      <text
         x="58"
         y="184.90001"
         font-size="14.00"
         id="text61"
         style="font-size:14px;font-style:normal;font-variant:normal;font-weight:normal;font-stretch:normal;text-anchor:middle;font-family:Arial;-inkscape-font-specification:Arial">B1</text>
    </g>
    <path
       style="fill:none;stroke:#000000;stroke-width:0.99999994"
       inkscape:connector-curvature="0"
       id="path66"
       d="m 58,103.58618 c 0,11.37068 0,24.99742 0,37.26692" />
    <polygon
       transform="translate(1,203.9)"
       style="fill:#000000;stroke:#000000"
       id="polygon68"
       points="60.5001,-69.3775 60.5001,-69.3775 57,-59.3775 53.5001,-69.3775 " />
    <text
       style="font-size:14px;font-style:normal;font-variant:normal;font-weight:normal;font-stretch:normal;text-anchor:middle;font-family:Arial;-inkscape-font-specification:Arial"
       id="text70"
       font-size="14.00"
       y="125.70001"
       x="95.599991"><tspan
   id="tspan3880"
   style="font-weight:bold">after</tspan>
 6 <tspan
   id="tspan3882"
   style="font-weight:bold">ms</tspan>
</text>
  </g>
  <g
     class="node"
     id="node1"
     transform="translate(0.99999923,226.3)">
    <title
       id="title10">A0_extra</title>
    <ellipse
       style="fill:#000000;stroke:#000000"
       sodipodi:ry="7.1999998"
       sodipodi:rx="7.1999998"
       sodipodi:cy="-217"
       sodipodi:cx="123"
       d="m 130.2,-217 c 0,3.97645 -3.22355,7.2 -7.2,7.2 -3.97645,0 -7.2,-3.22355 -7.2,-7.2 0,-3.97645 3.22355,-7.2 7.2,-7.2 3.97645,0 7.2,3.22355 7.2,7.2 z"
       id="ellipse12-9"
       ry="7.1999998"
       rx="7.1999998"
       cy="-217"
       cx="123" />
  </g>
  <g
     class="node"
     id="node2"
     transform="translate(0.99999923,211.9)">
    <title
       id="title15">A0</title>
    <polyline
       style="fill:none;stroke:#000000"
       id="polyline17-1"
       points="77.5,-113 168.5,-113 " />
    <path
       style="fill:none;stroke:#000000"
       inkscape:connector-curvature="0"
       id="path19-3"
       d="m 168.5,-113 c 6,0 12,-6 12,-12" />
    <polyline
       style="fill:none;stroke:#000000"
       id="polyline21-0"
       points="180.5,-125 180.5,-159 " />
    <path
       style="fill:none;stroke:#000000"
       inkscape:connector-curvature="0"
       id="path23-8"
       d="m 180.5,-159 c 0,-6 -6,-12 -12,-12" />
    <polyline
       style="fill:none;stroke:#000000"
       id="polyline25-1"
       points="168.5,-171 77.5,-171 " />
    <path
       style="fill:none;stroke:#000000"
       inkscape:connector-curvature="0"
       id="path27-9"
       d="m 77.5,-171 c -6,0 -12,6 -12,12" />
    <polyline
       style="fill:none;stroke:#000000"
       id="polyline29-2"
       points="65.5,-159 65.5,-125 " />
    <path
       style="fill:none;stroke:#000000"
       inkscape:connector-curvature="0"
       id="path31-0"
       d="m 65.5,-125 c 0,6 6,12 12,12" />
    <text
       style="font-size:14px;text-anchor:middle;font-family:'Times New Roman,serif'"
       id="text33-2"
       font-size="14.00"
       y="-137.39999"
       x="123">A0</text>
  </g>
  <path
     d="m 124,10.39602 c 0,4.858767 0,12.432581 0,20.15298"
     id="path38-4"
     inkscape:connector-curvature="0"
     style="fill:none;stroke:#000000;stroke-width:0.99999994" />
  <polygon
     points="119.5,-181.054 126.5,-181.054 126.5,-181.054 123,-171.054 "
     id="polygon40-7"
     style="fill:#000000;stroke:#000000"
     transform="translate(0.99999923,211.9)" />
  <g
     class="node"
     id="node4"
     transform="translate(0.99999923,197.5)">
    <title
       id="title43">A1</title>
    <polyline
       style="fill:none;stroke:#000000"
       id="polyline45-5"
       points="11.5,-1 102.5,-1 " />
    <path
       style="fill:none;stroke:#000000"
       inkscape:connector-curvature="0"
       id="path47-8"
       d="m 102.5,-1 c 6,0 12,-6 12,-12" />
    <polyline
       style="fill:none;stroke:#000000"
       id="polyline49-1"
       points="114.5,-13 114.5,-47 " />
    <path
       style="fill:none;stroke:#000000"
       inkscape:connector-curvature="0"
       id="path51-0"
       d="m 114.5,-47 c 0,-6 -6,-12 -12,-12" />
    <polyline
       style="fill:none;stroke:#000000"
       id="polyline53-0"
       points="102.5,-59 11.5,-59 " />
    <path
       style="fill:none;stroke:#000000"
       inkscape:connector-curvature="0"
       id="path55-7"
       d="m 11.5,-59 c -6,0 -12,6 -12,12" />
    <polyline
       style="fill:none;stroke:#000000"
       id="polyline57-1"
       points="-0.5,-47 -0.5,-13 " />
    <path
       style="fill:none;stroke:#000000"
       inkscape:connector-curvature="0"
       id="path59-6"
       d="m -0.5,-13 c 0,6 6,12 12,12" />
    <text
       style="font-size:14px;text-anchor:middle;font-family:'Times New Roman,serif'"
       id="text61-9"
       font-size="14.00"
       y="-25.4"
       x="57">A1</text>
  </g>
  <path
     d="M 87.084719,99.105212 70.911899,129.2981"
     id="path66-3"
     inkscape:connector-curvature="0"
     style="fill:none;stroke:#000000"
     sodipodi:nodetypes="cc" />
  <polygon
     points="74.3117,-59.3775 76.3733,-69.7699 82.4041,-66.216 82.4041,-66.216 "
     id="polygon68-0"
     style="fill:#000000;stroke:#000000"
     transform="translate(-8.6000008,197.5)" />
  <text
     x="117.28584"
     y="120.7281"
     font-size="14.00"
     id="text70-3"
     style="font-size:14px;font-style:normal;font-variant:normal;font-weight:normal;font-stretch:normal;text-anchor:middle;font-family:Arial;-inkscape-font-specification:Arial"><tspan
   style="font-weight:bold"
   id="tspan3142">after</tspan>

 1 <tspan
   style="font-weight:bold"
   id="tspan3144">ms</tspan>
</text>
  <g
     class="node"
     id="node5"
     transform="translate(0.99999923,197.5)">
    <title
       id="title73">A2</title>
    <polyline
       style="fill:none;stroke:#000000"
       id="polyline75"
       points="143.5,-1 234.5,-1 " />
    <path
       style="fill:none;stroke:#000000"
       inkscape:connector-curvature="0"
       id="path77"
       d="m 234.5,-1 c 6,0 12,-6 12,-12" />
    <polyline
       style="fill:none;stroke:#000000"
       id="polyline79"
       points="246.5,-13 246.5,-47 " />
    <path
       style="fill:none;stroke:#000000"
       inkscape:connector-curvature="0"
       id="path81"
       d="m 246.5,-47 c 0,-6 -6,-12 -12,-12" />
    <polyline
       style="fill:none;stroke:#000000"
       id="polyline83"
       points="234.5,-59 143.5,-59 " />
    <path
       style="fill:none;stroke:#000000"
       inkscape:connector-curvature="0"
       id="path85"
       d="m 143.5,-59 c -6,0 -12,6 -12,12" />
    <polyline
       style="fill:none;stroke:#000000"
       id="polyline87"
       points="131.5,-47 131.5,-13 " />
    <path
       style="fill:none;stroke:#000000"
       inkscape:connector-curvature="0"
       id="path89"
       d="m 131.5,-13 c 0,6 6,12 12,12" />
    <text
       style="font-size:14px;text-anchor:middle;font-family:'Times New Roman,serif'"
       id="text91"
       font-size="14.00"
       y="-25.4"
       x="189">A2</text>
  </g>
  <path
     d="M 161.44628,98.875132 179.257,129.2173"
     id="path96"
     inkscape:connector-curvature="0"
     style="fill:none;stroke:#000000"
     sodipodi:nodetypes="cc" />
  <polygon
     points="173.588,-59.2451 165.726,-66.3474 171.871,-69.6999 171.871,-69.6999 "
     id="polygon98"
     style="fill:#000000;stroke:#000000"
     transform="translate(10.599999,197.5)" />
  <text
     x="213.31398"
     y="120.7281"
     font-size="14.00"
     id="text100"
     style="font-size:14px;font-style:normal;font-variant:normal;font-weight:normal;font-stretch:normal;text-anchor:middle;font-family:Arial;-inkscape-font-specification:Arial"><tspan
   style="font-weight:bold"
   id="tspan3146">after</tspan>
 3 <tspan
   style="font-weight:bold"
   id="tspan3148">ms</tspan>
</text>
</svg>
