<?xml version="1.0" encoding="UTF-8" standalone="no"?>
<!-- Generated by graphviz version 2.26.3 (20100126.1600)
 -->

<!-- Title: dot.bbsim.lc Pages: 1 -->

<svg
   xmlns:dc="http://purl.org/dc/elements/1.1/"
   xmlns:cc="http://creativecommons.org/ns#"
   xmlns:rdf="http://www.w3.org/1999/02/22-rdf-syntax-ns#"
   xmlns:svg="http://www.w3.org/2000/svg"
   xmlns="http://www.w3.org/2000/svg"
   xmlns:sodipodi="http://sodipodi.sourceforge.net/DTD/sodipodi-0.dtd"
   xmlns:inkscape="http://www.inkscape.org/namespaces/inkscape"
   width="351.25"
   height="55.685547"
   viewBox="0 0 281 44.548438"
   id="svg2"
   version="1.1"
   inkscape:version="0.48.1 "
   sodipodi:docname="statespace_reduced.svg">
  <metadata
     id="metadata71">
    <rdf:RDF>
      <cc:Work
         rdf:about="">
        <dc:format>image/svg+xml</dc:format>
        <dc:type
           rdf:resource="http://purl.org/dc/dcmitype/StillImage" />
      </cc:Work>
    </rdf:RDF>
  </metadata>
  <defs
     id="defs69" />
  <sodipodi:namedview
     pagecolor="#ffffff"
     bordercolor="#666666"
     borderopacity="1"
     objecttolerance="10"
     gridtolerance="10"
     guidetolerance="10"
     inkscape:pageopacity="0"
     inkscape:pageshadow="2"
     inkscape:window-width="1680"
     inkscape:window-height="998"
     id="namedview67"
     showgrid="false"
     fit-margin-top="0"
     fit-margin-left="0"
     fit-margin-right="0"
     fit-margin-bottom="0"
     inkscape:zoom="1.4166667"
     inkscape:cx="54.297267"
     inkscape:cy="-47.857983"
     inkscape:window-x="-8"
     inkscape:window-y="-8"
     inkscape:window-maximized="1"
     inkscape:current-layer="svg2" />
  <ellipse
     cx="13"
     cy="-13"
     rx="9"
     ry="9"
     id="ellipse12"
     d="m 22,-13 c 0,4.9705627 -4.029437,9 -9,9 -4.9705627,0 -9,-4.0294373 -9,-9 0,-4.970563 4.0294373,-9 9,-9 4.970563,0 9,4.029437 9,9 z"
     sodipodi:cx="13"
     sodipodi:cy="-13"
     sodipodi:rx="9"
     sodipodi:ry="9"
     style="fill:none;stroke:#000000"
     transform="translate(0.49999939,44.048439)" />
  <ellipse
     cx="13"
     cy="-13"
     rx="13"
     ry="13"
     id="ellipse14"
     d="M 26,-13 C 26,-5.8202983 20.179702,0 13,0 5.8202983,0 0,-5.8202983 0,-13 c 0,-7.179702 5.8202983,-13 13,-13 7.179702,0 13,5.820298 13,13 z"
     sodipodi:cx="13"
     sodipodi:cy="-13"
     sodipodi:rx="13"
     sodipodi:ry="13"
     style="fill:none;stroke:#000000"
     transform="translate(0.49999939,44.048439)" />
  <ellipse
     cx="95"
     cy="-27"
     rx="9"
     ry="9"
     id="ellipse19"
     d="m 104,-27 c 0,4.970563 -4.029437,9 -9,9 -4.970563,0 -9,-4.029437 -9,-9 0,-4.970563 4.029437,-9 9,-9 4.970563,0 9,4.029437 9,9 z"
     sodipodi:cx="95"
     sodipodi:cy="-27"
     sodipodi:rx="9"
     sodipodi:ry="9"
     style="fill:none;stroke:#000000"
     transform="translate(0.49999939,44.048439)" />
  <path
     d="m 26.674699,28.799139 c 13.4063,-2.2889 34.3278,-5.8609 49.5869,-8.4661"
     id="path24"
     inkscape:connector-curvature="0"
     style="fill:none;stroke:#000000" />
  <polygon
     points="75.2369,-27.1764 75.2369,-27.1764 85.6834,-25.4094 76.4151,-20.2762 "
     id="polygon26"
     style="fill:#000000;stroke:#000000"
     transform="translate(-0.20588301,44.189615)" />
  <text
     x="56.5"
     y="16.648439"
     font-size="14.00"
     id="text28"
     style="font-size:16px;font-style:normal;font-variant:normal;font-weight:normal;font-stretch:normal;text-anchor:middle;font-family:Arial;-inkscape-font-specification:Arial">tau</text>
  <ellipse
     cx="271"
     cy="-14"
     rx="9"
     ry="9"
     id="ellipse33"
     d="m 280,-14 c 0,4.9705627 -4.02944,9 -9,9 -4.97056,0 -9,-4.0294373 -9,-9 0,-4.970563 4.02944,-9 9,-9 4.97056,0 9,4.029437 9,9 z"
     sodipodi:cx="271"
     sodipodi:cy="-14"
     sodipodi:rx="9"
     sodipodi:ry="9"
     style="fill:none;stroke:#000000"
     transform="translate(0.49999939,45.648439)" />
  <path
     sodipodi:nodetypes="csc"
     d="m 24.980499,36.642439 c 20.4547,1.1979 62.862,3.41152 97.519501,4.206 46.633,1.06901 101.432,-2.3388 129.802,-4.4514"
     id="path38"
     inkscape:connector-curvature="0"
     style="fill:none;stroke:#000000" />
  <polygon
     points="261.933,-13.2357 252.233,-8.97416 251.693,-15.9533 251.693,-15.9533 "
     id="polygon40"
     style="fill:#000000;stroke:#000000"
     transform="translate(0.49999939,48.848439)" />
  <text
     x="139.5"
     y="35.448441"
     font-size="14.00"
     id="text42"
     style="font-size:16px;font-style:normal;font-variant:normal;font-weight:normal;font-stretch:normal;text-anchor:middle;font-family:Arial;-inkscape-font-specification:Arial">tau</text>
  <ellipse
     cx="183"
     cy="-27"
     rx="9"
     ry="9"
     id="ellipse47"
     d="m 192,-27 c 0,4.970563 -4.02944,9 -9,9 -4.97056,0 -9,-4.029437 -9,-9 0,-4.970563 4.02944,-9 9,-9 4.97056,0 9,4.029437 9,9 z"
     sodipodi:cx="183"
     sodipodi:cy="-27"
     sodipodi:rx="9"
     sodipodi:ry="9"
     style="fill:none;stroke:#000000"
     transform="translate(0.49999939,44.048439)" />
  <path
     d="m 104.586,17.048439 c 13.965,0 41.024,0 59.525,0"
     id="path52"
     inkscape:connector-curvature="0"
     style="fill:none;stroke:#000000" />
  <polygon
     points="163.832,-30.5001 163.832,-30.5001 173.831,-27 163.831,-23.5001 "
     id="polygon54"
     style="fill:#000000;stroke:#000000"
     transform="translate(-0.91176531,44.048439)" />
  <text
     x="139.5"
     y="11.648438"
     font-size="14.00"
     id="text56"
     style="font-size:16px;font-style:normal;font-variant:normal;font-weight:normal;font-stretch:normal;text-anchor:middle;font-family:Arial;-inkscape-font-specification:Arial">S('a')</text>
  <path
     d="m 192.586,18.390739 c 14.104,2.0834 41.564,6.1401 60.075,8.8747"
     id="path61"
     inkscape:connector-curvature="0"
     style="fill:none;stroke:#000000" />
  <polygon
     points="251.69,-13.3147 252.713,-20.2395 252.713,-20.2395 262.094,-15.3156 "
     id="polygon63"
     style="fill:#000000;stroke:#000000"
     transform="translate(-0.53529471,43.907263)" />
  <text
     x="227.5"
     y="16.648439"
     font-size="14.00"
     id="text65"
     style="font-size:16px;font-style:normal;font-variant:normal;font-weight:normal;font-stretch:normal;text-anchor:middle;font-family:Arial;-inkscape-font-specification:Arial">T('a')</text>
</svg>
