<?xml version="1.0" encoding="UTF-8" standalone="no"?>
<!-- Generated by graphviz version 2.26.3 (20100126.1600)
 -->

<!-- Title: dot.lc Pages: 1 -->

<svg
   xmlns:dc="http://purl.org/dc/elements/1.1/"
   xmlns:cc="http://creativecommons.org/ns#"
   xmlns:rdf="http://www.w3.org/1999/02/22-rdf-syntax-ns#"
   xmlns:svg="http://www.w3.org/2000/svg"
   xmlns="http://www.w3.org/2000/svg"
   xmlns:sodipodi="http://sodipodi.sourceforge.net/DTD/sodipodi-0.dtd"
   xmlns:inkscape="http://www.inkscape.org/namespaces/inkscape"
   width="1182.25"
   height="80"
   viewBox="0 0 945.8 64"
   id="svg2"
   version="1.1"
   inkscape:version="0.48.1 "
   sodipodi:docname="statespace.svg">
  <metadata
     id="metadata177">
    <rdf:RDF>
      <cc:Work
         rdf:about="">
        <dc:format>image/svg+xml</dc:format>
        <dc:type
           rdf:resource="http://purl.org/dc/dcmitype/StillImage" />
      </cc:Work>
    </rdf:RDF>
  </metadata>
  <defs
     id="defs175" />
  <sodipodi:namedview
     pagecolor="#ffffff"
     bordercolor="#666666"
     borderopacity="1"
     objecttolerance="10"
     gridtolerance="10"
     guidetolerance="10"
     inkscape:pageopacity="0"
     inkscape:pageshadow="2"
     inkscape:window-width="1680"
     inkscape:window-height="998"
     id="namedview173"
     showgrid="false"
     inkscape:zoom="1.0886776"
     inkscape:cx="557.22528"
     inkscape:cy="42.594018"
     inkscape:window-x="-8"
     inkscape:window-y="-8"
     inkscape:window-maximized="1"
     inkscape:current-layer="svg2"
     fit-margin-top="0"
     fit-margin-left="0"
     fit-margin-right="0"
     fit-margin-bottom="0" />
  <ellipse
     cx="13"
     cy="-26"
     rx="9"
     ry="9"
     id="ellipse12"
     d="m 22,-26 c 0,4.970563 -4.029437,9 -9,9 -4.9705627,0 -9,-4.029437 -9,-9 0,-4.970563 4.0294373,-9 9,-9 4.970563,0 9,4.029437 9,9 z"
     sodipodi:cx="13"
     sodipodi:cy="-26"
     sodipodi:rx="9"
     sodipodi:ry="9"
     style="fill:none;stroke:#000000"
     transform="translate(0.5,63.5)" />
  <ellipse
     cx="13"
     cy="-26"
     rx="13"
     ry="13"
     id="ellipse14"
     d="m 26,-26 c 0,7.179702 -5.820298,13 -13,13 -7.1797017,0 -13,-5.820298 -13,-13 0,-7.179702 5.8202983,-13 13,-13 7.179702,0 13,5.820298 13,13 z"
     sodipodi:cx="13"
     sodipodi:cy="-26"
     sodipodi:rx="13"
     sodipodi:ry="13"
     style="fill:none;stroke:#000000"
     transform="translate(0.5,63.5)" />
  <ellipse
     cx="150"
     cy="-47"
     rx="9"
     ry="9"
     id="ellipse19"
     d="m 159,-47 c 0,4.970563 -4.02944,9 -9,9 -4.97056,0 -9,-4.029437 -9,-9 0,-4.970563 4.02944,-9 9,-9 4.97056,0 9,4.029437 9,9 z"
     sodipodi:cx="150"
     sodipodi:cy="-47"
     sodipodi:rx="9"
     sodipodi:ry="9"
     style="fill:none;stroke:#000000"
     transform="translate(-23.5,63.5)" />
  <path
     d="M 25.16853,32.033927 C 49.39583,28.320227 79.055,23.7727 107.396,19.4283"
     id="path24"
     inkscape:connector-curvature="0"
     style="fill:none;stroke:#000000"
     sodipodi:nodetypes="cc" />
  <polygon
     points="130.372,-47.5321 130.372,-47.5321 140.787,-45.5877 131.432,-40.6129 "
     id="polygon26"
     style="fill:#000000;stroke:#000000"
     transform="translate(-23.5,63.5)" />
  <text
     x="59.899967"
     y="19.899998"
     font-size="14.00"
     id="text28"
     style="font-size:14px;font-style:normal;font-variant:normal;font-weight:normal;font-stretch:normal;text-anchor:middle;font-family:Arial;-inkscape-font-specification:Arial">5 ms</text>
  <ellipse
     cx="357"
     cy="-22"
     rx="9"
     ry="9"
     id="ellipse33"
     d="m 366,-22 c 0,4.970563 -4.02944,9 -9,9 -4.97056,0 -9,-4.029437 -9,-9 0,-4.970563 4.02944,-9 9,-9 4.97056,0 9,4.029437 9,9 z"
     sodipodi:cx="357"
     sodipodi:cy="-22"
     sodipodi:rx="9"
     sodipodi:ry="9"
     style="fill:none;stroke:#000000"
     transform="translate(-29.9,63.5)" />
  <path
     d="M 25.03724,42.622973 C 41.33704,44.594373 41.2291,44.3042 66.1,45.5 c 90.391,4.3461 198.575,-0.522 241.793,-2.8738"
     id="path38"
     inkscape:connector-curvature="0"
     style="fill:none;stroke:#000000"
     sodipodi:nodetypes="csc" />
  <polygon
     points="337.796,-24.3795 337.796,-24.3795 347.978,-21.4481 338.191,-17.3906 "
     id="polygon40"
     style="fill:#000000;stroke:#000000"
     transform="translate(-29.9,63.5)" />
  <text
     x="126.50005"
     y="40.099998"
     font-size="14.00"
     id="text42"
     style="font-size:14px;font-style:normal;font-variant:normal;font-weight:normal;font-stretch:normal;text-anchor:middle;font-family:Arial;-inkscape-font-specification:Arial">sending P(true)</text>
  <ellipse
     cx="357"
     cy="-54"
     rx="9"
     ry="9"
     id="ellipse47"
     d="m 366,-54 c 0,4.970563 -4.02944,9 -9,9 -4.97056,0 -9,-4.029437 -9,-9 0,-4.970563 4.02944,-9 9,-9 4.97056,0 9,4.029437 9,9 z"
     sodipodi:cx="357"
     sodipodi:cy="-54"
     sodipodi:rx="9"
     sodipodi:ry="9"
     style="fill:none;stroke:#000000"
     transform="translate(-29.9,63.5)" />
  <ellipse
     cx="501"
     cy="-36"
     rx="9"
     ry="9"
     id="ellipse52"
     d="m 510,-36 c 0,4.970563 -4.02944,9 -9,9 -4.97056,0 -9,-4.029437 -9,-9 0,-4.970563 4.02944,-9 9,-9 4.97056,0 9,4.029437 9,9 z"
     sodipodi:cx="501"
     sodipodi:cy="-36"
     sodipodi:rx="9"
     sodipodi:ry="9"
     style="fill:none;stroke:#000000"
     transform="translate(-36.3,63.5)" />
  <ellipse
     cx="1043"
     cy="-9"
     rx="9"
     ry="9"
     id="ellipse57"
     d="m 1052,-9 c 0,4.9705627 -4.0294,9 -9,9 -4.9706,0 -9,-4.0294373 -9,-9 0,-4.970563 4.0294,-9 9,-9 4.9706,0 9,4.029437 9,9 z"
     sodipodi:cx="1043"
     sodipodi:cy="-9"
     sodipodi:rx="9"
     sodipodi:ry="9"
     style="fill:none;stroke:#000000"
     transform="translate(-106.7,63.5)" />
  <path
     d="m 135.662,16.1902 c 31.459,-1.0639 129.113,-4.5826 172.345,-6.0445"
     id="path62"
     inkscape:connector-curvature="0"
     style="fill:none;stroke:#000000"
     sodipodi:nodetypes="cc" />
  <polygon
     points="337.832,-56.8537 337.832,-56.8537 347.944,-53.6938 338.068,-49.8577 "
     id="polygon64"
     style="fill:#000000;stroke:#000000"
     transform="translate(-29.9,63.5)" />
  <path
     d="M 134.47751,20.641206 C 153.05351,25.111306 188.955,33.039 192.1,33.5 c 40.876,5.991 89.341,7.5258 115.65,7.8998"
     id="path69"
     inkscape:connector-curvature="0"
     style="fill:none;stroke:#000000"
     sodipodi:nodetypes="ccc" />
  <polygon
     points="337.813,-25.5988 337.813,-25.5988 347.778,-21.9997 337.743,-18.5991 "
     id="polygon71"
     style="fill:#000000;stroke:#000000"
     transform="translate(-29.9,63.5)" />
  <text
     x="252.50005"
     y="29.699997"
     font-size="14.00"
     id="text73"
     style="font-size:14px;font-style:normal;font-variant:normal;font-weight:normal;font-stretch:normal;text-anchor:middle;font-family:Arial;-inkscape-font-specification:Arial">sending P(true)</text>
  <path
     d="m 336.038,39.1591 c 5.229,-1.2803 10.379,-4.3803 16.462,-5.2591 34.132,-4.9308 69.518,-5.2389 92.804,-5.9656"
     id="path78"
     inkscape:connector-curvature="0"
     style="fill:none;stroke:#000000"
     sodipodi:nodetypes="csc" />
  <polygon
     points="481.758,-39.071 481.758,-39.071 491.848,-35.8417 481.946,-32.0735 "
     id="polygon80"
     style="fill:#000000;stroke:#000000"
     transform="translate(-36.3,63.5)" />
  <text
     x="399.10004"
     y="23.099998"
     font-size="14.00"
     id="text82"
     style="font-size:14px;font-style:normal;font-variant:normal;font-weight:normal;font-stretch:normal;text-anchor:middle;font-family:Arial;-inkscape-font-specification:Arial">lost Q(5)</text>
  <ellipse
     cx="501"
     cy="-9"
     rx="9"
     ry="9"
     id="ellipse87"
     d="m 510,-9 c 0,4.9705627 -4.02944,9 -9,9 -4.97056,0 -9,-4.0294373 -9,-9 0,-4.970563 4.02944,-9 9,-9 4.97056,0 9,4.029437 9,9 z"
     sodipodi:cx="501"
     sodipodi:cy="-9"
     sodipodi:rx="9"
     sodipodi:ry="9"
     style="fill:none;stroke:#000000"
     transform="translate(-36.3,63.5)" />
  <path
     d="m 335.449,44.9765 c 5.254,2.0122 10.632,5.9689 17.051,7.1235 33.882,6.09425 69.349,4.27509 92.718,3.42912"
     id="path92"
     inkscape:connector-curvature="0"
     style="fill:none;stroke:#000000"
     sodipodi:nodetypes="csc" />
  <polygon
     points="481.658,-11.4804 481.658,-11.4804 491.803,-8.42591 481.968,-4.48727 "
     id="polygon94"
     style="fill:#000000;stroke:#000000"
     transform="translate(-36.3,63.5)" />
  <text
     x="399.10004"
     y="48.299995"
     font-size="14.00"
     id="text96"
     style="font-size:14px;font-style:normal;font-variant:normal;font-weight:normal;font-stretch:normal;text-anchor:middle;font-family:Arial;-inkscape-font-specification:Arial">sending Q(5)</text>
  <ellipse
     cx="653"
     cy="-9"
     rx="9"
     ry="9"
     id="ellipse101"
     d="m 662,-9 c 0,4.9705627 -4.02944,9 -9,9 -4.97056,0 -9,-4.0294373 -9,-9 0,-4.970563 4.02944,-9 9,-9 4.97056,0 9,4.029437 9,9 z"
     sodipodi:cx="653"
     sodipodi:cy="-9"
     sodipodi:rx="9"
     sodipodi:ry="9"
     style="fill:none;stroke:#000000"
     transform="translate(-58.7,63.5)" />
  <path
     d="m 473.753,54.5 c 20.28514,0 75.99318,0 103.86318,0"
     id="path106"
     inkscape:connector-curvature="0"
     style="fill:none;stroke:#000000;stroke-width:0.99999994" />
  <polygon
     points="643.802,-9 633.802,-5.5001 633.802,-12.5001 633.802,-12.5001 "
     id="polygon108"
     style="fill:#000000;stroke:#000000"
     transform="translate(-58.7,63.5)" />
  <text
     x="524.70026"
     y="49.099998"
     font-size="14.00"
     id="text110"
     style="font-size:14px;font-style:normal;font-variant:normal;font-weight:normal;font-stretch:normal;text-anchor:middle;font-family:Arial;-inkscape-font-specification:Arial">receiving Q(5)</text>
  <ellipse
     cx="755"
     cy="-9"
     rx="9"
     ry="9"
     id="ellipse115"
     d="m 764,-9 c 0,4.9705627 -4.02944,9 -9,9 -4.97056,0 -9,-4.0294373 -9,-9 0,-4.970563 4.02944,-9 9,-9 4.97056,0 9,4.029437 9,9 z"
     sodipodi:cx="755"
     sodipodi:cy="-9"
     sodipodi:rx="9"
     sodipodi:ry="9"
     style="fill:none;stroke:#000000"
     transform="translate(-79.5,63.5)" />
  <path
     d="m 603.352,54.5 c 11.87536,0 37.23103,0 53.15849,0"
     id="path120"
     inkscape:connector-curvature="0"
     style="fill:none;stroke:#000000;stroke-width:0.99999994" />
  <polygon
     points="735.822,-5.5001 735.822,-12.5001 735.822,-12.5001 745.822,-9 "
     id="polygon122"
     style="fill:#000000;stroke:#000000"
     transform="translate(-79.5,63.5)" />
  <text
     x="629.3006"
     y="49.099998"
     font-size="14.00"
     id="text124"
     style="font-size:14px;font-style:normal;font-variant:normal;font-weight:normal;font-stretch:normal;text-anchor:middle;font-family:Arial;-inkscape-font-specification:Arial">m := 6</text>
  <ellipse
     cx="811"
     cy="-9"
     rx="9"
     ry="9"
     id="ellipse129"
     d="m 820,-9 c 0,4.9705627 -4.02944,9 -9,9 -4.97056,0 -9,-4.0294373 -9,-9 0,-4.970563 4.02944,-9 9,-9 4.97056,0 9,4.029437 9,9 z"
     sodipodi:cx="811"
     sodipodi:cy="-9"
     sodipodi:rx="9"
     sodipodi:ry="9"
     style="fill:none;stroke:#000000"
     transform="translate(-79.5,63.5)" />
  <path
     d="m 684.747,54.5 c 7.503,0 18.329,0 27.675,0"
     id="path134"
     inkscape:connector-curvature="0"
     style="fill:none;stroke:#000000" />
  <polygon
     points="791.925,-5.5001 791.925,-12.5001 791.925,-12.5001 801.925,-9 "
     id="polygon136"
     style="fill:#000000;stroke:#000000"
     transform="translate(-79.5,63.5)" />
  <ellipse
     cx="899"
     cy="-9"
     rx="9"
     ry="9"
     id="ellipse141"
     d="m 908,-9 c 0,4.9705627 -4.02944,9 -9,9 -4.97056,0 -9,-4.0294373 -9,-9 0,-4.970563 4.02944,-9 9,-9 4.97056,0 9,4.029437 9,9 z"
     sodipodi:cx="899"
     sodipodi:cy="-9"
     sodipodi:rx="9"
     sodipodi:ry="9"
     style="fill:none;stroke:#000000"
     transform="translate(-92.3,63.5)" />
  <path
     d="m 740.586,54.5 c 11.57136,0 33.99239,0 49.32227,0"
     id="path146"
     inkscape:connector-curvature="0"
     style="fill:none;stroke:#000000;stroke-width:1" />
  <polygon
     points="879.831,-5.5001 879.832,-12.5001 879.832,-12.5001 889.831,-9 "
     id="polygon148"
     style="fill:#000000;stroke:#000000"
     transform="translate(-92.3,63.5)" />
  <text
     x="764.30084"
     y="49.099998"
     font-size="14.00"
     id="text150"
     style="font-size:14px;font-style:normal;font-variant:normal;font-weight:normal;font-stretch:normal;text-anchor:middle;font-family:Arial;-inkscape-font-specification:Arial">S('a')</text>
  <ellipse
     cx="987"
     cy="-9"
     rx="9"
     ry="9"
     id="ellipse155"
     d="m 996,-9 c 0,4.9705627 -4.02944,9 -9,9 -4.97056,0 -9,-4.0294373 -9,-9 0,-4.970563 4.02944,-9 9,-9 4.97056,0 9,4.029437 9,9 z"
     sodipodi:cx="987"
     sodipodi:cy="-9"
     sodipodi:rx="9"
     sodipodi:ry="9"
     style="fill:none;stroke:#000000"
     transform="translate(-106.7,63.5)" />
  <path
     d="m 815.786,54.5 c 10.97296,0 32.23449,0 46.77159,0"
     id="path160"
     inkscape:connector-curvature="0"
     style="fill:none;stroke:#000000;stroke-width:1" />
  <polygon
     points="967.832,-12.5001 967.832,-12.5001 977.831,-9 967.831,-5.5001 "
     id="polygon162"
     style="fill:#000000;stroke:#000000"
     transform="translate(-106.7,63.5)" />
  <text
     x="837.90106"
     y="49.099998"
     font-size="14.00"
     id="text164"
     style="font-size:14px;font-style:normal;font-variant:normal;font-weight:normal;font-stretch:normal;text-anchor:middle;font-family:Arial;-inkscape-font-specification:Arial">T('a')</text>
  <path
     d="m 889.547,54.5 c 7.503,0 18.333,0 27.673,0"
     id="path169"
     inkscape:connector-curvature="0"
     style="fill:none;stroke:#000000" />
  <polygon
     points="1023.92,-12.5001 1023.92,-12.5001 1033.92,-9 1023.92,-5.5001 "
     id="polygon171"
     style="fill:#000000;stroke:#000000"
     transform="translate(-106.7,63.5)" />
</svg>
