<?xml version="1.0" encoding="UTF-8" standalone="no"?>
<!-- Generated by graphviz version 2.26.3 (20100126.1600)
 -->

<!-- Title: LTS Pages: 1 -->

<svg
   xmlns:dc="http://purl.org/dc/elements/1.1/"
   xmlns:cc="http://creativecommons.org/ns#"
   xmlns:rdf="http://www.w3.org/1999/02/22-rdf-syntax-ns#"
   xmlns:svg="http://www.w3.org/2000/svg"
   xmlns="http://www.w3.org/2000/svg"
   xmlns:sodipodi="http://sodipodi.sourceforge.net/DTD/sodipodi-0.dtd"
   xmlns:inkscape="http://www.inkscape.org/namespaces/inkscape"
   width="1321.9559"
   height="178.5"
   viewBox="0 0 1057.5647 142.8"
   id="svg2"
   version="1.1"
   inkscape:version="0.48.1 "
   sodipodi:docname="statespace-orig.svg">
  <metadata
     id="metadata199">
    <rdf:RDF>
      <cc:Work
         rdf:about="">
        <dc:format>image/svg+xml</dc:format>
        <dc:type
           rdf:resource="http://purl.org/dc/dcmitype/StillImage" />
        <dc:title />
      </cc:Work>
    </rdf:RDF>
  </metadata>
  <defs
     id="defs197" />
  <sodipodi:namedview
     pagecolor="#ffffff"
     bordercolor="#666666"
     borderopacity="1"
     objecttolerance="10"
     gridtolerance="10"
     guidetolerance="10"
     inkscape:pageopacity="0"
     inkscape:pageshadow="2"
     inkscape:window-width="1680"
     inkscape:window-height="998"
     id="namedview195"
     showgrid="false"
     fit-margin-top="0"
     fit-margin-left="0"
     fit-margin-right="0"
     fit-margin-bottom="0"
     inkscape:zoom="0.63949843"
     inkscape:cx="700.43606"
     inkscape:cy="-140.45347"
     inkscape:window-x="-8"
     inkscape:window-y="-8"
     inkscape:window-maximized="1"
     inkscape:current-layer="svg2" />
  <ellipse
     cx="27"
     cy="-68"
     rx="27"
     ry="18"
     id="ellipse12"
     d="m 54,-68 c 0,9.941125 -12.088312,18 -27,18 -14.911688,0 -27,-8.058875 -27,-18 0,-9.941125 12.088312,-18 27,-18 14.911688,0 27,8.058875 27,18 z"
     sodipodi:cx="27"
     sodipodi:cy="-68"
     sodipodi:rx="27"
     sodipodi:ry="18"
     style="fill:#cccccc;stroke:#000000"
     transform="translate(0.5,139.17255)" />
  <text
     x="27.499945"
     y="75.772545"
     font-size="14.00"
     id="text14"
     style="font-size:16px;font-style:normal;font-variant:normal;font-weight:normal;font-stretch:normal;text-anchor:middle;font-family:Arial;-inkscape-font-specification:Arial">11</text>
  <ellipse
     cx="161"
     cy="-99"
     rx="27"
     ry="18"
     id="ellipse19"
     d="m 188,-99 c 0,9.941125 -12.08831,18 -27,18 -14.91169,0 -27,-8.058875 -27,-18 0,-9.94113 12.08831,-18 27,-18 14.91169,0 27,8.05887 27,18 z"
     sodipodi:cx="161"
     sodipodi:cy="-99"
     sodipodi:rx="27"
     sodipodi:ry="18"
     style="fill:none;stroke:#000000"
     transform="translate(-46.135294,132.7)" />
  <text
     x="114.86495"
     y="39.899998"
     font-size="14.00"
     id="text21"
     style="font-size:16px;font-style:normal;font-variant:normal;font-weight:normal;font-stretch:normal;text-anchor:middle;font-family:Arial;-inkscape-font-specification:Arial">10</text>
  <path
     d="m 49.901166,61.007964 30.9741,-18.03938"
     id="path26"
     inkscape:connector-curvature="0"
     style="fill:none;stroke:#000000"
     sodipodi:nodetypes="cc" />
  <polygon
     points="135.119,-93.0126 126.165,-87.3486 124.587,-94.1685 124.587,-94.1685 "
     id="polygon28"
     style="fill:#000000;stroke:#000000;stroke-width:1"
     transform="matrix(0.97029574,-0.2419219,0.2419219,0.97029574,-20.398107,162.2824)" />
  <text
     x="53.625446"
     y="46.260784"
     font-size="14.00"
     id="text30"
     style="font-size:16px;font-style:normal;font-variant:normal;font-weight:normal;font-stretch:normal;text-anchor:middle;font-family:Arial;-inkscape-font-specification:Arial">5 <tspan
   style="font-weight:bold"
   id="tspan3038">ms</tspan>
</text>
  <ellipse
     cx="353"
     cy="-52"
     rx="27"
     ry="18"
     id="ellipse35"
     d="m 380,-52 c 0,9.941125 -12.08831,18 -27,18 -14.91169,0 -27,-8.058875 -27,-18 0,-9.941125 12.08831,-18 27,-18 14.91169,0 27,8.058875 27,18 z"
     sodipodi:cx="353"
     sodipodi:cy="-52"
     sodipodi:rx="27"
     sodipodi:ry="18"
     style="fill:none;stroke:#000000"
     transform="translate(-86.135294,142.3)" />
  <text
     x="266.86481"
     y="94.900002"
     font-size="14.00"
     id="text37"
     style="font-size:16px;font-style:normal;font-variant:normal;font-weight:normal;font-stretch:normal;text-anchor:middle;font-family:Arial;-inkscape-font-specification:Arial">8</text>
  <path
     d="M 49.399826,81.748451 229.49671,90.976"
     id="path42"
     inkscape:connector-curvature="0"
     style="fill:none;stroke:#000000"
     sodipodi:nodetypes="cc" />
  <polygon
     points="325.815,-51.4581 315.862,-47.8266 315.77,-54.826 315.77,-54.826 "
     id="polygon44"
     style="fill:#000000;stroke:#000000"
     transform="translate(-86.135294,142.3)" />
  <text
     x="126.16877"
     y="81.023529"
     font-size="14.00"
     id="text46"
     style="font-size:16px;font-style:normal;font-variant:normal;font-weight:normal;font-stretch:normal;text-anchor:middle;font-family:Arial;-inkscape-font-specification:Arial"><tspan
   style="font-weight:bold"
   id="tspan3040">send</tspan>
 P(<tspan
   style="font-weight:bold"
   id="tspan3042">true</tspan>
)</text>
  <ellipse
     cx="353"
     cy="-111"
     rx="27"
     ry="18"
     id="ellipse51"
     d="m 380,-111 c 0,9.94113 -12.08831,18 -27,18 -14.91169,0 -27,-8.05887 -27,-18 0,-9.94113 12.08831,-18 27,-18 14.91169,0 27,8.05887 27,18 z"
     sodipodi:cx="353"
     sodipodi:cy="-111"
     sodipodi:rx="27"
     sodipodi:ry="18"
     style="fill:#000000;stroke:#000000"
     transform="translate(-86.135294,129.5)" />
  <text
     x="266.86481"
     y="23.099995"
     font-size="14.00"
     id="text53"
     style="font-size:16px;font-style:normal;font-variant:normal;font-weight:normal;font-stretch:normal;text-anchor:middle;fill:#ffffff;font-family:Arial;-inkscape-font-specification:Arial">9</text>
  <ellipse
     cx="517"
     cy="-72"
     rx="27"
     ry="18"
     id="ellipse58"
     d="m 544,-72 c 0,9.941125 -12.08831,18 -27,18 -14.91169,0 -27,-8.058875 -27,-18 0,-9.941125 12.08831,-18 27,-18 14.91169,0 27,8.058875 27,18 z"
     sodipodi:cx="517"
     sodipodi:cy="-72"
     sodipodi:rx="27"
     sodipodi:ry="18"
     style="fill:#000000;stroke:#000000"
     transform="translate(-111.73529,142.3)" />
  <text
     x="405.26471"
     y="74.900002"
     font-size="14.00"
     id="text60"
     style="font-size:16px;font-style:normal;font-variant:normal;font-weight:normal;font-stretch:normal;text-anchor:middle;fill:#ffffff;font-family:Arial;-inkscape-font-specification:Arial">7</text>
  <ellipse
     cx="1241"
     cy="-18"
     rx="27"
     ry="18"
     id="ellipse65"
     d="m 1268,-18 c 0,9.9411255 -12.0883,18 -27,18 -14.9117,0 -27,-8.0588745 -27,-18 0,-9.941125 12.0883,-18 27,-18 14.9117,0 27,8.058875 27,18 z"
     sodipodi:cx="1241"
     sodipodi:cy="-18"
     sodipodi:rx="27"
     sodipodi:ry="18"
     style="fill:#000000;stroke:#000000"
     transform="translate(-210.93529,142.3)" />
  <text
     x="1030.0663"
     y="128.89999"
     font-size="14.00"
     id="text67"
     style="font-size:16px;font-style:normal;font-variant:normal;font-weight:normal;font-stretch:normal;text-anchor:middle;fill:#ffffff;font-family:Arial;-inkscape-font-specification:Arial">0</text>
  <path
     d="M 137.87875,24.557112 229.89371,20.811"
     id="path72"
     inkscape:connector-curvature="0"
     style="fill:none;stroke:#000000"
     sodipodi:nodetypes="cc" />
  <polygon
     points="326.036,-109.315 316.274,-105.198 315.837,-112.184 315.837,-112.184 "
     id="polygon74"
     style="fill:#000000;stroke:#000000"
     transform="translate(-86.135294,129.5)" />
  <path
     d="M 136.94138,43.943653 230.75371,82.5057"
     id="path79"
     inkscape:connector-curvature="0"
     style="fill:none;stroke:#000000"
     sodipodi:nodetypes="cc" />
  <polygon
     points="326.816,-57.6194 316.299,-56.3406 317.797,-63.1784 317.797,-63.1784 "
     id="polygon81"
     style="fill:#000000;stroke:#000000"
     transform="translate(-86.135294,142.3)" />
  <text
     x="197.64326"
     y="47.984322"
     font-size="14.00"
     id="text83"
     style="font-size:16px;font-style:normal;font-variant:normal;font-weight:normal;font-stretch:normal;text-anchor:middle;font-family:Arial;-inkscape-font-specification:Arial"><tspan
   style="font-weight:bold"
   id="tspan3044">send</tspan>
 P(<tspan
   style="font-weight:bold"
   id="tspan3046">true</tspan>
)</text>
  <path
     d="m 292.52571,84.609514 c 27.281,-3.3268 45.295,-6.084614 75.795,-9.804214"
     id="path88"
     inkscape:connector-curvature="0"
     style="fill:none;stroke:#000000"
     sodipodi:nodetypes="cc" />
  <polygon
     points="490.297,-68.7435 480.794,-64.0586 479.947,-71.0072 479.947,-71.0072 "
     id="polygon90"
     style="fill:#000000;stroke:#000000"
     transform="translate(-111.73529,142.3)" />
  <text
     x="326.33337"
     y="72.274513"
     font-size="14.00"
     id="text92"
     style="font-size:16px;font-style:normal;font-variant:normal;font-weight:normal;font-stretch:normal;text-anchor:middle;font-family:Arial;-inkscape-font-specification:Arial"><tspan
   style="font-weight:bold"
   id="tspan3048">lost</tspan>
 Q(5)</text>
  <ellipse
     cx="517"
     cy="-18"
     rx="27"
     ry="18"
     id="ellipse97"
     d="m 544,-18 c 0,9.9411255 -12.08831,18 -27,18 -14.91169,0 -27,-8.0588745 -27,-18 0,-9.941125 12.08831,-18 27,-18 14.91169,0 27,8.058875 27,18 z"
     sodipodi:cx="517"
     sodipodi:cy="-18"
     sodipodi:rx="27"
     sodipodi:ry="18"
     style="fill:none;stroke:#000000"
     transform="translate(-111.73529,142.3)" />
  <text
     x="405.26471"
     y="128.89999"
     font-size="14.00"
     id="text99"
     style="font-size:16px;font-style:normal;font-variant:normal;font-weight:normal;font-stretch:normal;text-anchor:middle;font-family:Arial;-inkscape-font-specification:Arial">6</text>
  <path
     d="m 283.03224,104.66011 c 7.93147,2.45404 60.77396,12.03378 85.54547,15.35889"
     id="path104"
     inkscape:connector-curvature="0"
     style="fill:none;stroke:#000000"
     sodipodi:nodetypes="cc" />
  <polygon
     points="490.284,-20.9973 479.919,-18.8028 480.813,-25.7455 480.813,-25.7455 "
     id="polygon106"
     style="fill:#000000;stroke:#000000"
     transform="translate(-111.73529,142.3)" />
  <text
     x="332.86475"
     y="106.27843"
     font-size="14.00"
     id="text108"
     style="font-size:16px;font-style:normal;font-variant:normal;font-weight:normal;font-stretch:normal;text-anchor:middle;font-family:Arial;-inkscape-font-specification:Arial"><tspan
   style="font-weight:bold"
   id="tspan3050">send</tspan>
 Q(5)</text>
  <ellipse
     cx="687"
     cy="-18"
     rx="27"
     ry="18"
     id="ellipse113"
     d="m 714,-18 c 0,9.9411255 -12.08831,18 -27,18 -14.91169,0 -27,-8.0588745 -27,-18 0,-9.941125 12.08831,-18 27,-18 14.91169,0 27,8.058875 27,18 z"
     sodipodi:cx="687"
     sodipodi:cy="-18"
     sodipodi:rx="27"
     sodipodi:ry="18"
     style="fill:none;stroke:#000000"
     transform="translate(-126.13529,142.3)" />
  <text
     x="560.86487"
     y="128.89999"
     font-size="14.00"
     id="text115"
     style="font-size:16px;font-style:normal;font-variant:normal;font-weight:normal;font-stretch:normal;text-anchor:middle;font-family:Arial;-inkscape-font-specification:Arial">5</text>
  <path
     d="m 432.57771,124.3 c 25.63957,0 66.01861,0 94.63306,0"
     id="path120"
     inkscape:connector-curvature="0"
     style="fill:none;stroke:#000000;stroke-width:1" />
  <polygon
     points="659.754,-18 649.754,-14.5001 649.754,-21.5001 649.754,-21.5001 "
     id="polygon122"
     style="fill:#000000;stroke:#000000"
     transform="translate(-126.13529,142.3)" />
  <text
     x="477.46487"
     y="120.9"
     font-size="14.00"
     id="text124"
     style="font-size:16px;font-style:normal;font-variant:normal;font-weight:normal;font-stretch:normal;text-anchor:middle;font-family:Arial;-inkscape-font-specification:Arial"><tspan
   style="font-weight:bold"
   id="tspan3052">receive</tspan>
 Q(5)</text>
  <ellipse
     cx="815"
     cy="-18"
     rx="27"
     ry="18"
     id="ellipse129"
     d="m 842,-18 c 0,9.9411255 -12.08831,18 -27,18 -14.91169,0 -27,-8.0588745 -27,-18 0,-9.941125 12.08831,-18 27,-18 14.91169,0 27,8.058875 27,18 z"
     sodipodi:cx="815"
     sodipodi:cy="-18"
     sodipodi:rx="27"
     sodipodi:ry="18"
     style="fill:none;stroke:#000000"
     transform="translate(-142.13529,142.3)" />
  <text
     x="672.86505"
     y="128.89999"
     font-size="14.00"
     id="text131"
     style="font-size:16px;font-style:normal;font-variant:normal;font-weight:normal;font-stretch:normal;text-anchor:middle;font-family:Arial;-inkscape-font-specification:Arial">4</text>
  <path
     d="m 588.01071,124.3 c 14.52384,0 33.94104,0 49.91278,0"
     id="path136"
     inkscape:connector-curvature="0"
     style="fill:none;stroke:#000000;stroke-width:1" />
  <polygon
     points="777.894,-21.5001 787.894,-18 777.894,-14.5001 777.894,-21.5001 "
     id="polygon138"
     style="fill:#000000;stroke:#000000"
     transform="translate(-142.13529,142.3)" />
  <text
     x="612.065"
     y="120.9"
     font-size="14.00"
     id="text140"
     style="font-size:16px;font-style:normal;font-variant:normal;font-weight:normal;font-stretch:normal;text-anchor:middle;font-family:Arial;-inkscape-font-specification:Arial">m := 6</text>
  <ellipse
     cx="907"
     cy="-18"
     rx="27"
     ry="18"
     id="ellipse145"
     d="m 934,-18 c 0,9.9411255 -12.08831,18 -27,18 -14.91169,0 -27,-8.0588745 -27,-18 0,-9.941125 12.08831,-18 27,-18 14.91169,0 27,8.058875 27,18 z"
     sodipodi:cx="907"
     sodipodi:cy="-18"
     sodipodi:rx="27"
     sodipodi:ry="18"
     style="fill:none;stroke:#000000"
     transform="translate(-156.53529,142.3)" />
  <text
     x="750.46527"
     y="128.89999"
     font-size="14.00"
     id="text147"
     style="font-size:16px;font-style:normal;font-variant:normal;font-weight:normal;font-stretch:normal;text-anchor:middle;font-family:Arial;-inkscape-font-specification:Arial">3</text>
  <path
     d="m 699.96971,124.3 c 4.77761,0 10.14888,0 15.25433,0"
     id="path152"
     inkscape:connector-curvature="0"
     style="fill:none;stroke:#000000;stroke-width:1" />
  <polygon
     points="879.77,-18 869.77,-14.5001 869.77,-21.5001 869.77,-21.5001 "
     id="polygon154"
     style="fill:#000000;stroke:#000000"
     transform="translate(-156.53529,142.3)" />
  <ellipse
     cx="1027"
     cy="-18"
     rx="27"
     ry="18"
     id="ellipse159"
     d="m 1054,-18 c 0,9.9411255 -12.0883,18 -27,18 -14.9117,0 -27,-8.0588745 -27,-18 0,-9.941125 12.0883,-18 27,-18 14.9117,0 27,8.058875 27,18 z"
     sodipodi:cx="1027"
     sodipodi:cy="-18"
     sodipodi:rx="27"
     sodipodi:ry="18"
     style="fill:none;stroke:#000000"
     transform="translate(-172.53529,142.3)" />
  <text
     x="854.46515"
     y="128.89999"
     font-size="14.00"
     id="text161"
     style="font-size:16px;font-style:normal;font-variant:normal;font-weight:normal;font-stretch:normal;text-anchor:middle;font-family:Arial;-inkscape-font-specification:Arial">2</text>
  <path
     d="m 777.69471,124.3 c 13.57486,0 31.05341,0 45.8967,0"
     id="path166"
     inkscape:connector-curvature="0"
     style="fill:none;stroke:#000000;stroke-width:1" />
  <polygon
     points="989.878,-21.5001 989.878,-21.5001 999.878,-18 989.878,-14.5001 "
     id="polygon168"
     style="fill:#000000;stroke:#000000"
     transform="translate(-172.53529,142.3)" />
  <text
     x="797.66547"
     y="120.9"
     font-size="14.00"
     id="text170"
     style="font-size:16px;font-style:normal;font-variant:normal;font-weight:normal;font-stretch:normal;text-anchor:middle;font-family:Arial;-inkscape-font-specification:Arial">S('a')</text>
  <ellipse
     cx="1149"
     cy="-18"
     rx="27"
     ry="18"
     id="ellipse175"
     d="m 1176,-18 c 0,9.9411255 -12.0883,18 -27,18 -14.9117,0 -27,-8.0588745 -27,-18 0,-9.941125 12.0883,-18 27,-18 14.9117,0 27,8.058875 27,18 z"
     sodipodi:cx="1149"
     sodipodi:cy="-18"
     sodipodi:rx="27"
     sodipodi:ry="18"
     style="fill:none;stroke:#000000"
     transform="translate(-194.93529,142.3)" />
  <text
     x="954.06598"
     y="128.89999"
     font-size="14.00"
     id="text177"
     style="font-size:16px;font-style:normal;font-variant:normal;font-weight:normal;font-stretch:normal;text-anchor:middle;font-family:Arial;-inkscape-font-specification:Arial">1</text>
  <path
     d="m 881.54471,124.3 c 11.2322,0 25.8644,0 38.1749,0"
     id="path182"
     inkscape:connector-curvature="0"
     style="fill:none;stroke:#000000;stroke-width:0.99999994" />
  <polygon
     points="1122,-18 1112,-14.5001 1112,-21.5001 1112,-21.5001 "
     id="polygon184"
     style="fill:#000000;stroke:#000000"
     transform="translate(-194.93529,142.3)" />
  <text
     x="897.86584"
     y="120.9"
     font-size="14.00"
     id="text186"
     style="font-size:16px;font-style:normal;font-variant:normal;font-weight:normal;font-stretch:normal;text-anchor:middle;font-family:Arial;-inkscape-font-specification:Arial">T('a')</text>
  <path
     d="m 981.17471,124.3 c 8.62,0 18.32,0 27.53999,0"
     id="path191"
     inkscape:connector-curvature="0"
     style="fill:none;stroke:#000000" />
  <polygon
     points="1213.77,-18 1203.77,-14.5001 1203.77,-21.5001 1203.77,-21.5001 "
     id="polygon193"
     style="fill:#000000;stroke:#000000"
     transform="translate(-210.93529,142.3)" />
</svg>
