<?xml version="1.0" encoding="UTF-8" standalone="no"?>
<!-- Generated by graphviz version 2.26.3 (20100126.1600)
 -->

<!-- Title: LTS Pages: 1 -->

<svg
   xmlns:dc="http://purl.org/dc/elements/1.1/"
   xmlns:cc="http://creativecommons.org/ns#"
   xmlns:rdf="http://www.w3.org/1999/02/22-rdf-syntax-ns#"
   xmlns:svg="http://www.w3.org/2000/svg"
   xmlns="http://www.w3.org/2000/svg"
   xmlns:sodipodi="http://sodipodi.sourceforge.net/DTD/sodipodi-0.dtd"
   xmlns:inkscape="http://www.inkscape.org/namespaces/inkscape"
   width="287.92102"
   height="142.25"
   viewBox="0 0 230.33681 113.8"
   id="svg2"
   version="1.1"
   inkscape:version="0.48.1 "
   sodipodi:docname="transformation-comparison.svg">
  <metadata
     id="metadata36">
    <rdf:RDF>
      <cc:Work
         rdf:about="">
        <dc:format>image/svg+xml</dc:format>
        <dc:type
           rdf:resource="http://purl.org/dc/dcmitype/StillImage" />
        <dc:title></dc:title>
      </cc:Work>
    </rdf:RDF>
  </metadata>
  <defs
     id="defs34" />
  <sodipodi:namedview
     pagecolor="#ffffff"
     bordercolor="#666666"
     borderopacity="1"
     objecttolerance="10"
     gridtolerance="10"
     guidetolerance="10"
     inkscape:pageopacity="0"
     inkscape:pageshadow="2"
     inkscape:window-width="1680"
     inkscape:window-height="998"
     id="namedview32"
     showgrid="false"
     inkscape:zoom="0.64"
     inkscape:cx="294.24476"
     inkscape:cy="74.607493"
     inkscape:window-x="-8"
     inkscape:window-y="-8"
     inkscape:window-maximized="1"
     inkscape:current-layer="svg2"
     fit-margin-top="0"
     fit-margin-left="0"
     fit-margin-right="0"
     fit-margin-bottom="0" />
  <ellipse
     cx="27"
     cy="-106"
     rx="27"
     ry="18"
     id="ellipse12"
     d="m 54,-106 c 0,9.941125 -12.088312,18 -27,18 -14.911688,0 -27,-8.058875 -27,-18 0,-9.94113 12.088312,-18 27,-18 14.911688,0 27,8.05887 27,18 z"
     sodipodi:cx="27"
     sodipodi:cy="-106"
     sodipodi:rx="27"
     sodipodi:ry="18"
     style="fill:#cccccc;stroke:#000000"
     transform="translate(129.31494,124.5)" />
  <text
     x="156.31494"
     y="23.099995"
     font-size="14.00"
     id="text14"
     style="font-size:16px;font-style:normal;font-variant:normal;font-weight:normal;font-stretch:normal;text-anchor:middle;font-family:Arial;-inkscape-font-specification:Arial">1</text>
  <ellipse
     cx="27"
     cy="-18"
     rx="27"
     ry="18"
     id="ellipse19"
     d="M 54,-18 C 54,-8.0588745 41.911688,0 27,0 12.088312,0 0,-8.0588745 0,-18 c 0,-9.941125 12.088312,-18 27,-18 14.911688,0 27,8.058875 27,18 z"
     sodipodi:cx="27"
     sodipodi:cy="-18"
     sodipodi:rx="27"
     sodipodi:ry="18"
     style="fill:#000000;stroke:#000000"
     transform="translate(129.31494,113.3)" />
  <text
     x="156.31494"
     y="99.900002"
     font-size="14.00"
     id="text21"
     style="font-size:16px;font-style:normal;font-variant:normal;font-weight:normal;font-stretch:normal;text-anchor:middle;font-family:Arial;-inkscape-font-specification:Arial">
    <tspan
       style="font-size:16px;fill:#ffffff"
       id="tspan3102">0</tspan>
  </text>
  <path
     d="m 156.31494,37.028338 c 0,8.599089 0,20.007777 0,29.789962"
     id="path26"
     inkscape:connector-curvature="0"
     style="fill:none;stroke:#000000;stroke-width:1" />
  <polygon
     points="30.5001,-46.2103 27,-36.2103 23.5001,-46.2103 30.5001,-46.2103 "
     id="polygon28"
     style="fill:#000000;stroke:#000000"
     transform="translate(129.31494,113.3)" />
  <text
     x="194.91493"
     y="59.099995"
     font-size="14.00"
     id="text30"
     style="font-size:16px;font-style:normal;font-variant:normal;font-weight:normal;font-stretch:normal;text-anchor:middle;font-family:Arial;-inkscape-font-specification:Arial">Signal('S')</text>
  <ellipse
     style="fill:#cccccc;stroke:#000000"
     sodipodi:ry="18"
     sodipodi:rx="27"
     sodipodi:cy="-106"
     sodipodi:cx="27"
     cx="27"
     cy="-106"
     rx="27"
     ry="18"
     id="ellipse12-7"
     d="m 54,-106 c 0,9.941125 -12.088312,18 -27,18 -14.911688,0 -27,-8.058875 -27,-18 0,-9.94113 12.088312,-18 27,-18 14.911688,0 27,8.05887 27,18 z"
     transform="translate(0.49999898,124.5)" />
  <text
     style="font-size:16px;text-anchor:middle;font-family:'Times New Roman,serif'"
     x="27.500004"
     y="23.099998"
     font-size="14.00"
     id="text14-9">
    <tspan
       style="font-size:16px;font-style:normal;font-variant:normal;font-weight:normal;font-stretch:normal;font-family:Arial;-inkscape-font-specification:Arial"
       id="tspan3096">1</tspan>
  </text>
  <ellipse
     style="fill:#000000;stroke:#000000"
     sodipodi:ry="18"
     sodipodi:rx="27"
     sodipodi:cy="-18"
     sodipodi:cx="27"
     cx="27"
     cy="-18"
     rx="27"
     ry="18"
     id="ellipse19-4"
     d="M 54,-18 C 54,-8.0588745 41.911688,0 27,0 12.088312,0 0,-8.0588745 0,-18 c 0,-9.941125 12.088312,-18 27,-18 14.911688,0 27,8.058875 27,18 z"
     transform="translate(0.49999898,113.3)" />
  <text
     style="font-size:16px;text-anchor:middle;fill:#ffffff;font-family:'Times New Roman,serif'"
     x="27.500004"
     y="99.899994"
     font-size="14.00"
     id="text21-1">
    <tspan
       style="font-size:16px;font-style:normal;font-variant:normal;font-weight:normal;font-stretch:normal;fill:#ffffff;font-family:Arial;-inkscape-font-specification:Arial"
       id="tspan3100">0</tspan>
  </text>
  <path
     style="fill:none;stroke:#000000;stroke-width:1"
     inkscape:connector-curvature="0"
     d="m 27.500002,37.028335 c 0,8.599089 0,20.007778 0,29.789963"
     id="path26-7" />
  <polygon
     style="fill:#000000;stroke:#000000"
     points="30.5001,-46.2103 30.5001,-46.2103 27,-36.2103 23.5001,-46.2103 "
     id="polygon28-8"
     transform="translate(0.49999898,113.3)" />
  <text
     style="font-size:16px;text-anchor:middle;font-family:'Times New Roman,serif'"
     x="42.899998"
     y="59.099995"
     font-size="14.00"
     id="text30-5">
    <tspan
       style="font-size:16px;font-style:normal;font-variant:normal;font-weight:normal;font-stretch:normal;font-family:Arial;-inkscape-font-specification:Arial"
       id="tspan3098">S()</tspan>
  </text>
</svg>
