<?xml version="1.0" encoding="UTF-8" standalone="no"?>
<!-- Generated by graphviz version 2.26.3 (20100126.1600)
 -->

<!-- Title: Com Pages: 1 -->

<svg
   xmlns:dc="http://purl.org/dc/elements/1.1/"
   xmlns:cc="http://creativecommons.org/ns#"
   xmlns:rdf="http://www.w3.org/1999/02/22-rdf-syntax-ns#"
   xmlns:svg="http://www.w3.org/2000/svg"
   xmlns="http://www.w3.org/2000/svg"
   xmlns:sodipodi="http://sodipodi.sourceforge.net/DTD/sodipodi-0.dtd"
   xmlns:inkscape="http://www.inkscape.org/namespaces/inkscape"
   width="412.0795"
   height="128.24998"
   viewBox="0 0 329.6636 102.59999"
   id="svg2"
   version="1.1"
   inkscape:version="0.48.1 "
   sodipodi:docname="cond_promela.svg">
  <metadata
     id="metadata189">
    <rdf:RDF>
      <cc:Work
         rdf:about="">
        <dc:format>image/svg+xml</dc:format>
        <dc:type
           rdf:resource="http://purl.org/dc/dcmitype/StillImage" />
        <dc:title></dc:title>
      </cc:Work>
    </rdf:RDF>
  </metadata>
  <defs
     id="defs187" />
  <sodipodi:namedview
     pagecolor="#ffffff"
     bordercolor="#666666"
     borderopacity="1"
     objecttolerance="10"
     gridtolerance="10"
     guidetolerance="10"
     inkscape:pageopacity="0"
     inkscape:pageshadow="2"
     inkscape:window-width="1680"
     inkscape:window-height="998"
     id="namedview185"
     showgrid="false"
     fit-margin-top="0"
     fit-margin-left="0"
     fit-margin-right="0"
     fit-margin-bottom="0"
     inkscape:zoom="0.66496817"
     inkscape:cx="-239.83369"
     inkscape:cy="-219.80317"
     inkscape:window-x="-8"
     inkscape:window-y="-8"
     inkscape:window-maximized="1"
     inkscape:current-layer="svg2" />
  <ellipse
     cx="57"
     cy="-105"
     rx="7.1999998"
     ry="7.1999998"
     id="ellipse12-1"
     d="m 64.2,-105 c 0,3.97645 -3.22355,7.2 -7.2,7.2 -3.97645,0 -7.2,-3.22355 -7.2,-7.2 0,-3.97645 3.22355,-7.2 7.2,-7.2 3.97645,0 7.2,3.22355 7.2,7.2 z"
     sodipodi:cx="57"
     sodipodi:cy="-105"
     sodipodi:rx="7.1999998"
     sodipodi:ry="7.1999998"
     style="fill:#000000;stroke:#000000"
     transform="translate(214.66361,112.7)" />
  <polyline
     points="11.5,-1 102.5,-1 "
     id="polyline17-6"
     style="fill:none;stroke:#000000"
     transform="translate(214.66361,103.09999)" />
  <path
     d="m 317.16361,102.09999 c 6,0 12,-5.999998 12,-11.999998"
     id="path19-8"
     inkscape:connector-curvature="0"
     style="fill:none;stroke:#000000" />
  <polyline
     points="114.5,-13 114.5,-47 "
     id="polyline21-5"
     style="fill:none;stroke:#000000"
     transform="translate(214.66361,103.09999)" />
  <path
     d="m 329.16361,56.09999 c 0,-6 -6,-12 -12,-12"
     id="path23-7"
     inkscape:connector-curvature="0"
     style="fill:none;stroke:#000000" />
  <polyline
     points="102.5,-59 11.5,-59 "
     id="polyline25-6"
     style="fill:none;stroke:#000000"
     transform="translate(214.66361,103.09999)" />
  <path
     d="m 226.16361,44.09999 c -6,0 -12,6 -12,12"
     id="path27-1"
     inkscape:connector-curvature="0"
     style="fill:none;stroke:#000000" />
  <polyline
     points="-0.5,-47 -0.5,-13 "
     id="polyline29-8"
     style="fill:none;stroke:#000000"
     transform="translate(214.66361,103.09999)" />
  <path
     d="m 214.16361,90.099992 c 0,6 6,11.999998 12,11.999998"
     id="path31-9"
     inkscape:connector-curvature="0"
     style="fill:none;stroke:#000000" />
  <text
     x="271.62259"
     y="77.700005"
     font-size="14.00"
     id="text33-2"
     style="font-size:14px;font-style:normal;font-variant:normal;font-weight:normal;font-stretch:normal;text-anchor:middle;font-family:Arial;-inkscape-font-specification:Arial">Restricted</text>
  <path
     d="m 271.66361,8.7654896 c 0,6.7949004 0,17.3866004 0,28.1833004"
     id="path38-7"
     inkscape:connector-curvature="0"
     style="fill:none;stroke:#000000" />
  <polygon
     points="60.5001,-69.0539 57,-59.054 53.5001,-69.054 60.5001,-69.0539 "
     id="polygon40-9"
     style="fill:#000000;stroke:#000000"
     transform="translate(214.66361,103.09999)" />
  <path
     d="m 213.97408,56.034434 c -10.278,1.10121 -17.456,3.92521 -17.456,8.4721 0,2.84181 2.804,5.0106 7.416,6.5064"
     id="path45"
     inkscape:connector-curvature="0"
     style="fill:none;stroke:#000000" />
  <polygon
     points="123.686,-26.8842 125.031,-20.0147 125.031,-20.0147 114.544,-21.5279 "
     id="polygon47"
     style="fill:#000000;stroke:#000000"
     transform="matrix(-1,0,0,1,327.66738,94.293862)" />
  <text
     xml:space="preserve"
     style="font-size:14px;font-style:normal;font-variant:normal;font-weight:normal;font-stretch:normal;text-align:center;line-height:125%;letter-spacing:0px;word-spacing:0px;text-anchor:middle;fill:#000000;fill-opacity:1;stroke:none;font-family:Arial;-inkscape-font-specification:Arial"
     x="117.4209"
     y="37.178066"
     id="text3216"
     sodipodi:linespacing="125%"><tspan
       sodipodi:role="line"
       id="tspan3218"
       x="117.4209"
       y="37.178066"><tspan
   style="font-weight:bold"
   id="tspan3046">receive</tspan> T(a, b, c | a == b + 1) <tspan
   style="font-weight:bold"
   id="tspan3044">from</tspan> Q;</tspan><tspan
       sodipodi:role="line"
       x="117.4209"
       y="54.678066"
       id="tspan3220"
       style="font-weight:bold;text-align:center;text-anchor:middle">receive <tspan
   style="font-weight:normal"
   id="tspan3038">S([[a]]) </tspan>from <tspan
   style="font-weight:normal"
   id="tspan3040">P</tspan></tspan></text>
</svg>
