<?xml version="1.0" encoding="UTF-8" standalone="no"?>
<!-- Generated by graphviz version 2.26.3 (20100126.1600)
 -->

<!-- Title: Com Pages: 1 -->

<svg
   xmlns:dc="http://purl.org/dc/elements/1.1/"
   xmlns:cc="http://creativecommons.org/ns#"
   xmlns:rdf="http://www.w3.org/1999/02/22-rdf-syntax-ns#"
   xmlns:svg="http://www.w3.org/2000/svg"
   xmlns="http://www.w3.org/2000/svg"
   xmlns:sodipodi="http://sodipodi.sourceforge.net/DTD/sodipodi-0.dtd"
   xmlns:inkscape="http://www.inkscape.org/namespaces/inkscape"
   width="675.62708"
   height="153.38676"
   viewBox="0 0 540.50166 122.70941"
   id="svg2"
   version="1.1"
   inkscape:version="0.48.1 "
   sodipodi:docname="cond_before_after.svg">
  <metadata
     id="metadata189">
    <rdf:RDF>
      <cc:Work
         rdf:about="">
        <dc:format>image/svg+xml</dc:format>
        <dc:type
           rdf:resource="http://purl.org/dc/dcmitype/StillImage" />
        <dc:title />
      </cc:Work>
    </rdf:RDF>
  </metadata>
  <defs
     id="defs187" />
  <sodipodi:namedview
     pagecolor="#ffffff"
     bordercolor="#666666"
     borderopacity="1"
     objecttolerance="10"
     gridtolerance="10"
     guidetolerance="10"
     inkscape:pageopacity="0"
     inkscape:pageshadow="2"
     inkscape:window-width="1680"
     inkscape:window-height="998"
     id="namedview185"
     showgrid="false"
     fit-margin-top="0"
     fit-margin-left="0"
     fit-margin-right="0"
     fit-margin-bottom="0"
     inkscape:zoom="0.940407"
     inkscape:cx="250.56489"
     inkscape:cy="-125.50188"
     inkscape:window-x="-8"
     inkscape:window-y="-8"
     inkscape:window-maximized="1"
     inkscape:current-layer="svg2" />
  <ellipse
     cx="103.34"
     cy="-217"
     rx="7.1999998"
     ry="7.1999998"
     id="ellipse12-7"
     d="m 110.54,-217 c 0,3.97645 -3.22355,7.2 -7.2,7.2 -3.976454,0 -7.200003,-3.22355 -7.200003,-7.2 0,-3.97645 3.223549,-7.2 7.200003,-7.2 3.97645,0 7.2,3.22355 7.2,7.2 z"
     sodipodi:cx="103.34"
     sodipodi:cy="-217"
     sodipodi:rx="7.1999998"
     sodipodi:ry="7.1999998"
     style="fill:#000000;stroke:#000000"
     transform="matrix(0.99866843,0,0,0.99866843,-45.279626,224.40079)" />
  <polyline
     points="57.84,-113 148.84,-113 "
     id="polyline17-4"
     style="fill:none;stroke:#000000"
     transform="matrix(0.99866843,0,0,0.99866843,-45.279626,211.60079)" />
  <path
     d="m 103.36218,98.751264 c 5.99201,0 11.98402,-5.992013 11.98402,-11.984023"
     id="path19-0"
     inkscape:connector-curvature="0"
     style="fill:none;stroke:#000000;stroke-width:0.99866843" />
  <polyline
     points="160.84,-125 160.84,-159 "
     id="polyline21-9"
     style="fill:none;stroke:#000000"
     transform="matrix(0.99866843,0,0,0.99866843,-45.279626,211.60079)" />
  <path
     d="m 115.3462,52.812521 c 0,-5.99201 -5.99201,-11.98402 -11.98402,-11.98402"
     id="path23-4"
     inkscape:connector-curvature="0"
     style="fill:none;stroke:#000000;stroke-width:0.99866843" />
  <polyline
     points="148.84,-171 57.84,-171 "
     id="polyline25-8"
     style="fill:none;stroke:#000000"
     transform="matrix(0.99866843,0,0,0.99866843,-45.279626,211.60079)" />
  <path
     d="m 12.483354,40.828501 c -5.9920098,0 -11.98401978,5.99201 -11.98401978,11.98402"
     id="path27-8"
     inkscape:connector-curvature="0"
     style="fill:none;stroke:#000000;stroke-width:0.99866843" />
  <polyline
     points="45.84,-159 45.84,-125 "
     id="polyline29-2"
     style="fill:none;stroke:#000000"
     transform="matrix(0.99866843,0,0,0.99866843,-45.279626,211.60079)" />
  <path
     d="m 0.49933422,86.767241 c 0,5.99201 5.99200998,11.984023 11.98401978,11.984023"
     id="path31-4"
     inkscape:connector-curvature="0"
     style="fill:none;stroke:#000000;stroke-width:0.99866843" />
  <text
     x="57.922768"
     y="74.383789"
     font-size="14.00"
     id="text33-5"
     style="font-size:13.98135757px;font-style:normal;font-variant:normal;font-weight:normal;font-stretch:normal;text-anchor:middle;font-family:Arial;-inkscape-font-specification:Arial">Old</text>
  <path
     d="m 57.922772,7.6658508 c 0,5.5030802 0,14.0812502 0,22.8254302"
     id="path38-5"
     inkscape:connector-curvature="0"
     style="fill:none;stroke:#000000;stroke-width:0.99866849" />
  <polygon
     points="106.84,-181.054 103.34,-171.054 99.8401,-181.054 106.84,-181.054 "
     id="polygon40-1"
     style="fill:#000000;stroke:#000000"
     transform="matrix(0.99866843,0,0,0.99866843,-45.279626,211.60079)" />
  <text
     xml:space="preserve"
     style="font-size:14px;font-style:normal;font-variant:normal;font-weight:normal;font-stretch:normal;text-align:center;line-height:125%;letter-spacing:0px;word-spacing:0px;text-anchor:middle;fill:#000000;fill-opacity:1;stroke:none;font-family:Arial;-inkscape-font-specification:Arial"
     x="215.32954"
     y="87.538513"
     id="text3204"
     sodipodi:linespacing="125%"><tspan
       sodipodi:role="line"
       id="tspan3206"
       x="215.32954"
       y="87.538513"><tspan
   style="font-weight:bold"
   id="tspan3212">receive</tspan> T(a, b, c) <tspan
   style="font-weight:bold"
   id="tspan3214">from</tspan> Q</tspan><tspan
       sodipodi:role="line"
       x="215.32954"
       y="105.03851"
       id="tspan3208">[a == b + 1]</tspan><tspan
       sodipodi:role="line"
       x="215.32954"
       y="122.53851"
       id="tspan3210">/</tspan></text>
  <ellipse
     cx="57"
     cy="-105"
     rx="7.1999998"
     ry="7.1999998"
     id="ellipse12-1"
     d="m 64.2,-105 c 0,3.97645 -3.22355,7.2 -7.2,7.2 -3.97645,0 -7.2,-3.22355 -7.2,-7.2 0,-3.97645 3.22355,-7.2 7.2,-7.2 3.97645,0 7.2,3.22355 7.2,7.2 z"
     sodipodi:cx="57"
     sodipodi:cy="-105"
     sodipodi:rx="7.1999998"
     sodipodi:ry="7.1999998"
     style="fill:#000000;stroke:#000000"
     transform="translate(425.50167,113.05022)" />
  <polyline
     points="11.5,-1 102.5,-1 "
     id="polyline17-6"
     style="fill:none;stroke:#000000"
     transform="translate(425.50167,103.45021)" />
  <path
     d="m 528.00167,102.45021 c 6,0 12,-5.999992 12,-11.999992"
     id="path19-8"
     inkscape:connector-curvature="0"
     style="fill:none;stroke:#000000" />
  <polyline
     points="114.5,-13 114.5,-47 "
     id="polyline21-5"
     style="fill:none;stroke:#000000"
     transform="translate(425.50167,103.45021)" />
  <path
     d="m 540.00167,56.450216 c 0,-6 -6,-12 -12,-12"
     id="path23-7"
     inkscape:connector-curvature="0"
     style="fill:none;stroke:#000000" />
  <polyline
     points="102.5,-59 11.5,-59 "
     id="polyline25-6"
     style="fill:none;stroke:#000000"
     transform="translate(425.50167,103.45021)" />
  <path
     d="m 437.00167,44.450216 c -6,0 -12,6 -12,12"
     id="path27-1"
     inkscape:connector-curvature="0"
     style="fill:none;stroke:#000000" />
  <polyline
     points="-0.5,-47 -0.5,-13 "
     id="polyline29-8"
     style="fill:none;stroke:#000000"
     transform="translate(425.50167,103.45021)" />
  <path
     d="m 425.00167,90.450218 c 0,6 6,11.999992 12,11.999992"
     id="path31-9"
     inkscape:connector-curvature="0"
     style="fill:none;stroke:#000000" />
  <text
     x="482.50174"
     y="78.050232"
     font-size="14.00"
     id="text33-2"
     style="font-size:14px;font-style:normal;font-variant:normal;font-weight:normal;font-stretch:normal;text-anchor:middle;font-family:Arial;-inkscape-font-specification:Arial">New</text>
  <path
     d="m 482.50167,9.1157158 c 0,6.7949002 0,17.3866002 0,28.1833002"
     id="path38-7"
     inkscape:connector-curvature="0"
     style="fill:none;stroke:#000000" />
  <polygon
     points="60.5001,-69.0539 57,-59.054 53.5001,-69.054 60.5001,-69.0539 "
     id="polygon40-9"
     style="fill:#000000;stroke:#000000"
     transform="translate(425.50167,103.45021)" />
  <path
     d="m 424.81214,56.38466 c -10.278,1.10121 -17.456,3.92521 -17.456,8.4721 0,2.84181 2.804,5.0106 7.416,6.5064"
     id="path45"
     inkscape:connector-curvature="0"
     style="fill:none;stroke:#000000" />
  <polygon
     points="123.686,-26.8842 125.031,-20.0147 125.031,-20.0147 114.544,-21.5279 "
     id="polygon47"
     style="fill:#000000;stroke:#000000"
     transform="matrix(-1,0,0,1,538.50544,94.644088)" />
  <text
     xml:space="preserve"
     style="font-size:14px;font-style:normal;font-variant:normal;font-weight:normal;font-stretch:normal;text-align:center;line-height:125%;letter-spacing:0px;word-spacing:0px;text-anchor:middle;fill:#000000;fill-opacity:1;stroke:none;font-family:Arial;-inkscape-font-specification:Arial"
     x="328.25897"
     y="37.528294"
     id="text3216"
     sodipodi:linespacing="125%"><tspan
       sodipodi:role="line"
       id="tspan3218"
       x="328.25897"
       y="37.528294"><tspan
   style="font-weight:bold"
   id="tspan3046">receive</tspan> T(a, b, c | a == b + 1) <tspan
   style="font-weight:bold"
   id="tspan3044">from</tspan> Q</tspan><tspan
       sodipodi:role="line"
       x="328.25897"
       y="55.028294"
       id="tspan3220"
       style="font-weight:bold;text-align:center;text-anchor:middle">/</tspan></text>
  <path
     style="fill:none;stroke:#000000"
     inkscape:connector-curvature="0"
     id="path3040"
     d="m 115.80238,61.798453 c 10.278,1.10121 17.456,3.92521 17.456,8.4721 0,2.84181 -2.804,5.0106 -7.416,6.5064" />
  <polygon
     transform="translate(2.1090842,100.05787)"
     style="fill:#000000;stroke:#000000"
     id="polygon3042"
     points="114.544,-21.5279 123.686,-26.8842 125.031,-20.0147 125.031,-20.0147 " />
  <text
     xml:space="preserve"
     style="font-size:14px;font-style:normal;font-variant:normal;font-weight:normal;font-stretch:normal;line-height:125%;letter-spacing:0px;word-spacing:0px;fill:#000000;fill-opacity:1;stroke:none;font-family:Arial;-inkscape-font-specification:Arial"
     x="74.87011"
     y="24.589596"
     id="text3044"
     sodipodi:linespacing="125%"><tspan
       sodipodi:role="line"
       id="tspan3047"
       x="74.87011"
       y="24.589596">/</tspan></text>
  <text
     sodipodi:linespacing="125%"
     id="text3049"
     y="29.401855"
     x="494.73984"
     style="font-size:14px;font-style:normal;font-variant:normal;font-weight:normal;font-stretch:normal;line-height:125%;letter-spacing:0px;word-spacing:0px;fill:#000000;fill-opacity:1;stroke:none;font-family:Arial;-inkscape-font-specification:Arial"
     xml:space="preserve"><tspan
       y="29.401855"
       x="494.73984"
       id="tspan3051"
       sodipodi:role="line">/</tspan></text>
</svg>
